<svg width="70" height="69" viewBox="0 0 70 69" fill="none" xmlns="http://www.w3.org/2000/svg">
<rect width="70" height="69" rx="10" fill="white"/>
<mask id="path-3-inside-1" fill="white">
<rect x="24" y="37.3613" width="9.77359" height="13.1474" rx="1"/>
</mask>
<rect x="24" y="37.3613" width="9.77359" height="13.1474" rx="1" stroke="#C668BC" stroke-width="3" stroke-linecap="round" stroke-linejoin="round" mask="url(#path-3-inside-1)"/>
<mask id="path-4-inside-2" fill="white">
<rect x="25.2217" y="23.3379" width="7.33019" height="14.4622" rx="1"/>
</mask>
<rect x="25.2217" y="23.3379" width="7.33019" height="14.4622" rx="1" stroke="#C668BC" stroke-width="3" stroke-linecap="round" stroke-linejoin="round" mask="url(#path-4-inside-2)"/>
<path d="M26.5654 23.5572V19.3939C26.5654 19.3939 26.5654 19.1748 26.5654 19.0652C26.5654 18.6848 27.2739 18.1505 28.0315 17.6409C28.5201 17.3122 31.2079 16.3219 31.2079 17.7505C31.2079 18.2983 31.2079 17.2558 31.2079 17.6409C31.2079 19.9514 31.2079 23.5572 31.2079 23.5572" stroke="#C668BC" stroke-width="1.5"/>
<mask id="path-7-inside-3" fill="white">
<rect x="37.9622" y="17" width="8.37736" height="33.5094" rx="1"/>
</mask>
<rect x="37.9622" y="17" width="8.37736" height="33.5094" rx="1" stroke="#C668BC" stroke-width="3" stroke-linecap="round" stroke-linejoin="round" mask="url(#path-7-inside-3)"/>
<path d="M38.1665 38.1309H46.1352" stroke="#C668BC" stroke-width="1.5"/>
</svg>
