<svg width="70" height="69" viewBox="0 0 70 69" fill="none" xmlns="http://www.w3.org/2000/svg">
<rect width="70" height="69" rx="10" fill="white"/>
<path d="M40.5515 30.2645C40.5515 32.6026 38.5664 34.566 36.032 34.566C33.4976 34.566 31.5125 32.6026 31.5125 30.2645C31.5125 27.9264 33.4976 25.9629 36.032 25.9629C38.5664 25.9629 40.5515 27.9264 40.5515 30.2645Z" stroke="#C668BC" stroke-width="2"/>
<path d="M41.3143 38.6982C42.5233 40.0664 43.3983 42.2662 43.5414 45.6497H43.5325H43.5201H43.5077H43.4952H43.4827H43.4701H43.4574H43.4447H43.4319H43.419H43.4061H43.3931H43.38H43.3669H43.3537H43.3404H43.3271H43.3137H43.3002H43.2867H43.2731H43.2595H43.2458H43.232H43.2182H43.2043H43.1903H43.1763H43.1622H43.148H43.1338H43.1195H43.1052H43.0908H43.0763H43.0618H43.0472H43.0326H43.0179H43.0031H42.9882H42.9734H42.9584H42.9434H42.9283H42.9132H42.898H42.8827H42.8674H42.852H42.8366H42.8211H42.8055H42.7899H42.7742H42.7585H42.7427H42.7268H42.7109H42.6949H42.6789H42.6628H42.6466H42.6304H42.6141H42.5978H42.5814H42.565H42.5485H42.5319H42.5153H42.4986H42.4819H42.4651H42.4483H42.4314H42.4144H42.3974H42.3803H42.3632H42.346H42.3288H42.3115H42.2942H42.2768H42.2593H42.2418H42.2242H42.2066H42.1889H42.1712H42.1534H42.1355H42.1176H42.0997H42.0817H42.0636H42.0455H42.0273H42.0091H41.9908H41.9725H41.9541H41.9357H41.9172H41.8986H41.88H41.8614H41.8427H41.8239H41.8051H41.7863H41.7674H41.7484H41.7294H41.7103H41.6912H41.672H41.6528H41.6335H41.6142H41.5948H41.5754H41.556H41.5364H41.5169H41.4972H41.4776H41.4578H41.4381H41.4182H41.3984H41.3785H41.3585H41.3385H41.3184H41.2983H41.2781H41.2579H41.2376H41.2173H41.197H41.1766H41.1561H41.1356H41.115H41.0944H41.0738H41.0531H41.0324H41.0116H40.9908H40.9699H40.9489H40.928H40.9069H40.8859H40.8648H40.8436H40.8224H40.8012H40.7799H40.7585H40.7371H40.7157H40.6942H40.6727H40.6511H40.6295H40.6079H40.5862H40.5644H40.5427H40.5208H40.4989H40.477H40.4551H40.4331H40.411H40.3889H40.3668H40.3446H40.3224H40.3001H40.2778H40.2555H40.2331H40.2106H40.1882H40.1657H40.1431H40.1205H40.0979H40.0752H40.0524H40.0297H40.0069H39.984H39.9611H39.9382H39.9152H39.8922H39.8692H39.8461H39.823H39.7998H39.7766H39.7533H39.7301H39.7067H39.6834H39.66H39.6365H39.613H39.5895H39.5659H39.5423H39.5187H39.495H39.4713H39.4476H39.4238H39.4H39.3761H39.3522H39.3283H39.3043H39.2803H39.2562H39.2321H39.208H39.1839H39.1597H39.1354H39.1112H39.0869H39.0625H39.0382H39.0138H38.9893H38.9648H38.9403H38.9158H38.8912H38.8666H38.8419H38.8172H38.7925H38.7677H38.743H38.7181H38.6933H38.6684H38.6435H38.6185H38.5935H38.5685H38.5434H38.5183H38.4932H38.4681H38.4429H38.4177H38.3924H38.3671H38.3418H38.3165H38.2911H38.2657H38.2402H38.2147H38.1892H38.1637H38.1381H38.1125H38.0869H38.0612H38.0356H38.0098H37.9841H37.9583H37.9325H37.9067H37.8808H37.8549H37.829H37.803H37.777H37.751H37.725H37.6989H37.6728H37.6467H37.6205H37.5943H37.5681H37.5419H37.5156H37.4893H37.463H37.4366H37.4102H37.3838H37.3574H37.3309H37.3045H37.2779H37.2514H37.2248H37.1982H37.1716H37.145H37.1183H37.0916H37.0649H37.0382H37.0114H36.9846H36.9578H36.9309H36.904H36.8772H36.8502H36.8233H36.7963H36.7693H36.7423H36.7153H36.6882H36.6611H36.634H36.6069H36.5797H36.5525H36.5253H36.4981H36.4708H36.4436H36.4163H36.389H36.3616H36.3343H36.3069H36.2795H36.2521H36.2246H36.1971H36.1697H36.1421H36.1146H36.0871H36.0595H36.0319H36.0043H35.9767H35.9491H35.9215H35.894H35.8664H35.8389H35.8114H35.7838H35.7563H35.7288H35.7013H35.6739H35.6464H35.6189H35.5915H35.5641H35.5366H35.5092H35.4818H35.4545H35.4271H35.3997H35.3724H35.345H35.3177H35.2904H35.2631H35.2358H35.2086H35.1813H35.1541H35.1269H35.0997H35.0725H35.0453H35.0181H34.991H34.9639H34.9368H34.9097H34.8826H34.8555H34.8285H34.8014H34.7744H34.7474H34.7204H34.6935H34.6665H34.6396H34.6127H34.5858H34.5589H34.5321H34.5052H34.4784H34.4516H34.4248H34.3981H34.3713H34.3446H34.3179H34.2912H34.2646H34.2379H34.2113H34.1847H34.1581H34.1315H34.105H34.0785H34.052H34.0255H33.9991H33.9726H33.9462H33.9199H33.8935H33.8672H33.8408H33.8146H33.7883H33.762H33.7358H33.7096H33.6834H33.6573H33.6312H33.6051H33.579H33.5529H33.5269H33.5009H33.4749H33.449H33.4231H33.3972H33.3713H33.3454H33.3196H33.2938H33.2681H33.2423H33.2166H33.1909H33.1653H33.1397H33.1141H33.0885H33.0629H33.0374H33.0119H32.9865H32.961H32.9356H32.9103H32.8849H32.8596H32.8343H32.8091H32.7839H32.7587H32.7335H32.7084H32.6833H32.6582H32.6332H32.6082H32.5832H32.5583H32.5333H32.5085H32.4836H32.4588H32.434H32.4093H32.3846H32.3599H32.3352H32.3106H32.286H32.2615H32.237H32.2125H32.1881H32.1637H32.1393H32.1149H32.0906H32.0664H32.0421H32.0179H31.9938H31.9696H31.9455H31.9215H31.8975H31.8735H31.8496H31.8256H31.8018H31.7779H31.7541H31.7304H31.7067H31.683H31.6593H31.6357H31.6122H31.5886H31.5652H31.5417H31.5183H31.4949H31.4716H31.4483H31.4251H31.4019H31.3787H31.3556H31.3325H31.3094H31.2864H31.2634H31.2405H31.2176H31.1948H31.172H31.1492H31.1265H31.1039H31.0812H31.0586H31.0361H31.0136H30.9911H30.9687H30.9464H30.924H30.9018H30.8795H30.8573H30.8352H30.8131H30.791H30.769H30.747H30.7251H30.7032H30.6814H30.6596H30.6379H30.6162H30.5945H30.5729H30.5514H30.5299H30.5084H30.487H30.4657H30.4443H30.4231H30.4019H30.3807H30.3596H30.3385H30.3175H30.2965H30.2756H30.2547H30.2339H30.2131H30.1923H30.1717H30.151H30.1305H30.1099H30.0895H30.069H30.0487H30.0283H30.0081H29.9878H29.9677H29.9476H29.9275H29.9075H29.8875H29.8676H29.8478H29.828H29.8082H29.7885H29.7689H29.7493H29.7298H29.7103H29.6909H29.6715H29.6522H29.6329H29.6137H29.5946H29.5755H29.5564H29.5374H29.5185H29.4996H29.4808H29.4621H29.4434H29.4247H29.4061H29.3876H29.3691H29.3507H29.3323H29.314H29.2958H29.2776H29.2595H29.2414H29.2234H29.2055H29.1876H29.1697H29.152H29.1342H29.1166H29.099H29.0815H29.064H29.0466H29.0292H29.0119H28.9947H28.9775H28.9604H28.9434H28.9264H28.9094H28.8926H28.8758H28.859H28.8424H28.8258H28.8092H28.7927H28.7763H28.7599H28.7436H28.7274H28.7112H28.6951H28.6791H28.6631H28.6472H28.6314H28.6156H28.5999H28.5842H28.5686H28.5531H28.5376H28.5223H28.5069H28.4917H28.4765H28.4614H28.4463H28.4313H28.4164H28.4015H28.3868H28.372H28.3574H28.3428H28.3283H28.3139H28.2995H28.2852H28.2709H28.2568H28.2427H28.2286H28.2147H28.2008H28.187H28.1732H28.1595H28.1459H28.1324H28.1189H28.1055H28.0922H28.0789H28.0658H28.0526H28.0396H28.0266H28.0234C28.1843 42.2944 29.1595 40.1008 30.4723 38.7269C31.9088 37.2235 33.8786 36.5664 36.0319 36.5664C38.1792 36.5664 40.0068 37.2187 41.3143 38.6982Z" stroke="#C668BC" stroke-width="2" stroke-linecap="round" stroke-linejoin="round"/>
</svg>
