<svg width="70" height="69" viewBox="0 0 70 69" fill="none" xmlns="http://www.w3.org/2000/svg">
<rect width="70" height="69" rx="10" fill="white"/>
<path d="M39.0222 25.418H26C24.8954 25.418 24 26.3134 24 27.418V44.9994C24 46.104 24.8954 46.9994 26 46.9994H43.411C44.5156 46.9994 45.411 46.104 45.411 44.9994V31.8576" stroke="#C668BC" stroke-width="2" stroke-linecap="round" stroke-linejoin="round"/>
<path d="M32.7754 36.1146C32.8192 35.9379 32.9097 35.7766 33.0375 35.6479L44.4641 24.1302C44.8531 23.7382 45.4837 23.7382 45.8727 24.1302L46.8871 25.1527C47.2761 25.5447 47.2761 26.1804 46.8871 26.5725L35.4071 38.1438C35.2963 38.2555 35.1609 38.3393 35.012 38.3883L33.6754 38.8281C32.9311 39.0731 32.2103 38.3963 32.3999 37.6306L32.7754 36.1146L31.809 35.8714L32.7754 36.1146Z" stroke="#C668BC" stroke-width="2" stroke-linecap="round" stroke-linejoin="round"/>
<path d="M46.092 27.2275L35.7206 37.6593L33.3718 35.4343L43.8396 24.8334L46.092 27.2275Z" stroke="#C668BC" stroke-width="2" stroke-linecap="round" stroke-linejoin="round"/>
</svg>
