<svg width="70" height="69" viewBox="0 0 70 69" fill="none" xmlns="http://www.w3.org/2000/svg">
<rect width="70" height="69" rx="10" fill="white"/>
<rect x="27.75" y="33.1914" width="15.25" height="4.41912" stroke="#C668BC" stroke-width="1.5" stroke-linecap="round" stroke-linejoin="round"/>
<path d="M31.0009 32.2067C31.0479 29.9002 32.9323 28.0449 35.25 28.0449H36C38.3177 28.0449 40.2021 29.9002 40.2491 32.2067H31.0009Z" stroke="#C668BC" stroke-width="1.5" stroke-linecap="round" stroke-linejoin="round"/>
<path d="M33 24.4785C33 22.7526 34.3991 21.3535 36.125 21.3535H38.0577C38.7162 21.3535 39.25 21.8873 39.25 22.5458C39.25 22.7149 39.1245 22.9454 38.8353 23.0923C38.548 23.2384 38.2062 23.4471 37.9268 23.7311C37.6453 24.0172 37.375 24.4359 37.375 24.9785V24.9846V24.9906V24.9967V25.0028V25.0089V25.015V25.0212V25.0273V25.0335V25.0397V25.0459V25.0521V25.0584V25.0646V25.0709V25.0772V25.0835V25.0898V25.0962V25.1025V25.1089V25.1153V25.1217V25.1281V25.1345V25.141V25.1474V25.1539V25.1604V25.1669V25.1734V25.18V25.1865V25.1931V25.1996V25.2062V25.2128V25.2194V25.2261V25.2327V25.2393V25.246V25.2527V25.2594V25.2661V25.2728V25.2795V25.2863V25.293V25.2998V25.3066V25.3134V25.3202V25.327V25.3338V25.3406V25.3475V25.3543V25.3612V25.3681V25.375V25.3819V25.3888V25.3957V25.4026V25.4096V25.4165V25.4235V25.4305V25.4375V25.4444V25.4514V25.4585V25.4655V25.4725V25.4795V25.4866V25.4936V25.5007V25.5078V25.5149V25.522V25.5291V25.5362V25.5433V25.5504V25.5575V25.5647V25.5718V25.579V25.5861V25.5933V25.6005V25.6076V25.6148V25.622V25.6292V25.6364V25.6436V25.6509V25.6581V25.6653V25.6726V25.6798V25.6871V25.6943V25.7016V25.7088V25.7161V25.7234V25.7307V25.738V25.7453V25.7526V25.7599V25.7672V25.7745V25.7818V25.7891V25.7964V25.8037V25.8111V25.8184V25.8257V25.8331V25.8404V25.8478V25.8551V25.8625V25.8698V25.8772V25.8846V25.8919V25.8993V25.9066V25.914V25.9214V25.9288V25.9361V25.9435V25.9509V25.9583V25.9657V25.973V25.9804V25.9878V25.9952V26.0026V26.01V26.0174V26.0247V26.0321V26.0395V26.0469V26.0543V26.0617V26.0691V26.0765V26.0839V26.0912V26.0986V26.106V26.1134V26.1208V26.1282V26.1355V26.1429V26.1503V26.1577V26.1651V26.1724V26.1798V26.1872V26.1945V26.2019V26.2093V26.2166V26.224V26.2313V26.2387V26.246V26.2534V26.2607V26.268V26.2754V26.2827V26.29V26.2974V26.3047V26.312V26.3193V26.3266V26.3339V26.3412V26.3485V26.3558V26.3631V26.3703V26.3776V26.3849V26.3921V26.3994V26.4067V26.4139V26.4211V26.4284V26.4356V26.4428V26.45V26.4572V26.4645V26.4716V26.4788V26.486V26.4932V26.5004V26.5075V26.5147V26.5218V26.529V26.5361V26.5432V26.5503V26.5574V26.5645V26.5716V26.5787V26.5858V26.5929V26.5999V26.607V26.614V26.621V26.6281V26.6351V26.6421V26.6491V26.656V26.663V26.67V26.6769V26.6839V26.6908V26.6977V26.7047V26.7116V26.7185V26.7253V26.7322V26.7391V26.7459V26.7528V26.7596V26.7664V26.7732V26.78V26.7868V26.7935V26.8003V26.807V26.8138V26.8205V26.8272V26.8339V26.8406V26.8472V26.8539V26.8605V26.8672V26.8738V26.8804V26.887V26.8935V26.9001V26.9067V26.9132V26.9197V26.9262V26.9327V26.9392V26.9456V26.9521V26.9585V26.9649V26.9714V26.9777V26.9841V26.9905V26.9968V27.0031V27.0094V27.0157V27.022V27.0283V27.0345V27.0408V27.047V27.0532V27.0594V27.0594H33V24.4785Z" stroke="#C668BC" stroke-width="1.5" stroke-linecap="round" stroke-linejoin="round"/>
<rect x="27.75" y="17.75" width="15.5" height="33.5" rx="2.25" stroke="#C668BC" stroke-width="1.5" stroke-linecap="round" stroke-linejoin="round"/>
</svg>
