<svg width="70" height="69" viewBox="0 0 70 69" fill="none" xmlns="http://www.w3.org/2000/svg">
<rect width="70" height="69" rx="10" fill="white"/>
<path d="M33.4712 20.0751L33.4712 20.0751C33.4616 20.0452 33.4531 20.0225 33.445 20.0038C33.3663 19.8205 33.1028 19.2327 32.7127 18.6157C32.3071 17.9741 31.8344 17.4143 31.3723 17.1639C30.9509 16.9356 30.2991 16.8362 29.5746 16.8326C29.0119 16.8299 28.5212 17.4197 28.7589 18.1773L36.9993 44.4415C37.2738 45.3163 37.0643 46.2041 36.7864 46.8869C36.4881 47.6197 36.2539 48.7895 36.9364 50.1515C37.939 52.1524 39.9782 52.1968 40.3991 52.1822C40.4104 52.1818 40.4229 52.1813 40.4361 52.1808C40.4766 52.1793 40.5247 52.1776 40.5703 52.1766C42.7499 52.1302 44.4501 50.4509 44.4382 48.3334C44.4303 46.9081 43.6776 45.8309 42.9169 45.2693C42.897 45.2546 42.8769 45.2397 42.8565 45.2247C42.5282 44.9826 42.1318 44.6904 41.7846 44.354C41.4129 43.994 41.0482 43.5384 40.8618 42.9613L33.4712 20.0751Z" stroke="#C668BC" stroke-width="1.5" stroke-linecap="round" stroke-linejoin="round"/>
<path d="M51.0715 39.6324C51.0715 40.4929 50.347 41.2276 49.4069 41.2276C48.4667 41.2276 47.7422 40.4929 47.7422 39.6324C47.7422 38.7718 48.4667 38.0371 49.4069 38.0371C50.347 38.0371 51.0715 38.7718 51.0715 39.6324Z" stroke="#C668BC" stroke-width="1.5" stroke-linecap="round" stroke-linejoin="round"/>
<path d="M20.1089 33.0694L20.1089 33.0694C20.0804 33.0608 20.0578 33.053 20.0393 33.0456C19.8539 32.9718 19.2448 32.7187 18.6033 32.3414C17.9342 31.948 17.3532 31.4898 17.0948 31.0455C16.8635 30.6478 16.7581 30.0275 16.7505 29.3289C16.7445 28.7891 17.3081 28.3022 18.0603 28.5205L45.3356 36.4362C46.174 36.6795 47.0161 36.4855 47.6743 36.218C48.4323 35.9098 49.6823 35.6432 51.1424 36.3239C53.2054 37.2856 53.2606 39.2405 53.2491 39.6426C53.2487 39.6564 53.2482 39.6725 53.2476 39.6899C53.2463 39.7302 53.2448 39.7776 53.244 39.8205C53.2058 41.8838 51.5173 43.5716 49.2861 43.5716C47.8154 43.5716 46.7056 42.8564 46.1188 42.1355C46.0834 42.092 46.0469 42.0468 46.0092 42.0002C45.7663 41.6996 45.4771 41.3418 45.1575 41.0292C44.7843 40.6641 44.3146 40.3032 43.7271 40.1276L20.1089 33.0694Z" stroke="#C668BC" stroke-width="1.5" stroke-linecap="round" stroke-linejoin="round"/>
<path d="M42.1372 48.3081C42.1372 49.1687 41.4127 49.9034 40.4725 49.9034C39.5324 49.9034 38.8079 49.1687 38.8079 48.3081C38.8079 47.4476 39.5324 46.7129 40.4725 46.7129C41.4127 46.7129 42.1372 47.4476 42.1372 48.3081Z" stroke="#C668BC" stroke-width="1.5" stroke-linecap="round" stroke-linejoin="round"/>
<mask id="path-7-inside-1" fill="white">
<ellipse cx="36.4882" cy="35.9968" rx="1.0866" ry="1.05536"/>
</mask>
<path d="M36.0748 35.9968C36.0748 35.7103 36.3014 35.5521 36.4882 35.5521V38.5521C37.8752 38.5521 39.0748 37.449 39.0748 35.9968H36.0748ZM36.4882 35.5521C36.675 35.5521 36.9016 35.7103 36.9016 35.9968H33.9016C33.9016 37.449 35.1012 38.5521 36.4882 38.5521V35.5521ZM36.9016 35.9968C36.9016 36.2833 36.675 36.4414 36.4882 36.4414V33.4414C35.1012 33.4414 33.9016 34.5445 33.9016 35.9968H36.9016ZM36.4882 36.4414C36.3014 36.4414 36.0748 36.2833 36.0748 35.9968H39.0748C39.0748 34.5445 37.8752 33.4414 36.4882 33.4414V36.4414Z" fill="#C668BC" mask="url(#path-7-inside-1)"/>
</svg>
