<svg width="70" height="69" viewBox="0 0 70 69" fill="none" xmlns="http://www.w3.org/2000/svg">
<rect width="70" height="69" rx="10" fill="white"/>
<rect x="31.1143" y="16" width="7.77143" height="3.65288" rx="1.82644" stroke="#C668BC" stroke-width="1.5" stroke-linecap="round" stroke-linejoin="round"/>
<rect x="27" y="28.3281" width="16" height="14.1549" stroke="#C668BC" stroke-width="1.5" stroke-linecap="round" stroke-linejoin="round"/>
<path d="M32.3278 19.6348V18.8848H31.5778V19.6348H32.3278ZM32.3278 21.1215L32.6966 21.7746C32.9321 21.6416 33.0778 21.392 33.0778 21.1215H32.3278ZM27.2899 25.4673L27.9858 25.7471L27.2899 25.4673ZM27.061 51.1993H26.311V51.477L26.4918 51.6877L27.061 51.1993ZM27.7479 51.9998L27.1788 52.4883L27.4032 52.7498H27.7479V51.9998ZM41.9456 51.9998V52.7498C42.1123 52.7498 42.2742 52.6943 42.4058 52.5921L41.9456 51.9998ZM42.9761 51.1993L43.4362 51.7916C43.6191 51.6495 43.7261 51.4309 43.7261 51.1993H42.9761ZM42.6326 25.4673L41.9451 25.7669L42.6326 25.4673ZM37.7092 21.1215H36.9592C36.9592 21.3934 37.1063 21.6439 37.3437 21.7764L37.7092 21.1215ZM37.7092 19.6348H38.4592V18.8848H37.7092V19.6348ZM40.5717 23.0657L40.0687 23.6221L40.5717 23.0657ZM31.5778 19.6348V21.1215H33.0778V19.6348H31.5778ZM26.5941 25.1875C26.323 25.8617 26.2485 26.3579 26.25 26.9063C26.2507 27.1581 26.2676 27.4255 26.282 27.697C26.2968 27.9761 26.311 28.2886 26.311 28.6695L27.811 28.6695C27.811 28.2499 27.7953 27.9073 27.7799 27.6176C27.7641 27.3204 27.7506 27.1055 27.75 26.9023C27.749 26.5407 27.7891 26.2364 27.9858 25.7471L26.5941 25.1875ZM26.311 28.6695C26.311 29.4701 26.311 35.1025 26.311 40.5348C26.311 43.251 26.311 45.9171 26.311 47.9042C26.311 48.8977 26.311 49.7215 26.311 50.2969C26.311 50.5846 26.311 50.8102 26.311 50.9639C26.311 51.0407 26.311 51.0996 26.311 51.1392C26.311 51.159 26.311 51.174 26.311 51.1841C26.311 51.1891 26.311 51.1929 26.311 51.1955C26.311 51.1967 26.311 51.1977 26.311 51.1983C26.311 51.1986 26.311 51.1989 26.311 51.199C26.311 51.1992 26.311 51.1993 27.061 51.1993C27.811 51.1993 27.811 51.1992 27.811 51.199C27.811 51.1989 27.811 51.1986 27.811 51.1983C27.811 51.1977 27.811 51.1967 27.811 51.1955C27.811 51.1929 27.811 51.1891 27.811 51.1841C27.811 51.174 27.811 51.159 27.811 51.1392C27.811 51.0996 27.811 51.0407 27.811 50.9639C27.811 50.8102 27.811 50.5846 27.811 50.2969C27.811 49.7215 27.811 48.8977 27.811 47.9042C27.811 45.9171 27.811 43.251 27.811 40.5348C27.811 35.1025 27.811 29.4701 27.811 28.6695L26.311 28.6695ZM26.4918 51.6877L27.1788 52.4883L28.3171 51.5114L27.6301 50.7109L26.4918 51.6877ZM27.7479 52.7498H41.9456V51.2498H27.7479V52.7498ZM42.4058 52.5921L43.4362 51.7916L42.516 50.607L41.4855 51.4076L42.4058 52.5921ZM42.9761 51.1993C43.7261 51.1993 43.7261 51.1992 43.7261 51.199C43.7261 51.1989 43.7261 51.1986 43.7261 51.1983C43.7261 51.198 43.7261 51.1976 43.7261 51.1971C43.7261 51.1966 43.7261 51.1961 43.7261 51.1954C43.7261 51.1948 43.7261 51.1941 43.7261 51.1933C43.7261 51.1925 43.7261 51.1916 43.7261 51.1906C43.7261 51.1897 43.7261 51.1886 43.7261 51.1875C43.7261 51.1864 43.7261 51.1852 43.7261 51.1839C43.7261 51.1827 43.7261 51.1813 43.7261 51.1799C43.7261 51.1785 43.7261 51.177 43.7261 51.1754C43.7261 51.1738 43.7261 51.1721 43.7261 51.1704C43.7261 51.1687 43.7261 51.1668 43.7261 51.1649C43.7261 51.1631 43.7261 51.1611 43.7261 51.159C43.7261 51.157 43.7261 51.1549 43.7261 51.1527C43.7261 51.1505 43.7261 51.1482 43.7261 51.1458C43.7261 51.1435 43.7261 51.1411 43.7261 51.1386C43.7261 51.136 43.7261 51.1335 43.7261 51.1308C43.7261 51.1282 43.7261 51.1254 43.7261 51.1226C43.7261 51.1198 43.7261 51.1169 43.7261 51.114C43.7261 51.111 43.7261 51.108 43.7261 51.1049C43.7261 51.1018 43.7261 51.0986 43.7261 51.0953C43.7261 51.0921 43.7261 51.0887 43.7261 51.0853C43.7261 51.0819 43.7261 51.0785 43.7261 51.0749C43.7261 51.0714 43.7261 51.0677 43.7261 51.064C43.7261 51.0603 43.7261 51.0566 43.7261 51.0527C43.7261 51.0489 43.7261 51.045 43.7261 51.041C43.7261 51.037 43.7261 51.0329 43.7261 51.0288C43.7261 51.0246 43.7261 51.0204 43.7261 51.0162C43.7261 51.0119 43.7261 51.0075 43.7261 51.0031C43.7261 50.9987 43.7261 50.9942 43.7261 50.9896C43.7261 50.985 43.7261 50.9804 43.7261 50.9757C43.7261 50.971 43.7261 50.9662 43.7261 50.9613C43.7261 50.9565 43.7261 50.9516 43.7261 50.9466C43.7261 50.9416 43.7261 50.9365 43.7261 50.9314C43.7261 50.9262 43.7261 50.921 43.7261 50.9158C43.7261 50.9105 43.7261 50.9051 43.7261 50.8997C43.7261 50.8943 43.7261 50.8888 43.7261 50.8833C43.7261 50.8777 43.7261 50.8721 43.7261 50.8664C43.7261 50.8607 43.7261 50.8549 43.7261 50.8491C43.7261 50.8433 43.7261 50.8374 43.7261 50.8314C43.7261 50.8254 43.7261 50.8194 43.7261 50.8133C43.7261 50.8072 43.7261 50.801 43.7261 50.7948C43.7261 50.7885 43.7261 50.7822 43.7261 50.7758C43.7261 50.7695 43.7261 50.763 43.7261 50.7565C43.7261 50.75 43.7261 50.7434 43.7261 50.7368C43.7261 50.7301 43.7261 50.7234 43.7261 50.7166C43.7261 50.7099 43.7261 50.703 43.7261 50.6961C43.7261 50.6892 43.7261 50.6822 43.7261 50.6752C43.7261 50.6681 43.7261 50.661 43.7261 50.6538C43.7261 50.6467 43.7261 50.6394 43.7261 50.6321C43.7261 50.6248 43.7261 50.6174 43.7261 50.61C43.7261 50.6025 43.7261 50.595 43.7261 50.5875C43.7261 50.5799 43.7261 50.5723 43.7261 50.5646C43.7261 50.5569 43.7261 50.5491 43.7261 50.5413C43.7261 50.5335 43.7261 50.5256 43.7261 50.5176C43.7261 50.5096 43.7261 50.5016 43.7261 50.4935C43.7261 50.4855 43.7261 50.4773 43.7261 50.4691C43.7261 50.4609 43.7261 50.4526 43.7261 50.4443C43.7261 50.436 43.7261 50.4276 43.7261 50.4191C43.7261 50.4106 43.7261 50.4021 43.7261 50.3935C43.7261 50.3849 43.7261 50.3763 43.7261 50.3676C43.7261 50.3589 43.7261 50.3501 43.7261 50.3413C43.7261 50.3324 43.7261 50.3235 43.7261 50.3146C43.7261 50.3056 43.7261 50.2966 43.7261 50.2875C43.7261 50.2784 43.7261 50.2693 43.7261 50.2601C43.7261 50.2509 43.7261 50.2416 43.7261 50.2323C43.7261 50.223 43.7261 50.2136 43.7261 50.2041C43.7261 50.1947 43.7261 50.1852 43.7261 50.1756C43.7261 50.166 43.7261 50.1564 43.7261 50.1467C43.7261 50.137 43.7261 50.1273 43.7261 50.1175C43.7261 50.1077 43.7261 50.0978 43.7261 50.0879C43.7261 50.078 43.7261 50.068 43.7261 50.058C43.7261 50.0479 43.7261 50.0378 43.7261 50.0277C43.7261 50.0175 43.7261 50.0073 43.7261 49.997C43.7261 49.9867 43.7261 49.9764 43.7261 49.966C43.7261 49.9556 43.7261 49.9452 43.7261 49.9347C43.7261 49.9242 43.7261 49.9136 43.7261 49.903C43.7261 49.8924 43.7261 49.8817 43.7261 49.8709C43.7261 49.8602 43.7261 49.8494 43.7261 49.8386C43.7261 49.8277 43.7261 49.8168 43.7261 49.8059C43.7261 49.7949 43.7261 49.7839 43.7261 49.7728C43.7261 49.7617 43.7261 49.7506 43.7261 49.7394C43.7261 49.7282 43.7261 49.717 43.7261 49.7057C43.7261 49.6944 43.7261 49.683 43.7261 49.6716C43.7261 49.6602 43.7261 49.6488 43.7261 49.6373C43.7261 49.6257 43.7261 49.6142 43.7261 49.6025C43.7261 49.5909 43.7261 49.5792 43.7261 49.5675C43.7261 49.5558 43.7261 49.544 43.7261 49.5321C43.7261 49.5203 43.7261 49.5084 43.7261 49.4964C43.7261 49.4845 43.7261 49.4725 43.7261 49.4604C43.7261 49.4484 43.7261 49.4363 43.7261 49.4241C43.7261 49.4119 43.7261 49.3997 43.7261 49.3875C43.7261 49.3752 43.7261 49.3629 43.7261 49.3505C43.7261 49.3381 43.7261 49.3257 43.7261 49.3132C43.7261 49.3007 43.7261 49.2882 43.7261 49.2756C43.7261 49.263 43.7261 49.2504 43.7261 49.2377C43.7261 49.225 43.7261 49.2123 43.7261 49.1995C43.7261 49.1867 43.7261 49.1739 43.7261 49.161C43.7261 49.1481 43.7261 49.1352 43.7261 49.1222C43.7261 49.1092 43.7261 49.0962 43.7261 49.0831C43.7261 49.07 43.7261 49.0568 43.7261 49.0436C43.7261 49.0304 43.7261 49.0172 43.7261 49.0039C43.7261 48.9906 43.7261 48.9773 43.7261 48.9639C43.7261 48.9505 43.7261 48.9371 43.7261 48.9236C43.7261 48.9101 43.7261 48.8965 43.7261 48.883C43.7261 48.8694 43.7261 48.8557 43.7261 48.8421C43.7261 48.8284 43.7261 48.8146 43.7261 48.8009C43.7261 48.7871 43.7261 48.7733 43.7261 48.7594C43.7261 48.7455 43.7261 48.7316 43.7261 48.7176C43.7261 48.7036 43.7261 48.6896 43.7261 48.6756C43.7261 48.6615 43.7261 48.6474 43.7261 48.6332C43.7261 48.6191 43.7261 48.6049 43.7261 48.5906C43.7261 48.5764 43.7261 48.5621 43.7261 48.5477C43.7261 48.5334 43.7261 48.519 43.7261 48.5045C43.7261 48.4901 43.7261 48.4756 43.7261 48.4611C43.7261 48.4466 43.7261 48.432 43.7261 48.4174C43.7261 48.4028 43.7261 48.3881 43.7261 48.3734C43.7261 48.3587 43.7261 48.3439 43.7261 48.3291C43.7261 48.3143 43.7261 48.2995 43.7261 48.2846C43.7261 48.2697 43.7261 48.2548 43.7261 48.2398C43.7261 48.2248 43.7261 48.2098 43.7261 48.1947C43.7261 48.1796 43.7261 48.1645 43.7261 48.1494C43.7261 48.1342 43.7261 48.119 43.7261 48.1038C43.7261 48.0886 43.7261 48.0733 43.7261 48.0579C43.7261 48.0426 43.7261 48.0273 43.7261 48.0118C43.7261 47.9964 43.7261 47.981 43.7261 47.9655C43.7261 47.95 43.7261 47.9344 43.7261 47.9189C43.7261 47.9033 43.7261 47.8877 43.7261 47.872C43.7261 47.8563 43.7261 47.8406 43.7261 47.8249C43.7261 47.8091 43.7261 47.7934 43.7261 47.7775C43.7261 47.7617 43.7261 47.7458 43.7261 47.7299C43.7261 47.714 43.7261 47.6981 43.7261 47.6821C43.7261 47.6661 43.7261 47.65 43.7261 47.634C43.7261 47.6179 43.7261 47.6018 43.7261 47.5856C43.7261 47.5695 43.7261 47.5533 43.7261 47.537C43.7261 47.5208 43.7261 47.5045 43.7261 47.4882C43.7261 47.4719 43.7261 47.4556 43.7261 47.4392C43.7261 47.4228 43.7261 47.4064 43.7261 47.3899C43.7261 47.3734 43.7261 47.3569 43.7261 47.3404C43.7261 47.3238 43.7261 47.3073 43.7261 47.2906C43.7261 47.274 43.7261 47.2574 43.7261 47.2407C43.7261 47.224 43.7261 47.2072 43.7261 47.1905C43.7261 47.1737 43.7261 47.1569 43.7261 47.14C43.7261 47.1232 43.7261 47.1063 43.7261 47.0894C43.7261 47.0725 43.7261 47.0555 43.7261 47.0385C43.7261 47.0215 43.7261 47.0045 43.7261 46.9874C43.7261 46.9704 43.7261 46.9533 43.7261 46.9361C43.7261 46.919 43.7261 46.9018 43.7261 46.8846C43.7261 46.8674 43.7261 46.8502 43.7261 46.8329C43.7261 46.8156 43.7261 46.7983 43.7261 46.781C43.7261 46.7636 43.7261 46.7462 43.7261 46.7288C43.7261 46.7114 43.7261 46.6939 43.7261 46.6764C43.7261 46.659 43.7261 46.6414 43.7261 46.6239C43.7261 46.6063 43.7261 46.5887 43.7261 46.5711C43.7261 46.5535 43.7261 46.5358 43.7261 46.5181C43.7261 46.5004 43.7261 46.4827 43.7261 46.465C43.7261 46.4472 43.7261 46.4294 43.7261 46.4116C43.7261 46.3938 43.7261 46.3759 43.7261 46.358C43.7261 46.3401 43.7261 46.3222 43.7261 46.3043C43.7261 46.2863 43.7261 46.2683 43.7261 46.2503C43.7261 46.2323 43.7261 46.2142 43.7261 46.1961C43.7261 46.1781 43.7261 46.16 43.7261 46.1418C43.7261 46.1237 43.7261 46.1055 43.7261 46.0873C43.7261 46.0691 43.7261 46.0508 43.7261 46.0326C43.7261 46.0143 43.7261 45.996 43.7261 45.9777C43.7261 45.9593 43.7261 45.941 43.7261 45.9226C43.7261 45.9042 43.7261 45.8858 43.7261 45.8673C43.7261 45.8489 43.7261 45.8304 43.7261 45.8119C43.7261 45.7934 43.7261 45.7749 43.7261 45.7563C43.7261 45.7377 43.7261 45.7191 43.7261 45.7005C43.7261 45.6819 43.7261 45.6632 43.7261 45.6445C43.7261 45.6259 43.7261 45.6071 43.7261 45.5884C43.7261 45.5697 43.7261 45.5509 43.7261 45.5321C43.7261 45.5133 43.7261 45.4945 43.7261 45.4756C43.7261 45.4568 43.7261 45.4379 43.7261 45.419C43.7261 45.4001 43.7261 45.3812 43.7261 45.3622C43.7261 45.3432 43.7261 45.3242 43.7261 45.3052C43.7261 45.2862 43.7261 45.2672 43.7261 45.2481C43.7261 45.229 43.7261 45.2099 43.7261 45.1908C43.7261 45.1717 43.7261 45.1526 43.7261 45.1334C43.7261 45.1142 43.7261 45.095 43.7261 45.0758C43.7261 45.0566 43.7261 45.0373 43.7261 45.0181C43.7261 44.9988 43.7261 44.9795 43.7261 44.9602C43.7261 44.9408 43.7261 44.9215 43.7261 44.9021C43.7261 44.8827 43.7261 44.8633 43.7261 44.8439C43.7261 44.8245 43.7261 44.805 43.7261 44.7856C43.7261 44.7661 43.7261 44.7466 43.7261 44.7271C43.7261 44.7076 43.7261 44.688 43.7261 44.6685C43.7261 44.6489 43.7261 44.6293 43.7261 44.6097C43.7261 44.5901 43.7261 44.5705 43.7261 44.5508C43.7261 44.5311 43.7261 44.5115 43.7261 44.4918C43.7261 44.4721 43.7261 44.4523 43.7261 44.4326C43.7261 44.4128 43.7261 44.3931 43.7261 44.3733C43.7261 44.3535 43.7261 44.3337 43.7261 44.3138C43.7261 44.294 43.7261 44.2742 43.7261 44.2543C43.7261 44.2344 43.7261 44.2145 43.7261 44.1946C43.7261 44.1747 43.7261 44.1547 43.7261 44.1348C43.7261 44.1148 43.7261 44.0948 43.7261 44.0748C43.7261 44.0548 43.7261 44.0348 43.7261 44.0147C43.7261 43.9947 43.7261 43.9746 43.7261 43.9546C43.7261 43.9345 43.7261 43.9144 43.7261 43.8943C43.7261 43.8741 43.7261 43.854 43.7261 43.8338C43.7261 43.8137 43.7261 43.7935 43.7261 43.7733C43.7261 43.7531 43.7261 43.7329 43.7261 43.7127C43.7261 43.6924 43.7261 43.6722 43.7261 43.6519C43.7261 43.6316 43.7261 43.6113 43.7261 43.591C43.7261 43.5707 43.7261 43.5504 43.7261 43.5301C43.7261 43.5097 43.7261 43.4894 43.7261 43.469C43.7261 43.4486 43.7261 43.4282 43.7261 43.4078C43.7261 43.3874 43.7261 43.3669 43.7261 43.3465C43.7261 43.3261 43.7261 43.3056 43.7261 43.2851C43.7261 43.2646 43.7261 43.2441 43.7261 43.2236C43.7261 43.2031 43.7261 43.1826 43.7261 43.1621C43.7261 43.1415 43.7261 43.121 43.7261 43.1004C43.7261 43.0798 43.7261 43.0592 43.7261 43.0386C43.7261 43.018 43.7261 42.9974 43.7261 42.9768C43.7261 42.9561 43.7261 42.9355 43.7261 42.9148C43.7261 42.8941 43.7261 42.8735 43.7261 42.8528C43.7261 42.8321 43.7261 42.8114 43.7261 42.7907C43.7261 42.7699 43.7261 42.7492 43.7261 42.7285C43.7261 42.7077 43.7261 42.6869 43.7261 42.6662C43.7261 42.6454 43.7261 42.6246 43.7261 42.6038C43.7261 42.583 43.7261 42.5622 43.7261 42.5414C43.7261 42.5205 43.7261 42.4997 43.7261 42.4788C43.7261 42.458 43.7261 42.4371 43.7261 42.4163C43.7261 42.3954 43.7261 42.3745 43.7261 42.3536C43.7261 42.3327 43.7261 42.3118 43.7261 42.2909C43.7261 42.2699 43.7261 42.249 43.7261 42.2281C43.7261 42.2071 43.7261 42.1861 43.7261 42.1652C43.7261 42.1442 43.7261 42.1232 43.7261 42.1022C43.7261 42.0813 43.7261 42.0603 43.7261 42.0392C43.7261 42.0182 43.7261 41.9972 43.7261 41.9762C43.7261 41.9552 43.7261 41.9341 43.7261 41.9131C43.7261 41.892 43.7261 41.871 43.7261 41.8499C43.7261 41.8288 43.7261 41.8077 43.7261 41.7867C43.7261 41.7656 43.7261 41.7445 43.7261 41.7234C43.7261 41.7023 43.7261 41.6811 43.7261 41.66C43.7261 41.6389 43.7261 41.6178 43.7261 41.5966C43.7261 41.5755 43.7261 41.5543 43.7261 41.5332C43.7261 41.512 43.7261 41.4909 43.7261 41.4697C43.7261 41.4485 43.7261 41.4274 43.7261 41.4062C43.7261 41.385 43.7261 41.3638 43.7261 41.3426C43.7261 41.3214 43.7261 41.3002 43.7261 41.279C43.7261 41.2578 43.7261 41.2366 43.7261 41.2153C43.7261 41.1941 43.7261 41.1729 43.7261 41.1516C43.7261 41.1304 43.7261 41.1092 43.7261 41.0879C43.7261 41.0667 43.7261 41.0454 43.7261 41.0241C43.7261 41.0029 43.7261 40.9816 43.7261 40.9604C43.7261 40.9391 43.7261 40.9178 43.7261 40.8965C43.7261 40.8752 43.7261 40.854 43.7261 40.8327C43.7261 40.8114 43.7261 40.7901 43.7261 40.7688C43.7261 40.7475 43.7261 40.7262 43.7261 40.7049C43.7261 40.6836 43.7261 40.6623 43.7261 40.641C43.7261 40.6196 43.7261 40.5983 43.7261 40.577C43.7261 40.5557 43.7261 40.5344 43.7261 40.513C43.7261 40.4917 43.7261 40.4704 43.7261 40.4491C43.7261 40.4277 43.7261 40.4064 43.7261 40.385C43.7261 40.3637 43.7261 40.3424 43.7261 40.321C43.7261 40.2997 43.7261 40.2783 43.7261 40.257C43.7261 40.2357 43.7261 40.2143 43.7261 40.193C43.7261 40.1716 43.7261 40.1503 43.7261 40.1289C43.7261 40.1076 43.7261 40.0862 43.7261 40.0649C43.7261 40.0435 43.7261 40.0222 43.7261 40.0008C43.7261 39.9795 43.7261 39.9581 43.7261 39.9367C43.7261 39.9154 43.7261 39.894 43.7261 39.8727C43.7261 39.8513 43.7261 39.83 43.7261 39.8086C43.7261 39.7873 43.7261 39.7659 43.7261 39.7446C43.7261 39.7232 43.7261 39.7019 43.7261 39.6805C43.7261 39.6592 43.7261 39.6378 43.7261 39.6165C43.7261 39.5951 43.7261 39.5738 43.7261 39.5524C43.7261 39.5311 43.7261 39.5097 43.7261 39.4884C43.7261 39.4671 43.7261 39.4457 43.7261 39.4244C43.7261 39.403 43.7261 39.3817 43.7261 39.3604C43.7261 39.339 43.7261 39.3177 43.7261 39.2964C43.7261 39.2751 43.7261 39.2537 43.7261 39.2324C43.7261 39.2111 43.7261 39.1898 43.7261 39.1685C43.7261 39.1471 43.7261 39.1258 43.7261 39.1045C43.7261 39.0832 43.7261 39.0619 43.7261 39.0406C43.7261 39.0193 43.7261 38.998 43.7261 38.9767C43.7261 38.9554 43.7261 38.9342 43.7261 38.9129C43.7261 38.8916 43.7261 38.8703 43.7261 38.849C43.7261 38.8278 43.7261 38.8065 43.7261 38.7852C43.7261 38.764 43.7261 38.7427 43.7261 38.7215C43.7261 38.7002 43.7261 38.679 43.7261 38.6577C43.7261 38.6365 43.7261 38.6153 43.7261 38.594C43.7261 38.5728 43.7261 38.5516 43.7261 38.5304C43.7261 38.5092 43.7261 38.488 43.7261 38.4668C43.7261 38.4456 43.7261 38.4244 43.7261 38.4032C43.7261 38.382 43.7261 38.3608 43.7261 38.3396C43.7261 38.3185 43.7261 38.2973 43.7261 38.2761C43.7261 38.255 43.7261 38.2338 43.7261 38.2127C43.7261 38.1916 43.7261 38.1704 43.7261 38.1493C43.7261 38.1282 43.7261 38.1071 43.7261 38.0859C43.7261 38.0648 43.7261 38.0437 43.7261 38.0226C43.7261 38.0016 43.7261 37.9805 43.7261 37.9594C43.7261 37.9383 43.7261 37.9173 43.7261 37.8962C43.7261 37.8752 43.7261 37.8541 43.7261 37.8331C43.7261 37.8121 43.7261 37.791 43.7261 37.77C43.7261 37.749 43.7261 37.728 43.7261 37.707C43.7261 37.686 43.7261 37.665 43.7261 37.6441C43.7261 37.6231 43.7261 37.6021 43.7261 37.5812C43.7261 37.5602 43.7261 37.5393 43.7261 37.5184C43.7261 37.4974 43.7261 37.4765 43.7261 37.4556C43.7261 37.4347 43.7261 37.4138 43.7261 37.3929C43.7261 37.3721 43.7261 37.3512 43.7261 37.3303C43.7261 37.3095 43.7261 37.2886 43.7261 37.2678C43.7261 37.247 43.7261 37.2262 43.7261 37.2054C43.7261 37.1845 43.7261 37.1638 43.7261 37.143C43.7261 37.1222 43.7261 37.1014 43.7261 37.0807C43.7261 37.0599 43.7261 37.0392 43.7261 37.0185C43.7261 36.9977 43.7261 36.977 43.7261 36.9563C43.7261 36.9356 43.7261 36.915 43.7261 36.8943C43.7261 36.8736 43.7261 36.853 43.7261 36.8323C43.7261 36.8117 43.7261 36.7911 43.7261 36.7705C43.7261 36.7498 43.7261 36.7292 43.7261 36.7087C43.7261 36.6881 43.7261 36.6675 43.7261 36.647C43.7261 36.6264 43.7261 36.6059 43.7261 36.5854C43.7261 36.5649 43.7261 36.5444 43.7261 36.5239C43.7261 36.5034 43.7261 36.4829 43.7261 36.4625C43.7261 36.442 43.7261 36.4216 43.7261 36.4012C43.7261 36.3808 43.7261 36.3604 43.7261 36.34C43.7261 36.3196 43.7261 36.2992 43.7261 36.2789C43.7261 36.2585 43.7261 36.2382 43.7261 36.2179C43.7261 36.1976 43.7261 36.1773 43.7261 36.157C43.7261 36.1367 43.7261 36.1165 43.7261 36.0962C43.7261 36.076 43.7261 36.0558 43.7261 36.0356C43.7261 36.0154 43.7261 35.9952 43.7261 35.975C43.7261 35.9548 43.7261 35.9347 43.7261 35.9146C43.7261 35.8944 43.7261 35.8743 43.7261 35.8542C43.7261 35.8342 43.7261 35.8141 43.7261 35.794C43.7261 35.774 43.7261 35.754 43.7261 35.734C43.7261 35.714 43.7261 35.694 43.7261 35.674C43.7261 35.654 43.7261 35.6341 43.7261 35.6142C43.7261 35.5942 43.7261 35.5743 43.7261 35.5544C43.7261 35.5346 43.7261 35.5147 43.7261 35.4949C43.7261 35.475 43.7261 35.4552 43.7261 35.4354C43.7261 35.4156 43.7261 35.3958 43.7261 35.3761C43.7261 35.3563 43.7261 35.3366 43.7261 35.3169C43.7261 35.2972 43.7261 35.2775 43.7261 35.2578C43.7261 35.2381 43.7261 35.2185 43.7261 35.1989C43.7261 35.1793 43.7261 35.1597 43.7261 35.1401C43.7261 35.1205 43.7261 35.101 43.7261 35.0814C43.7261 35.0619 43.7261 35.0424 43.7261 35.0229C43.7261 35.0035 43.7261 34.984 43.7261 34.9646C43.7261 34.9451 43.7261 34.9257 43.7261 34.9064C43.7261 34.887 43.7261 34.8676 43.7261 34.8483C43.7261 34.829 43.7261 34.8096 43.7261 34.7904C43.7261 34.7711 43.7261 34.7518 43.7261 34.7326C43.7261 34.7134 43.7261 34.6942 43.7261 34.675C43.7261 34.6558 43.7261 34.6366 43.7261 34.6175C43.7261 34.5984 43.7261 34.5793 43.7261 34.5602C43.7261 34.5411 43.7261 34.5221 43.7261 34.5031C43.7261 34.484 43.7261 34.465 43.7261 34.4461C43.7261 34.4271 43.7261 34.4082 43.7261 34.3892C43.7261 34.3703 43.7261 34.3514 43.7261 34.3326C43.7261 34.3137 43.7261 34.2949 43.7261 34.2761C43.7261 34.2573 43.7261 34.2385 43.7261 34.2198C43.7261 34.201 43.7261 34.1823 43.7261 34.1636C43.7261 34.1449 43.7261 34.1262 43.7261 34.1076C43.7261 34.089 43.7261 34.0704 43.7261 34.0518C43.7261 34.0332 43.7261 34.0147 43.7261 33.9961C43.7261 33.9776 43.7261 33.9591 43.7261 33.9407C43.7261 33.9222 43.7261 33.9038 43.7261 33.8854C43.7261 33.867 43.7261 33.8486 43.7261 33.8303C43.7261 33.8119 43.7261 33.7936 43.7261 33.7754C43.7261 33.7571 43.7261 33.7388 43.7261 33.7206C43.7261 33.7024 43.7261 33.6842 43.7261 33.6661C43.7261 33.6479 43.7261 33.6298 43.7261 33.6117C43.7261 33.5936 43.7261 33.5755 43.7261 33.5575C43.7261 33.5395 43.7261 33.5215 43.7261 33.5035C43.7261 33.4856 43.7261 33.4676 43.7261 33.4497C43.7261 33.4318 43.7261 33.414 43.7261 33.3961C43.7261 33.3783 43.7261 33.3605 43.7261 33.3427C43.7261 33.325 43.7261 33.3072 43.7261 33.2895C43.7261 33.2718 43.7261 33.2541 43.7261 33.2365C43.7261 33.2189 43.7261 33.2013 43.7261 33.1837C43.7261 33.1661 43.7261 33.1486 43.7261 33.1311C43.7261 33.1136 43.7261 33.0961 43.7261 33.0787C43.7261 33.0613 43.7261 33.0439 43.7261 33.0265C43.7261 33.0092 43.7261 32.9918 43.7261 32.9746C43.7261 32.9573 43.7261 32.94 43.7261 32.9228C43.7261 32.9056 43.7261 32.8884 43.7261 32.8712C43.7261 32.8541 43.7261 32.837 43.7261 32.8199C43.7261 32.8028 43.7261 32.7858 43.7261 32.7688C43.7261 32.7518 43.7261 32.7348 43.7261 32.7179C43.7261 32.7009 43.7261 32.6841 43.7261 32.6672C43.7261 32.6503 43.7261 32.6335 43.7261 32.6167C43.7261 32.6 43.7261 32.5832 43.7261 32.5665C43.7261 32.5498 43.7261 32.5331 43.7261 32.5165C43.7261 32.4999 43.7261 32.4833 43.7261 32.4667C43.7261 32.4502 43.7261 32.4336 43.7261 32.4172C43.7261 32.4007 43.7261 32.3842 43.7261 32.3678C43.7261 32.3514 43.7261 32.3351 43.7261 32.3188C43.7261 32.3024 43.7261 32.2861 43.7261 32.2699C43.7261 32.2537 43.7261 32.2374 43.7261 32.2213C43.7261 32.2051 43.7261 32.189 43.7261 32.1729C43.7261 32.1568 43.7261 32.1408 43.7261 32.1248C43.7261 32.1088 43.7261 32.0928 43.7261 32.0769C43.7261 32.061 43.7261 32.0451 43.7261 32.0292C43.7261 32.0134 43.7261 31.9976 43.7261 31.9818C43.7261 31.9661 43.7261 31.9503 43.7261 31.9347C43.7261 31.919 43.7261 31.9034 43.7261 31.8878C43.7261 31.8722 43.7261 31.8566 43.7261 31.8411C43.7261 31.8256 43.7261 31.8101 43.7261 31.7947C43.7261 31.7793 43.7261 31.7639 43.7261 31.7486C43.7261 31.7332 43.7261 31.7179 43.7261 31.7027C43.7261 31.6874 43.7261 31.6722 43.7261 31.657C43.7261 31.6419 43.7261 31.6267 43.7261 31.6117C43.7261 31.5966 43.7261 31.5816 43.7261 31.5666C43.7261 31.5516 43.7261 31.5366 43.7261 31.5217C43.7261 31.5068 43.7261 31.492 43.7261 31.4771C43.7261 31.4623 43.7261 31.4476 43.7261 31.4328C43.7261 31.4181 43.7261 31.4034 43.7261 31.3888C43.7261 31.3742 43.7261 31.3596 43.7261 31.345C43.7261 31.3305 43.7261 31.316 43.7261 31.3015C43.7261 31.2871 43.7261 31.2727 43.7261 31.2583C43.7261 31.244 43.7261 31.2296 43.7261 31.2154C43.7261 31.2011 43.7261 31.1869 43.7261 31.1727C43.7261 31.1585 43.7261 31.1444 43.7261 31.1303C43.7261 31.1162 43.7261 31.1022 43.7261 31.0882C43.7261 31.0742 43.7261 31.0603 43.7261 31.0464C43.7261 31.0325 43.7261 31.0187 43.7261 31.0049C43.7261 30.9911 43.7261 30.9773 43.7261 30.9636C43.7261 30.9499 43.7261 30.9363 43.7261 30.9227C43.7261 30.9091 43.7261 30.8955 43.7261 30.882C43.7261 30.8685 43.7261 30.8551 43.7261 30.8417C43.7261 30.8283 43.7261 30.8149 43.7261 30.8016C43.7261 30.7883 43.7261 30.775 43.7261 30.7618C43.7261 30.7486 43.7261 30.7355 43.7261 30.7224C43.7261 30.7092 43.7261 30.6962 43.7261 30.6832C43.7261 30.6702 43.7261 30.6572 43.7261 30.6443C43.7261 30.6314 43.7261 30.6186 43.7261 30.6058C43.7261 30.5929 43.7261 30.5802 43.7261 30.5675C43.7261 30.5548 43.7261 30.5421 43.7261 30.5295C43.7261 30.5169 43.7261 30.5044 43.7261 30.4919C43.7261 30.4794 43.7261 30.467 43.7261 30.4546C43.7261 30.4422 43.7261 30.4298 43.7261 30.4176C43.7261 30.4053 43.7261 30.393 43.7261 30.3809C43.7261 30.3687 43.7261 30.3566 43.7261 30.3445C43.7261 30.3324 43.7261 30.3204 43.7261 30.3084C43.7261 30.2965 43.7261 30.2845 43.7261 30.2727C43.7261 30.2608 43.7261 30.249 43.7261 30.2373C43.7261 30.2255 43.7261 30.2138 43.7261 30.2022C43.7261 30.1905 43.7261 30.1789 43.7261 30.1674C43.7261 30.1559 43.7261 30.1444 43.7261 30.133C43.7261 30.1215 43.7261 30.1102 43.7261 30.0989C43.7261 30.0875 43.7261 30.0763 43.7261 30.0651C43.7261 30.0539 43.7261 30.0427 43.7261 30.0316C43.7261 30.0205 43.7261 30.0095 43.7261 29.9985C43.7261 29.9875 43.7261 29.9766 43.7261 29.9658C43.7261 29.9549 43.7261 29.9441 43.7261 29.9333C43.7261 29.9226 43.7261 29.9119 43.7261 29.9012C43.7261 29.8906 43.7261 29.88 43.7261 29.8695C43.7261 29.859 43.7261 29.8485 43.7261 29.8381C43.7261 29.8277 43.7261 29.8173 43.7261 29.807C43.7261 29.7967 43.7261 29.7865 43.7261 29.7763C43.7261 29.7662 43.7261 29.756 43.7261 29.746C43.7261 29.7359 43.7261 29.7259 43.7261 29.716C43.7261 29.706 43.7261 29.6962 43.7261 29.6863C43.7261 29.6765 43.7261 29.6667 43.7261 29.657C43.7261 29.6473 43.7261 29.6377 43.7261 29.6281C43.7261 29.6185 43.7261 29.609 43.7261 29.5995C43.7261 29.5901 43.7261 29.5807 43.7261 29.5713C43.7261 29.562 43.7261 29.5527 43.7261 29.5435C43.7261 29.5342 43.7261 29.5251 43.7261 29.516C43.7261 29.5069 43.7261 29.4978 43.7261 29.4889C43.7261 29.4799 43.7261 29.471 43.7261 29.4621C43.7261 29.4532 43.7261 29.4445 43.7261 29.4357C43.7261 29.427 43.7261 29.4183 43.7261 29.4097C43.7261 29.4011 43.7261 29.3926 43.7261 29.3841C43.7261 29.3756 43.7261 29.3672 43.7261 29.3588C43.7261 29.3505 43.7261 29.3422 43.7261 29.3339C43.7261 29.3257 43.7261 29.3175 43.7261 29.3094C43.7261 29.3013 43.7261 29.2933 43.7261 29.2853C43.7261 29.2773 43.7261 29.2694 43.7261 29.2616C43.7261 29.2537 43.7261 29.246 43.7261 29.2382C43.7261 29.2305 43.7261 29.2229 43.7261 29.2153C43.7261 29.2077 43.7261 29.2002 43.7261 29.1927C43.7261 29.1852 43.7261 29.1778 43.7261 29.1705C43.7261 29.1632 43.7261 29.1559 43.7261 29.1487C43.7261 29.1415 43.7261 29.1344 43.7261 29.1273C43.7261 29.1203 43.7261 29.1133 43.7261 29.1063C43.7261 29.0994 43.7261 29.0925 43.7261 29.0857C43.7261 29.0789 43.7261 29.0722 43.7261 29.0655C43.7261 29.0588 43.7261 29.0522 43.7261 29.0457C43.7261 29.0392 43.7261 29.0327 43.7261 29.0263C43.7261 29.0199 43.7261 29.0136 43.7261 29.0073C43.7261 29.0011 43.7261 28.9949 43.7261 28.9887C43.7261 28.9826 43.7261 28.9765 43.7261 28.9706C43.7261 28.9646 43.7261 28.9586 43.7261 28.9528C43.7261 28.9469 43.7261 28.9411 43.7261 28.9354C43.7261 28.9297 43.7261 28.9241 43.7261 28.9185C43.7261 28.9129 43.7261 28.9074 43.7261 28.902C43.7261 28.8965 43.7261 28.8912 43.7261 28.8859C43.7261 28.8806 43.7261 28.8753 43.7261 28.8702C43.7261 28.865 43.7261 28.8599 43.7261 28.8549C43.7261 28.8499 43.7261 28.8449 43.7261 28.8401C43.7261 28.8352 43.7261 28.8304 43.7261 28.8257C43.7261 28.8209 43.7261 28.8163 43.7261 28.8117C43.7261 28.8071 43.7261 28.8026 43.7261 28.7981C43.7261 28.7937 43.7261 28.7893 43.7261 28.785C43.7261 28.7807 43.7261 28.7764 43.7261 28.7723C43.7261 28.7681 43.7261 28.764 43.7261 28.76C43.7261 28.756 43.7261 28.7521 43.7261 28.7482C43.7261 28.7443 43.7261 28.7405 43.7261 28.7368C43.7261 28.7331 43.7261 28.7294 43.7261 28.7259C43.7261 28.7223 43.7261 28.7188 43.7261 28.7154C43.7261 28.7119 43.7261 28.7086 43.7261 28.7053C43.7261 28.702 43.7261 28.6988 43.7261 28.6957C43.7261 28.6926 43.7261 28.6895 43.7261 28.6865C43.7261 28.6835 43.7261 28.6806 43.7261 28.6778C43.7261 28.675 43.7261 28.6722 43.7261 28.6695H42.2261C42.2261 28.6722 42.2261 28.675 42.2261 28.6778C42.2261 28.6806 42.2261 28.6835 42.2261 28.6865C42.2261 28.6895 42.2261 28.6926 42.2261 28.6957C42.2261 28.6988 42.2261 28.702 42.2261 28.7053C42.2261 28.7086 42.2261 28.7119 42.2261 28.7154C42.2261 28.7188 42.2261 28.7223 42.2261 28.7259C42.2261 28.7294 42.2261 28.7331 42.2261 28.7368C42.2261 28.7405 42.2261 28.7443 42.2261 28.7482C42.2261 28.7521 42.2261 28.756 42.2261 28.76C42.2261 28.764 42.2261 28.7681 42.2261 28.7723C42.2261 28.7764 42.2261 28.7807 42.2261 28.785C42.2261 28.7893 42.2261 28.7937 42.2261 28.7981C42.2261 28.8026 42.2261 28.8071 42.2261 28.8117C42.2261 28.8163 42.2261 28.8209 42.2261 28.8257C42.2261 28.8304 42.2261 28.8352 42.2261 28.8401C42.2261 28.8449 42.2261 28.8499 42.2261 28.8549C42.2261 28.8599 42.2261 28.865 42.2261 28.8702C42.2261 28.8753 42.2261 28.8806 42.2261 28.8859C42.2261 28.8912 42.2261 28.8965 42.2261 28.902C42.2261 28.9074 42.2261 28.9129 42.2261 28.9185C42.2261 28.9241 42.2261 28.9297 42.2261 28.9354C42.2261 28.9411 42.2261 28.9469 42.2261 28.9528C42.2261 28.9586 42.2261 28.9646 42.2261 28.9706C42.2261 28.9765 42.2261 28.9826 42.2261 28.9887C42.2261 28.9949 42.2261 29.0011 42.2261 29.0073C42.2261 29.0136 42.2261 29.0199 42.2261 29.0263C42.2261 29.0327 42.2261 29.0392 42.2261 29.0457C42.2261 29.0522 42.2261 29.0588 42.2261 29.0655C42.2261 29.0722 42.2261 29.0789 42.2261 29.0857C42.2261 29.0925 42.2261 29.0994 42.2261 29.1063C42.2261 29.1133 42.2261 29.1203 42.2261 29.1273C42.2261 29.1344 42.2261 29.1415 42.2261 29.1487C42.2261 29.1559 42.2261 29.1632 42.2261 29.1705C42.2261 29.1778 42.2261 29.1852 42.2261 29.1927C42.2261 29.2002 42.2261 29.2077 42.2261 29.2153C42.2261 29.2229 42.2261 29.2305 42.2261 29.2382C42.2261 29.246 42.2261 29.2537 42.2261 29.2616C42.2261 29.2694 42.2261 29.2773 42.2261 29.2853C42.2261 29.2933 42.2261 29.3013 42.2261 29.3094C42.2261 29.3175 42.2261 29.3257 42.2261 29.3339C42.2261 29.3422 42.2261 29.3505 42.2261 29.3588C42.2261 29.3672 42.2261 29.3756 42.2261 29.3841C42.2261 29.3926 42.2261 29.4011 42.2261 29.4097C42.2261 29.4183 42.2261 29.427 42.2261 29.4357C42.2261 29.4445 42.2261 29.4532 42.2261 29.4621C42.2261 29.471 42.2261 29.4799 42.2261 29.4889C42.2261 29.4978 42.2261 29.5069 42.2261 29.516C42.2261 29.5251 42.2261 29.5342 42.2261 29.5435C42.2261 29.5527 42.2261 29.562 42.2261 29.5713C42.2261 29.5807 42.2261 29.5901 42.2261 29.5995C42.2261 29.609 42.2261 29.6185 42.2261 29.6281C42.2261 29.6377 42.2261 29.6473 42.2261 29.657C42.2261 29.6667 42.2261 29.6765 42.2261 29.6863C42.2261 29.6962 42.2261 29.706 42.2261 29.716C42.2261 29.7259 42.2261 29.7359 42.2261 29.746C42.2261 29.756 42.2261 29.7662 42.2261 29.7763C42.2261 29.7865 42.2261 29.7967 42.2261 29.807C42.2261 29.8173 42.2261 29.8277 42.2261 29.8381C42.2261 29.8485 42.2261 29.859 42.2261 29.8695C42.2261 29.88 42.2261 29.8906 42.2261 29.9012C42.2261 29.9119 42.2261 29.9226 42.2261 29.9333C42.2261 29.9441 42.2261 29.9549 42.2261 29.9658C42.2261 29.9766 42.2261 29.9875 42.2261 29.9985C42.2261 30.0095 42.2261 30.0205 42.2261 30.0316C42.2261 30.0427 42.2261 30.0539 42.2261 30.0651C42.2261 30.0763 42.2261 30.0875 42.2261 30.0989C42.2261 30.1102 42.2261 30.1215 42.2261 30.133C42.2261 30.1444 42.2261 30.1559 42.2261 30.1674C42.2261 30.1789 42.2261 30.1905 42.2261 30.2022C42.2261 30.2138 42.2261 30.2255 42.2261 30.2373C42.2261 30.249 42.2261 30.2608 42.2261 30.2727C42.2261 30.2845 42.2261 30.2965 42.2261 30.3084C42.2261 30.3204 42.2261 30.3324 42.2261 30.3445C42.2261 30.3566 42.2261 30.3687 42.2261 30.3809C42.2261 30.393 42.2261 30.4053 42.2261 30.4176C42.2261 30.4298 42.2261 30.4422 42.2261 30.4546C42.2261 30.467 42.2261 30.4794 42.2261 30.4919C42.2261 30.5044 42.2261 30.5169 42.2261 30.5295C42.2261 30.5421 42.2261 30.5548 42.2261 30.5675C42.2261 30.5802 42.2261 30.5929 42.2261 30.6058C42.2261 30.6186 42.2261 30.6314 42.2261 30.6443C42.2261 30.6572 42.2261 30.6702 42.2261 30.6832C42.2261 30.6962 42.2261 30.7092 42.2261 30.7224C42.2261 30.7355 42.2261 30.7486 42.2261 30.7618C42.2261 30.775 42.2261 30.7883 42.2261 30.8016C42.2261 30.8149 42.2261 30.8283 42.2261 30.8417C42.2261 30.8551 42.2261 30.8685 42.2261 30.882C42.2261 30.8955 42.2261 30.9091 42.2261 30.9227C42.2261 30.9363 42.2261 30.9499 42.2261 30.9636C42.2261 30.9773 42.2261 30.9911 42.2261 31.0049C42.2261 31.0187 42.2261 31.0325 42.2261 31.0464C42.2261 31.0603 42.2261 31.0742 42.2261 31.0882C42.2261 31.1022 42.2261 31.1162 42.2261 31.1303C42.2261 31.1444 42.2261 31.1585 42.2261 31.1727C42.2261 31.1869 42.2261 31.2011 42.2261 31.2154C42.2261 31.2296 42.2261 31.244 42.2261 31.2583C42.2261 31.2727 42.2261 31.2871 42.2261 31.3015C42.2261 31.316 42.2261 31.3305 42.2261 31.345C42.2261 31.3596 42.2261 31.3742 42.2261 31.3888C42.2261 31.4034 42.2261 31.4181 42.2261 31.4328C42.2261 31.4476 42.2261 31.4623 42.2261 31.4771C42.2261 31.492 42.2261 31.5068 42.2261 31.5217C42.2261 31.5366 42.2261 31.5516 42.2261 31.5666C42.2261 31.5816 42.2261 31.5966 42.2261 31.6117C42.2261 31.6267 42.2261 31.6419 42.2261 31.657C42.2261 31.6722 42.2261 31.6874 42.2261 31.7027C42.2261 31.7179 42.2261 31.7332 42.2261 31.7486C42.2261 31.7639 42.2261 31.7793 42.2261 31.7947C42.2261 31.8101 42.2261 31.8256 42.2261 31.8411C42.2261 31.8566 42.2261 31.8722 42.2261 31.8878C42.2261 31.9034 42.2261 31.919 42.2261 31.9347C42.2261 31.9503 42.2261 31.9661 42.2261 31.9818C42.2261 31.9976 42.2261 32.0134 42.2261 32.0292C42.2261 32.0451 42.2261 32.061 42.2261 32.0769C42.2261 32.0928 42.2261 32.1088 42.2261 32.1248C42.2261 32.1408 42.2261 32.1568 42.2261 32.1729C42.2261 32.189 42.2261 32.2051 42.2261 32.2213C42.2261 32.2374 42.2261 32.2537 42.2261 32.2699C42.2261 32.2861 42.2261 32.3024 42.2261 32.3188C42.2261 32.3351 42.2261 32.3514 42.2261 32.3678C42.2261 32.3842 42.2261 32.4007 42.2261 32.4172C42.2261 32.4336 42.2261 32.4502 42.2261 32.4667C42.2261 32.4833 42.2261 32.4999 42.2261 32.5165C42.2261 32.5331 42.2261 32.5498 42.2261 32.5665C42.2261 32.5832 42.2261 32.6 42.2261 32.6167C42.2261 32.6335 42.2261 32.6503 42.2261 32.6672C42.2261 32.6841 42.2261 32.7009 42.2261 32.7179C42.2261 32.7348 42.2261 32.7518 42.2261 32.7688C42.2261 32.7858 42.2261 32.8028 42.2261 32.8199C42.2261 32.837 42.2261 32.8541 42.2261 32.8712C42.2261 32.8884 42.2261 32.9056 42.2261 32.9228C42.2261 32.94 42.2261 32.9573 42.2261 32.9746C42.2261 32.9918 42.2261 33.0092 42.2261 33.0265C42.2261 33.0439 42.2261 33.0613 42.2261 33.0787C42.2261 33.0961 42.2261 33.1136 42.2261 33.1311C42.2261 33.1486 42.2261 33.1661 42.2261 33.1837C42.2261 33.2013 42.2261 33.2189 42.2261 33.2365C42.2261 33.2541 42.2261 33.2718 42.2261 33.2895C42.2261 33.3072 42.2261 33.325 42.2261 33.3427C42.2261 33.3605 42.2261 33.3783 42.2261 33.3961C42.2261 33.414 42.2261 33.4318 42.2261 33.4497C42.2261 33.4676 42.2261 33.4856 42.2261 33.5035C42.2261 33.5215 42.2261 33.5395 42.2261 33.5575C42.2261 33.5755 42.2261 33.5936 42.2261 33.6117C42.2261 33.6298 42.2261 33.6479 42.2261 33.6661C42.2261 33.6842 42.2261 33.7024 42.2261 33.7206C42.2261 33.7388 42.2261 33.7571 42.2261 33.7754C42.2261 33.7936 42.2261 33.8119 42.2261 33.8303C42.2261 33.8486 42.2261 33.867 42.2261 33.8854C42.2261 33.9038 42.2261 33.9222 42.2261 33.9407C42.2261 33.9591 42.2261 33.9776 42.2261 33.9961C42.2261 34.0147 42.2261 34.0332 42.2261 34.0518C42.2261 34.0704 42.2261 34.089 42.2261 34.1076C42.2261 34.1262 42.2261 34.1449 42.2261 34.1636C42.2261 34.1823 42.2261 34.201 42.2261 34.2198C42.2261 34.2385 42.2261 34.2573 42.2261 34.2761C42.2261 34.2949 42.2261 34.3137 42.2261 34.3326C42.2261 34.3514 42.2261 34.3703 42.2261 34.3892C42.2261 34.4082 42.2261 34.4271 42.2261 34.4461C42.2261 34.465 42.2261 34.484 42.2261 34.5031C42.2261 34.5221 42.2261 34.5411 42.2261 34.5602C42.2261 34.5793 42.2261 34.5984 42.2261 34.6175C42.2261 34.6366 42.2261 34.6558 42.2261 34.675C42.2261 34.6942 42.2261 34.7134 42.2261 34.7326C42.2261 34.7518 42.2261 34.7711 42.2261 34.7904C42.2261 34.8096 42.2261 34.829 42.2261 34.8483C42.2261 34.8676 42.2261 34.887 42.2261 34.9064C42.2261 34.9257 42.2261 34.9451 42.2261 34.9646C42.2261 34.984 42.2261 35.0035 42.2261 35.0229C42.2261 35.0424 42.2261 35.0619 42.2261 35.0814C42.2261 35.101 42.2261 35.1205 42.2261 35.1401C42.2261 35.1597 42.2261 35.1793 42.2261 35.1989C42.2261 35.2185 42.2261 35.2381 42.2261 35.2578C42.2261 35.2775 42.2261 35.2972 42.2261 35.3169C42.2261 35.3366 42.2261 35.3563 42.2261 35.3761C42.2261 35.3958 42.2261 35.4156 42.2261 35.4354C42.2261 35.4552 42.2261 35.475 42.2261 35.4949C42.2261 35.5147 42.2261 35.5346 42.2261 35.5544C42.2261 35.5743 42.2261 35.5942 42.2261 35.6142C42.2261 35.6341 42.2261 35.654 42.2261 35.674C42.2261 35.694 42.2261 35.714 42.2261 35.734C42.2261 35.754 42.2261 35.774 42.2261 35.794C42.2261 35.8141 42.2261 35.8342 42.2261 35.8542C42.2261 35.8743 42.2261 35.8944 42.2261 35.9146C42.2261 35.9347 42.2261 35.9548 42.2261 35.975C42.2261 35.9952 42.2261 36.0154 42.2261 36.0356C42.2261 36.0558 42.2261 36.076 42.2261 36.0962C42.2261 36.1165 42.2261 36.1367 42.2261 36.157C42.2261 36.1773 42.2261 36.1976 42.2261 36.2179C42.2261 36.2382 42.2261 36.2585 42.2261 36.2789C42.2261 36.2992 42.2261 36.3196 42.2261 36.34C42.2261 36.3604 42.2261 36.3808 42.2261 36.4012C42.2261 36.4216 42.2261 36.442 42.2261 36.4625C42.2261 36.4829 42.2261 36.5034 42.2261 36.5239C42.2261 36.5444 42.2261 36.5649 42.2261 36.5854C42.2261 36.6059 42.2261 36.6264 42.2261 36.647C42.2261 36.6675 42.2261 36.6881 42.2261 36.7087C42.2261 36.7292 42.2261 36.7498 42.2261 36.7705C42.2261 36.7911 42.2261 36.8117 42.2261 36.8323C42.2261 36.853 42.2261 36.8736 42.2261 36.8943C42.2261 36.915 42.2261 36.9356 42.2261 36.9563C42.2261 36.977 42.2261 36.9977 42.2261 37.0185C42.2261 37.0392 42.2261 37.0599 42.2261 37.0807C42.2261 37.1014 42.2261 37.1222 42.2261 37.143C42.2261 37.1638 42.2261 37.1845 42.2261 37.2054C42.2261 37.2262 42.2261 37.247 42.2261 37.2678C42.2261 37.2886 42.2261 37.3095 42.2261 37.3303C42.2261 37.3512 42.2261 37.3721 42.2261 37.3929C42.2261 37.4138 42.2261 37.4347 42.2261 37.4556C42.2261 37.4765 42.2261 37.4974 42.2261 37.5184C42.2261 37.5393 42.2261 37.5602 42.2261 37.5812C42.2261 37.6021 42.2261 37.6231 42.2261 37.6441C42.2261 37.665 42.2261 37.686 42.2261 37.707C42.2261 37.728 42.2261 37.749 42.2261 37.77C42.2261 37.791 42.2261 37.8121 42.2261 37.8331C42.2261 37.8541 42.2261 37.8752 42.2261 37.8962C42.2261 37.9173 42.2261 37.9383 42.2261 37.9594C42.2261 37.9805 42.2261 38.0016 42.2261 38.0226C42.2261 38.0437 42.2261 38.0648 42.2261 38.0859C42.2261 38.1071 42.2261 38.1282 42.2261 38.1493C42.2261 38.1704 42.2261 38.1916 42.2261 38.2127C42.2261 38.2338 42.2261 38.255 42.2261 38.2761C42.2261 38.2973 42.2261 38.3185 42.2261 38.3396C42.2261 38.3608 42.2261 38.382 42.2261 38.4032C42.2261 38.4244 42.2261 38.4456 42.2261 38.4668C42.2261 38.488 42.2261 38.5092 42.2261 38.5304C42.2261 38.5516 42.2261 38.5728 42.2261 38.594C42.2261 38.6153 42.2261 38.6365 42.2261 38.6577C42.2261 38.679 42.2261 38.7002 42.2261 38.7215C42.2261 38.7427 42.2261 38.764 42.2261 38.7852C42.2261 38.8065 42.2261 38.8278 42.2261 38.849C42.2261 38.8703 42.2261 38.8916 42.2261 38.9129C42.2261 38.9342 42.2261 38.9554 42.2261 38.9767C42.2261 38.998 42.2261 39.0193 42.2261 39.0406C42.2261 39.0619 42.2261 39.0832 42.2261 39.1045C42.2261 39.1258 42.2261 39.1471 42.2261 39.1685C42.2261 39.1898 42.2261 39.2111 42.2261 39.2324C42.2261 39.2537 42.2261 39.2751 42.2261 39.2964C42.2261 39.3177 42.2261 39.339 42.2261 39.3604C42.2261 39.3817 42.2261 39.403 42.2261 39.4244C42.2261 39.4457 42.2261 39.4671 42.2261 39.4884C42.2261 39.5097 42.2261 39.5311 42.2261 39.5524C42.2261 39.5738 42.2261 39.5951 42.2261 39.6165C42.2261 39.6378 42.2261 39.6592 42.2261 39.6805C42.2261 39.7019 42.2261 39.7232 42.2261 39.7446C42.2261 39.7659 42.2261 39.7873 42.2261 39.8086C42.2261 39.83 42.2261 39.8513 42.2261 39.8727C42.2261 39.894 42.2261 39.9154 42.2261 39.9367C42.2261 39.9581 42.2261 39.9795 42.2261 40.0008C42.2261 40.0222 42.2261 40.0435 42.2261 40.0649C42.2261 40.0862 42.2261 40.1076 42.2261 40.1289C42.2261 40.1503 42.2261 40.1716 42.2261 40.193C42.2261 40.2143 42.2261 40.2357 42.2261 40.257C42.2261 40.2783 42.2261 40.2997 42.2261 40.321C42.2261 40.3424 42.2261 40.3637 42.2261 40.385C42.2261 40.4064 42.2261 40.4277 42.2261 40.4491C42.2261 40.4704 42.2261 40.4917 42.2261 40.513C42.2261 40.5344 42.2261 40.5557 42.2261 40.577C42.2261 40.5983 42.2261 40.6196 42.2261 40.641C42.2261 40.6623 42.2261 40.6836 42.2261 40.7049C42.2261 40.7262 42.2261 40.7475 42.2261 40.7688C42.2261 40.7901 42.2261 40.8114 42.2261 40.8327C42.2261 40.854 42.2261 40.8752 42.2261 40.8965C42.2261 40.9178 42.2261 40.9391 42.2261 40.9604C42.2261 40.9816 42.2261 41.0029 42.2261 41.0241C42.2261 41.0454 42.2261 41.0667 42.2261 41.0879C42.2261 41.1092 42.2261 41.1304 42.2261 41.1516C42.2261 41.1729 42.2261 41.1941 42.2261 41.2153C42.2261 41.2366 42.2261 41.2578 42.2261 41.279C42.2261 41.3002 42.2261 41.3214 42.2261 41.3426C42.2261 41.3638 42.2261 41.385 42.2261 41.4062C42.2261 41.4274 42.2261 41.4485 42.2261 41.4697C42.2261 41.4909 42.2261 41.512 42.2261 41.5332C42.2261 41.5543 42.2261 41.5755 42.2261 41.5966C42.2261 41.6178 42.2261 41.6389 42.2261 41.66C42.2261 41.6811 42.2261 41.7023 42.2261 41.7234C42.2261 41.7445 42.2261 41.7656 42.2261 41.7867C42.2261 41.8077 42.2261 41.8288 42.2261 41.8499C42.2261 41.871 42.2261 41.892 42.2261 41.9131C42.2261 41.9341 42.2261 41.9552 42.2261 41.9762C42.2261 41.9972 42.2261 42.0182 42.2261 42.0392C42.2261 42.0603 42.2261 42.0813 42.2261 42.1022C42.2261 42.1232 42.2261 42.1442 42.2261 42.1652C42.2261 42.1861 42.2261 42.2071 42.2261 42.2281C42.2261 42.249 42.2261 42.2699 42.2261 42.2909C42.2261 42.3118 42.2261 42.3327 42.2261 42.3536C42.2261 42.3745 42.2261 42.3954 42.2261 42.4163C42.2261 42.4371 42.2261 42.458 42.2261 42.4788C42.2261 42.4997 42.2261 42.5205 42.2261 42.5414C42.2261 42.5622 42.2261 42.583 42.2261 42.6038C42.2261 42.6246 42.2261 42.6454 42.2261 42.6662C42.2261 42.6869 42.2261 42.7077 42.2261 42.7285C42.2261 42.7492 42.2261 42.7699 42.2261 42.7907C42.2261 42.8114 42.2261 42.8321 42.2261 42.8528C42.2261 42.8735 42.2261 42.8941 42.2261 42.9148C42.2261 42.9355 42.2261 42.9561 42.2261 42.9768C42.2261 42.9974 42.2261 43.018 42.2261 43.0386C42.2261 43.0592 42.2261 43.0798 42.2261 43.1004C42.2261 43.121 42.2261 43.1415 42.2261 43.1621C42.2261 43.1826 42.2261 43.2031 42.2261 43.2236C42.2261 43.2441 42.2261 43.2646 42.2261 43.2851C42.2261 43.3056 42.2261 43.3261 42.2261 43.3465C42.2261 43.3669 42.2261 43.3874 42.2261 43.4078C42.2261 43.4282 42.2261 43.4486 42.2261 43.469C42.2261 43.4894 42.2261 43.5097 42.2261 43.5301C42.2261 43.5504 42.2261 43.5707 42.2261 43.591C42.2261 43.6113 42.2261 43.6316 42.2261 43.6519C42.2261 43.6722 42.2261 43.6924 42.2261 43.7127C42.2261 43.7329 42.2261 43.7531 42.2261 43.7733C42.2261 43.7935 42.2261 43.8137 42.2261 43.8338C42.2261 43.854 42.2261 43.8741 42.2261 43.8943C42.2261 43.9144 42.2261 43.9345 42.2261 43.9546C42.2261 43.9746 42.2261 43.9947 42.2261 44.0147C42.2261 44.0348 42.2261 44.0548 42.2261 44.0748C42.2261 44.0948 42.2261 44.1148 42.2261 44.1348C42.2261 44.1547 42.2261 44.1747 42.2261 44.1946C42.2261 44.2145 42.2261 44.2344 42.2261 44.2543C42.2261 44.2742 42.2261 44.294 42.2261 44.3138C42.2261 44.3337 42.2261 44.3535 42.2261 44.3733C42.2261 44.3931 42.2261 44.4128 42.2261 44.4326C42.2261 44.4523 42.2261 44.4721 42.2261 44.4918C42.2261 44.5115 42.2261 44.5311 42.2261 44.5508C42.2261 44.5705 42.2261 44.5901 42.2261 44.6097C42.2261 44.6293 42.2261 44.6489 42.2261 44.6685C42.2261 44.688 42.2261 44.7076 42.2261 44.7271C42.2261 44.7466 42.2261 44.7661 42.2261 44.7856C42.2261 44.805 42.2261 44.8245 42.2261 44.8439C42.2261 44.8633 42.2261 44.8827 42.2261 44.9021C42.2261 44.9215 42.2261 44.9408 42.2261 44.9602C42.2261 44.9795 42.2261 44.9988 42.2261 45.0181C42.2261 45.0373 42.2261 45.0566 42.2261 45.0758C42.2261 45.095 42.2261 45.1142 42.2261 45.1334C42.2261 45.1526 42.2261 45.1717 42.2261 45.1908C42.2261 45.2099 42.2261 45.229 42.2261 45.2481C42.2261 45.2672 42.2261 45.2862 42.2261 45.3052C42.2261 45.3242 42.2261 45.3432 42.2261 45.3622C42.2261 45.3812 42.2261 45.4001 42.2261 45.419C42.2261 45.4379 42.2261 45.4568 42.2261 45.4756C42.2261 45.4945 42.2261 45.5133 42.2261 45.5321C42.2261 45.5509 42.2261 45.5697 42.2261 45.5884C42.2261 45.6071 42.2261 45.6259 42.2261 45.6445C42.2261 45.6632 42.2261 45.6819 42.2261 45.7005C42.2261 45.7191 42.2261 45.7377 42.2261 45.7563C42.2261 45.7749 42.2261 45.7934 42.2261 45.8119C42.2261 45.8304 42.2261 45.8489 42.2261 45.8673C42.2261 45.8858 42.2261 45.9042 42.2261 45.9226C42.2261 45.941 42.2261 45.9593 42.2261 45.9777C42.2261 45.996 42.2261 46.0143 42.2261 46.0326C42.2261 46.0508 42.2261 46.0691 42.2261 46.0873C42.2261 46.1055 42.2261 46.1237 42.2261 46.1418C42.2261 46.16 42.2261 46.1781 42.2261 46.1961C42.2261 46.2142 42.2261 46.2323 42.2261 46.2503C42.2261 46.2683 42.2261 46.2863 42.2261 46.3043C42.2261 46.3222 42.2261 46.3401 42.2261 46.358C42.2261 46.3759 42.2261 46.3938 42.2261 46.4116C42.2261 46.4294 42.2261 46.4472 42.2261 46.465C42.2261 46.4827 42.2261 46.5004 42.2261 46.5181C42.2261 46.5358 42.2261 46.5535 42.2261 46.5711C42.2261 46.5887 42.2261 46.6063 42.2261 46.6239C42.2261 46.6414 42.2261 46.659 42.2261 46.6764C42.2261 46.6939 42.2261 46.7114 42.2261 46.7288C42.2261 46.7462 42.2261 46.7636 42.2261 46.781C42.2261 46.7983 42.2261 46.8156 42.2261 46.8329C42.2261 46.8502 42.2261 46.8674 42.2261 46.8846C42.2261 46.9018 42.2261 46.919 42.2261 46.9361C42.2261 46.9533 42.2261 46.9704 42.2261 46.9874C42.2261 47.0045 42.2261 47.0215 42.2261 47.0385C42.2261 47.0555 42.2261 47.0725 42.2261 47.0894C42.2261 47.1063 42.2261 47.1232 42.2261 47.14C42.2261 47.1569 42.2261 47.1737 42.2261 47.1905C42.2261 47.2072 42.2261 47.224 42.2261 47.2407C42.2261 47.2574 42.2261 47.274 42.2261 47.2906C42.2261 47.3073 42.2261 47.3238 42.2261 47.3404C42.2261 47.3569 42.2261 47.3734 42.2261 47.3899C42.2261 47.4064 42.2261 47.4228 42.2261 47.4392C42.2261 47.4556 42.2261 47.4719 42.2261 47.4882C42.2261 47.5045 42.2261 47.5208 42.2261 47.537C42.2261 47.5533 42.2261 47.5695 42.2261 47.5856C42.2261 47.6018 42.2261 47.6179 42.2261 47.634C42.2261 47.65 42.2261 47.6661 42.2261 47.6821C42.2261 47.6981 42.2261 47.714 42.2261 47.7299C42.2261 47.7458 42.2261 47.7617 42.2261 47.7775C42.2261 47.7934 42.2261 47.8091 42.2261 47.8249C42.2261 47.8406 42.2261 47.8563 42.2261 47.872C42.2261 47.8877 42.2261 47.9033 42.2261 47.9189C42.2261 47.9344 42.2261 47.95 42.2261 47.9655C42.2261 47.981 42.2261 47.9964 42.2261 48.0118C42.2261 48.0273 42.2261 48.0426 42.2261 48.0579C42.2261 48.0733 42.2261 48.0886 42.2261 48.1038C42.2261 48.119 42.2261 48.1342 42.2261 48.1494C42.2261 48.1645 42.2261 48.1796 42.2261 48.1947C42.2261 48.2098 42.2261 48.2248 42.2261 48.2398C42.2261 48.2548 42.2261 48.2697 42.2261 48.2846C42.2261 48.2995 42.2261 48.3143 42.2261 48.3291C42.2261 48.3439 42.2261 48.3587 42.2261 48.3734C42.2261 48.3881 42.2261 48.4028 42.2261 48.4174C42.2261 48.432 42.2261 48.4466 42.2261 48.4611C42.2261 48.4756 42.2261 48.4901 42.2261 48.5045C42.2261 48.519 42.2261 48.5334 42.2261 48.5477C42.2261 48.5621 42.2261 48.5764 42.2261 48.5906C42.2261 48.6049 42.2261 48.6191 42.2261 48.6332C42.2261 48.6474 42.2261 48.6615 42.2261 48.6756C42.2261 48.6896 42.2261 48.7036 42.2261 48.7176C42.2261 48.7316 42.2261 48.7455 42.2261 48.7594C42.2261 48.7733 42.2261 48.7871 42.2261 48.8009C42.2261 48.8146 42.2261 48.8284 42.2261 48.8421C42.2261 48.8557 42.2261 48.8694 42.2261 48.883C42.2261 48.8965 42.2261 48.9101 42.2261 48.9236C42.2261 48.9371 42.2261 48.9505 42.2261 48.9639C42.2261 48.9773 42.2261 48.9906 42.2261 49.0039C42.2261 49.0172 42.2261 49.0304 42.2261 49.0436C42.2261 49.0568 42.2261 49.07 42.2261 49.0831C42.2261 49.0962 42.2261 49.1092 42.2261 49.1222C42.2261 49.1352 42.2261 49.1481 42.2261 49.161C42.2261 49.1739 42.2261 49.1867 42.2261 49.1995C42.2261 49.2123 42.2261 49.225 42.2261 49.2377C42.2261 49.2504 42.2261 49.263 42.2261 49.2756C42.2261 49.2882 42.2261 49.3007 42.2261 49.3132C42.2261 49.3257 42.2261 49.3381 42.2261 49.3505C42.2261 49.3629 42.2261 49.3752 42.2261 49.3875C42.2261 49.3997 42.2261 49.4119 42.2261 49.4241C42.2261 49.4363 42.2261 49.4484 42.2261 49.4604C42.2261 49.4725 42.2261 49.4845 42.2261 49.4964C42.2261 49.5084 42.2261 49.5203 42.2261 49.5321C42.2261 49.544 42.2261 49.5558 42.2261 49.5675C42.2261 49.5792 42.2261 49.5909 42.2261 49.6025C42.2261 49.6142 42.2261 49.6257 42.2261 49.6373C42.2261 49.6488 42.2261 49.6602 42.2261 49.6716C42.2261 49.683 42.2261 49.6944 42.2261 49.7057C42.2261 49.717 42.2261 49.7282 42.2261 49.7394C42.2261 49.7506 42.2261 49.7617 42.2261 49.7728C42.2261 49.7839 42.2261 49.7949 42.2261 49.8059C42.2261 49.8168 42.2261 49.8277 42.2261 49.8386C42.2261 49.8494 42.2261 49.8602 42.2261 49.8709C42.2261 49.8817 42.2261 49.8924 42.2261 49.903C42.2261 49.9136 42.2261 49.9242 42.2261 49.9347C42.2261 49.9452 42.2261 49.9556 42.2261 49.966C42.2261 49.9764 42.2261 49.9867 42.2261 49.997C42.2261 50.0073 42.2261 50.0175 42.2261 50.0277C42.2261 50.0378 42.2261 50.0479 42.2261 50.058C42.2261 50.068 42.2261 50.078 42.2261 50.0879C42.2261 50.0978 42.2261 50.1077 42.2261 50.1175C42.2261 50.1273 42.2261 50.137 42.2261 50.1467C42.2261 50.1564 42.2261 50.166 42.2261 50.1756C42.2261 50.1852 42.2261 50.1947 42.2261 50.2041C42.2261 50.2136 42.2261 50.223 42.2261 50.2323C42.2261 50.2416 42.2261 50.2509 42.2261 50.2601C42.2261 50.2693 42.2261 50.2784 42.2261 50.2875C42.2261 50.2966 42.2261 50.3056 42.2261 50.3146C42.2261 50.3235 42.2261 50.3324 42.2261 50.3413C42.2261 50.3501 42.2261 50.3589 42.2261 50.3676C42.2261 50.3763 42.2261 50.3849 42.2261 50.3935C42.2261 50.4021 42.2261 50.4106 42.2261 50.4191C42.2261 50.4276 42.2261 50.436 42.2261 50.4443C42.2261 50.4526 42.2261 50.4609 42.2261 50.4691C42.2261 50.4773 42.2261 50.4855 42.2261 50.4935C42.2261 50.5016 42.2261 50.5096 42.2261 50.5176C42.2261 50.5256 42.2261 50.5335 42.2261 50.5413C42.2261 50.5491 42.2261 50.5569 42.2261 50.5646C42.2261 50.5723 42.2261 50.5799 42.2261 50.5875C42.2261 50.595 42.2261 50.6025 42.2261 50.61C42.2261 50.6174 42.2261 50.6248 42.2261 50.6321C42.2261 50.6394 42.2261 50.6467 42.2261 50.6538C42.2261 50.661 42.2261 50.6681 42.2261 50.6752C42.2261 50.6822 42.2261 50.6892 42.2261 50.6961C42.2261 50.703 42.2261 50.7099 42.2261 50.7166C42.2261 50.7234 42.2261 50.7301 42.2261 50.7368C42.2261 50.7434 42.2261 50.75 42.2261 50.7565C42.2261 50.763 42.2261 50.7695 42.2261 50.7758C42.2261 50.7822 42.2261 50.7885 42.2261 50.7948C42.2261 50.801 42.2261 50.8072 42.2261 50.8133C42.2261 50.8194 42.2261 50.8254 42.2261 50.8314C42.2261 50.8374 42.2261 50.8433 42.2261 50.8491C42.2261 50.8549 42.2261 50.8607 42.2261 50.8664C42.2261 50.8721 42.2261 50.8777 42.2261 50.8833C42.2261 50.8888 42.2261 50.8943 42.2261 50.8997C42.2261 50.9051 42.2261 50.9105 42.2261 50.9158C42.2261 50.921 42.2261 50.9262 42.2261 50.9314C42.2261 50.9365 42.2261 50.9416 42.2261 50.9466C42.2261 50.9516 42.2261 50.9565 42.2261 50.9613C42.2261 50.9662 42.2261 50.971 42.2261 50.9757C42.2261 50.9804 42.2261 50.985 42.2261 50.9896C42.2261 50.9942 42.2261 50.9987 42.2261 51.0031C42.2261 51.0075 42.2261 51.0119 42.2261 51.0162C42.2261 51.0204 42.2261 51.0246 42.2261 51.0288C42.2261 51.0329 42.2261 51.037 42.2261 51.041C42.2261 51.045 42.2261 51.0489 42.2261 51.0527C42.2261 51.0566 42.2261 51.0603 42.2261 51.064C42.2261 51.0677 42.2261 51.0714 42.2261 51.0749C42.2261 51.0785 42.2261 51.0819 42.2261 51.0853C42.2261 51.0887 42.2261 51.0921 42.2261 51.0953C42.2261 51.0986 42.2261 51.1018 42.2261 51.1049C42.2261 51.108 42.2261 51.111 42.2261 51.114C42.2261 51.1169 42.2261 51.1198 42.2261 51.1226C42.2261 51.1254 42.2261 51.1282 42.2261 51.1308C42.2261 51.1335 42.2261 51.136 42.2261 51.1386C42.2261 51.1411 42.2261 51.1435 42.2261 51.1458C42.2261 51.1482 42.2261 51.1505 42.2261 51.1527C42.2261 51.1549 42.2261 51.157 42.2261 51.159C42.2261 51.1611 42.2261 51.1631 42.2261 51.1649C42.2261 51.1668 42.2261 51.1687 42.2261 51.1704C42.2261 51.1721 42.2261 51.1738 42.2261 51.1754C42.2261 51.177 42.2261 51.1785 42.2261 51.1799C42.2261 51.1813 42.2261 51.1827 42.2261 51.1839C42.2261 51.1852 42.2261 51.1864 42.2261 51.1875C42.2261 51.1886 42.2261 51.1897 42.2261 51.1906C42.2261 51.1916 42.2261 51.1925 42.2261 51.1933C42.2261 51.1941 42.2261 51.1948 42.2261 51.1954C42.2261 51.1961 42.2261 51.1966 42.2261 51.1971C42.2261 51.1976 42.2261 51.198 42.2261 51.1983C42.2261 51.1986 42.2261 51.1989 42.2261 51.199C42.2261 51.1992 42.2261 51.1993 42.9761 51.1993ZM43.7261 28.6695C43.7261 27.4157 43.9036 26.5068 43.3202 25.1678L41.9451 25.7669C42.3665 26.7343 42.2261 27.1786 42.2261 28.6695H43.7261ZM38.4592 21.1215V19.6348H36.9592V21.1215H38.4592ZM37.7092 18.8848H32.3278V20.3848H37.7092V18.8848ZM32.3278 21.1215C31.9591 20.4684 31.9591 20.4684 31.9591 20.4684C31.959 20.4684 31.959 20.4685 31.9589 20.4685C31.9588 20.4686 31.9587 20.4686 31.9585 20.4687C31.9581 20.469 31.9576 20.4693 31.9569 20.4696C31.9556 20.4704 31.9536 20.4715 31.951 20.473C31.9458 20.476 31.9381 20.4803 31.9282 20.4859C31.9084 20.4972 31.8794 20.5136 31.8424 20.5347C31.7686 20.5768 31.6628 20.6373 31.5345 20.7113C31.2781 20.8591 30.9308 21.0615 30.5683 21.2787C30.2069 21.4953 29.8252 21.7298 29.502 21.9414C29.2028 22.1371 28.885 22.3567 28.7064 22.5351L29.7664 23.5963C29.8168 23.546 29.9999 23.4081 30.3233 23.1965C30.6227 23.0006 30.9852 22.7776 31.3394 22.5654C31.6925 22.3537 32.0322 22.1558 32.2839 22.0106C32.4097 21.9381 32.5132 21.8789 32.5851 21.8379C32.6211 21.8174 32.6491 21.8015 32.6681 21.7907C32.6776 21.7853 32.6848 21.7813 32.6896 21.7785C32.692 21.7772 32.6938 21.7762 32.6949 21.7755C32.6955 21.7752 32.696 21.7749 32.6962 21.7748C32.6964 21.7747 32.6965 21.7747 32.6965 21.7746C32.6965 21.7746 32.6966 21.7746 32.6966 21.7746C32.6966 21.7746 32.6966 21.7746 32.3278 21.1215ZM28.7064 22.5351C28.34 22.9011 27.1192 23.8816 26.5941 25.1875L27.9858 25.7471C28.3612 24.8136 29.2169 24.1452 29.7664 23.5963L28.7064 22.5351ZM43.3202 25.1678C42.7458 23.8495 41.9321 23.2845 41.0746 22.5093L40.0687 23.6221C41.0452 24.5048 41.5324 24.8199 41.9451 25.7669L43.3202 25.1678ZM41.0746 22.5093C40.5232 22.0108 39.7619 21.4966 39.1651 21.1197C38.8615 20.928 38.5904 20.7656 38.395 20.651C38.2972 20.5936 38.2181 20.548 38.163 20.5165C38.1354 20.5008 38.1138 20.4886 38.0989 20.4802C38.0914 20.476 38.0856 20.4727 38.0816 20.4704C38.0796 20.4693 38.078 20.4684 38.0768 20.4678C38.0762 20.4674 38.0758 20.4672 38.0754 20.467C38.0753 20.4669 38.0751 20.4668 38.075 20.4667C38.0749 20.4667 38.0749 20.4667 38.0748 20.4667C38.0748 20.4666 38.0747 20.4666 37.7092 21.1215C37.3437 21.7764 37.3437 21.7764 37.3437 21.7764C37.3437 21.7764 37.3436 21.7764 37.3436 21.7764C37.3436 21.7764 37.3437 21.7764 37.3437 21.7764C37.3438 21.7765 37.344 21.7766 37.3444 21.7768C37.345 21.7771 37.3461 21.7777 37.3476 21.7786C37.3507 21.7803 37.3554 21.783 37.3618 21.7866C37.3746 21.7938 37.394 21.8048 37.4193 21.8192C37.4698 21.8481 37.5438 21.8907 37.6361 21.9448C37.8208 22.0531 38.0774 22.2069 38.3641 22.388C38.948 22.7566 39.6179 23.2145 40.0687 23.6221L41.0746 22.5093Z" fill="#C668BC"/>
</svg>
