<svg width="70" height="69" viewBox="0 0 70 69" fill="none" xmlns="http://www.w3.org/2000/svg">
<rect width="70" height="69" rx="10" fill="white"/>
<path d="M27.0176 27.8555H45.7757C46.4362 27.8555 46.9152 28.4844 46.7398 29.1211L44.9014 35.7931C44.7819 36.2269 44.3874 36.5275 43.9374 36.5275H28.4512" stroke="#C668BC" stroke-width="2" stroke-linecap="round"/>
<path d="M32.5407 44.9619C32.5407 45.8365 31.791 46.6132 30.781 46.6132C29.7709 46.6132 29.0212 45.8365 29.0212 44.9619C29.0212 44.0873 29.7709 43.3105 30.781 43.3105C31.791 43.3105 32.5407 44.0873 32.5407 44.9619Z" stroke="#C668BC" stroke-width="2"/>
<path d="M42.5762 44.9619C42.5762 45.8365 41.8265 46.6132 40.8164 46.6132C39.8064 46.6132 39.0566 45.8365 39.0566 44.9619C39.0566 44.0873 39.8064 43.3105 40.8164 43.3105C41.8265 43.3105 42.5762 44.0873 42.5762 44.9619Z" stroke="#C668BC" stroke-width="2"/>
<path d="M22 24H24.684C25.1645 24 25.5771 24.3418 25.6665 24.814L28.3689 39.0875C28.4583 39.5597 28.8709 39.9015 29.3515 39.9015H44.078" stroke="#C668BC" stroke-width="2" stroke-linecap="round"/>
</svg>
