<svg width="200" height="200" viewBox="0 0 200 200" fill="none" xmlns="http://www.w3.org/2000/svg">
<rect width="200" height="200" rx="5" fill="#27272B"/>
<path d="M89.957 163.414H91.5859C92.6094 163.398 93.4141 163.129 94 162.605C94.5859 162.082 94.8789 161.375 94.8789 160.484C94.8789 158.484 93.8828 157.484 91.8906 157.484C90.9531 157.484 90.2031 157.754 89.6406 158.293C89.0859 158.824 88.8086 159.531 88.8086 160.414H86.6406C86.6406 159.062 87.1328 157.941 88.1172 157.051C89.1094 156.152 90.3672 155.703 91.8906 155.703C93.5 155.703 94.7617 156.129 95.6758 156.98C96.5898 157.832 97.0469 159.016 97.0469 160.531C97.0469 161.273 96.8047 161.992 96.3203 162.688C95.8438 163.383 95.1914 163.902 94.3633 164.246C95.3008 164.543 96.0234 165.035 96.5312 165.723C97.0469 166.41 97.3047 167.25 97.3047 168.242C97.3047 169.773 96.8047 170.988 95.8047 171.887C94.8047 172.785 93.5039 173.234 91.9023 173.234C90.3008 173.234 88.9961 172.801 87.9883 171.934C86.9883 171.066 86.4883 169.922 86.4883 168.5H88.668C88.668 169.398 88.9609 170.117 89.5469 170.656C90.1328 171.195 90.918 171.465 91.9023 171.465C92.9492 171.465 93.75 171.191 94.3047 170.645C94.8594 170.098 95.1367 169.312 95.1367 168.289C95.1367 167.297 94.832 166.535 94.2227 166.004C93.6133 165.473 92.7344 165.199 91.5859 165.184H89.957V163.414ZM100.844 173V155.938H105.66C107.145 155.938 108.457 156.266 109.598 156.922C110.738 157.578 111.617 158.512 112.234 159.723C112.859 160.934 113.176 162.324 113.184 163.895V164.984C113.184 166.594 112.871 168.004 112.246 169.215C111.629 170.426 110.742 171.355 109.586 172.004C108.438 172.652 107.098 172.984 105.566 173H100.844ZM103.094 157.789V171.16H105.461C107.195 171.16 108.543 170.621 109.504 169.543C110.473 168.465 110.957 166.93 110.957 164.938V163.941C110.957 162.004 110.5 160.5 109.586 159.43C108.68 158.352 107.391 157.805 105.719 157.789H103.094Z" fill="white"/>
<path d="M80.0908 62.5056H137L119.909 81.5056H63L80.0908 62.5056Z" fill="#C4C4C4"/>
<rect x="63" y="81.5056" width="57" height="57" fill="white"/>
<path d="M120 81.4945L137 62V118.506L120 138V81.4945Z" fill="#DDDDDD"/>
</svg>
