<svg width="70" height="69" viewBox="0 0 70 69" fill="none" xmlns="http://www.w3.org/2000/svg">
<rect width="70" height="69" rx="10" fill="white"/>
<path d="M30.8501 48.4434C30.8501 48.3053 30.962 48.1934 31.1001 48.1934H38.6668C38.8048 48.1934 38.9168 48.3053 38.9168 48.4434V51.0003C38.9168 51.1384 38.8048 51.2503 38.6668 51.2503H31.1001C30.962 51.2503 30.8501 51.1384 30.8501 51.0003V48.4434Z" stroke="#C668BC" stroke-width="1.5" stroke-linecap="round" stroke-linejoin="round"/>
<path d="M41.1863 19.7109L38.9754 46.8059H30.7998L28.9205 19.7109H41.1863Z" stroke="#C668BC" stroke-width="1.5" stroke-linecap="round" stroke-linejoin="round"/>
<mask id="path-5-inside-1" fill="white">
<rect x="28" y="16" width="14" height="3.41772" rx="1"/>
</mask>
<rect x="28" y="16" width="14" height="3.41772" rx="1" stroke="#C668BC" stroke-width="3" stroke-linecap="round" stroke-linejoin="round" mask="url(#path-5-inside-1)"/>
<path d="M37.3334 51.5441C37.3334 50.2857 36.2887 49.2656 35.0001 49.2656C33.7114 49.2656 32.6667 50.2857 32.6667 51.5441" stroke="#C668BC" stroke-width="1.5" stroke-linecap="round" stroke-linejoin="round"/>
</svg>
