<svg width="70" height="69" viewBox="0 0 70 69" fill="none" xmlns="http://www.w3.org/2000/svg">
<rect width="70" height="69" rx="10" fill="white"/>
<path d="M25.3671 35.2999L36.1251 26.5064C36.4873 26.2104 37.0064 26.205 37.3746 26.4935L48.6167 35.2997C48.8586 35.4893 49 35.7796 49 36.0869V49C49 49.5523 48.5523 50 48 50H41.8298C41.2775 50 40.8298 49.5523 40.8298 49V43.32C40.8298 42.7677 40.3821 42.32 39.8298 42.32H33.6596C33.1073 42.32 32.6596 42.7677 32.6596 43.32V49C32.6596 49.5523 32.2119 50 31.6596 50H26C25.4477 50 25 49.5523 25 49V36.0742C25 35.7741 25.1348 35.4898 25.3671 35.2999Z" stroke="#C668BC" stroke-width="2" stroke-linecap="round"/>
</svg>
