<svg width="70" height="69" viewBox="0 0 70 69" fill="none" xmlns="http://www.w3.org/2000/svg">
<rect width="70" height="69" rx="10" fill="white"/>
<path d="M27.5195 28.578C27.5195 29.4516 26.7702 30.2282 25.7598 30.2282C24.7493 30.2282 24 29.4516 24 28.578C24 27.7044 24.7493 26.9277 25.7598 26.9277C26.7702 26.9277 27.5195 27.7044 27.5195 28.578Z" stroke="#C668BC" stroke-width="2"/>
<path d="M27.5195 36.288C27.5195 37.1626 26.7698 37.9394 25.7598 37.9394C24.7497 37.9394 24 37.1626 24 36.288C24 35.4134 24.7497 34.6367 25.7598 34.6367C26.7698 34.6367 27.5195 35.4134 27.5195 36.288Z" stroke="#C668BC" stroke-width="2"/>
<path d="M27.5195 43.9999C27.5195 44.8735 26.7702 45.6501 25.7598 45.6501C24.7493 45.6501 24 44.8735 24 43.9999C24 43.1262 24.7493 42.3496 25.7598 42.3496C26.7702 42.3496 27.5195 43.1262 27.5195 43.9999Z" stroke="#C668BC" stroke-width="2"/>
<rect x="30.7749" y="27.6426" width="17.5674" height="2.35375" rx="1.17687" stroke="#C668BC" stroke-width="1.5" stroke-linecap="round" stroke-linejoin="round"/>
<rect x="30.7749" y="35.3516" width="17.5674" height="2.35588" rx="1.17794" stroke="#C668BC" stroke-width="1.5" stroke-linecap="round" stroke-linejoin="round"/>
<rect x="30.7749" y="43.0605" width="17.5674" height="2.35588" rx="1.17794" stroke="#C668BC" stroke-width="1.5" stroke-linecap="round" stroke-linejoin="round"/>
</svg>
