<svg xmlns="http://www.w3.org/2000/svg" viewBox="0 0 67.21 66.35"><defs><style>.aaceefbe-9edd-457b-a14b-aa2a93a7b79b{fill:none;stroke:#fff;stroke-miterlimit:10;stroke-width:8px;}</style></defs><title>资源 5</title><g id="aa1688c8-b952-454b-a598-b80d8555cb8c" data-name="图层 2"><g id="a9ca9cf2-e5ca-4d80-ba80-f52dd42f6f8e" data-name="图层 1"><path class="aaceefbe-9edd-457b-a14b-aa2a93a7b79b" d="M18.13,56.73A28.31,28.31,0,0,1,7.53,45.94"/><path class="aaceefbe-9edd-457b-a14b-aa2a93a7b79b" d="M7.53,18.57A28.45,28.45,0,0,1,18.13,7.78"/><path class="aaceefbe-9edd-457b-a14b-aa2a93a7b79b" d="M60.51,32.26A28.26,28.26,0,0,0,18.13,7.78"/><path class="aaceefbe-9edd-457b-a14b-aa2a93a7b79b" d="M28.73,18.57A14.16,14.16,0,0,1,46.39,32.26a13.86,13.86,0,0,1-.32,3L56.91,46.07"/><path class="aaceefbe-9edd-457b-a14b-aa2a93a7b79b" d="M28.73,45.94a14.13,14.13,0,0,1,0-27.37"/><path class="aaceefbe-9edd-457b-a14b-aa2a93a7b79b" d="M7.53,45.94a28.29,28.29,0,0,1,0-27.37"/><path class="aaceefbe-9edd-457b-a14b-aa2a93a7b79b" d="M18.13,56.73a28.29,28.29,0,0,0,29-.45l4.42,4.41,10-10-4.64-4.63"/></g></g></svg>