<svg width="120" height="120" viewBox="0 0 120 120" fill="none" xmlns="http://www.w3.org/2000/svg">
<rect width="120" height="120" rx="16" fill="#27272B"/>
<path d="M80 27.5H40C38.0116 27.5023 36.1052 28.2932 34.6992 29.6992C33.2932 31.1052 32.5023 33.0116 32.5 35V85C32.5023 86.9884 33.2932 88.8948 34.6992 90.3008C36.1052 91.7068 38.0116 92.4977 40 92.5H80C81.9884 92.4977 83.8948 91.7068 85.3008 90.3008C86.7068 88.8948 87.4977 86.9884 87.5 85V35C87.4977 33.0116 86.7068 31.1052 85.3008 29.6992C83.8948 28.2932 81.9884 27.5023 80 27.5V27.5ZM60 45C59.2583 45 58.5333 44.7801 57.9166 44.368C57.2999 43.956 56.8193 43.3703 56.5355 42.6851C56.2516 41.9998 56.1774 41.2458 56.3221 40.5184C56.4667 39.791 56.8239 39.1228 57.3483 38.5983C57.8728 38.0739 58.541 37.7167 59.2684 37.5721C59.9958 37.4274 60.7498 37.5016 61.4351 37.7855C62.1203 38.0693 62.706 38.5499 63.118 39.1666C63.5301 39.7833 63.75 40.5083 63.75 41.25C63.75 42.2446 63.3549 43.1984 62.6516 43.9017C61.9484 44.6049 60.9946 45 60 45Z" fill="#FFCC46"/>
</svg>
