<svg width="97" height="60" viewBox="0 0 97 60" fill="none" xmlns="http://www.w3.org/2000/svg">
<path d="M70.4231 17.2891H22.7666V41.1196H70.4231V17.2891Z" fill="#F8F9FA"/>
<path d="M22.7798 23.0838C24.3213 23.0838 25.7997 22.4714 26.8897 21.3814C27.9797 20.2914 28.5921 18.813 28.5921 17.2715H22.7798V23.0838Z" fill="#81BCB8"/>
<path d="M70.4363 23.0838C68.8948 23.0838 67.4164 22.4714 66.3264 21.3814C65.2364 20.2914 64.624 18.813 64.624 17.2715H70.4363V23.0838Z" fill="#81BCB8"/>
<path d="M70.4363 35.2134C68.8948 35.2134 67.4164 35.8257 66.3264 36.9158C65.2364 38.0058 64.624 39.4842 64.624 41.0257H70.4363V35.2134Z" fill="#81BCB8"/>
<path d="M22.7798 35.2134C24.3213 35.2134 25.7997 35.8257 26.8897 36.9158C27.9797 38.0058 28.5921 39.4842 28.5921 41.0257H22.7798V35.2134Z" fill="#81BCB8"/>
<path d="M22.7795 23.9782H21.8853V16.3774H29.486V17.2716C29.486 18.1524 29.3125 19.0244 28.9755 19.8381C28.6384 20.6518 28.1444 21.3911 27.5217 22.0139C26.8989 22.6366 26.1596 23.1306 25.3459 23.4677C24.5323 23.8047 23.6602 23.9782 22.7795 23.9782ZM23.6737 18.1658V22.0914C24.6472 21.9085 25.5428 21.4359 26.2433 20.7355C26.9437 20.035 27.4163 19.1394 27.5992 18.1658H23.6737Z" fill="#495057"/>
<path d="M71.3302 23.9782H70.436C68.6573 23.9782 66.9515 23.2716 65.6938 22.0139C64.4361 20.7562 63.7295 19.0503 63.7295 17.2716V16.3774H71.3302V23.9782ZM65.6163 18.1658C65.7991 19.1394 66.2718 20.035 66.9722 20.7355C67.6726 21.4359 68.5683 21.9085 69.5418 22.0914V18.1837L65.6163 18.1658Z" fill="#495057"/>
<path d="M71.3302 41.9025H63.7295V41.0083C63.7295 39.2296 64.4361 37.5238 65.6938 36.2661C66.9515 35.0083 68.6573 34.3018 70.436 34.3018H71.3302V41.9025ZM65.6163 40.1141H69.5418V36.1885C68.5683 36.3714 67.6726 36.844 66.9722 37.5445C66.2718 38.2449 65.7991 39.1405 65.6163 40.1141Z" fill="#495057"/>
<path d="M29.4547 41.9025H21.8853V34.3018H22.7795C23.6602 34.3018 24.5323 34.4752 25.3459 34.8123C26.1596 35.1493 26.8989 35.6433 27.5217 36.2661C28.1444 36.8888 28.6384 37.6281 28.9755 38.4418C29.3125 39.2555 29.486 40.1276 29.486 41.0083L29.4547 41.9025ZM23.6424 40.1141H27.5679C27.3871 39.1448 26.9191 38.2522 26.2247 37.5522C25.5303 36.8522 24.6415 36.3771 23.6737 36.1885L23.6424 40.1141Z" fill="#495057"/>
<path d="M71.3168 42.0273H21.8853V16.395H71.3168V42.0273ZM23.6737 40.2389H69.5284V18.1834H23.6737V40.2389Z" fill="#495057"/>
<path d="M46.5971 36.1346C50.4244 36.1346 53.5271 33.0319 53.5271 29.2045C53.5271 25.3771 50.4244 22.2744 46.5971 22.2744C42.7697 22.2744 39.667 25.3771 39.667 29.2045C39.667 33.0319 42.7697 36.1346 46.5971 36.1346Z" fill="#81BCB8"/>
<path d="M46.5968 37.0245C45.0489 37.0254 43.5356 36.5672 42.2482 35.7078C40.9608 34.8484 39.9573 33.6264 39.3645 32.1965C38.7718 30.7667 38.6164 29.1931 38.9182 27.6749C39.22 26.1567 39.9652 24.7622 41.0597 23.6677C42.1543 22.5731 43.5488 21.8279 45.067 21.5261C46.5852 21.2243 48.1587 21.3797 49.5886 21.9724C51.0185 22.5652 52.2405 23.5687 53.0999 24.8561C53.9593 26.1435 54.4175 27.6568 54.4166 29.2047C54.4131 31.2776 53.5881 33.2645 52.1223 34.7302C50.6566 36.196 48.6697 37.021 46.5968 37.0245ZM46.5968 23.1644C45.4028 23.1635 44.2354 23.5167 43.2422 24.1794C42.2491 24.8421 41.4747 25.7845 41.0172 26.8873C40.5597 27.9902 40.4395 29.2039 40.6719 30.375C40.9043 31.5462 41.4788 32.6221 42.3228 33.4667C43.1667 34.3113 44.2422 34.8866 45.4132 35.1198C46.5841 35.3531 47.798 35.2338 48.9011 34.7771C50.0043 34.3204 50.9472 33.5468 51.6107 32.5541C52.2741 31.5614 52.6282 30.3942 52.6282 29.2003C52.6259 27.6014 51.9896 26.0686 50.859 24.938C49.7285 23.8074 48.1957 23.1712 46.5968 23.1689V23.1644Z" fill="#495057"/>
<path d="M92.5277 6.63054H88.5038C84.6842 6.64217 80.9194 5.72132 77.5364 3.94793C74.7197 2.45908 70.8299 0.912109 66.8999 0.912109C64.8053 0.949767 62.747 1.4651 60.8819 2.41884C57.9265 3.86298 55.2663 6.12978 53.0218 8.29822C49.3109 11.875 48.524 12.7201 44.1245 17.276H56.165C56.3036 17.276 58.3423 15.2864 59.0443 14.6471C61.5436 12.3758 63.9356 10.5382 67.4185 10.3057C68.8677 10.2183 70.3097 10.5679 71.558 11.3092C72.8063 12.0505 73.8033 13.1495 74.4201 14.4638C75.6094 17.1061 74.8672 20.3923 72.9849 22.5116C71.1026 24.6308 68.2143 25.6413 65.411 25.6413H52.2394C51.1798 25.6283 50.1545 26.0165 49.3692 26.728C48.5839 27.4395 48.0967 28.4217 48.0054 29.4774C47.968 30.0382 48.0462 30.6006 48.2351 31.1299C48.424 31.6591 48.7196 32.144 49.1036 32.5544C49.4876 32.9647 49.9517 33.2919 50.4673 33.5155C50.9828 33.7392 51.5388 33.8546 52.1008 33.8545H73.584C77.217 33.8186 80.7603 32.7214 83.7779 30.698C86.9137 28.6496 90.5795 27.5619 94.3251 27.5683H95.7245V6.63054H92.5277Z" fill="white"/>
<path d="M73.5837 34.7308H52.1228C51.4389 34.7299 50.7624 34.589 50.1349 34.3168C49.5075 34.0446 48.9424 33.6469 48.4744 33.1481C48.0038 32.6504 47.6415 32.0604 47.4106 31.4155C47.1798 30.7706 47.0853 30.0847 47.1331 29.4014C47.2372 28.1179 47.8245 26.9218 48.7764 26.0545C49.7283 25.1873 50.9738 24.7136 52.2614 24.7292H65.433C68.2363 24.7292 70.7535 23.7008 72.3362 21.908C74.0844 19.9228 74.6165 16.9899 73.6239 14.8035C73.083 13.6536 72.2088 12.693 71.1149 12.0464C70.021 11.3997 68.7579 11.097 67.4897 11.1775C64.1856 11.3966 61.9009 13.2476 59.6564 15.2864L58.7265 16.1806C56.6877 18.1166 56.6162 18.1702 56.178 18.1702H44.1376H42.0049L44.5847 15.4876C48.0676 11.8795 49.002 10.9093 52.3866 7.64544C54.2689 5.8302 57.1571 3.22807 60.4746 1.60957C62.4645 0.58741 64.6628 0.0366883 66.8995 0C71.1246 0 75.2424 1.70793 77.9518 3.12971C81.2058 4.8409 84.827 5.73545 88.5034 5.73631H96.6183V28.4267H94.3158C90.7417 28.4247 87.2451 29.4675 84.256 31.4268C81.0961 33.5436 77.3869 34.692 73.5837 34.7308ZM52.239 26.5176C51.4069 26.5016 50.5995 26.8012 49.9792 27.356C49.3588 27.9109 48.9714 28.6799 48.8947 29.5087C48.866 29.9474 48.9275 30.3874 49.0756 30.8014C49.2237 31.2154 49.4551 31.5946 49.7556 31.9156C50.056 32.2366 50.4192 32.4926 50.8225 32.6677C51.2258 32.8427 51.6608 32.9332 52.1004 32.9335H73.5837C77.0424 32.8968 80.4149 31.8493 83.2858 29.92C86.5637 27.7739 90.3977 26.6332 94.3158 26.6383H94.821V7.52472H88.5034C84.5365 7.52645 80.6286 6.56442 77.1158 4.72139C74.5852 3.38456 70.758 1.78841 66.8995 1.78841C64.9399 1.82719 63.0148 2.31189 61.2705 3.20572C58.181 4.71692 55.4179 7.19386 53.6295 8.94203C50.3836 12.0717 49.4044 13.0822 46.221 16.3818H55.8606C56.2138 16.0733 56.9828 15.349 57.4701 14.884C57.8546 14.5219 58.2078 14.1865 58.4269 13.9898C60.8144 11.8214 63.4702 9.67975 67.3689 9.42043C68.9994 9.32139 70.6219 9.71479 72.0259 10.5495C73.43 11.3843 74.5506 12.6219 75.2424 14.1016C76.5122 16.9183 75.8594 20.6293 73.6641 23.1196C71.7416 25.3015 68.746 26.5489 65.4196 26.5489L52.239 26.5176Z" fill="#495057"/>
<path d="M60.958 41.3121L56.8313 42.564L51.7612 44.1065L44.1157 46.4314L38.3839 48.1706C39.272 47.8777 40.0452 47.3121 40.5932 46.5544C41.1413 45.7966 41.4363 44.8852 41.4363 43.95C41.4363 43.0148 41.1413 42.1034 40.5932 41.3456C40.0452 40.5878 39.272 40.0222 38.3839 39.7293L19.5564 33.4431C15.2795 32.0124 10.6631 31.9499 6.34906 33.2643L0.87207 35.3522V56.0664L5.34309 54.8995C9.71127 53.5582 10.762 54.7207 15.1033 56.1335L20.2673 57.8191C22.7334 58.364 25.2319 58.7508 27.7473 58.9771H27.8323C28.1274 59.0039 28.4269 59.0218 28.7265 59.0397H28.8159C29.4061 59.071 29.9963 59.0888 30.573 59.0888H30.6759C31.2258 59.0888 31.7668 59.062 32.2854 59.0173H32.4106C32.8808 58.9767 33.3481 58.9081 33.81 58.8116L33.9665 58.7803C34.1767 58.7312 34.3823 58.682 34.5791 58.6238L54.3275 52.6193L59.3977 51.0768L59.5676 51.0187L63.5244 49.816C64.085 49.6477 64.6068 49.3704 65.0599 48.9999C65.513 48.6294 65.8884 48.1731 66.1647 47.6571C66.4409 47.1412 66.6126 46.5757 66.6697 45.9933C66.7268 45.4108 66.6684 44.8228 66.4976 44.263C66.328 43.7052 66.0501 43.1864 65.6798 42.7362C65.3095 42.286 64.854 41.9132 64.3395 41.6392C63.8251 41.3651 63.2616 41.1951 62.6814 41.139C62.1011 41.0829 61.5155 41.1417 60.958 41.3121Z" fill="#81BCB8"/>
<path d="M30.4789 59.9968C26.6115 59.9968 22.2344 59.1607 20.0927 58.6912L20.0078 58.6689L14.8438 56.9878C13.9496 56.6882 13.1716 56.4066 12.501 56.1562C9.96589 55.2173 8.8079 54.788 5.62007 55.7583L0 57.2292V34.74L6.11188 32.4106C10.6022 31.0388 15.409 31.1044 19.8602 32.5984L38.6698 38.8981C39.3354 39.1189 39.9509 39.4688 40.4812 39.9277C41.0114 40.3867 41.4459 40.9457 41.7599 41.5727C42.0738 42.1998 42.261 42.8826 42.3108 43.5821C42.3606 44.2816 42.2719 44.9841 42.0499 45.6493C41.9881 45.8384 41.915 46.0235 41.8308 46.2037L51.4971 43.2662C52.168 43.0607 52.8727 42.9894 53.5711 43.0562C54.2695 43.1231 54.9478 43.3268 55.5675 43.6559C56.1871 43.9849 56.7359 44.4327 57.1825 44.9738C57.629 45.5149 57.9646 46.1387 58.1701 46.8095C58.3756 47.4803 58.447 48.185 58.3801 48.8834C58.3133 49.5818 58.1095 50.2602 57.7805 50.8799C57.4515 51.4995 57.0036 52.0483 56.4625 52.4948C55.9214 52.9414 55.2977 53.277 54.6269 53.4825L34.8516 59.4647C33.4267 59.8487 31.9543 60.0279 30.4789 59.9968ZM20.5175 56.9565C22.8335 57.4572 30.4387 58.9461 34.3374 57.7657L54.0769 51.7612C54.9599 51.4717 55.6944 50.8479 56.1231 50.0235C56.5518 49.1992 56.6406 48.2397 56.3706 47.3506C56.1005 46.4615 55.493 45.7135 54.6782 45.2668C53.8634 44.8201 52.9061 44.7102 52.0113 44.9608L38.634 49.0294C37.5483 49.3892 36.3755 49.3892 35.2897 49.0294L22.9139 44.916L23.4773 43.2215L35.8531 47.3349C36.3011 47.5036 36.7786 47.58 37.2569 47.5597C37.7352 47.5393 38.2044 47.4225 38.6365 47.2163C39.0686 47.0101 39.4545 46.7188 39.7712 46.3598C40.0879 46.0008 40.3288 45.5815 40.4795 45.1271C40.6301 44.6727 40.6874 44.1925 40.648 43.7154C40.6085 43.2383 40.4731 42.7741 40.2498 42.3506C40.0265 41.9271 39.72 41.5531 39.3486 41.251C38.9772 40.9489 38.5486 40.725 38.0886 40.5926L19.2701 34.2884C15.1811 32.9158 10.7657 32.8533 6.63946 34.1096L1.76605 35.9695V54.9088L5.11037 54.0146C8.8392 52.8789 10.4443 53.4736 13.1001 54.4617C13.7573 54.7076 14.504 54.9848 15.3758 55.2664L20.5175 56.9565Z" fill="#495057"/>
<path d="M30.4836 59.9918C25.7488 59.9918 20.3835 58.7578 20.084 58.6907L20.4864 56.947C20.5803 56.947 29.9068 59.111 34.3465 57.7608L59.1651 50.2182C59.6113 50.0825 60.0265 49.8603 60.3868 49.5643C60.7472 49.2682 61.0457 48.904 61.2653 48.4926C61.485 48.0812 61.6214 47.6305 61.6669 47.1663C61.7123 46.7022 61.6659 46.2336 61.5303 45.7874C61.3947 45.3412 61.1725 44.926 60.8764 44.5657C60.5803 44.2053 60.2162 43.9068 59.8047 43.6872C59.3933 43.4675 58.9426 43.3311 58.4785 43.2856C58.0143 43.2402 57.5457 43.2866 57.0995 43.4222L52.0294 44.9602L51.5063 43.2523L56.5764 41.7098C57.9318 41.2948 59.3965 41.4352 60.6483 42.1001C61.9002 42.765 62.8366 43.9 63.2516 45.2553C63.6666 46.6107 63.5263 48.0754 62.8614 49.3272C62.1964 50.5791 61.0615 51.5155 59.7061 51.9306L34.8517 59.4642C33.428 59.846 31.9573 60.0237 30.4836 59.9918Z" fill="#495057"/>
<path d="M55.9863 53.0396L55.4632 51.3317L63.2785 48.9531C63.7254 48.8198 64.1413 48.5989 64.502 48.3034C64.8628 48.0079 65.1612 47.6436 65.3799 47.2318C65.7077 46.6137 65.8455 45.9127 65.7761 45.2165C65.7068 44.5204 65.4333 43.8603 64.99 43.3191C64.5467 42.7779 63.9534 42.3797 63.2846 42.1746C62.6158 41.9695 61.9013 41.9665 61.2308 42.1661L44.3751 47.2854L43.8564 45.573L60.6943 40.4537C61.3663 40.2507 62.0717 40.1822 62.7701 40.2522C63.4686 40.3221 64.1464 40.5291 64.7648 40.8613C65.3832 41.1936 65.93 41.6445 66.3738 42.1883C66.8177 42.7321 67.15 43.3581 67.3516 44.0305C67.7627 45.3841 67.6198 46.8455 66.9541 48.0938C66.2885 49.342 65.1547 50.275 63.8016 50.6879L55.9863 53.0396Z" fill="#495057"/>
</svg>
