<svg width="85" height="85" viewBox="0 0 85 85" fill="none" xmlns="http://www.w3.org/2000/svg">
<path d="M33.0243 64.0524C50.1585 64.0524 64.0485 50.1624 64.0485 33.0282C64.0485 15.8939 50.1585 2.00391 33.0243 2.00391C15.89 2.00391 2 15.8939 2 33.0282C2 50.1624 15.89 64.0524 33.0243 64.0524Z" fill="#F8F9FA" stroke="#495057" stroke-width="3" stroke-miterlimit="10"/>
<path d="M57.4677 24.1583C63.4282 24.1583 68.2601 19.3264 68.2601 13.3659C68.2601 7.40541 63.4282 2.57349 57.4677 2.57349C51.5072 2.57349 46.6753 7.40541 46.6753 13.3659C46.6753 19.3264 51.5072 24.1583 57.4677 24.1583Z" fill="#81BCB8"/>
<path d="M57.4675 24.7317C55.2194 24.7326 53.0215 24.0668 51.1518 22.8184C49.2821 21.57 47.8246 19.7952 46.9636 17.7185C46.1027 15.6417 45.877 13.3563 46.315 11.1512C46.7531 8.94618 47.8352 6.92056 49.4246 5.33057C51.0139 3.74058 53.0391 2.65764 55.244 2.21872C57.4489 1.77981 59.7344 2.00463 61.8115 2.86475C63.8886 3.72487 65.664 5.18166 66.9131 7.05086C68.1622 8.92006 68.8289 11.1177 68.8289 13.3659C68.8253 16.3784 67.6273 19.2666 65.4976 21.3972C63.3678 23.5278 60.4801 24.727 57.4675 24.7317ZM57.4675 2.55553C55.3282 2.55464 53.2366 3.18828 51.4574 4.37629C49.6783 5.56429 48.2914 7.25329 47.4723 9.22962C46.6532 11.206 46.4387 13.3808 46.8558 15.4791C47.273 17.5774 48.3031 19.5048 49.8158 21.0176C51.3286 22.5303 53.256 23.5604 55.3543 23.9776C57.4525 24.3947 59.6274 24.1802 61.6038 23.3611C63.5801 22.542 65.2691 21.1551 66.4571 19.3759C67.6451 17.5968 68.2787 15.5052 68.2778 13.3659C68.2743 10.4999 67.1342 7.75229 65.1076 5.72573C63.0811 3.69917 60.3335 2.55909 57.4675 2.55553Z" fill="#495057" stroke="#495057" stroke-width="2" stroke-miterlimit="10"/>
<path d="M63.6588 9.39648L56.5759 17.7697L51.8539 13.7735L51.6523 14.0378L56.6924 18.3028L63.9769 9.69665L63.6588 9.39648Z" stroke="white" stroke-width="3" stroke-miterlimit="10"/>
<path d="M33.0244 33.0288L49.5199 68.1433L55.9712 61.6966L76.2792 82.0001L81.9106 76.3687L61.6026 56.0607L68.1389 49.5243L33.0244 33.0288Z" fill="#81BCB8" stroke="#495057" stroke-width="3" stroke-miterlimit="10"/>
</svg>
