<svg width="90" height="80" viewBox="0 0 90 80" fill="none" xmlns="http://www.w3.org/2000/svg">
<path d="M82.5926 31.543H80.3185V23.3105C80.314 19.5965 78.8366 16.0358 76.2104 13.4096C73.5841 10.7834 70.0235 9.30604 66.3095 9.30152H42.3169V7.02734H66.3095C70.6262 7.03336 74.7644 8.75083 77.8168 11.8032C80.8692 14.8556 82.5866 18.9938 82.5926 23.3105V31.543Z" fill="#495057"/>
<path d="M81.5352 33.1519L73.4902 25.1013L75.0992 23.498L81.5352 29.934L87.8119 23.6572L89.4209 25.2605L81.5352 33.1519Z" fill="#495057"/>
<path d="M6.82275 50.4756H9.09693V58.6911C9.09995 62.4055 10.5769 65.967 13.2034 68.5936C15.8299 71.2201 19.3914 72.697 23.1059 72.7H47.0985V74.9742H23.1116C18.7939 74.9697 14.6542 73.2529 11.6006 70.2003C8.54703 67.1478 6.82877 63.0088 6.82275 58.6911V50.4756Z" fill="#495057"/>
<path d="M7.88572 48.8662L15.9306 56.9168L14.3217 58.5258L7.88572 52.0842L1.60898 58.3666L0 56.7576L7.88572 48.8662Z" fill="#495057"/>
<path d="M34.266 18.9894C32.775 17.5107 30.7601 16.681 28.6601 16.6812H17.8578C17.1926 16.6812 16.516 16.6812 15.8622 16.6812C13.8036 16.7757 11.8642 17.6735 10.46 19.1818C9.05586 20.6901 8.29895 22.6887 8.35171 24.7488V35.193C8.35171 35.4545 8.67009 35.3351 8.92025 35.3351H36.3867C36.4208 35.3351 36.5629 35.3351 36.5629 35.3351V24.5782C36.5623 22.4835 35.7324 20.4741 34.2546 18.9894H34.266Z" fill="#F8F9FA"/>
<path d="M34.266 18.9894C32.775 17.5107 30.7601 16.681 28.6601 16.6812H17.8578C17.1926 16.6812 16.516 16.6812 15.8622 16.6812C13.8036 16.7757 11.8642 17.6735 10.46 19.1818C9.05586 20.6901 8.29895 22.6887 8.35171 24.7488V35.3351H36.5743V24.5782C36.5737 22.4835 35.7438 20.4741 34.266 18.9894Z" fill="#81BCB8"/>
<path d="M37.7117 36.472H7.21493V24.7486C7.16494 22.3984 8.03522 20.1218 9.64013 18.4043C11.245 16.6868 13.4575 15.6644 15.8056 15.5552H16.7153H28.6548C30.7474 15.5607 32.7753 16.2808 34.4028 17.5963C34.4925 17.652 34.5763 17.7168 34.6529 17.7896L34.7894 17.926L34.8462 17.9829L35.0623 18.1989L35.4603 18.5969C36.9048 20.2505 37.7024 22.3709 37.706 24.5666L37.7117 36.472ZM9.48911 34.1978H35.4375V24.578C35.4346 22.7989 34.7369 21.0913 33.4931 19.8193L33.4362 19.7681C32.1609 18.5181 30.4463 17.8179 28.6605 17.818H16.721C16.4538 17.818 16.1923 17.818 15.9307 17.818C14.1612 17.8935 12.4927 18.6633 11.2869 19.9606C10.0811 21.2579 9.43515 22.9782 9.48911 24.7486V34.1978ZM33.857 19.4156L33.4703 19.8193L33.857 19.4156Z" fill="#495057"/>
<path d="M22.1732 13.7475C21.3447 13.7483 20.5242 13.5858 19.7585 13.2692C18.9929 12.9527 18.2971 12.4884 17.7111 11.9028C17.125 11.3173 16.66 10.6219 16.3428 9.85658C16.0256 9.09123 15.8623 8.27087 15.8623 7.44238C15.8616 6.61369 16.0243 5.79299 16.3413 5.0273C16.6582 4.26161 17.1231 3.56599 17.7094 2.98028C18.2956 2.39456 18.9917 1.93028 19.7576 1.61401C20.5236 1.29775 21.3445 1.13572 22.1732 1.13722C23.0004 1.13796 23.8194 1.30164 24.5834 1.61891C25.3474 1.93618 26.0415 2.40082 26.6259 2.98631C27.2103 3.5718 27.6737 4.26667 27.9896 5.03124C28.3055 5.79582 28.4677 6.61512 28.467 7.44238C28.467 9.11265 27.8042 10.7147 26.6242 11.8968C25.4442 13.0789 23.8434 13.7445 22.1732 13.7475Z" fill="white"/>
<path d="M22.1734 14.8845C20.7009 14.8868 19.2609 14.4522 18.0356 13.6358C16.8102 12.8194 15.8545 11.6579 15.2895 10.2982C14.7245 8.93847 14.5755 7.44173 14.8613 5.99732C15.1472 4.55292 15.8551 3.22577 16.8955 2.18381C17.9359 1.14186 19.2619 0.431922 20.7059 0.143838C22.1499 -0.144246 23.6468 0.00247043 25.0074 0.565422C26.3679 1.12837 27.5309 2.08226 28.3492 3.30638C29.1675 4.53049 29.6042 5.96983 29.6042 7.44225C29.6027 9.41363 28.8197 11.304 27.4268 12.699C26.0339 14.0941 24.1447 14.88 22.1734 14.8845ZM22.1734 2.27418C21.1512 2.27418 20.152 2.57728 19.3021 3.14515C18.4522 3.71303 17.7898 4.52017 17.3987 5.46451C17.0075 6.40886 16.9052 7.44798 17.1046 8.45049C17.304 9.453 17.7962 10.3739 18.519 11.0966C19.2417 11.8194 20.1626 12.3116 21.1651 12.511C22.1676 12.7104 23.2068 12.6081 24.1511 12.2169C25.0954 11.8258 25.9026 11.1634 26.4705 10.3135C27.0383 9.46359 27.3414 8.4644 27.3414 7.44225C27.3414 6.76357 27.2078 6.09153 26.948 5.46451C26.6883 4.83749 26.3076 4.26777 25.8277 3.78787C25.3478 3.30797 24.7781 2.92729 24.1511 2.66757C23.5241 2.40785 22.852 2.27418 22.1734 2.27418Z" fill="#495057"/>
<path d="M15.8225 27.5688H13.5483V35.3409H15.8225V27.5688Z" fill="#495057"/>
<path d="M31.3782 27.5688H29.104V35.3409H31.3782V27.5688Z" fill="#495057"/>
<path d="M15.8225 28.0918H13.5483V35.3351H15.8225V28.0918Z" fill="#495057"/>
<path d="M31.3782 28.0918H29.104V35.3351H31.3782V28.0918Z" fill="#495057"/>
<path d="M18.5859 16.6812L21.2069 19.757H22.9183L25.7439 16.6812H18.5859Z" fill="#81BCB8"/>
<path d="M22.9183 19.7568H22.0598H21.207L19.9277 30.8946L22.0598 32.6173L24.1975 30.8946L22.9183 19.7568Z" fill="#81BCB8"/>
<path d="M23.4183 20.894H20.6836L16.1353 15.5439H28.3306L23.4183 20.894ZM21.7127 18.6198H22.3949L23.134 17.8181H21.0361L21.7127 18.6198Z" fill="#495057"/>
<path d="M22.0597 34.0784L18.728 31.3892L20.1949 18.6196H23.9302L25.3971 31.3892L22.0597 34.0784ZM21.1273 30.4056L22.0597 31.156L22.9978 30.4056L22.0597 22.2867L21.1273 30.4056Z" fill="#495057"/>
<path d="M84.5486 62.5397C83.0576 61.0609 81.0427 60.2313 78.9427 60.2314H68.1403C67.4808 60.2314 66.8043 60.2314 66.1504 60.2314C64.0909 60.3216 62.1488 61.2159 60.7413 62.7223C59.3339 64.2286 58.5733 66.2268 58.6229 68.2877V78.7319C58.6229 78.9934 58.947 78.8797 59.1914 78.8797H86.692H86.8625V68.1342C86.8673 66.045 86.0505 64.0377 84.5884 62.5454L84.5486 62.5397Z" fill="#F8F9FA"/>
<path d="M84.5486 62.5397C83.0576 61.0609 81.0427 60.2313 78.9427 60.2314H68.1403C67.4808 60.2314 66.8043 60.2314 66.1504 60.2314C64.0909 60.3216 62.1488 61.2159 60.7413 62.7223C59.3339 64.2286 58.5733 66.2268 58.6229 68.2877V78.8797H86.8455V68.1001C86.8503 66.0109 86.0334 64.0036 84.5713 62.5113L84.5486 62.5397Z" fill="#81BCB8"/>
<path d="M87.9881 80.0001H57.4913V68.271C57.4413 65.92 58.3124 63.6425 59.9185 61.9248C61.5246 60.2072 63.7386 59.1854 66.0877 59.0776H66.9917H78.9311C81.0195 59.0818 83.0437 59.8 84.6678 61.113C84.761 61.1706 84.847 61.2393 84.9236 61.3177L85.1169 61.511L85.2079 61.602L85.333 61.7271L85.4182 61.818L85.7366 62.1364L85.7651 62.1705C87.186 63.8223 87.9704 65.9273 87.9767 68.1061L87.9881 80.0001ZM59.7655 77.7259H85.7139V68.1004C85.7095 66.3261 85.0141 64.6232 83.7751 63.3531L83.7353 63.3076C82.4551 62.0524 80.7354 61.3466 78.9425 61.3404H67.0031C66.7415 61.3404 66.4743 61.3404 66.2128 61.3404C64.4473 61.4203 62.7837 62.19 61.58 63.4841C60.3764 64.7781 59.7288 66.493 59.7768 68.2596L59.7655 77.7259Z" fill="#495057"/>
<path d="M72.4438 57.2695C70.7716 57.2695 69.1679 56.6052 67.9854 55.4228C66.803 54.2403 66.1387 52.6366 66.1387 50.9643C66.1387 49.2921 66.803 47.6884 67.9854 46.5059C69.1679 45.3235 70.7716 44.6592 72.4438 44.6592C74.1156 44.6607 75.7185 45.3255 76.9006 46.5076C78.0827 47.6897 78.7475 49.2926 78.749 50.9643C78.7475 52.6361 78.0827 54.239 76.9006 55.4211C75.7185 56.6032 74.1156 57.268 72.4438 57.2695Z" fill="white"/>
<path d="M72.4442 58.4065C70.9723 58.4065 69.5334 57.97 68.3095 57.1522C67.0856 56.3345 66.1318 55.1722 65.5685 53.8123C65.0052 52.4524 64.8578 50.956 65.145 49.5123C65.4321 48.0687 66.1409 46.7426 67.1817 45.7018C68.2226 44.6609 69.5486 43.9521 70.9923 43.665C72.436 43.3778 73.9323 43.5252 75.2922 44.0885C76.6521 44.6518 77.8145 45.6057 78.6322 46.8295C79.45 48.0534 79.8865 49.4923 79.8865 50.9642C79.885 52.9376 79.1004 54.8297 77.705 56.225C76.3096 57.6204 74.4176 58.405 72.4442 58.4065ZM72.4442 45.7962C71.4221 45.7962 70.4229 46.0993 69.573 46.6671C68.7231 47.235 68.0607 48.0422 67.6695 48.9865C67.2784 49.9308 67.176 50.97 67.3754 51.9725C67.5749 52.975 68.0671 53.8958 68.7898 54.6186C69.5126 55.3414 70.4335 55.8336 71.436 56.033C72.4385 56.2324 73.4776 56.1301 74.4219 55.7389C75.3663 55.3478 76.1734 54.6853 76.7413 53.8355C77.3092 52.9856 77.6123 51.9864 77.6123 50.9642C77.6108 49.594 77.0658 48.2804 76.0969 47.3115C75.1281 46.3426 73.8144 45.7977 72.4442 45.7962Z" fill="#495057"/>
<path d="M66.0994 71.0908H63.8252V78.8628H66.0994V71.0908Z" fill="#495057"/>
<path d="M81.6604 71.0908H79.3862V78.8628H81.6604V71.0908Z" fill="#495057"/>
<path d="M66.0994 71.6196H63.8252V78.8629H66.0994V71.6196Z" fill="#495057"/>
<path d="M81.6604 71.6196H79.3862V78.8629H81.6604V71.6196Z" fill="#495057"/>
<path d="M68.8623 60.2031L71.4833 63.2846H73.1946L76.0203 60.2031H68.8623Z" fill="#81BCB8"/>
<path d="M73.1947 63.2847H72.3418H71.4833L70.2041 74.4225L72.3418 76.1452L74.4739 74.4225L73.1947 63.2847Z" fill="#81BCB8"/>
<path d="M73.6947 64.4216H70.96L66.4116 59.0659H78.624L73.6947 64.4216ZM71.989 62.1474H72.6713L73.4104 61.3401H71.3068L71.989 62.1474Z" fill="#495057"/>
<path d="M72.3418 77.6062L69.0044 74.9113L70.4997 62.1475H74.235L75.7019 74.9113L72.3418 77.6062ZM71.4093 73.9107L72.3418 74.6668L73.2742 73.9107L72.3418 65.7918L71.4093 73.9107Z" fill="#495057"/>
</svg>
