<svg width="84" height="80" viewBox="0 0 84 80" fill="none" xmlns="http://www.w3.org/2000/svg">
<path d="M75.2945 56.8664L70.1972 58.4127L63.9346 60.318L54.491 63.1897L47.4111 65.338C48.5081 64.9763 49.4631 64.2776 50.14 63.3416C50.817 62.4056 51.1814 61.2799 51.1814 60.1247C51.1814 58.9695 50.817 57.8438 50.14 56.9078C49.4631 55.9718 48.5081 55.2732 47.4111 54.9114L24.1555 47.1467C18.8727 45.3794 13.1705 45.3022 7.84181 46.9258L1.07666 49.5048V75.0909L6.59923 73.6495C11.9948 71.9927 13.2926 73.4286 18.655 75.1737L25.0557 77.2613C28.1018 77.9344 31.1879 78.4122 34.2949 78.6916H34.3999C34.7644 78.7247 35.1344 78.7468 35.5044 78.7689H35.6148C36.3438 78.8076 37.0728 78.8297 37.7852 78.8297H37.9122C38.5915 78.8297 39.2597 78.7965 39.9004 78.7413H40.055C40.6357 78.6912 41.213 78.6064 41.7836 78.4873L41.9768 78.4486C42.2364 78.3934 42.4904 78.3271 42.7334 78.2553L67.1266 70.8385L73.3892 68.9332L73.5991 68.8614L78.4866 67.3758C79.8784 66.9513 81.0448 65.9916 81.7293 64.7075C82.4138 63.4234 82.5604 61.92 82.137 60.5278C81.9292 59.8375 81.5871 59.1949 81.1305 58.637C80.6738 58.0791 80.1115 57.6168 79.4759 57.2767C78.8402 56.9365 78.1436 56.7252 77.4261 56.6548C76.7086 56.5844 75.9842 56.6563 75.2945 56.8664Z" fill="white"/>
<path d="M37.6474 79.9452C32.8704 79.9452 27.4638 78.9125 24.8184 78.3326L24.7135 78.305L18.3349 76.2285C17.2304 75.864 16.2695 75.5106 15.4411 75.2013C12.3098 74.0416 10.8795 73.5114 6.94188 74.7098L0 76.5212V48.7427L7.54936 45.8654C13.0958 44.1709 19.0332 44.252 24.5313 46.0974L47.7647 53.8676C48.5869 54.1404 49.3472 54.5726 50.0021 55.1395C50.6571 55.7063 51.1938 56.3968 51.5816 57.1714C51.9693 57.9459 52.2006 58.7894 52.2621 59.6534C52.3235 60.5174 52.214 61.3851 51.9398 62.2067C51.8635 62.4402 51.7732 62.6689 51.6692 62.8915L63.609 59.2632C64.8534 58.8892 66.1805 58.8913 67.4237 59.269C68.6669 59.6467 69.7708 60.3833 70.5968 61.3863C71.4228 62.3893 71.934 63.614 72.0664 64.9066C72.1987 66.1991 71.9462 67.502 71.3406 68.6516C70.9349 69.4178 70.3807 70.0957 69.7104 70.6456C69.0401 71.1956 68.267 71.6066 67.4362 71.8547L43.0485 79.2991C41.2879 79.7697 39.4693 79.9872 37.6474 79.9452ZM25.3431 76.1899C28.2038 76.8084 37.5977 78.6474 42.4134 77.1895L66.7955 69.7726C67.8862 69.4151 68.7934 68.6446 69.323 67.6263C69.8525 66.6081 69.9622 65.4229 69.6286 64.3247C69.2951 63.2265 68.5447 62.3026 67.5383 61.7508C66.5318 61.1991 65.3494 61.0634 64.2441 61.3728L47.7206 66.3983C46.3788 66.8385 44.9315 66.8385 43.5897 66.3983L28.3142 61.301L29.0101 59.208L44.2966 64.2887C44.85 64.4971 45.4398 64.5915 46.0305 64.5664C46.6213 64.5412 47.201 64.397 47.7346 64.1423C48.2683 63.8876 48.745 63.5278 49.1362 63.0843C49.5274 62.6408 49.825 62.1229 50.0111 61.5617C50.1972 61.0004 50.268 60.4073 50.2192 59.818C50.1705 59.2287 50.0032 58.6553 49.7274 58.1322C49.4516 57.6091 49.073 57.1471 48.6142 56.774C48.1555 56.4008 47.6261 56.1242 47.0579 55.9607L23.8023 48.1904C18.7493 46.5022 13.2954 46.4327 8.20102 47.9916L2.18142 50.2669V73.6605L6.3123 72.5836C10.9181 71.1809 12.9007 71.9154 16.1811 73.1359C16.993 73.4396 17.9152 73.782 18.9921 74.13L25.3431 76.1899Z" fill="#495057"/>
<path d="M37.6531 79.9398C31.8047 79.9398 25.1776 78.4156 24.8076 78.3328L25.3046 76.179C25.4206 76.2066 36.9407 78.8519 42.4246 77.1841L73.0694 67.873C73.6206 67.7055 74.1333 67.431 74.5785 67.0653C75.0236 66.6996 75.3923 66.2498 75.6636 65.7416C75.9348 65.2334 76.1034 64.6768 76.1595 64.1034C76.2157 63.5301 76.1583 62.9513 75.9908 62.4001C75.8233 61.849 75.5488 61.3362 75.1831 60.8911C74.8174 60.446 74.3676 60.0772 73.8594 59.806C73.3512 59.5347 72.7946 59.3662 72.2212 59.31C71.6479 59.2539 71.0691 59.3112 70.5179 59.4787L64.2554 61.3785L63.6092 59.2688L69.8718 57.3801C70.7007 57.1263 71.5716 57.0382 72.4346 57.1209C73.2975 57.2036 74.1358 57.4555 74.9014 57.8622C75.667 58.2689 76.3451 58.8223 76.8968 59.4911C77.4486 60.1598 77.8632 60.9306 78.117 61.7595C78.3708 62.5885 78.4589 63.4593 78.3762 64.3223C78.2935 65.1853 78.0416 66.0235 77.6349 66.7891C77.2283 67.5548 76.6748 68.2328 76.0061 68.7845C75.3374 69.3363 74.5666 69.7509 73.7376 70.0047L43.0487 79.2992C41.2896 79.7671 39.4729 79.9828 37.6531 79.9398Z" fill="#495057"/>
<path d="M69.1536 71.3579L68.5075 69.2427L78.161 66.3047C78.7118 66.1386 79.2246 65.8654 79.6697 65.5008C80.1148 65.1362 80.4837 64.6874 80.755 64.18C81.0264 63.6727 81.195 63.1167 81.2512 62.5441C81.3074 61.9714 81.25 61.3933 81.0824 60.8429C80.7345 59.7416 79.9692 58.8203 78.9504 58.2763C77.9316 57.7323 76.7403 57.6089 75.6316 57.9325L54.8115 64.2448L54.1709 62.1297L74.9689 55.8063C76.6415 55.3078 78.4433 55.4893 79.9829 56.3114C81.5225 57.1334 82.6757 58.5296 83.192 60.1968C83.7015 61.8694 83.5257 63.6759 82.7034 65.2191C81.8811 66.7622 80.4796 67.9155 78.8071 68.4254L69.1536 71.3579Z" fill="#495057"/>
<path d="M51.658 2.98294C50.4515 2.9798 49.2562 3.21587 48.1415 3.67751C47.0267 4.13915 46.0145 4.81719 45.1635 5.67243L41.8113 9.02464C41.6292 9.2054 41.383 9.30684 41.1265 9.30684C40.8699 9.30684 40.6237 9.2054 40.4417 9.02464L37.0895 5.67243C35.3578 3.99064 33.0339 3.05776 30.62 3.0754C28.2061 3.09304 25.896 4.05979 24.1891 5.76671C22.4822 7.47364 21.5154 9.78366 21.4978 12.1976C21.4802 14.6115 22.413 16.9354 24.0948 18.667L41.1265 35.6987L58.1581 18.667C59.4422 17.3816 60.3164 15.7442 60.6703 13.962C61.0241 12.1798 60.8417 10.3327 60.146 8.65419C59.4503 6.97565 58.2727 5.541 56.7619 4.53156C55.2511 3.52213 53.475 2.98322 51.658 2.98294Z" fill="#81BCB8"/>
<path d="M41.1267 36.8031C40.835 36.8033 40.5551 36.6882 40.348 36.4828L23.3164 19.4512C22.2985 18.5099 21.4812 17.3728 20.9136 16.1079C20.346 14.8431 20.0397 13.4766 20.0131 12.0905C19.9865 10.7044 20.2402 9.32719 20.759 8.04153C21.2777 6.75587 22.0508 5.58823 23.0318 4.60866C24.0129 3.6291 25.1817 2.85779 26.4681 2.34102C27.7546 1.82424 29.1322 1.57265 30.5182 1.60132C31.9043 1.63 33.2703 1.93836 34.5343 2.5079C35.7983 3.07745 36.9342 3.89643 37.8739 4.91574L41.1267 8.16853L44.3795 4.91574C45.3324 3.94659 46.4678 3.17573 47.7201 2.64766C48.9725 2.11959 50.3171 1.84475 51.6762 1.83901C53.0354 1.83327 54.3822 2.09673 55.639 2.61421C56.8958 3.13168 58.0376 3.89291 58.9987 4.85398C59.9598 5.81505 60.721 6.95693 61.2385 8.21372C61.756 9.47051 62.0194 10.8173 62.0137 12.1765C62.0079 13.5356 61.7331 14.8802 61.205 16.1326C60.677 17.3849 59.9061 18.5203 58.937 19.4732L41.9053 36.4828C41.6983 36.6882 41.4183 36.8033 41.1267 36.8031ZM30.5951 4.08735C28.9952 4.08671 27.4311 4.56073 26.1008 5.44943C24.7704 6.33813 23.7336 7.60154 23.1217 9.07975C22.5097 10.558 22.35 12.1845 22.6629 13.7535C22.9758 15.3225 23.7471 16.7634 24.8792 17.8938L41.1267 34.1357L57.3741 17.8883C58.1494 17.1432 58.7682 16.251 59.1945 15.2638C59.6207 14.2766 59.8458 13.2143 59.8564 12.1391C59.8671 11.0639 59.6632 9.99739 59.2567 9.00195C58.8501 8.0065 58.2491 7.10215 57.4888 6.34183C56.7285 5.5815 55.8241 4.98048 54.8287 4.57393C53.8332 4.16739 52.7667 3.96349 51.6915 3.97417C50.6163 3.98485 49.554 4.2099 48.5668 4.63614C47.5796 5.06238 46.6874 5.68126 45.9423 6.45654L42.5901 9.80874C42.2018 10.1966 41.6755 10.4144 41.1267 10.4144C40.5779 10.4144 40.0515 10.1966 39.6632 9.80874L36.311 6.45654C35.5628 5.7025 34.6722 5.10474 33.6909 4.69801C32.7097 4.29128 31.6573 4.0837 30.5951 4.08735Z" fill="#495057"/>
<path d="M59.5223 20.0364L41.8114 37.7473C41.722 37.8381 41.6154 37.9103 41.4979 37.9595C41.3803 38.0087 41.2541 38.0341 41.1266 38.0341C40.9992 38.0341 40.873 38.0087 40.7554 37.9595C40.6379 37.9103 40.5313 37.8381 40.4418 37.7473L22.731 20.0364C21.6768 19.0084 20.8372 17.7814 20.2609 16.4264C19.6846 15.0715 19.383 13.6156 19.3738 12.1432C19.3645 10.6708 19.6476 9.21126 20.2068 7.84916C20.766 6.48705 21.5901 5.24953 22.6312 4.20838C23.6724 3.16722 24.9099 2.34315 26.272 1.78397C27.6341 1.22479 29.0937 0.941628 30.5661 0.950904C32.0385 0.960181 33.4944 1.26171 34.8493 1.83801C36.2043 2.41431 37.4313 3.25391 38.4592 4.3081L41.1266 6.9755L43.794 4.3081C45.3495 2.75285 47.3313 1.69374 49.4887 1.26468C51.646 0.835619 53.8822 1.05588 55.9144 1.89761C57.9466 2.73934 59.6836 4.16474 60.9058 5.99359C62.128 7.82244 62.7804 9.97261 62.7807 12.1722C62.7847 13.6334 62.4988 15.0809 61.9395 16.4308C61.3802 17.7807 60.5586 19.0063 59.5223 20.0364Z" fill="#81BCB8"/>
<path d="M41.1268 39.1557C40.8548 39.1564 40.5854 39.103 40.3341 38.9987C40.0829 38.8945 39.8549 38.7413 39.6633 38.5482L21.9469 20.8152C19.679 18.5171 18.4122 15.4152 18.4229 12.1864C18.4336 8.95771 19.721 5.86427 22.0041 3.5812C24.2871 1.29813 27.3806 0.0107715 30.6093 6.7287e-05C33.838 -0.0106369 36.9399 1.25618 39.2381 3.52406L41.1268 5.41278L43.0155 3.52406C45.3137 1.25618 48.4156 -0.0106369 51.6443 6.7287e-05C54.8731 0.0107715 57.9665 1.29813 60.2496 3.5812C62.5326 5.86427 63.82 8.95771 63.8307 12.1864C63.8414 15.4152 62.5746 18.5171 60.3067 20.8152L42.5903 38.5317C42.4001 38.7278 42.1727 38.8839 41.9214 38.9911C41.6701 39.0983 41.4 39.1542 41.1268 39.1557ZM30.5953 2.15446C28.61 2.15049 26.6683 2.73647 25.0167 3.83802C23.365 4.93957 22.0779 6.50702 21.3187 8.3414C20.5595 10.1758 20.3625 12.1944 20.7526 14.1409C21.1427 16.0875 22.1024 17.8743 23.5098 19.2744L41.1268 36.8859L58.7438 19.2744C59.6754 18.3443 60.4146 17.2398 60.9193 16.024C61.4241 14.8082 61.6844 13.5049 61.6854 12.1885C61.6864 10.8721 61.4281 9.56839 60.9253 8.35179C60.4225 7.1352 59.685 6.02956 58.7549 5.098C57.8248 4.16643 56.7203 3.42719 55.5045 2.92248C54.2887 2.41776 52.9853 2.15746 51.6689 2.15644C50.3525 2.15541 49.0488 2.41368 47.8322 2.9165C46.6156 3.41932 45.51 4.15684 44.5784 5.08695L41.9055 7.75435C41.6986 7.96007 41.4186 8.07554 41.1268 8.07554C40.835 8.07554 40.5551 7.96007 40.3481 7.75435L37.6752 5.08695C36.7478 4.15402 35.6445 3.41443 34.4292 2.91105C33.2139 2.40767 31.9107 2.15051 30.5953 2.15446Z" fill="#495057"/>
<path d="M37.2663 22.2292H31.3461V21.0529L34.1405 18.0762C34.4608 17.7379 34.7458 17.3678 34.991 16.9717C35.1601 16.705 35.2554 16.3982 35.2671 16.0826C35.2856 15.7548 35.1812 15.4319 34.9744 15.1769C34.8694 15.0639 34.7406 14.9755 34.5974 14.9182C34.4542 14.8609 34.3 14.8361 34.146 14.8455C33.9726 14.8383 33.7998 14.8709 33.6409 14.9408C33.482 15.0107 33.3412 15.116 33.2293 15.2487C32.9925 15.5476 32.8727 15.9226 32.8924 16.3035H31.1749C31.1646 15.7958 31.2946 15.2952 31.5504 14.8566C31.801 14.4199 32.1707 14.0636 32.6163 13.8294C33.0959 13.5767 33.6316 13.4494 34.1736 13.4594C34.9206 13.4137 35.6587 13.6414 36.2501 14.1C36.4993 14.3304 36.6936 14.6137 36.8188 14.9291C36.944 15.2444 36.9969 15.5839 36.9736 15.9224C36.9666 16.3768 36.8531 16.8232 36.6422 17.2258C36.3335 17.7895 35.9509 18.3096 35.5046 18.7721L33.5496 20.843H37.2663V22.2292Z" fill="white"/>
<path d="M43.3908 18.9765H44.3683V20.3792H43.3908V22.2513H41.6733V20.3792H38.1333L38.0781 19.2747L41.6788 13.5864H43.4129L43.3908 18.9765ZM39.7625 18.9765H41.6733V15.928L41.5629 16.1213L39.7625 18.9765Z" fill="white"/>
<path d="M47.0302 16.5131C47.2339 16.2535 47.495 16.0446 47.793 15.9028C48.091 15.761 48.4177 15.6901 48.7477 15.6957C50.1394 15.6957 50.8408 16.502 50.8628 18.1202V22.2345H49.1508V18.1699C49.1728 17.8777 49.0885 17.5874 48.9134 17.3525C48.8096 17.2514 48.6856 17.1735 48.5494 17.124C48.4132 17.0745 48.2681 17.0545 48.1236 17.0653C47.9029 17.0479 47.6819 17.0937 47.4862 17.1974C47.2906 17.3011 47.1286 17.4583 47.0191 17.6507V22.2124H45.3071V13.1167H47.0191L47.0302 16.5131Z" fill="white"/>
</svg>
