<svg width="73" height="80" viewBox="0 0 73 80" fill="none" xmlns="http://www.w3.org/2000/svg">
<path d="M72.0984 10.9522L7.13005 75.4413L4.78271 73.5079L69.4896 9.28564L72.0984 10.9522Z" fill="#495057"/>
<path d="M25.9192 18.1907C24.4896 16.7728 22.5572 15.9779 20.5437 15.9795H10.1958C9.56406 15.9795 8.91595 15.9795 8.28963 15.9795C7.20388 16.0377 6.14273 16.3249 5.17591 16.8224C4.20909 17.3199 3.35848 18.0164 2.67999 18.866C1.61809 20.2539 1.05754 21.9605 1.08969 23.7077V33.7125C1.08969 33.963 1.40012 33.8486 1.63431 33.8486H27.9561C27.9887 33.8486 28.1249 33.8486 28.1249 33.8486V23.5443C28.1295 21.543 27.347 19.6202 25.9464 18.1907H25.9192Z" fill="#F8F9FA"/>
<path d="M25.9192 18.1907C24.4896 16.7728 22.5572 15.9779 20.5437 15.9795H10.1958C9.56406 15.9795 8.91595 15.9795 8.28963 15.9795C7.20388 16.0377 6.14273 16.3249 5.17591 16.8224C4.20909 17.3199 3.35848 18.0164 2.67999 18.866C1.61809 20.2539 1.05754 21.9605 1.08969 23.7077V33.8486H28.1249V23.5443C28.1295 21.543 27.347 19.6202 25.9464 18.1907H25.9192Z" fill="#81BCB8"/>
<path d="M29.2144 34.9376H0.000670598V23.7075C-0.023775 21.7205 0.620757 19.7831 1.83061 18.2068C2.60451 17.2363 3.57457 16.4403 4.67733 15.8706C5.78009 15.3009 6.9907 14.9705 8.22996 14.9009H9.10136H20.5385C22.5431 14.9061 24.4857 15.596 26.0446 16.8561C26.1315 16.9081 26.212 16.9703 26.2843 17.0413L26.415 17.172C26.4358 17.1873 26.4542 17.2056 26.4695 17.2264L26.6873 17.4279L27.0685 17.8092C28.4622 19.3893 29.2361 21.4209 29.247 23.5277L29.2144 34.9376ZM2.17917 32.7591H27.0359V23.5441C27.0331 21.8398 26.3647 20.2041 25.1733 18.9856L25.1188 18.9366C23.8971 17.7391 22.2546 17.0684 20.5439 17.0685H9.1068C8.85628 17.0685 8.6003 17.0685 8.34978 17.0685C6.65565 17.1436 5.05901 17.8819 3.90452 19.124C2.75004 20.3661 2.13032 22.0124 2.17917 23.7075V32.7591ZM25.5218 18.5989L25.1515 18.9856L25.5218 18.5989Z" fill="#495057"/>
<path d="M14.3241 13.1691C12.7222 13.1691 11.1859 12.5328 10.0532 11.4001C8.92053 10.2674 8.28418 8.73113 8.28418 7.12925C8.28347 6.33588 8.4392 5.55015 8.74248 4.81704C9.04576 4.08392 9.49063 3.4178 10.0516 2.8568C10.6126 2.29581 11.2787 1.85094 12.0119 1.54766C12.745 1.24438 13.5307 1.08864 14.3241 1.08936C15.926 1.08936 17.4622 1.7257 18.5949 2.8584C19.7276 3.9911 20.364 5.52737 20.364 7.12925C20.3625 8.73069 19.7257 10.2661 18.5933 11.3985C17.4609 12.5309 15.9255 13.1677 14.3241 13.1691Z" fill="white"/>
<path d="M14.3245 14.2583C12.9144 14.2583 11.5361 13.8402 10.3637 13.0568C9.19134 12.2735 8.27758 11.16 7.73799 9.85735C7.1984 8.55467 7.05722 7.12124 7.3323 5.73832C7.60738 4.3554 8.28636 3.08511 9.28339 2.08808C10.2804 1.09105 11.5507 0.412067 12.9336 0.136988C14.3166 -0.138092 15.75 0.00308894 17.0527 0.542677C18.3553 1.08227 19.4688 1.99603 20.2521 3.16841C21.0355 4.34079 21.4536 5.71914 21.4536 7.12915C21.4522 9.01947 20.7006 10.832 19.3639 12.1686C18.0273 13.5053 16.2148 14.2568 14.3245 14.2583ZM14.3245 2.1785C13.3453 2.1785 12.3882 2.46885 11.574 3.01284C10.7599 3.55682 10.1254 4.33001 9.75066 5.23462C9.37596 6.13923 9.27792 7.13464 9.46894 8.09497C9.65996 9.0553 10.1315 9.93742 10.8238 10.6298C11.5162 11.3221 12.3983 11.7936 13.3586 11.9847C14.319 12.1757 15.3144 12.0776 16.219 11.7029C17.1236 11.3282 17.8968 10.6937 18.4408 9.87958C18.9848 9.06545 19.2751 8.10829 19.2751 7.12915C19.2737 5.8166 18.7516 4.55822 17.8235 3.63011C16.8954 2.70199 15.637 2.17995 14.3245 2.1785Z" fill="#495057"/>
<path d="M8.24637 26.4087H6.06787V33.8537H8.24637V26.4087Z" fill="#495057"/>
<path d="M23.1473 26.4087H20.9688V33.8537H23.1473V26.4087Z" fill="#495057"/>
<path d="M8.24637 26.9102H6.06787V33.8487H8.24637V26.9102Z" fill="#495057"/>
<path d="M23.1473 26.9102H20.9688V33.8487H23.1473V26.9102Z" fill="#495057"/>
<path d="M10.8931 15.9795L13.4038 18.9259H15.0431L17.7499 15.9795H10.8931Z" fill="#81BCB8"/>
<path d="M15.043 18.9258H14.226H13.4036L12.1782 29.595L14.226 31.2452L16.2684 29.595L15.043 18.9258Z" fill="#81BCB8"/>
<path d="M15.5225 20.0151H12.9029L8.5459 14.8901H20.2281L15.5225 20.0151ZM13.8887 17.8366H14.5422L15.2502 17.0686H13.2515L13.8887 17.8366Z" fill="#495057"/>
<path d="M14.2262 32.6448L11.0293 30.0687L12.4344 17.8364H16.0126L17.4286 30.0687L14.2262 32.6448ZM13.3331 29.1265L14.2262 29.8454L15.1194 29.1265L14.2262 21.3493L13.3331 29.1265Z" fill="#495057"/>
<path d="M69.6528 63.2527C68.2233 61.8348 66.2909 61.0399 64.2774 61.0415H53.9186C53.2869 61.0415 52.6387 61.0415 52.0124 61.0415C50.0434 61.1362 48.1893 61.9969 46.8461 63.4398C45.503 64.8827 44.777 66.7935 44.8234 68.7643V78.7745C44.8234 79.025 45.1338 78.9107 45.368 78.9107H71.717C71.7442 78.9107 71.8804 78.9107 71.8804 78.9107V68.6227C71.8849 66.6214 71.1025 64.6985 69.7019 63.269L69.6528 63.2527Z" fill="#F8F9FA"/>
<path d="M69.6528 63.2527C68.2233 61.8348 66.2909 61.0399 64.2774 61.0415H53.9186C53.2869 61.0415 52.6387 61.0415 52.0124 61.0415C50.0434 61.1362 48.1893 61.9969 46.8461 63.4398C45.503 64.8827 44.777 66.7935 44.8234 68.7643V78.9107H71.8586V68.6227C71.8631 66.6214 71.0807 64.6985 69.6801 63.269L69.6528 63.2527Z" fill="#81BCB8"/>
<path d="M72.948 80.0001H43.7343V68.7645C43.6879 66.5133 44.5229 64.3331 46.0613 62.6889C47.5997 61.0446 49.7197 60.0666 51.969 59.9634C52.2631 59.9634 52.5517 59.9634 52.8349 59.9634H53.9242H64.2721C66.2744 59.9666 68.2154 60.6546 69.7728 61.9131C69.8621 61.9662 69.9444 62.0303 70.0179 62.1038L70.203 62.2889L70.2902 62.3815L70.41 62.4959L70.4917 62.5776L70.7967 62.8826L70.8294 62.9207C72.1942 64.5072 72.9458 66.5301 72.948 68.6229V80.0001ZM45.9128 77.8216H70.7695V68.6229C70.7667 66.9213 70.1005 65.2879 68.9123 64.0699L68.8742 64.0317C67.6477 62.826 65.9973 62.1494 64.2775 62.1473H52.8404C52.5899 62.1473 52.3339 62.1473 52.0834 62.1473C50.3931 62.2224 48.7998 62.9576 47.6459 64.195C46.492 65.4324 45.8697 67.0732 45.9128 68.7645V77.8216Z" fill="#495057"/>
<path d="M58.0575 58.2258C57.2641 58.2265 56.4784 58.0708 55.7453 57.7675C55.0121 57.4642 54.346 57.0193 53.785 56.4583C53.224 55.8973 52.7792 55.2312 52.4759 54.4981C52.1726 53.765 52.0169 52.9793 52.0176 52.1859C52.0176 50.584 52.6539 49.0477 53.7866 47.915C54.9193 46.7823 56.4556 46.146 58.0575 46.146C59.6589 46.1474 61.1943 46.7842 62.3267 47.9166C63.4591 49.049 64.0959 50.5845 64.0974 52.1859C64.0974 53.7878 63.461 55.324 62.3283 56.4567C61.1956 57.5894 59.6594 58.2258 58.0575 58.2258Z" fill="white"/>
<path d="M58.0579 59.3149C56.6478 59.3149 55.2695 58.8968 54.0971 58.1135C52.9247 57.3301 52.011 56.2167 51.4714 54.914C50.9318 53.6113 50.7906 52.1779 51.0657 50.795C51.3408 49.412 52.0198 48.1418 53.0168 47.1447C54.0138 46.1477 55.2841 45.4687 56.667 45.1936C58.05 44.9185 59.4834 45.0597 60.7861 45.5993C62.0888 46.1389 63.2022 47.0527 63.9855 48.225C64.7689 49.3974 65.187 50.7758 65.187 52.1858C65.1856 54.0761 64.434 55.8886 63.0973 57.2253C61.7607 58.5619 59.9482 59.3135 58.0579 59.3149ZM58.0579 47.2351C57.0787 47.2351 56.1216 47.5255 55.3074 48.0695C54.4933 48.6135 53.8588 49.3866 53.4841 50.2913C53.1094 51.1959 53.0113 52.1913 53.2023 53.1516C53.3934 54.1119 53.8649 54.9941 54.5572 55.6864C55.2496 56.3788 56.1317 56.8503 57.092 57.0413C58.0524 57.2323 59.0478 57.1343 59.9524 56.7596C60.857 56.3849 61.6302 55.7503 62.1742 54.9362C62.7182 54.1221 63.0085 53.1649 63.0085 52.1858C63.0071 50.8732 62.485 49.6149 61.5569 48.6867C60.6288 47.7586 59.3704 47.2366 58.0579 47.2351Z" fill="#495057"/>
<path d="M51.9798 71.4658H49.8013V78.9109H51.9798V71.4658Z" fill="#495057"/>
<path d="M66.8807 71.4658H64.7021V78.9109H66.8807V71.4658Z" fill="#495057"/>
<path d="M51.9798 71.9722H49.8013V78.9107H51.9798V71.9722Z" fill="#495057"/>
<path d="M66.8807 71.9722H64.7021V78.9107H66.8807V71.9722Z" fill="#495057"/>
<path d="M54.6265 61.0415L57.1372 63.9879H58.7765L61.4833 61.0415H54.6265Z" fill="#81BCB8"/>
<path d="M58.7768 63.9878H57.9599H57.1375L55.9121 74.657L57.9599 76.3072L60.0022 74.657L58.7768 63.9878Z" fill="#81BCB8"/>
<path d="M59.2559 65.0771H56.6417L52.2847 59.9521H63.9778L59.2559 65.0771ZM57.622 62.8986H58.2755L58.9836 62.1307H56.963L57.622 62.8986Z" fill="#495057"/>
<path d="M57.9596 77.7073L54.7627 75.1258L56.1678 62.8989H59.746L61.1511 75.1258L57.9596 77.7073ZM57.0665 74.1836L57.9596 74.9079L58.8528 74.1836L57.9596 66.4063L57.0665 74.1836Z" fill="#495057"/>
</svg>
