<svg xmlns="http://www.w3.org/2000/svg" viewBox="0 0 195.71 168.1"><defs><style>.cls-1{fill:#fff;}.cls-2{fill:#f7f8f8;}.cls-3,.cls-5{fill:#646563;}.cls-4{fill:#85bab5;}.cls-5,.cls-6{stroke:#646563;stroke-miterlimit:10;}.cls-5{stroke-width:2px;}.cls-6{fill:#f1a0c3;stroke-width:4px;}.cls-7{fill:#fffeff;}</style></defs><title>realtime</title><g id="图层_2" data-name="图层 2"><g id="Layer_1" data-name="Layer 1"><rect class="cls-1" x="55.97" y="18.23" width="115.38" height="147.88"/><rect class="cls-2" x="55.97" y="18.23" width="115.38" height="147.88"/><polygon class="cls-3" points="148.86 18.23 152.86 18.23 152.86 36.26 171.35 36.27 171.35 40.27 148.86 40.26 148.86 18.23"/><polygon class="cls-4" points="138.4 81.15 122.76 81.15 122.76 65.51 104.73 65.51 104.73 81.15 89.08 81.15 89.08 99.18 104.73 99.18 104.73 114.83 122.76 114.83 122.76 99.18 138.4 99.18 138.4 81.15"/><path class="cls-3" d="M126.76,118.82h-22V103.18H89.08v-22h15.65V65.51h22V81.15H142.4v22H126.76Zm-18-4h14V99.18H138.4v-14H122.76V69.51h-14V85.15H93.08v14h15.65Z"/><path class="cls-3" d="M173.35,168.1H54V16.23H173.35ZM58,164.1H169.35V20.23H58Z"/><circle class="cls-4" cx="169.35" cy="26.36" r="24.09"/><path class="cls-5" d="M169.35,51.73a25.37,25.37,0,1,1,25.36-25.37A25.4,25.4,0,0,1,169.35,51.73Zm0-49.5a24.14,24.14,0,1,0,24.13,24.13A24.16,24.16,0,0,0,169.35,2.23Z"/><path class="cls-1" d="M167.62,38.88a1.54,1.54,0,0,1-1-.35L155.4,29a1.5,1.5,0,0,1-.23-2.05l.45-.59a1.51,1.51,0,0,1,2.16-.24l9.4,8L182,16.53a1.5,1.5,0,0,1,2.18-.12l.71.67a1.49,1.49,0,0,1,.11,2.06L168.77,38.35A1.51,1.51,0,0,1,167.62,38.88Z"/><circle class="cls-6" cx="42.19" cy="91.1" r="40.19" transform="translate(-56.17 111.23) rotate(-76.72)"/><circle class="cls-7" cx="42.19" cy="91.1" r="32.34" transform="translate(-57.49 103.1) rotate(-72.01)"/><path class="cls-3" d="M45.5,91.1a3.31,3.31,0,1,1-3.31-3.3A3.31,3.31,0,0,1,45.5,91.1Z"/><rect class="cls-3" x="49.33" y="88.14" width="2" height="23.04" transform="translate(-55.73 64.78) rotate(-45)"/><rect class="cls-3" x="23.06" y="90.1" width="19.12" height="2"/><rect class="cls-3" x="41.19" y="61.97" width="2" height="3.4"/><rect class="cls-3" x="41.19" y="117.23" width="2" height="3.4"/><rect class="cls-3" x="68.12" y="90.3" width="3.4" height="2"/><rect class="cls-3" x="12.86" y="90.3" width="3.4" height="2"/><path class="cls-3" d="M42.19,132.3A41.2,41.2,0,1,1,83.38,91.1,41.24,41.24,0,0,1,42.19,132.3Zm0-80.38A39.19,39.19,0,1,0,81.38,91.1,39.23,39.23,0,0,0,42.19,51.92Z"/></g></g></svg>