<svg width="62" height="81" viewBox="0 0 62 81" fill="none" xmlns="http://www.w3.org/2000/svg">
<path d="M41.0244 57.803C39.7082 56.4976 37.9295 55.7652 36.0758 55.7654H26.54C25.9578 55.7654 25.3606 55.7654 24.7834 55.7654C22.9671 55.8463 21.2548 56.6356 20.0136 57.964C18.7723 59.2925 18.101 61.0544 18.1435 62.8721V72.0917C18.1435 72.3225 18.4296 72.2171 18.6454 72.2171H42.9064C42.9315 72.2171 43.057 72.2171 43.057 72.2171V62.7215C43.0544 60.8781 42.3238 59.1104 41.0244 57.803Z" fill="#81BCB8"/>
<path d="M41.0244 57.803C39.7082 56.4976 37.9295 55.7652 36.0758 55.7654H26.54C25.9578 55.7654 25.3606 55.7654 24.7834 55.7654C22.9671 55.8463 21.2548 56.6356 20.0136 57.964C18.7723 59.2925 18.101 61.0544 18.1435 62.8721V72.2171H43.057V62.7215C43.0544 60.8781 42.3238 59.1104 41.0244 57.803Z" fill="#81BCB8"/>
<path d="M44.0605 73.2208H17.1395V62.872C17.0954 60.7966 17.8643 58.7861 19.2821 57.2699C20.6999 55.7536 22.6543 54.8516 24.728 54.7565H25.526H36.0655C37.9165 54.7516 39.713 55.3823 41.1546 56.5432C41.2366 56.5949 41.3138 56.6537 41.3855 56.7189L41.5612 56.8895L41.6415 56.9698L41.7469 57.0802L41.8272 57.1605L42.1082 57.4366L42.1333 57.4667C43.3877 58.9248 44.08 60.7829 44.0856 62.7063L44.0605 73.2208ZM19.147 71.2133H42.053V62.7214C42.0505 61.1558 41.4385 59.6527 40.3466 58.5307L40.3064 58.4905C39.1769 57.3816 37.6585 56.7583 36.0756 56.754H25.536C25.3051 56.754 25.0743 56.754 24.8434 56.754C23.2805 56.8206 21.8066 57.4999 20.7405 58.6448C19.6745 59.7897 19.1021 61.3082 19.147 62.872V71.2133Z" fill="#495057"/>
<path d="M30.3393 53.1605C28.8636 53.1591 27.4486 52.5723 26.4051 51.5288C25.3616 50.4853 24.7748 49.0703 24.7734 47.5946C24.7734 46.1184 25.3598 44.7027 26.4036 43.6589C27.4475 42.6151 28.8632 42.0287 30.3393 42.0287C31.8155 42.0287 33.2312 42.6151 34.275 43.6589C35.3188 44.7027 35.9052 46.1184 35.9052 47.5946C35.9039 49.0703 35.3171 50.4853 34.2735 51.5288C33.23 52.5723 31.8151 53.1591 30.3393 53.1605Z" fill="white"/>
<path d="M30.3397 54.1643C29.0403 54.1643 27.7701 53.779 26.6898 53.0572C25.6094 52.3353 24.7674 51.3092 24.2701 50.1088C23.7729 48.9083 23.6428 47.5874 23.8963 46.313C24.1497 45.0386 24.7754 43.868 25.6942 42.9492C26.613 42.0305 27.7836 41.4048 29.058 41.1513C30.3324 40.8978 31.6533 41.0279 32.8538 41.5251C34.0542 42.0224 35.0803 42.8644 35.8022 43.9448C36.524 45.0252 36.9093 46.2953 36.9093 47.5947C36.908 49.3367 36.2154 51.0069 34.9837 52.2387C33.7519 53.4704 32.0817 54.163 30.3397 54.1643ZM30.3397 43.0326C29.4374 43.0326 28.5553 43.3001 27.8051 43.8014C27.0549 44.3027 26.4701 45.0152 26.1248 45.8488C25.7795 46.6825 25.6892 47.5997 25.8652 48.4847C26.0412 49.3697 26.4757 50.1826 27.1138 50.8206C27.7518 51.4586 28.5647 51.8931 29.4497 52.0691C30.3346 52.2452 31.2519 52.1548 32.0855 51.8095C32.9192 51.4642 33.6317 50.8795 34.1329 50.1293C34.6342 49.379 34.9018 48.497 34.9018 47.5947C34.9005 46.3851 34.4194 45.2255 33.5641 44.3702C32.7088 43.515 31.5492 43.0339 30.3397 43.0326Z" fill="#495057"/>
<path d="M24.7385 65.3613H22.731V72.2221H24.7385V65.3613Z" fill="#495057"/>
<path d="M38.4753 65.3613H36.4678V72.2221H38.4753V65.3613Z" fill="#495057"/>
<path d="M24.7385 65.823H22.731V72.217H24.7385V65.823Z" fill="#495057"/>
<path d="M38.4753 65.823H36.4678V72.217H38.4753V65.823Z" fill="#495057"/>
<path d="M27.1826 55.7501L29.4963 58.4653H31.002L33.5013 55.7501H27.1826Z" fill="#005B55"/>
<path d="M31.0021 58.4655H30.2493H29.4964L28.3672 68.2974L30.2493 69.8181L32.1313 68.2974L31.0021 58.4655Z" fill="#005B55"/>
<path d="M31.4438 59.4692H29.0297L25.0146 54.7465H35.7851L31.4438 59.4692ZM29.9381 57.4617H30.5404L31.1928 56.754H29.3359L29.9381 57.4617Z" fill="#495057"/>
<path d="M30.2493 71.108L27.3032 68.7341L28.6081 57.4618H31.9105L33.2054 68.7341L30.2493 71.108ZM29.4262 67.8658L30.2493 68.5283L31.0724 67.8658L30.2493 60.6989L29.4262 67.8658Z" fill="#495057"/>
<path d="M23.8855 65.5671C22.5681 64.2604 20.7874 63.5279 18.9319 63.5294H9.39612C8.81394 63.5294 8.21669 63.5294 7.63953 63.5294C6.63899 63.583 5.66111 63.8478 4.77017 64.3062C3.87922 64.7646 3.09537 65.4064 2.47013 66.1894C1.49156 67.4684 0.975 69.041 1.00462 70.6512V79.8858C1.00462 80.1167 1.2907 80.0113 1.50651 80.0113H25.7626C25.7927 80.0113 25.9181 80.0113 25.9181 80.0113V70.5006C25.9224 68.6563 25.2013 66.8844 23.9106 65.5671H23.8855Z" fill="#81BCB8"/>
<path d="M23.8855 65.5671C22.5681 64.2604 20.7874 63.5279 18.9319 63.5294H9.39612C8.81394 63.5294 8.21669 63.5294 7.63953 63.5294C6.63899 63.583 5.66111 63.8478 4.77017 64.3062C3.87922 64.7646 3.09537 65.4064 2.47013 66.1894C1.49156 67.4684 0.975 69.041 1.00462 70.6512V79.9962H25.9181V70.5006C25.9224 68.6563 25.2013 66.8844 23.9106 65.5671H23.8855Z" fill="#81BCB8"/>
<path d="M26.9217 81.0001H0.000617971V70.6512C-0.0219092 68.8202 0.572041 67.0348 1.68695 65.5822C2.40011 64.688 3.29405 63.9543 4.31026 63.4294C5.32648 62.9044 6.44208 62.5999 7.58408 62.5358H8.3871H18.9267C20.7748 62.5342 22.5676 63.1666 24.0057 64.3275C24.0858 64.3755 24.1599 64.4327 24.2265 64.4981L24.347 64.6186C24.3662 64.6327 24.3831 64.6496 24.3972 64.6688L24.5879 64.8595L24.9392 65.2058C26.2235 66.6619 26.9367 68.534 26.9468 70.4756L26.9217 81.0001ZM2.00815 78.9925H24.9141V70.5007C24.9116 68.9302 24.2957 67.4228 23.1977 66.2999L23.1475 66.2497C22.0209 65.1481 20.5074 64.5319 18.9317 64.5333H8.39212C8.16125 64.5333 7.92536 64.5333 7.6945 64.5333C6.13423 64.605 4.66441 65.2861 3.60106 66.4302C2.53771 67.5743 1.96575 69.0899 2.00815 70.6512V78.9925ZM23.5189 65.9185L23.1776 66.2748L23.5189 65.9185Z" fill="#495057"/>
<path d="M13.2002 60.9396C11.724 60.9396 10.3083 60.3532 9.26449 59.3094C8.22068 58.2656 7.63428 56.8499 7.63428 55.3738C7.63362 54.6426 7.77713 53.9186 8.05661 53.243C8.33609 52.5674 8.74605 51.9536 9.26302 51.4366C9.77999 50.9196 10.3938 50.5097 11.0694 50.2302C11.745 49.9507 12.4691 49.8072 13.2002 49.8079C14.6763 49.8079 16.092 50.3943 17.1358 51.4381C18.1797 52.4819 18.7661 53.8976 18.7661 55.3738C18.7647 56.8495 18.1779 58.2644 17.1344 59.308C16.0909 60.3515 14.6759 60.9383 13.2002 60.9396Z" fill="white"/>
<path d="M13.2 61.9434C11.9007 61.9434 10.6305 61.5581 9.55013 60.8362C8.46975 60.1143 7.6277 59.0883 7.13046 57.8878C6.63322 56.6874 6.50312 55.3665 6.75661 54.0921C7.0101 52.8177 7.6358 51.6471 8.55458 50.7283C9.47336 49.8095 10.644 49.1838 11.9184 48.9303C13.1927 48.6768 14.5137 48.8069 15.7141 49.3042C16.9146 49.8014 17.9406 50.6435 18.6625 51.7238C19.3844 52.8042 19.7697 54.0744 19.7697 55.3737C19.7684 57.1157 19.0758 58.786 17.844 60.0177C16.6123 61.2495 14.942 61.9421 13.2 61.9434ZM13.2 50.8116C12.2977 50.8116 11.4157 51.0792 10.6655 51.5805C9.91521 52.0818 9.33048 52.7943 8.98518 53.6279C8.63988 54.4615 8.54954 55.3788 8.72557 56.2638C8.9016 57.1487 9.3361 57.9616 9.97412 58.5996C10.6121 59.2377 11.425 59.6722 12.31 59.8482C13.195 60.0242 14.1123 59.9339 14.9459 59.5886C15.7795 59.2433 16.492 58.6586 16.9933 57.9083C17.4946 57.1581 17.7622 56.276 17.7622 55.3737C17.7608 54.1642 17.2797 53.0046 16.4245 52.1493C15.5692 51.294 14.4096 50.8129 13.2 50.8116Z" fill="#495057"/>
<path d="M7.59884 73.1405H5.59131V80.0013H7.59884V73.1405Z" fill="#495057"/>
<path d="M21.3308 73.1405H19.3232V80.0013H21.3308V73.1405Z" fill="#495057"/>
<path d="M7.59884 73.6023H5.59131V79.9963H7.59884V73.6023Z" fill="#495057"/>
<path d="M21.3308 73.6023H19.3232V79.9963H21.3308V73.6023Z" fill="#495057"/>
<path d="M10.0386 63.5294L12.3523 66.2446H13.8629L16.3573 63.5294H10.0386Z" fill="#005B55"/>
<path d="M13.8626 66.2445H13.1097H12.3519L11.2227 76.0764L13.1097 77.5971L14.9918 76.0764L13.8626 66.2445Z" fill="#005B55"/>
<path d="M14.3041 67.2484H11.8901L7.875 62.5256H18.6404L14.3041 67.2484ZM12.7985 65.2408H13.4007L14.0532 64.5332H12.2113L12.7985 65.2408Z" fill="#495057"/>
<path d="M13.1096 78.8819L10.1636 76.508L11.4584 65.2357H14.7558L16.0607 76.513L13.1096 78.8819ZM12.2865 75.6398L13.1096 76.3023L13.9327 75.6398L13.1096 68.4729L12.2865 75.6398Z" fill="#495057"/>
<path d="M58.1638 65.5671C56.8476 64.2617 55.069 63.5293 53.2152 63.5294H43.6794C43.0922 63.5294 42.495 63.5294 41.9178 63.5294C40.1006 63.6129 38.3885 64.4054 37.149 65.7368C35.9095 67.0683 35.2414 68.8326 35.2879 70.6511V79.8858C35.2879 80.1167 35.569 80.0113 35.7898 80.0113H60.0659C60.096 80.0113 60.2165 80.0113 60.2165 80.0113V70.5006C60.2245 68.6556 59.5029 66.8823 58.209 65.5671H58.1638Z" fill="#81BCB8"/>
<path d="M58.1638 65.5671C56.8476 64.2617 55.069 63.5293 53.2152 63.5294H43.6794C43.0922 63.5294 42.495 63.5294 41.9178 63.5294C40.1006 63.6129 38.3885 64.4054 37.149 65.7368C35.9095 67.0683 35.2414 68.8326 35.2879 70.6511V79.9962H60.1964V70.5006C60.2044 68.6556 59.4828 66.8823 58.1889 65.5671H58.1638Z" fill="#81BCB8"/>
<path d="M61.2302 81.0001H34.284V70.6512C34.2399 68.5767 35.0081 66.567 36.4249 65.0508C37.8416 63.5347 39.7947 62.6322 41.8675 62.5358H42.6705H53.2101C55.0551 62.5395 56.8435 63.1734 58.2791 64.3325C58.3594 64.3843 58.4349 64.4431 58.5049 64.5082L58.6756 64.6788C58.6756 64.6788 58.7308 64.729 58.7559 64.7591L58.8663 64.8695C58.8663 64.8946 58.9215 64.9197 58.9466 64.9498L59.2226 65.2259V65.256C60.5012 66.7056 61.214 68.5678 61.2302 70.5007V81.0001ZM36.3167 78.9925H59.2226V70.5007C59.2201 68.9326 58.6061 67.4274 57.5112 66.3049L57.4761 66.2698C56.3453 65.1596 54.8248 64.5363 53.2402 64.5333H42.6605C42.4246 64.5333 42.1937 64.5333 41.9629 64.5333C40.4043 64.6063 38.9368 65.2883 37.8761 66.4325C36.8155 67.5767 36.2464 69.0917 36.2916 70.6512L36.3167 78.9925Z" fill="#495057"/>
<path d="M47.4788 60.9396C46.0035 60.9383 44.5891 60.3513 43.5464 59.3077C42.5037 58.264 41.918 56.8491 41.918 55.3738C41.9173 54.6431 42.0607 53.9194 42.3398 53.2442C42.619 52.5689 43.0285 51.9553 43.5449 51.4384C44.0614 50.9215 44.6746 50.5114 45.3496 50.2316C46.0246 49.9519 46.7482 49.8079 47.4788 49.8079C48.21 49.8072 48.934 49.9507 49.6096 50.2302C50.2852 50.5097 50.899 50.9196 51.416 51.4366C51.933 51.9536 52.3429 52.5674 52.6224 53.243C52.9019 53.9186 53.0454 54.6426 53.0447 55.3738C53.0447 56.8499 52.4583 58.2656 51.4145 59.3094C50.3707 60.3532 48.955 60.9396 47.4788 60.9396Z" fill="white"/>
<path d="M47.4788 61.9434C46.1795 61.9434 44.9093 61.5581 43.8289 60.8362C42.7486 60.1143 41.9065 59.0883 41.4093 57.8878C40.912 56.6874 40.7819 55.3665 41.0354 54.0921C41.2889 52.8177 41.9146 51.6471 42.8334 50.7283C43.7522 49.8095 44.9228 49.1838 46.1972 48.9303C47.4716 48.6768 48.7925 48.8069 49.9929 49.3042C51.1934 49.8014 52.2194 50.6435 52.9413 51.7238C53.6632 52.8042 54.0485 54.0744 54.0485 55.3737C54.0472 57.1157 53.3546 58.786 52.1228 60.0177C50.8911 61.2495 49.2208 61.9421 47.4788 61.9434ZM47.4788 50.8116C46.5765 50.8116 45.6945 51.0792 44.9443 51.5805C44.194 52.0818 43.6093 52.7943 43.264 53.6279C42.9187 54.4615 42.8283 55.3788 43.0044 56.2638C43.1804 57.1487 43.6149 57.9616 44.2529 58.5996C44.891 59.2377 45.7039 59.6722 46.5888 59.8482C47.4738 60.0242 48.3911 59.9339 49.2247 59.5886C50.0583 59.2433 50.7708 58.6586 51.2721 57.9083C51.7734 57.1581 52.041 56.276 52.041 55.3737C52.041 54.1638 51.5603 53.0034 50.7048 52.1478C49.8492 51.2923 48.6888 50.8116 47.4788 50.8116Z" fill="#495057"/>
<path d="M41.883 73.1405H39.8755V80.0013H41.883V73.1405Z" fill="#495057"/>
<path d="M55.6145 73.1405H53.6069V80.0013H55.6145V73.1405Z" fill="#495057"/>
<path d="M41.883 73.6023H39.8755V79.9963H41.883V73.6023Z" fill="#495057"/>
<path d="M55.6145 73.6023H53.6069V79.9963H55.6145V73.6023Z" fill="#495057"/>
<path d="M44.3218 63.5294L46.6355 66.2446H48.1461L50.6405 63.5294H44.3218Z" fill="#005B55"/>
<path d="M48.1467 66.2445H47.3889H46.6361L45.5068 76.0764L47.3889 77.5971L49.276 76.0764L48.1467 66.2445Z" fill="#005B55"/>
<path d="M48.5883 67.2484H46.1743L42.1592 62.5256H52.9346L48.5883 67.2484ZM47.0827 65.2408H47.6849L48.3324 64.5332H46.4754L47.0827 65.2408Z" fill="#495057"/>
<path d="M47.3888 78.8819L44.4478 76.508L45.7426 65.2357H49.04L50.3349 76.508L47.3888 78.8819ZM46.5657 75.6398L47.3888 76.3023L48.2169 75.6398L47.3888 68.4729L46.5657 75.6398Z" fill="#495057"/>
<path d="M40.1516 2.84671C39.0543 2.84374 37.9673 3.05821 36.9534 3.47773C35.9395 3.89725 35.0188 4.5135 34.2444 5.29088L31.203 8.33732C31.0375 8.50159 30.8138 8.59378 30.5806 8.59378C30.3475 8.59378 30.1238 8.50159 29.9583 8.33732L26.9119 5.29088C25.3241 3.83874 23.2371 3.05546 21.0859 3.10434C18.9348 3.15322 16.8855 4.03049 15.3654 5.55326C13.8452 7.07603 12.9714 9.12679 12.9262 11.278C12.8809 13.4292 13.6678 15.5149 15.1226 17.1002L30.6158 32.5783L46.0738 17.1002C47.2417 15.9311 48.0365 14.4417 48.3576 12.8207C48.6786 11.1996 48.5116 9.51976 47.8775 7.9937C47.2435 6.46765 46.1709 5.16401 44.7956 4.24779C43.4203 3.33158 41.8041 2.84398 40.1516 2.84671Z" fill="#FF9ECC" stroke="#495057" stroke-width="4" stroke-miterlimit="10"/>
<path d="M47.3182 18.3448L31.2228 34.4402C31.1415 34.5228 31.0447 34.5883 30.9378 34.6331C30.831 34.6778 30.7163 34.7009 30.6005 34.7009C30.4846 34.7009 30.37 34.6778 30.2631 34.6331C30.1563 34.5883 30.0594 34.5228 29.9781 34.4402L13.8827 18.3448C12.9247 17.4106 12.1617 16.2955 11.6379 15.0642C11.1142 13.8328 10.8402 12.5097 10.8317 11.1716C10.8233 9.83354 11.0806 8.5071 11.5888 7.26923C12.097 6.03137 12.8459 4.90673 13.7921 3.96055C14.7383 3.01436 15.8629 2.26546 17.1008 1.75728C18.3386 1.24911 19.6651 0.99177 21.0032 1.0002C22.3413 1.00863 23.6643 1.28266 24.8957 1.80639C26.1271 2.33013 27.2422 3.09314 28.1764 4.05117L30.6155 6.47527L33.0246 4.05117C33.9588 3.09314 35.0739 2.33013 36.3052 1.80639C37.5366 1.28266 38.8597 1.00863 40.1978 1.0002C41.5358 0.99177 42.8623 1.24911 44.1002 1.75728C45.338 2.26546 46.4627 3.01436 47.4088 3.96055C48.355 4.90673 49.1039 6.03137 49.6121 7.26923C50.1203 8.5071 50.3776 9.83354 50.3692 11.1716C50.3608 12.5097 50.0867 13.8328 49.563 15.0642C49.0393 16.2955 48.2762 17.4106 47.3182 18.3448Z" fill="#FF9ECC" stroke="#495057" stroke-width="2" stroke-miterlimit="10"/>
</svg>
