<svg width="120" height="120" viewBox="0 0 120 120" fill="none" xmlns="http://www.w3.org/2000/svg">
<rect width="120" height="120" rx="16" fill="#27272B"/>
<path d="M97.3305 76.7953C97.328 76.7816 97.3254 76.7679 97.3228 76.7541L92.2133 50.372C92.2095 50.3522 92.2032 50.3336 92.1989 50.3139C91.4083 45.997 89.1306 42.0934 85.7614 39.2811C82.3922 36.4689 78.1443 34.9256 73.7556 34.9194H73.7483L46.2514 35.0006C41.8401 34.9918 37.5677 36.5421 34.1884 39.3776C30.8092 42.213 28.5406 46.1514 27.7832 50.4971C27.7792 50.5197 27.7756 50.5426 27.7722 50.5652L22.6803 76.7523C22.6776 76.7667 22.675 76.781 22.6724 76.7953C22.2572 79.1514 22.6038 81.5784 23.6619 83.724C24.72 85.8696 26.4344 87.6221 28.5563 88.727C30.6782 89.8319 33.0971 90.2316 35.4616 89.8682C37.8262 89.5047 40.0133 88.397 41.7055 86.7059C41.7508 86.6607 41.7941 86.6142 41.8355 86.5661L54.5633 72.496L65.4538 72.4525L78.1636 86.5616C78.206 86.611 78.2506 86.6591 78.2974 86.7059C79.9895 88.3973 82.1766 89.5052 84.5413 89.8688C86.9059 90.2324 89.3249 89.8327 91.4469 88.7277C93.5689 87.6228 95.2834 85.8702 96.3415 83.7244C97.3995 81.5786 97.7459 79.1514 97.3305 76.7953L97.3305 76.7953ZM52.5 56.2506H50V58.7506C50 59.4136 49.7366 60.0495 49.2678 60.5184C48.7989 60.9872 48.163 61.2506 47.5 61.2506C46.8369 61.2506 46.2011 60.9872 45.7322 60.5184C45.2634 60.0495 45 59.4136 45 58.7506V56.2506H42.5C41.8369 56.2506 41.2011 55.9872 40.7322 55.5184C40.2634 55.0495 40 54.4136 40 53.7506C40 53.0876 40.2634 52.4517 40.7322 51.9828C41.2011 51.514 41.8369 51.2506 42.5 51.2506H45V48.7506C45 48.0876 45.2634 47.4517 45.7322 46.9828C46.2011 46.514 46.8369 46.2506 47.5 46.2506C48.163 46.2506 48.7989 46.514 49.2678 46.9828C49.7366 47.4517 50 48.0876 50 48.7506V51.2506H52.5C53.163 51.2506 53.7989 51.514 54.2678 51.9828C54.7366 52.4517 55 53.0876 55 53.7506C55 54.4136 54.7366 55.0495 54.2678 55.5184C53.7989 55.9872 53.163 56.2506 52.5 56.2506ZM65 53.7506C65 53.0876 65.2634 52.4517 65.7322 51.9828C66.2011 51.514 66.8369 51.2506 67.5 51.2506H77.5C78.163 51.2506 78.7989 51.514 79.2678 51.9828C79.7366 52.4517 80 53.0876 80 53.7506C80 54.4136 79.7366 55.0495 79.2678 55.5184C78.7989 55.9872 78.163 56.2506 77.5 56.2506H67.5C66.8369 56.2506 66.2011 55.9872 65.7322 55.5184C65.2634 55.0495 65 54.4136 65 53.7506ZM87.3367 84.9042C86.3589 85.0758 85.3543 85.0125 84.4058 84.7193C83.4574 84.4262 82.5922 83.9117 81.8817 83.2184L72.1593 72.4258L73.7556 72.4194C76.9433 72.4175 80.0779 71.6031 82.8633 70.0529C85.6487 68.5028 87.9929 66.2682 89.6746 63.5602L92.4098 77.6828C92.6902 79.3126 92.314 80.9871 91.3633 82.3403C90.4127 83.6935 88.965 84.6153 87.3367 84.9042V84.9042Z" fill="#FFCC46"/>
</svg>
