<svg width="120" height="120" viewBox="0 0 120 120" fill="none" xmlns="http://www.w3.org/2000/svg">
<rect width="120" height="120" rx="16" fill="#27272B"/>
<path d="M88.8134 52.4963L82.5638 41.6711C81.8247 40.3938 80.7748 39.3239 79.5117 38.5609C78.2486 37.7978 76.8131 37.3662 75.3386 37.3063C73.8641 37.2464 72.3983 37.56 71.0774 38.2181C69.7565 38.8761 68.6233 39.8572 67.783 41.0704L62.3633 31.6829C61.6054 30.3695 60.5192 29.2757 59.2112 28.5087C57.9032 27.7417 56.4182 27.3279 54.902 27.3079C53.3858 27.2878 51.8905 27.6623 50.5626 28.3945C49.2348 29.1266 48.1201 30.1914 47.3279 31.4843C45.7808 30.0866 43.7857 29.2872 41.7016 29.23C39.6175 29.1727 37.5814 29.8615 35.96 31.1721C34.3386 32.4828 33.2385 34.3293 32.8576 36.3791C32.4768 38.4289 32.8403 40.5473 33.8827 42.3529L36.1807 46.3331C34.7092 46.4514 33.2915 46.9401 32.0598 47.7539C30.828 48.5676 29.8222 49.6798 29.1361 50.987C28.45 52.2941 28.1059 53.7537 28.1358 55.2296C28.1657 56.7056 28.5687 58.15 29.3072 59.4283L41.1822 79.9963C42.9879 83.1238 45.3919 85.8651 48.257 88.0635C51.122 90.262 54.3921 91.8746 57.8804 92.8092C61.3687 93.7439 65.0069 93.9824 68.5873 93.511C72.1678 93.0396 75.6203 91.8676 78.7478 90.062C81.8753 88.2563 84.6166 85.8523 86.815 82.9872C89.0135 80.1221 90.6261 76.8521 91.5607 73.3638C92.4954 69.8755 92.7339 66.2373 92.2625 62.6568C91.7911 59.0764 90.6191 55.6238 88.8134 52.4963V52.4963ZM86.7312 72.0699C85.5794 76.3683 83.1788 80.2287 79.8331 83.1628C76.4873 86.097 72.3466 87.9731 67.9346 88.5539C63.5225 89.1347 59.0373 88.3942 55.0462 86.426C51.055 84.4578 47.7371 81.3502 45.5121 77.4963L33.6374 56.9284C33.141 56.0672 33.0069 55.0441 33.2645 54.084C33.5221 53.1239 34.1504 52.3054 35.0113 51.8083C35.8721 51.3112 36.8951 51.1763 37.8554 51.4332C38.8157 51.6901 39.6347 52.3178 40.1324 53.1783L45.7574 62.9211C45.8099 63.0107 45.8679 63.097 45.9311 63.1793C45.9475 63.2012 45.9649 63.2219 45.982 63.2431C46.0313 63.304 46.0829 63.3622 46.1369 63.4174C46.1552 63.4362 46.1732 63.4556 46.192 63.4737C46.2635 63.5432 46.339 63.6082 46.4183 63.6686L46.4238 63.6724C46.5007 63.7293 46.5808 63.7817 46.6638 63.8294C46.6873 63.843 46.7109 63.8555 46.7347 63.8683C46.8008 63.904 46.8684 63.9366 46.9374 63.9661C46.9604 63.9759 46.9828 63.9865 47.0062 63.9956C47.0969 64.0318 47.1896 64.0626 47.2839 64.088C47.29 64.0896 47.2963 64.0905 47.3024 64.092C47.3904 64.1143 47.4795 64.1317 47.5694 64.1443C47.5961 64.1481 47.6228 64.1508 47.6497 64.1538C47.7247 64.1621 47.8002 64.167 47.8759 64.1684C47.8924 64.1687 47.9086 64.1716 47.9251 64.1716C47.933 64.1716 47.9411 64.1701 47.949 64.1701C48.0462 64.1696 48.1433 64.1633 48.2397 64.1514C48.2475 64.1504 48.2553 64.1484 48.2631 64.1474C48.3516 64.1349 48.4393 64.1178 48.526 64.0959C48.5541 64.0889 48.5817 64.0806 48.6096 64.0726C48.6798 64.0524 48.7493 64.029 48.8182 64.0024C48.8453 63.9919 48.8725 63.9821 48.8995 63.9706C49.2265 63.8339 49.5205 63.6289 49.7618 63.3693C50.0031 63.1096 50.1861 62.8015 50.2986 62.4654C50.4111 62.1293 50.4505 61.773 50.4141 61.4205C50.3777 61.0679 50.2663 60.7272 50.0876 60.4212L44.4626 50.6781L44.4613 50.6761L38.2126 39.8528C37.7163 38.9915 37.5823 37.9684 37.84 37.0083C38.0977 36.0483 38.726 35.2299 39.5869 34.7329C40.4477 34.2359 41.4707 34.101 42.431 34.3579C43.3912 34.6148 44.2102 35.2425 44.7079 36.1029L47.2027 40.4242L47.2076 40.433L55.3326 54.5061C55.4968 54.7904 55.7153 55.0396 55.9758 55.2395C56.2362 55.4393 56.5335 55.5859 56.8506 55.6709C57.1677 55.7559 57.4985 55.7775 57.824 55.7347C58.1495 55.6918 58.4634 55.5853 58.7477 55.4211C59.032 55.257 59.2812 55.0384 59.4811 54.778C59.6809 54.5175 59.8275 54.2202 59.9125 53.9031C59.9975 53.586 60.0191 53.2553 59.9763 52.9298C59.9334 52.6043 59.8269 52.2904 59.6627 52.0061L51.5381 37.933C51.2918 37.5066 51.132 37.0357 51.0677 36.5475C51.0035 36.0592 51.036 35.5631 51.1635 35.0874C51.2909 34.6117 51.5108 34.1658 51.8106 33.7751C52.1104 33.3844 52.4842 33.0566 52.9107 32.8104C53.3372 32.5641 53.808 32.4043 54.2963 32.34C54.7846 32.2758 55.2807 32.3083 55.7564 32.4358C56.2321 32.5632 56.678 32.7831 57.0687 33.0829C57.4594 33.3827 57.7872 33.7566 58.0334 34.183L67.4077 50.4198L67.4084 50.4211L69.3863 53.8472C66.6556 56.1078 64.8132 59.2621 64.1857 62.7511C63.5582 66.2401 64.186 69.8387 65.9579 72.9091C66.1221 73.1934 66.3406 73.4426 66.6011 73.6424C66.8615 73.8422 67.1588 73.9888 67.4759 74.0738C67.793 74.1587 68.1237 74.1804 68.4492 74.1376C68.7747 74.0947 69.0885 73.9881 69.3728 73.824C69.6571 73.6598 69.9063 73.4413 70.1062 73.1808C70.306 72.9204 70.4526 72.6231 70.5375 72.306C70.6225 71.9889 70.6442 71.6582 70.6013 71.3327C70.5585 71.0072 70.4519 70.6934 70.2878 70.4091C68.9617 68.1122 68.6024 65.3826 69.2889 62.8208C69.9754 60.259 71.6515 58.0749 73.9483 56.7488C74.0203 56.7072 74.0902 56.662 74.1577 56.6134C74.214 56.573 74.2669 56.5295 74.3188 56.4852C74.3287 56.4768 74.3396 56.4695 74.3493 56.4609C74.409 56.4085 74.4653 56.3534 74.519 56.2963L74.5241 56.2914C74.5781 56.2337 74.6289 56.1738 74.6765 56.1117L74.682 56.1052C74.7272 56.0462 74.7688 55.9852 74.8083 55.9228C74.8125 55.9162 74.8172 55.9102 74.8213 55.9036C74.8569 55.8464 74.8886 55.7875 74.9193 55.7279C74.9261 55.7146 74.9341 55.7021 74.9408 55.6887C74.9681 55.6329 74.9917 55.5755 75.0149 55.518C75.0223 55.4996 75.0313 55.4821 75.0383 55.4635C75.0635 55.3963 75.0848 55.3278 75.1042 55.2588C75.1068 55.2493 75.1106 55.2404 75.1132 55.2308C75.1156 55.2216 75.1169 55.2121 75.1193 55.2028C75.137 55.1332 75.1529 55.0631 75.1646 54.9922C75.1683 54.9704 75.1693 54.9484 75.1724 54.9266C75.1806 54.8675 75.1887 54.8084 75.1927 54.7487C75.1939 54.7305 75.1932 54.7123 75.1939 54.6941C75.1968 54.6306 75.199 54.5671 75.197 54.5033C75.1965 54.4911 75.1947 54.4791 75.1942 54.467C75.191 54.3976 75.1861 54.3283 75.1771 54.2591C75.1761 54.2512 75.1741 54.2435 75.173 54.2357C75.1628 54.1632 75.1503 54.0908 75.1336 54.0189C75.1315 54.0102 75.1284 54.0018 75.1265 53.9931C75.1094 53.9231 75.0903 53.8534 75.067 53.7844C75.0601 53.764 75.0509 53.7444 75.0435 53.7242C75.0227 53.6679 75.0023 53.6116 74.9772 53.5563C74.943 53.4802 74.9049 53.4059 74.8633 53.3337L71.7383 47.921C71.242 47.0597 71.108 46.0366 71.3657 45.0766C71.6234 44.1165 72.2517 43.2981 73.1126 42.8011C73.9734 42.3041 74.9964 42.1692 75.9567 42.4261C76.9169 42.683 77.7359 43.3107 78.2336 44.1711L84.4836 54.9963C85.9685 57.5522 86.9317 60.3773 87.3175 63.308C87.7033 66.2386 87.504 69.2167 86.7312 72.0699V72.0699ZM47.3962 96.4255C47.2092 96.6953 46.9708 96.9256 46.6947 97.1033C46.4186 97.281 46.1103 97.4026 45.7872 97.4611C45.4641 97.5196 45.1327 97.5138 44.8118 97.4442C44.491 97.3746 44.187 97.2425 43.9172 97.0554C39.3726 93.9098 35.5867 89.7904 32.8351 84.9971C32.5035 84.4229 32.4137 83.7406 32.5853 83.1002C32.7568 82.4597 33.1758 81.9137 33.75 81.5822C34.3241 81.2507 35.0065 81.1608 35.6469 81.3324C36.2873 81.504 36.8334 81.9229 37.1649 82.4971C39.5488 86.6506 42.8289 90.2204 46.7663 92.9465C47.3112 93.3243 47.6837 93.9031 47.8018 94.5555C47.9199 95.208 47.774 95.8806 47.3962 96.4255V96.4255ZM72.5 29.6852C72.5006 29.0226 72.7642 28.3873 73.233 27.9189C73.7018 27.4506 74.3373 27.1875 75 27.1875H75.0024C78.2917 27.1951 81.5215 28.0649 84.3699 29.7101C87.2182 31.3553 89.5854 33.7184 91.2356 36.5639C91.4 36.8482 91.5067 37.1622 91.5497 37.4878C91.5927 37.8134 91.5711 38.1443 91.4862 38.4615C91.4012 38.7788 91.2546 39.0762 91.0547 39.3368C90.8548 39.5974 90.6055 39.816 90.3211 39.9802C90.0366 40.1444 89.7226 40.251 89.397 40.2938C89.0714 40.3366 88.7405 40.3149 88.4233 40.2298C88.106 40.1447 87.8087 39.9979 87.5482 39.7979C87.2878 39.5978 87.0692 39.3484 86.9052 39.0639C85.6946 36.9769 83.9581 35.2437 81.8687 34.0371C79.7794 32.8306 77.4102 32.1928 74.9975 32.1875C74.3345 32.1869 73.6989 31.9229 73.2305 31.4536C72.7622 30.9843 72.4994 30.3482 72.5 29.6852Z" fill="#FFCC46"/>
</svg>
