<svg width="120" height="120" viewBox="0 0 120 120" fill="none" xmlns="http://www.w3.org/2000/svg">
<rect width="120" height="120" rx="16" fill="#27272B"/>
<path d="M78.75 46.25C77.4525 46.2488 76.1713 46.5378 75 47.096V36.25C75.0004 34.7334 74.6066 33.2428 73.857 31.9244C73.1075 30.6059 72.0281 29.505 70.7247 28.7297C69.4213 27.9543 67.9387 27.5311 66.4224 27.5017C64.9061 27.4722 63.4082 27.8375 62.0757 28.5617C61.4352 26.5777 60.1075 24.8876 58.3315 23.7958C56.5555 22.704 54.448 22.2823 52.3886 22.6065C50.3292 22.9307 48.4533 23.9796 47.0987 25.5643C45.7441 27.149 44.9998 29.1653 45 31.25V35.846C43.6665 35.2126 42.1944 34.927 40.7208 35.0159C39.2472 35.1047 37.8201 35.5651 36.5723 36.3541C35.3246 37.143 34.2968 38.235 33.5847 39.5282C32.8727 40.8214 32.4995 42.2738 32.5 43.75V67.5C32.5 74.7935 35.3973 81.7882 40.5546 86.9455C45.7118 92.1027 52.7065 95 60 95C67.2935 95 74.2882 92.1027 79.4454 86.9455C84.6027 81.7882 87.5 74.7935 87.5 67.5V55C87.4974 52.6802 86.5747 50.4561 84.9343 48.8157C83.2939 47.1753 81.0698 46.2526 78.75 46.25V46.25ZM82.5 67.5C82.5 73.4674 80.1295 79.1904 75.9099 83.4099C71.6903 87.6295 65.9674 90 60 90C54.0326 90 48.3097 87.6295 44.0901 83.4099C39.8705 79.1904 37.5 73.4674 37.5 67.5V43.75C37.5 42.7555 37.8951 41.8016 38.5983 41.0984C39.3016 40.3951 40.2554 40 41.25 40C42.2446 40 43.1984 40.3951 43.9017 41.0984C44.6049 41.8016 45 42.7555 45 43.75V55C45 55.6631 45.2634 56.299 45.7322 56.7678C46.2011 57.2366 46.837 57.5 47.5 57.5C48.163 57.5 48.7989 57.2366 49.2678 56.7678C49.7366 56.299 50 55.6631 50 55V31.25C50 30.2555 50.3951 29.3016 51.0983 28.5984C51.8016 27.8951 52.7554 27.5 53.75 27.5C54.7446 27.5 55.6984 27.8951 56.4017 28.5984C57.1049 29.3016 57.5 30.2555 57.5 31.25V52.5C57.5 53.1631 57.7634 53.799 58.2322 54.2678C58.7011 54.7366 59.337 55 60 55C60.663 55 61.2989 54.7366 61.7678 54.2678C62.2366 53.799 62.5 53.1631 62.5 52.5V36.25C62.5 35.2555 62.8951 34.3016 63.5984 33.5984C64.3016 32.8951 65.2554 32.5 66.25 32.5C67.2446 32.5 68.1984 32.8951 68.9016 33.5984C69.6049 34.3016 70 35.2555 70 36.25V58.9583C66.5066 59.5538 63.3362 61.3648 61.0489 64.0715C58.7615 66.7782 57.5045 70.2063 57.5 73.75C57.5 74.4131 57.7634 75.049 58.2322 75.5178C58.7011 75.9866 59.337 76.25 60 76.25C60.663 76.25 61.2989 75.9866 61.7678 75.5178C62.2366 75.049 62.5 74.4131 62.5 73.75C62.503 71.0988 63.5575 68.557 65.4323 66.6823C67.307 64.8076 69.8488 63.753 72.5 63.75C73.163 63.75 73.7989 63.4866 74.2678 63.0178C74.7366 62.5489 75 61.9131 75 61.25V55C75 54.0055 75.3951 53.0516 76.0984 52.3484C76.8016 51.6451 77.7554 51.25 78.75 51.25C79.7446 51.25 80.6984 51.6451 81.4016 52.3484C82.1049 53.0516 82.5 54.0055 82.5 55V67.5Z" fill="#FFCC46"/>
</svg>
