<svg xmlns="http://www.w3.org/2000/svg" viewBox="0 0 145.03 188.57"><defs><style>.cls-1,.cls-5{fill:#646563;}.cls-2{fill:#f1a0c3;stroke-width:4px;}.cls-2,.cls-5{stroke:#646563;stroke-miterlimit:10;}.cls-3{fill:#f7f8f8;}.cls-4{fill:#85bab5;}.cls-5{stroke-width:2px;}.cls-6{fill:#fff;}</style></defs><title>paymentplan</title><g id="图层_2" data-name="图层 2"><g id="Layer_1" data-name="Layer 1"><rect class="cls-1" x="82.93" y="11.27" width="15.6" height="4"/><rect class="cls-2" x="38.44" y="2" width="104.6" height="178.94" rx="12.72"/><path class="cls-1" d="M130.32,183H55.38v-4h74.94A10.72,10.72,0,0,0,141,168.23V14.72A10.72,10.72,0,0,0,130.32,4H51.16A10.73,10.73,0,0,0,40.44,14.72v101h-4v-101A14.73,14.73,0,0,1,51.16,0h79.16A14.73,14.73,0,0,1,145,14.72V168.23A14.74,14.74,0,0,1,130.32,183Z"/><rect class="cls-3" x="52.57" y="22.03" width="76.33" height="128.05"/><path class="cls-4" d="M102.27,93.65c0,5.06-3.57,8.62-9.6,9.1v6H89.36V102.7a17.27,17.27,0,0,1-10.15-4.86l2.59-3.1a14.08,14.08,0,0,0,9.57,4.11c3.65,0,6.37-1.81,6.37-4.94,0-3.56-2.86-4.75-7.44-6.17C84.87,86,79.93,84.3,79.93,78.39c0-4.82,3.37-8.48,9.43-8.77V63.34h3.31v6.49a20.41,20.41,0,0,1,8.46,3.61l-2.5,3.08a15.37,15.37,0,0,0-8.35-2.93c-3.47,0-5.89,1.62-5.89,4.53,0,3.1,3,4.24,7.15,5.59,6.1,1.94,10.73,3.57,10.73,9.94Z"/><path class="cls-1" d="M97.12,172.64H84.35a7.75,7.75,0,0,1,0-15.5H97.12a7.75,7.75,0,0,1,0,15.5Zm-12.77-11.5a3.75,3.75,0,0,0,0,7.5H97.12a3.75,3.75,0,0,0,0-7.5Z"/><circle class="cls-4" cx="36.92" cy="151.65" r="34.12"/><path class="cls-5" d="M36.92,187.57a35.93,35.93,0,1,1,35.92-35.92A36,36,0,0,1,36.92,187.57Zm0-70.1A34.18,34.18,0,1,0,71.1,151.65,34.21,34.21,0,0,0,36.92,117.47Z"/><path class="cls-6" d="M34.48,168.75a1.51,1.51,0,0,1-1-.36L17.57,154.91a1.51,1.51,0,0,1-.22-2L18,152a1.51,1.51,0,0,1,2.16-.24l13.79,11.67,21.42-25.32a1.48,1.48,0,0,1,1.06-.53,1.45,1.45,0,0,1,1.12.41l1,.94a1.49,1.49,0,0,1,.11,2.06l-23,27.21a1.51,1.51,0,0,1-1,.52Z"/></g></g></svg>