<svg width="82" height="69" viewBox="0 0 82 69" fill="none" xmlns="http://www.w3.org/2000/svg">
<path d="M78.2272 13.9387H19.5119C17.8539 13.9387 16.5098 15.2828 16.5098 16.9408V50.493C16.5098 52.151 17.8539 53.4951 19.5119 53.4951H78.2272C79.8852 53.4951 81.2293 52.151 81.2293 50.493V16.9408C81.2293 15.2828 79.8852 13.9387 78.2272 13.9387Z" fill="#81BCB8"/>
<path d="M78.2312 54.2618H19.5121C18.5135 54.2608 17.556 53.8639 16.8495 53.1581C16.143 52.4524 15.7452 51.4953 15.7432 50.4967V16.9407C15.7452 15.9424 16.1432 14.9858 16.8498 14.2806C17.5563 13.5755 18.5138 13.1794 19.5121 13.1794H78.2312C79.2302 13.1794 80.1882 13.576 80.8949 14.282C81.6016 14.988 81.9991 15.9456 82.0002 16.9445V50.5005C81.9971 51.4985 81.5988 52.4545 80.8924 53.1595C80.1861 53.8644 79.2292 54.2608 78.2312 54.2618ZM19.5121 14.7131C18.9199 14.7131 18.3519 14.9481 17.9329 15.3664C17.5138 15.7848 17.2778 16.3524 17.2768 16.9445V50.5005C17.2778 51.0927 17.5138 51.6603 17.9329 52.0786C18.3519 52.497 18.9199 52.732 19.5121 52.732H78.2312C78.8234 52.732 79.3914 52.497 79.8105 52.0786C80.2296 51.6603 80.4655 51.0927 80.4665 50.5005V16.9407C80.4645 16.3492 80.2281 15.7826 79.8091 15.3651C79.3901 14.9475 78.8228 14.7131 78.2312 14.7131H19.5121Z" fill="#495057"/>
<path d="M54.9124 53.4946H42.8311L39.9441 63.4633C39.8143 63.9103 39.7904 64.3814 39.8742 64.8392C39.9581 65.2971 40.1474 65.7291 40.4272 66.1011C40.7069 66.4732 41.0694 66.7749 41.486 66.9826C41.9026 67.1902 42.3618 67.298 42.8273 67.2974H54.9162C55.3817 67.298 55.8409 67.1902 56.2575 66.9826C56.6741 66.7749 57.0366 66.4732 57.3163 66.1011C57.5961 65.7291 57.7854 65.2971 57.8692 64.8392C57.9531 64.3814 57.9292 63.9103 57.7994 63.4633L54.9124 53.4946Z" fill="#81BCB8"/>
<path d="M54.9158 68.0797H42.8269C42.2428 68.0802 41.6666 67.9447 41.1439 67.684C40.6213 67.4234 40.1664 67.0447 39.8153 66.5779C39.4642 66.1112 39.2265 65.5691 39.121 64.9946C39.0155 64.4201 39.0451 63.829 39.2075 63.268L42.2748 52.728H55.5062L58.5735 63.268C58.7359 63.829 58.7655 64.4201 58.66 64.9946C58.5545 65.5691 58.3169 66.1112 57.9658 66.5779C57.6147 67.0447 57.1598 67.4234 56.6371 67.684C56.1144 67.9447 55.5382 68.0802 54.9541 68.0797H54.9158ZM43.4135 54.277L40.6836 63.7089C40.5872 64.0416 40.5696 64.3922 40.6321 64.7329C40.6947 65.0737 40.8357 65.3952 41.044 65.6719C41.2524 65.9487 41.5223 66.1732 41.8324 66.3276C42.1425 66.482 42.4843 66.562 42.8307 66.5614H54.9196C55.266 66.562 55.6078 66.482 55.918 66.3276C56.2281 66.1732 56.498 65.9487 56.7063 65.6719C56.9146 65.3952 57.0557 65.0737 57.1182 64.7329C57.1808 64.3922 57.1631 64.0416 57.0667 63.7089L54.3407 54.277H43.4135Z" fill="#495057"/>
<path d="M65.4061 66.5461H32.3408V68.0798H65.4061V66.5461Z" fill="#495057"/>
<path d="M76.3141 18.6812H21.3447V47.2183H76.3141V18.6812Z" fill="white"/>
<path d="M34.5608 41.1951L33.5908 40.0065L45.2656 30.4903L50.9708 36.368L62.8066 26.499L63.7882 27.6761L50.8596 38.4576L45.143 32.5684L34.5608 41.1951Z" fill="#495057"/>
<path d="M64.0638 33.5576H62.5302V27.7758H56.0391V26.2422H64.0638V33.5576Z" fill="#495057"/>
<path d="M35.534 24.0765C37.4889 15.7938 32.3592 7.49459 24.0765 5.5397C15.7938 3.5848 7.49455 8.71451 5.53965 16.9972C3.58476 25.2799 8.71446 33.5791 16.9972 35.534C25.2799 37.4889 33.5791 32.3592 35.534 24.0765Z" fill="#FF9ECC" stroke="#495057" stroke-width="2" stroke-miterlimit="10"/>
<path d="M32.3277 24.3676C34.4428 17.8544 30.8773 10.8598 24.3641 8.74478C17.8508 6.62975 10.8562 10.1952 8.74121 16.7085C6.62619 23.2217 10.1916 30.2163 16.7049 32.3313C23.2181 34.4463 30.2127 30.8809 32.3277 24.3676Z" fill="white"/>
<path d="M21.8048 20.5369C21.8048 20.7879 21.7303 21.0333 21.5909 21.242C21.4514 21.4507 21.2532 21.6133 21.0213 21.7094C20.7895 21.8054 20.5343 21.8306 20.2881 21.7816C20.0419 21.7326 19.8158 21.6118 19.6383 21.4343C19.4608 21.2568 19.34 21.0307 19.291 20.7845C19.242 20.5383 19.2672 20.2831 19.3632 20.0512C19.4593 19.8194 19.6219 19.6212 19.8306 19.4817C20.0393 19.3423 20.2847 19.2678 20.5357 19.2678C20.7023 19.2678 20.8674 19.3006 21.0213 19.3644C21.1753 19.4282 21.3152 19.5217 21.4331 19.6395C21.5509 19.7574 21.6444 19.8973 21.7082 20.0512C21.7719 20.2052 21.8048 20.3702 21.8048 20.5369Z" fill="#495057"/>
<path d="M20.8059 20.4273L20.2637 20.9695L26.5101 27.2159L27.0523 26.6737L20.8059 20.4273Z" fill="#495057"/>
<path d="M20.5315 20.1536H13.2007V20.9204H20.5315V20.1536Z" fill="#495057"/>
<path d="M20.9192 9.36816H20.1523V10.6718H20.9192V9.36816Z" fill="#495057"/>
<path d="M20.9192 30.5554H20.1523V31.859H20.9192V30.5554Z" fill="#495057"/>
<path d="M31.7811 20.2302H30.4775V20.997H31.7811V20.2302Z" fill="#495057"/>
<path d="M10.5936 20.2302H9.29004V20.997H10.5936V20.2302Z" fill="#495057"/>
<path d="M20.5353 36.3297C17.4118 36.3297 14.3585 35.4034 11.7614 33.6681C9.16432 31.9328 7.14013 29.4663 5.94483 26.5806C4.74952 23.6949 4.43677 20.5195 5.04613 17.456C5.6555 14.3926 7.1596 11.5786 9.36824 9.36995C11.5769 7.16131 14.3909 5.65721 17.4543 5.04784C20.5178 4.43848 23.6932 4.75123 26.5789 5.94653C29.4646 7.14184 31.9311 9.16602 33.6664 11.7631C35.4017 14.3602 36.328 17.4135 36.328 20.537C36.3229 24.7239 34.6574 28.7379 31.6968 31.6985C28.7362 34.6591 24.7222 36.3246 20.5353 36.3297ZM20.5353 5.51121C17.5635 5.51121 14.6584 6.39246 12.1874 8.04352C9.71644 9.69458 7.79054 12.0413 6.65327 14.7869C5.51601 17.5325 5.21844 20.5537 5.79822 23.4684C6.37799 26.3831 7.80906 29.0605 9.91046 31.1619C12.0119 33.2633 14.6892 34.6944 17.6039 35.2741C20.5187 35.8539 23.5398 35.5563 26.2855 34.4191C29.0311 33.2818 31.3778 31.3559 33.0288 28.8849C34.6799 26.4139 35.5611 23.5089 35.5611 20.537C35.5571 16.5532 33.9727 12.7337 31.1557 9.91666C28.3387 7.09965 24.5192 5.51527 20.5353 5.51121Z" fill="#495057"/>
</svg>
