<svg width="80" height="81" viewBox="0 0 80 81" fill="none" xmlns="http://www.w3.org/2000/svg">
<path d="M58.4695 63.1746V63.3079L60.7284 66.663L60.3117 67.5549H20.9971V63.1746C19.7358 62.1883 18.1805 61.6528 16.5793 61.6533H10.0859V41.2855H18.0047C18.9046 41.2884 19.7932 41.0839 20.6013 40.6878C21.4094 40.2917 22.1153 39.7147 22.6643 39.0015C23.2091 38.2858 23.912 37.7057 24.7182 37.3067C25.5243 36.9076 26.4118 36.7003 27.3113 36.7009H52.147C53.0483 36.7002 53.9376 36.9075 54.7458 37.3065C55.5539 37.7055 56.2591 38.2855 56.8066 39.0015C57.3514 39.7186 58.0548 40.2998 58.8618 40.6996C59.6687 41.0995 60.5572 41.3071 61.4578 41.3063H69.3766V61.67H62.8873C61.2897 61.6663 59.7364 62.1958 58.4737 63.1746H58.4695Z" fill="#F8F9FA"/>
<path d="M60.8494 68.3842H20.1636V63.5912C19.1069 62.8711 17.8582 62.4849 16.5794 62.4826H9.25244V40.4518H18.0047C18.7758 40.4489 19.5361 40.2697 20.2273 39.9281C20.9186 39.5864 21.5226 39.0913 21.9933 38.4805C22.6182 37.6638 23.4223 37.0016 24.3436 36.5449C25.265 36.0882 26.2789 35.8493 27.3072 35.8464H52.1429C53.1713 35.8497 54.1853 36.0884 55.1071 36.5443C56.0289 37.0001 56.8341 37.661 57.461 38.4763C57.9301 39.089 58.5337 39.5858 59.2253 39.9283C59.9168 40.2708 60.6778 40.4499 61.4495 40.4518H70.2018V62.4826H62.8874C61.7103 62.4826 60.5563 62.8087 59.5532 63.4245L61.6787 66.5795L60.8494 68.3842ZM21.8349 66.7171H59.7616L57.636 63.5579V62.7577L57.9653 62.5076C59.3766 61.4232 61.1075 60.8369 62.8874 60.8405H68.5514V42.1189H61.4662C60.4383 42.116 59.4249 41.8774 58.5036 41.4215C57.5824 40.9656 56.778 40.3045 56.1523 39.4891C55.6818 38.8767 55.0774 38.3803 54.3853 38.0378C53.6931 37.6954 52.9318 37.516 52.1596 37.5135H27.3155C26.5464 37.5175 25.7883 37.6971 25.0992 38.0388C24.4101 38.3804 23.8082 38.8751 23.3395 39.4849C22.7129 40.3007 21.9078 40.9622 20.986 41.4188C20.0642 41.8754 19.0501 42.1149 18.0214 42.1189H10.9362V60.8155H16.5794C18.3658 60.8169 20.1007 61.4138 21.5098 62.5118L21.8308 62.7619L21.8349 66.7171Z" fill="#495057"/>
<path d="M69.3848 41.2853V61.649H62.8872C61.2871 61.6512 59.7336 62.1881 58.4736 63.1744V63.3078L46.0995 44.9279H41.069L40.7814 45.6406C39.9575 47.5631 38.5876 49.2015 36.8414 50.3528C35.0952 51.504 33.0495 52.1176 30.958 52.1173H29.4409L33.9213 41.0853C33.9198 41.0742 33.9198 41.063 33.9213 41.0519L33.9796 40.9061C34.4916 39.6547 35.365 38.5842 36.4881 37.8315C37.6113 37.0788 38.9334 36.6778 40.2854 36.6799H52.1511C53.0534 36.6823 53.943 36.8931 54.7505 37.2957C55.558 37.6984 56.2616 38.2821 56.8065 39.0014C57.3513 39.7184 58.0547 40.2996 58.8617 40.6995C59.6686 41.0993 60.5571 41.307 61.4577 41.3062L69.3848 41.2853Z" fill="white"/>
<path d="M59.303 66.0335L45.6536 45.7574H41.6317L41.5566 45.9491C40.6712 48.0265 39.1942 49.7976 37.3097 51.0418C35.4251 52.2861 33.2163 52.9486 30.958 52.9468H28.2031L33.1961 40.6685C33.8033 39.2394 34.8173 38.0204 36.1118 37.163C37.4064 36.3057 38.9245 35.8478 40.4772 35.8464H52.1469C53.1753 35.8497 54.1893 36.0884 55.1111 36.5443C56.033 37.0001 56.8382 37.661 57.465 38.4763C57.9342 39.089 58.5378 39.5858 59.2293 39.9283C59.9209 40.2708 60.6818 40.4499 61.4535 40.4518H70.2059V62.4826H62.8873C61.6084 62.4849 60.3598 62.8711 59.303 63.5912V66.0335ZM40.5064 44.0903H46.5413L58.6278 62.0408C59.9048 61.2414 61.3807 60.8168 62.8873 60.8155H68.5513V42.1189H61.466C60.4382 42.116 59.4247 41.8774 58.5035 41.4215C57.5823 40.9656 56.7779 40.3045 56.1522 39.4891C55.6817 38.8767 55.0772 38.3803 54.3851 38.0378C53.693 37.6954 52.9316 37.516 52.1594 37.5135H40.4897C39.256 37.5095 38.049 37.8722 37.0219 38.5557C35.9949 39.2392 35.1942 40.2125 34.7215 41.3521L34.684 41.4312L30.6913 51.2797H30.9705C32.896 51.2784 34.7788 50.7123 36.3856 49.6514C37.9925 48.5905 39.2528 47.0816 40.0104 45.3114L40.5064 44.0903Z" fill="#495057"/>
<path d="M48.592 61.7532L54.2018 70.0512C54.4706 70.4496 54.6583 70.8971 54.7541 71.3681C54.8499 71.839 54.852 72.3243 54.7603 72.7961C54.6686 73.2678 54.4848 73.7169 54.2195 74.1177C53.9542 74.5184 53.6125 74.863 53.214 75.1317C52.4107 75.674 51.425 75.8755 50.4733 75.6919C49.5216 75.5083 48.6816 74.9545 48.1377 74.1523L42.5112 65.8501L48.592 61.7532Z" fill="#F8F9FA"/>
<path d="M55.4061 58.769L60.6825 66.5753C60.9512 66.9734 61.1388 67.4205 61.2346 67.8912C61.3303 68.3618 61.3324 68.8467 61.2407 69.3181C61.1489 69.7896 60.9652 70.2383 60.6999 70.6387C60.4347 71.0391 60.0931 71.3833 59.6947 71.6516C59.2974 71.9209 58.8509 72.1093 58.3807 72.206C57.9106 72.3027 57.426 72.3059 56.9546 72.2153C56.4832 72.1248 56.0343 71.9423 55.6334 71.6782C55.2326 71.4141 54.8877 71.0737 54.6184 70.6763L49.3462 62.866L55.4061 58.769Z" fill="#F8F9FA"/>
<path d="M51.1761 76.5948C50.8879 76.5941 50.6005 76.5662 50.3176 76.5115C49.738 76.402 49.186 76.1783 48.6938 75.8535C48.2015 75.5286 47.7787 75.1091 47.4501 74.6193L41.8403 66.3171L43.2199 65.3835L48.8297 73.6857C49.2492 74.3052 49.8976 74.7326 50.6323 74.8741C51.367 75.0156 52.1278 74.8594 52.7474 74.4401C53.3684 74.021 53.7977 73.3725 53.9407 72.6371C54.0837 71.9016 53.9288 71.1395 53.5101 70.5182L47.9003 62.2202L49.284 61.2866L54.8938 69.5846C55.2254 70.0745 55.4571 70.625 55.5757 71.2046C55.6942 71.7841 55.6972 72.3814 55.5845 72.9621C55.4719 73.5429 55.2457 74.0957 54.9191 74.5889C54.5924 75.0821 54.1717 75.506 53.6809 75.8363C52.9409 76.3344 52.0682 76.5987 51.1761 76.5948Z" fill="#495057"/>
<path d="M42.1156 65.2583L47.2336 72.8311C48.263 74.3565 47.7421 76.5113 46.0708 77.6407C44.4037 78.7744 42.2031 78.4534 41.1737 76.928L36.0557 69.3469L42.1156 65.2583Z" fill="white"/>
<path d="M43.903 79.1453C43.6869 79.1446 43.4711 79.1293 43.257 79.0995C42.6997 79.0259 42.1642 78.8353 41.6858 78.54C41.2075 78.2448 40.7969 77.8517 40.4813 77.3865L35.3633 69.8137L36.747 68.8801L41.8608 76.4529C42.0481 76.7251 42.2909 76.9546 42.5732 77.1262C42.8555 77.2979 43.1709 77.4079 43.4988 77.449C44.2324 77.5433 44.9749 77.3621 45.5826 76.9406C46.8705 76.0695 47.2914 74.4399 46.5204 73.2896L41.4274 65.7168L42.8069 64.7832L47.9291 72.3435C49.2128 74.2482 48.5918 76.9281 46.5412 78.3118C45.765 78.8473 44.846 79.1376 43.903 79.1453Z" fill="#495057"/>
<path d="M57.6567 73.1186C57.3685 73.1179 57.081 73.09 56.7981 73.0353C56.2189 72.9249 55.6672 72.7009 55.1751 72.3761C54.6829 72.0513 54.26 71.6323 53.9307 71.1431L48.6543 63.3369L50.0338 62.3992L55.3102 70.2095C55.7298 70.829 56.3782 71.2565 57.1129 71.3979C57.8475 71.5394 58.6083 71.3833 59.2279 70.9639C59.8481 70.5441 60.2766 69.8957 60.4196 69.1606C60.5625 68.4254 60.4083 67.6636 59.9906 67.042L54.7142 59.2358L56.0979 58.3022L61.3743 66.0918C61.706 66.5817 61.9377 67.1321 62.0562 67.7117C62.1748 68.2913 62.1778 68.8885 62.0651 69.4693C61.9524 70.05 61.7263 70.6028 61.3997 71.096C61.073 71.5892 60.6523 72.0131 60.1615 72.3434C59.4233 72.8475 58.5505 73.1176 57.6567 73.1186Z" fill="#495057"/>
<path d="M19.0881 67.084C18.7865 66.707 18.5625 66.2741 18.4289 65.8102C18.2954 65.3463 18.255 64.8605 18.31 64.3809C18.365 63.9013 18.5143 63.4373 18.7495 63.0157C18.9846 62.5941 19.3008 62.2231 19.6799 61.9243L20.4218 61.3449C20.7975 61.0434 21.2291 60.8192 21.6918 60.685C22.1545 60.5509 22.6392 60.5096 23.1179 60.5634C23.5966 60.6173 24.06 60.7652 24.4814 60.9988C24.9027 61.2323 25.2737 61.5468 25.5731 61.9243C26.1752 62.6849 26.4507 63.6534 26.3389 64.6171C26.2272 65.5807 25.7373 66.4605 24.9771 67.0631L24.2186 67.6591C23.4619 68.2631 22.4964 68.5418 21.5342 68.4339C20.5721 68.3261 19.6922 67.8405 19.0881 67.084Z" fill="white"/>
<path d="M25.9025 70.6139C25.3004 69.8533 25.0249 68.8847 25.1367 67.9211C25.2484 66.9574 25.7383 66.0776 26.4985 65.475L30.1244 62.6034C30.8855 62.0024 31.8537 61.7276 32.817 61.8393C33.7803 61.9511 34.66 62.4402 35.2633 63.1994C35.8654 63.96 36.1408 64.9286 36.0291 65.8922C35.9173 66.8558 35.4275 67.7357 34.6673 68.3383L31.0372 71.2099C30.6611 71.5084 30.2298 71.7298 29.7681 71.8615C29.3063 71.9931 28.8231 72.0324 28.3462 71.977C27.8692 71.9217 27.4079 71.7728 26.9886 71.5389C26.5692 71.3049 26.2002 70.9906 25.9025 70.6139Z" fill="white"/>
<path d="M39.0851 78.7787C38.483 78.0181 38.2075 77.0495 38.3193 76.0859C38.4311 75.1222 38.9209 74.2424 39.6811 73.6398L43.307 70.7682C44.0681 70.1672 45.0363 69.8924 45.9996 70.0041C46.9629 70.1159 47.8426 70.605 48.4459 71.3642C48.7453 71.7411 48.9674 72.1733 49.0996 72.6361C49.2317 73.099 49.2712 73.5833 49.2158 74.0615C49.1605 74.5396 49.0113 75.0021 48.7769 75.4225C48.5425 75.8429 48.2275 76.2129 47.8499 76.5114L44.2239 79.383C43.4623 79.9842 42.4931 80.2582 41.5294 80.1449C40.5657 80.0316 39.6865 79.5401 39.0851 78.7787Z" fill="white"/>
<path d="M32.2584 74.8442C31.6563 74.0836 31.3809 73.115 31.4926 72.1514C31.6044 71.1878 32.0942 70.308 32.8544 69.7054L37.4723 66.0461C38.2332 65.4457 39.2011 65.1718 40.1638 65.2843C41.1264 65.3968 42.0051 65.8866 42.607 66.6462C43.2091 67.4068 43.4845 68.3754 43.3728 69.339C43.261 70.3026 42.7712 71.1825 42.011 71.7851L37.3931 75.4402C36.6328 76.041 35.6651 76.3157 34.7025 76.2039C33.7399 76.0922 32.861 75.6032 32.2584 74.8442Z" fill="white"/>
<path d="M21.9559 69.3052C21.0235 69.304 20.1147 69.0128 19.3552 68.4719C18.5958 67.931 18.0235 67.1673 17.7175 66.2866C17.4116 65.4059 17.3872 64.4518 17.6478 63.5566C17.9084 62.6614 18.441 61.8695 19.1718 61.2906L19.9178 60.6737C20.7121 60.0466 21.6941 59.7046 22.7061 59.7026C23.6391 59.7021 24.5492 59.9921 25.31 60.5323C26.0707 61.0725 26.6444 61.8362 26.9514 62.7173C27.2584 63.5984 27.2834 64.5532 27.0231 65.4492C26.7627 66.3452 26.2299 67.1379 25.4985 67.7172L24.74 68.3174C23.9493 68.9502 22.9685 69.2982 21.9559 69.3052ZM22.7061 61.3864C22.0698 61.3849 21.4521 61.6011 20.9556 61.9991L20.1971 62.5951C19.6096 63.0604 19.231 63.7401 19.1446 64.4846C19.0583 65.2291 19.2712 65.9774 19.7366 66.5649C20.2019 67.1524 20.8816 67.5309 21.6261 67.6173C22.3705 67.7037 23.1188 67.4908 23.7063 67.0254L24.4607 66.4294C24.9215 66.0654 25.2574 65.5668 25.4218 65.003C25.5861 64.4392 25.5708 63.8382 25.3778 63.2836C25.1848 62.7289 24.8238 62.2482 24.345 61.9082C23.8662 61.5682 23.2933 61.3858 22.7061 61.3864Z" fill="#495057"/>
<path d="M28.7576 72.8354C27.8247 72.8345 26.9151 72.5436 26.155 72.0028C25.3948 71.462 24.8216 70.6983 24.5148 69.8173C24.208 68.9362 24.1828 67.9816 24.4426 67.0857C24.7025 66.1897 25.2346 65.3967 25.9652 64.8166L29.5911 61.945C30.5279 61.2033 31.721 60.8641 32.9079 61.0021C34.0947 61.14 35.1782 61.7438 35.9199 62.6806C36.6616 63.6174 37.0008 64.8105 36.8628 65.9973C36.7249 67.1842 36.1211 68.2677 35.1843 69.0094L31.5583 71.8809C30.7585 72.5047 29.7719 72.8409 28.7576 72.8354ZM32.3794 62.6452C31.7435 62.6422 31.1258 62.8569 30.6289 63.2537L26.9988 66.1253C26.7079 66.3557 26.4652 66.6411 26.2846 66.9653C26.1041 67.2895 25.9891 67.6461 25.9463 68.0148C25.9036 68.3834 25.9338 68.7568 26.0354 69.1138C26.137 69.4707 26.3078 69.8042 26.5382 70.0951C26.7687 70.386 27.0541 70.6286 27.3783 70.8092C27.7025 70.9898 28.0591 71.1047 28.4278 71.1475C28.7964 71.1903 29.1698 71.16 29.5268 71.0584C29.8837 70.9569 30.2171 70.786 30.508 70.5556L34.134 67.684C34.5931 67.3195 34.9275 66.8212 35.0908 66.2582C35.2542 65.6952 35.2383 65.0953 35.0456 64.5417C34.8528 63.988 34.4926 63.5081 34.0149 63.1683C33.5372 62.8285 32.9656 62.6457 32.3794 62.6452Z" fill="#495057"/>
<path d="M41.9571 81C41.0251 80.998 40.1168 80.7062 39.3581 80.165C38.5993 79.6238 38.0276 78.86 37.7222 77.9795C37.4168 77.099 37.3928 76.1453 37.6535 75.2505C37.9141 74.3557 38.4467 73.5641 39.1772 72.9854L42.8032 70.1138C43.7361 69.3744 44.9246 69.0358 46.1071 69.1726C47.2897 69.3093 48.3695 69.9103 49.109 70.8432V70.8724C49.8407 71.8062 50.1725 72.9918 50.0319 74.1698C49.8913 75.3478 49.2897 76.422 48.3588 77.1574L44.7328 80.0289C43.9419 80.6534 42.9648 80.9953 41.9571 81ZM45.5747 70.8099C44.9389 70.8068 44.3211 71.0216 43.8243 71.4183L40.1983 74.2899C39.612 74.7556 39.2341 75.4346 39.1474 76.1782C39.0607 76.9219 39.2722 77.6696 39.7357 78.2576C40.0001 78.5937 40.3375 78.8652 40.7224 79.0515C41.1073 79.2378 41.5295 79.334 41.9571 79.3329C42.5934 79.3344 43.2111 79.1182 43.7076 78.7203L47.3335 75.8487C47.9201 75.3831 48.2979 74.7037 48.3839 73.9597C48.4698 73.2157 48.2569 72.4681 47.792 71.881C47.528 71.5458 47.1911 71.2751 46.807 71.0895C46.4228 70.9039 46.0014 70.8083 45.5747 70.8099Z" fill="#495057"/>
<path d="M35.1297 77.0781C34.1967 77.0787 33.2866 76.7887 32.5259 76.2485C31.7651 75.7082 31.1914 74.9446 30.8844 74.0635C30.5774 73.1824 30.5524 72.2275 30.8127 71.3316C31.0731 70.4356 31.606 69.6429 32.3373 69.0635L36.9511 65.4084C37.8847 64.6687 39.0738 64.33 40.257 64.4667C41.4403 64.6035 42.5208 65.2045 43.2611 66.1377C44.001 67.072 44.3398 68.2618 44.203 69.4457C44.0663 70.6297 43.4651 71.7109 42.5317 72.4519L37.9263 76.0945C37.1314 76.7279 36.1461 77.0744 35.1297 77.0781ZM39.7393 66.0919C39.1038 66.0909 38.4867 66.3054 37.9888 66.7004L33.3709 70.3555C32.7829 70.8209 32.4038 71.5008 32.317 72.2456C32.2303 72.9905 32.443 73.7393 32.9083 74.3274C33.3737 74.9154 34.0536 75.2945 34.7985 75.3813C35.5433 75.4681 36.2922 75.2554 36.8802 74.79L41.4939 71.1307C41.953 70.7662 42.2874 70.2679 42.4508 69.7049C42.6141 69.1419 42.5983 68.542 42.4055 67.9884C42.2127 67.4347 41.8525 66.9548 41.3748 66.615C40.8971 66.2752 40.3255 66.0924 39.7393 66.0919Z" fill="#495057"/>
<path d="M10.0859 37.9553H0.833496V64.6915H10.0859V37.9553Z" fill="#81BCB8"/>
<path d="M10.9195 65.5251H0V37.1218H10.9195V65.5251ZM1.66711 63.858H9.25244V38.7889H1.66711V63.858Z" fill="#495057"/>
<path d="M78.6372 37.9553H69.3848V64.6915H78.6372V37.9553Z" fill="#81BCB8"/>
<path d="M79.4708 65.5251H68.5513V37.1218H79.4708V65.5251ZM70.2184 63.858H77.8037V38.7889H70.2184V63.858Z" fill="#495057"/>
<path d="M47.6833 2.53348C46.772 2.53056 45.8692 2.70845 45.0272 3.05685C44.1852 3.40526 43.4206 3.91725 42.7778 4.56318L40.248 7.09302C40.1113 7.22918 39.9262 7.30563 39.7333 7.30563C39.5403 7.30563 39.3553 7.22918 39.2186 7.09302L36.6762 4.56318C35.3597 3.34602 33.6228 2.68606 31.8302 2.72179C30.0375 2.75752 28.3284 3.48615 27.0613 4.7548C25.7943 6.02346 25.0679 7.73354 25.0344 9.52623C25.001 11.3189 25.6631 13.0549 26.882 14.3699L39.7354 27.2233L52.5846 14.3699C53.5534 13.4001 54.2131 12.1648 54.4803 10.8202C54.7474 9.47559 54.6101 8.08197 54.0856 6.81537C53.5612 5.54878 52.6731 4.46604 51.5335 3.70393C50.394 2.94181 49.0542 2.53451 47.6833 2.53348Z" fill="#FF9ECC" stroke="#495057" stroke-width="4" stroke-miterlimit="10"/>
<path d="M53.6184 15.4036L40.2482 28.7696C40.1811 28.838 40.101 28.8924 40.0126 28.9295C39.9243 28.9666 39.8294 28.9857 39.7335 28.9857C39.6377 28.9857 39.5428 28.9666 39.4544 28.9295C39.366 28.8924 39.2859 28.838 39.2188 28.7696L25.8403 15.4036C24.2662 13.8279 23.3826 11.6914 23.3838 9.46424C23.385 7.23705 24.2708 5.10155 25.8465 3.52752C27.4222 1.95349 29.5587 1.06986 31.7858 1.07103C34.013 1.07221 36.1485 1.95808 37.7226 3.53377L39.7356 5.5468L41.7486 3.53377C42.5244 2.73819 43.4504 2.10457 44.473 1.66965C45.4955 1.23473 46.5943 1.00717 47.7054 1.00017C48.8166 0.993166 49.9181 1.20686 50.9461 1.62887C51.974 2.05087 52.9079 2.67277 53.6937 3.45851C54.4794 4.24425 55.1013 5.17818 55.5233 6.20612C55.9453 7.23407 56.159 8.33558 56.152 9.44676C56.145 10.5579 55.9175 11.6567 55.4825 12.6792C55.0476 13.7018 54.414 14.6278 53.6184 15.4036Z" fill="#FF9ECC" stroke="#495057" stroke-width="1.5" stroke-miterlimit="10"/>
</svg>
