<svg width="200" height="200" viewBox="0 0 200 200" fill="none" xmlns="http://www.w3.org/2000/svg">
<rect width="200" height="200" rx="5" fill="#27272B"/>
<line x1="65" y1="131.885" x2="131.885" y2="65.0001" stroke="#C4C4C4" stroke-width="3" stroke-linecap="round"/>
<path d="M81.8828 171.16H89.9688V173H79.6211V155.938H81.8828V171.16ZM94.5508 173H92.3828V160.32H94.5508V173ZM92.207 156.957C92.207 156.605 92.3125 156.309 92.5234 156.066C92.7422 155.824 93.0625 155.703 93.4844 155.703C93.9062 155.703 94.2266 155.824 94.4453 156.066C94.6641 156.309 94.7734 156.605 94.7734 156.957C94.7734 157.309 94.6641 157.602 94.4453 157.836C94.2266 158.07 93.9062 158.188 93.4844 158.188C93.0625 158.188 92.7422 158.07 92.5234 157.836C92.3125 157.602 92.207 157.309 92.207 156.957ZM100.082 160.32L100.152 161.914C101.121 160.695 102.387 160.086 103.949 160.086C106.629 160.086 107.98 161.598 108.004 164.621V173H105.836V164.609C105.828 163.695 105.617 163.02 105.203 162.582C104.797 162.145 104.16 161.926 103.293 161.926C102.59 161.926 101.973 162.113 101.441 162.488C100.91 162.863 100.496 163.355 100.199 163.965V173H98.0312V160.32H100.082ZM116.535 173.234C114.816 173.234 113.418 172.672 112.34 171.547C111.262 170.414 110.723 168.902 110.723 167.012V166.613C110.723 165.355 110.961 164.234 111.438 163.25C111.922 162.258 112.594 161.484 113.453 160.93C114.32 160.367 115.258 160.086 116.266 160.086C117.914 160.086 119.195 160.629 120.109 161.715C121.023 162.801 121.48 164.355 121.48 166.379V167.281H112.891C112.922 168.531 113.285 169.543 113.98 170.316C114.684 171.082 115.574 171.465 116.652 171.465C117.418 171.465 118.066 171.309 118.598 170.996C119.129 170.684 119.594 170.27 119.992 169.754L121.316 170.785C120.254 172.418 118.66 173.234 116.535 173.234ZM116.266 161.867C115.391 161.867 114.656 162.188 114.062 162.828C113.469 163.461 113.102 164.352 112.961 165.5H119.312V165.336C119.25 164.234 118.953 163.383 118.422 162.781C117.891 162.172 117.172 161.867 116.266 161.867Z" fill="white"/>
</svg>
