<svg xmlns="http://www.w3.org/2000/svg" viewBox="0 0 298.09 100"><defs><style>.cls-1{fill:#e16590;}.cls-2{fill:#f1a0c3;}.cls-3{fill:#00756c;}.cls-4{fill:#fff;}</style></defs><title>logo</title><g id="图层_2" data-name="图层 2"><g id="Layer_1" data-name="Layer 1"><path class="cls-1" d="M45,0H30V20H50V5A5,5,0,0,0,45,0Z"/><path class="cls-2" d="M20,0a10,10,0,0,0,0,20H30V0Z"/><path class="cls-2" d="M30,30a10,10,0,0,0,20,0V20H30Z"/><path class="cls-3" d="M40,44.94a10,10,0,0,0-10,10V80H10a10,10,0,0,0,0,20H40A10,10,0,0,0,50,90V54.94A10,10,0,0,0,40,44.94Z"/><path class="cls-4" d="M75.18,74.48a15.09,15.09,0,0,0,3.68-6A29.86,29.86,0,0,0,79.94,63a81.87,81.87,0,0,0,.36-8.68V20.59l-6.12-1v-5H98.3v5l-5.69.94V48.24q0,7.34-.22,11.88A34.12,34.12,0,0,1,91.53,67a19.28,19.28,0,0,1-6.48,9.79A25.43,25.43,0,0,1,72.74,82L70,77.83A13.84,13.84,0,0,0,75.18,74.48Z"/><path class="cls-4" d="M108.34,46.8q6.43-3.39,17-3.46V41.9a11.86,11.86,0,0,0-.58-4.1,4.11,4.11,0,0,0-2.09-2.27,10.23,10.23,0,0,0-4.46-.76,22,22,0,0,0-6.3.83,44.9,44.9,0,0,0-5.8,2.2l-2.45-5.19a23.47,23.47,0,0,1,3.75-2.27,31.92,31.92,0,0,1,6.22-2.3,29.27,29.27,0,0,1,7.6-1,22,22,0,0,1,9,1.51,9.13,9.13,0,0,1,4.68,4.68,21.85,21.85,0,0,1,1.4,8.64V63.28h3.74v4.54c-1.1.24-2.64.48-4.6.72a42.67,42.67,0,0,1-5,.36c-1.83,0-3-.26-3.64-.79s-.9-1.59-.9-3.17V63.28a17.08,17.08,0,0,1-4.82,3.86,14.18,14.18,0,0,1-7,1.69,12.79,12.79,0,0,1-6.15-1.48,11,11,0,0,1-4.4-4.25,12.79,12.79,0,0,1-1.62-6.58Q101.89,50.18,108.34,46.8Zm14.22,14.65a11,11,0,0,0,2.74-1.84V48.16c-3.75,0-6.52.68-8.32,2a6.19,6.19,0,0,0-2.7,5.18,7.87,7.87,0,0,0,1.44,5,4.79,4.79,0,0,0,4,1.8A6.85,6.85,0,0,0,122.56,61.45Z"/><path class="cls-4" d="M152.94,62.06a4.55,4.55,0,0,0,2.34,1.44,11.15,11.15,0,0,0,3.71.65,7,7,0,0,0,4.5-1.26A4,4,0,0,0,165,59.61a4.18,4.18,0,0,0-2-3.56,41,41,0,0,0-6.62-3.42l-2.74-1.23a18,18,0,0,1-7-5.07,12,12,0,0,1-2.34-7.6,9.71,9.71,0,0,1,1.95-5.94,12.82,12.82,0,0,1,5.61-4.14,22.58,22.58,0,0,1,8.64-1.51,35.68,35.68,0,0,1,6,.43q2.52.43,5.11,1.08a14.58,14.58,0,0,0,2.59.58V39h-6.41l-1.87-5.54a3.24,3.24,0,0,0-1.73-1.19,8.34,8.34,0,0,0-3.09-.54,7,7,0,0,0-4.32,1.19,3.79,3.79,0,0,0-1.59,3.2,4.29,4.29,0,0,0,1.8,3.64,34.4,34.4,0,0,0,5.76,3.13l1.52.65a34.64,34.64,0,0,1,9.14,5.29,9.74,9.74,0,0,1,3.31,7.81,10.73,10.73,0,0,1-4.25,8.75q-4.24,3.42-12.52,3.42a34.16,34.16,0,0,1-6.77-.61q-3-.61-6.48-1.62L144.3,66V56.37h6.84Z"/><path class="cls-4" d="M220.08,57.74a19.39,19.39,0,0,1-7.34,8.06,21.68,21.68,0,0,1-11.7,3,15,15,0,0,1-2.49-.22,10.2,10.2,0,0,1-2.05-.5l.22,5.83v6.12l6.19.94v4.46h-22.1V81l4.39-.94V35.56l-4.39-1.29V28.65l12.88-1.58h.15l1.94,1.51v3.89a13.78,13.78,0,0,1,4.65-3.85A13.43,13.43,0,0,1,206.94,27a14.44,14.44,0,0,1,11.27,4.86q4.35,4.86,4.36,14.86A24.52,24.52,0,0,1,220.08,57.74ZM199.17,34.38a6,6,0,0,0-2.45,1.83V62.56a3.55,3.55,0,0,0,1.76,1.08,8.47,8.47,0,0,0,2.77.44,7.32,7.32,0,0,0,6.45-3.89q2.42-3.88,2.41-12.6,0-7.06-2-10.51t-5.4-3.46A8.28,8.28,0,0,0,199.17,34.38Z"/><path class="cls-4" d="M232,63.25q-4.75-5.58-4.75-15.23a24.37,24.37,0,0,1,2.44-11.3,17.08,17.08,0,0,1,6.88-7.24A20.87,20.87,0,0,1,247,27q7.56,0,11.56,3.81t4.14,10.8A34.32,34.32,0,0,1,262,49H239.49q.36,6.12,3,9.32a9,9,0,0,0,7.38,3.21,18.87,18.87,0,0,0,5.58-.9,19.32,19.32,0,0,0,4.72-2.06l2,4.4a17.88,17.88,0,0,1-6.38,4,23.84,23.84,0,0,1-9.18,1.87Q236.76,68.83,232,63.25Zm19.22-19,.07-3a15.43,15.43,0,0,0-1.22-6.91A4.33,4.33,0,0,0,245.89,32a5.25,5.25,0,0,0-4.68,2.63q-1.65,2.63-1.8,9.69Z"/><path class="cls-4" d="M268,63.28l4.39-.64V35.56l-4.25-1.29V28.65l11.95-1.58h.22l2,1.51v1.73l-.21,6h.21a12.19,12.19,0,0,1,2.31-3.85,16.78,16.78,0,0,1,4.57-3.81,11.71,11.71,0,0,1,6-1.62,6.53,6.53,0,0,1,2.88.5V40a10,10,0,0,0-2.48-1.37,9.73,9.73,0,0,0-3.42-.5,14.86,14.86,0,0,0-4.68.68,12.5,12.5,0,0,0-3.31,1.55V62.64l7.92.72V68H268Z"/></g></g></svg>