<svg xmlns="http://www.w3.org/2000/svg" viewBox="0 0 456 304.68"><defs><style>.cls-1{fill:none;stroke:#000;stroke-linecap:round;stroke-linejoin:round;stroke-width:10px;}</style></defs><title>logo-l</title><g id="图层_2" data-name="图层 2"><g id="图层_1-2" data-name="图层 1"><path class="cls-1" d="M151.87,5a146.88,146.88,0,1,0,73.44,274.09A147.62,147.62,0,0,1,170.22,223"/><path class="cls-1" d="M170.22,80.75a147.65,147.65,0,0,1,55.09-56.1"/><path class="cls-1" d="M445.62,151.87A146.91,146.91,0,0,0,225.31,24.65"/><path class="cls-1" d="M280.4,80.75a73.51,73.51,0,0,1,90.16,86.55l56.34,56.35"/><path class="cls-1" d="M225.31,279.09A147.62,147.62,0,0,0,280.4,223a73.46,73.46,0,0,1,0-142.25"/><path class="cls-1" d="M170.22,223a147,147,0,0,1,0-142.25"/><path class="cls-1" d="M225.31,279.09a147,147,0,0,0,150.81-2.36l22.95,22.95L451,247.75l-24.1-24.1"/></g></g></svg>