<svg xmlns="http://www.w3.org/2000/svg" viewBox="0 0 50 100"><defs><style>.b86d0e1c-42ad-4a5d-9a83-b6525c9ab205{fill:#e16590;}.ec705e8b-f561-43ef-b557-9aff2f78cdbb{fill:#f1a0c3;}.baef0767-44eb-461e-aa8e-78a64c7a6360{fill:#00756c;}</style></defs><title>资源 37</title><g id="ea8a0512-08ee-4aed-975a-0cc23350eea1" data-name="图层 2"><g id="bdcf6f13-6638-4e29-b7a2-ce3547617f67" data-name="Layer 1"><path class="b86d0e1c-42ad-4a5d-9a83-b6525c9ab205" d="M45,0H30V20H50V5A5,5,0,0,0,45,0Z"/><path class="ec705e8b-f561-43ef-b557-9aff2f78cdbb" d="M20,0a10,10,0,0,0,0,20H30V0Z"/><path class="ec705e8b-f561-43ef-b557-9aff2f78cdbb" d="M30,30a10,10,0,0,0,20,0V20H30Z"/><path class="baef0767-44eb-461e-aa8e-78a64c7a6360" d="M40,44.94a10,10,0,0,0-10,10V80H10a10,10,0,0,0,0,20H40A10,10,0,0,0,50,90V54.94A10,10,0,0,0,40,44.94Z"/></g></g></svg>