<svg xmlns="http://www.w3.org/2000/svg" viewBox="0 0 587.05 184.7"><defs><style>.cls-1,.cls-2,.cls-4{fill:#fff;}.cls-2{stroke:#0f2c2f;stroke-linecap:round;stroke-linejoin:round;stroke-width:4px;}.cls-3{fill:#0f2c2f;}.cls-4{font-size:156px;font-family:Teko-Light, Teko;font-weight:300;}</style></defs><title>logo</title><g id="图层_2" data-name="图层 2"><g id="图层_1-2" data-name="图层 1"><path class="cls-1" d="M46.09,118.93a27,27,0,1,1,0-38.19l.5.5,18.6,18.6L46,119"/><path class="cls-1" d="M96.25,80.91a27,27,0,1,1,0,38.18l-.49-.49L77.16,100l19.2-19.2"/><polyline class="cls-2" points="124.57 127.39 115.47 118.29 124.57 109.19"/><polyline class="cls-2" points="124.57 109.2 115.47 100.1 124.57 91"/><polyline class="cls-2" points="124.57 91.01 115.47 81.91 124.57 72.81"/><polyline class="cls-2" points="18.86 72.81 27.96 81.91 18.86 91.01"/><polyline class="cls-2" points="18.86 91 27.96 100.1 18.86 109.2"/><polyline class="cls-2" points="18.86 109.19 27.96 118.29 18.86 127.39"/><path class="cls-1" d="M51.9,74.94a27,27,0,1,1,38.19,0l-.49.49L71,94,51.79,74.83"/><circle class="cls-3" cx="71" cy="56.6" r="12"/><text class="cls-4" transform="translate(158.62 126.51)">BEEREST</text></g></g></svg>