<svg xmlns="http://www.w3.org/2000/svg" viewBox="0 0 61.55 60.69"><defs><style>.cls-1{fill:none;stroke:#fff;stroke-linecap:round;stroke-linejoin:round;stroke-width:4px;}</style></defs><title>logo-white</title><g id="图层_2" data-name="图层 2"><g id="图层_1-2" data-name="图层 1"><path class="cls-1" d="M16.13,54.73A28.31,28.31,0,0,1,5.53,43.94"/><path class="cls-1" d="M5.53,16.57A28.45,28.45,0,0,1,16.13,5.78"/><path class="cls-1" d="M58.51,30.26A28.26,28.26,0,0,0,16.13,5.78"/><path class="cls-1" d="M26.73,16.57A14.16,14.16,0,0,1,44.39,30.26a13.86,13.86,0,0,1-.32,3L54.91,44.07"/><path class="cls-1" d="M26.73,43.94a14.13,14.13,0,0,1,0-27.37"/><path class="cls-1" d="M5.53,43.94a28.29,28.29,0,0,1,0-27.37"/><path class="cls-1" d="M16.13,54.73a28.29,28.29,0,0,0,29-.45l4.42,4.41,10-10-4.64-4.63"/></g></g></svg>