<?xml version="1.0" encoding="UTF-8"?>
<svg width="1462px" height="3173px" viewBox="0 0 1462 3173" version="1.1" xmlns="http://www.w3.org/2000/svg" xmlns:xlink="http://www.w3.org/1999/xlink">
    <!-- Generator: Sketch 64 (93537) - https://sketch.com -->
    <title>编组</title>
    <desc>Created with Sketch.</desc>
    <defs>
        <path d="M1441.16426,3.8734242 C1445.89019,6.40087705 1449.59912,10.1098114 1452.12658,14.8357373 C1454.65403,19.5616632 1456,24.2493137 1456,37.1763354 L1456,1079.82366 C1456,1092.75069 1454.65403,1097.43834 1452.12658,1102.16426 C1449.59912,1106.89019 1445.89019,1110.59912 1441.16426,1113.12658 C1436.43834,1115.65403 1431.75069,1117 1418.82366,1117 L37.1763354,1117 C24.2493137,1117 19.5616632,1115.65403 14.8357373,1113.12658 C10.1098114,1110.59912 6.40087705,1106.89019 3.8734242,1102.16426 C1.38485525,1097.51104 0.041694144,1092.89493 0.000955120348,1080.41448 L5.62996115e-15,37.1763354 C1.1793958e-15,24.2493137 1.34597136,19.5616632 3.8734242,14.8357373 C6.40087705,10.1098114 10.1098114,6.40087705 14.8357373,3.8734242 C19.4889567,1.38485525 24.1050692,0.041694144 36.5855239,0.000955120348 L1418.82366,3.00393689e-15 C1431.75069,6.29281525e-16 1436.43834,1.34597136 1441.16426,3.8734242 Z M1376.9549,45.0009466 L79.0450985,45.0009466 C67.438387,45.0400596 63.1427417,46.2904973 58.812583,48.6062915 C54.412583,50.9594373 50.9594373,54.412583 48.6062915,58.812583 C46.2531458,63.212583 45,67.5769472 45,79.6124502 L45.0009466,1034.9549 C45.0400596,1046.56161 46.2904973,1050.85726 48.6062915,1055.18742 C50.9594373,1059.58742 54.412583,1063.04056 58.812583,1065.39371 C63.212583,1067.74685 67.5769472,1069 79.6124502,1069 L79.6124502,1069 L1376.38755,1069 C1388.42305,1069 1392.78742,1067.74685 1397.18742,1065.39371 C1401.58742,1063.04056 1405.04056,1059.58742 1407.39371,1055.18742 C1409.74685,1050.78742 1411,1046.42305 1411,1034.38755 L1411,1034.38755 L1411,79.6124502 C1411,67.5769472 1409.74685,63.212583 1407.39371,58.812583 C1405.04056,54.412583 1401.58742,50.9594373 1397.18742,48.6062915 C1392.78742,46.2531458 1388.42305,45 1376.38755,45 Z" id="path-1"></path>
        <filter x="-0.2%" y="-0.3%" width="100.5%" height="100.6%" filterUnits="objectBoundingBox" id="filter-3">
            <feMorphology radius="1" operator="erode" in="SourceAlpha" result="shadowSpreadInner1"></feMorphology>
            <feOffset dx="0" dy="0" in="shadowSpreadInner1" result="shadowOffsetInner1"></feOffset>
            <feComposite in="shadowOffsetInner1" in2="SourceAlpha" operator="arithmetic" k2="-1" k3="1" result="shadowInnerInner1"></feComposite>
            <feColorMatrix values="0 0 0 0 1   0 0 0 0 1   0 0 0 0 1  0 0 0 0.3 0" type="matrix" in="shadowInnerInner1"></feColorMatrix>
        </filter>
        <linearGradient x1="0%" y1="49.9999992%" x2="100%" y2="50%" id="linearGradient-4">
            <stop stop-color="#F9FAFB" offset="0%"></stop>
            <stop stop-color="#5F6161" offset="4.84894777%"></stop>
            <stop stop-color="#F6F6F6" offset="10.5098601%"></stop>
            <stop stop-color="#F2F4F5" offset="90.3186429%"></stop>
            <stop stop-color="#727475" offset="95.2550088%"></stop>
            <stop stop-color="#F1F3F5" offset="100%"></stop>
        </linearGradient>
        <linearGradient x1="0%" y1="49.9999992%" x2="100%" y2="50%" id="linearGradient-5">
            <stop stop-color="#F9FAFB" offset="0%"></stop>
            <stop stop-color="#5F6161" offset="9.85594292%"></stop>
            <stop stop-color="#F6F6F6" offset="17.010272%"></stop>
            <stop stop-color="#F2F4F5" offset="83.767612%"></stop>
            <stop stop-color="#727475" offset="91.8059068%"></stop>
            <stop stop-color="#F1F3F5" offset="100%"></stop>
        </linearGradient>
        <radialGradient cx="74.8901367%" cy="84.2651367%" fx="74.8901367%" fy="84.2651367%" r="58.4252149%" id="radialGradient-6">
            <stop stop-color="#464646" offset="0%"></stop>
            <stop stop-color="#262626" offset="100%"></stop>
        </radialGradient>
        <path d="M10,75 C8.34314575,75 7,76.3465171 7,78 L7,78 C7,79.6568542 8.34651712,81 10,81 L10,81 C11.6568542,81 13,79.6534829 13,78 L13,78 C13,76.3431458 11.6534829,75 10,75 L10,75 Z" id="path-7"></path>
        <filter x="-58.3%" y="-58.3%" width="216.7%" height="216.7%" filterUnits="objectBoundingBox" id="filter-8">
            <feMorphology radius="1" operator="erode" in="SourceAlpha" result="shadowSpreadInner1"></feMorphology>
            <feGaussianBlur stdDeviation="2" in="shadowSpreadInner1" result="shadowBlurInner1"></feGaussianBlur>
            <feOffset dx="0" dy="0" in="shadowBlurInner1" result="shadowOffsetInner1"></feOffset>
            <feComposite in="shadowOffsetInner1" in2="SourceAlpha" operator="arithmetic" k2="-1" k3="1" result="shadowInnerInner1"></feComposite>
            <feColorMatrix values="0 0 0 0 0   0 0 0 0 0.404235338   0 0 0 0 0.652715774  0 0 0 1 0" type="matrix" in="shadowInnerInner1" result="shadowMatrixInner1"></feColorMatrix>
            <feOffset dx="-1" dy="-1" in="SourceAlpha" result="shadowOffsetInner2"></feOffset>
            <feComposite in="shadowOffsetInner2" in2="SourceAlpha" operator="arithmetic" k2="-1" k3="1" result="shadowInnerInner2"></feComposite>
            <feColorMatrix values="0 0 0 0 0.0684937961   0 0 0 0 0.302843863   0 0 0 0 0.439971301  0 0 0 0.559369256 0" type="matrix" in="shadowInnerInner2" result="shadowMatrixInner2"></feColorMatrix>
            <feMerge>
                <feMergeNode in="shadowMatrixInner1"></feMergeNode>
                <feMergeNode in="shadowMatrixInner2"></feMergeNode>
            </feMerge>
        </filter>
        <filter x="-150.0%" y="-150.0%" width="400.0%" height="400.0%" filterUnits="objectBoundingBox" id="filter-9">
            <feGaussianBlur stdDeviation="1" in="SourceGraphic"></feGaussianBlur>
        </filter>
        <filter x="0.0%" y="0.0%" width="100.0%" height="100.0%" filterUnits="objectBoundingBox" id="filter-10">
            <feGaussianBlur stdDeviation="0" in="SourceGraphic"></feGaussianBlur>
        </filter>
    </defs>
    <g id="Page-1" stroke="none" stroke-width="1" fill="none" fill-rule="evenodd">
        <g id="12.9-inch-iPad-Pro">
            <g id="编组" transform="translate(-71.000000, 0.000000)">
                <g id="12.9-inch-iPad-Pro" transform="translate(74.000000, 1028.000000)">
                    <g id="frame">
                        <mask id="mask-2" fill="white">
                            <use xlink:href="#path-1"></use>
                        </mask>
                        <g id="Rectangle-2">
                            <use fill="#0E0E0E" fill-rule="evenodd" xlink:href="#path-1"></use>
                            <use fill="black" fill-opacity="1" filter="url(#filter-3)" xlink:href="#path-1"></use>
                            <path stroke="#FFFFFF" stroke-width="3" d="M1419.41583,-1.49903642 C1432.31939,-1.4566594 1437.06886,-0.0178606818 1441.87166,2.55070441 C1446.86286,5.22002476 1450.77998,9.1371439 1453.4493,14.128339 C1456.05678,19.0039078 1457.5,23.8245178 1457.5,37.1763354 L1457.5,37.1763354 L1457.5,1079.82366 C1457.5,1093.17548 1456.05678,1097.99609 1453.4493,1102.87166 C1450.77998,1107.86286 1446.86286,1111.77998 1441.87166,1114.4493 C1436.99609,1117.05678 1432.17548,1118.5 1418.82366,1118.5 L1418.82366,1118.5 L37.1763354,1118.5 C23.8245178,1118.5 19.0039078,1117.05678 14.128339,1114.4493 C9.1371439,1111.77998 5.22002476,1107.86286 2.55070441,1102.87166 C-0.0182629594,1098.06811 -1.45693429,1093.31756 -1.49904488,1080.41448 L-1.49904488,1080.41448 L-1.49903642,36.5841657 C-1.4566594,23.6806068 -0.0178606818,18.9311382 2.55070441,14.128339 C5.22002476,9.1371439 9.1371439,5.22002476 14.128339,2.55070441 C18.9318903,-0.0182629594 23.6824386,-1.45693429 36.5855229,-1.49904488 L36.5855229,-1.49904488 Z M1376.94725,46.5009271 L79.0450985,46.5009466 C67.8609509,46.5386441 63.699787,47.6936267 59.5199813,49.9290113 C55.3852505,52.1402895 52.1402895,55.3852505 49.9290113,59.5199813 C47.6936267,63.699787 46.5386441,67.8609509 46.5009381,79.0501532 L46.5009466,1034.9549 C46.5386441,1046.13905 47.6936267,1050.30021 49.9290113,1054.48002 C52.1402895,1058.61475 55.3852505,1061.85971 59.5199813,1064.07099 C63.699787,1066.30637 67.8609509,1067.46136 79.0501532,1067.49906 L79.6149528,1067.5 L1376.38755,1067.5 C1387.99826,1067.5 1392.22966,1066.3441 1396.48002,1064.07099 C1400.61475,1061.85971 1403.85971,1058.61475 1406.07099,1054.48002 C1408.30637,1050.30021 1409.46136,1046.13905 1409.49906,1034.94985 L1409.5,1034.38505 L1409.5,79.6124502 C1409.5,68.001743 1408.3441,63.7703384 1406.07099,59.5199813 C1403.85971,55.3852505 1400.61475,52.1402895 1396.48002,49.9290113 C1392.37071,47.7313274 1388.27973,46.5778195 1377.50053,46.5037485 L1376.94725,46.5009271 Z"></path>
                            <path stroke="#28292A" stroke-width="2" d="M1419.41835,-0.999029209 C1432.17863,-0.956979741 1436.88329,0.44990802 1441.63586,2.99161101 C1446.53863,5.61364219 1450.38636,9.46136639 1453.00839,14.3641384 C1455.5892,19.1898263 1457,23.9661164 1457,37.1763354 L1457,37.1763354 L1457,1079.82366 C1457,1093.03388 1455.5892,1097.81017 1453.00839,1102.63586 C1450.38636,1107.53863 1446.53863,1111.38636 1441.63586,1114.00839 C1436.81017,1116.5892 1432.03388,1118 1418.82366,1118 L1418.82366,1118 L37.1763354,1118 C23.9661164,1118 19.1898263,1116.5892 14.3641384,1114.00839 C9.46136639,1111.38636 5.61364219,1107.53863 2.99161101,1102.63586 C0.449443111,1097.88242 -0.957391476,1093.17668 -0.99904488,1080.41448 L-0.99904488,1080.41448 L-0.999029209,36.5816499 C-0.956979741,23.821369 0.44990802,19.1167098 2.99161101,14.3641384 C5.61364219,9.46136639 9.46136639,5.61364219 14.3641384,2.99161101 C19.1175791,0.449443111 23.8233154,-0.957391476 36.5855232,-0.99904488 L36.5855232,-0.99904488 Z M1376.9498,46.0009336 L79.0450985,46.0009466 C67.7200962,46.0391159 63.5141053,47.2259169 59.2841819,49.4881047 C55.061028,51.7466721 51.7466721,55.061028 49.4881047,59.2841819 C47.2259169,63.5141053 46.0391159,67.7200962 46.0009409,79.0484683 L46.0009466,1034.9549 C46.0391159,1046.2799 47.2259169,1050.48589 49.4881047,1054.71582 C51.7466721,1058.93897 55.061028,1062.25333 59.2841819,1064.5119 C63.5141053,1066.77408 67.7200962,1067.96088 79.0484683,1067.99906 L79.6141186,1068 L1376.38755,1068 C1388.13986,1068 1392.41558,1066.81169 1396.71582,1064.5119 C1400.93897,1062.25333 1404.25333,1058.93897 1406.5119,1054.71582 C1408.77408,1050.48589 1409.96088,1046.2799 1409.99906,1034.95153 L1410,1034.38588 L1410,79.6124502 C1410,67.8601444 1408.81169,63.5844199 1406.5119,59.2841819 C1404.25333,55.061028 1400.93897,51.7466721 1396.71582,49.4881047 C1392.55617,47.2635012 1388.41988,46.0787708 1377.50397,46.0037603 L1376.9498,46.0009336 Z"></path>
                            <path stroke="#9FA0A1" stroke-width="3" d="M1419.39508,1.50088648 C1431.46604,1.5387059 1435.95099,2.78637372 1440.45686,5.196144 C1444.91752,7.58172933 1448.41827,11.0824788 1450.80386,15.5431356 C1453.25128,20.1194186 1454.5,24.6741095 1454.5,37.1763354 L1454.5,37.1763354 L1454.5,1079.82366 C1454.5,1092.32589 1453.25128,1096.88058 1450.80386,1101.45686 C1448.41827,1105.91752 1444.91752,1109.41827 1440.45686,1111.80386 C1435.88058,1114.25128 1431.32589,1115.5 1418.82366,1115.5 L1418.82366,1115.5 L37.1763354,1115.5 C24.6741095,1115.5 20.1194186,1114.25128 15.5431356,1111.80386 C11.0824788,1109.41827 7.58172933,1105.91752 5.196144,1101.45686 C2.78797346,1096.95398 1.54032257,1092.4723 1.50095512,1080.41447 L1.50095512,1080.41447 L1.50088648,36.6049238 C1.5387059,24.5339601 2.78637372,20.0490143 5.196144,15.5431356 C7.58172933,11.0824788 11.0824788,7.58172933 15.5431356,5.196144 C20.046023,2.78797346 24.5276999,1.54032257 36.585525,1.50095512 L36.585525,1.50095512 Z M1376.96256,43.5009661 L79.0450985,43.5009466 C67.0158231,43.541475 62.5856964,44.8873678 58.1051847,47.2835717 C53.4399155,49.778585 49.778585,53.4399155 47.2835717,58.1051847 C44.8873678,62.5856964 43.541475,67.0158231 43.5009551,79.0400437 L43.5009466,1034.9549 C43.541475,1046.98418 44.8873678,1051.4143 47.2835717,1055.89482 C49.778585,1060.56008 53.4399155,1064.22142 58.1051847,1066.71643 C62.5856964,1069.11263 67.0158231,1070.45852 79.0400437,1070.49904 L79.6099476,1070.5 L1376.38755,1070.5 C1388.84785,1070.5 1393.34517,1069.1496 1397.89482,1066.71643 C1402.56008,1064.22142 1406.22142,1060.56008 1408.71643,1055.89482 C1411.11263,1051.4143 1412.45852,1046.98418 1412.49904,1034.95996 L1412.5,1034.39005 L1412.5,79.6124502 C1412.5,67.1521514 1411.1496,62.6548276 1408.71643,58.1051847 C1406.22142,53.4399155 1402.56008,49.778585 1397.89482,47.2835717 C1393.48349,44.9243701 1389.12065,43.5835273 1377.52115,43.5038193 L1376.96256,43.5009661 Z" stroke-linejoin="square"></path>
                            <use stroke="#F8F8F8" stroke-width="2" xlink:href="#path-1"></use>
                        </g>
                        <g id="button" mask="url(#mask-2)" fill-rule="nonzero">
                            <g transform="translate(1238.000000, 986.000000)" id="Rectangle">
                                <path d="M190,29 L248,29 C249.104569,29 250,29.8954305 250,31 C250,32.1045695 249.104569,33 248,33 L190,33 C188.895431,33 188,32.1045695 188,31 C188,29.8954305 188.895431,29 190,29 Z" fill="url(#linearGradient-4)" transform="translate(219.000000, 31.000000) rotate(90.000000) translate(-219.000000, -31.000000) "></path>
                                <path d="M2,131 L52,131 C53.1045695,131 54,131.895431 54,133 C54,134.104569 53.1045695,135 52,135 L2,135 C0.8954305,135 1.3527075e-16,134.104569 0,133 C-1.3527075e-16,131.895431 0.8954305,131 2,131 Z" fill="url(#linearGradient-5)"></path>
                                <path d="M66,131 L116,131 C117.104569,131 118,131.895431 118,133 C118,134.104569 117.104569,135 116,135 L66,135 C64.8954305,135 64,134.104569 64,133 C64,131.895431 64.8954305,131 66,131 Z" fill="url(#linearGradient-5)"></path>
                            </g>
                        </g>
                        <g id="Camera" opacity="0.699999988" mask="url(#mask-2)">
                            <g transform="translate(1423.000000, 479.000000)">
                                <circle id="Outer" fill-opacity="0.5" fill="url(#radialGradient-6)" fill-rule="evenodd" cx="10" cy="78" r="6"></circle>
                                <g id="Base" fill="none">
                                    <use fill="#072244" fill-rule="evenodd" xlink:href="#path-7"></use>
                                    <use fill="black" fill-opacity="1" filter="url(#filter-8)" xlink:href="#path-7"></use>
                                    <path stroke="#333333" stroke-width="1" d="M10,74.5 C9.05727494,74.5 8.20152592,74.8728008 7.5700859,75.5042408 C6.95856269,76.115764 6.55587776,76.9724039 6.5,78 C6.5,78.9427251 6.87280081,79.7984741 7.50424083,80.4299141 C8.11576404,81.0414373 8.97240392,81.4441222 10,81.5 C10.9427251,81.5 11.7984741,81.1271992 12.4299141,80.4957592 C13.0414373,79.884236 13.4441222,79.0275961 13.5,78 C13.5,77.0339757 13.1077735,76.15929 12.4744393,75.5259558 C11.8404766,74.8919931 10.9650047,74.5 10,74.5 Z"></path>
                                </g>
                                <circle id="Oval-2" fill="#03DBF8" fill-rule="evenodd" filter="url(#filter-9)" cx="10" cy="77" r="1"></circle>
                                <path d="M11.9997431,78 C12.0177749,77.1947178 11.0807378,77 11.0807378,77 C11.0807378,77 11.4934406,77.4812029 11.4724974,78 C11.4530717,78.4812029 11,79 11,79 C11,79 11.9817113,78.8052822 11.9997431,78 Z" id="Path-5" fill="#14AAC8" fill-rule="evenodd"></path>
                                <path d="M8.5,79 C8.77614239,79 9,78.7761424 9,78.5 C9,78.2238576 8.77614239,78 8.5,78 C8.22385761,78 8,78.2238576 8,78.5 C8,78.7761424 8.22385761,79 8.5,79 Z" id="Oval-3" fill="#30A4B9" fill-rule="evenodd" filter="url(#filter-10)"></path>
                                <circle id="Oval" fill="#000000" fill-rule="nonzero" cx="10" cy="8" r="8"></circle>
                                <circle id="Oval" fill="#000000" fill-rule="nonzero" cx="10" cy="42" r="10"></circle>
                                <circle id="Oval" fill="#000000" fill-rule="nonzero" cx="10" cy="148" r="10"></circle>
                                <circle id="Oval" fill="#000000" fill-rule="nonzero" cx="10" cy="111" r="3"></circle>
                            </g>
                        </g>
                    </g>
                    <g id="screen" transform="translate(556.000000, 1055.000000)" fill="#FFFFFF">
                        <rect id="Home-Indicator" x="0" y="0" width="344" height="5" rx="2.5"></rect>
                    </g>
                </g>
                <rect id="矩形" fill="#FFFFFF" x="0" y="0" width="1582" height="1028"></rect>
                <rect id="矩形备份" fill="#FFFFFF" x="0" y="2145" width="1582" height="1028"></rect>
            </g>
        </g>
    </g>
</svg>