<?xml version="1.0" encoding="UTF-8"?>
<svg width="1462px" height="1123px" viewBox="0 0 1462 1123" version="1.1" xmlns="http://www.w3.org/2000/svg" xmlns:xlink="http://www.w3.org/1999/xlink">
    <!-- Generator: Sketch 64 (93537) - https://sketch.com -->
    <title>12.9-inch iPad Pro</title>
    <desc>Created with Sketch.</desc>
    <defs>
        <path d="M1444.7453,2.93845974 C1448.33049,4.85583776 1451.14416,7.66951208 1453.06154,11.2546973 C1454.97892,14.8398824 1456,18.3960311 1456,28.2027372 L1456,1088.79726 C1456,1098.60397 1454.97892,1102.16012 1453.06154,1105.7453 C1451.14416,1109.33049 1448.33049,1112.14416 1444.7453,1114.06154 C1441.16012,1115.97892 1437.60397,1117 1427.79726,1117 L28.2027372,1117 C18.3960311,1117 14.8398824,1115.97892 11.2546973,1114.06154 C7.66951208,1112.14416 4.85583776,1109.33049 2.93845974,1105.7453 C1.05532062,1102.22414 0.0367530131,1098.73098 0.000976089559,1089.31668 L7.59616226e-16,28.2027372 C-4.41358902e-16,18.3960311 1.02108172,14.8398824 2.93845974,11.2546973 C4.85583776,7.66951208 7.66951208,4.85583776 11.2546973,2.93845974 C14.7758613,1.05532062 18.2690165,0.0367530131 27.6833217,0.000976089559 L1427.79726,1.13942434e-15 C1437.60397,-6.62038354e-16 1441.16012,1.02108172 1444.7453,2.93845974 Z M1385.85063,45.0009543 L70.1493736,45.0009543 C61.6039199,45.0346593 58.4304456,45.9605352 55.231543,47.671327 C51.9722837,49.414398 49.414398,51.9722837 47.671327,55.231543 C45.9282561,58.4908022 45,61.7236646 45,70.638852 L45.0009543,1043.85063 C45.0346593,1052.39608 45.9605352,1055.56955 47.671327,1058.76846 C49.414398,1062.02772 51.9722837,1064.5856 55.231543,1066.32867 C58.4908022,1068.07174 61.7236646,1069 70.638852,1069 L70.638852,1069 L1385.36115,1069 C1394.27634,1069 1397.5092,1068.07174 1400.76846,1066.32867 C1404.02772,1064.5856 1406.5856,1062.02772 1408.32867,1058.76846 C1410.07174,1055.5092 1411,1052.27634 1411,1043.36115 L1411,1043.36115 L1411,70.638852 C1411,61.7236646 1410.07174,58.4908022 1408.32867,55.231543 C1406.5856,51.9722837 1404.02772,49.414398 1400.76846,47.671327 C1397.5092,45.9282561 1394.27634,45 1385.36115,45 Z" id="path-1"></path>
        <filter x="-0.2%" y="-0.3%" width="100.5%" height="100.6%" filterUnits="objectBoundingBox" id="filter-3">
            <feMorphology radius="1" operator="erode" in="SourceAlpha" result="shadowSpreadInner1"></feMorphology>
            <feOffset dx="0" dy="0" in="shadowSpreadInner1" result="shadowOffsetInner1"></feOffset>
            <feComposite in="shadowOffsetInner1" in2="SourceAlpha" operator="arithmetic" k2="-1" k3="1" result="shadowInnerInner1"></feComposite>
            <feColorMatrix values="0 0 0 0 1   0 0 0 0 1   0 0 0 0 1  0 0 0 0.3 0" type="matrix" in="shadowInnerInner1"></feColorMatrix>
        </filter>
        <linearGradient x1="0%" y1="49.9999992%" x2="100%" y2="50%" id="linearGradient-4">
            <stop stop-color="#F9FAFB" offset="0%"></stop>
            <stop stop-color="#5F6161" offset="4.84894777%"></stop>
            <stop stop-color="#F6F6F6" offset="10.5098601%"></stop>
            <stop stop-color="#F2F4F5" offset="90.3186429%"></stop>
            <stop stop-color="#727475" offset="95.2550088%"></stop>
            <stop stop-color="#F1F3F5" offset="100%"></stop>
        </linearGradient>
        <linearGradient x1="0%" y1="49.9999992%" x2="100%" y2="50%" id="linearGradient-5">
            <stop stop-color="#F9FAFB" offset="0%"></stop>
            <stop stop-color="#5F6161" offset="9.85594292%"></stop>
            <stop stop-color="#F6F6F6" offset="17.010272%"></stop>
            <stop stop-color="#F2F4F5" offset="83.767612%"></stop>
            <stop stop-color="#727475" offset="91.8059068%"></stop>
            <stop stop-color="#F1F3F5" offset="100%"></stop>
        </linearGradient>
        <radialGradient cx="74.8901367%" cy="84.2651367%" fx="74.8901367%" fy="84.2651367%" r="58.4252149%" id="radialGradient-6">
            <stop stop-color="#464646" offset="0%"></stop>
            <stop stop-color="#262626" offset="100%"></stop>
        </radialGradient>
        <path d="M10,75 C8.34314575,75 7,76.3465171 7,78 L7,78 C7,79.6568542 8.34651712,81 10,81 L10,81 C11.6568542,81 13,79.6534829 13,78 L13,78 C13,76.3431458 11.6534829,75 10,75 L10,75 Z" id="path-7"></path>
        <filter x="-58.3%" y="-58.3%" width="216.7%" height="216.7%" filterUnits="objectBoundingBox" id="filter-8">
            <feMorphology radius="1" operator="erode" in="SourceAlpha" result="shadowSpreadInner1"></feMorphology>
            <feGaussianBlur stdDeviation="2" in="shadowSpreadInner1" result="shadowBlurInner1"></feGaussianBlur>
            <feOffset dx="0" dy="0" in="shadowBlurInner1" result="shadowOffsetInner1"></feOffset>
            <feComposite in="shadowOffsetInner1" in2="SourceAlpha" operator="arithmetic" k2="-1" k3="1" result="shadowInnerInner1"></feComposite>
            <feColorMatrix values="0 0 0 0 0   0 0 0 0 0.404235338   0 0 0 0 0.652715774  0 0 0 1 0" type="matrix" in="shadowInnerInner1" result="shadowMatrixInner1"></feColorMatrix>
            <feOffset dx="-1" dy="-1" in="SourceAlpha" result="shadowOffsetInner2"></feOffset>
            <feComposite in="shadowOffsetInner2" in2="SourceAlpha" operator="arithmetic" k2="-1" k3="1" result="shadowInnerInner2"></feComposite>
            <feColorMatrix values="0 0 0 0 0.0684937961   0 0 0 0 0.302843863   0 0 0 0 0.439971301  0 0 0 0.559369256 0" type="matrix" in="shadowInnerInner2" result="shadowMatrixInner2"></feColorMatrix>
            <feMerge>
                <feMergeNode in="shadowMatrixInner1"></feMergeNode>
                <feMergeNode in="shadowMatrixInner2"></feMergeNode>
            </feMerge>
        </filter>
        <filter x="-150.0%" y="-150.0%" width="400.0%" height="400.0%" filterUnits="objectBoundingBox" id="filter-9">
            <feGaussianBlur stdDeviation="1" in="SourceGraphic"></feGaussianBlur>
        </filter>
        <filter x="0.0%" y="0.0%" width="100.0%" height="100.0%" filterUnits="objectBoundingBox" id="filter-10">
            <feGaussianBlur stdDeviation="0" in="SourceGraphic"></feGaussianBlur>
        </filter>
    </defs>
    <g id="Page-1" stroke="none" stroke-width="1" fill="none" fill-rule="evenodd">
        <g id="12.9-inch-iPad-Pro" transform="translate(-469.000000, -360.000000)">
            <g transform="translate(472.000000, 363.000000)">
                <g id="frame">
                    <mask id="mask-2" fill="white">
                        <use xlink:href="#path-1"></use>
                    </mask>
                    <g id="Rectangle-2">
                        <use fill="#0E0E0E" fill-rule="evenodd" xlink:href="#path-1"></use>
                        <use fill="black" fill-opacity="1" filter="url(#filter-3)" xlink:href="#path-1"></use>
                        <path stroke="#FFFFFF" stroke-width="3" d="M1428.32068,-1.4990039 C1438.15599,-1.46117551 1441.78227,-0.347229906 1445.4527,1.61573994 C1449.30316,3.67498548 1452.32501,6.6968446 1454.38426,10.547299 C1456.38167,14.2821271 1457.5,17.9712352 1457.5,28.2027372 L1457.5,28.2027372 L1457.5,1088.79726 C1457.5,1099.02876 1456.38167,1102.71787 1454.38426,1106.4527 C1452.32501,1110.30316 1449.30316,1113.32501 1445.4527,1115.38426 C1441.71787,1117.38167 1438.02876,1118.5 1427.79726,1118.5 L1427.79726,1118.5 L28.2027372,1118.5 C17.9712352,1118.5 14.2821271,1117.38167 10.547299,1115.38426 C6.6968446,1113.32501 3.67498548,1110.30316 1.61573994,1106.4527 C-0.3478542,1102.7811 -1.46165299,1099.15328 -1.49902391,1089.31668 L-1.49902391,1089.31668 L-1.4990039,27.6793223 C-1.46117551,17.844011 -0.347229906,14.2177335 1.61573994,10.547299 C3.67498548,6.6968446 6.6968446,3.67498548 10.547299,1.61573994 C14.2189008,-0.3478542 17.8467227,-1.46165299 27.6833206,-1.49902391 L27.6833206,-1.49902391 Z M1385.84464,46.5009543 L70.1493736,46.5009543 C62.0261242,46.5330057 58.987378,47.363725 55.9389413,48.9940468 C52.9449512,50.5952502 50.5952502,52.9449512 48.9940468,55.9389413 C47.363725,58.987378 46.5330057,62.0261242 46.5009426,70.1552898 L46.5009543,1043.85063 C46.5330057,1051.97388 47.363725,1055.01262 48.9940468,1058.06106 C50.5952502,1061.05505 52.9449512,1063.40475 55.9389413,1065.00595 C58.9921225,1066.63881 62.0370845,1067.46699 70.6446062,1067.50001 L1385.36115,1067.5 C1393.85154,1067.5 1396.95144,1066.66899 1400.06106,1065.00595 C1403.05505,1063.40475 1405.40475,1061.05505 1407.00595,1058.06106 C1408.63881,1055.00788 1409.46699,1051.96292 1409.50001,1043.35539 L1409.5,70.638852 C1409.5,62.1484604 1408.66899,59.0485576 1407.00595,55.9389413 C1405.40475,52.9449512 1403.05505,50.5952502 1400.06106,48.9940468 C1397.06964,47.3942181 1394.08642,46.5668958 1385.84464,46.5009543 Z"></path>
                        <path stroke="#28292A" stroke-width="2" d="M1427.79726,-1 C1437.88717,-1 1441.53195,0.0859152584 1445.2169,2.05664654 C1448.97893,4.0686029 1451.9314,7.02106709 1453.94335,10.7830984 C1455.91408,14.4680455 1457,18.1128338 1457,28.2027372 L1457,28.2027372 L1457,1088.79726 C1457,1098.88717 1455.91408,1102.53195 1453.94335,1106.2169 C1451.9314,1109.97893 1448.97893,1112.9314 1445.2169,1114.94335 C1441.53195,1116.91408 1437.88717,1118 1427.79726,1118 L1427.79726,1118 L28.2027372,1118 C18.1128338,1118 14.4680455,1116.91408 10.7830984,1114.94335 C7.02106709,1112.9314 4.0686029,1109.97893 2.05664654,1106.2169 C0.119870738,1102.59545 -0.96218432,1099.01251 -0.99902391,1089.31668 L-0.99902391,1089.31668 L-1,28.2027372 C-1,18.1128338 0.0859152584,14.4680455 2.05664654,10.7830984 C4.0686029,7.02106709 7.02106709,4.0686029 10.7830984,2.05664654 C14.4045543,0.119870738 17.9874873,-0.96218432 27.683321,-0.99902391 L27.683321,-0.99902391 Z M1385.84267,46.0009226 L70.1493736,46.0009543 C61.8853894,46.0335569 58.8017338,46.8959951 55.7031418,48.5531402 C52.6207287,50.2016328 50.2016328,52.6207287 48.5531402,55.7031418 C46.8959951,58.8017338 46.0335569,61.8853894 46.0009465,70.1533177 L46.0009543,1043.85063 C46.0335569,1052.11461 46.8959951,1055.19827 48.5531402,1058.29686 C50.2016328,1061.37927 52.6207287,1063.79837 55.7031418,1065.44686 C58.8048969,1067.1057 61.8926963,1067.96644 70.6426881,1068.00001 L1385.36115,1068 C1393.99314,1068 1397.13736,1067.13658 1400.29686,1065.44686 C1403.37927,1063.79837 1405.79837,1061.37927 1407.44686,1058.29686 C1409.1057,1055.1951 1409.96644,1052.1073 1410.00001,1043.35731 L1410,70.638852 C1410,62.0068618 1409.13658,58.8626391 1407.44686,55.7031418 C1405.79837,52.6207287 1403.37927,50.2016328 1400.29686,48.5531402 C1397.25592,46.926827 1394.22861,46.0676244 1385.84267,46.0009226 Z"></path>
                        <path stroke="#9FA0A1" stroke-width="3" d="M1428.30313,1.50091613 C1437.30366,1.53389586 1440.66483,2.45723775 1444.0379,4.26117954 C1447.35782,6.03669004 1449.96331,8.64217955 1451.73882,11.9620955 C1453.57617,15.3976378 1454.5,18.8208269 1454.5,28.2027372 L1454.5,28.2027372 L1454.5,1088.79726 C1454.5,1098.17917 1453.57617,1101.60236 1451.73882,1105.0379 C1449.96331,1108.35782 1447.35782,1110.96331 1444.0379,1112.73882 C1440.60236,1114.57617 1437.17917,1115.5 1427.79726,1115.5 L1427.79726,1115.5 L28.2027372,1115.5 C18.8208269,1115.5 15.3976378,1114.57617 11.9620955,1112.73882 C8.64217955,1110.96331 6.03669004,1108.35782 4.26117954,1105.0379 C2.45849543,1101.66718 1.53515901,1098.30869 1.50097609,1089.31668 L1.50097609,1089.31668 L1.50091613,27.6968702 C1.53389586,18.6963432 2.45723775,15.3351734 4.26117954,11.9620955 C6.03669004,8.64217955 8.64217955,6.03669004 11.9620955,4.26117954 C15.3328218,2.45849543 18.6913103,1.53515901 27.6833227,1.50097609 L27.6833227,1.50097609 Z M1385.85657,43.5009543 L70.1493736,43.5009543 C61.1817157,43.5363129 57.8735132,44.5573454 54.5241447,46.3486072 C50.9996162,48.2335457 48.2335457,50.9996162 46.3486072,54.5241447 C44.5573454,57.8735132 43.5363129,61.1817157 43.5009659,70.1434573 L43.5009543,1043.85063 C43.5363129,1052.81828 44.5573454,1056.12649 46.3486072,1059.47586 C48.2335457,1063.00038 50.9996162,1065.76645 54.5241447,1067.65139 C57.8687686,1069.44012 61.1707554,1070.46369 70.6330978,1070.49999 L1385.36115,1070.5 C1394.70113,1070.5 1398.06695,1069.47449 1401.47586,1067.65139 C1405.00038,1065.76645 1407.76645,1063.00038 1409.65139,1059.47586 C1411.44012,1056.13123 1412.46369,1052.82924 1412.49999,1043.3669 L1412.5,70.638852 C1412.5,61.2988688 1411.47449,57.9330468 1409.65139,54.5241447 C1407.76645,50.9996162 1405.00038,48.2335457 1401.47586,46.3486072 C1398.19018,44.5914096 1394.94527,43.5728099 1385.85657,43.5009543 Z" stroke-linejoin="square"></path>
                        <use stroke="#F8F8F8" stroke-width="2" xlink:href="#path-1"></use>
                    </g>
                    <g id="button" mask="url(#mask-2)" fill-rule="nonzero">
                        <g transform="translate(1238.000000, 986.000000)" id="Rectangle">
                            <path d="M190,29 L248,29 C249.104569,29 250,29.8954305 250,31 C250,32.1045695 249.104569,33 248,33 L190,33 C188.895431,33 188,32.1045695 188,31 C188,29.8954305 188.895431,29 190,29 Z" fill="url(#linearGradient-4)" transform="translate(219.000000, 31.000000) rotate(90.000000) translate(-219.000000, -31.000000) "></path>
                            <path d="M2,131 L52,131 C53.1045695,131 54,131.895431 54,133 C54,134.104569 53.1045695,135 52,135 L2,135 C0.8954305,135 1.3527075e-16,134.104569 0,133 C-1.3527075e-16,131.895431 0.8954305,131 2,131 Z" fill="url(#linearGradient-5)"></path>
                            <path d="M66,131 L116,131 C117.104569,131 118,131.895431 118,133 C118,134.104569 117.104569,135 116,135 L66,135 C64.8954305,135 64,134.104569 64,133 C64,131.895431 64.8954305,131 66,131 Z" fill="url(#linearGradient-5)"></path>
                        </g>
                    </g>
                    <g id="Camera" opacity="0.699999988" mask="url(#mask-2)">
                        <g transform="translate(1423.000000, 479.000000)">
                            <circle id="Outer" fill-opacity="0.5" fill="url(#radialGradient-6)" fill-rule="evenodd" cx="10" cy="78" r="6"></circle>
                            <g id="Base" fill="none">
                                <use fill="#072244" fill-rule="evenodd" xlink:href="#path-7"></use>
                                <use fill="black" fill-opacity="1" filter="url(#filter-8)" xlink:href="#path-7"></use>
                                <path stroke="#333333" stroke-width="1" d="M10,74.5 C9.05727494,74.5 8.20152592,74.8728008 7.5700859,75.5042408 C6.95856269,76.115764 6.55587776,76.9724039 6.5,78 C6.5,78.9427251 6.87280081,79.7984741 7.50424083,80.4299141 C8.11576404,81.0414373 8.97240392,81.4441222 10,81.5 C10.9427251,81.5 11.7984741,81.1271992 12.4299141,80.4957592 C13.0414373,79.884236 13.4441222,79.0275961 13.5,78 C13.5,77.0339757 13.1077735,76.15929 12.4744393,75.5259558 C11.8404766,74.8919931 10.9650047,74.5 10,74.5 Z"></path>
                            </g>
                            <circle id="Oval-2" fill="#03DBF8" fill-rule="evenodd" filter="url(#filter-9)" cx="10" cy="77" r="1"></circle>
                            <path d="M11.9997431,78 C12.0177749,77.1947178 11.0807378,77 11.0807378,77 C11.0807378,77 11.4934406,77.4812029 11.4724974,78 C11.4530717,78.4812029 11,79 11,79 C11,79 11.9817113,78.8052822 11.9997431,78 Z" id="Path-5" fill="#14AAC8" fill-rule="evenodd"></path>
                            <path d="M8.5,79 C8.77614239,79 9,78.7761424 9,78.5 C9,78.2238576 8.77614239,78 8.5,78 C8.22385761,78 8,78.2238576 8,78.5 C8,78.7761424 8.22385761,79 8.5,79 Z" id="Oval-3" fill="#30A4B9" fill-rule="evenodd" filter="url(#filter-10)"></path>
                            <circle id="Oval" fill="#000000" fill-rule="nonzero" cx="10" cy="8" r="8"></circle>
                            <circle id="Oval" fill="#000000" fill-rule="nonzero" cx="10" cy="42" r="10"></circle>
                            <circle id="Oval" fill="#000000" fill-rule="nonzero" cx="10" cy="148" r="10"></circle>
                            <circle id="Oval" fill="#000000" fill-rule="nonzero" cx="10" cy="111" r="3"></circle>
                        </g>
                    </g>
                </g>
                <g id="screen" transform="translate(556.000000, 1055.000000)" fill="#FFFFFF">
                    <rect id="Home-Indicator" x="0" y="0" width="344" height="5" rx="2.5"></rect>
                </g>
            </g>
        </g>
    </g>
</svg>