<svg width="120" height="120" viewBox="0 0 120 120" fill="none" xmlns="http://www.w3.org/2000/svg">
<rect width="120" height="120" rx="16" fill="#27272B"/>
<path d="M59.9982 74.9985C63.9747 74.9943 67.7872 73.413 70.5993 70.6014C73.4113 67.7898 74.9933 63.9775 74.9982 60.001V39.9985C74.9982 36.0203 73.4178 32.205 70.6048 29.3919C67.7917 26.5789 63.9764 24.9985 59.9982 24.9985C56.0199 24.9985 52.2046 26.5789 49.3916 29.3919C46.5785 32.205 44.9982 36.0203 44.9982 39.9985V59.9985C45.0025 63.9754 46.5843 67.7882 49.3964 70.6003C52.2085 73.4124 56.0213 74.9942 59.9982 74.9985V74.9985Z" fill="#FFCC46"/>
<path d="M82.6349 60.0161C81.977 59.95 81.3194 60.1447 80.8035 60.5583C80.2877 60.9719 79.9547 61.5714 79.8761 62.228C79.3273 67.1161 76.9967 71.6306 73.3295 74.9089C69.6624 78.1872 64.9159 79.9993 59.9971 79.999C55.0783 79.9987 50.332 78.186 46.6653 74.9072C42.9985 71.6285 40.6684 67.1137 40.1203 62.2255C40.0396 61.5701 39.7059 60.9722 39.1905 60.5594C38.675 60.1466 38.0187 59.9516 37.3615 60.0161C36.7022 60.0893 36.0989 60.4213 35.6842 60.939C35.2694 61.4567 35.0771 62.1179 35.1495 62.7773C35.7859 68.4504 38.3543 73.732 42.4236 77.7358C46.4929 81.7396 51.8155 84.2219 57.4982 84.7661V92.499C57.4982 93.162 57.7616 93.7979 58.2304 94.2667C58.6993 94.7356 59.3351 94.999 59.9982 94.999C60.6612 94.999 61.2971 94.7356 61.7659 94.2667C62.2348 93.7979 62.4982 93.162 62.4982 92.499V84.7664C68.1818 84.2234 73.5055 81.7412 77.5751 77.7366C81.6447 73.732 84.2123 68.449 84.8468 62.7749C84.9192 62.1157 84.7268 61.4549 84.312 60.9375C83.8972 60.4202 83.294 60.0887 82.6349 60.0161V60.0161Z" fill="#FFCC46"/>
</svg>
