<svg width="37" height="36" viewBox="0 0 37 36" fill="none" xmlns="http://www.w3.org/2000/svg">
<g clip-path="url(#clip0)">
<path d="M27.8205 -0.0876465H9.17763C7.75933 -0.0876465 6.6062 1.06548 6.6062 2.48378V33.3409C6.6062 34.7592 7.75933 35.9124 9.17763 35.9124H27.8205C29.2388 35.9124 30.3919 34.7592 30.3919 33.3409V2.48378C30.3919 1.06548 29.2388 -0.0876465 27.8205 -0.0876465ZM27.4991 33.0195H9.49906V2.80521H27.4991V33.0195ZM16.8919 28.9213C16.8919 29.3475 17.0612 29.7563 17.3626 30.0577C17.664 30.3591 18.0728 30.5284 18.4991 30.5284C18.9253 30.5284 19.3341 30.3591 19.6355 30.0577C19.9369 29.7563 20.1062 29.3475 20.1062 28.9213C20.1062 28.495 19.9369 28.0863 19.6355 27.7849C19.3341 27.4835 18.9253 27.3141 18.4991 27.3141C18.0728 27.3141 17.664 27.4835 17.3626 27.7849C17.0612 28.0863 16.8919 28.495 16.8919 28.9213Z" fill="#037971"/>
</g>
<defs>
<clipPath id="clip0">
<rect width="36" height="36" fill="white" transform="translate(0.5)"/>
</clipPath>
</defs>
</svg>
