<svg xmlns="http://www.w3.org/2000/svg" viewBox="0 0 183.22 183.11"><defs><style>.cls-1{fill:#fe3b3c;}</style></defs><title>Learn more about me</title><g id="图层_2" data-name="图层 2"><g id="图层_1-2" data-name="图层 1"><path class="cls-1" d="M55.33,19.3l5-2.44.93,1.9-7.41,3.6L48.29,10.85,50.66,9.7Z"/><path class="cls-1" d="M69.54,10.14l-4.83,1.54,1,3.27,5.67-1.81.64,2-8.17,2.61L60,5.58,68.15,3l.65,2-5.64,1.8.93,2.9,4.82-1.53Z"/><path class="cls-1" d="M81.54,10.81,77,11.5l-.47,2.74-2.77.42L76.51,1.29,78.93.93l6.66,11.93-2.77.42ZM77.35,9.28l3.17-.48L78.21,4.31Z"/><path class="cls-1" d="M92.81,8.19l-2.1,0-.08,4.69L88,12.79,88.21,0,93,.08a5.39,5.39,0,0,1,3.48,1.06A3.53,3.53,0,0,1,97.63,4,3.94,3.94,0,0,1,97,6.19a3.86,3.86,0,0,1-1.74,1.37L98,12.83V13l-2.83-.05ZM90.75,6l2.12,0a2.2,2.2,0,0,0,1.55-.48A1.8,1.8,0,0,0,95,4.19a1.91,1.91,0,0,0-.5-1.43,2.13,2.13,0,0,0-1.57-.55l-2.11,0Z"/><path class="cls-1" d="M110.93,15.08l-2.59-.47L104.8,5.4l-1.51,8.28-2.6-.47L103,.62l2.6.48,3.54,9.22L110.64,2l2.59.47Z"/><path class="cls-1" d="M128.68,7.84l-1.11,9.78,7-6.91,3.12,1.52-5.61,11.5-2.38-1.16,1.53-3.14,2.89-5.32-7.29,7.06-1.63-.79,1.08-10.07-2.4,5.53L122.34,19,120,17.83l5.61-11.5Z"/><path class="cls-1" d="M147,27.14a7.77,7.77,0,0,1-2.53,2.24,5,5,0,0,1-2.85.6,5.28,5.28,0,0,1-2.74-1.1,5.23,5.23,0,0,1-1.8-2.32,5.11,5.11,0,0,1-.23-2.91,7.49,7.49,0,0,1,1.42-3l.38-.51a7.73,7.73,0,0,1,2.55-2.24,5,5,0,0,1,2.86-.6,5.22,5.22,0,0,1,2.73,1.1,5.28,5.28,0,0,1,1.81,2.33,5,5,0,0,1,.2,2.92,7.67,7.67,0,0,1-1.45,3.05Zm-1.78-2.07a5.4,5.4,0,0,0,1.27-2.88,2.55,2.55,0,0,0-3.27-2.48,5.24,5.24,0,0,0-2.4,2l-.38.5A5.43,5.43,0,0,0,139.19,25a2.52,2.52,0,0,0,3.26,2.51,5.37,5.37,0,0,0,2.4-2Z"/><path class="cls-1" d="M152.27,34.37l-1.45-1.53-3.4,3.22-1.81-1.92,9.29-8.79,3.27,3.45A5.36,5.36,0,0,1,159.84,32a3.43,3.43,0,0,1-1.23,2.85,3.57,3.57,0,0,1-4.17.8l-1.89,5.61-.09.08-2-2.05Zm.1-3,1.47,1.55a2.21,2.21,0,0,0,1.42.77,1.83,1.83,0,0,0,1.39-.57,1.92,1.92,0,0,0,.68-1.35,2.15,2.15,0,0,0-.71-1.5l-1.46-1.54Z"/><path class="cls-1" d="M163.09,46.82l-2.88-4.17-2.82,2,3.38,4.89L159,50.69l-4.88-7,10.52-7.28,4.87,7-1.75,1.22-3.37-4.88-2.51,1.74,2.88,4.16Z"/><path class="cls-1" d="M168.25,64.2l-1.68-4.31L163.8,60l-1-2.61,13.65-.21.89,2.27-10.18,9.11-1-2.61Zm.57-4.42,1.16,3,3.88-3.24Z"/><path class="cls-1" d="M167.72,71l12.53-2.61.91,4.39A5.85,5.85,0,0,1,181,76.4a3,3,0,0,1-2.32,1.71A2.86,2.86,0,0,1,177,78a2.79,2.79,0,0,1-1.3-1.11,2.71,2.71,0,0,1-.66,1.72,2.86,2.86,0,0,1-1.67.93,3.38,3.38,0,0,1-3-.58,5.31,5.31,0,0,1-1.63-3.09Zm6,1.44-3.38.71.46,2.21a2.18,2.18,0,0,0,.73,1.33,1.56,1.56,0,0,0,1.31.27,1.62,1.62,0,0,0,1.38-2.15Zm1.83-.38.39,1.92c.3,1.29.95,1.84,2,1.62a1.42,1.42,0,0,0,1.12-.75,2.62,2.62,0,0,0,0-1.63l-.37-1.81Z"/><path class="cls-1" d="M176.56,93.71a7.7,7.7,0,0,1-3.34-.54A4.92,4.92,0,0,1,171,91.35a5.27,5.27,0,0,1-.89-2.82,5.32,5.32,0,0,1,.66-2.87,5.06,5.06,0,0,1,2.11-2,7.31,7.31,0,0,1,3.23-.82l.64,0a7.58,7.58,0,0,1,3.34.56,5,5,0,0,1,2.28,1.83,5.26,5.26,0,0,1,.88,2.82,5.32,5.32,0,0,1-.66,2.87,5,5,0,0,1-2.13,2,7.57,7.57,0,0,1-3.29.81ZM177,91a5.44,5.44,0,0,0,3-.83,2.56,2.56,0,0,0-.15-4.11,5.29,5.29,0,0,0-3-.61l-.62,0a5.47,5.47,0,0,0-3,.84,2.36,2.36,0,0,0-1,2.12,2.32,2.32,0,0,0,1.12,2,5.45,5.45,0,0,0,3.06.61Z"/><path class="cls-1" d="M181.71,108.34l-8.36-1.08a4.34,4.34,0,0,1-3.13-1.73,5.91,5.91,0,0,1,.89-7.1,4.23,4.23,0,0,1,3.4-.91l8.46,1.1-.34,2.61-8.38-1.09a2.41,2.41,0,0,0-1.89.36,2.38,2.38,0,0,0-.79,1.58,2.05,2.05,0,0,0,2,2.54l8.45,1.1Z"/><path class="cls-1" d="M175.71,122.3l1.13-3.76-10.21-3.06.76-2.52L177.6,116l1.11-3.71,2,.62-3,10Z"/><path class="cls-1" d="M171.49,136.36l-9.64-2,6.23,7.63-1.81,3-10.92-6.67,1.38-2.25,3,1.82,5,3.36-6.34-7.91.94-1.55,9.93,2L164,130.83,161,129l1.38-2.25,10.92,6.66Z"/><path class="cls-1" d="M152.08,150.37l3.36-3.78-2.56-2.28-3.94,4.44-1.59-1.4,5.7-6.42,9.57,8.5-5.69,6.4-1.6-1.42,3.94-4.42L157,148l-3.36,3.78Z"/><path class="cls-1" d="M146,150.18a1.26,1.26,0,0,1,.35,1,1.39,1.39,0,0,1-.51,1,1.44,1.44,0,0,1-1,.41,1.3,1.3,0,0,1-1-.46,1.27,1.27,0,0,1-.35-1,1.46,1.46,0,0,1,.53-1,1.41,1.41,0,0,1,1-.41A1.3,1.3,0,0,1,146,150.18Z"/><path class="cls-1" d="M128.87,163.34l-5,2.52-1-1.89,7.35-3.7L136,171.7l-2.35,1.18Z"/><path class="cls-1" d="M114.78,172.71l4.8-1.6-1.09-3.25-5.63,1.88-.68-2,8.14-2.72,4.06,12.13-8.11,2.72-.68-2,5.62-1.88-1-2.9-4.8,1.61Z"/><path class="cls-1" d="M102.76,172.22l4.56-.76.43-2.74,2.77-.46-2.6,13.4-2.41.4-6.82-11.83,2.76-.46Zm4.21,1.47-3.16.52,2.38,4.46Z"/><path class="cls-1" d="M91.59,175l2.1,0-.08-4.69,2.64,0,.2,12.79-4.75.08a5.33,5.33,0,0,1-3.51-1,3.47,3.47,0,0,1-1.28-2.84,3.56,3.56,0,0,1,2.23-3.61l-2.86-5.19v-.12l2.83-.05Zm2.13,2.1-2.13,0a2.15,2.15,0,0,0-1.53.53,1.83,1.83,0,0,0-.52,1.4,1.92,1.92,0,0,0,.54,1.41,2.16,2.16,0,0,0,1.59.5l2.11,0Z"/><path class="cls-1" d="M73.31,168.36l2.6.44L79.58,178l1.39-8.3,2.6.44-2.12,12.62-2.6-.44-3.67-9.17-1.4,8.32L71.19,181Z"/><path class="cls-1" d="M55.69,175.87l1-9.8-6.91,7-3.13-1.47L52.07,160l2.39,1.12L53,164.32l-2.8,5.35,7.18-7.16,1.64.77-.94,10.09,2.33-5.57,1.49-3.17,2.38,1.12-5.44,11.58Z"/><path class="cls-1" d="M37.07,156.82a7.8,7.8,0,0,1,2.5-2.27,5,5,0,0,1,2.84-.65,5.69,5.69,0,0,1,4.6,3.36,5.1,5.1,0,0,1,.26,2.91,7.37,7.37,0,0,1-1.37,3l-.37.51A7.68,7.68,0,0,1,43,166a5.05,5.05,0,0,1-2.85.64,5.64,5.64,0,0,1-4.59-3.36,5,5,0,0,1-.25-2.92,7.68,7.68,0,0,1,1.41-3.08Zm1.81,2.05a5.36,5.36,0,0,0-1.22,2.89A2.55,2.55,0,0,0,41,164.2a5.33,5.33,0,0,0,2.38-2l.37-.5a5.51,5.51,0,0,0,1.21-2.88,2.33,2.33,0,0,0-1-2.1,2.35,2.35,0,0,0-2.26-.37,5.46,5.46,0,0,0-2.38,2Z"/><path class="cls-1" d="M31.69,149.65l1.47,1.5,3.36-3.26,1.83,1.89-9.17,8.92-3.31-3.41a5.34,5.34,0,0,1-1.72-3.21,3.47,3.47,0,0,1,1.19-2.87,3.91,3.91,0,0,1,2-1.12,3.83,3.83,0,0,1,2.2.26l1.82-5.63.09-.09,2,2Zm-.06,3-1.49-1.52a2.13,2.13,0,0,0-1.43-.75,1.79,1.79,0,0,0-1.38.58,1.94,1.94,0,0,0-.66,1.36,2.1,2.1,0,0,0,.73,1.49l1.47,1.52Z"/><path class="cls-1" d="M20.7,137.35l2.94,4.12,2.79-2L23,134.65l1.72-1.23,5,7-10.43,7.43-5-7L16,139.62l3.43,4.82L22,142.67,19,138.55Z"/><path class="cls-1" d="M15.3,120.06,17,124.34l2.78-.18,1.05,2.6-13.65.41L6.3,124.9l10.06-9.25,1.05,2.59Zm-.5,4.43-1.21-3-3.83,3.3Z"/><path class="cls-1" d="M15.75,113.32,3.26,116.11l-1-4.37a5.83,5.83,0,0,1,.1-3.64,3,3,0,0,1,2.29-1.75,2.86,2.86,0,0,1,1.72.11,2.77,2.77,0,0,1,1.32,1.08,2.7,2.7,0,0,1,.63-1.73,3,3,0,0,1,1.66-1,3.35,3.35,0,0,1,3,.54,5.31,5.31,0,0,1,1.68,3.07Zm-7.83-.95-.42-1.9c-.32-1.3-1-1.83-2-1.6a1.44,1.44,0,0,0-1.11.76,2.61,2.61,0,0,0,0,1.64l.4,1.8ZM9.74,112l3.37-.75-.49-2.2a2.25,2.25,0,0,0-.75-1.33,1.55,1.55,0,0,0-1.31-.24,1.62,1.62,0,0,0-1.35,2.17Z"/><path class="cls-1" d="M6.58,90.65a7.71,7.71,0,0,1,3.34.49,5.11,5.11,0,0,1,2.3,1.8,5.63,5.63,0,0,1,.3,5.68,5.07,5.07,0,0,1-2.08,2,7.55,7.55,0,0,1-3.22.86l-.63,0a7.68,7.68,0,0,1-3.36-.5,5.09,5.09,0,0,1-2.3-1.81A5.19,5.19,0,0,1,0,96.45a5.27,5.27,0,0,1,.62-2.88,5.17,5.17,0,0,1,2.1-2A7.79,7.79,0,0,1,6,90.68Zm-.44,2.7a5.36,5.36,0,0,0-3,.88,2.56,2.56,0,0,0,.2,4.1,5.43,5.43,0,0,0,3.07.57l.62,0A5.56,5.56,0,0,0,10,98a2.52,2.52,0,0,0-.18-4.11,5.33,5.33,0,0,0-3.07-.56Z"/><path class="cls-1" d="M1.23,76.11l8.37,1a4.3,4.3,0,0,1,3.15,1.69,5,5,0,0,1,.8,3.71A5.17,5.17,0,0,1,12,85.88a4.27,4.27,0,0,1-3.4,1l-8.47-1,.31-2.62,8.39,1a2.45,2.45,0,0,0,1.89-.39,2.32,2.32,0,0,0,.76-1.59,2.05,2.05,0,0,0-2.06-2.51l-8.46-1Z"/><path class="cls-1" d="M7,62.05,6,65.82l10.25,2.92-.72,2.53L5.24,68.35,4.18,72.07l-2.06-.58L5,61.46Z"/><path class="cls-1" d="M11,48l9.66,1.88-6.33-7.53,1.76-3,11,6.5-1.34,2.28-3-1.78L17.73,43l6.46,7.83-.92,1.56-10-1.88,5.33,2.84,3,1.78-1.34,2.27-11-6.51Z"/><path class="cls-1" d="M30.25,33.67,26.94,37.5l2.59,2.24,3.89-4.49L35,36.63l-5.61,6.49-9.68-8.36,5.59-6.48,1.62,1.4-3.87,4.48,2.31,2,3.3-3.83Z"/><path class="cls-1" d="M36.3,33.78a1.29,1.29,0,0,1-.36-1,1.43,1.43,0,0,1,.49-1,1.49,1.49,0,0,1,1-.42,1.29,1.29,0,0,1,1,.45,1.25,1.25,0,0,1,.36,1,1.61,1.61,0,0,1-1.52,1.4A1.27,1.27,0,0,1,36.3,33.78Z"/></g></g></svg>