<svg width="37" height="36" viewBox="0 0 37 36" fill="none" xmlns="http://www.w3.org/2000/svg">
<g clip-path="url(#clip0)">
<path d="M35.8954 13.9846H25.6096C25.4329 13.9846 25.2882 14.1293 25.2882 14.306V16.2346C25.2882 16.4114 25.4329 16.556 25.6096 16.556H35.8954C36.0721 16.556 36.2168 16.4114 36.2168 16.2346V14.306C36.2168 14.1293 36.0721 13.9846 35.8954 13.9846ZM30.5114 19.4489H25.6096C25.4329 19.4489 25.2882 19.5935 25.2882 19.7703V21.6989C25.2882 21.8757 25.4329 22.0203 25.6096 22.0203H30.5114C30.6882 22.0203 30.8329 21.8757 30.8329 21.6989V19.7703C30.8329 19.5935 30.6882 19.4489 30.5114 19.4489ZM17.1038 10.3886H15.3641C15.115 10.3886 14.9141 10.5895 14.9141 10.8386V20.8029C14.9141 20.9476 14.9824 21.0801 15.0989 21.1645L21.0815 25.5279C21.2824 25.6726 21.5637 25.6324 21.7083 25.4315L22.7409 24.0212V24.0172C22.8855 23.8163 22.8413 23.5351 22.6404 23.3904L17.5498 19.7101V10.8386C17.5538 10.5895 17.3489 10.3886 17.1038 10.3886Z" fill="#037971"/>
<path d="M30.2637 24.4973H27.9414C27.7164 24.4973 27.5034 24.6139 27.3829 24.8067C26.8718 25.6168 26.2722 26.3674 25.5949 27.0447C24.4289 28.2145 23.0466 29.1465 21.5248 29.7889C19.9458 30.4558 18.2704 30.7933 16.5427 30.7933C14.811 30.7933 13.1356 30.4558 11.5606 29.7889C10.0378 29.146 8.6677 28.2219 7.49047 27.0447C6.31324 25.8674 5.38913 24.4973 4.74627 22.9746C4.07931 21.3996 3.74181 19.7241 3.74181 17.9924C3.74181 16.2607 4.07931 14.5893 4.74627 13.0103C5.38913 11.4875 6.31324 10.1174 7.49047 8.9402C8.6677 7.76297 10.0378 6.83886 11.5606 6.196C13.1356 5.52904 14.815 5.19154 16.5427 5.19154C18.2744 5.19154 19.9498 5.52904 21.5248 6.196C23.0476 6.83886 24.4177 7.76297 25.5949 8.9402C26.2722 9.61748 26.8718 10.3681 27.3829 11.1781C27.5034 11.371 27.7164 11.4875 27.9414 11.4875H30.2637C30.5409 11.4875 30.7177 11.1982 30.5932 10.9531C27.9735 5.74198 22.6619 2.35493 16.7315 2.28663C8.04895 2.17814 0.8369 9.28573 0.820828 17.9603C0.804757 26.6509 7.84806 33.7023 16.5387 33.7023C22.5454 33.7023 27.9454 30.3031 30.5932 25.0317C30.6214 24.9755 30.6348 24.913 30.632 24.8501C30.6293 24.7873 30.6105 24.7262 30.5775 24.6726C30.5445 24.6191 30.4983 24.5748 30.4434 24.5442C30.3885 24.5135 30.3266 24.4974 30.2637 24.4973Z" fill="#037971"/>
</g>
<defs>
<clipPath id="clip0">
<rect width="36" height="36" fill="white" transform="translate(0.5)"/>
</clipPath>
</defs>
</svg>
