<svg xmlns="http://www.w3.org/2000/svg" viewBox="0 0 339.39 689.22"><defs><style>.cls-1,.cls-4{fill:#0a1f48;}.cls-2,.cls-5{fill:none;}.cls-2,.cls-4,.cls-5{stroke:#b0b8c3;stroke-linecap:round;stroke-linejoin:round;}.cls-2,.cls-4{stroke-width:4px;}.cls-3{font-size:28px;fill:#b0b8c3;font-family:DINAlternate-Bold, DIN Alternate;font-weight:700;letter-spacing:0.2em;}.cls-5{stroke-width:2px;}</style></defs><title>资源 32</title><g id="图层_2" data-name="图层 2"><g id="图层_1-2" data-name="图层 1"><polygon class="cls-1" points="225.28 303.63 167.88 361.03 110.48 303.63 167.88 303.63 225.28 303.63"/><circle class="cls-2" cx="223.29" cy="44.73" r="21"/><polyline class="cls-2" points="19.21 167.09 89.66 166.97 89.66 122.31 67.37 122.31 67.37 187.34 103 187.55 115.59 128.74 112.8 117.59 117.82 117.59 121.16 100.88 124.66 117.59 129.51 117.59 126.87 128.16 139.68 187.55 166.35 182.42 165.78 100.74 112.03 44.73 223.69 44.73 168.81 100.74 169.38 182.42 195.29 187.42 195.29 145.32 203.61 137.05 211.76 145.32 211.76 164.97 231.49 164.97 231.49 145.32 256.96 145.32 256.96 110.89 279.29 88.43 279.29 187.06 316.52 187.42"/><text class="cls-3" transform="translate(2.32 238.44)">SPIRITS IN THE SKY</text><circle class="cls-2" cx="223.39" cy="304.02" r="21"/><polyline class="cls-2" points="19.32 426.38 89.76 426.26 89.76 381.6 67.48 381.6 67.48 446.64 103.11 446.85 115.69 388.03 112.91 376.89 117.92 376.89 121.26 360.18 124.76 376.89 129.62 376.89 126.98 387.45 139.79 446.85 166.45 441.71 165.88 360.03 112.14 304.02 223.8 304.02 168.92 360.03 169.49 441.71 195.4 446.71 195.4 404.61 203.71 396.35 211.87 404.61 211.87 424.26 231.59 424.26 231.59 404.61 257.07 404.61 257.07 370.18 279.39 347.73 279.39 446.36 316.62 446.71"/><text class="cls-3" transform="translate(2.42 497.74)">SPIRITS IN THE SKY</text><rect class="cls-4" x="127.29" y="586.73" width="81.18" height="81.18" transform="translate(-394.41 302.45) rotate(-45)"/><line class="cls-5" x1="109.73" y1="1" x2="109.73" y2="688.22"/><line class="cls-5" x1="223.29" y1="1" x2="223.29" y2="688.22"/></g></g></svg>