<svg xmlns="http://www.w3.org/2000/svg" viewBox="0 0 784.73 1173.15"><defs><style>.cls-1{fill:#fff;}.cls-2{opacity:0.08;}.cls-3{fill:#b8cdde;}.cls-4{fill:#235b92;}</style></defs><title>资源 31</title><g id="图层_2" data-name="图层 2"><g id="图层_1-2" data-name="图层 1"><rect class="cls-1" x="0.52" width="783.77" height="1173.1"/><g class="cls-2"><rect class="cls-3" x="7.18" y="7.4" width="34.65" height="34.65" transform="translate(-10.31 24.57) rotate(-45)"/><rect class="cls-4" x="56.04" y="7.4" width="34.65" height="34.65" transform="translate(4 59.12) rotate(-45)"/><rect class="cls-3" x="56.06" y="56.32" width="34.65" height="34.65" transform="translate(-30.59 73.46) rotate(-45)"/><rect class="cls-4" x="104.92" y="56.32" width="34.65" height="34.65" transform="translate(-16.27 108.01) rotate(-45)"/><rect class="cls-3" x="105.26" y="7.4" width="34.65" height="34.65" transform="translate(18.42 93.92) rotate(-45)"/><rect class="cls-4" x="154.12" y="7.4" width="34.65" height="34.65" transform="translate(32.73 128.47) rotate(-45)"/><rect class="cls-3" x="154.14" y="56.32" width="34.65" height="34.65" transform="translate(-1.86 142.81) rotate(-45)"/><rect class="cls-4" x="203" y="56.32" width="34.65" height="34.65" transform="translate(12.45 177.36) rotate(-45)"/><rect class="cls-3" x="202.98" y="7.35" width="34.65" height="34.65" transform="translate(47.08 163) rotate(-45)"/><rect class="cls-4" x="251.84" y="7.35" width="34.65" height="34.65" transform="translate(61.39 197.55) rotate(-45)"/><rect class="cls-3" x="251.85" y="56.27" width="34.65" height="34.65" transform="translate(26.8 211.89) rotate(-45)"/><rect class="cls-4" x="300.71" y="56.27" width="34.65" height="34.65" transform="translate(41.11 246.44) rotate(-45)"/><rect class="cls-3" x="301.06" y="7.35" width="34.65" height="34.65" transform="translate(75.81 232.36) rotate(-45)"/><rect class="cls-4" x="349.92" y="7.35" width="34.65" height="34.65" transform="translate(90.12 266.91) rotate(-45)"/><rect class="cls-3" x="349.93" y="56.27" width="34.65" height="34.65" transform="translate(55.53 281.25) rotate(-45)"/><rect class="cls-4" x="398.79" y="56.27" width="34.65" height="34.65" transform="translate(69.84 315.8) rotate(-45)"/><rect class="cls-3" x="399.21" y="7.4" width="34.65" height="34.65" transform="translate(104.52 301.77) rotate(-45)"/><rect class="cls-4" x="448.07" y="7.4" width="34.65" height="34.65" transform="translate(118.83 336.32) rotate(-45)"/><rect class="cls-3" x="448.08" y="56.32" width="34.65" height="34.65" transform="translate(84.24 350.67) rotate(-45)"/><rect class="cls-4" x="496.94" y="56.32" width="34.65" height="34.65" transform="translate(98.55 385.21) rotate(-45)"/><rect class="cls-3" x="497.29" y="7.4" width="34.65" height="34.65" transform="translate(133.24 371.13) rotate(-45)"/><rect class="cls-4" x="546.15" y="7.4" width="34.65" height="34.65" transform="translate(147.56 405.68) rotate(-45)"/><rect class="cls-3" x="546.16" y="56.32" width="34.65" height="34.65" transform="translate(112.97 420.02) rotate(-45)"/><rect class="cls-4" x="595.02" y="56.32" width="34.65" height="34.65" transform="translate(127.28 454.57) rotate(-45)"/><rect class="cls-3" x="595" y="7.38" width="34.65" height="34.65" transform="translate(161.87 440.22) rotate(-45)"/><rect class="cls-4" x="643.86" y="7.38" width="34.65" height="34.65" transform="translate(176.18 474.77) rotate(-45)"/><rect class="cls-3" x="643.88" y="56.31" width="34.65" height="34.65" transform="translate(141.6 489.11) rotate(-45)"/><rect class="cls-4" x="692.74" y="56.31" width="34.65" height="34.65" transform="translate(155.91 523.66) rotate(-45)"/><rect class="cls-3" x="693.08" y="7.38" width="34.65" height="34.65" transform="translate(190.6 509.57) rotate(-45)"/><rect class="cls-4" x="741.94" y="7.38" width="34.65" height="34.65" transform="translate(204.91 544.12) rotate(-45)"/><rect class="cls-3" x="741.96" y="56.31" width="34.65" height="34.65" transform="translate(170.32 558.46) rotate(-45)"/><rect class="cls-4" x="7.4" y="56.32" width="34.65" height="34.65" transform="translate(-44.84 39.06) rotate(-45)"/><rect class="cls-3" x="7.91" y="104.73" width="34.65" height="34.65" transform="translate(-78.92 53.59) rotate(-45)"/><rect class="cls-4" x="56.77" y="104.73" width="34.65" height="34.65" transform="translate(-64.61 88.14) rotate(-45)"/><rect class="cls-3" x="56.79" y="153.65" width="34.65" height="34.65" transform="translate(-99.19 102.48) rotate(-45)"/><rect class="cls-4" x="105.65" y="153.65" width="34.65" height="34.65" transform="translate(-84.88 137.03) rotate(-45)"/><rect class="cls-3" x="105.99" y="104.73" width="34.65" height="34.65" transform="translate(-50.19 122.95) rotate(-45)"/><rect class="cls-4" x="154.85" y="104.73" width="34.65" height="34.65" transform="translate(-35.88 157.49) rotate(-45)"/><rect class="cls-3" x="154.87" y="153.65" width="34.65" height="34.65" transform="translate(-70.47 171.84) rotate(-45)"/><rect class="cls-4" x="203.73" y="153.65" width="34.65" height="34.65" transform="translate(-56.16 206.39) rotate(-45)"/><rect class="cls-3" x="203.71" y="104.67" width="34.65" height="34.65" transform="translate(-21.53 192.03) rotate(-45)"/><rect class="cls-4" x="252.57" y="104.67" width="34.65" height="34.65" transform="translate(-7.22 226.58) rotate(-45)"/><rect class="cls-3" x="252.58" y="153.59" width="34.65" height="34.65" transform="translate(-41.8 240.92) rotate(-45)"/><rect class="cls-4" x="301.44" y="153.59" width="34.65" height="34.65" transform="translate(-27.49 275.47) rotate(-45)"/><rect class="cls-3" x="301.79" y="104.67" width="34.65" height="34.65" transform="translate(7.2 261.38) rotate(-45)"/><rect class="cls-4" x="350.65" y="104.67" width="34.65" height="34.65" transform="translate(21.51 295.93) rotate(-45)"/><rect class="cls-3" x="350.66" y="153.59" width="34.65" height="34.65" transform="translate(-13.08 310.27) rotate(-45)"/><rect class="cls-4" x="399.52" y="153.59" width="34.65" height="34.65" transform="translate(1.23 344.82) rotate(-45)"/><rect class="cls-3" x="399.94" y="104.73" width="34.65" height="34.65" transform="translate(35.91 330.8) rotate(-45)"/><rect class="cls-4" x="448.8" y="104.73" width="34.65" height="34.65" transform="translate(50.22 365.35) rotate(-45)"/><rect class="cls-3" x="448.81" y="153.65" width="34.65" height="34.65" transform="translate(15.63 379.69) rotate(-45)"/><rect class="cls-4" x="497.67" y="153.65" width="34.65" height="34.65" transform="translate(29.94 414.24) rotate(-45)"/><rect class="cls-3" x="498.02" y="104.73" width="34.65" height="34.65" transform="translate(64.64 400.15) rotate(-45)"/><rect class="cls-4" x="546.88" y="104.73" width="34.65" height="34.65" transform="translate(78.95 434.7) rotate(-45)"/><rect class="cls-3" x="546.89" y="153.65" width="34.65" height="34.65" transform="translate(44.36 449.04) rotate(-45)"/><rect class="cls-4" x="595.75" y="153.65" width="34.65" height="34.65" transform="translate(58.67 483.59) rotate(-45)"/><rect class="cls-3" x="595.73" y="104.71" width="34.65" height="34.65" transform="translate(93.27 469.24) rotate(-45)"/><rect class="cls-4" x="644.59" y="104.71" width="34.65" height="34.65" transform="translate(107.58 503.79) rotate(-45)"/><rect class="cls-3" x="644.61" y="153.63" width="34.65" height="34.65" transform="translate(72.99 518.13) rotate(-45)"/><rect class="cls-4" x="693.47" y="153.63" width="34.65" height="34.65" transform="translate(87.3 552.68) rotate(-45)"/><rect class="cls-3" x="693.81" y="104.71" width="34.65" height="34.65" transform="translate(121.99 538.6) rotate(-45)"/><rect class="cls-4" x="742.67" y="104.71" width="34.65" height="34.65" transform="translate(136.3 573.15) rotate(-45)"/><rect class="cls-3" x="742.69" y="153.63" width="34.65" height="34.65" transform="translate(101.72 587.49) rotate(-45)"/><rect class="cls-4" x="8.13" y="153.65" width="34.65" height="34.65" transform="translate(-113.44 68.08) rotate(-45)"/></g><g class="cls-2"><rect class="cls-3" x="7.32" y="203.09" width="34.65" height="34.65" transform="translate(-148.64 81.99) rotate(-45)"/><rect class="cls-4" x="56.18" y="203.09" width="34.65" height="34.65" transform="translate(-134.33 116.53) rotate(-45)"/><rect class="cls-3" x="56.2" y="252.01" width="34.65" height="34.65" transform="translate(-168.92 130.88) rotate(-45)"/><rect class="cls-4" x="105.06" y="252.01" width="34.65" height="34.65" transform="translate(-154.61 165.43) rotate(-45)"/><rect class="cls-3" x="105.4" y="203.09" width="34.65" height="34.65" transform="translate(-119.92 151.34) rotate(-45)"/><rect class="cls-4" x="154.26" y="203.09" width="34.65" height="34.65" transform="translate(-105.6 185.89) rotate(-45)"/><rect class="cls-3" x="154.28" y="252.01" width="34.65" height="34.65" transform="translate(-140.19 200.23) rotate(-45)"/><rect class="cls-4" x="203.14" y="252.01" width="34.65" height="34.65" transform="translate(-125.88 234.78) rotate(-45)"/><rect class="cls-3" x="203.12" y="203.04" width="34.65" height="34.65" transform="translate(-91.25 220.42) rotate(-45)"/><rect class="cls-4" x="251.98" y="203.04" width="34.65" height="34.65" transform="translate(-76.94 254.97) rotate(-45)"/><rect class="cls-3" x="252" y="251.96" width="34.65" height="34.65" transform="translate(-111.53 269.31) rotate(-45)"/><rect class="cls-4" x="300.86" y="251.96" width="34.65" height="34.65" transform="translate(-97.22 303.86) rotate(-45)"/><rect class="cls-3" x="301.2" y="203.04" width="34.65" height="34.65" transform="translate(-62.53 289.77) rotate(-45)"/><rect class="cls-4" x="350.06" y="203.04" width="34.65" height="34.65" transform="translate(-48.22 324.32) rotate(-45)"/><rect class="cls-3" x="350.08" y="251.96" width="34.65" height="34.65" transform="translate(-82.8 338.66) rotate(-45)"/><rect class="cls-4" x="398.94" y="251.96" width="34.65" height="34.65" transform="translate(-68.49 373.21) rotate(-45)"/><rect class="cls-3" x="399.35" y="203.09" width="34.65" height="34.65" transform="translate(-33.82 359.19) rotate(-45)"/><rect class="cls-4" x="448.21" y="203.09" width="34.65" height="34.65" transform="translate(-19.5 393.74) rotate(-45)"/><rect class="cls-3" x="448.23" y="252.01" width="34.65" height="34.65" transform="translate(-54.09 408.08) rotate(-45)"/><rect class="cls-4" x="497.08" y="252.01" width="34.65" height="34.65" transform="translate(-39.78 442.63) rotate(-45)"/><rect class="cls-3" x="497.43" y="203.09" width="34.65" height="34.65" transform="translate(-5.09 428.54) rotate(-45)"/><rect class="cls-4" x="546.29" y="203.09" width="34.65" height="34.65" transform="translate(9.22 463.09) rotate(-45)"/><rect class="cls-3" x="546.31" y="252.01" width="34.65" height="34.65" transform="translate(-25.36 477.43) rotate(-45)"/><rect class="cls-4" x="595.16" y="252.01" width="34.65" height="34.65" transform="translate(-11.05 511.98) rotate(-45)"/><rect class="cls-3" x="595.14" y="203.08" width="34.65" height="34.65" transform="translate(23.54 497.64) rotate(-45)"/><rect class="cls-4" x="644" y="203.08" width="34.65" height="34.65" transform="translate(37.85 532.19) rotate(-45)"/><rect class="cls-3" x="644.02" y="252" width="34.65" height="34.65" transform="translate(3.26 546.53) rotate(-45)"/><rect class="cls-4" x="692.88" y="252" width="34.65" height="34.65" transform="translate(17.58 581.08) rotate(-45)"/><rect class="cls-3" x="693.22" y="203.08" width="34.65" height="34.65" transform="translate(52.27 566.99) rotate(-45)"/><rect class="cls-4" x="742.08" y="203.08" width="34.65" height="34.65" transform="translate(66.58 601.54) rotate(-45)"/><rect class="cls-3" x="742.1" y="252" width="34.65" height="34.65" transform="translate(31.99 615.88) rotate(-45)"/><rect class="cls-4" x="7.54" y="252.01" width="34.65" height="34.65" transform="translate(-183.17 96.47) rotate(-45)"/><rect class="cls-3" x="8.05" y="300.42" width="34.65" height="34.65" transform="translate(-217.25 111.01) rotate(-45)"/><rect class="cls-4" x="56.91" y="300.42" width="34.65" height="34.65" transform="translate(-202.94 145.56) rotate(-45)"/><rect class="cls-3" x="56.93" y="349.34" width="34.65" height="34.65" transform="translate(-237.53 159.9) rotate(-45)"/><rect class="cls-4" x="105.79" y="349.34" width="34.65" height="34.65" transform="translate(-223.22 194.45) rotate(-45)"/><rect class="cls-3" x="106.13" y="300.42" width="34.65" height="34.65" transform="translate(-188.52 180.36) rotate(-45)"/><rect class="cls-4" x="154.99" y="300.42" width="34.65" height="34.65" transform="translate(-174.21 214.91) rotate(-45)"/><rect class="cls-3" x="155.01" y="349.34" width="34.65" height="34.65" transform="translate(-208.8 229.25) rotate(-45)"/><rect class="cls-4" x="203.87" y="349.34" width="34.65" height="34.65" transform="translate(-194.49 263.8) rotate(-45)"/><rect class="cls-3" x="203.85" y="300.36" width="34.65" height="34.65" transform="translate(-159.86 249.44) rotate(-45)"/><rect class="cls-4" x="252.71" y="300.36" width="34.65" height="34.65" transform="translate(-145.55 283.99) rotate(-45)"/><rect class="cls-3" x="252.73" y="349.29" width="34.65" height="34.65" transform="translate(-180.14 298.33) rotate(-45)"/><rect class="cls-4" x="301.59" y="349.29" width="34.65" height="34.65" transform="translate(-165.83 332.88) rotate(-45)"/><rect class="cls-3" x="301.93" y="300.36" width="34.65" height="34.65" transform="translate(-131.13 318.8) rotate(-45)"/><rect class="cls-4" x="350.79" y="300.36" width="34.65" height="34.65" transform="translate(-116.82 353.34) rotate(-45)"/><rect class="cls-3" x="350.81" y="349.29" width="34.65" height="34.65" transform="translate(-151.41 367.69) rotate(-45)"/><rect class="cls-4" x="399.67" y="349.29" width="34.65" height="34.65" transform="translate(-137.1 402.24) rotate(-45)"/><rect class="cls-3" x="400.08" y="300.42" width="34.65" height="34.65" transform="translate(-102.42 388.21) rotate(-45)"/><rect class="cls-4" x="448.94" y="300.42" width="34.65" height="34.65" transform="translate(-88.11 422.76) rotate(-45)"/><rect class="cls-3" x="448.96" y="349.34" width="34.65" height="34.65" transform="translate(-122.7 437.1) rotate(-45)"/><rect class="cls-4" x="497.81" y="349.34" width="34.65" height="34.65" transform="translate(-108.39 471.65) rotate(-45)"/><rect class="cls-3" x="498.16" y="300.42" width="34.65" height="34.65" transform="translate(-73.7 457.57) rotate(-45)"/><rect class="cls-4" x="547.02" y="300.42" width="34.65" height="34.65" transform="translate(-59.39 492.12) rotate(-45)"/><rect class="cls-3" x="547.04" y="349.34" width="34.65" height="34.65" transform="translate(-93.97 506.46) rotate(-45)"/><rect class="cls-4" x="595.89" y="349.34" width="34.65" height="34.65" transform="translate(-79.66 541.01) rotate(-45)"/><rect class="cls-3" x="595.87" y="300.4" width="34.65" height="34.65" transform="translate(-45.07 526.66) rotate(-45)"/><rect class="cls-4" x="644.73" y="300.4" width="34.65" height="34.65" transform="translate(-30.76 561.21) rotate(-45)"/><rect class="cls-3" x="644.75" y="349.32" width="34.65" height="34.65" transform="translate(-65.34 575.55) rotate(-45)"/><rect class="cls-4" x="693.61" y="349.32" width="34.65" height="34.65" transform="translate(-51.03 610.1) rotate(-45)"/><rect class="cls-3" x="693.95" y="300.4" width="34.65" height="34.65" transform="translate(-16.34 596.01) rotate(-45)"/><rect class="cls-4" x="742.81" y="300.4" width="34.65" height="34.65" transform="translate(-2.03 630.56) rotate(-45)"/><rect class="cls-3" x="742.83" y="349.32" width="34.65" height="34.65" transform="translate(-36.62 644.9) rotate(-45)"/><rect class="cls-4" x="8.27" y="349.34" width="34.65" height="34.65" transform="translate(-251.78 125.5) rotate(-45)"/></g><g class="cls-2"><rect class="cls-3" x="7.25" y="398.43" width="34.65" height="34.65" transform="translate(-286.79 139.15) rotate(-45)"/><rect class="cls-4" x="56.11" y="398.43" width="34.65" height="34.65" transform="translate(-272.48 173.7) rotate(-45)"/><rect class="cls-3" x="56.13" y="447.35" width="34.65" height="34.65" transform="translate(-307.06 188.04) rotate(-45)"/><rect class="cls-4" x="104.99" y="447.35" width="34.65" height="34.65" transform="translate(-292.75 222.59) rotate(-45)"/><rect class="cls-3" x="105.33" y="398.43" width="34.65" height="34.65" transform="translate(-258.06 208.5) rotate(-45)"/><rect class="cls-4" x="154.19" y="398.43" width="34.65" height="34.65" transform="translate(-243.75 243.05) rotate(-45)"/><rect class="cls-3" x="154.21" y="447.35" width="34.65" height="34.65" transform="translate(-278.33 257.39) rotate(-45)"/><rect class="cls-4" x="203.07" y="447.35" width="34.65" height="34.65" transform="translate(-264.02 291.94) rotate(-45)"/><rect class="cls-3" x="203.05" y="398.37" width="34.65" height="34.65" transform="translate(-229.4 277.58) rotate(-45)"/><rect class="cls-4" x="251.91" y="398.37" width="34.65" height="34.65" transform="translate(-215.09 312.13) rotate(-45)"/><rect class="cls-3" x="251.93" y="447.29" width="34.65" height="34.65" transform="translate(-249.67 326.47) rotate(-45)"/><rect class="cls-4" x="300.78" y="447.29" width="34.65" height="34.65" transform="translate(-235.36 361.02) rotate(-45)"/><rect class="cls-3" x="301.13" y="398.37" width="34.65" height="34.65" transform="translate(-200.67 346.94) rotate(-45)"/><rect class="cls-4" x="349.99" y="398.37" width="34.65" height="34.65" transform="translate(-186.36 381.48) rotate(-45)"/><rect class="cls-3" x="350.01" y="447.29" width="34.65" height="34.65" transform="translate(-220.95 395.83) rotate(-45)"/><rect class="cls-4" x="398.86" y="447.29" width="34.65" height="34.65" transform="translate(-206.64 430.38) rotate(-45)"/><rect class="cls-3" x="399.28" y="398.42" width="34.65" height="34.65" transform="translate(-171.96 416.35) rotate(-45)"/><rect class="cls-4" x="448.14" y="398.42" width="34.65" height="34.65" transform="translate(-157.65 450.9) rotate(-45)"/><rect class="cls-3" x="448.15" y="447.34" width="34.65" height="34.65" transform="translate(-192.23 465.24) rotate(-45)"/><rect class="cls-4" x="497.01" y="447.34" width="34.65" height="34.65" transform="translate(-177.92 499.79) rotate(-45)"/><rect class="cls-3" x="497.36" y="398.42" width="34.65" height="34.65" transform="translate(-143.23 485.71) rotate(-45)"/><rect class="cls-4" x="546.22" y="398.42" width="34.65" height="34.65" transform="translate(-128.92 520.25) rotate(-45)"/><rect class="cls-3" x="546.23" y="447.34" width="34.65" height="34.65" transform="translate(-163.51 534.6) rotate(-45)"/><rect class="cls-4" x="595.09" y="447.34" width="34.65" height="34.65" transform="translate(-149.2 569.15) rotate(-45)"/><rect class="cls-3" x="595.07" y="398.41" width="34.65" height="34.65" transform="translate(-114.6 554.8) rotate(-45)"/><rect class="cls-4" x="643.93" y="398.41" width="34.65" height="34.65" transform="translate(-100.29 589.35) rotate(-45)"/><rect class="cls-3" x="643.95" y="447.33" width="34.65" height="34.65" transform="translate(-134.88 603.69) rotate(-45)"/><rect class="cls-4" x="692.81" y="447.33" width="34.65" height="34.65" transform="translate(-120.57 638.24) rotate(-45)"/><rect class="cls-3" x="693.15" y="398.41" width="34.65" height="34.65" transform="translate(-85.88 624.15) rotate(-45)"/><rect class="cls-4" x="742.01" y="398.41" width="34.65" height="34.65" transform="translate(-71.56 658.7) rotate(-45)"/><rect class="cls-3" x="742.03" y="447.33" width="34.65" height="34.65" transform="translate(-106.15 673.04) rotate(-45)"/><rect class="cls-4" x="7.47" y="447.35" width="34.65" height="34.65" transform="translate(-321.31 153.64) rotate(-45)"/><rect class="cls-3" x="7.98" y="495.76" width="34.65" height="34.65" transform="translate(-355.39 168.17) rotate(-45)"/><rect class="cls-4" x="56.84" y="495.76" width="34.65" height="34.65" transform="translate(-341.08 202.72) rotate(-45)"/><rect class="cls-3" x="56.86" y="544.68" width="34.65" height="34.65" transform="translate(-375.67 217.06) rotate(-45)"/><rect class="cls-4" x="105.72" y="544.68" width="34.65" height="34.65" transform="translate(-361.36 251.61) rotate(-45)"/><rect class="cls-3" x="106.06" y="495.76" width="34.65" height="34.65" transform="translate(-326.67 237.52) rotate(-45)"/><rect class="cls-4" x="154.92" y="495.76" width="34.65" height="34.65" transform="translate(-312.36 272.07) rotate(-45)"/><rect class="cls-3" x="154.94" y="544.68" width="34.65" height="34.65" transform="translate(-346.94 286.42) rotate(-45)"/><rect class="cls-4" x="203.8" y="544.68" width="34.65" height="34.65" transform="translate(-332.63 320.96) rotate(-45)"/><rect class="cls-3" x="203.78" y="495.7" width="34.65" height="34.65" transform="translate(-298 306.61) rotate(-45)"/><rect class="cls-4" x="252.64" y="495.7" width="34.65" height="34.65" transform="translate(-283.69 341.15) rotate(-45)"/><rect class="cls-3" x="252.66" y="544.62" width="34.65" height="34.65" transform="translate(-318.28 355.5) rotate(-45)"/><rect class="cls-4" x="301.51" y="544.62" width="34.65" height="34.65" transform="translate(-303.97 390.05) rotate(-45)"/><rect class="cls-3" x="301.86" y="495.7" width="34.65" height="34.65" transform="translate(-269.28 375.96) rotate(-45)"/><rect class="cls-4" x="350.72" y="495.7" width="34.65" height="34.65" transform="translate(-254.97 410.51) rotate(-45)"/><rect class="cls-3" x="350.74" y="544.62" width="34.65" height="34.65" transform="translate(-289.55 424.85) rotate(-45)"/><rect class="cls-4" x="399.59" y="544.62" width="34.65" height="34.65" transform="translate(-275.24 459.4) rotate(-45)"/><rect class="cls-3" x="400.01" y="495.75" width="34.65" height="34.65" transform="translate(-240.57 445.38) rotate(-45)"/><rect class="cls-4" x="448.87" y="495.75" width="34.65" height="34.65" transform="translate(-226.26 479.92) rotate(-45)"/><rect class="cls-3" x="448.88" y="544.67" width="34.65" height="34.65" transform="translate(-260.84 494.27) rotate(-45)"/><rect class="cls-4" x="497.74" y="544.67" width="34.65" height="34.65" transform="translate(-246.53 528.82) rotate(-45)"/><rect class="cls-3" x="498.09" y="495.75" width="34.65" height="34.65" transform="translate(-211.84 514.73) rotate(-45)"/><rect class="cls-4" x="546.95" y="495.75" width="34.65" height="34.65" transform="translate(-197.53 549.28) rotate(-45)"/><rect class="cls-3" x="546.96" y="544.67" width="34.65" height="34.65" transform="translate(-232.12 563.62) rotate(-45)"/><rect class="cls-4" x="595.82" y="544.67" width="34.65" height="34.65" transform="translate(-217.81 598.17) rotate(-45)"/><rect class="cls-3" x="595.8" y="495.74" width="34.65" height="34.65" transform="translate(-183.21 583.82) rotate(-45)"/><rect class="cls-4" x="644.66" y="495.74" width="34.65" height="34.65" transform="translate(-168.9 618.37) rotate(-45)"/><rect class="cls-3" x="644.68" y="544.66" width="34.65" height="34.65" transform="translate(-203.49 632.71) rotate(-45)"/><rect class="cls-4" x="693.54" y="544.66" width="34.65" height="34.65" transform="translate(-189.18 667.26) rotate(-45)"/><rect class="cls-3" x="693.88" y="495.74" width="34.65" height="34.65" transform="translate(-154.48 653.18) rotate(-45)"/><rect class="cls-4" x="742.74" y="495.74" width="34.65" height="34.65" transform="translate(-140.17 687.72) rotate(-45)"/><rect class="cls-3" x="742.76" y="544.66" width="34.65" height="34.65" transform="translate(-174.76 702.07) rotate(-45)"/><rect class="cls-4" x="8.2" y="544.68" width="34.65" height="34.65" transform="translate(-389.92 182.66) rotate(-45)"/></g><g class="cls-2"><rect class="cls-3" x="7.39" y="594.12" width="34.65" height="34.65" transform="translate(-425.12 196.56) rotate(-45)"/><rect class="cls-4" x="56.25" y="594.12" width="34.65" height="34.65" transform="translate(-410.81 231.11) rotate(-45)"/><rect class="cls-3" x="56.27" y="643.04" width="34.65" height="34.65" transform="translate(-445.39 245.45) rotate(-45)"/><rect class="cls-4" x="105.13" y="643.04" width="34.65" height="34.65" transform="translate(-431.08 280) rotate(-45)"/><rect class="cls-3" x="105.47" y="594.12" width="34.65" height="34.65" transform="translate(-396.39 265.92) rotate(-45)"/><rect class="cls-4" x="154.33" y="594.12" width="34.65" height="34.65" transform="translate(-382.08 300.47) rotate(-45)"/><rect class="cls-3" x="154.35" y="643.04" width="34.65" height="34.65" transform="translate(-416.67 314.81) rotate(-45)"/><rect class="cls-4" x="203.21" y="643.04" width="34.65" height="34.65" transform="translate(-402.36 349.36) rotate(-45)"/><rect class="cls-3" x="203.19" y="594.06" width="34.65" height="34.65" transform="translate(-367.73 335) rotate(-45)"/><rect class="cls-4" x="252.05" y="594.06" width="34.65" height="34.65" transform="translate(-353.42 369.55) rotate(-45)"/><rect class="cls-3" x="252.07" y="642.98" width="34.65" height="34.65" transform="translate(-388.01 383.89) rotate(-45)"/><rect class="cls-4" x="300.93" y="642.98" width="34.65" height="34.65" transform="translate(-373.69 418.44) rotate(-45)"/><rect class="cls-3" x="301.27" y="594.06" width="34.65" height="34.65" transform="translate(-339 404.35) rotate(-45)"/><rect class="cls-4" x="350.13" y="594.06" width="34.65" height="34.65" transform="translate(-324.69 438.9) rotate(-45)"/><rect class="cls-3" x="350.15" y="642.98" width="34.65" height="34.65" transform="translate(-359.28 453.24) rotate(-45)"/><rect class="cls-4" x="399.01" y="642.98" width="34.65" height="34.65" transform="translate(-344.97 487.79) rotate(-45)"/><rect class="cls-3" x="399.42" y="594.11" width="34.65" height="34.65" transform="translate(-310.29 473.77) rotate(-45)"/><rect class="cls-4" x="448.28" y="594.11" width="34.65" height="34.65" transform="translate(-295.98 508.32) rotate(-45)"/><rect class="cls-3" x="448.3" y="643.03" width="34.65" height="34.65" transform="translate(-330.57 522.66) rotate(-45)"/><rect class="cls-4" x="497.16" y="643.03" width="34.65" height="34.65" transform="translate(-316.26 557.21) rotate(-45)"/><rect class="cls-3" x="497.5" y="594.11" width="34.65" height="34.65" transform="translate(-281.56 543.12) rotate(-45)"/><rect class="cls-4" x="546.36" y="594.11" width="34.65" height="34.65" transform="translate(-267.25 577.67) rotate(-45)"/><rect class="cls-3" x="546.38" y="643.03" width="34.65" height="34.65" transform="translate(-301.84 592.01) rotate(-45)"/><rect class="cls-4" x="595.24" y="643.03" width="34.65" height="34.65" transform="translate(-287.53 626.56) rotate(-45)"/><rect class="cls-3" x="595.21" y="594.1" width="34.65" height="34.65" transform="translate(-252.94 612.21) rotate(-45)"/><rect class="cls-4" x="644.07" y="594.1" width="34.65" height="34.65" transform="translate(-238.62 646.76) rotate(-45)"/><rect class="cls-3" x="644.09" y="643.02" width="34.65" height="34.65" transform="translate(-273.21 661.11) rotate(-45)"/><rect class="cls-4" x="692.95" y="643.02" width="34.65" height="34.65" transform="translate(-258.9 695.65) rotate(-45)"/><rect class="cls-3" x="693.29" y="594.1" width="34.65" height="34.65" transform="translate(-224.21 681.57) rotate(-45)"/><rect class="cls-4" x="742.15" y="594.1" width="34.65" height="34.65" transform="translate(-209.9 716.12) rotate(-45)"/><rect class="cls-3" x="742.17" y="643.02" width="34.65" height="34.65" transform="translate(-244.48 730.46) rotate(-45)"/><rect class="cls-4" x="7.61" y="643.04" width="34.65" height="34.65" transform="translate(-459.65 211.05) rotate(-45)"/><rect class="cls-3" x="8.12" y="691.45" width="34.65" height="34.65" transform="translate(-493.73 225.59) rotate(-45)"/><rect class="cls-4" x="56.98" y="691.45" width="34.65" height="34.65" transform="translate(-479.42 260.14) rotate(-45)"/><rect class="cls-3" x="57" y="740.37" width="34.65" height="34.65" transform="translate(-514 274.48) rotate(-45)"/><rect class="cls-4" x="105.86" y="740.37" width="34.65" height="34.65" transform="translate(-499.69 309.03) rotate(-45)"/><rect class="cls-3" x="106.2" y="691.45" width="34.65" height="34.65" transform="translate(-465 294.94) rotate(-45)"/><rect class="cls-4" x="155.06" y="691.45" width="34.65" height="34.65" transform="translate(-450.69 329.49) rotate(-45)"/><rect class="cls-3" x="155.08" y="740.37" width="34.65" height="34.65" transform="translate(-485.28 343.83) rotate(-45)"/><rect class="cls-4" x="203.94" y="740.37" width="34.65" height="34.65" transform="translate(-470.97 378.38) rotate(-45)"/><rect class="cls-3" x="203.92" y="691.39" width="34.65" height="34.65" transform="translate(-436.34 364.02) rotate(-45)"/><rect class="cls-4" x="252.78" y="691.39" width="34.65" height="34.65" transform="translate(-422.03 398.57) rotate(-45)"/><rect class="cls-3" x="252.8" y="740.31" width="34.65" height="34.65" transform="translate(-456.61 412.91) rotate(-45)"/><rect class="cls-4" x="301.66" y="740.31" width="34.65" height="34.65" transform="translate(-442.3 447.46) rotate(-45)"/><rect class="cls-3" x="302" y="691.39" width="34.65" height="34.65" transform="translate(-407.61 433.37) rotate(-45)"/><rect class="cls-4" x="350.86" y="691.39" width="34.65" height="34.65" transform="translate(-393.3 467.92) rotate(-45)"/><rect class="cls-3" x="350.88" y="740.31" width="34.65" height="34.65" transform="translate(-427.89 482.27) rotate(-45)"/><rect class="cls-4" x="399.74" y="740.31" width="34.65" height="34.65" transform="translate(-413.58 516.81) rotate(-45)"/><rect class="cls-3" x="400.15" y="691.44" width="34.65" height="34.65" transform="translate(-378.9 502.79) rotate(-45)"/><rect class="cls-4" x="449.01" y="691.44" width="34.65" height="34.65" transform="translate(-364.59 537.34) rotate(-45)"/><rect class="cls-3" x="449.03" y="740.36" width="34.65" height="34.65" transform="translate(-399.18 551.68) rotate(-45)"/><rect class="cls-4" x="497.89" y="740.36" width="34.65" height="34.65" transform="translate(-384.87 586.23) rotate(-45)"/><rect class="cls-3" x="498.23" y="691.44" width="34.65" height="34.65" transform="translate(-350.17 572.14) rotate(-45)"/><rect class="cls-4" x="547.09" y="691.44" width="34.65" height="34.65" transform="translate(-335.86 606.69) rotate(-45)"/><rect class="cls-3" x="547.11" y="740.36" width="34.65" height="34.65" transform="translate(-370.45 621.04) rotate(-45)"/><rect class="cls-4" x="595.97" y="740.36" width="34.65" height="34.65" transform="translate(-356.14 655.58) rotate(-45)"/><rect class="cls-3" x="595.94" y="691.43" width="34.65" height="34.65" transform="translate(-321.54 641.24) rotate(-45)"/><rect class="cls-4" x="644.8" y="691.43" width="34.65" height="34.65" transform="translate(-307.23 675.79) rotate(-45)"/><rect class="cls-3" x="644.82" y="740.35" width="34.65" height="34.65" transform="translate(-341.82 690.13) rotate(-45)"/><rect class="cls-4" x="693.68" y="740.35" width="34.65" height="34.65" transform="translate(-327.51 724.68) rotate(-45)"/><rect class="cls-3" x="694.02" y="691.43" width="34.65" height="34.65" transform="translate(-292.82 710.59) rotate(-45)"/><rect class="cls-4" x="742.88" y="691.43" width="34.65" height="34.65" transform="translate(-278.51 745.14) rotate(-45)"/><rect class="cls-3" x="742.9" y="740.35" width="34.65" height="34.65" transform="translate(-313.09 759.48) rotate(-45)"/><rect class="cls-4" x="8.34" y="740.37" width="34.65" height="34.65" transform="translate(-528.25 240.07) rotate(-45)"/></g><g class="cls-2"><rect class="cls-3" x="7.25" y="789.38" width="34.65" height="34.65" transform="translate(-563.23 253.66) rotate(-45)"/><rect class="cls-4" x="56.11" y="789.38" width="34.65" height="34.65" transform="translate(-548.92 288.21) rotate(-45)"/><rect class="cls-3" x="56.13" y="838.3" width="34.65" height="34.65" transform="translate(-583.51 302.55) rotate(-45)"/><rect class="cls-4" x="104.99" y="838.3" width="34.65" height="34.65" transform="translate(-569.2 337.1) rotate(-45)"/><rect class="cls-3" x="105.33" y="789.38" width="34.65" height="34.65" transform="translate(-534.51 323.01) rotate(-45)"/><rect class="cls-4" x="154.19" y="789.38" width="34.65" height="34.65" transform="translate(-520.2 357.56) rotate(-45)"/><rect class="cls-3" x="154.21" y="838.3" width="34.65" height="34.65" transform="translate(-554.78 371.9) rotate(-45)"/><rect class="cls-4" x="203.07" y="838.3" width="34.65" height="34.65" transform="translate(-540.47 406.45) rotate(-45)"/><rect class="cls-3" x="203.05" y="789.33" width="34.65" height="34.65" transform="translate(-505.84 392.09) rotate(-45)"/><rect class="cls-4" x="251.91" y="789.33" width="34.65" height="34.65" transform="translate(-491.53 426.64) rotate(-45)"/><rect class="cls-3" x="251.93" y="838.25" width="34.65" height="34.65" transform="translate(-526.12 440.98) rotate(-45)"/><rect class="cls-4" x="300.78" y="838.25" width="34.65" height="34.65" transform="translate(-511.81 475.53) rotate(-45)"/><rect class="cls-3" x="301.13" y="789.33" width="34.65" height="34.65" transform="translate(-477.12 461.44) rotate(-45)"/><rect class="cls-4" x="349.99" y="789.33" width="34.65" height="34.65" transform="translate(-462.81 495.99) rotate(-45)"/><rect class="cls-3" x="350.01" y="838.25" width="34.65" height="34.65" transform="translate(-497.39 510.33) rotate(-45)"/><rect class="cls-4" x="398.86" y="838.25" width="34.65" height="34.65" transform="translate(-483.08 544.88) rotate(-45)"/><rect class="cls-3" x="399.28" y="789.38" width="34.65" height="34.65" transform="translate(-448.41 530.86) rotate(-45)"/><rect class="cls-4" x="448.14" y="789.38" width="34.65" height="34.65" transform="translate(-434.1 565.41) rotate(-45)"/><rect class="cls-3" x="448.15" y="838.3" width="34.65" height="34.65" transform="translate(-468.68 579.75) rotate(-45)"/><rect class="cls-4" x="497.01" y="838.3" width="34.65" height="34.65" transform="translate(-454.37 614.3) rotate(-45)"/><rect class="cls-3" x="497.36" y="789.38" width="34.65" height="34.65" transform="translate(-419.68 600.21) rotate(-45)"/><rect class="cls-4" x="546.22" y="789.38" width="34.65" height="34.65" transform="translate(-405.37 634.76) rotate(-45)"/><rect class="cls-3" x="546.23" y="838.3" width="34.65" height="34.65" transform="translate(-439.96 649.1) rotate(-45)"/><rect class="cls-4" x="595.09" y="838.3" width="34.65" height="34.65" transform="translate(-425.64 683.65) rotate(-45)"/><rect class="cls-3" x="595.07" y="789.37" width="34.65" height="34.65" transform="translate(-391.05 669.31) rotate(-45)"/><rect class="cls-4" x="643.93" y="789.37" width="34.65" height="34.65" transform="translate(-376.74 703.86) rotate(-45)"/><rect class="cls-3" x="643.95" y="838.29" width="34.65" height="34.65" transform="translate(-411.33 718.2) rotate(-45)"/><rect class="cls-4" x="692.81" y="838.29" width="34.65" height="34.65" transform="translate(-397.02 752.75) rotate(-45)"/><rect class="cls-3" x="693.15" y="789.37" width="34.65" height="34.65" transform="translate(-362.32 738.66) rotate(-45)"/><rect class="cls-4" x="742.01" y="789.37" width="34.65" height="34.65" transform="translate(-348.01 773.21) rotate(-45)"/><rect class="cls-3" x="742.03" y="838.29" width="34.65" height="34.65" transform="translate(-382.6 787.55) rotate(-45)"/><rect class="cls-4" x="7.47" y="838.3" width="34.65" height="34.65" transform="translate(-597.76 268.14) rotate(-45)"/><rect class="cls-3" x="7.98" y="886.71" width="34.65" height="34.65" transform="translate(-631.84 282.68) rotate(-45)"/><rect class="cls-4" x="56.84" y="886.71" width="34.65" height="34.65" transform="translate(-617.53 317.23) rotate(-45)"/><rect class="cls-3" x="56.86" y="935.63" width="34.65" height="34.65" transform="translate(-652.12 331.57) rotate(-45)"/><rect class="cls-4" x="105.72" y="935.63" width="34.65" height="34.65" transform="translate(-637.81 366.12) rotate(-45)"/><rect class="cls-3" x="106.06" y="886.71" width="34.65" height="34.65" transform="translate(-603.11 352.03) rotate(-45)"/><rect class="cls-4" x="154.92" y="886.71" width="34.65" height="34.65" transform="translate(-588.8 386.58) rotate(-45)"/><rect class="cls-3" x="154.94" y="935.63" width="34.65" height="34.65" transform="translate(-623.39 400.92) rotate(-45)"/><rect class="cls-4" x="203.8" y="935.63" width="34.65" height="34.65" transform="translate(-609.08 435.47) rotate(-45)"/><rect class="cls-3" x="203.78" y="886.66" width="34.65" height="34.65" transform="translate(-574.45 421.11) rotate(-45)"/><rect class="cls-4" x="252.64" y="886.66" width="34.65" height="34.65" transform="translate(-560.14 455.66) rotate(-45)"/><rect class="cls-3" x="252.66" y="935.58" width="34.65" height="34.65" transform="translate(-594.73 470) rotate(-45)"/><rect class="cls-4" x="301.51" y="935.58" width="34.65" height="34.65" transform="translate(-580.42 504.55) rotate(-45)"/><rect class="cls-3" x="301.86" y="886.66" width="34.65" height="34.65" transform="translate(-545.73 490.47) rotate(-45)"/><rect class="cls-4" x="350.72" y="886.66" width="34.65" height="34.65" transform="translate(-531.41 525.02) rotate(-45)"/><rect class="cls-3" x="350.74" y="935.58" width="34.65" height="34.65" transform="translate(-566 539.36) rotate(-45)"/><rect class="cls-4" x="399.59" y="935.58" width="34.65" height="34.65" transform="translate(-551.69 573.91) rotate(-45)"/><rect class="cls-3" x="400.01" y="886.71" width="34.65" height="34.65" transform="translate(-517.01 559.88) rotate(-45)"/><rect class="cls-4" x="448.87" y="886.71" width="34.65" height="34.65" transform="translate(-502.7 594.43) rotate(-45)"/><rect class="cls-3" x="448.88" y="935.63" width="34.65" height="34.65" transform="translate(-537.29 608.78) rotate(-45)"/><rect class="cls-4" x="497.74" y="935.63" width="34.65" height="34.65" transform="translate(-522.98 643.32) rotate(-45)"/><rect class="cls-3" x="498.09" y="886.71" width="34.65" height="34.65" transform="translate(-488.29 629.24) rotate(-45)"/><rect class="cls-4" x="546.95" y="886.71" width="34.65" height="34.65" transform="translate(-473.98 663.79) rotate(-45)"/><rect class="cls-3" x="546.96" y="935.63" width="34.65" height="34.65" transform="translate(-508.56 678.13) rotate(-45)"/><rect class="cls-4" x="595.82" y="935.63" width="34.65" height="34.65" transform="translate(-494.25 712.68) rotate(-45)"/><rect class="cls-3" x="595.8" y="886.69" width="34.65" height="34.65" transform="translate(-459.66 698.33) rotate(-45)"/><rect class="cls-4" x="644.66" y="886.69" width="34.65" height="34.65" transform="translate(-445.35 732.88) rotate(-45)"/><rect class="cls-3" x="644.68" y="935.62" width="34.65" height="34.65" transform="translate(-479.93 747.22) rotate(-45)"/><rect class="cls-4" x="693.54" y="935.62" width="34.65" height="34.65" transform="translate(-465.62 781.77) rotate(-45)"/><rect class="cls-3" x="693.88" y="886.69" width="34.65" height="34.65" transform="translate(-430.93 767.68) rotate(-45)"/><rect class="cls-4" x="742.74" y="886.69" width="34.65" height="34.65" transform="translate(-416.62 802.23) rotate(-45)"/><rect class="cls-3" x="742.76" y="935.62" width="34.65" height="34.65" transform="translate(-451.21 816.57) rotate(-45)"/><rect class="cls-4" x="8.2" y="935.63" width="34.65" height="34.65" transform="translate(-666.37 297.17) rotate(-45)"/></g><g class="cls-2"><rect class="cls-3" x="7.39" y="985.07" width="34.65" height="34.65" transform="translate(-701.57 311.07) rotate(-45)"/><rect class="cls-4" x="56.25" y="985.07" width="34.65" height="34.65" transform="translate(-687.26 345.62) rotate(-45)"/><rect class="cls-3" x="56.27" y="1034" width="34.65" height="34.65" transform="translate(-721.84 359.96) rotate(-45)"/><rect class="cls-4" x="105.13" y="1034" width="34.65" height="34.65" transform="translate(-707.53 394.51) rotate(-45)"/><rect class="cls-3" x="105.47" y="985.07" width="34.65" height="34.65" transform="translate(-672.84 380.43) rotate(-45)"/><rect class="cls-4" x="154.33" y="985.07" width="34.65" height="34.65" transform="translate(-658.53 414.97) rotate(-45)"/><rect class="cls-3" x="154.35" y="1034" width="34.65" height="34.65" transform="translate(-693.11 429.32) rotate(-45)"/><rect class="cls-4" x="203.21" y="1034" width="34.65" height="34.65" transform="translate(-678.8 463.87) rotate(-45)"/><rect class="cls-3" x="203.19" y="985.02" width="34.65" height="34.65" transform="translate(-644.18 449.51) rotate(-45)"/><rect class="cls-4" x="252.05" y="985.02" width="34.65" height="34.65" transform="translate(-629.87 484.06) rotate(-45)"/><rect class="cls-3" x="252.07" y="1033.94" width="34.65" height="34.65" transform="translate(-664.45 498.4) rotate(-45)"/><rect class="cls-4" x="300.93" y="1033.94" width="34.65" height="34.65" transform="translate(-650.14 532.95) rotate(-45)"/><rect class="cls-3" x="301.27" y="985.02" width="34.65" height="34.65" transform="translate(-615.45 518.86) rotate(-45)"/><rect class="cls-4" x="350.13" y="985.02" width="34.65" height="34.65" transform="translate(-601.14 553.41) rotate(-45)"/><rect class="cls-3" x="350.15" y="1033.94" width="34.65" height="34.65" transform="translate(-635.73 567.75) rotate(-45)"/><rect class="cls-4" x="399.01" y="1033.94" width="34.65" height="34.65" transform="translate(-621.42 602.3) rotate(-45)"/><rect class="cls-3" x="399.42" y="985.07" width="34.65" height="34.65" transform="translate(-586.74 588.28) rotate(-45)"/><rect class="cls-4" x="448.28" y="985.07" width="34.65" height="34.65" transform="translate(-572.43 622.83) rotate(-45)"/><rect class="cls-3" x="448.3" y="1033.99" width="34.65" height="34.65" transform="translate(-607.02 637.17) rotate(-45)"/><rect class="cls-4" x="497.16" y="1033.99" width="34.65" height="34.65" transform="translate(-592.7 671.72) rotate(-45)"/><rect class="cls-3" x="497.5" y="985.07" width="34.65" height="34.65" transform="translate(-558.01 657.63) rotate(-45)"/><rect class="cls-4" x="546.36" y="985.07" width="34.65" height="34.65" transform="translate(-543.7 692.18) rotate(-45)"/><rect class="cls-3" x="546.38" y="1033.99" width="34.65" height="34.65" transform="translate(-578.29 706.52) rotate(-45)"/><rect class="cls-4" x="595.24" y="1033.99" width="34.65" height="34.65" transform="translate(-563.98 741.07) rotate(-45)"/><rect class="cls-3" x="595.21" y="985.06" width="34.65" height="34.65" transform="translate(-529.38 726.72) rotate(-45)"/><rect class="cls-4" x="644.07" y="985.06" width="34.65" height="34.65" transform="translate(-515.07 761.27) rotate(-45)"/><rect class="cls-3" x="644.09" y="1033.98" width="34.65" height="34.65" transform="translate(-549.66 775.61) rotate(-45)"/><rect class="cls-4" x="692.95" y="1033.98" width="34.65" height="34.65" transform="translate(-535.35 810.16) rotate(-45)"/><rect class="cls-3" x="693.29" y="985.06" width="34.65" height="34.65" transform="translate(-500.66 796.08) rotate(-45)"/><rect class="cls-4" x="742.15" y="985.06" width="34.65" height="34.65" transform="translate(-486.35 830.63) rotate(-45)"/><rect class="cls-3" x="742.17" y="1033.98" width="34.65" height="34.65" transform="translate(-520.93 844.97) rotate(-45)"/><rect class="cls-4" x="7.61" y="1034" width="34.65" height="34.65" transform="translate(-736.09 325.56) rotate(-45)"/><rect class="cls-3" x="8.12" y="1082.4" width="34.65" height="34.65" transform="translate(-770.17 340.1) rotate(-45)"/><rect class="cls-4" x="56.98" y="1082.4" width="34.65" height="34.65" transform="translate(-755.86 374.64) rotate(-45)"/><rect class="cls-3" x="57" y="1131.32" width="34.65" height="34.65" transform="translate(-790.45 388.99) rotate(-45)"/><rect class="cls-4" x="105.86" y="1131.32" width="34.65" height="34.65" transform="translate(-776.14 423.54) rotate(-45)"/><rect class="cls-3" x="106.2" y="1082.4" width="34.65" height="34.65" transform="translate(-741.45 409.45) rotate(-45)"/><rect class="cls-4" x="155.06" y="1082.4" width="34.65" height="34.65" transform="translate(-727.14 444) rotate(-45)"/><rect class="cls-3" x="155.08" y="1131.32" width="34.65" height="34.65" transform="translate(-761.72 458.34) rotate(-45)"/><rect class="cls-4" x="203.94" y="1131.32" width="34.65" height="34.65" transform="translate(-747.41 492.89) rotate(-45)"/><rect class="cls-3" x="203.92" y="1082.35" width="34.65" height="34.65" transform="translate(-712.78 478.53) rotate(-45)"/><rect class="cls-4" x="252.78" y="1082.35" width="34.65" height="34.65" transform="translate(-698.47 513.08) rotate(-45)"/><rect class="cls-3" x="252.8" y="1131.27" width="34.65" height="34.65" transform="translate(-733.06 527.42) rotate(-45)"/><rect class="cls-4" x="301.66" y="1131.27" width="34.65" height="34.65" transform="translate(-718.75 561.97) rotate(-45)"/><rect class="cls-3" x="302" y="1082.35" width="34.65" height="34.65" transform="translate(-684.06 547.88) rotate(-45)"/><rect class="cls-4" x="350.86" y="1082.35" width="34.65" height="34.65" transform="translate(-669.75 582.43) rotate(-45)"/><rect class="cls-3" x="350.88" y="1131.27" width="34.65" height="34.65" transform="translate(-704.33 596.77) rotate(-45)"/><rect class="cls-4" x="399.74" y="1131.27" width="34.65" height="34.65" transform="translate(-690.02 631.32) rotate(-45)"/><rect class="cls-3" x="400.15" y="1082.4" width="34.65" height="34.65" transform="translate(-655.35 617.3) rotate(-45)"/><rect class="cls-4" x="449.01" y="1082.4" width="34.65" height="34.65" transform="translate(-641.04 651.85) rotate(-45)"/><rect class="cls-3" x="449.03" y="1131.32" width="34.65" height="34.65" transform="translate(-675.62 666.19) rotate(-45)"/><rect class="cls-4" x="497.89" y="1131.32" width="34.65" height="34.65" transform="translate(-661.31 700.74) rotate(-45)"/><rect class="cls-3" x="498.23" y="1082.4" width="34.65" height="34.65" transform="translate(-626.62 686.65) rotate(-45)"/><rect class="cls-4" x="547.09" y="1082.4" width="34.65" height="34.65" transform="translate(-612.31 721.2) rotate(-45)"/><rect class="cls-3" x="547.11" y="1131.32" width="34.65" height="34.65" transform="translate(-646.9 735.54) rotate(-45)"/><rect class="cls-4" x="595.97" y="1131.32" width="34.65" height="34.65" transform="translate(-632.59 770.09) rotate(-45)"/><rect class="cls-3" x="595.94" y="1082.39" width="34.65" height="34.65" transform="translate(-597.99 755.75) rotate(-45)"/><rect class="cls-4" x="644.8" y="1082.39" width="34.65" height="34.65" transform="translate(-583.68 790.3) rotate(-45)"/><rect class="cls-3" x="644.82" y="1131.31" width="34.65" height="34.65" transform="translate(-618.27 804.64) rotate(-45)"/><rect class="cls-4" x="693.68" y="1131.31" width="34.65" height="34.65" transform="translate(-603.96 839.19) rotate(-45)"/><rect class="cls-3" x="694.02" y="1082.39" width="34.65" height="34.65" transform="translate(-569.26 825.1) rotate(-45)"/><rect class="cls-4" x="742.88" y="1082.39" width="34.65" height="34.65" transform="translate(-554.95 859.65) rotate(-45)"/><rect class="cls-3" x="742.9" y="1131.31" width="34.65" height="34.65" transform="translate(-589.54 873.99) rotate(-45)"/><rect class="cls-4" x="8.34" y="1131.32" width="34.65" height="34.65" transform="translate(-804.7 354.58) rotate(-45)"/></g></g></g></svg>