<svg width="200" height="200" viewBox="0 0 200 200" fill="none" xmlns="http://www.w3.org/2000/svg">
<rect width="200" height="200" rx="5" fill="#27272B"/>
<path d="M74.2305 166.32V173H71.9805V155.938H78.2734C80.1406 155.938 81.6016 156.414 82.6562 157.367C83.7188 158.32 84.25 159.582 84.25 161.152C84.25 162.809 83.7305 164.086 82.6914 164.984C81.6602 165.875 80.1797 166.32 78.25 166.32H74.2305ZM74.2305 164.48H78.2734C79.4766 164.48 80.3984 164.199 81.0391 163.637C81.6797 163.066 82 162.246 82 161.176C82 160.16 81.6797 159.348 81.0391 158.738C80.3984 158.129 79.5195 157.812 78.4023 157.789H74.2305V164.48ZM89.1367 173H86.9688V155H89.1367V173ZM100.445 173C100.32 172.75 100.219 172.305 100.141 171.664C99.1328 172.711 97.9297 173.234 96.5312 173.234C95.2812 173.234 94.2539 172.883 93.4492 172.18C92.6523 171.469 92.2539 170.57 92.2539 169.484C92.2539 168.164 92.7539 167.141 93.7539 166.414C94.7617 165.68 96.1758 165.312 97.9961 165.312H100.105V164.316C100.105 163.559 99.8789 162.957 99.4258 162.512C98.9727 162.059 98.3047 161.832 97.4219 161.832C96.6484 161.832 96 162.027 95.4766 162.418C94.9531 162.809 94.6914 163.281 94.6914 163.836H92.5117C92.5117 163.203 92.7344 162.594 93.1797 162.008C93.6328 161.414 94.2422 160.945 95.0078 160.602C95.7812 160.258 96.6289 160.086 97.5508 160.086C99.0117 160.086 100.156 160.453 100.984 161.188C101.812 161.914 102.242 162.918 102.273 164.199V170.035C102.273 171.199 102.422 172.125 102.719 172.812V173H100.445ZM96.8477 171.348C97.5273 171.348 98.1719 171.172 98.7812 170.82C99.3906 170.469 99.832 170.012 100.105 169.449V166.848H98.4062C95.75 166.848 94.4219 167.625 94.4219 169.18C94.4219 169.859 94.6484 170.391 95.1016 170.773C95.5547 171.156 96.1367 171.348 96.8477 171.348ZM107.723 160.32L107.793 161.914C108.762 160.695 110.027 160.086 111.59 160.086C114.27 160.086 115.621 161.598 115.645 164.621V173H113.477V164.609C113.469 163.695 113.258 163.02 112.844 162.582C112.438 162.145 111.801 161.926 110.934 161.926C110.23 161.926 109.613 162.113 109.082 162.488C108.551 162.863 108.137 163.355 107.84 163.965V173H105.672V160.32H107.723ZM124.176 173.234C122.457 173.234 121.059 172.672 119.98 171.547C118.902 170.414 118.363 168.902 118.363 167.012V166.613C118.363 165.355 118.602 164.234 119.078 163.25C119.562 162.258 120.234 161.484 121.094 160.93C121.961 160.367 122.898 160.086 123.906 160.086C125.555 160.086 126.836 160.629 127.75 161.715C128.664 162.801 129.121 164.355 129.121 166.379V167.281H120.531C120.562 168.531 120.926 169.543 121.621 170.316C122.324 171.082 123.215 171.465 124.293 171.465C125.059 171.465 125.707 171.309 126.238 170.996C126.77 170.684 127.234 170.27 127.633 169.754L128.957 170.785C127.895 172.418 126.301 173.234 124.176 173.234ZM123.906 161.867C123.031 161.867 122.297 162.188 121.703 162.828C121.109 163.461 120.742 164.352 120.602 165.5H126.953V165.336C126.891 164.234 126.594 163.383 126.062 162.781C125.531 162.172 124.812 161.867 123.906 161.867Z" fill="white"/>
<path d="M73.7895 79H173L127.211 121H28L73.7895 79Z" fill="#DDDDDD"/>
</svg>
