<svg width="200" height="200" viewBox="0 0 200 200" fill="none" xmlns="http://www.w3.org/2000/svg">
<path d="M0 5C0 2.23857 2.23858 0 5 0H195C197.761 0 200 2.23858 200 5V195C200 197.761 197.761 200 195 200H5C2.23857 200 0 197.761 0 195V5Z" fill="#27272B"/>
<circle cx="100.5" cy="99.5" r="12.5" fill="#C4C4C4"/>
<path d="M76.4336 166.32V173H74.1836V155.938H80.4766C82.3438 155.938 83.8047 156.414 84.8594 157.367C85.9219 158.32 86.4531 159.582 86.4531 161.152C86.4531 162.809 85.9336 164.086 84.8945 164.984C83.8633 165.875 82.3828 166.32 80.4531 166.32H76.4336ZM76.4336 164.48H80.4766C81.6797 164.48 82.6016 164.199 83.2422 163.637C83.8828 163.066 84.2031 162.246 84.2031 161.176C84.2031 160.16 83.8828 159.348 83.2422 158.738C82.6016 158.129 81.7227 157.812 80.6055 157.789H76.4336V164.48ZM88.2461 166.543C88.2461 165.301 88.4883 164.184 88.9727 163.191C89.4648 162.199 90.1445 161.434 91.0117 160.895C91.8867 160.355 92.8828 160.086 94 160.086C95.7266 160.086 97.1211 160.684 98.1836 161.879C99.2539 163.074 99.7891 164.664 99.7891 166.648V166.801C99.7891 168.035 99.5508 169.145 99.0742 170.129C98.6055 171.105 97.9297 171.867 97.0469 172.414C96.1719 172.961 95.1641 173.234 94.0234 173.234C92.3047 173.234 90.9102 172.637 89.8398 171.441C88.7773 170.246 88.2461 168.664 88.2461 166.695V166.543ZM90.4258 166.801C90.4258 168.207 90.75 169.336 91.3984 170.188C92.0547 171.039 92.9297 171.465 94.0234 171.465C95.125 171.465 96 171.035 96.6484 170.176C97.2969 169.309 97.6211 168.098 97.6211 166.543C97.6211 165.152 97.2891 164.027 96.625 163.168C95.9688 162.301 95.0938 161.867 94 161.867C92.9297 161.867 92.0664 162.293 91.4102 163.145C90.7539 163.996 90.4258 165.215 90.4258 166.801ZM104.863 173H102.695V160.32H104.863V173ZM102.52 156.957C102.52 156.605 102.625 156.309 102.836 156.066C103.055 155.824 103.375 155.703 103.797 155.703C104.219 155.703 104.539 155.824 104.758 156.066C104.977 156.309 105.086 156.605 105.086 156.957C105.086 157.309 104.977 157.602 104.758 157.836C104.539 158.07 104.219 158.188 103.797 158.188C103.375 158.188 103.055 158.07 102.836 157.836C102.625 157.602 102.52 157.309 102.52 156.957ZM110.395 160.32L110.465 161.914C111.434 160.695 112.699 160.086 114.262 160.086C116.941 160.086 118.293 161.598 118.316 164.621V173H116.148V164.609C116.141 163.695 115.93 163.02 115.516 162.582C115.109 162.145 114.473 161.926 113.605 161.926C112.902 161.926 112.285 162.113 111.754 162.488C111.223 162.863 110.809 163.355 110.512 163.965V173H108.344V160.32H110.395ZM124.527 157.25V160.32H126.895V161.996H124.527V169.859C124.527 170.367 124.633 170.75 124.844 171.008C125.055 171.258 125.414 171.383 125.922 171.383C126.172 171.383 126.516 171.336 126.953 171.242V173C126.383 173.156 125.828 173.234 125.289 173.234C124.32 173.234 123.59 172.941 123.098 172.355C122.605 171.77 122.359 170.938 122.359 169.859V161.996H120.051V160.32H122.359V157.25H124.527Z" fill="white"/>
</svg>
