<svg width="37" height="36" viewBox="0 0 37 36" fill="none" xmlns="http://www.w3.org/2000/svg">
<g clip-path="url(#clip0)">
<path d="M34.7312 5.87097H13.0348C12.3236 5.87097 11.7491 6.44553 11.7491 7.15669V16.6388H2.26692C1.55575 16.6388 0.981201 17.2134 0.981201 17.9245V28.8531C0.981201 29.5643 1.55575 30.1388 2.26692 30.1388H23.9633C24.6745 30.1388 25.2491 29.5643 25.2491 28.8531V19.371H34.7312C35.4424 19.371 36.0169 18.7964 36.0169 18.0853V7.15669C36.0169 6.44553 35.4424 5.87097 34.7312 5.87097ZM14.4812 8.60311H22.5169V16.6388H14.4812V8.60311ZM11.7491 27.4067H3.71334V19.371H11.7491V27.4067ZM22.5169 27.4067H14.4812V19.371H22.5169V27.4067ZM33.2848 16.6388H25.2491V8.60311H33.2848V16.6388Z" fill="#037971"/>
</g>
<defs>
<clipPath id="clip0">
<rect width="36" height="36" fill="white" transform="translate(0.5)"/>
</clipPath>
</defs>
</svg>
