<svg xmlns="http://www.w3.org/2000/svg" xmlns:xlink="http://www.w3.org/1999/xlink" viewBox="0 0 150 95.43"><defs><style>.cls-1,.cls-22{fill:#49a69d;}.cls-1{opacity:0.3;isolation:isolate;}.cls-2{fill:url(#未命名的渐变_4);}.cls-3{fill:#d4e0e4;}.cls-4{fill:#afc2db;}.cls-5{fill:#fcfcfc;}.cls-6{fill:#97c4de;}.cls-7{fill:#ffefbc;}.cls-8{fill:#fff;}.cls-9{fill:#fdffee;}.cls-10{fill:#0a3c60;}.cls-11{fill:#6c82a8;}.cls-12{fill:#f7f6f1;}.cls-13{fill:#e4edf0;}.cls-14{fill:#253945;}.cls-15{fill:#649cba;}.cls-16{fill:#2e6c9e;}.cls-17{fill:#c7657d;}.cls-18{fill:url(#未命名的渐变_3);}.cls-19{fill:#f06c9b;}.cls-20{fill:#ff9ecc;}.cls-21{fill:#037971;}.cls-23{fill:#349ed9;}.cls-24{fill:#fbbb86;}.cls-25{fill:#0e263f;}.cls-26{fill:#20364c;}.cls-27{fill:#e6f6ff;}.cls-28{opacity:0.5;}.cls-29{fill:#96a0a6;}.cls-30{fill:#476390;}.cls-31{fill:#072b45;}.cls-32{fill:#f7b690;}.cls-33{fill:#0a3c5f;}.cls-34{fill:#24557b;}.cls-35{fill:#24547a;}.cls-36{fill:#245379;}.cls-37{fill:#235278;}.cls-38{fill:#235277;}.cls-39{fill:#235176;}.cls-40{fill:#235075;}.cls-41{fill:#225074;}.cls-42{fill:#224f73;}.cls-43{fill:#232b59;}.cls-44{fill:#f3a088;}.cls-45{fill:#e88379;}</style><linearGradient id="未命名的渐变_4" y1="1842.37" x2="150" y2="1842.37" gradientTransform="matrix(1, 0, 0, -1, 0, 1893.83)" gradientUnits="userSpaceOnUse"><stop offset="0" stop-color="#5dc5be"/><stop offset="1" stop-color="#037971"/></linearGradient><linearGradient id="未命名的渐变_3" x1="61.56" y1="1884.49" x2="61.8" y2="1884.47" gradientTransform="matrix(1, 0, 0, -1, 0, 1893.83)" gradientUnits="userSpaceOnUse"><stop offset="0" stop-color="#fcfcfc"/><stop offset="0.36" stop-color="#f8f8f8"/><stop offset="0.7" stop-color="#ededed"/><stop offset="1" stop-color="#dcdcdc"/></linearGradient></defs><title>slide6</title><g id="图层_2" data-name="图层 2"><g id="Layer_1" data-name="Layer 1"><path class="cls-1" d="M145.24,57.4a2,2,0,0,0-.65.12,3.43,3.43,0,0,0-5.88-2.16c-14.52-16.72-38.16-14-50.38,3.43-.47.68-2.42,5.25-3.11,5.56-1.27.56-1,.09-1.86-.9-2.58-2.79-3.76-7.33-5.84-10.55-9.09-14-25.73-12.58-35.21-.15a36.82,36.82,0,0,0-5.23,8.4.32.32,0,0,1,0,.09l-.38.18a10.68,10.68,0,0,0-1.62,1l-.07.05.07-.14h.05v-.06a26.42,26.42,0,0,0,2.06-5.5h0v-.07a14.49,14.49,0,0,0,.41-4.2,4.92,4.92,0,0,0-.06-.64v-.07c-.21-1.35-.79-3-2-3.46h-.07a2.13,2.13,0,0,0-.56-.1,2.74,2.74,0,0,0-1.93.9l-.06,0A9.33,9.33,0,0,0,31.58,51a16.91,16.91,0,0,0-1,1.9l-.05,0,0,0A31,31,0,0,0,29,58.08l0,0,0,0c-.14.58-.26,1.15-.38,1.72v-.61l.1-.16-.1-.07c0-1,0-2.08-.05-3.12,0-1.23-.09-2.47-.17-3.71l0,0-.06-.07a40.63,40.63,0,0,0-1.08-7.27l0,0-.06-.07a24.42,24.42,0,0,0-.88-2.79A11.62,11.62,0,0,0,25,39.26h0L25,39.19a3.65,3.65,0,0,0-2.42-1.65,2.55,2.55,0,0,0-.78,0h-.07c-1.8.34-3,2.45-3.54,4.22l0,.09c-.09.31-.17.58-.23.85a20,20,0,0,0-.39,5.77l0,.08h0a36.66,36.66,0,0,0,1.54,7.91l0,.08.06,0,.06.21,0,0a14.43,14.43,0,0,0-2-1.83c-.25-.19-.51-.37-.77-.53l0,0c-1.24-.75-2.49-1.05-3.44-.23l0,0v0A3.27,3.27,0,0,0,12,56.58v.12a6.48,6.48,0,0,0,.1,1.24,10.46,10.46,0,0,0,.79,2.43v.06h0a16.91,16.91,0,0,0,2.49,3.83c-.25.22-.5.45-.75.7-6.91,7-5.7,22.94,1.75,30.47H138.19c6.33-9.78,8.48-24.21,4-34.27h3.08A1.7,1.7,0,0,0,146,61a1.78,1.78,0,0,0,.64-.4,1.82,1.82,0,0,0,.43-.62,1.83,1.83,0,0,0,.15-.73,1.92,1.92,0,0,0-.15-.74,2,2,0,0,0-.43-.62,1.92,1.92,0,0,0-.64-.4,1.86,1.86,0,0,0-.74-.12Z"/><path class="cls-2" d="M147,8.54l-23.66,6.34a2.45,2.45,0,0,0-1.08.62,2.49,2.49,0,0,0-.62,1.08,2.41,2.41,0,0,0,0,1.25,2.49,2.49,0,0,0,.62,1.08l5.93,5.92L96.7,56.16,79.41,38.87,54.15,64.13,39.34,49.31,0,88.66l5.8,5.8L39.35,60.9,54.16,75.71,79.42,50.46,96.69,67.73,134,30.63l5.58,5.59a2.49,2.49,0,0,0,1.08.62,2.41,2.41,0,0,0,1.25,0,2.42,2.42,0,0,0,1.71-1.7l6.33-23.66a2.37,2.37,0,0,0,0-1.24,2.51,2.51,0,0,0-.62-1.07,2.42,2.42,0,0,0-1.07-.62A2.37,2.37,0,0,0,147,8.54Z"/><path class="cls-3" d="M123.46,44.42V41.35h-.71v3.07Z"/><path class="cls-3" d="M121.57,43.24h3.06v-.71h-3.06Z"/><path class="cls-4" d="M26.83,14.59H23.28a3,3,0,0,1-2.12-.88,3,3,0,0,1,0-4.24,3,3,0,0,1,2.12-.88H27a.51.51,0,0,0,.51-.51V4.58a.52.52,0,0,1,0-.25.8.8,0,0,1,.13-.22A.8.8,0,0,1,27.83,4a.65.65,0,0,1,.5,0,.62.62,0,0,1,.2.15.64.64,0,0,1,.14.22.52.52,0,0,1,0,.25v3.5a1.78,1.78,0,0,1-.51,1.25A1.75,1.75,0,0,1,27,9.85H23.28a1.69,1.69,0,0,0-1.22.51,1.74,1.74,0,0,0,0,2.46,1.69,1.69,0,0,0,1.22.51h3.55a.62.62,0,0,1,.42.2.61.61,0,0,1,.17.43.63.63,0,0,1-.17.43.62.62,0,0,1-.42.2Z"/><path class="cls-5" d="M43.18,63.84A1.18,1.18,0,0,1,42,62.64V7.41a1.65,1.65,0,0,0-.47-1.15,1.62,1.62,0,0,0-1.15-.48H26.62a1.2,1.2,0,0,1-1.14-1.2,1.21,1.21,0,0,1,.33-.83,1.18,1.18,0,0,1,.81-.37H40.38a4,4,0,0,1,4,4V62.64a1.22,1.22,0,0,1-.09.46,1.24,1.24,0,0,1-.25.39,1.27,1.27,0,0,1-.39.26,1.18,1.18,0,0,1-.46.09Z"/><path class="cls-6" d="M40.38,3.63a3.77,3.77,0,0,1,3.74,3.78V62.64a.94.94,0,0,1-.94.94.92.92,0,0,1-.66-.28.9.9,0,0,1-.27-.66V7.41a1.88,1.88,0,0,0-.55-1.33,1.91,1.91,0,0,0-1.32-.56H26.62A1,1,0,0,1,26,5.25a1,1,0,0,1,.67-1.62Zm0-.5H26.62a1.45,1.45,0,0,0-1,.42,1.5,1.5,0,0,0-.43,1,1.46,1.46,0,0,0,.43,1,1.42,1.42,0,0,0,1,.43H40.38a1.38,1.38,0,0,1,1.37,1.38V62.64a1.37,1.37,0,0,0,.09.57,1.41,1.41,0,0,0,.31.49,1.27,1.27,0,0,0,.47.32,1.39,1.39,0,0,0,1.13,0,1.27,1.27,0,0,0,.47-.32,1.41,1.41,0,0,0,.31-.49,1.37,1.37,0,0,0,.09-.57V7.41a4.25,4.25,0,0,0-4.24-4.28Z"/><path class="cls-3" d="M24.14,20.47h9.57A1.25,1.25,0,0,0,35,19.23V13.8a1.25,1.25,0,0,0-1.25-1.25H24.14a1.25,1.25,0,0,0-1.25,1.25v5.43A1.25,1.25,0,0,0,24.14,20.47Z"/><path class="cls-7" d="M24.91,19.19h8a.8.8,0,0,0,.8-.8V14.64a.8.8,0,0,0-.8-.8h-8a.8.8,0,0,0-.8.8v3.75A.8.8,0,0,0,24.91,19.19Z"/><path class="cls-8" d="M33.06,17.19a.2.2,0,0,1-.14-.06.24.24,0,0,1-.07-.16v-.68a.28.28,0,0,1,0-.09.22.22,0,0,1,0-.08.18.18,0,0,1,.07-.05l.09,0,.08,0,.08.05a.2.2,0,0,1,0,.08.28.28,0,0,1,0,.09V17a.21.21,0,0,1-.22.22Z"/><path class="cls-8" d="M32.53,18.69H30a.21.21,0,0,1-.13-.07.2.2,0,0,1-.06-.15.2.2,0,0,1,.06-.14.17.17,0,0,1,.13-.07h2.52a.33.33,0,0,0,.23-.1.31.31,0,0,0,.09-.22.28.28,0,0,1,0-.09.22.22,0,0,1,0-.08.18.18,0,0,1,.07-.05l.08,0,.09,0a.18.18,0,0,1,.07.05.22.22,0,0,1,.05.08.28.28,0,0,1,0,.09.78.78,0,0,1-.21.52.8.8,0,0,1-.52.23Z"/><path class="cls-8" d="M28.19,18.69h-1.5a.27.27,0,0,1-.14-.07.25.25,0,0,1-.05-.15.24.24,0,0,1,.05-.14.21.21,0,0,1,.14-.07h1.5a.21.21,0,0,1,.14.07.24.24,0,0,1,.05.14.25.25,0,0,1-.05.15.27.27,0,0,1-.14.07Z"/><path class="cls-8" d="M24.78,18.15a.21.21,0,0,1-.21-.21v-.36a.2.2,0,0,1,.06-.15.22.22,0,0,1,.15-.06.2.2,0,0,1,.15.06.21.21,0,0,1,.07.15v.36A.31.31,0,0,1,25,18a.16.16,0,0,1,0,.07l-.07.05Z"/><path class="cls-8" d="M24.78,17a.23.23,0,0,1-.15-.07.2.2,0,0,1-.06-.15V15.09a.72.72,0,0,1,.06-.29.74.74,0,0,1,.4-.4.72.72,0,0,1,.29-.06h7.22a.71.71,0,0,1,.28.06.74.74,0,0,1,.4.4.72.72,0,0,1,.06.29.28.28,0,0,1,0,.09l-.05.07a.2.2,0,0,1-.07.06H33a.2.2,0,0,1-.07-.06l0-.07a.28.28,0,0,1,0-.09.32.32,0,0,0-.09-.23.31.31,0,0,0-.22-.09H25.32a.31.31,0,0,0-.32.32v1.66a.29.29,0,0,1,0,.09.25.25,0,0,1,0,.07l-.07,0Z"/><path class="cls-9" d="M30.14,16.51a1.16,1.16,0,0,0-.21-.67,1.19,1.19,0,0,0-.54-.45,1.2,1.2,0,0,0-.7-.07,1.17,1.17,0,0,0-.62.33,1.26,1.26,0,0,0-.34.63,1.29,1.29,0,0,0,.07.7,1.19,1.19,0,0,0,.45.54,1.16,1.16,0,0,0,.67.21,1.2,1.2,0,0,0,.86-.36,1.22,1.22,0,0,0,.36-.86Z"/><path class="cls-3" d="M46.79,35.91h-5a4.44,4.44,0,0,1-4.42-4.46V26.52a1.38,1.38,0,1,1,2.75,0v4.92a1.69,1.69,0,0,0,1.67,1.68h5a1.39,1.39,0,0,1,.94,2.36,1.34,1.34,0,0,1-.94.42Z"/><path class="cls-10" d="M33.28,45.41a3.12,3.12,0,0,1-1.21-.25,3.07,3.07,0,0,1-1-.69,2.9,2.9,0,0,1-.68-1,3.18,3.18,0,0,1-.24-1.21V29.1h6.29V42.24a3.18,3.18,0,0,1-.24,1.21,2.9,2.9,0,0,1-.68,1,3,3,0,0,1-1,.69A3.11,3.11,0,0,1,33.28,45.41ZM30.49,29.46V42.24a2.78,2.78,0,0,0,.81,2,2.84,2.84,0,0,0,2,.82,2.79,2.79,0,0,0,2-.82,2.75,2.75,0,0,0,.82-2V29.46Z"/><path class="cls-10" d="M35.46,45.57a3.11,3.11,0,0,1-1.21-.24,3.23,3.23,0,0,1-1-.69,3.19,3.19,0,0,1-.68-1,3.11,3.11,0,0,1-.24-1.21V29.27H38.6V42.4a3.11,3.11,0,0,1-.24,1.21,3.16,3.16,0,0,1-.67,1,3.27,3.27,0,0,1-1,.69A3.1,3.1,0,0,1,35.46,45.57ZM32.67,29.63V42.4a2.78,2.78,0,0,0,2.79,2.79,2.77,2.77,0,0,0,2.79-2.79V29.63Z"/><path class="cls-10" d="M37.62,45.57a3.11,3.11,0,0,1-2.22-.93,3,3,0,0,1-.68-1,3.11,3.11,0,0,1-.24-1.21V29.27h6.29V42.4a3.11,3.11,0,0,1-.24,1.21,3,3,0,0,1-.68,1,3.11,3.11,0,0,1-2.23.93ZM34.83,29.63V42.4a2.78,2.78,0,0,0,2.8,2.79,2.78,2.78,0,0,0,2.79-2.79V29.63Z"/><path class="cls-10" d="M39.79,45.57a3.18,3.18,0,0,1-1.21-.24,3.23,3.23,0,0,1-1-.69,3.36,3.36,0,0,1-.68-1,3.29,3.29,0,0,1-.23-1.21V29.27h6.28V42.4a3.14,3.14,0,0,1-3.14,3.17ZM37,29.63V42.4a2.78,2.78,0,0,0,2.8,2.79,2.78,2.78,0,0,0,2-.81,2.84,2.84,0,0,0,.82-2V29.63Z"/><path class="cls-3" d="M45.39,30.75H27.45V23.86a1.13,1.13,0,0,1,1.12-1.12h15.7a1.13,1.13,0,0,1,1.12,1.12Z"/><path class="cls-5" d="M28.68,29.25V26a2.23,2.23,0,0,1,.66-1.62A2.29,2.29,0,0,1,31,23.72a2.34,2.34,0,0,1,1.62.66A2.29,2.29,0,0,1,33.26,26v3.25a.5.5,0,0,1,0,.21.47.47,0,0,1-.12.19.57.57,0,0,1-.18.12.54.54,0,0,1-.22,0H29.24a.52.52,0,0,1-.21,0,.76.76,0,0,1-.19-.12.62.62,0,0,1-.12-.19A.49.49,0,0,1,28.68,29.25Z"/><path class="cls-6" d="M31,23.92A2.07,2.07,0,0,1,33,26v3.25a.35.35,0,0,1,0,.13.34.34,0,0,1-.07.11.41.41,0,0,1-.11.07.31.31,0,0,1-.13,0H29.25a.28.28,0,0,1-.13,0,.3.3,0,0,1-.11-.07.38.38,0,0,1-.08-.11.69.69,0,0,1,0-.13V26A2.07,2.07,0,0,1,31,23.92Zm0-.46a2.51,2.51,0,0,0-1,.2,2.47,2.47,0,0,0-.82.55,2.54,2.54,0,0,0-.54.82,2.5,2.5,0,0,0-.19,1v3.25a.8.8,0,0,0,.24.56.77.77,0,0,0,.56.23h3.44a.79.79,0,0,0,.79-.79V26a2.49,2.49,0,0,0-.18-1,2.42,2.42,0,0,0-.55-.82,2.28,2.28,0,0,0-.82-.55,2.43,2.43,0,0,0-1-.2Z"/><path class="cls-10" d="M42.76,31A.57.57,0,0,0,43,31a.59.59,0,0,0,.19-.13.57.57,0,0,0,.12-.18.59.59,0,0,0,.05-.22V27.08a.54.54,0,0,0-.05-.22.62.62,0,0,0-.12-.19.59.59,0,0,0-.19-.13.57.57,0,0,0-.22,0h0a.54.54,0,0,0-.22,0,.5.5,0,0,0-.19.13.43.43,0,0,0-.13.19.54.54,0,0,0,0,.22v3.37a.57.57,0,0,0,0,.22.46.46,0,0,0,.13.18.5.5,0,0,0,.19.13.54.54,0,0,0,.22,0Z"/><path class="cls-10" d="M42.76,27.06h-.07a.19.19,0,0,1-.1-.1.29.29,0,0,1,0-.13l.49-1.19a.09.09,0,0,1,0-.06.12.12,0,0,1,.05-.05h.14a.09.09,0,0,1,.06,0,.21.21,0,0,1,0,.06.17.17,0,0,1,0,.07.15.15,0,0,1,0,.07L42.92,27a.12.12,0,0,1-.06.08.19.19,0,0,1-.1,0Z"/><path class="cls-10" d="M40.59,31a.54.54,0,0,0,.22,0,.5.5,0,0,0,.19-.13.59.59,0,0,0,.13-.18.57.57,0,0,0,0-.22V27.08a.54.54,0,0,0-.17-.41.5.5,0,0,0-.19-.13.54.54,0,0,0-.22,0h0a.54.54,0,0,0-.22,0,.5.5,0,0,0-.19.13.47.47,0,0,0-.12.19.54.54,0,0,0-.05.22v3.37a.59.59,0,0,0,.05.22.44.44,0,0,0,.12.18.5.5,0,0,0,.19.13.54.54,0,0,0,.22,0Z"/><path class="cls-10" d="M40.59,27.06h-.07a.18.18,0,0,1-.09-.1.15.15,0,0,1,0-.13l.48-1.19a.21.21,0,0,1,0-.06l.06,0h.13l.06,0,0,.06a.19.19,0,0,1,0,.07.64.64,0,0,1,0,.07L40.75,27s0,.05-.06.07a.12.12,0,0,1-.1,0Z"/><path class="cls-10" d="M38.42,31a.57.57,0,0,0,.41-.17.54.54,0,0,0,.17-.4V27.08a.58.58,0,0,0-.58-.58h0a.57.57,0,0,0-.22,0,.59.59,0,0,0-.19.13.52.52,0,0,0-.12.19.54.54,0,0,0,0,.22v3.37a.59.59,0,0,0,0,.22.57.57,0,0,0,.12.18.59.59,0,0,0,.19.13A.57.57,0,0,0,38.42,31Z"/><path class="cls-10" d="M38.42,27.06h-.06a.17.17,0,0,1-.1-.1.15.15,0,0,1,0-.13l.48-1.19a.09.09,0,0,1,0-.06l.06-.05H39l.06,0a.21.21,0,0,1,0,.06.17.17,0,0,1,0,.07.14.14,0,0,1,0,.07L38.59,27a.19.19,0,0,1-.07.08.17.17,0,0,1-.1,0Z"/><path class="cls-10" d="M36.24,31a.54.54,0,0,0,.22,0,.5.5,0,0,0,.19-.13.64.64,0,0,0,.13-.19.54.54,0,0,0,0-.22V27a.57.57,0,0,0,0-.22.8.8,0,0,0-.13-.19.62.62,0,0,0-.19-.12.62.62,0,0,0-.44,0,.62.62,0,0,0-.19.12.55.55,0,0,0-.12.19.59.59,0,0,0-.05.22v3.38a.58.58,0,0,0,.58.57Z"/><path class="cls-10" d="M36.24,27h-.06l-.07,0,0-.06a.22.22,0,0,1,0-.08.25.25,0,0,1,0-.07l.48-1.19,0-.06.06,0h.13l.06,0,0,.06a.15.15,0,0,1,0,.07.13.13,0,0,1,0,.06l-.47,1.2-.07.09a.2.2,0,0,1-.11,0Z"/><path class="cls-11" d="M52.59,35.88H58a2.27,2.27,0,0,0,2.25-2.26,1.37,1.37,0,0,0-.09-.49,1.3,1.3,0,0,0-.28-.41,1.19,1.19,0,0,0-.42-.28,1.15,1.15,0,0,0-.48-.1H51.62a1.16,1.16,0,0,0-.49.1,1.19,1.19,0,0,0-.42.28,1.13,1.13,0,0,0-.27.41,1.19,1.19,0,0,0-.1.49,2.27,2.27,0,0,0,.17.86,2,2,0,0,0,.49.73,2.23,2.23,0,0,0,.73.49A2.14,2.14,0,0,0,52.59,35.88Z"/><path class="cls-12" d="M45.45,66.38l-.1,0a.15.15,0,0,1-.09-.06.24.24,0,0,1-.06-.09.2.2,0,0,1,0-.11V39a3.31,3.31,0,0,1,2.08-3.09,3.27,3.27,0,0,1,1.2-.22h11A3.29,3.29,0,0,1,62.72,39V66.11a.27.27,0,0,1-.27.27Z"/><path class="cls-6" d="M59.44,36a3.08,3.08,0,0,1,1.16.23,3,3,0,0,1,1.62,1.64A3.08,3.08,0,0,1,62.45,39V66.11h-17V39A3.07,3.07,0,0,1,46,37.27,2.95,2.95,0,0,1,48.45,36Zm0-.56h-11A3.55,3.55,0,0,0,45,38.21a3.31,3.31,0,0,0-.09.77V66.11a.55.55,0,0,0,.55.55h17a.55.55,0,0,0,.39-.16.54.54,0,0,0,.16-.39V39a3.56,3.56,0,0,0-.27-1.37A3.5,3.5,0,0,0,62,36.44a3.6,3.6,0,0,0-1.15-.78,3.51,3.51,0,0,0-1.36-.27Z"/><path class="cls-13" d="M45.45,39v3.79l17,13.43V43.7L50.87,36H48.46a3.15,3.15,0,0,0-1.1.2l-1.84,2.19a3.48,3.48,0,0,0-.07.64Z"/><path class="cls-13" d="M45.45,47.32V55.7l13.4,10.4h3.59V61.3Z"/><path class="cls-14" d="M40.47,88l-.11-.26h.73c.83,0,1.55.75,1.43,2.09a1.53,1.53,0,0,1-1.12,1.51h-.86v-.4A2.61,2.61,0,0,1,40.47,88Z"/><path class="cls-15" d="M40.36,87.72c.83,0,1.55.76,1.43,2.09-.08,1-.72,1.69-1.43,1.5C39.08,91,38.84,87.74,40.36,87.72Z"/><path class="cls-6" d="M40.56,89.07c.38.36.68,1.19,0,1.25a2.8,2.8,0,0,1-2.05-.62A24.66,24.66,0,0,1,38.19,86l.93,0a9.43,9.43,0,0,0,0,2.68C39.39,88.89,40,88.53,40.56,89.07Z"/><path class="cls-14" d="M22.2,88l-.11-.26h.73c.83,0,1.55.75,1.44,2.09a1.55,1.55,0,0,1-1.13,1.51h-.84v-.4A2.61,2.61,0,0,1,22.2,88Z"/><path class="cls-15" d="M22.09,87.72c.84,0,1.56.76,1.44,2.09-.09,1-.73,1.69-1.44,1.5C20.83,91,20.59,87.74,22.09,87.72Z"/><path class="cls-6" d="M20.88,85.83a9.93,9.93,0,0,0-.06,2.92c.31.15.9-.21,1.47.33.39.36.68,1.19,0,1.25a2.82,2.82,0,0,1-2-.62,28.14,28.14,0,0,1-.34-3.87Z"/><path class="cls-14" d="M32.67,88l-.11-.26h.73c.83,0,1.55.75,1.43,2.09a1.53,1.53,0,0,1-1.12,1.51h-.86v-.4A2.65,2.65,0,0,1,32.67,88Z"/><path class="cls-15" d="M32.56,87.72c.83,0,1.56.76,1.44,2.09-.09,1-.73,1.69-1.44,1.5C31.29,91,31.05,87.74,32.56,87.72Z"/><path class="cls-6" d="M31.35,85.83a9.93,9.93,0,0,0-.06,2.92c.31.15.9-.21,1.47.33.39.36.68,1.19,0,1.25a2.82,2.82,0,0,1-2-.62,28.14,28.14,0,0,1-.34-3.87Z"/><path class="cls-6" d="M29.54,85.65a.94.94,0,0,0,.69-.29,1,1,0,0,0,.28-.68V59.82a1,1,0,0,0-.26-.7,1,1,0,0,0-.32-.23,1,1,0,0,0-.38-.07.94.94,0,0,0-.37.07,1,1,0,0,0-.32.23,1,1,0,0,0-.21.32,1,1,0,0,0,0,.38V84.68a1,1,0,0,0,.27.68A1,1,0,0,0,29.54,85.65Z"/><path class="cls-6" d="M24.77,61.74a1,1,0,0,0,.69-.29,1,1,0,0,0,.28-.68V47.44a.82.82,0,0,0-.06-.38.79.79,0,0,0-.2-.33.87.87,0,0,0-.32-.22.94.94,0,0,0-.76,0,.84.84,0,0,0-.31.22.93.93,0,0,0-.21.33,1.21,1.21,0,0,0-.06.38V60.77a1,1,0,0,0,.28.67A1,1,0,0,0,24.77,61.74Z"/><path class="cls-6" d="M19.47,86.48H39.61a.36.36,0,0,0,.27-.12.39.39,0,0,0,.11-.27,1.47,1.47,0,0,0-.1-.54,1.39,1.39,0,0,0-.31-.45,1.29,1.29,0,0,0-.45-.31,1.41,1.41,0,0,0-.54-.11H20.49a1.41,1.41,0,0,0-.54.11,1.51,1.51,0,0,0-.76.76,1.47,1.47,0,0,0-.1.54.4.4,0,0,0,0,.15.36.36,0,0,0,.08.12.47.47,0,0,0,.12.09.4.4,0,0,0,.15,0Z"/><path class="cls-6" d="M36.1,62.74H23a.46.46,0,0,0-.32.13.48.48,0,0,0-.13.32h0a1.64,1.64,0,0,0,.13.65,1.6,1.6,0,0,0,.36.54,1.74,1.74,0,0,0,1.19.49H34.89a1.74,1.74,0,0,0,1.19-.49,1.6,1.6,0,0,0,.36-.54,1.64,1.64,0,0,0,.13-.65h0a.33.33,0,0,0,0-.17.46.46,0,0,0-.25-.25.48.48,0,0,0-.18,0Z"/><path class="cls-16" d="M20.85,63.05H38.23a2.59,2.59,0,0,0,1.86-.77,2.63,2.63,0,0,0,.77-1.86h0a2.66,2.66,0,0,0-.2-1,2.75,2.75,0,0,0-.57-.86,3,3,0,0,0-.85-.57,2.71,2.71,0,0,0-1-.2H20.85a2.66,2.66,0,0,0-1,.2,2.6,2.6,0,0,0-1.43,1.43,2.66,2.66,0,0,0-.2,1h0a2.63,2.63,0,0,0,2.63,2.63Z"/><path class="cls-16" d="M21.73,50h6.63a3.59,3.59,0,0,0,1.34-.26A3.67,3.67,0,0,0,30.84,49a3.45,3.45,0,0,0,.76-1.14,3.5,3.5,0,0,0,.27-1.35h0a3.41,3.41,0,0,0-.27-1.34,3.49,3.49,0,0,0-1.9-1.9A3.41,3.41,0,0,0,28.36,43H21.73a3.52,3.52,0,0,0-3.51,3.51h0a3.5,3.5,0,0,0,.27,1.35A3.45,3.45,0,0,0,19.25,49a3.67,3.67,0,0,0,1.14.76A3.63,3.63,0,0,0,21.73,50Z"/><path class="cls-17" d="M25.39,14.19l-1.28,2.14.5.29,1.28-2.14Z"/><path class="cls-17" d="M26.23,15.79l-2.14-1.28-.3.5,2.14,1.28Z"/><path class="cls-18" d="M61.63,9.41l.1-.11-.1.11Z"/><path class="cls-19" d="M72.21,94.54H70.93l-.35-.18c-1-.59-2.14-1.18-3.27-1.79-2.57-1.37-5.3-2.8-8.16-4.24l-.79-.4C54.47,86,50.4,84,46.23,82.12L45,81.57c-3.7-1.67-7.46-3.29-11.17-4.78a.3.3,0,0,1-.17-.16.26.26,0,0,1,0-.23h0v0a.28.28,0,0,1,.09-.13.25.25,0,0,1,.15-.06.26.26,0,0,1,.15,0c2.09.82,4.28,1.73,6.55,2.71l1.48.65c3.38,1.49,6.89,3.11,10.4,4.8l.78.38c4.09,2,8.16,4,12,6.07l.73.38c.49.24,1,.51,1.45.77C69.1,92.84,70.69,93.7,72.21,94.54Z"/><path class="cls-11" d="M34,76.5a104.24,104.24,0,0,0-16-5.16Z"/><path class="cls-20" d="M27.84,71c4,1.34,6.34,5,6.14,5.54s-5.77,2.22-11.21-1.25a28.94,28.94,0,0,1-4.8-3.9A15.22,15.22,0,0,1,27.84,71Z"/><path class="cls-20" d="M41.86,79.79c-.49.07-1.69-1.38-2-1.77-4-5-3-9.79-3.71-13.4a9.75,9.75,0,0,1,5.27,3.79C45.6,74,42.44,79.71,41.86,79.79Z"/><path class="cls-11" d="M53.22,84.81c-.73.43-.64-.67-2.35-4.84-1.34-3.3-4.18-10.86-1.84-13.54.92,2.34,3.5,3.4,5.48,6.73C57.71,78.52,55.14,83.63,53.22,84.81Z"/><path class="cls-20" d="M70.34,87.14a9.72,9.72,0,0,1-1.59,2.28c-1.69,1.67-3.16,2-3.34,1.8s0-1.5.09-3.08c.08-1.27-.07-12.54-1-15.58a2.2,2.2,0,0,0-.15-.4c2,.33,5.56,3.39,6.67,7.66A10.37,10.37,0,0,1,70.34,87.14Z"/><path class="cls-20" d="M81.54,78.2c-.1,1.68-.27,4.61-.41,6.83,0,.46-.06.89-.09,1.27s-.05.71-.07,1,0,.27,0,.38c0,.53-.14,1.28-.26,2.14-.2,1.37-.49,3-.77,4.52,0,.07,0,.15,0,.23H75.35a12.41,12.41,0,0,1-.63-4.44,14.68,14.68,0,0,1,2.75-8l.4-.53c.21-.26.43-.53.66-.78a13.73,13.73,0,0,1,2.87-2.51Z"/><path class="cls-20" d="M46.2,81.74c.27.41-.7,3.06-3.37,5.08A9.14,9.14,0,0,1,33.3,88a9.24,9.24,0,0,1-3.61-3.32,36.56,36.56,0,0,0,7.21-1.57C41.25,81.67,45.92,81.32,46.2,81.74Z"/><path class="cls-11" d="M57.39,93.48a10.08,10.08,0,0,1-.9,1.06H47.83c2.64-2.64,4.13-3.85,6.35-4.94a26.76,26.76,0,0,1,4.18-1.67c.3-.08.52-.1.6,0a.73.73,0,0,1,.19.44A8,8,0,0,1,57.39,93.48Z"/><path class="cls-21" d="M139.13,94.54H98.52c0-.45.06-.9.11-1.36,1-9.73,7.12-21,16.21-30.57l.57-.6a79,79,0,0,1,12-10.15l.69-.46a69.32,69.32,0,0,1,7.19-4.26l.37-.19.15-.08.09.17.15.32a51.51,51.51,0,0,1,4.11,13.21l.15.83A82.82,82.82,0,0,1,139.13,94.54Z"/><path class="cls-12" d="M136,47.35a.39.39,0,0,1,0,.15l-4.35,12.31a.14.14,0,0,0,0,.06L129.44,66l-.4,1.13-6.83,19.35-.36,1-2.49,7h-.88l2.66-7.5v0L125,76l.32-.93,2.94-8.3a.08.08,0,0,1,0,0l2.47-7,.4-1.14,4-11.32a.19.19,0,0,1,0-.09.34.34,0,0,1,.15-.14.41.41,0,0,1,.21,0l.12,0,.12.07a.38.38,0,0,1,.11.14.34.34,0,0,1,.05.17Z"/><path class="cls-12" d="M131.25,60.11A.39.39,0,0,1,131,60a.41.41,0,0,1-.15-.17l-3.53-8.07a.75.75,0,0,1,0-.16.41.41,0,0,1,0-.16.42.42,0,0,1,.09-.14.45.45,0,0,1,.13-.1.41.41,0,0,1,.16,0,.45.45,0,0,1,.16,0,.39.39,0,0,1,.23.23l3.53,8.07a.42.42,0,0,1-.22.54.45.45,0,0,1-.16,0Z"/><path class="cls-12" d="M128.71,67.29a.55.55,0,0,1-.22-.06.5.5,0,0,1-.15-.17.37.37,0,0,1,0-.31.37.37,0,0,1,.2-.24L140,60.6a.51.51,0,0,1,.3,0,.4.4,0,0,1,.22.2.42.42,0,0,1,0,.29.4.4,0,0,1-.18.24L128.9,67.24a.67.67,0,0,1-.19.05Z"/><path class="cls-12" d="M125.5,76.31a.41.41,0,0,1-.19,0,.24.24,0,0,1-.14-.12L114.81,62.56a.39.39,0,0,1-.08-.14.92.92,0,0,1,0-.16.44.44,0,0,1,.06-.16.53.53,0,0,1,.1-.12l.15-.07a.42.42,0,0,1,.16,0l.15.05a.43.43,0,0,1,.12.11l10.36,13.58a.43.43,0,0,1,.09.21.45.45,0,0,1,0,.23.52.52,0,0,1-.16.17A.39.39,0,0,1,125.5,76.31Z"/><path class="cls-12" d="M121.54,87.58a.46.46,0,0,1-.27-.11.42.42,0,0,1-.08-.52.41.41,0,0,1,.21-.18l19.19-6.42a.4.4,0,0,1,.52.26.37.37,0,0,1,0,.31.39.39,0,0,1-.24.21l-19.18,6.42-.13,0Z"/><path class="cls-12" d="M115.93,94.54h-1.35l-8.32-6.45L106.1,88l-4.86-3.77a.68.68,0,0,1-.12-.12.54.54,0,0,1-.05-.32.48.48,0,0,1,.08-.16.48.48,0,0,1,.28-.15.32.32,0,0,1,.17,0,.28.28,0,0,1,.15.08Z"/><path class="cls-22" d="M87.27,94.54h-.79c-1-1.26-2-2.55-3-3.85L83,90c-.67-.9-1.33-1.8-2-2.72q-1.8-2.55-3.5-5.17c-.48-.75-1-1.51-1.44-2.27l-.59-1q-3-4.84-5.44-9.8A.27.27,0,0,1,70,69a.25.25,0,0,1,0-.17.27.27,0,0,1,.13-.13h0a.25.25,0,0,1,.15,0,.47.47,0,0,1,.15.06.31.31,0,0,1,.09.11q1.43,2.85,3,5.67c.24.44.48.88.75,1.32,1.13,1.94,2.31,3.88,3.54,5.79.64,1,1.31,2,2,3,.14.22.29.43.44.65L81,86.3C83,89.13,85.12,91.89,87.27,94.54Z"/><path class="cls-17" d="M70.28,68.94a87.88,87.88,0,0,1-5.71-14.33Z"/><path class="cls-17" d="M70.94,66.35a5.1,5.1,0,0,1-.66,2.59c-.62.31-4.18-1.52-5.7-5.18a13.29,13.29,0,0,1,0-9.14,23.51,23.51,0,0,1,4.1,4.12A10.62,10.62,0,0,1,70.94,66.35Z"/><path class="cls-22" d="M80,70.27C78.27,74,74.45,76.05,74,75.81s-.61-2.43-.13-4.57c1-4.33,4.26-6.68,6.3-9.17C81.09,63.18,81.65,66.8,80,70.27Z"/><path class="cls-22" d="M85.39,81.73c-2.32,3.09-5.23,3.73-5.48,3.48s.11-1.36.45-2.73.5-2.17.83-3.43c.83-3.29,3.12-9,6.34-10a3.75,3.75,0,0,0-.3,1.65C87.24,72.66,88.79,77.18,85.39,81.73Z"/><path class="cls-22" d="M91.77,94.54H87.92c.24-.42.61-1,1-1.83.65-1.16,1-2,2.34-4.73,2.55-5,3.92-7.42,4.3-9.1C98.65,80.76,98.73,90.43,91.77,94.54Z"/><path class="cls-22" d="M106.38,87.87l-.12.22c-2,3.8-2.15,4.26-3.23,6.45H97.52c.35-.47.72-.93,1.11-1.36A20.09,20.09,0,0,1,106.1,88Z"/><path class="cls-22" d="M76.2,79.54c0,.3-.81.83-1.06,1-6.22,3.75-14.57-.14-13.52-8.46,2.45,1.58,2.59,2.06,6.5,3.52C71,76.59,76.22,79,76.2,79.54Z"/><path class="cls-22" d="M83.47,90.69a3.33,3.33,0,0,1-.25.5,4.35,4.35,0,0,1-.38.57,10.13,10.13,0,0,1-2.94,2.55l-.41.23H70.05l-.11-.05a10.58,10.58,0,0,1-2.63-1.92h0a4.49,4.49,0,0,1-.41-.46l.57-.15c3.35-.91,5.44-1.51,7.25-1.86a20.26,20.26,0,0,1,3.89-.36c.28,0,1.13,0,2,.06a19.12,19.12,0,0,1,2.28.2c.31.06.52.13.56.21A.67.67,0,0,1,83.47,90.69Z"/><path class="cls-23" d="M45,47s16.18-2.92,17.31-2.25,3.07,3.4-6.59,7.38S46.84,57.62,42,54.68,45,47,45,47Z"/><path class="cls-24" d="M43.57,56.09a3.47,3.47,0,0,0,.27.46c1.4,2,4.91.26,6.52-.55a67.7,67.7,0,0,0,7-4.37c.71-.49,3.85-.57,4.83-.21.22.08,3.21.65,4.12.92,3.49,1,7.58,2.83,9.56,3.34.35-.36.35-1,.64-1.44-.32-.47-7.85-6.47-11.11-8.85-.85-.63-3.66-2-4.06-1.81-1.28.56-7.78,2.51-10.83,3.7-2.47,1-4.07-.13-5.41,2.19C44.07,51.18,42.63,54.05,43.57,56.09Z"/><path class="cls-25" d="M45.65,58c4.39.39,13.77-7.18,15.11-6.77a12.81,12.81,0,0,1,2.35.45c-.44-2.87.62-5.45,1.23-7.25a6.09,6.09,0,0,0-2-1c-2-.29-16.59,4.15-17.44,4.54l0,0h0l-5.2,7.59C41.8,58.32,44.37,57.91,45.65,58Z"/><path class="cls-26" d="M76.29,53.94a1.81,1.81,0,0,1-.35.86,1.84,1.84,0,0,1-.73.56s1.14,1.83,1.86,1.58.25-1.06,1.23-1.81,1.32-2.46,1.06-2.35A11.1,11.1,0,0,1,77.11,54,6.43,6.43,0,0,1,76.29,53.94Z"/><path class="cls-19" d="M40.89,56.71s.22-.14.59-.41c1.64-1.19,6.14-4.8,6.47-8.74a2.45,2.45,0,0,1,0-.27s-2-1.6-5.59-4S35.79,39,32.36,39L30,41.26s-.91.73.17,4a10.2,10.2,0,0,0,2,2.94,64.65,64.65,0,0,0,5.19,5.28C39.27,55.35,40.89,56.71,40.89,56.71Z"/><path class="cls-24" d="M30.67,37.12A3.7,3.7,0,0,0,32.35,39c1.18.57-1.49,3.22-2.39,2.29s-2.63-2.67-2.63-2.67Z"/><path class="cls-24" d="M29.18,31s3.23,3.89,2.16,5.83c-.68,1.22-1.64,2.53-3.66,2s-3.36-3.78-3.36-3.78l3.79-4Z"/><path class="cls-26" d="M21.37,31.06c.68-.89,1.88-1.41,2.49-2.39.53-.82,1.35-1.21,1.29-.59s1.07-.4,2.78-.64,2.77.59,2,.76-1.16.27-.59.54,2.75,1,2.12,1.75-2.05.1-2.81.78-.8.49-.95,1.38-1.07,1.06-1.43,1.49.81,0,.38,1.23-1.46,1.14-.53,1.89,2.09.33,2.16.62-1.07.65-.6.94a2.91,2.91,0,0,1,1.56,1.73c.21,1-.52-.49-2.09-.74S24,40,22,37.85a6.16,6.16,0,0,1-1-6.05,2.5,2.5,0,0,1,.39-.74Z"/><path class="cls-4" d="M69.43,69.64l-20.8,22.1-8.69.12c2-4.39,5.18-11.71,9.41-21.3C49.78,70.56,69.43,69.64,69.43,69.64Z"/><path class="cls-27" d="M68.32,69.66l-3,.08Z"/><path class="cls-4" d="M69.43,69.64l-7,7.4-16.3.76,3.19-7.23Z"/><path class="cls-12" d="M76.06,73.76a5.7,5.7,0,0,0,4.61-2.37l5-7a.64.64,0,0,0,.1-.24.53.53,0,0,0,0-.25.48.48,0,0,0-.12-.22.6.6,0,0,0-.21-.14L62.7,54.48a.52.52,0,0,0-.21,0l-.18,0L50,58.73l-9,3.14L23.78,42.41a.62.62,0,0,0-.19-.14.46.46,0,0,0-.23-.05.58.58,0,0,0-.26.06.57.57,0,0,0-.28.64l6.56,26.49a5.74,5.74,0,0,0,3.64,4h0a5.65,5.65,0,0,0,1.87.32Z"/><path class="cls-6" d="M23.37,42.78,40.86,62.52l9.37-3.26,7.93-2.75L62.5,55l9.69,3.89,2.45,1,2.69,1.08L82,62.79l3.25,1.3-5,7a5.22,5.22,0,0,1-1.82,1.58,5.11,5.11,0,0,1-2.34.56H34.9a5.07,5.07,0,0,1-3.17-1.1,5.15,5.15,0,0,1-1.81-2.83L23.36,42.78Zm0-1.13a1.18,1.18,0,0,0-.52.13,1.12,1.12,0,0,0-.56,1.27l6.56,26.49a6.18,6.18,0,0,0,1.44,2.72A6.25,6.25,0,0,0,32.85,74h0a6.21,6.21,0,0,0,2,.35H76.07a6.3,6.3,0,0,0,5.06-2.61l5-7a1.18,1.18,0,0,0,.2-.46,1.1,1.1,0,0,0,0-.51,1.26,1.26,0,0,0-.24-.44,1.46,1.46,0,0,0-.41-.29l-3.24-1.29h0L77.76,59.9l-2.71-1.08-2.46-1L62.9,54a1.08,1.08,0,0,0-.77,0l-4.33,1.5-7.94,2.76-8.67,3L24.2,42a1,1,0,0,0-.37-.28,1,1,0,0,0-.46-.1Z"/><path class="cls-13" d="M75.19,59.39l-.55.47L59.08,73.2H34.9a5.19,5.19,0,0,1-1.7-.29l17-13.65,7.93-2.75,14,2.37Z"/><g class="cls-28"><path class="cls-29" d="M82,62.79,69.54,73.19H64.26L77.33,60.94,82,62.79Z"/></g><path class="cls-12" d="M70.63,93.66a1.28,1.28,0,0,0,.47-.1,1.1,1.1,0,0,0,.38-.29,1.28,1.28,0,0,0,.33-.87,3,3,0,0,0-2.91-3.17H24.82a2.82,2.82,0,0,0-1.14.25,2.89,2.89,0,0,0-.93.7,3.29,3.29,0,0,0-.83,2.22,1.25,1.25,0,0,0,.07.47,1.36,1.36,0,0,0,.26.41,1.26,1.26,0,0,0,.38.27,1.12,1.12,0,0,0,.47.11Z"/><path class="cls-6" d="M24.82,89.79H68.91a2.49,2.49,0,0,1,2.35,2.61.75.75,0,0,1-.19.49.53.53,0,0,1-.44.2H23.1a.65.65,0,0,1-.45-.22.64.64,0,0,1-.17-.47,2.73,2.73,0,0,1,.68-1.85,2.17,2.17,0,0,1,.75-.56,2.23,2.23,0,0,1,.91-.2Zm0-1.12a3.36,3.36,0,0,0-1.36.29,3.3,3.3,0,0,0-1.12.84,3.83,3.83,0,0,0-1,2.6,1.78,1.78,0,0,0,1.73,1.82H70.63a1.69,1.69,0,0,0,1.27-.57,1.8,1.8,0,0,0,.47-1.25,3.6,3.6,0,0,0-3.46-3.73Z"/><path class="cls-13" d="M45.5,89.79,40.81,93.1h-13l7.12-3.31Z"/><path class="cls-13" d="M60.57,89.79,55.63,93.1H47.57l5-3.31Z"/><path class="cls-13" d="M67.38,89.79,64.3,93.1H58.83l4.28-3.31Z"/><path class="cls-30" d="M10.92,28.71A3.56,3.56,0,0,1,12.13,28a3.72,3.72,0,0,1,1.4-.2A3.63,3.63,0,0,1,16,29l24,27.12a4.26,4.26,0,0,0,4.59,1.22c20.16-7,18.94-6.76,20.22-6.51.62.12-1.57-.69,40.32,16.07a3.66,3.66,0,0,1,2,1.95,3.72,3.72,0,0,1,0,2.8,3.56,3.56,0,0,1-.76,1.19,3.77,3.77,0,0,1-1.16.82,3.69,3.69,0,0,1-1.39.3,3.65,3.65,0,0,1-1.39-.26L65.56,58.92a4.22,4.22,0,0,0-3-.08C41.31,66.24,42,66.06,41.34,66.15a3.65,3.65,0,0,1-1.47-.1,3.86,3.86,0,0,1-1.3-.68c-.33-.28,1.55,1.81-27.92-31.49a3.67,3.67,0,0,1,.27-5.17Z"/><path class="cls-12" d="M61.65,61.83,57.1,41.13l-16.25,7L50.36,66a1,1,0,0,0,1.3.5L61,63.09a1.14,1.14,0,0,0,.58-.5A1.12,1.12,0,0,0,61.65,61.83ZM45.36,48l8.15-3.61a1.17,1.17,0,0,1,1.05,0,1.15,1.15,0,0,1,.39.37,1.06,1.06,0,0,1,.19.51l3.44,14.55a.83.83,0,0,1-.07.58.88.88,0,0,1-.44.39l-5.5,2a.8.8,0,0,1-.57,0,.88.88,0,0,1-.44-.39L44.85,49.72a1.4,1.4,0,0,1-.18-.48,1.26,1.26,0,0,1,0-.51,1.11,1.11,0,0,1,.25-.45,1.14,1.14,0,0,1,.41-.31Z"/><path class="cls-30" d="M38.05,49.41c-.67-1.82.24-3,2-3.71l15.83-5.17c1.8-.68,3.2-.06,3.71.87.95,1.7.06,2.92-1.74,3.6L42.26,50.9C40.46,51.58,38.72,51.23,38.05,49.41Z"/><path class="cls-30" d="M61,61.62a1.16,1.16,0,0,0-.21-.67,1.21,1.21,0,0,0-.54-.43,1.17,1.17,0,0,0-.69-.06,1.22,1.22,0,0,0-.61.33,1.29,1.29,0,0,0-.32.61,1.2,1.2,0,0,0,1.18,1.43,1.16,1.16,0,0,0,.84-.36,1.2,1.2,0,0,0,.35-.85Z"/><path class="cls-30" d="M52.64,64.61a1.1,1.1,0,0,0-.21-.66,1.18,1.18,0,0,0-1.23-.5,1.18,1.18,0,0,0-.61.33,1.21,1.21,0,0,0-.33.62,1.17,1.17,0,0,0,.08.69,1.14,1.14,0,0,0,.44.53,1.22,1.22,0,0,0,.67.2,1.17,1.17,0,0,0,.84-.36,1.19,1.19,0,0,0,.35-.85Z"/><path class="cls-24" d="M34.76,43.67c2.73,1.73,7.52,3.2,9,2.79,2.25-.6,8.17-4.35,8.69-4.9s0-.51,1.28-.46a6.91,6.91,0,0,0,2.57-.55c.89-.21,0-1-1.12-1.56s-2-.37-2.92.73-7.57,3-8.68,3.13-3.94-1.28-4.76-2c-.11-.09-1.85-.94-1.85-.94-.34-.47-5.06-2-4.67,1.24C32.46,42.2,33.16,42.65,34.76,43.67Z"/><path class="cls-20" d="M37.29,45.38c.83-2.26,1.54-3.37,2.62-4.24l-.2-.17c-2.47-2.06-6.66-3.17-7.73-.62C31.52,41.44,34.37,43.71,37.29,45.38Z"/><path class="cls-31" d="M93.8,93c.4-.07.34.89.2,1-1,.51-3.32.57-5.17.71-2.16.15-4.39,0-4.58-.29a.8.8,0,0,1,.39-1.24A51.3,51.3,0,0,1,90,92.66C90.13,92.7,93.8,93,93.8,93Z"/><path class="cls-32" d="M91.39,86.17a20,20,0,0,1-1.13,4.66c-.1.2-1.16,1.41-.58,2a2.18,2.18,0,0,0,3.7-1.16c-.59-2.38,1-4.48,1-5.19S91.43,85.41,91.39,86.17Z"/><path class="cls-33" d="M93.37,90.59c-.06,1.34.73,1.6.42,2.67-.16.55-8,1.43-9.15.7-.6-.39-.06-.83.61-1.12s2.7-1.12,3.44-1.45c1-.44,1.21-1.29,1.42-1.14.49.35-.36,1.94,0,2.15.78.42,2.75-1.52,3.06-1.87C93.28,90.44,93.37,90.48,93.37,90.59Z"/><path class="cls-32" d="M113,86.84a8.8,8.8,0,0,1,.24,4.69c-.1.24-1,3.08,1.51,2.3,1.64-.5,2-1.06,1.75-1.41-1-1.67-.44-4.76-.44-5.44S112.79,86.19,113,86.84Z"/><path class="cls-31" d="M116.94,93.64c.32-.08.2,1,.12,1.15a10.5,10.5,0,0,1-3.64.46c-1.67,0-2.72-.14-2.86-.44a1.29,1.29,0,0,1,.36-1.09,18.44,18.44,0,0,1,3.13-.33C114.14,93.42,116.94,93.64,116.94,93.64Z"/><path class="cls-33" d="M113.72,90.69c-.36,0-.89.82-1.18,1.67-.34.36-1,.49-1.28,1s-.51.93-.39,1.09c.42.55,5.82.46,6,0s-.28-1.25-.35-1.88,0-.88-.21-1.19c-.07-.1-.22,0-.22.14,0,.41.07,1.12-.51,1.21C115.1,91.17,114.32,90.67,113.72,90.69Z"/><path class="cls-34" d="M101.8,59.18c1.1.28,1.68,1.69,1.31,3.14s-1.56,2.42-2.66,2.14-1.67-1.69-1.3-3.15S100.71,58.9,101.8,59.18Z"/><path class="cls-35" d="M102.89,62.27c.33-1.29-.18-2.55-1.16-2.79s-2,.6-2.36,1.89a2.19,2.19,0,0,0,1.16,2.8C101.51,64.42,102.56,63.57,102.89,62.27Z"/><path class="cls-36" d="M101.65,59.76a1.92,1.92,0,0,1,1,2.45c-.29,1.13-1.21,1.88-2.06,1.66a1.9,1.9,0,0,1-1-2.45C99.88,60.29,100.8,59.55,101.65,59.76Z"/><path class="cls-37" d="M101.58,60.06a1.63,1.63,0,0,1,.87,2.09c-.25,1-1,1.61-1.77,1.43a1.64,1.64,0,0,1-.87-2.1C100.06,60.51,100.85,59.87,101.58,60.06Z"/><path class="cls-38" d="M101.5,60.35a1.38,1.38,0,0,1,.73,1.75c-.2.81-.86,1.34-1.47,1.18a1.36,1.36,0,0,1-.73-1.74C100.24,60.73,100.9,60.2,101.5,60.35Z"/><path class="cls-39" d="M101.43,60.64A1.09,1.09,0,0,1,102,62c-.17.65-.69,1.07-1.18,1a1.09,1.09,0,0,1-.58-1.4C100.42,61,100.94,60.52,101.43,60.64Z"/><path class="cls-40" d="M101.36,60.94a.82.82,0,0,1,.43,1.05c-.12.48-.52.8-.88.71a.82.82,0,0,1-.44-1.05C100.6,61.16,101,60.85,101.36,60.94Z"/><path class="cls-41" d="M101.28,61.23a.55.55,0,0,1,.29.7.54.54,0,0,1-.59.47.63.63,0,0,1,.3-1.17Z"/><path class="cls-42" d="M101.21,61.53a.22.22,0,0,1,.14.14.3.3,0,0,1,0,.21.29.29,0,0,1-.3.24.26.26,0,0,1-.14-.15.23.23,0,0,1,0-.2C101,61.6,101.08,61.49,101.21,61.53Z"/><path class="cls-25" d="M110.57,42.1c1.36,6.6,2.63,18.24,3.28,24.28a31.79,31.79,0,0,0,.82,4.73c1,4.2,1.63,16.22,1.63,16.71-.35.66-4.27,1.54-4.24.43-5-15.94-4.22-16.41-5.32-19.3-4.46-11.81-10.11-25.12-10.11-25.12Z"/><path class="cls-25" d="M109.22,43.25c-1.56,6.55-5.09,18-7.58,23.29a49.36,49.36,0,0,1-1.47,4.89C99,75.51,95.3,86.66,95.09,87.11c-.59.44-4.74-.32-4.24-1.31,2.37-16.27,3-16.86,3.26-19.9.94-12.59,1.75-27,1.75-27Z"/><path class="cls-22" d="M100.69,13.79c2,.32,10.57.82,13.08,4.61,1.06,1.6-2.33,24.45-3,25.16-1,1.12-14.45,2.63-16.55,0-.59-.75-6.68-23.13-2.59-26.57C93.73,15.25,100.69,13.79,100.69,13.79Z"/><path class="cls-43" d="M96.17,1.13c-1.73,1.14-1.26,4.45.92,5.85,1.13.73,5.06,2.64,5.83,2.16s2-4.2,1-6.28A2.79,2.79,0,0,0,102,1.3c-.89-.14-1.21-.65-2.37-1.14S97.06.54,96.17,1.13Z"/><path class="cls-44" d="M103.17,4.67c.34,3.08,1.17,8.89,1.4,9.44s-2,1.79-3.64,1.8c-2.24,0-3.55-.83-3.55-1.34S98.11,9,98.11,9l1.75-3.89Z"/><path class="cls-32" d="M98.36,3.34c-.61.18-1.23-.65-1.6-.22-.52.61-.71.92-.64,2.46.13,2.8,1.62,6,2.58,6,3,.17,4.23-3.76,4.26-3.94.2-1.3,0-1.11.15-1.64s.68-1.42.4-1.8-.83.26-.83.26a3.19,3.19,0,0,0-1.15-1.59C100.89,2.33,100,2.85,98.36,3.34Z"/><path class="cls-25" d="M100.3,6.18c0,.33.18.59.38.58s.36-.29.34-.63-.18-.59-.39-.58S100.29,5.84,100.3,6.18Z"/><path class="cls-25" d="M97.38,6.42c0,.33.19.6.39.59s.35-.3.34-.63-.19-.6-.39-.59S97.37,6.08,97.38,6.42Z"/><path class="cls-25" d="M29.76,33.93c.21.26.51.36.66.24s.11-.45-.1-.71-.51-.37-.66-.24S29.55,33.66,29.76,33.93Z"/><path class="cls-45" d="M98.61,7.86a2,2,0,0,0,.55.12,2.77,2.77,0,0,0,.65-.22A3.52,3.52,0,0,0,98.61,7.86Z"/><path class="cls-25" d="M100.18,5.16a1.77,1.77,0,0,1,.22-.11,1.5,1.5,0,0,1,.51-.07.62.62,0,0,1,.26.06.8.8,0,0,1,.23.11l.16.1.06,0a.06.06,0,0,0,.07,0l0,0a.18.18,0,0,0,0-.12l-.06-.07a1.19,1.19,0,0,0-.15-.18l-.25-.19a1.08,1.08,0,0,0-.35-.1.84.84,0,0,0-.35,0,.82.82,0,0,0-.28.14.84.84,0,0,0-.23.23.06.06,0,0,0,0,0,0,0,0,0,0,0,.05.08.08,0,0,0,0,0l0,0h.09Z"/><path class="cls-25" d="M98.23,5.4A1.69,1.69,0,0,0,98,5.3a1.22,1.22,0,0,0-.5-.08,1.1,1.1,0,0,0-.26.06A1,1,0,0,0,97,5.4a.54.54,0,0,0-.16.1l-.06,0h-.07s0,0,0,0a.08.08,0,0,1,0-.06.14.14,0,0,1,0-.06l0-.07.15-.17a1.15,1.15,0,0,1,.26-.19,1,1,0,0,1,.34-.11.82.82,0,0,1,.35,0,1,1,0,0,1,.29.14.88.88,0,0,1,.23.24s0,0,0,0v0a.06.06,0,0,1,0,0l0,0h-.08Z"/><path class="cls-25" d="M29.76,32.52l-.24.06a2,2,0,0,0-.45.24,1.71,1.71,0,0,0-.18.2.94.94,0,0,0-.12.22.87.87,0,0,0-.07.17l0,.07a.1.1,0,0,1-.05,0,.09.09,0,0,1-.07,0s0,0-.05,0,0,0,0-.06v-.08a.78.78,0,0,1,0-.22,1,1,0,0,1,.1-.29,1.23,1.23,0,0,1,.22-.29.91.91,0,0,1,.3-.19,1,1,0,0,1,.3-.06.8.8,0,0,1,.31,0l0,0,0,0a.08.08,0,0,1,0,0v0l0,0,0,0Z"/><path class="cls-8" d="M98.36,9.34a6.39,6.39,0,0,1,1.92-.13c.12.07-.53.68-.92.71S98.29,9.48,98.36,9.34Z"/><path class="cls-8" d="M30.84,35.57a1.28,1.28,0,0,1,.61-.39c.12,0,.24.6.1,1C31.31,36.17,30.79,35.71,30.84,35.57Z"/><path class="cls-22" d="M97.59,12.8c-.24-.09-1.41,1.72-1.48,2.12s2.09,2.94,2.61,2.67.93-1.29,1.13-1.37.51,1.63,1.14,1.63,5.36-2.05,5.38-3.4a16.55,16.55,0,0,0-2.22-2.53c-.28.14-2.14,1.87-4.42,1.87A3.69,3.69,0,0,1,97.59,12.8Z"/><path class="cls-20" d="M99.9,14.43l-1,2.8s.29,1.2.48,1.71c-.48.93-1.73,13.36,0,17.63a28.71,28.71,0,0,0,2.92-4.4s-2.5-9.65-2.22-13.23a12,12,0,0,0,.59-2Z"/><path class="cls-32" d="M71.3,20.63c.16-1.53-1.41-2.82-1.7-3.19s-.6-.87-.82-.56.15,1.14.15,1.55-2.06-1.57-2.5-1.87-1.48-.69-1.55-.28,1.56,1.27,1.66,1.74-2.19-.92-2.48-.56a3.71,3.71,0,0,0,0,2.59c.34.57,4.1,2.77,4.35,2.94a18.45,18.45,0,0,0,2.58.46Z"/><path class="cls-12" d="M94.11,15.35c-2.76,1.19-12.11,8.54-14.76,8a70,70,0,0,1-8-2.76S69.41,23.41,70,24.2s8.8,6.19,10.6,6.66c3.08.81,11.66-5,11.66-5Z"/><path class="cls-12" d="M105.55,13.39c.35,3.69-3,43.77-1.29,48.24,5.86,1.46,14.08-1.11,14.08-1.11s-3.64-17.81-3.54-21.15.73-19-.29-21.26C113.29,15.43,105.55,13.39,105.55,13.39Z"/><path class="cls-12" d="M96.51,14.09A12.24,12.24,0,0,0,91.77,17c-3.06,2.9,0,18.78-1.23,23.05s-3.7,19.68-3.32,20.24,5.55,2.13,7.06,1.72,1.18-23.26.68-27.23S96.51,14.09,96.51,14.09Z"/><path class="cls-32" d="M113.75,41.61l-1.54,2.21s-1.46,2.54-1.67,3-.56,1.34-.35,1.45a22.39,22.39,0,0,0,3.93-.47c.41-.15,0-2.91.41-3.08a41.43,41.43,0,0,0,2.89-3.84Z"/><path class="cls-12" d="M114.52,18.12c3.44,4.2,9.77,12.72,9.77,14.92s-8.5,11.49-8.5,11.49l-3.18-2.08s4.24-9.06,4.55-9.89-6.41-4.94-6.62-7.63S113.37,16.72,114.52,18.12Z"/><path class="cls-6" d="M108.78,56.56c-.4,0-.68-.05-.78-.17-.37-.42-1.07-5.82-1.35-8.13a.14.14,0,0,1,0-.09.36.36,0,0,1,0-.09.21.21,0,0,1,.17-.08l7.62-.51a.27.27,0,0,1,.17.06.21.21,0,0,1,.08.17c0,.27.24,6.72.19,7.3,0,.21-.2.39-1,.65A24,24,0,0,1,108.78,56.56Zm-.43-.49c.68.24,5.61-.67,6.11-1.13,0-.63-.12-5-.19-7l-7.12.49a67.82,67.82,0,0,0,1.2,7.6Z"/><path class="cls-6" d="M114.7,30.24a.16.16,0,0,1-.1,0,.16.16,0,0,1-.08-.06,52.39,52.39,0,0,1-4.17-5.1.22.22,0,0,1,0-.16.2.2,0,0,1,.1-.12.32.32,0,0,1,.16,0,.22.22,0,0,1,.14.08,55.46,55.46,0,0,0,4.13,5,.18.18,0,0,1,.05.12.2.2,0,0,1,0,.13.25.25,0,0,1-.08.1.28.28,0,0,1-.12,0Z"/><path class="cls-6" d="M90.66,27c-.13,0-.24,0-.24-.11,0-.79,0-1.88-.1-2.94a22.06,22.06,0,0,1,0-3.53c0-.06.13-.1.26-.09s.22.06.21.12a24.49,24.49,0,0,0,0,3.5c0,1.06.1,2.15.1,2.94C90.9,26.92,90.79,27,90.66,27Z"/><path class="cls-6" d="M105.12,33.88l-.09,0a.25.25,0,0,1-.12-.13.28.28,0,0,1,0-.18c1-2.29,3.81-9.51,3.78-10.31a3.62,3.62,0,0,0-1.08-.34c-.79-.17-1.46-.32-1.46-.8s1.19-2.77,2.89-5.89l.44-.81a.26.26,0,0,1,0-.09.15.15,0,0,1,.09-.06.18.18,0,0,1,.1,0,.23.23,0,0,1,.11,0,.18.18,0,0,1,.08.07.3.3,0,0,1,0,.1.17.17,0,0,1,0,.1.31.31,0,0,1,0,.1l-.45.81a46,46,0,0,0-2.83,5.65,3.13,3.13,0,0,0,1.1.35c.65.14,1.21.27,1.4.59.1.16.25.41-1.53,5.08-.89,2.35-1.91,4.85-2.23,5.63a.32.32,0,0,1-.1.1A.23.23,0,0,1,105.12,33.88Z"/><path class="cls-6" d="M94.5,34.13a.29.29,0,0,1-.13-.05.31.31,0,0,1-.09-.11C94,33.14,91.89,23.75,92,23.08c.08-.4.61-.6,1.22-.83.38-.15,1-.39,1-.59a8.51,8.51,0,0,0-.4-1.58,29.66,29.66,0,0,1-1-3.93.2.2,0,0,1,0-.11.19.19,0,0,1,0-.1.27.27,0,0,1,.07-.08.21.21,0,0,1,.1,0h.11a.33.33,0,0,1,.1.06.2.2,0,0,1,.06.09.36.36,0,0,1,0,.11,28.68,28.68,0,0,0,1,3.86,8.35,8.35,0,0,1,.42,1.72c0,.52-.68.78-1.34,1-.31.12-.9.34-.92.49-.07.61,1.9,9.68,2.24,10.64a.14.14,0,0,1,0,.11.23.23,0,0,1-.12.17.2.2,0,0,1-.11,0Z"/><path class="cls-6" d="M113,61.94a.21.21,0,0,1-.14-.07.23.23,0,0,1,0-.3.22.22,0,0,1,.13-.1l.6-.1a25.62,25.62,0,0,0,4.61-1c.16-.58-.83-5.15-1.89-9.29a.24.24,0,0,1,0-.16.26.26,0,0,1,.29-.07.25.25,0,0,1,.12.11s.59,2.3,1.11,4.61c1.07,4.8.83,5,.66,5.15-.44.38-2.56.75-4.88,1.14L113,62Z"/><path class="cls-6" d="M116.27,44.2a.25.25,0,0,1-.16-.06l-.06-.07a.29.29,0,0,1,0-.09.14.14,0,0,1,0-.09.25.25,0,0,1,0-.09s2-2.39,3.11-3.47c1.24-1.24,4.83-6.93,4.41-8.18-.65-1.95-4-6.93-10.07-14.82a.22.22,0,0,1,0-.08.34.34,0,0,1,0-.1.16.16,0,0,1,0-.09l.06-.07a.24.24,0,0,1,.18,0,.21.21,0,0,1,.16.1C120,25,123.38,30,124.06,32c.55,1.64-3.5,7.65-4.52,8.68s-3.07,3.42-3.08,3.44l-.09.07Z"/><path class="cls-6" d="M112.91,42.43h-.07l-.09,0-.06-.08a.29.29,0,0,1,0-.09.14.14,0,0,1,0-.09c.24-.82,4.1-9.3,4.26-9.66a.29.29,0,0,1,.14-.13.22.22,0,0,1,.18,0,.24.24,0,0,1,.13.13.31.31,0,0,1,0,.19c-1.39,3-4.06,9-4.25,9.6a.27.27,0,0,1-.09.12A.23.23,0,0,1,112.91,42.43Z"/></g></g></svg>