<svg xmlns="http://www.w3.org/2000/svg" viewBox="0 0 137.09 105.25"><defs><style>.cls-1,.cls-10,.cls-4,.cls-5{fill:#037971;}.cls-1{fill-opacity:0.2;}.cls-1,.cls-10,.cls-14,.cls-15,.cls-17,.cls-18,.cls-19,.cls-2,.cls-20,.cls-21,.cls-23,.cls-24,.cls-26,.cls-28,.cls-29,.cls-3,.cls-30,.cls-31,.cls-32,.cls-33,.cls-6,.cls-8,.cls-9{fill-rule:evenodd;}.cls-2{fill:#edecf5;}.cls-13,.cls-3{fill:#fff;}.cls-5{fill-opacity:0.5;}.cls-6{fill:#e1dfef;}.cls-7,.cls-9{fill:#8dc7e0;}.cls-11,.cls-8{fill:#b4e1f9;}.cls-12,.cls-23,.cls-25{fill:#f06c9b;}.cls-12{fill-opacity:0.8;}.cls-14{fill:#ecbe8d;}.cls-15,.cls-16{fill:#c7c2df;}.cls-17{fill:#36234d;}.cls-18{fill:#8f87a9;}.cls-19{fill:#7d7d7d;}.cls-20{fill:#e0e7f5;}.cls-21{fill-opacity:0.81;}.cls-22,.cls-28{fill:#4aa99f;}.cls-24{fill:#ebe8f3;}.cls-25{fill-opacity:0.7;}.cls-26,.cls-27{fill:#1e1642;}.cls-29{fill:#dd9187;}.cls-30{fill:#145f91;}.cls-31{fill:#eabfb9;}.cls-32{fill:#d7766d;}.cls-33{fill:#f0d4d1;}.cls-34{fill:#d26070;}</style></defs><title>slide4</title><g id="图层_2" data-name="图层 2"><g id="Layer_1" data-name="Layer 1"><path class="cls-1" d="M9.4,75.37a7.89,7.89,0,0,1,7.85,7.89h0a14.53,14.53,0,0,0,4.21,10.17,14.3,14.3,0,0,0,10.11,4.23h86.9a18.56,18.56,0,0,0,13.15-5.49,18.83,18.83,0,0,0,5.47-13.23h0a18.81,18.81,0,0,0-5.47-13.22,18.61,18.61,0,0,0-13.15-5.5H118a3.76,3.76,0,0,1-3.74-3.75h0A3.77,3.77,0,0,1,118,52.71H120a9.07,9.07,0,0,0,6.4-2.68,9.18,9.18,0,0,0,2.67-6.44h0A9.15,9.15,0,0,0,120,34.47H111.2a7.89,7.89,0,0,1-7.85-7.89h0a14.53,14.53,0,0,0-4.21-10.17A14.3,14.3,0,0,0,89,12.18H30.17A18.71,18.71,0,0,0,11.56,30.9h0A18.71,18.71,0,0,0,30.17,49.62h0a3.74,3.74,0,0,1,2.64,1.1,3.75,3.75,0,0,1,0,5.31,3.74,3.74,0,0,1-2.64,1.1H9.41C-2.48,57.11-2.48,75.37,9.4,75.37Z"/><path class="cls-2" d="M58.33,75.47H76.17L79,93.63H55.54Z"/><path class="cls-3" d="M53,93.36H81.48a2.69,2.69,0,0,1,1.91.81,2.72,2.72,0,0,1,.8,1.92.85.85,0,0,1-.85.85H51.15a.86.86,0,0,1-.6-.25.87.87,0,0,1-.24-.6A2.73,2.73,0,0,1,53,93.36Z"/><path class="cls-4" d="M103.75,29.51H30a2.78,2.78,0,0,0-2.78,2.79V76.62A2.79,2.79,0,0,0,30,79.42h73.76a2.8,2.8,0,0,0,2.79-2.8V32.3A2.79,2.79,0,0,0,103.75,29.51Z"/><path class="cls-3" d="M106.54,75.23v5.36a2.84,2.84,0,0,1-.82,2,2.79,2.79,0,0,1-2,.82H30a2.78,2.78,0,0,1-2.78-2.8V75.23Z"/><path class="cls-5" d="M103.9,32.16H29.85V72.57H103.9Z"/><path class="cls-6" d="M66.87,76.94a2.19,2.19,0,0,1,1.22.37,2.14,2.14,0,0,1,.81,1,2.19,2.19,0,0,1-.48,2.41,2.12,2.12,0,0,1-1.12.6,2.22,2.22,0,0,1-2.64-2.17,2.26,2.26,0,0,1,.17-.85,2.33,2.33,0,0,1,.48-.72A2.39,2.39,0,0,1,66,77.1a2.17,2.17,0,0,1,.84-.16Z"/><path class="cls-7" d="M122.58,69.62H91.29a1.56,1.56,0,0,0-1.55,1.56V91.35a1.56,1.56,0,0,0,1.55,1.56h31.29a1.55,1.55,0,0,0,1.55-1.56V71.18A1.55,1.55,0,0,0,122.58,69.62Z"/><path class="cls-8" d="M106.54,75.23v5.36a2.84,2.84,0,0,1-.82,2,2.79,2.79,0,0,1-2,.82h-14V75.23Z"/><path class="cls-9" d="M103.9,69.62v2.95H89.74V71.18a1.55,1.55,0,0,1,.46-1.1,1.5,1.5,0,0,1,1.09-.46Z"/><path class="cls-10" d="M132.66,96.94H1.84A1.84,1.84,0,0,0,0,98.79H0a1.81,1.81,0,0,0,.54,1.3,1.82,1.82,0,0,0,1.3.55H8a1,1,0,0,1,1,1h0a1.06,1.06,0,0,1-.3.73,1,1,0,0,1-.72.3H5.77A1.28,1.28,0,0,0,4.5,104h0a1.29,1.29,0,0,0,.37.91,1.26,1.26,0,0,0,.9.37H128.53a1.26,1.26,0,0,0,.9-.37,1.29,1.29,0,0,0,.37-.91h0a1.26,1.26,0,0,0-.37-.9,1.23,1.23,0,0,0-.9-.38h-1.79a1,1,0,0,1-.72-.3,1,1,0,0,1-.3-.73,1,1,0,0,1,.3-.72,1,1,0,0,1,.72-.3h5.92a1.86,1.86,0,0,0,1.84-1.85,1.89,1.89,0,0,0-.54-1.31,1.87,1.87,0,0,0-1.3-.54Zm-.95,8.31a1.23,1.23,0,0,1-1.23-1.23v-.1a1.23,1.23,0,1,1,2.45,0v.1a1.23,1.23,0,0,1-1.22,1.23Z"/><path class="cls-3" d="M112.41,33.11a.85.85,0,0,0,.77-.51.82.82,0,0,0,0-.49.79.79,0,0,0-.65-.65.79.79,0,0,0-.48,0,.93.93,0,0,0-.37.31.83.83,0,0,0,.69,1.3Z"/><path class="cls-11" d="M98.63,35.22H71.26a1.62,1.62,0,0,0-1.61,1.62V63.52a1.61,1.61,0,0,0,1.61,1.61H98.63a1.61,1.61,0,0,0,1.6-1.61V36.84A1.62,1.62,0,0,0,98.63,35.22Z"/><path class="cls-12" d="M99.81,34.45H72.44a1.61,1.61,0,0,0-1.6,1.61V62.74a1.61,1.61,0,0,0,1.6,1.62H99.81a1.61,1.61,0,0,0,1.61-1.62V36.06A1.61,1.61,0,0,0,99.81,34.45Z"/><path class="cls-13" d="M73.66,35.61H95.24a.51.51,0,0,1,.52.52V38.7a.5.5,0,0,1-.15.37.52.52,0,0,1-.37.16H73.66a.53.53,0,0,1-.52-.53V36.13a.56.56,0,0,1,.15-.37.53.53,0,0,1,.37-.15Z"/><path class="cls-4" d="M99.73,35.61H97.24a.51.51,0,0,0-.52.51v2.59a.51.51,0,0,0,.52.51h2.49a.51.51,0,0,0,.52-.51V36.12A.51.51,0,0,0,99.73,35.61Z"/><path class="cls-13" d="M94.82,40.24H74.08a1,1,0,0,0-.94.95v19a.94.94,0,0,0,.94.95H94.82a.94.94,0,0,0,.94-.95v-19A1,1,0,0,0,94.82,40.24Z"/><path class="cls-14" d="M93.78,41.52a.54.54,0,0,1,.28.08.58.58,0,0,1,.18.23.45.45,0,0,1,0,.28.51.51,0,0,1-.14.26.47.47,0,0,1-.25.13.46.46,0,0,1-.51-.21.5.5,0,0,1,.06-.62.49.49,0,0,1,.35-.15Zm-3.6,0a.5.5,0,0,1,.27.08.53.53,0,0,1,.19.23.54.54,0,0,1,0,.28.43.43,0,0,1-.13.26.5.5,0,0,1-.25.13.57.57,0,0,1-.29,0,.51.51,0,0,1-.22-.19.43.43,0,0,1-.08-.27.5.5,0,0,1,.14-.35A.47.47,0,0,1,90.18,41.52Zm1.8,0a.54.54,0,0,1,.28.08.58.58,0,0,1,.18.23.45.45,0,0,1,0,.28.51.51,0,0,1-.14.26.5.5,0,0,1-.25.13.57.57,0,0,1-.29,0,.57.57,0,0,1-.22-.19.5.5,0,0,1,.06-.62.49.49,0,0,1,.35-.15Z"/><path class="cls-15" d="M76.46,48.78H94.12a.17.17,0,0,1,.17.17h0a.14.14,0,0,1,0,.07.09.09,0,0,1,0,0l-.06,0H76.39A.29.29,0,0,1,76.3,49a.15.15,0,0,1,0-.07.18.18,0,0,1,0-.12.17.17,0,0,1,.12,0Z"/><path class="cls-15" d="M74.91,49.24a.27.27,0,0,0,.28-.28.28.28,0,0,0-.08-.2.28.28,0,0,0-.2-.09.25.25,0,0,0-.2.09.28.28,0,0,0-.08.2.32.32,0,0,0,.08.2.28.28,0,0,0,.2.08Z"/><path class="cls-15" d="M76.46,50.24H94.12a.15.15,0,0,1,.12,0,.17.17,0,0,1,.05.12h0a.17.17,0,0,1-.17.17H76.46a.17.17,0,0,1-.12,0,.18.18,0,0,1,0-.12h0a.17.17,0,0,1,0-.12.13.13,0,0,1,.12,0Z"/><path class="cls-15" d="M74.91,50.7a.32.32,0,0,0,.2-.08.3.3,0,0,0,.08-.2.28.28,0,0,0-.08-.2.32.32,0,0,0-.2-.08.27.27,0,0,0-.28.28.3.3,0,0,0,.08.2.28.28,0,0,0,.2.08Z"/><path class="cls-15" d="M76.46,51.69H94.12a.15.15,0,0,1,.12.05.17.17,0,0,1,.05.12h0a.17.17,0,0,1-.17.17H76.46a.17.17,0,0,1-.12-.05.18.18,0,0,1,0-.12h0a.17.17,0,0,1,0-.12.13.13,0,0,1,.12-.05Z"/><path class="cls-15" d="M74.91,52.14a.32.32,0,0,0,.2-.08.3.3,0,0,0,.08-.2.28.28,0,0,0-.08-.2.32.32,0,0,0-.2-.08.27.27,0,0,0-.28.28.3.3,0,0,0,.08.2.28.28,0,0,0,.2.08Z"/><path class="cls-15" d="M76.46,53.14H94.12a.18.18,0,0,1,.12,0,.17.17,0,0,1,.05.12h0a.17.17,0,0,1-.17.17H76.46a.17.17,0,0,1-.12,0,.18.18,0,0,1,0-.12h0a.17.17,0,0,1,.17-.17Z"/><path class="cls-15" d="M74.91,53.58a.26.26,0,0,0,.18-.09.29.29,0,0,0-.18-.48.25.25,0,0,0-.12,0,.21.21,0,0,0-.1.06.31.31,0,0,0-.07.09.5.5,0,0,0,0,.12.27.27,0,0,0,.09.21.21.21,0,0,0,.1.06.25.25,0,0,0,.12,0Z"/><path class="cls-15" d="M76.46,54.59H94.12a.18.18,0,0,1,.12,0,.17.17,0,0,1,.05.12h0a.17.17,0,0,1-.17.17H76.46a.17.17,0,0,1-.12,0,.18.18,0,0,1,0-.12h0a.17.17,0,0,1,.17-.17Z"/><path class="cls-15" d="M74.91,55a.32.32,0,0,0,.2-.08.3.3,0,0,0,.08-.2.28.28,0,0,0-.08-.2.27.27,0,0,0-.2-.08.24.24,0,0,0-.2.08.28.28,0,0,0-.08.2.3.3,0,0,0,.08.2.28.28,0,0,0,.2.08Z"/><path class="cls-15" d="M76.46,56H94.12a.18.18,0,0,1,.12.05.17.17,0,0,1,.05.12h0a.17.17,0,0,1-.17.17H76.46a.17.17,0,0,1-.12-.05.18.18,0,0,1,0-.12h0a.17.17,0,0,1,.17-.17Z"/><path class="cls-15" d="M74.91,56.49a.32.32,0,0,0,.2-.08.3.3,0,0,0,.08-.2.28.28,0,0,0-.08-.2.27.27,0,0,0-.2-.08.24.24,0,0,0-.2.08.28.28,0,0,0-.08.2.3.3,0,0,0,.08.2.28.28,0,0,0,.2.08Z"/><path class="cls-15" d="M76.46,57.49H94.12a.18.18,0,0,1,.12,0,.17.17,0,0,1,.05.12h0a.17.17,0,0,1-.17.17H76.46a.17.17,0,0,1-.12,0,.18.18,0,0,1,0-.12h0a.17.17,0,0,1,.17-.17Z"/><path class="cls-15" d="M74.91,57.94a.26.26,0,0,0,.18-.09.29.29,0,0,0-.18-.48l-.12,0a.21.21,0,0,0-.1.06.31.31,0,0,0-.07.09.5.5,0,0,0,0,.12.27.27,0,0,0,.09.21.21.21,0,0,0,.1.06A.25.25,0,0,0,74.91,57.94Z"/><path class="cls-15" d="M76.46,58.94H94.12a.18.18,0,0,1,.12.05.17.17,0,0,1,.05.12h0a.17.17,0,0,1-.17.17H76.46a.17.17,0,0,1-.12-.05.18.18,0,0,1,0-.12h0a.17.17,0,0,1,.17-.17Z"/><path class="cls-15" d="M74.91,59.39a.32.32,0,0,0,.2-.08.3.3,0,0,0,.08-.2.28.28,0,0,0-.08-.2.32.32,0,0,0-.2-.08.27.27,0,0,0-.28.28.3.3,0,0,0,.08.2.28.28,0,0,0,.2.08Z"/><path class="cls-16" d="M81.84,47h6.22a.33.33,0,0,1,.24.1.35.35,0,0,1,.1.24h0a.34.34,0,0,1-.34.34H81.84a.35.35,0,0,1-.24-.1.37.37,0,0,1-.1-.24h0a.51.51,0,0,1,0-.13.44.44,0,0,1,.08-.11l.11-.08.13,0Z"/><path class="cls-16" d="M93.94,47H89.55a.34.34,0,1,0,0,.67h4.39a.34.34,0,1,0,0-.67Z"/><path class="cls-3" d="M97.56,36.49a1,1,0,0,1,.7-.29,1,1,0,0,1,.91.61.83.83,0,0,1,.07.38h0a1,1,0,0,1-.19.59l.6.61a.15.15,0,0,1,0,.1.15.15,0,0,1,0,.09.14.14,0,0,1-.2,0l-.6-.6a1,1,0,0,1-.59.2h0a1.22,1.22,0,0,1-.38-.07,1,1,0,0,1-.32-.22,1,1,0,0,1-.28-.7,1,1,0,0,1,.28-.7Zm.7,0a.79.79,0,0,0-.38.13.73.73,0,0,0-.24.31.69.69,0,0,0,0,.4.71.71,0,0,0,.17.36.74.74,0,0,0,.5.2.7.7,0,0,0,.5-.2.57.57,0,0,0,.15-.23.66.66,0,0,0,.06-.27.6.6,0,0,0-.06-.27.51.51,0,0,0-.15-.23.71.71,0,0,0-.5-.21Z"/><path class="cls-17" d="M75.63,37.89H93.35l.06,0,0,.06a.13.13,0,0,1,0,.06h0a.17.17,0,0,1,0,.07l0,0-.06,0H75.63a.17.17,0,0,1-.12,0,.13.13,0,0,1-.05-.12h0a.15.15,0,0,1,.05-.12.17.17,0,0,1,.12,0Z"/><path class="cls-18" d="M81.71,41.52h4a.24.24,0,0,1,.22.25.26.26,0,0,1-.22.26h-4a.26.26,0,0,1-.16-.09.29.29,0,0,1,0-.17.34.34,0,0,1,0-.17A.3.3,0,0,1,81.71,41.52Z"/><path class="cls-18" d="M81.71,42.64H84a.3.3,0,0,1,.16.08.22.22,0,0,1,0,.17.21.21,0,0,1,0,.17.26.26,0,0,1-.16.09H81.71a.26.26,0,0,1-.16-.09.31.31,0,0,1,0-.17.27.27,0,0,1,.06-.17A.28.28,0,0,1,81.71,42.64Z"/><path class="cls-18" d="M84.71,42.64H85a.28.28,0,0,1,.15.08.22.22,0,0,1,.06.17.2.2,0,0,1,0,.17.26.26,0,0,1-.16.09h-.33a.26.26,0,0,1-.16-.09.2.2,0,0,1,0-.17h0a.22.22,0,0,1,0-.17A.3.3,0,0,1,84.71,42.64Z"/><path class="cls-18" d="M81.71,45.72h2a.19.19,0,0,0,.16-.08.27.27,0,0,0,0-.34.19.19,0,0,0-.16-.08h-2a.21.21,0,0,0-.16.08.31.31,0,0,0,0,.34A.21.21,0,0,0,81.71,45.72Z"/><path class="cls-18" d="M81.71,44.61h2.78a.26.26,0,0,0,.16-.09.21.21,0,0,0,0-.17h0a.22.22,0,0,0,0-.17.21.21,0,0,0-.16-.08H81.71a.21.21,0,0,0-.16.08.31.31,0,0,0,0,.34A.26.26,0,0,0,81.71,44.61Z"/><path class="cls-18" d="M85.32,44.61h.48a.24.24,0,0,0,.15-.09.25.25,0,0,0,.06-.17h0a.27.27,0,0,0-.06-.17.19.19,0,0,0-.15-.08h-.48a.21.21,0,0,0-.16.08.31.31,0,0,0,0,.34A.26.26,0,0,0,85.32,44.61Z"/><path class="cls-4" d="M80.28,41.46H75.14a.24.24,0,0,0-.24.24v5.49a.25.25,0,0,0,.24.25h5.14a.25.25,0,0,0,.25-.25V41.7A.25.25,0,0,0,80.28,41.46Z"/><path class="cls-3" d="M76.18,43.92h3.1a.33.33,0,0,1,.23.1.31.31,0,0,1,.1.24v2a.59.59,0,0,1,0,.13.28.28,0,0,1-.08.11.3.3,0,0,1-.11.07l-.12,0h-3.1a.4.4,0,0,1-.24-.1.36.36,0,0,1-.09-.24v-2a.27.27,0,0,1,0-.13.41.41,0,0,1,.07-.11l.11-.08.13,0Zm3.1.24H76.14l0,0,0,0s0,0,0,0v2a.11.11,0,0,0,0,.07.11.11,0,0,0,.08,0h3.1a.09.09,0,0,0,.07,0,.11.11,0,0,0,0-.07v-2l0,0,0,0Z"/><path class="cls-3" d="M76,43.92h3.48a.05.05,0,0,0,0,0,.15.15,0,0,0,0-.09v-.5a.43.43,0,0,0,0,0l0-.05,0,0H76l0,0,0,.05a.07.07,0,0,0,0,0v.5a.11.11,0,0,0,0,.09s0,0,0,0Zm3.43.24H76a.38.38,0,0,1-.36-.36v-.51a.32.32,0,0,1,0-.14.25.25,0,0,1,.08-.12l.11-.08a.35.35,0,0,1,.14,0h3.43a.31.31,0,0,1,.13,0,.37.37,0,0,1,.2.2.32.32,0,0,1,0,.14v.5a.34.34,0,0,1-.11.25.36.36,0,0,1-.25.11Z"/><path class="cls-3" d="M79.24,43l0,.06-.06,0-.07,0,0-.06v-.39a.3.3,0,0,0-.08-.21l-.1-.07-.11,0H76.67l-.12,0-.09.07a.27.27,0,0,0-.09.21V43a.09.09,0,0,1,0,.06l-.06,0-.06,0a.09.09,0,0,1,0-.06v-.39a.48.48,0,0,1,.48-.48h2.09a.48.48,0,0,1,.48.48Z"/><path class="cls-3" d="M77.54,44.53h.35a.12.12,0,0,1,.08.08V45h.34l0,0a.09.09,0,0,1,0,.06v.35a.12.12,0,0,1-.08.08H78v.34s0,0,0,0l0,0h-.46v0a0,0,0,0,1,0,0v-.34h-.34a.09.09,0,0,1-.06,0,.08.08,0,0,1,0,0V45a73806138536,73806138536,0,0,1,0-.06h.4v-.35a.08.08,0,0,1,0,0,.09.09,0,0,1,.06,0Z"/><path class="cls-3" d="M119.31,50.51a7,7,0,0,0,3.93-1.2,7.11,7.11,0,0,0,3-7.3,7.22,7.22,0,0,0-1.94-3.65,7.06,7.06,0,0,0-3.62-1.94,7,7,0,0,0-4.09.4,7.12,7.12,0,0,0,2.71,13.69Z"/><path class="cls-19" d="M119.31,44.87a1,1,0,0,1,.87.58,1,1,0,0,1,0,.55,1.06,1.06,0,0,1-.26.49.86.86,0,0,1-.39.23.9.9,0,0,1-.46,0,1,1,0,0,1-.41-.19,1,1,0,0,1-.27-.37,1,1,0,0,1-.07-.46,1,1,0,0,1,.16-.43.89.89,0,0,1,.33-.31,1,1,0,0,1,.45-.11Zm-3.6-2.43a.39.39,0,0,1-.29.13.36.36,0,0,1-.29-.11.4.4,0,0,1-.14-.29.46.46,0,0,1,.11-.3,5.72,5.72,0,0,1,8.41,0,.64.64,0,0,1,.08.14.45.45,0,0,1,0,.16.32.32,0,0,1,0,.16.38.38,0,0,1-.09.13.39.39,0,0,1-.3.11.39.39,0,0,1-.29-.13,4.91,4.91,0,0,0-7.19,0Zm1.1,1a3.36,3.36,0,0,1,1.13-.81,3.41,3.41,0,0,1,3.87.81.3.3,0,0,0,.13.09.29.29,0,0,0,.16,0,.4.4,0,0,0,.15,0,.32.32,0,0,0,.14-.08.47.47,0,0,0,.14-.29.46.46,0,0,0-.11-.3,4.33,4.33,0,0,0-1.42-1,4.26,4.26,0,0,0-1.69-.35,4.31,4.31,0,0,0-1.7.35,4.4,4.4,0,0,0-1.41,1,.42.42,0,0,0-.09.14.29.29,0,0,0,0,.16.45.45,0,0,0,0,.16.64.64,0,0,0,.1.13.29.29,0,0,0,.14.08.41.41,0,0,0,.16,0,.32.32,0,0,0,.16,0,.38.38,0,0,0,.13-.09Zm1.25,1.17a.41.41,0,0,1-.13.1.47.47,0,0,1-.16,0,.46.46,0,0,1-.3-.11.43.43,0,0,1-.13-.3.41.41,0,0,1,.11-.3,2.68,2.68,0,0,1,.85-.6,2.5,2.5,0,0,1,1-.21,2.54,2.54,0,0,1,1,.21,2.64,2.64,0,0,1,.84.6.38.38,0,0,1,.11.3.43.43,0,0,1-.13.3.46.46,0,0,1-.3.11.42.42,0,0,1-.29-.14,1.85,1.85,0,0,0-.56-.4,1.8,1.8,0,0,0-.68-.14,1.72,1.72,0,0,0-.68.14A1.78,1.78,0,0,0,118.06,44.64Z"/><path class="cls-7" d="M33.08,90.16h-.95a.42.42,0,0,0-.42.42v1a.42.42,0,0,0,.42.42h.95a.42.42,0,0,0,.42-.42v-1A.42.42,0,0,0,33.08,90.16Z"/><path class="cls-13" d="M36.41,90.16h-1a.42.42,0,0,0-.42.42v1a.42.42,0,0,0,.42.42h1a.42.42,0,0,0,.42-.42v-1A.42.42,0,0,0,36.41,90.16Z"/><path class="cls-7" d="M39.73,90.16h-1a.42.42,0,0,0-.42.42v1a.42.42,0,0,0,.42.42h1a.42.42,0,0,0,.42-.42v-1A.42.42,0,0,0,39.73,90.16Z"/><path class="cls-13" d="M43.05,90.16H42.1a.42.42,0,0,0-.42.42v1a.42.42,0,0,0,.42.42h.95a.42.42,0,0,0,.42-.42v-1A.42.42,0,0,0,43.05,90.16Z"/><path class="cls-7" d="M46.37,90.16h-.95a.42.42,0,0,0-.42.42v1a.42.42,0,0,0,.42.42h.95a.42.42,0,0,0,.42-.42v-1A.42.42,0,0,0,46.37,90.16Z"/><path class="cls-13" d="M38.89,86.52h1a.4.4,0,0,1,.29.12.42.42,0,0,1,.12.3v1a.41.41,0,0,1-.42.42h-1a.41.41,0,0,1-.42-.42v-1a.45.45,0,0,1,0-.16.39.39,0,0,1,.23-.23.45.45,0,0,1,.16,0Z"/><path class="cls-7" d="M43.17,86.52h-1a.42.42,0,0,0-.42.42v1a.41.41,0,0,0,.42.42h1a.42.42,0,0,0,.42-.42v-1A.42.42,0,0,0,43.17,86.52Z"/><path class="cls-13" d="M46.49,86.52h-1a.42.42,0,0,0-.42.42v1a.42.42,0,0,0,.42.42h1a.41.41,0,0,0,.42-.42v-1A.42.42,0,0,0,46.49,86.52Z"/><path class="cls-9" d="M60.72,22a.21.21,0,0,1,.07-.14.22.22,0,0,1,.15-.06.2.2,0,0,1,.15.06.17.17,0,0,1,.07.14v1a.14.14,0,0,1,0,.09.2.2,0,0,1,0,.08.24.24,0,0,1-.08.06l-.09,0-.09,0a.2.2,0,0,1-.07-.06.22.22,0,0,1-.05-.08.28.28,0,0,1,0-.09Zm-1.51.81a.23.23,0,0,1-.06-.16.22.22,0,0,1,.06-.15l.07-.05.09,0,.08,0,.08.05.7.7a.25.25,0,0,1,.06.16.23.23,0,0,1-.06.16.18.18,0,0,1-.07.05H60a.18.18,0,0,1-.07-.05l-.71-.71Zm-.49,1.65a.24.24,0,0,1-.16-.07.22.22,0,0,1-.06-.15.23.23,0,0,1,.06-.16.24.24,0,0,1,.16-.07h1a.26.26,0,0,1,.16.07.23.23,0,0,1,.06.16.22.22,0,0,1-.06.15.26.26,0,0,1-.16.07ZM59.53,26l-.08.05-.08,0-.09,0L59.21,26a.22.22,0,0,1-.06-.15.23.23,0,0,1,.06-.16l.71-.71A.18.18,0,0,1,60,24.9h.17a.18.18,0,0,1,.07.05.24.24,0,0,1,0,.32l-.7.71Zm1.63.5a.14.14,0,0,1,0,.09.2.2,0,0,1,0,.08.16.16,0,0,1-.08.06l-.09,0-.09,0a.13.13,0,0,1-.07-.06.22.22,0,0,1-.05-.08.28.28,0,0,1,0-.09v-1a.28.28,0,0,1,0-.09.22.22,0,0,1,.05-.08l.07-.06.09,0,.09,0,.08.06a.2.2,0,0,1,0,.08.14.14,0,0,1,0,.09v1Zm1.51-.81a.24.24,0,0,1,.07.16.23.23,0,0,1-.07.15.18.18,0,0,1-.07.05l-.09,0-.08,0a.18.18,0,0,1-.07-.05l-.72-.7a.24.24,0,0,1,0-.32l.07-.05h.17L62,25Zm.5-1.65a.23.23,0,0,1,.15.07.24.24,0,0,1,.07.16.24.24,0,0,1-.22.22h-1a.24.24,0,0,1-.16-.07.22.22,0,0,1-.06-.15.23.23,0,0,1,.06-.16.24.24,0,0,1,.16-.07Zm-.81-1.51a.18.18,0,0,1,.07-.05l.08,0,.09,0a.18.18,0,0,1,.07.05.23.23,0,0,1,.07.15.24.24,0,0,1-.07.16l-.71.71-.08.05h-.17l-.07-.05a.23.23,0,0,1-.06-.16.25.25,0,0,1,.06-.16Z"/><path class="cls-9" d="M17.21,30.64a.28.28,0,0,1,0-.09.22.22,0,0,1,.05-.08.13.13,0,0,1,.07-.06l.09,0,.09,0a.16.16,0,0,1,.08.06.2.2,0,0,1,0,.08.14.14,0,0,1,0,.09v1a.21.21,0,0,1-.07.14.2.2,0,0,1-.15.06.22.22,0,0,1-.15-.06.27.27,0,0,1-.07-.14Zm-1.51.81a.18.18,0,0,1,0-.07.16.16,0,0,1,0-.09.29.29,0,0,1,0-.09.22.22,0,0,1,0-.08l.07-.05a.14.14,0,0,1,.09,0,.19.19,0,0,1,.16.08l.72.7a.24.24,0,0,1,.05.16.2.2,0,0,1-.06.14.21.21,0,0,1-.15.07.25.25,0,0,1-.15-.05l-.71-.71Zm-.49,1.65h-.09L15,33A.16.16,0,0,1,15,33a.2.2,0,0,1,0-.09.29.29,0,0,1,0-.09.13.13,0,0,1,.06-.07l.08-.05H16.2a.21.21,0,0,1,.14.07.24.24,0,0,1,.06.15.2.2,0,0,1-.06.15.22.22,0,0,1-.14.08Zm.8,1.51a.13.13,0,0,1-.07.06l-.09,0h-.09l-.07,0a.22.22,0,0,1,0-.08.29.29,0,0,1,0-.09.16.16,0,0,1,0-.09.18.18,0,0,1,0-.07l.71-.72a.17.17,0,0,1,.15,0,.22.22,0,0,1,.15.06.25.25,0,0,1,.06.15.25.25,0,0,1-.05.15l-.72.72Zm1.64.5a.14.14,0,0,1,0,.09.2.2,0,0,1,0,.08.24.24,0,0,1-.08.06l-.09,0-.09,0a.2.2,0,0,1-.07-.06.22.22,0,0,1-.05-.08.28.28,0,0,1,0-.09v-1a.21.21,0,0,1,.07-.14.22.22,0,0,1,.15-.06.2.2,0,0,1,.15.06.17.17,0,0,1,.07.14v1Zm1.51-.81a.21.21,0,0,1,.05.15.21.21,0,0,1-.21.21.17.17,0,0,1-.15,0l-.71-.72a.25.25,0,0,1-.05-.15.21.21,0,0,1,.07-.15.2.2,0,0,1,.14-.06.19.19,0,0,1,.16,0Zm.49-1.65h.1l.08.05a.18.18,0,0,1,.05.07.29.29,0,0,1,0,.09.2.2,0,0,1,0,.09.22.22,0,0,1-.05.08l-.08.05H18.66a.22.22,0,0,1-.14-.08.2.2,0,0,1-.06-.15.24.24,0,0,1,.06-.15.21.21,0,0,1,.14-.07Zm-.8-1.51a.2.2,0,0,1,.15-.06.26.26,0,0,1,.15.07.2.2,0,0,1,.06.15.21.21,0,0,1-.05.15l-.7.71a.3.3,0,0,1-.16.05.25.25,0,0,1-.21-.21.3.3,0,0,1,.05-.16Z"/><path class="cls-9" d="M110.51,48.84a.14.14,0,0,1,0-.09.2.2,0,0,1,0-.08.16.16,0,0,1,.08-.06l.09,0,.09,0a.13.13,0,0,1,.07.06.22.22,0,0,1,0,.08.28.28,0,0,1,0,.09v1a.27.27,0,0,1-.07.14.22.22,0,0,1-.15.06.2.2,0,0,1-.15-.06.21.21,0,0,1-.07-.14Zm-1.51.81-.06-.07a.29.29,0,0,1,0-.09.28.28,0,0,1,0-.09.24.24,0,0,1,.06-.08.18.18,0,0,1,.07,0l.09,0,.09,0a.18.18,0,0,1,.07,0L110,50l0,.07a.32.32,0,0,1,0,.09.24.24,0,0,1,0,.09.22.22,0,0,1,0,.08l-.08.05-.09,0a.11.11,0,0,1-.08,0l-.08,0-.71-.71Zm-.5,1.65h-.09l-.08,0a.22.22,0,0,1,0-.08.24.24,0,0,1,0-.09.29.29,0,0,1,0-.09.18.18,0,0,1,0-.07l.08,0h1.18l.08,0,.06.07a.29.29,0,0,1,0,.09.24.24,0,0,1,0,.09l-.06.08-.08,0H108.5Zm.81,1.51a.13.13,0,0,1-.07.06l-.09,0h-.09a.18.18,0,0,1-.07-.05.42.42,0,0,1-.06-.08.28.28,0,0,1,0-.09.29.29,0,0,1,0-.09l.06-.07.71-.71.08-.06.09,0H110l.07.05a.35.35,0,0,1,0,.08.29.29,0,0,1,0,.09.16.16,0,0,1,0,.09.18.18,0,0,1,0,.07l-.71.71Zm1.64.5a.28.28,0,0,1,0,.09.22.22,0,0,1,0,.08l-.07.06-.09,0-.09,0-.08-.06a.2.2,0,0,1,0-.08.14.14,0,0,1,0-.09v-1a.17.17,0,0,1,.07-.14.2.2,0,0,1,.15-.06.22.22,0,0,1,.15.06.21.21,0,0,1,.07.14Zm1.51-.81a.18.18,0,0,1,.05.07.16.16,0,0,1,0,.09.29.29,0,0,1,0,.09.35.35,0,0,1,0,.08l-.07.05h-.09l-.09,0a.21.21,0,0,1-.08-.06l-.71-.71a.21.21,0,0,1-.07-.15.24.24,0,0,1,.23-.23.23.23,0,0,1,.15.07l.71.71Zm.49-1.65a.26.26,0,0,1,.15.07.27.27,0,0,1,.05.15.25.25,0,0,1-.05.15.28.28,0,0,1-.15.08h-1.08l-.08,0a.23.23,0,0,1-.08-.17.29.29,0,0,1,0-.09.2.2,0,0,1,.06-.07l.08,0H113Zm-.81-1.52.08,0s0,0,.09,0l.09,0,.07,0a.22.22,0,0,1,0,.08.29.29,0,0,1,0,.09.16.16,0,0,1,0,.09l-.05.07-.7.71a.25.25,0,0,1-.16.06.23.23,0,0,1-.16-.38Z"/><path class="cls-3" d="M20.07,39.07a.81.81,0,0,0,.46-.14.8.8,0,0,0,.31-.37.91.91,0,0,0,.05-.49.85.85,0,0,0-.66-.65.8.8,0,0,0-.48,0,.84.84,0,0,0-.37.3.86.86,0,0,0-.14.47.83.83,0,0,0,.25.59.83.83,0,0,0,.58.24Z"/><path class="cls-3" d="M70.48,19.58a.81.81,0,0,0,.46-.14.85.85,0,0,0,.36-.86.83.83,0,0,0-.23-.43.79.79,0,0,0-.43-.23.84.84,0,0,0-.47,0,.77.77,0,0,0-.38.31.83.83,0,0,0-.14.46.82.82,0,0,0,.25.59A.79.79,0,0,0,70.48,19.58Z"/><path class="cls-3" d="M110.16,64.7a.86.86,0,0,0,.46-.14.81.81,0,0,0,.3-.38.79.79,0,0,0,0-.48.83.83,0,0,0-.23-.43.91.91,0,0,0-.42-.23.87.87,0,0,0-.48.05.85.85,0,0,0-.51.77.84.84,0,0,0,.83.84Z"/><path class="cls-3" d="M131,73.72a.86.86,0,0,0,.47-.14.84.84,0,0,0,.3-.37.92.92,0,0,0,.05-.49.85.85,0,0,0-.65-.65.78.78,0,0,0-.48,0,.83.83,0,0,0-.38.31.86.86,0,0,0-.14.47.83.83,0,0,0,.25.59.83.83,0,0,0,.58.24Z"/><path class="cls-3" d="M82.19,15.17a.23.23,0,0,1,.06-.16.24.24,0,0,1,.16-.07.26.26,0,0,1,.16.07.23.23,0,0,1,.06.16v1a.21.21,0,0,1-.22.22.23.23,0,0,1-.16-.06.25.25,0,0,1-.06-.16ZM80.68,16a.29.29,0,0,1-.07-.16.26.26,0,0,1,.07-.16.23.23,0,0,1,.16-.06.22.22,0,0,1,.15.06l.71.72,0,.07a.16.16,0,0,1,0,.09.24.24,0,0,1,0,.09.22.22,0,0,1-.05.08l-.07.05-.09,0a.12.12,0,0,1-.09,0,.18.18,0,0,1-.07-.05L80.68,16Zm-.5,1.65a.27.27,0,0,1-.14-.07.3.3,0,0,1-.05-.15.25.25,0,0,1,.05-.15.29.29,0,0,1,.14-.08h1.1l.08,0,.06.08a.22.22,0,0,1,0,.09.28.28,0,0,1,0,.09l-.06.07-.08.05h-1.1ZM81,19.14a.13.13,0,0,1-.07.06.15.15,0,0,1-.09,0,.14.14,0,0,1-.09,0,.18.18,0,0,1-.07-.05.14.14,0,0,1,0-.08.21.21,0,0,1,0-.18l.06-.07.71-.72.07-.06.09,0a.15.15,0,0,1,.09,0,.15.15,0,0,1,.07.05.18.18,0,0,1,.05.07.29.29,0,0,1,0,.09.16.16,0,0,1,0,.09.18.18,0,0,1,0,.07Zm1.64.5a.23.23,0,0,1-.06.16.25.25,0,0,1-.16.06.21.21,0,0,1-.22-.22v-1a.21.21,0,0,1,.22-.22.25.25,0,0,1,.16.06.23.23,0,0,1,.06.16Zm1.51-.81.06.07a.29.29,0,0,1,0,.09.15.15,0,0,1,0,.09.14.14,0,0,1,0,.08.18.18,0,0,1-.07.05.14.14,0,0,1-.09,0,.15.15,0,0,1-.09,0,.13.13,0,0,1-.07-.06l-.71-.72a.18.18,0,0,1-.05-.07.16.16,0,0,1,0-.09.29.29,0,0,1,0-.09.18.18,0,0,1,0-.07.15.15,0,0,1,.07-.05.16.16,0,0,1,.1,0l.08,0,.08.06Zm.49-1.65h.1l.08,0a.22.22,0,0,1,0,.08.2.2,0,0,1,0,.09.29.29,0,0,1,0,.09.18.18,0,0,1,0,.07l-.08.05H83.55l-.08-.05a.2.2,0,0,1-.06-.07.29.29,0,0,1,0-.09.2.2,0,0,1,0-.09.24.24,0,0,1,.06-.08l.08,0h1.08Zm-.8-1.52a.18.18,0,0,1,.07-.05.16.16,0,0,1,.09,0l.09,0a.18.18,0,0,1,.07.05.15.15,0,0,1,0,.07.16.16,0,0,1,0,.1.19.19,0,0,1,0,.08l-.06.08-.7.72-.08.05a.11.11,0,0,1-.08,0l-.1,0-.07-.05a.22.22,0,0,1,0-.08.24.24,0,0,1,0-.09.16.16,0,0,1,0-.09l.05-.07Z"/><path class="cls-9" d="M129.34,80.59a.17.17,0,0,1,0-.1.2.2,0,0,1,0-.08l.08,0,.09,0,.09,0a.18.18,0,0,1,.07,0l.05.08a.34.34,0,0,1,0,.1v1a.28.28,0,0,1,0,.09.22.22,0,0,1-.05.08l-.07.06h-.18l-.08-.06a.12.12,0,0,1,0-.08.14.14,0,0,1,0-.09Zm-1.51.81a.24.24,0,0,1-.07-.16.21.21,0,0,1,.07-.15A.2.2,0,0,1,128,81a.19.19,0,0,1,.15.07l.7.7a.19.19,0,0,1,.06.07.29.29,0,0,1,0,.09.13.13,0,0,1,0,.09.22.22,0,0,1,0,.08l-.08,0-.09,0a.32.32,0,0,1-.09,0l-.07,0-.71-.72Zm-.5,1.65a.21.21,0,0,1-.15-.07.24.24,0,0,1-.07-.16.21.21,0,0,1,.07-.15.18.18,0,0,1,.15-.07h1a.19.19,0,0,1,.15.07.21.21,0,0,1,.07.15.24.24,0,0,1-.07.16.23.23,0,0,1-.15.07Zm.81,1.51a.17.17,0,0,1-.15,0,.21.21,0,0,1-.21-.21.17.17,0,0,1,0-.15l.71-.71a.19.19,0,0,1,.16-.05.2.2,0,0,1,.14.06.26.26,0,0,1,.07.15.25.25,0,0,1,0,.15l-.71.71Zm1.64.5a.21.21,0,0,1-.07.14.24.24,0,0,1-.15.06.2.2,0,0,1-.15-.06.17.17,0,0,1-.07-.14v-1a.14.14,0,0,1,0-.09.12.12,0,0,1,0-.08l.08,0s.05,0,.09,0a.15.15,0,0,1,.09,0,.18.18,0,0,1,.07,0,.22.22,0,0,1,.05.08.28.28,0,0,1,0,.09v1Zm1.51-.81a.25.25,0,0,1,.05.15.21.21,0,0,1-.07.15.2.2,0,0,1-.15.06.17.17,0,0,1-.15,0l-.71-.71a.17.17,0,0,1,0-.15.21.21,0,0,1,.21-.21.17.17,0,0,1,.15.05l.7.71Zm.49-1.65a.2.2,0,0,1,.16.07.2.2,0,0,1,.06.15.23.23,0,0,1-.06.16.24.24,0,0,1-.16.07h-1a.23.23,0,0,1-.15-.07.24.24,0,0,1-.07-.16.21.21,0,0,1,.07-.15.19.19,0,0,1,.15-.07ZM131,81.09a.2.2,0,0,1,.16-.07.24.24,0,0,1,.22.22.23.23,0,0,1-.06.16l-.71.72a.25.25,0,0,1-.15,0,.21.21,0,0,1-.15-.07.18.18,0,0,1-.06-.14.19.19,0,0,1,.05-.16Z"/><path class="cls-7" d="M15.35,72.9h.43a.21.21,0,0,1,.19.19v.43a.2.2,0,0,1-.06.14.19.19,0,0,1-.13,0h-.43a.21.21,0,0,1-.13,0,.19.19,0,0,1-.05-.14v-.43a.09.09,0,0,1,0-.07s0,0,0-.06l.06,0,.07,0Z"/><path class="cls-13" d="M16.84,72.9h.42a.2.2,0,0,1,.14.06.19.19,0,0,1,.05.13v.43a.17.17,0,0,1-.19.19h-.42a.17.17,0,0,1-.19-.19v-.43a.17.17,0,0,1,0-.07l0-.06.06,0Z"/><path class="cls-7" d="M18.32,72.9h.43a.21.21,0,0,1,.19.19v.43a.2.2,0,0,1-.06.14.19.19,0,0,1-.13,0h-.43a.19.19,0,0,1-.13,0,.2.2,0,0,1-.06-.14v-.43a.19.19,0,0,1,0-.07l0-.06s0,0,.06,0l.07,0Z"/><path class="cls-13" d="M19.8,72.9h.43a.2.2,0,0,1,.14.06.19.19,0,0,1,.05.13v.43a.19.19,0,0,1-.05.13.2.2,0,0,1-.14.06H19.8a.18.18,0,0,1-.13-.06.19.19,0,0,1-.05-.13v-.43a.15.15,0,0,1,0-.07.09.09,0,0,1,0-.06l.06,0,.07,0Z"/><path class="cls-7" d="M21.28,72.9h.43a.2.2,0,0,1,.14.06.19.19,0,0,1,0,.13v.43a.21.21,0,0,1-.19.19h-.43a.18.18,0,0,1-.13-.06.19.19,0,0,1,0-.13v-.43a.15.15,0,0,1,0-.07l0-.06.06,0,.07,0Z"/><path class="cls-13" d="M18.38,71.28h.42a.19.19,0,0,1,.13,0,.18.18,0,0,1,.06.13v.43a.2.2,0,0,1-.06.14.19.19,0,0,1-.13,0h-.43a.21.21,0,0,1-.13,0,.24.24,0,0,1,0-.14v-.43a.19.19,0,0,1,0-.13.2.2,0,0,1,.14-.06Z"/><path class="cls-7" d="M19.85,71.28h.43a.19.19,0,0,1,.13,0,.18.18,0,0,1,.06.13v.43a.2.2,0,0,1-.06.14.19.19,0,0,1-.13,0h-.43a.19.19,0,0,1-.13,0,.2.2,0,0,1-.06-.14v-.43a.16.16,0,0,1,.06-.13A.15.15,0,0,1,19.85,71.28Z"/><path class="cls-13" d="M21.34,71.28h.42a.19.19,0,0,1,.13,0,.18.18,0,0,1,.06.13v.43a.2.2,0,0,1-.06.14.19.19,0,0,1-.13,0h-.5l-.06,0a.16.16,0,0,1,0-.07.15.15,0,0,1,0-.07v-.43a.17.17,0,0,1,0-.07l0-.06.07,0a.09.09,0,0,1,.07,0Z"/><path class="cls-7" d="M82.68,25.16h.75a.37.37,0,0,1,.24.1.34.34,0,0,1,.09.24v.76a.33.33,0,0,1-.09.23.37.37,0,0,1-.24.1h-.76a.34.34,0,0,1-.33-.33V25.5a.31.31,0,0,1,0-.13.26.26,0,0,1,.07-.11.41.41,0,0,1,.11-.07.28.28,0,0,1,.13,0Z"/><path class="cls-13" d="M86.05,25.16H85.3a.34.34,0,0,0-.33.34v.76a.33.33,0,0,0,.33.33h.75a.34.34,0,0,0,.34-.33V25.5A.34.34,0,0,0,86.05,25.16Z"/><path class="cls-7" d="M88.68,25.16h-.76a.34.34,0,0,0-.33.34v.76a.33.33,0,0,0,.33.33h.76a.33.33,0,0,0,.33-.33V25.5A.34.34,0,0,0,88.68,25.16Z"/><path class="cls-13" d="M90.54,25.16h.76a.33.33,0,0,1,.23.1.31.31,0,0,1,.1.24v.76a.34.34,0,0,1-.33.33h-.76a.33.33,0,0,1-.23-.09.37.37,0,0,1-.1-.24V25.5a.31.31,0,0,1,0-.13.34.34,0,0,1,.07-.11.41.41,0,0,1,.11-.07A.27.27,0,0,1,90.54,25.16Z"/><path class="cls-7" d="M93.92,25.16h-.75a.34.34,0,0,0-.34.34v.76a.34.34,0,0,0,.34.33h.75a.33.33,0,0,0,.33-.33V25.5A.34.34,0,0,0,93.92,25.16Z"/><path class="cls-13" d="M88.77,22.29H88a.34.34,0,0,0-.34.33v.76a.33.33,0,0,0,.34.33h.75a.33.33,0,0,0,.33-.33v-.76A.33.33,0,0,0,88.77,22.29Z"/><path class="cls-7" d="M90.64,22.29h.75a.31.31,0,0,1,.24.1.33.33,0,0,1,.1.23v.76a.34.34,0,0,1-.34.34h-.75a.33.33,0,0,1-.23-.1.3.3,0,0,1-.1-.23v-.77a.34.34,0,0,1,.33-.33Z"/><path class="cls-13" d="M94,22.29h-.76a.33.33,0,0,0-.33.33v.76a.33.33,0,0,0,.33.33H94a.33.33,0,0,0,.33-.33v-.76A.33.33,0,0,0,94,22.29Z"/><path class="cls-9" d="M32.92,19a3.52,3.52,0,0,1,2.5,1,3.55,3.55,0,0,1-2.5,6.06H29.83a1.51,1.51,0,0,1-1.63,1.16H23.15a1.71,1.71,0,0,1-1.69-1.16h-3a1.47,1.47,0,0,1-1-.4,1.46,1.46,0,0,1-.08-2.05,1.44,1.44,0,0,1,1-.48v-.21a3.06,3.06,0,0,1,.22-1.12A2.89,2.89,0,0,1,21.22,20a3.1,3.1,0,0,1,1.2.24,5,5,0,0,1,1.46-2.9,5,5,0,0,1,8.2,1.7,3.42,3.42,0,0,1,.84-.08Z"/><path class="cls-3" d="M33,18.3a3.5,3.5,0,0,1,1.35.27,3.64,3.64,0,0,1,1.14.77,3.58,3.58,0,0,1,.77,1.15,3.75,3.75,0,0,1,.27,1.36,3.7,3.7,0,0,1-.27,1.36,3.58,3.58,0,0,1-.77,1.15,3.64,3.64,0,0,1-1.14.77A3.5,3.5,0,0,1,33,25.4H18.51a1.48,1.48,0,0,1-1-.39A1.5,1.5,0,0,1,17,24a1.45,1.45,0,0,1,1.38-1.51v-.22a3,3,0,0,1,.35-1.39,2.87,2.87,0,0,1,1-1.05,2.9,2.9,0,0,1,2.76-.22,5,5,0,0,1,9.66-1.2,3.55,3.55,0,0,1,.86-.1Z"/><path class="cls-20" d="M29.61,24.68V21.76h1l-2.25-3.17H28l-2.63,3.17h1v0c0,3.46.1,3.62-2.47,3.62h5.69a2.52,2.52,0,0,0,.07-.72Z"/><path class="cls-21" d="M30,24.68V21.76h1l-2.62-3.17-2.63,3.17h1v0c0,3.46.1,3.62-2.46,3.62H21.52a1.73,1.73,0,0,0,.66.87,1.66,1.66,0,0,0,1,.29h5A1.52,1.52,0,0,0,29.9,25.4a2.9,2.9,0,0,0,.09-.72Z"/><path class="cls-22" d="M123.67,68.16H92.38a1.55,1.55,0,0,0-1.55,1.56V89.89a1.55,1.55,0,0,0,1.55,1.56h31.29a1.56,1.56,0,0,0,1.55-1.56V69.72A1.55,1.55,0,0,0,123.67,68.16Z"/><path class="cls-13" d="M100.34,70h-6.5a.73.73,0,0,0-.73.73V77a.73.73,0,0,0,.73.73h6.5a.73.73,0,0,0,.73-.73V70.77A.73.73,0,0,0,100.34,70Z"/><path class="cls-23" d="M97.09,77a3.1,3.1,0,0,0,3-3.7,3.09,3.09,0,0,0-.84-1.58,3,3,0,0,0-1.58-.85,3.1,3.1,0,0,0-1.78.17,3.1,3.1,0,0,0,1.18,6Z"/><path class="cls-3" d="M98.68,75.9a2.59,2.59,0,0,1-1.59.56,2.55,2.55,0,0,1-1.59-.56A1.55,1.55,0,0,1,96,74.81a1.64,1.64,0,0,1,1.11-.46,1.62,1.62,0,0,1,1.59,1.55Zm-1.59-4.22a1.11,1.11,0,0,1,.63.19,1.12,1.12,0,0,1,.42.52,1.15,1.15,0,0,1,.07.66,1.22,1.22,0,0,1-.32.59,1.1,1.1,0,0,1-.58.31,1.15,1.15,0,0,1-.66-.06,1.19,1.19,0,0,1-.71-1.07,1.19,1.19,0,0,1,.34-.8,1.14,1.14,0,0,1,.81-.34Z"/><path class="cls-24" d="M94.94,78.86H112.6a.18.18,0,0,1,.12,0,.21.21,0,0,1,0,.12h0a.17.17,0,0,1,0,.12.15.15,0,0,1-.12,0H94.94a.13.13,0,0,1-.12,0,.17.17,0,0,1,0-.12h0a.21.21,0,0,1,0-.12.17.17,0,0,1,.12,0Z"/><path class="cls-24" d="M93.39,79.32a.3.3,0,0,0,.16,0,.32.32,0,0,0,.1-.13.3.3,0,0,0,0-.16.28.28,0,0,0-.08-.15.26.26,0,0,0-.15-.07.29.29,0,0,0-.16,0,.25.25,0,0,0-.12.11.21.21,0,0,0,0,.15.28.28,0,0,0,.08.2.27.27,0,0,0,.2.09Z"/><path class="cls-24" d="M94.94,80.32H112.6a.15.15,0,0,1,.12.05.16.16,0,0,1,0,.11h0a.17.17,0,0,1,0,.12.15.15,0,0,1-.12.05H94.94a.13.13,0,0,1-.12-.05.17.17,0,0,1,0-.12h0a.16.16,0,0,1,0-.11.13.13,0,0,1,.12-.05Z"/><path class="cls-24" d="M93.39,80.77a.3.3,0,0,0,.16,0,.32.32,0,0,0,.1-.13.3.3,0,0,0,0-.16.28.28,0,0,0-.08-.15.26.26,0,0,0-.15-.07.29.29,0,0,0-.16,0,.25.25,0,0,0-.12.11.21.21,0,0,0,0,.15.28.28,0,0,0,.08.2.27.27,0,0,0,.2.09Z"/><path class="cls-24" d="M94.94,81.77H112.6a.15.15,0,0,1,.12,0,.17.17,0,0,1,0,.12h0s0,0,0,.06l0,.06,0,0H94.87l-.05,0a.21.21,0,0,1,0-.06.13.13,0,0,1,0-.06h0a.17.17,0,0,1,0-.12.13.13,0,0,1,.12,0Z"/><path class="cls-24" d="M93.39,82.22a.3.3,0,0,0,.16,0,.27.27,0,0,0,.1-.13.25.25,0,0,0-.06-.3.28.28,0,0,0-.15-.08.29.29,0,0,0-.16,0,.32.32,0,0,0-.12.11.24.24,0,0,0,0,.16.32.32,0,0,0,.08.2.3.3,0,0,0,.2.08Z"/><path class="cls-24" d="M94.94,83.22H112.6a.15.15,0,0,1,.12,0,.17.17,0,0,1,0,.12h0a.21.21,0,0,1,0,.12.18.18,0,0,1-.12,0H94.94a.17.17,0,0,1-.12,0,.21.21,0,0,1,0-.12h0a.17.17,0,0,1,0-.12.13.13,0,0,1,.12,0Z"/><path class="cls-24" d="M93.39,83.67a.3.3,0,0,0,.16,0,.27.27,0,0,0,.1-.13.29.29,0,0,0,0-.16.25.25,0,0,0-.08-.14.28.28,0,0,0-.15-.08.29.29,0,0,0-.16,0,.32.32,0,0,0-.12.11.22.22,0,0,0,0,.16.32.32,0,0,0,.08.2.3.3,0,0,0,.2.08Z"/><path class="cls-24" d="M94.94,84.67h17.73l0,0a.1.1,0,0,1,0,0s0,0,0,.07a.21.21,0,0,1,0,.12.18.18,0,0,1-.12.05H94.94a.17.17,0,0,1-.12-.05.21.21,0,0,1,0-.12h0a.15.15,0,0,1,0-.07.1.1,0,0,1,0,0l.05,0Z"/><path class="cls-24" d="M93.39,85.12a.3.3,0,0,0,.16-.05.27.27,0,0,0,.1-.13.3.3,0,0,0,0-.16.28.28,0,0,0-.08-.15.35.35,0,0,0-.15-.07.29.29,0,0,0-.16,0,.25.25,0,0,0-.12.11.21.21,0,0,0,0,.15.32.32,0,0,0,.08.21.3.3,0,0,0,.2.08Z"/><path class="cls-24" d="M94.94,86.12H112.6a.15.15,0,0,1,.12,0,.17.17,0,0,1,0,.12h0s0,0,0,.06l0,.06,0,0-.07,0H94.94l-.07,0-.05,0a.21.21,0,0,1,0-.06.13.13,0,0,1,0-.06h0a.17.17,0,0,1,0-.12.13.13,0,0,1,.12,0Z"/><path class="cls-24" d="M93.39,86.57a.3.3,0,0,0,.16,0,.29.29,0,0,0,.1-.12.33.33,0,0,0,0-.17.29.29,0,0,0-.08-.14.28.28,0,0,0-.15-.08.23.23,0,0,0-.16,0,.29.29,0,0,0-.17.26.32.32,0,0,0,.08.2.3.3,0,0,0,.2.08Z"/><path class="cls-24" d="M94.94,87.57H112.6a.15.15,0,0,1,.12.05.17.17,0,0,1,0,.12h0a.17.17,0,0,1-.17.17H94.94a.17.17,0,0,1-.12,0,.18.18,0,0,1,0-.12h0a.17.17,0,0,1,0-.12.13.13,0,0,1,.12-.05Z"/><path class="cls-24" d="M93.39,88a.3.3,0,0,0,.16,0,.29.29,0,0,0,.1-.12.33.33,0,0,0,0-.17.29.29,0,0,0-.08-.14.28.28,0,0,0-.15-.08.23.23,0,0,0-.16,0,.29.29,0,0,0-.17.26.32.32,0,0,0,.08.2.3.3,0,0,0,.2.08Z"/><path class="cls-24" d="M94.94,89h17.73l0,0a.1.1,0,0,1,0,.05s0,0,0,.07h0a.21.21,0,0,1,0,.12.18.18,0,0,1-.12,0H94.94a.17.17,0,0,1-.12,0,.21.21,0,0,1,0-.12h0a.15.15,0,0,1,0-.07.1.1,0,0,1,0-.05l.05,0Z"/><path class="cls-24" d="M93.39,89.47a.3.3,0,0,0,.16,0,.27.27,0,0,0,.1-.13.25.25,0,0,0-.06-.3.28.28,0,0,0-.15-.08.29.29,0,0,0-.16,0,.32.32,0,0,0-.12.11.24.24,0,0,0,0,.16.32.32,0,0,0,.08.2.3.3,0,0,0,.2.08Z"/><path class="cls-24" d="M102.41,77h5.18a.33.33,0,0,1,.21.12.34.34,0,0,1,.07.22.35.35,0,0,1-.07.23.36.36,0,0,1-.21.11h-5.18a.36.36,0,0,1-.21-.11.35.35,0,0,1-.07-.23h0a.34.34,0,0,1,.07-.22.33.33,0,0,1,.21-.12Z"/><path class="cls-24" d="M108.82,77h3.66a.3.3,0,0,1,.21.12.29.29,0,0,1,.07.22.3.3,0,0,1-.07.23.33.33,0,0,1-.21.11h-3.66a.36.36,0,0,1-.21-.11.35.35,0,0,1-.07-.23h0a.34.34,0,0,1,.07-.22.33.33,0,0,1,.21-.12Z"/><path class="cls-13" d="M115.14,70h7.61a.91.91,0,0,1,.64.27.88.88,0,0,1,.26.63V88.46a.9.9,0,0,1-.26.64.91.91,0,0,1-.64.27h-7.61a.91.91,0,0,1-.64-.27.88.88,0,0,1-.26-.63V71a.84.84,0,0,1,.07-.35.81.81,0,0,1,.19-.29.84.84,0,0,1,.29-.2,1,1,0,0,1,.35-.07Z"/><path class="cls-25" d="M102.82,70H112a.56.56,0,0,1,.4.17.59.59,0,0,1,.16.4v4.85a.59.59,0,0,1-.16.4.56.56,0,0,1-.4.17h-9.19a.58.58,0,0,1-.57-.57V70.62a.57.57,0,0,1,0-.22.59.59,0,0,1,.13-.19.57.57,0,0,1,.18-.12.59.59,0,0,1,.22,0Z"/><path class="cls-14" d="M122.35,70.89a.46.46,0,0,1,.28.08.49.49,0,0,1,.18.22.48.48,0,0,1,0,.29.55.55,0,0,1-.13.25.51.51,0,0,1-.26.14.45.45,0,0,1-.28,0,.58.58,0,0,1-.23-.18.54.54,0,0,1-.08-.28.48.48,0,0,1,.49-.49Zm-3.6,0A.5.5,0,0,1,119,71a.51.51,0,0,1,.19.22.57.57,0,0,1,0,.29.43.43,0,0,1-.13.25.52.52,0,0,1-.25.14.48.48,0,0,1-.29,0,.49.49,0,0,1-.22-.18.47.47,0,0,1-.09-.28.65.65,0,0,1,0-.19.57.57,0,0,1,.11-.16.64.64,0,0,1,.16-.11A.58.58,0,0,1,118.75,70.89Zm1.8,0a.48.48,0,0,1,.28.08.49.49,0,0,1,.18.22.51.51,0,0,1-.36.68.49.49,0,0,1-.29,0,.55.55,0,0,1-.22-.18.54.54,0,0,1-.08-.28.52.52,0,0,1,.14-.35.5.5,0,0,1,.35-.14Z"/><path class="cls-26" d="M117.44,81.62V76a2.4,2.4,0,0,1,4.8,0V84a.63.63,0,0,1,.22.21.61.61,0,0,1,.08.3.45.45,0,0,1,0,.23.82.82,0,0,1-.12.2.59.59,0,0,1-.19.13.48.48,0,0,1-.23,0,.46.46,0,0,1-.23,0,.59.59,0,0,1-.19-.13.82.82,0,0,1-.12-.2.45.45,0,0,1,0-.23.61.61,0,0,1,.08-.3.63.63,0,0,1,.22-.21V76A1.86,1.86,0,0,0,118,76v5.58a2.37,2.37,0,0,1,1.54.78,2.42,2.42,0,0,1,.63,1.62V86.2a1.09,1.09,0,0,1-.08.39,1.19,1.19,0,0,1-.22.33,1.05,1.05,0,0,1-.53.28.4.4,0,0,1-.12.27.39.39,0,0,1-.27.11.39.39,0,0,1-.4-.39v-.48a.36.36,0,0,1,.12-.28.4.4,0,0,1,.28-.12.39.39,0,0,1,.25.1.36.36,0,0,1,.13.23.4.4,0,0,0,.15-.1.53.53,0,0,0,.11-.15.58.58,0,0,0,0-.19V84a1.88,1.88,0,0,0-.55-1.32,1.86,1.86,0,0,0-2.62,0,1.88,1.88,0,0,0-.55,1.32V86.2a.48.48,0,0,0,.14.34.4.4,0,0,0,.15.1.43.43,0,0,1,.14-.23.39.39,0,0,1,.25-.1h0a.44.44,0,0,1,.28.12.39.39,0,0,1,.11.28v.48a.38.38,0,0,1-.39.39h0a.39.39,0,0,1-.27-.11.36.36,0,0,1-.12-.27,1,1,0,0,1-.53-.28,1,1,0,0,1-.3-.72V84a2.41,2.41,0,0,1,.6-1.6,2.35,2.35,0,0,1,1.49-.8Z"/><path class="cls-26" d="M118.93,87.06l-.07,0a.09.09,0,0,1,0-.08.09.09,0,0,1,0-.07.1.1,0,0,1,.07,0h.21a.62.62,0,0,0,.63-.63V84a2,2,0,0,0-.61-1.39,2,2,0,0,0-2.81,0,2,2,0,0,0-.61,1.39V86.2a.62.62,0,0,0,.63.63h.24l0,0s0,0,0,0a.08.08,0,0,1,0,0,.11.11,0,0,1,0,.08.12.12,0,0,1-.08,0h-.2a.87.87,0,0,1-.85-.86V84a2.26,2.26,0,0,1,.68-1.55,2.23,2.23,0,0,1,1.55-.63A2.24,2.24,0,0,1,120,84V86.2a.86.86,0,0,1-.25.6.87.87,0,0,1-.6.26Z"/><path class="cls-27" d="M116.57,86.46a.24.24,0,0,1,.24.24v.48a.24.24,0,0,1-.07.17.23.23,0,0,1-.17.07.22.22,0,0,1-.17-.07.24.24,0,0,1-.07-.17V86.7a.28.28,0,0,1,.07-.17A.26.26,0,0,1,116.57,86.46Z"/><path class="cls-27" d="M118.92,86.46a.24.24,0,0,1,.24.24v.48a.24.24,0,0,1-.07.17.24.24,0,0,1-.34,0,.24.24,0,0,1-.07-.17V86.7a.24.24,0,0,1,.24-.24Z"/><path class="cls-26" d="M122,84.88a.4.4,0,0,0,.38-.26.36.36,0,0,0,0-.23.39.39,0,0,0-.11-.22.53.53,0,0,0-.21-.11.49.49,0,0,0-.24,0,.46.46,0,0,0-.18.16.35.35,0,0,0-.07.23.4.4,0,0,0,0,.15.42.42,0,0,0,.09.14.38.38,0,0,0,.13.09A.41.41,0,0,0,122,84.88Z"/><path class="cls-26" d="M121.86,84.47V76a2.05,2.05,0,0,0-.62-1.39,2,2,0,0,0-2.8,0,2.05,2.05,0,0,0-.62,1.39v5.89h-.22V76a2.3,2.3,0,0,1,.68-1.54,2.25,2.25,0,0,1,3.12,0,2.26,2.26,0,0,1,.68,1.54v8.43Z"/><path class="cls-28" d="M111.12,12.42a.59.59,0,0,1,.2-.38.59.59,0,0,1,.4-.15.58.58,0,0,1,.39.15.59.59,0,0,1,.2.38v2.71a.57.57,0,0,1,0,.26.59.59,0,0,1-.12.22.62.62,0,0,1-.21.15.5.5,0,0,1-.24.06.54.54,0,0,1-.25-.06.5.5,0,0,1-.2-.15.61.61,0,0,1-.13-.22.74.74,0,0,1,0-.26Zm-4.1,2.2a.57.57,0,0,1-.15-.42.58.58,0,0,1,.17-.41.59.59,0,0,1,.41-.18.58.58,0,0,1,.42.16l1.91,1.92a.58.58,0,0,1,.16.42.62.62,0,0,1-.18.41.58.58,0,0,1-.41.18.61.61,0,0,1-.42-.16Zm-1.34,4.48a.76.76,0,0,1-.26,0,.71.71,0,0,1-.22-.13.62.62,0,0,1-.15-.2.65.65,0,0,1,0-.5.62.62,0,0,1,.15-.2.71.71,0,0,1,.22-.13.76.76,0,0,1,.26,0h2.7a.71.71,0,0,1,.25,0,.61.61,0,0,1,.22.13.43.43,0,0,1,.15.2.55.55,0,0,1,0,.5.43.43,0,0,1-.15.2.61.61,0,0,1-.22.13.71.71,0,0,1-.25,0Zm2.19,4.12a.52.52,0,0,1-.19.14.53.53,0,0,1-.24.06.69.69,0,0,1-.24-.05.57.57,0,0,1-.33-.33.51.51,0,0,1,0-.24.69.69,0,0,1,0-.24.52.52,0,0,1,.14-.19l1.91-1.92a.72.72,0,0,1,.2-.14.59.59,0,0,1,.23,0,.48.48,0,0,1,.23.05.62.62,0,0,1,.32.32.58.58,0,0,1,0,.47.5.5,0,0,1-.13.19l-1.91,1.92Zm4.45,1.35a.57.57,0,0,1,0,.26.59.59,0,0,1-.12.22.62.62,0,0,1-.21.15.49.49,0,0,1-.24.05.53.53,0,0,1-.25-.05.5.5,0,0,1-.2-.15.61.61,0,0,1-.13-.22.74.74,0,0,1,0-.26V21.85a.64.64,0,0,1,.2-.38.6.6,0,0,1,.79,0,.59.59,0,0,1,.2.38Zm4.1-2.2a.58.58,0,0,1,.16.42.62.62,0,0,1-.59.59.67.67,0,0,1-.42-.16l-1.91-1.92a.61.61,0,0,1-.17-.43.58.58,0,0,1,.6-.6.59.59,0,0,1,.42.17l1.91,1.92Zm1.35-4.48a.59.59,0,0,1,.37.2.61.61,0,0,1,0,.8.59.59,0,0,1-.37.2h-2.71a.64.64,0,0,1-.38-.2.64.64,0,0,1,0-.8.64.64,0,0,1,.38-.2Zm-2.2-4.12a.61.61,0,0,1,.42-.16.59.59,0,0,1,.41.18.64.64,0,0,1,.18.41.58.58,0,0,1-.16.42l-1.91,1.92a.61.61,0,0,1-.42.19.62.62,0,0,1-.43-.18.63.63,0,0,1-.19-.43.64.64,0,0,1,.18-.43Z"/><path class="cls-29" d="M49.55,15.55C52,15.55,54,19,54,23.18v6.2C54,33.57,52,37,49.55,37s-4.44-3.44-4.44-7.63v-6.2C45.11,19,47.11,15.55,49.55,15.55Z"/><path class="cls-26" d="M50.71,31.79l-.71.09-.45.3-.44-.3-.72-.09-4.23-3.34L35,31.61l-.46,8.88c.68,8.82,2.74,23,2.74,23.65s-1.46,5.48-2.36,8.39H64.12c-.9-2.91-2.36-7.7-2.36-8.39s2.16-14.83,2.85-23.65l-.46-8.88L55,28.45Z"/><path class="cls-30" d="M50.54,32.85l.2,1.07,2,26.3-3.2,6.83-3.2-6.83,2-26.3.2-1.07,1,.65Z"/><path class="cls-30" d="M48.36,33.92l-.94-2.07a4.22,4.22,0,0,1,4.26,0l-.94,2.07a5.31,5.31,0,0,0-2.38,0Z"/><path class="cls-3" d="M54.81,28.16l7.75,2.16.72.81a2.67,2.67,0,0,1,2.22,2.71c.21,2.59-3,29.47-3,30.3a80,80,0,0,0,2.38,8.43H53.06l1.59-44.09a.37.37,0,0,1,0-.18A.33.33,0,0,1,54.81,28.16Z"/><path class="cls-24" d="M64.54,45.59l-4.85,8.95s-.88,4.19-3.2,3.32c-.42-.16-1.46-.42-2.87-.75L54,47.77h2.78A3.07,3.07,0,0,0,59,47c.68-.85,3.37-5.86,3.37-5.86Z"/><path class="cls-24" d="M63.77,52.92c-.64,5.87-1.2,10.87-1.2,11.22-4.29-1.57-5.7-2.45-7.34-2.23a4.19,4.19,0,0,0-1.79.82l.38-10.66Z"/><path class="cls-3" d="M44.29,28.16l-7.7,2.16-.67,1a2.53,2.53,0,0,0-2.33,2.56c-.21,2.59,3,29.48,3,30.3a80,80,0,0,1-2.38,8.44H46.05l-1.58-44.1a.61.61,0,0,0,0-.18.44.44,0,0,0-.13-.14Z"/><path class="cls-24" d="M34.44,44.4c.3,2.92.64,6.07,1,9,2.44.48,6.28,1.23,10,2l-.27-7.59c-1.13-.1-3-.27-4.07-.4a2.9,2.9,0,0,1-2.15-1.54l-1.75-5.11Z"/><path class="cls-24" d="M35.52,54.54c.4,3.64.75,6.78.92,8.4A1.76,1.76,0,0,1,38,62.09c.93.12,5.17.52,7.67.75l-.41-11.52-1.13-.09Z"/><path class="cls-31" d="M47.87,49.62c-4.77-1.26-5.33-.88-8.64,1.14-.71.43-.71.74-.58.88a.68.68,0,0,0,.28.8s-.72-.26.24,0c0,0-.09.39.58.44s2.27.1,2.27.1c.93.76,3.35,2.08,5.1,1.23Z"/><path class="cls-29" d="M47.52,49.52l-.76-.17c-.39,1-1.48,3.84-1.91,5a3.41,3.41,0,0,0,2.29-.15Z"/><path class="cls-29" d="M57.43,14.77a.51.51,0,0,1,.17,0A2.39,2.39,0,0,1,59,18.59a2.43,2.43,0,0,1-1.32.85,2.4,2.4,0,0,1-1.56-.17A2.44,2.44,0,0,1,55,18.16a2.39,2.39,0,0,1,.65-2.9c-.06.7,0,1.57.93,1.66V15.55a.71.71,0,0,1,.07-.32.86.86,0,0,1,.2-.26.77.77,0,0,1,.29-.17.89.89,0,0,1,.33,0Z"/><path class="cls-29" d="M41.85,14.76l-.17,0a2.37,2.37,0,0,0-1.34.81,2.42,2.42,0,0,0-.54,1.48,2.36,2.36,0,0,0,.49,1.49,2.37,2.37,0,0,0,2.87.7,2.4,2.4,0,0,0,.49-4c.05.7-.07,1.57-1,1.65l0-1.37a.89.89,0,0,0-.08-.32.83.83,0,0,0-.19-.26,1.05,1.05,0,0,0-.29-.17.85.85,0,0,0-.32,0Z"/><path class="cls-31" d="M49.62,26.67c-4.41,0-8.09-5.48-8.09-9.8V11.13a8.2,8.2,0,0,1,2.38-5.75A8.11,8.11,0,0,1,49.62,3h0a8.13,8.13,0,0,1,8.09,8.14v5.62C57.71,21.49,54.5,26.67,49.62,26.67Z"/><path class="cls-32" d="M54.86,17.62a1.33,1.33,0,0,0-.71.23,1.29,1.29,0,0,0-.53,1.34,1.32,1.32,0,0,0,.37.65,1.2,1.2,0,0,0,.66.34,1.25,1.25,0,0,0,.74-.08,1.24,1.24,0,0,0,.57-.49,1.21,1.21,0,0,0,.2-.72,1.31,1.31,0,0,0-.39-.91,1.34,1.34,0,0,0-.91-.36Z"/><path class="cls-32" d="M44.34,17.82a1.39,1.39,0,0,0-.71.23,1.27,1.27,0,0,0-.46.59,1.37,1.37,0,0,0-.06.75,1.25,1.25,0,0,0,.37.65,1.2,1.2,0,0,0,.66.34,1.25,1.25,0,0,0,.74-.08,1.35,1.35,0,0,0,.57-.49,1.39,1.39,0,0,0,.2-.72,1.17,1.17,0,0,0-.11-.49,1.19,1.19,0,0,0-.28-.42,1.29,1.29,0,0,0-.92-.36Z"/><path class="cls-26" d="M46.75,13.18l.09.07a.21.21,0,0,1,.06.1.36.36,0,0,1,0,.11.23.23,0,0,1,0,.11.47.47,0,0,1-.06.09.21.21,0,0,1-.1.06l-.11,0a.2.2,0,0,1-.11,0,2,2,0,0,0-.87-.14,1.66,1.66,0,0,0-.84.26.29.29,0,0,1-.22,0,.26.26,0,0,1-.19-.13.28.28,0,0,1,0-.22.26.26,0,0,1,.13-.18A2.54,2.54,0,0,1,45.6,13a2.66,2.66,0,0,1,1.15.2Z"/><path class="cls-26" d="M54.75,13.32a.28.28,0,0,1,.13.17.26.26,0,0,1,0,.23.3.3,0,0,1-.18.13.34.34,0,0,1-.22,0,1.86,1.86,0,0,0-.86-.22,1.72,1.72,0,0,0-.86.19.35.35,0,0,1-.11,0,.25.25,0,0,1-.12,0l-.1-.05a.28.28,0,0,1-.07-.09.56.56,0,0,1,0-.12.52.52,0,0,1,0-.11.21.21,0,0,1,.06-.1.2.2,0,0,1,.09-.07,2.46,2.46,0,0,1,2.28,0Z"/><path class="cls-33" d="M49.84,17.31a7.44,7.44,0,0,1,.39,1.29c0,.17-.93.33-1.16.1s0-.82.21-1.28C49.51,16.81,49.64,16.76,49.84,17.31Z"/><path class="cls-26" d="M51.32,20.57a1.72,1.72,0,0,1-.11.67,1.76,1.76,0,0,1-.36.58,1.79,1.79,0,0,1-.56.38,1.71,1.71,0,0,1-.67.14A1.66,1.66,0,0,1,49,22.2a1.69,1.69,0,0,1-.93-1,1.72,1.72,0,0,1-.11-.67.36.36,0,0,1,.09-.23.31.31,0,0,1,.22-.09H51a.31.31,0,0,1,.22.09.32.32,0,0,1,.09.23Z"/><path class="cls-3" d="M48.41,20.25h2.43v.29a.27.27,0,0,1-.08.19.25.25,0,0,1-.19.09H48.68a.25.25,0,0,1-.19-.09.24.24,0,0,1-.08-.19Z"/><path class="cls-34" d="M49.62,22.28c.68,0,1.24-.24,1.24-.54s-.56-.53-1.24-.53-1.23.24-1.23.53S48.94,22.28,49.62,22.28Z"/><path class="cls-26" d="M45.66,16.73a1,1,0,0,0,.55-.17,1,1,0,0,0,.36-.44,1,1,0,0,0,0-.57,1,1,0,0,0-.26-.5,1,1,0,0,0-.5-.27,1,1,0,0,0-1,.42,1,1,0,0,0-.17.54,1,1,0,0,0,1,1Z"/><path class="cls-26" d="M53.58,16.73a1,1,0,0,0,.9-.61.93.93,0,0,0,.06-.57,1,1,0,0,0-.77-.77.9.9,0,0,0-.56.06,1,1,0,0,0-.61.9,1,1,0,0,0,.29.7A1,1,0,0,0,53.58,16.73Z"/><path class="cls-3" d="M34.73,59.41c-3.2-.53-4.5-3.44-4.3-7.53S32,35.5,32.85,33.34s3.74-3,3.74-3a43.76,43.76,0,0,1,.48,5.73l.29,15.06,12.69.78,1.41,4.57-2.4,5.14s-.09.76-1.26.51Z"/><path class="cls-24" d="M50.21,52.38l1.25,4.08-2.4,5.14s-.09.76-1.26.51L42.17,61a4.28,4.28,0,0,0,.92-1.65l1.81-5L46,53.55A15,15,0,0,1,50.21,52.38Z"/><path class="cls-3" d="M62.57,30.32s2.84.86,3.74,3,2.22,14.46,2.42,18.54-1.09,7-4.29,7.53-15.71,1.25-15.71,1.25a1.65,1.65,0,0,1-1.94-1.15c-.41-1.46.27-10.23.27-10.23s0-.56.65-.57,14.09,2.4,14.09,2.4l.29-15.06A42.07,42.07,0,0,1,62.57,30.32Z"/><path class="cls-31" d="M61.79,51.11l-4-.72,1.79-2.93,2.53-2.52s.48,0,.51.36a4.79,4.79,0,0,1-.14,1.13l.81-.5a.33.33,0,0,1,.17,0,.43.43,0,0,1,.16,0,.4.4,0,0,1,.13.13.43.43,0,0,1,0,.16,2.13,2.13,0,0,1-.42,1.2s.6-.18.84.08-.16,1.44-.7,1.69l.65-.14s.27.07.21.49-.69.59-1,.67Z"/><path class="cls-29" d="M61.79,51.11l-4-.72L58.67,49,61.94,51Z"/><path class="cls-26" d="M41.53,16.58s.74-.41.74-2.38-.12-2.58.92-3.58a3.13,3.13,0,0,0,1.07-1.95l-3-1.39A2.86,2.86,0,0,0,39.7,9.55a42.67,42.67,0,0,0,1.09,5.63S41.52,15.38,41.53,16.58Z"/><path class="cls-26" d="M57.71,16.58S57,16.17,57,14.2s.11-2.58-.92-3.58A3.12,3.12,0,0,1,55,8.67l3-1.39a2.84,2.84,0,0,1,1.5,2.27,41.42,41.42,0,0,1-1.08,5.63S57.72,15.38,57.71,16.58Z"/><path class="cls-26" d="M44.2,10.86A5.44,5.44,0,0,0,48,1.59,5.36,5.36,0,0,0,42.13.41a5.48,5.48,0,0,0-2.43,2,5.37,5.37,0,0,0-.9,3,5.46,5.46,0,0,0,1.58,3.84A5.36,5.36,0,0,0,44.2,10.86Z"/><path class="cls-26" d="M48.53,10.64a5.07,5.07,0,0,0,4.71-3.16,5.12,5.12,0,0,0-3.71-7,5,5,0,0,0-2.94.29,5.14,5.14,0,0,0-1.66,8.36,5.09,5.09,0,0,0,3.6,1.5Z"/><path class="cls-26" d="M54.53,10.43a4.11,4.11,0,0,0,2.28-.7,4.15,4.15,0,0,0-1.49-7.51,4.12,4.12,0,0,0-2.38.24A4,4,0,0,0,51.1,4a4.1,4.1,0,0,0-.7,2.3,4.13,4.13,0,0,0,4.13,4.14Z"/><path class="cls-26" d="M60.36,5.34c.48.6.24,1.82-.57,2.72S58,9.21,57.47,8.61,57.23,6.8,58,5.89,59.88,4.74,60.36,5.34Z"/><path class="cls-26" d="M52.23.23c.7,0,1.39.89,1.55,2s-.28,1.94-1,1.94-1.38-.89-1.54-2S51.54.22,52.23.23Z"/><path class="cls-17" d="M54,26.74a1.51,1.51,0,0,1,.52,0c.13.06.58,1.37.85,1.76a.91.91,0,0,1,.14.42,1,1,0,0,1-.07.44c-.19.55-2.6,5-2.6,5s-.17.24-.45,0S50,31.29,50,31.29l4-3.68Z"/><path class="cls-17" d="M45.11,26.7a1.46,1.46,0,0,0-.51,0c-.13.06-.58,1.42-.86,1.81a.91.91,0,0,0-.14.43,1.1,1.1,0,0,0,.07.44c.19.54,2.6,5,2.6,5s.17.24.45,0,2.39-3.08,2.39-3.08l-4-3.68Z"/><path class="cls-24" d="M62.19,42.13a.24.24,0,0,1-.07.16.25.25,0,0,1-.16.06l-.09,0-.08,0a.2.2,0,0,1,0-.08.14.14,0,0,1,0-.09s.3-9.46,1.19-11.66a.23.23,0,0,1,.12-.08.19.19,0,0,1,.15,0,.21.21,0,0,1,.15.24c-.86,2.12-1.16,11.48-1.16,11.51Zm-24.78-.6a.23.23,0,0,1-.06.16.3.3,0,0,1-.16.08.24.24,0,0,1-.23-.22s-.43-8.54-1.25-10.9a.23.23,0,0,1,.16-.23.26.26,0,0,1,.15,0,.27.27,0,0,1,.12.09c.84,2.43,1.27,11,1.27,11Z"/><path class="cls-17" d="M44.93,42.94h.48a1.14,1.14,0,0,0,.33-.8V39.78h0V38.29A3.33,3.33,0,0,0,42.43,35a3.28,3.28,0,0,0-2.34,1,3.33,3.33,0,0,0-1,2.35v1.49h-.26v2a1.14,1.14,0,0,0,.33.8h.37v-.24a.38.38,0,0,1,.12-.29A.4.4,0,0,1,40,42h0a.38.38,0,0,1,.29.12.4.4,0,0,1,.12.29v.86a.4.4,0,0,1-.12.29.38.38,0,0,1-.29.12h0a.41.41,0,0,1-.41-.41V43h-.37v0a1.44,1.44,0,0,1-.49-.49,1.52,1.52,0,0,1-.22-.66V39.46h-.24V38a4.24,4.24,0,0,1,3.67-4.2V32.4h1v1.37a4.17,4.17,0,0,1,2.66,1.38A4.26,4.26,0,0,1,46.65,38v1.49H46.4v2.36a1.43,1.43,0,0,1-.12.58,1.41,1.41,0,0,1-.33.5h-1v.24a.38.38,0,0,1-.12.29.41.41,0,0,1-.58,0,.38.38,0,0,1-.12-.29V42.3a.41.41,0,1,1,.82,0Z"/><path class="cls-17" d="M42.63,34.08a.2.2,0,0,1-.08.12.25.25,0,0,1-.15,0,.24.24,0,0,1-.14,0,.27.27,0,0,1-.09-.12v-4.2a4.57,4.57,0,0,1,.34-1.67,4.06,4.06,0,0,1,.94-1.41,4.33,4.33,0,0,1,1.65-1v.48a3.68,3.68,0,0,0-1.33.88,3.92,3.92,0,0,0-1.14,2.75Z"/><path class="cls-17" d="M56.44,40.19a.14.14,0,0,0,0,.11.18.18,0,0,0,0,.1.16.16,0,0,0,.09.07.19.19,0,0,0,.1,0,.2.2,0,0,0,.11,0,.28.28,0,0,0,.09-.07.3.3,0,0,0,0-.1.37.37,0,0,0,0-.11V29.87a4.4,4.4,0,0,0-.81-2.53A4.26,4.26,0,0,0,54,25.75v.48a3.85,3.85,0,0,1,1.34.88,3.92,3.92,0,0,1,1.14,2.75Z"/><path class="cls-17" d="M56.65,41.35a1.09,1.09,0,0,1-.61-.18,1.11,1.11,0,0,1-.41-.5,1.16,1.16,0,0,1-.06-.64,1.1,1.1,0,0,1,.3-.56,1.11,1.11,0,0,1,.56-.31,1.12,1.12,0,0,1,1.13.47,1.16,1.16,0,0,1,.19.62,1.11,1.11,0,0,1-.33.78,1.06,1.06,0,0,1-.77.32Z"/></g></g></svg>