<svg xmlns="http://www.w3.org/2000/svg" xmlns:xlink="http://www.w3.org/1999/xlink" viewBox="0 0 138.15 91"><defs><style>.cls-1{fill:#bed6d4;}.cls-2{fill:#ffc06c;}.cls-13,.cls-3{fill:#f2a040;}.cls-4{fill:url(#未命名的渐变_2);}.cls-5{fill:url(#未命名的渐变_2-2);}.cls-6{fill:#fff;}.cls-7{fill:#fbffff;}.cls-8{fill:#037971;}.cls-9{fill:#81bcb8;}.cls-10,.cls-24{fill:#fcfcfc;}.cls-11{fill:#462260;}.cls-12{fill:#fcd7a7;}.cls-12,.cls-13,.cls-14{opacity:0.72;}.cls-12,.cls-13{isolation:isolate;}.cls-15{fill:#d2a4ab;}.cls-16{fill:#d4a6ad;}.cls-17{fill:#f06c9b;}.cls-18{fill:#44465f;}.cls-19{fill:#c38b95;}.cls-20,.cls-23{fill:#334f55;}.cls-21,.cls-34{fill:#ff9ecc;}.cls-22{fill:#311649;}.cls-23,.cls-24,.cls-34{fill-rule:evenodd;}.cls-25{fill:#8b5a2a;}.cls-26{fill:#9a6a38;}.cls-27{fill:#333649;}.cls-28{fill:#9b0821;}.cls-29{fill:#c13344;}.cls-30{fill:#3a3582;}.cls-31{fill:#54519e;}.cls-32{fill:#cca1aa;}.cls-33{fill:#c48017;}</style><linearGradient id="未命名的渐变_2" x1="18805.48" y1="20025.76" x2="21169.29" y2="22287.98" gradientTransform="matrix(1, 0, 0, -1, 0, 2130.93)" gradientUnits="userSpaceOnUse"><stop offset="0" stop-color="#ffc06c"/><stop offset="1" stop-color="#f2a040"/></linearGradient><linearGradient id="未命名的渐变_2-2" x1="19289.04" y1="6159.25" x2="21713.74" y2="6674.95" xlink:href="#未命名的渐变_2"/></defs><title>slide5</title><g id="图层_2" data-name="图层 2"><g id="Layer_1" data-name="Layer 1"><path class="cls-1" d="M135.14,78.64V90H35A32.49,32.49,0,0,1,2.52,57.47v-.88A54.62,54.62,0,0,1,57.14,2h1.33A76.67,76.67,0,0,1,135.14,78.64Z"/><path class="cls-2" d="M50.18,87.94v1.3a.74.74,0,0,1-.2.51.75.75,0,0,1-.51.21H22.87a.75.75,0,0,1-.51-.21.74.74,0,0,1-.2-.51v-1.3a.7.7,0,0,1,.2-.5.75.75,0,0,1,.51-.21h26.6a.75.75,0,0,1,.51.21.7.7,0,0,1,.2.5Z"/><path class="cls-2" d="M53.87,84.5H27.26a.71.71,0,0,0-.71.71v1.31a.71.71,0,0,0,.71.71H53.87a.71.71,0,0,0,.71-.71V85.21A.71.71,0,0,0,53.87,84.5Z"/><path class="cls-2" d="M55.75,79.77v1.31a.67.67,0,0,1-.21.5.71.71,0,0,1-.5.21H28.44a.75.75,0,0,1-.51-.21.71.71,0,0,1-.21-.5V79.77a.71.71,0,0,1,.21-.5.75.75,0,0,1,.51-.21H55a.71.71,0,0,1,.5.21.67.67,0,0,1,.21.5Z"/><path class="cls-2" d="M51.67,82.49v1.3a.71.71,0,0,1-.21.5.67.67,0,0,1-.5.21H24.35a.67.67,0,0,1-.5-.21.71.71,0,0,1-.21-.5v-1.3a.71.71,0,0,1,.21-.51.76.76,0,0,1,.5-.21H51a.72.72,0,0,1,.71.72Z"/><path class="cls-3" d="M50.18,87.94v1.3a.74.74,0,0,1-.2.51.75.75,0,0,1-.51.21H45.83c-1.23-1.77-5.39-2.48-9.46-2.73h13.1a.75.75,0,0,1,.51.21.7.7,0,0,1,.2.5Z"/><path class="cls-3" d="M43.93,84.5c-7.62,0-11.5,1.86-12.89,2.73H27.26a.71.71,0,0,1-.5-.21.67.67,0,0,1-.21-.5v-1.3a.72.72,0,0,1,.71-.72Z"/><path class="cls-3" d="M28.44,79.06H42.82a34.41,34.41,0,0,0-11.58,2.72h-2.8a.72.72,0,0,1-.71-.71V79.77a.67.67,0,0,1,.21-.5.71.71,0,0,1,.5-.21Z"/><path class="cls-2" d="M55.75,74.46v1.3a.67.67,0,0,1-.21.5.71.71,0,0,1-.5.21H28.44a.75.75,0,0,1-.51-.21.71.71,0,0,1-.21-.5v-1.3a.72.72,0,0,1,.72-.72H55a.72.72,0,0,1,.71.72Z"/><path class="cls-2" d="M55.81,77.17v1.3a.72.72,0,0,1-.71.72H28.5A.75.75,0,0,1,28,79a.8.8,0,0,1-.21-.51v-1.3a.76.76,0,0,1,.21-.5.71.71,0,0,1,.51-.21H55.1a.72.72,0,0,1,.71.71Z"/><path class="cls-3" d="M28.44,73.74H42.82a34.67,34.67,0,0,0-11.58,2.72h-2.8a.71.71,0,0,1-.5-.21.67.67,0,0,1-.21-.5v-1.3a.71.71,0,0,1,.21-.51.76.76,0,0,1,.5-.21Z"/><path class="cls-4" d="M43.36,71.39a7.49,7.49,0,1,0-10.6,0A7.48,7.48,0,0,0,43.36,71.39Z"/><path class="cls-5" d="M39.36,71.63a5.68,5.68,0,1,0-6.83-4.22A5.68,5.68,0,0,0,39.36,71.63Z"/><path class="cls-6" d="M38.13,72.52a6.32,6.32,0,1,1,6.33-6.32A6.33,6.33,0,0,1,38.13,72.52Zm0-12A5.72,5.72,0,0,0,32.88,64a5.75,5.75,0,0,0-.32,3.28,5.68,5.68,0,0,0,10.29,2,5.67,5.67,0,0,0-4.72-8.82Z"/><path class="cls-7" d="M40.37,66.4a2.1,2.1,0,0,0-.8-.54,9.9,9.9,0,0,0-1.18-.34,5.36,5.36,0,0,1-1-.31.52.52,0,0,1-.34-.49.63.63,0,0,1,.29-.53,1.68,1.68,0,0,1,.91-.2,3.54,3.54,0,0,1,1.76.5l.45-1.11a3.6,3.6,0,0,0-1-.42,4.63,4.63,0,0,0-.83-.13V61.56h-1v1.31a3,3,0,0,0-.79.21,2,2,0,0,0-.9.71,1.73,1.73,0,0,0-.3,1,1.51,1.51,0,0,0,.33,1,1.89,1.89,0,0,0,.79.55,10.06,10.06,0,0,0,1.19.34l.75.2a1.5,1.5,0,0,1,.45.24.52.52,0,0,1,.13.17.54.54,0,0,1,.05.21.56.56,0,0,1-.3.49,1.75,1.75,0,0,1-.93.19A3.55,3.55,0,0,1,36.89,68a3.38,3.38,0,0,1-1-.48l-.5,1.1a3.3,3.3,0,0,0,1.13.53,5.4,5.4,0,0,0,1,.18v1.16h1V69.34a3.14,3.14,0,0,0,.9-.23,2,2,0,0,0,.91-.71,1.76,1.76,0,0,0,.31-1A1.48,1.48,0,0,0,40.37,66.4Z"/><path class="cls-8" d="M112.84,4.83l-8.1,30.31-.29-.73-.62.48-.29-.73-.69.47-.3-.73-.63.48-.43-.77-.63.49-.4-.76-.79.44L99.28,33l-.7.47-.22-.71-.71.46-.24-.72-.58.5-.28-.73-.67.48L95.39,32l-.71.47-.35-.75-.68.47-.26-.72-.59.5-.31-.74-.64.48L91.56,31l-.71.46-.29-.73-.72.46-.28-.72-.64.48-.42-.77-.66.48-.34-.75-.82.44L94.78,0Z"/><path class="cls-9" d="M109.44,8.21l-13-3.48a.46.46,0,0,1-.32-.57h0a.53.53,0,0,1,.21-.28.47.47,0,0,1,.35,0l13,3.48a.53.53,0,0,1,.28.21.47.47,0,0,1,0,.35h0a.46.46,0,0,1-.21.28.48.48,0,0,1-.35.05Z"/><path class="cls-9" d="M108.67,11.07l-13-3.48A.48.48,0,0,1,95.32,7h0a.44.44,0,0,1,.22-.28.43.43,0,0,1,.35,0l13,3.48a.46.46,0,0,1,.28.21.48.48,0,0,1,0,.35A.44.44,0,0,1,109,11a.47.47,0,0,1-.35.05Z"/><path class="cls-9" d="M107.91,13.92l-13-3.48a.46.46,0,0,1-.28-.21.43.43,0,0,1,0-.35h0a.46.46,0,0,1,.21-.28.48.48,0,0,1,.35,0l13,3.48a.51.51,0,0,1,.28.22.47.47,0,0,1,0,.35h0a.46.46,0,0,1-.21.28.43.43,0,0,1-.35,0Z"/><path class="cls-9" d="M107.15,16.79l-13-3.49a.44.44,0,0,1-.32-.56.46.46,0,0,1,.21-.28.48.48,0,0,1,.35-.05l13,3.48a.48.48,0,0,1,.33.57.46.46,0,0,1-.21.28.48.48,0,0,1-.35.05Z"/><path class="cls-9" d="M106.38,19.64l-13-3.48a.46.46,0,0,1-.28-.21.48.48,0,0,1,0-.35h0a.44.44,0,0,1,.22-.28.47.47,0,0,1,.35-.05l13,3.48a.44.44,0,0,1,.28.22.45.45,0,0,1,0,.34.48.48,0,0,1-.22.28.47.47,0,0,1-.35.05Z"/><path class="cls-10" d="M98.66,25a.58.58,0,0,0,0-.19.49.49,0,0,0-.06-.17.75.75,0,0,0-.14-.17l-.23-.17c-.14-.1-.29-.21-.42-.32a1.55,1.55,0,0,1-.3-.33,1,1,0,0,1-.16-.37,1.08,1.08,0,0,1,0-.44.85.85,0,0,1,.18-.37,1,1,0,0,1,.29-.24.89.89,0,0,1,.39-.12,1.42,1.42,0,0,1,.46,0l.14-.53.43.11-.15.54a1.9,1.9,0,0,1,.39.23,1,1,0,0,1,.25.33.92.92,0,0,1,.11.4,1.21,1.21,0,0,1,0,.46l-.77-.2a.7.7,0,0,0,0-.48.51.51,0,0,0-.13-.16.66.66,0,0,0-.19-.09.75.75,0,0,0-.21,0,.49.49,0,0,0-.17.06.32.32,0,0,0-.12.11.51.51,0,0,0-.07.17.44.44,0,0,0,0,.16.35.35,0,0,0,.06.17.55.55,0,0,0,.14.17,2,2,0,0,0,.23.18c.16.12.3.22.43.33a1.6,1.6,0,0,1,.3.33.85.85,0,0,1,.15.37,1.07,1.07,0,0,1-.21.81,1,1,0,0,1-.29.24,1.27,1.27,0,0,1-.39.12,1.78,1.78,0,0,1-.46,0l-.13.49-.43-.11.13-.49a3,3,0,0,1-.4-.21,1.3,1.3,0,0,1-.31-.31,1.12,1.12,0,0,1-.16-.43,1.35,1.35,0,0,1,0-.53l.77.2a.82.82,0,0,0,0,.31.43.43,0,0,0,.09.22.46.46,0,0,0,.16.15.67.67,0,0,0,.21.09.68.68,0,0,0,.41,0,.47.47,0,0,0,.13-.11.46.46,0,0,0,.07-.16Z"/><path class="cls-10" d="M98.36,27.53A3.52,3.52,0,0,1,95,23.1h0a3.51,3.51,0,0,1,1-1.65,3.49,3.49,0,0,1,3.64-.73,3.51,3.51,0,0,1,1.56,1.15,3.49,3.49,0,0,1,.36,3.69A3.45,3.45,0,0,1,100.21,27,3.48,3.48,0,0,1,98.36,27.53Zm0-6.9a3.39,3.39,0,0,0-2,.7,3.46,3.46,0,0,0-1.21,1.81h0a3.39,3.39,0,0,0,3.38,4.24,3.43,3.43,0,0,0,1.94-.7,3.32,3.32,0,0,0,1.17-1.7,3.37,3.37,0,0,0-3.23-4.35Z"/><path class="cls-11" d="M137.68,89.92H.48a.51.51,0,0,0-.48.54H0A.51.51,0,0,0,.48,91h137.2a.51.51,0,0,0,.47-.53v0A.51.51,0,0,0,137.68,89.92Z"/><path class="cls-2" d="M54.07,43.84l-27-19.53a1.15,1.15,0,0,1-.25-1.61L37.53,7.88a1.15,1.15,0,0,1,1.6-.26l27,19.53a1.16,1.16,0,0,1,.26,1.61L55.68,43.59a1.15,1.15,0,0,1-1.61.25Z"/><path class="cls-3" d="M65.27,30.32,36.4,9.43,34,12.73,62.88,33.62Z"/><path class="cls-12" d="M53.18,28,35.52,15.23l-1.88,2.6L51.3,30.6Z"/><path class="cls-13" d="M32.66,25.29l-2.2-1.59a.9.9,0,0,1-.35-.56.88.88,0,0,1,.16-.65l1.37-1.89a.83.83,0,0,1,.56-.35.87.87,0,0,1,.65.15L35.05,22a.86.86,0,0,1,.35.56.88.88,0,0,1-.16.65l-1.37,1.9a.83.83,0,0,1-.56.34.84.84,0,0,1-.65-.15Z"/><g class="cls-14"><path class="cls-13" d="M56.25,37.83,38.72,25.15a.24.24,0,0,1-.09-.15.21.21,0,0,1,0-.17.23.23,0,0,1,.14-.09.25.25,0,0,1,.17,0L56.52,37.47a.17.17,0,0,1,.06.06l0,.08a.28.28,0,0,1,0,.09.19.19,0,0,1,0,.08h0s0,0-.07.06a.13.13,0,0,1-.08,0,.14.14,0,0,1-.09,0l-.08,0Z"/><path class="cls-13" d="M55.15,39.35,37.61,26.67l-.06-.07,0-.08a.28.28,0,0,1,0-.09.41.41,0,0,1,0-.08h0l.07-.06.08,0h.09s.05,0,.08,0L55.41,39a.12.12,0,0,1,.06.06.13.13,0,0,1,0,.08.14.14,0,0,1,0,.09.2.2,0,0,1,0,.08h0a.17.17,0,0,1-.06.06.13.13,0,0,1-.08,0h-.09Z"/><path class="cls-13" d="M54.08,40.83,36.55,28.15a.13.13,0,0,1-.06-.07.2.2,0,0,1,0-.08.28.28,0,0,1,0-.09.59.59,0,0,1,0-.08h0a.17.17,0,0,1,.06-.06l.08,0h.09a.19.19,0,0,1,.08,0L54.34,40.47a.12.12,0,0,1,.06.06.3.3,0,0,1,0,.08.28.28,0,0,1,0,.09.2.2,0,0,1,0,.08h0a.09.09,0,0,1-.06.06.11.11,0,0,1-.08,0,.27.27,0,0,1-.09,0l-.08,0Z"/></g><path class="cls-15" d="M39.5,39.76A2.25,2.25,0,0,0,37,41.34s-2.5,1-3.35,1.41-3.16,1.53-3.16,1.53S26,39,24.36,38.87l.29,4s2,2.15,2.76,2.85c.53.46,2.5,1.79,2.5,1.79a18,18,0,0,0,4.39-2.47c.8-.58,3.06-2.47,3.06-2.47A1.61,1.61,0,0,0,39,41.8c.5-.72.64-.44,1-1C40.4,40.1,39.73,39.83,39.5,39.76Z"/><path class="cls-16" d="M17,84.51l1,4.15h1.47l.06-4.14Z"/><path class="cls-17" d="M18.69,88.29A1.65,1.65,0,0,0,17,89.92h3.41A1.59,1.59,0,0,0,18.69,88.29Z"/><path class="cls-16" d="M29.76,84.69l2.41,4h1.47l-1.18-4.51Z"/><path class="cls-17" d="M32.92,88.29a1.66,1.66,0,0,0-1.74,1.63H34.6A1.6,1.6,0,0,0,32.92,88.29Z"/><path class="cls-18" d="M22.08,30a2.78,2.78,0,0,0-1.54-.29.65.65,0,0,1,.32-.16,2.39,2.39,0,0,0-.85.22c-3.68-1.41-4.26,4-4.18,5.27s-1.24,1.67-3.16,2.66c-3.65,1.89-4,4.43-4,4.43l.09.05c.18-.3.56-.88.87-1a11.08,11.08,0,0,0-.5,1.24c1.07.82,3.09,2.63,4.5,3.92a2.05,2.05,0,0,1,.09-.8l.17,1,1.27,1.18c-.1-1,4.6-6.39,7-8a6.87,6.87,0,0,0,.82-2.55,6.61,6.61,0,0,1-.5,2.31C24.64,37.67,23.43,30.79,22.08,30Z"/><path class="cls-19" d="M22.1,39.9c-.34-.16-.13-3-.13-3l-2.89-.58c-.2.95-.09,2.61-.45,2.68A2.71,2.71,0,0,0,20,40.28,3.4,3.4,0,0,0,22.1,39.9Z"/><path class="cls-18" d="M19.15,30.81a2.19,2.19,0,0,1,3.09.1A27.45,27.45,0,0,0,19.15,30.81Z"/><path class="cls-18" d="M19,36a7.94,7.94,0,0,1-1-2.34c-.14-.77.25-3.62,3.12-3.21a3.94,3.94,0,0,1,1.62.61c.62.42,1.52,1.33.51,3.82l-.26.84Z"/><path class="cls-8" d="M24.31,55H17.37v0l-3,0a13,13,0,0,0-.82,4.32c-.33,4.41-.09,12.63,3,26.79h4c.09,0,.06-11.3,0-20.3,0,0,0,.07,0,.11,3.59,9.47,8.83,20.23,8.83,20.23h4.11C32.67,81.51,24.31,55,24.31,55Z"/><path class="cls-16" d="M16.57,43.74l-2.68-.28s-.17,1-.48,6.91c0,0-.87,5.34-1.1,7.9a2.11,2.11,0,0,0-.64,2.57s.33.66.67.23.15-.31.64-.9a2,2,0,0,0,.49-1.87s2-7.13,2.11-7.69S16.57,43.74,16.57,43.74Z"/><path class="cls-20" d="M29.41,86.18S24.16,75.42,20.58,66c-.11-1.31-.28-3.19.55-3.85C21.13,62.1,29.87,78.29,29.41,86.18Z"/><path class="cls-21" d="M24.88,51.83c0,4.83.07,5.16.07,5.16a31.14,31.14,0,0,1-6.36-.41l-.18,0c-.84-.21-2.43-.71-3.39-1l-.81-.25.22-.56c.94-2.35,1.65-3.37,1.76-4.09a.77.77,0,0,0,0-.15c0-.1,0-.2,0-.3a.77.77,0,0,0,0-.15V50a18.38,18.38,0,0,0,0-3.4c0-.51-.09-1-.16-1.5l-.09,0-2.42-1.18A10.78,10.78,0,0,1,15,40.19h0a8.25,8.25,0,0,1,3.77-1.43,1.81,1.81,0,0,0,1.57.81,1.7,1.7,0,0,0,1.54-.88,20,20,0,0,1,2.46.15c.05,0,.8-.08,3,1.82a23.25,23.25,0,0,0-1.33,3.76l0,0c.05.38.08.77.1,1.15C26.17,46.15,24.88,51.7,24.88,51.83Z"/><path class="cls-20" d="M19.12,86.14H16.55c-3.11-14.16-3.36-22.38-3-26.79C14.3,63.28,18.71,85.69,19.12,86.14Z"/><path class="cls-17" d="M15,55.52l-.8-.25c.07-.2.14-.38.22-.56.93-2.34,1.65-3.37,1.76-4.09a.77.77,0,0,1,0-.15c0-.1,0-.2,0-.3s0-.1,0-.15V50a19.3,19.3,0,0,0,0-3.4c0-.51-.1-1-.17-1.5a.35.35,0,0,1,.32.18C18.84,50.27,17.29,53.48,15,55.52Z"/><path class="cls-15" d="M22.48,37.61s-3.61.06-3.61-2.19-.47-3.74,1.83-3.88,2.75.73,2.93,1.47S23.41,37.54,22.48,37.61Z"/><path class="cls-18" d="M23.53,31.77c-.56-.68-1-.53-1.22-.33-.33-.5-1-.47-1.64-.27-.85.27-1.71.59-1.85,1.72a2.27,2.27,0,0,1-1.15,1.61,3,3,0,0,0,2.17,0c1.19-.3,2.06-2,2.37-2.71A2.86,2.86,0,0,1,23,32.86c.17.58.26,1.75.6,1.71C23.62,34.57,24.36,32.78,23.53,31.77Z"/><path class="cls-22" d="M40.11,39.64l-1.34-.92,0,0h0l-.22-.09L37.24,42.5l1.06.87.22.09a.26.26,0,0,0,.15,0,.23.23,0,0,0,.1-.12l1.39-3.43a.2.2,0,0,0,0-.13.19.19,0,0,0-.07-.12Z"/><path class="cls-20" d="M37,42.27l1.28,1.07c.09.08.23,0,.28-.11l1.4-3.43a.2.2,0,0,0,0-.13.24.24,0,0,0-.07-.12l-1.35-.92a.19.19,0,0,0-.27.12L36.92,42a.25.25,0,0,0,0,.12A.17.17,0,0,0,37,42.27Z"/><path class="cls-2" d="M37.17,41.85l1.27,1.06,1.27-3.11-1.33-.91Z"/><path class="cls-22" d="M37.67,42.56a.11.11,0,0,0,0-.08.1.1,0,0,0-.05-.06h0l0,0,0,0a.08.08,0,0,0,0,0,.14.14,0,0,0,0,.09.15.15,0,0,0,0,.06A.09.09,0,0,0,37.67,42.56Z"/><path class="cls-10" d="M38.43,41.22l0-.09a.13.13,0,0,0,0-.06s0,0,0-.06l-.08,0-.14-.09a.31.31,0,0,1-.09-.11.17.17,0,0,1,0-.14.46.46,0,0,1,0-.2.86.86,0,0,1,.26-.31.56.56,0,0,1,.17-.09.61.61,0,0,1,.18-.05l.11-.24H39L38.9,40A.31.31,0,0,1,39,40a.14.14,0,0,1,.07.11.29.29,0,0,1,0,.16.48.48,0,0,1-.07.2h-.29a.38.38,0,0,0,0-.21.1.1,0,0,0,0,0l-.07,0-.08,0-.08,0-.06.06a.59.59,0,0,0,0,.08l0,.07a.15.15,0,0,0,0,.07.1.1,0,0,0,0,0l.08.06.14.09a.31.31,0,0,1,.09.11.4.4,0,0,1,0,.15.67.67,0,0,1-.05.19.94.94,0,0,1-.12.18.86.86,0,0,1-.14.13.56.56,0,0,1-.17.09.58.58,0,0,1-.19,0l-.1.23h-.16l.1-.22-.15-.05a.22.22,0,0,1-.09-.1.3.3,0,0,1,0-.16.61.61,0,0,1,.07-.24H38a.57.57,0,0,0,0,.14.22.22,0,0,0,0,.08.12.12,0,0,0,.05,0h.17l.08,0,.07-.06Z"/><path class="cls-23" d="M85.48,90.4,60,90.28a5.57,5.57,0,0,1-5.54-5.58l.27-64a5.58,5.58,0,0,1,5.59-5.54l25.52.12a5.56,5.56,0,0,1,5.53,5.59l-.27,64a5.56,5.56,0,0,1-5.58,5.54"/><path class="cls-24" d="M80.83,17.56a1.22,1.22,0,0,0-1.21,1.25v.89A1.24,1.24,0,0,1,78.41,21l-9.66,0a1.23,1.23,0,0,1-1.19-1.26v-.9a1.23,1.23,0,0,0-1.2-1.26H64.62l-4.34,0a3.89,3.89,0,0,0-3.91,3.87L56.1,83.74A3.9,3.9,0,0,0,60,87.65l25.5.11a3.89,3.89,0,0,0,3.92-3.87l.26-62.4a3.89,3.89,0,0,0-3.88-3.91Z"/><path class="cls-9" d="M84.07,54.91l-22.91,0a1.21,1.21,0,1,1,0-2.41l22.92,0a1.2,1.2,0,0,1,.85.36,1.21,1.21,0,0,1,.35.85h0a1.2,1.2,0,0,1-.36.85,1.17,1.17,0,0,1-.85.35Z"/><path class="cls-9" d="M84.06,61.14l-22.91,0a1.23,1.23,0,0,1-1.21-1.21h0a1.21,1.21,0,0,1,1.21-1.2l22.92,0a1.21,1.21,0,0,1,1.2,1.21h0a1.2,1.2,0,0,1-.36.85,1.17,1.17,0,0,1-.85.35Z"/><path class="cls-9" d="M84.05,68l-22.92,0a1.2,1.2,0,0,1-.84-2.06,1.21,1.21,0,0,1,.85-.35l22.91,0a1.17,1.17,0,0,1,.85.35,1.2,1.2,0,0,1,.36.85h0a1.22,1.22,0,0,1-.36.85,1.2,1.2,0,0,1-.85.36Z"/><path class="cls-9" d="M66.24,80H61.11a1.23,1.23,0,0,1-.85-.35,1.25,1.25,0,0,1-.35-.86,1.23,1.23,0,0,1,.35-.85,1.25,1.25,0,0,1,.86-.35h5.12a1.23,1.23,0,0,1,1.21,1.21h0a1.24,1.24,0,0,1-.36.85,1.19,1.19,0,0,1-.85.35Z"/><path class="cls-9" d="M84,80H78.9a1.22,1.22,0,0,1-.85-.36,1.19,1.19,0,0,1-.35-.85h0a1.21,1.21,0,0,1,.35-.85,1.2,1.2,0,0,1,.85-.36H84a1.21,1.21,0,0,1,1.2,1.21h0A1.21,1.21,0,0,1,84,80Z"/><path class="cls-25" d="M93.19,59.83l-.9-.64A2.75,2.75,0,0,0,89.59,57s-1,0-.64.67.29.36.72,1.27a2.62,2.62,0,0,0,2,1.61l.78.33Z"/><path class="cls-8" d="M92.29,59.2l-.62,1.14s8.66,8,10,6.85c0,0,7.46-9.52,6.51-14.54-.86-4.53-2.7-4.67-3-4.66h-.06s-1-.78-4.74,14.9C98.73,61.75,96.84,61.46,92.29,59.2Z"/><path class="cls-21" d="M116,73.2v5.18a.86.86,0,0,0,.05.27.69.69,0,0,0,.16.22.86.86,0,0,0,.22.15.81.81,0,0,0,.27,0l9.46,0a.58.58,0,0,0,.26-.05.7.7,0,0,0,.23-.15.76.76,0,0,0,.15-.23.75.75,0,0,0,0-.26l0-5.18a.68.68,0,0,0-.2-.49.7.7,0,0,0-.49-.2h-2.5V71.8a.6.6,0,0,0-.18-.43.62.62,0,0,0-.43-.18h-3.25a.64.64,0,0,0-.43.18.63.63,0,0,0-.17.43v.69h-2.5a.66.66,0,0,0-.27.06.72.72,0,0,0-.37.37A.86.86,0,0,0,116,73.2Zm7-.71h-3.26v-.69H123Z"/><path class="cls-17" d="M116,75.13l10.85,0v-.21l-10.85,0Z"/><path class="cls-9" d="M81.31,88.14l-.6,1.79h-6S76.27,87.51,81.31,88.14Z"/><path class="cls-25" d="M102.53,49.3a16.79,16.79,0,0,1-.79-2.48l2.58-3.1a6.29,6.29,0,0,0,3.08,4.64s-3.69,2.84-6.21,2.57a5.84,5.84,0,0,1,1.34-1.63Z"/><path class="cls-26" d="M101,46.91s4-.14,3.92-2.65.32-4.23-2.27-4.25-3,1-3.21,1.81S100,46.88,101,46.91Z"/><path class="cls-22" d="M104.93,44.43a4.14,4.14,0,0,0-4.41-3.07c-2.51.14-1.45-2.2-1.23-2.58,0,0,1.94,0,3.93,0C107.41,38.87,105.26,43.86,104.93,44.43Z"/><path class="cls-9" d="M84,88.14l-.6,1.79h-6S79,87.51,84,88.14Z"/><path class="cls-27" d="M112.24,69s-10.13,1.66-13.51,2.32C93.75,72.25,91,73,91,73L77.31,88.24h5.1s11.41-7.36,12.86-9.18h12.56S115.91,77.68,112.24,69Z"/><path class="cls-9" d="M113.93,69.88a56.31,56.31,0,0,1-10.58,3.72.31.31,0,0,1-.19,0,.32.32,0,0,1-.17-.09.31.31,0,0,1-.11-.16.4.4,0,0,1,0-.19,6.31,6.31,0,0,0,.05-.88,18.15,18.15,0,0,0-.73-5.1h0c-.28-1-.68-2.33-1.07-3.73,0,0,0,0,0,0-.28-1-.56-2.06-.79-3.11h0a16.85,16.85,0,0,1-.52-5,10,10,0,0,1,1.62-4.65s.64-.91.65-.91a3.86,3.86,0,0,0,2.46-.88c.84-.67,1.74-1.41,1.92-1.33,2.57,1.14,4.73,6.21,5.7,11.92.79,4.67,1.77,8.58,2.1,9.85a.48.48,0,0,1,0,.37.53.53,0,0,1-.26.27Z"/><path class="cls-28" d="M88.38,56l1.4-1h0l.24-.1,1.31,4.05-1.12.92-.21.08h0a.21.21,0,0,1-.25-.14L88.33,56.2a.2.2,0,0,1,0-.13A.24.24,0,0,1,88.38,56Z"/><path class="cls-29" d="M91.66,58.69l-1.34,1.12c-.09.08-.24,0-.29-.12l-1.46-3.58a.22.22,0,0,1,0-.14.24.24,0,0,1,.07-.12l1.41-1a.19.19,0,0,1,.28.12l1.4,3.42a.22.22,0,0,1,0,.14.2.2,0,0,1-.06.12Z"/><path class="cls-2" d="M91.44,58.25l-1.31,1.1L88.8,56.11l1.38-1Z"/><path class="cls-30" d="M90.93,59s0-.06,0-.08a.13.13,0,0,1,0-.07.1.1,0,0,1,.13.08.14.14,0,0,1,0,.09.13.13,0,0,1-.06.07A.1.1,0,0,1,90.93,59Z"/><path class="cls-10" d="M90.19,57.67l.06.06.09,0,.09,0,.08,0a.1.1,0,0,0,.06-.05.28.28,0,0,0,0-.09.74.74,0,0,0,0-.14h.31a1,1,0,0,1,.07.24.32.32,0,0,1,0,.17.35.35,0,0,1-.1.11.42.42,0,0,1-.15,0l.11.24h-.17l-.11-.24a.73.73,0,0,1-.37-.14.7.7,0,0,1-.16-.14,1.08,1.08,0,0,1-.11-.18.76.76,0,0,1-.06-.2.33.33,0,0,1,0-.15.27.27,0,0,1,.09-.12L90,57l.08-.05,0-.06a.15.15,0,0,0,0-.07l0-.08a.35.35,0,0,0-.05-.08L90,56.61l-.08,0h-.09a.09.09,0,0,0-.07,0l0,.06a.31.31,0,0,0,0,.21H89.5a.57.57,0,0,1-.07-.22.48.48,0,0,1,0-.17.21.21,0,0,1,.08-.11.35.35,0,0,1,.14-.06L89.53,56h.17l.12.26a.65.65,0,0,1,.19,0,.77.77,0,0,1,.18.1.54.54,0,0,1,.15.15.57.57,0,0,1,.12.18.46.46,0,0,1,.05.2.26.26,0,0,1,0,.15.52.52,0,0,1-.1.11l-.15.1-.08,0s0,0,0,.06a.08.08,0,0,0,0,.07.24.24,0,0,0,0,.08A.47.47,0,0,0,90.19,57.67Z"/><path class="cls-26" d="M93.19,61.17l-.9-.64a2.75,2.75,0,0,0-2.7-2.18s-1,0-.64.67.29.36.72,1.27a2.62,2.62,0,0,0,2,1.61l.78.33Z"/><path class="cls-8" d="M106.72,66.48c0,1.6-1.5,4.91-3.82,5.8a18.15,18.15,0,0,0-.73-5.1h0c-.28-1-.68-2.33-1.07-3.73l4.25-6.19S106.77,64.74,106.72,66.48Z"/><path class="cls-18" d="M113.93,69.88a71.9,71.9,0,0,0-13.54,1.8c-2.79.64-8.73,1.94-8.73,1.94L79.08,88.24h5.11s11.4-7.36,12.86-9.18h12.56S117.61,78.59,113.93,69.88Z"/><path class="cls-8" d="M106.49,56.09s-3.06,6.15-3.39,6.48a8.41,8.41,0,0,1-2,.84c-.28-1-.56-2.07-.79-3.12h0a12.65,12.65,0,0,0,1.17-2.65,27.82,27.82,0,0,1,2.45-4.46l1.59,1Z"/><path class="cls-8" d="M92.43,60.54,91.67,62s8.67,8,10,6.85c0,0,7.46-9.52,6.51-14.54-.86-4.53-2.7-4.67-3-4.66h-.06s-1-.78-4.74,14.9C98.73,63.42,97,62.81,92.43,60.54Z"/><path class="cls-31" d="M34.12,77.63h0Z"/><path class="cls-8" d="M56.49,84.59a18.23,18.23,0,0,1-2.23-3.3,15.11,15.11,0,0,1-4.57.6,18.38,18.38,0,0,1-5-.41c-.92,1.37-1.23,2.76-2.15,3.54-.77.66-3.57.7-3.57.7s3.29,4.14,6.65,4.2,6.51,0,6.51,0a22.5,22.5,0,0,0,6.44-3.46Z"/><path class="cls-17" d="M51.07,57a2.81,2.81,0,0,0-1.58-.19.78.78,0,0,1,.32-.18,2.45,2.45,0,0,0-.85.29c-3.83-1.17-4,4.36-3.85,5.63s-1.13,1.78-3,2.92c-3.56,2.18-3.69,4.77-3.69,4.77l.09.05c.16-.32.5-.93.81-1-.16.42-.3.85-.42,1.28,1.15.76,3.32,2.45,4.84,3.65a2,2,0,0,1,0-.82l.25,1c.81.64,1.37,1.1,1.37,1.1-.17-1,4.19-6.8,6.55-8.61a7.26,7.26,0,0,0,.65-2.64,6.69,6.69,0,0,1-.34,2.37C54.22,64.52,52.5,57.65,51.07,57Z"/><path class="cls-17" d="M47.28,58.35a2.21,2.21,0,0,1,3.08,0A12,12,0,0,0,47.28,58.35Z"/><path class="cls-17" d="M46.74,63.51a12.49,12.49,0,0,1-.71-2c-.2-.77,0-3.68,2.92-3.48a3.91,3.91,0,0,1,1.68.5c.67.38,1.64,1.24.81,3.83l-.21.87Z"/><path class="cls-19" d="M53.05,79.68c.79-8.61.44-12.1.44-12.1s-1.24-.3-2.88-.81a12.34,12.34,0,0,1-.09-2.35l-2.87.06c-.09.69,0,1.72-.14,2.31a32.72,32.72,0,0,0-3.78,1A108.78,108.78,0,0,1,45.91,79.9C46,80.5,53,80.44,53.05,79.68Z"/><path class="cls-32" d="M50.84,64.75c-.76.72-1.7,1.68-3.72-.11-.4-.35-.37-.88-.39-1.65a12.74,12.74,0,0,1-.14-2c.12-.63.66-.91,1.78-1,2.05-.17,3.08.29,2.94,1.31C51,63.56,51.62,64,50.84,64.75Z"/><path class="cls-17" d="M46.57,60.42a1.94,1.94,0,0,1-1.77,1.11,2.6,2.6,0,0,0,2.34.62c1.23-.41,2.1-2.31,2.1-2.31C48.55,58.84,46.89,59.82,46.57,60.42Z"/><path class="cls-21" d="M49.88,59.77l-.69.18s1.21,0,1.49.39a7.07,7.07,0,0,1,.45,1.09.8.8,0,0,1,.12.48S52.29,59.24,49.88,59.77Z"/><path class="cls-18" d="M58.19,75.59a6,6,0,0,0-3,1.55A18.22,18.22,0,0,0,54.13,75a31.84,31.84,0,0,0-.88,4.87c.12.32,1,1.41,1.15,1.65s-.54.53-1.4,1a8.94,8.94,0,0,1-3.66,1.16c-2,0-5.08-.92-5-1.54v0c0-.22,1.36-1.65,1.42-2.32A23.7,23.7,0,0,0,44.6,75c-.12.09-1.07,2.37-1.07,2.37a9.64,9.64,0,0,0-2.76-1.54s1.88-7,2.92-8.08l2.21-.61s1.19,3.7,3.35,5.28a8.64,8.64,0,0,0,2.88-5.22,14,14,0,0,1,2.47.8C54.8,68.19,58.19,75.59,58.19,75.59Z"/><path class="cls-27" d="M47.14,80.11c-.21.34-2.14,2.13-2.84,2v0c0-.22,1.36-1.65,1.42-2.32A23,23,0,0,0,44.59,75a1.11,1.11,0,0,1,.39-.49C45.47,74.12,47.38,79.74,47.14,80.11Z"/><path class="cls-27" d="M53,82.48a13.61,13.61,0,0,1-1.08-2.56c-.09-.27,1.17-4.82,1.78-5.06.24-.09.37,0,.43.12a30.67,30.67,0,0,0-.88,4.87c.12.32,1,1.41,1.15,1.65S53.85,82,53,82.48Z"/><path class="cls-19" d="M59.26,85.93a3.63,3.63,0,0,1-.28.27c-.79.67-3.07,1.42-5.27,2l-2,.51c-.51.16-1.56.49-2.68.88a4.74,4.74,0,0,1-3.06.15c-.79-.14-1.67.41-2.84,0S42.27,87,42.27,87a3.35,3.35,0,0,1,2.95.42,4,4,0,0,0,2.43.6.83.83,0,0,0,.35-.17,31.83,31.83,0,0,0,3.78-2.81l1.14-1c.92-.81,1.77-1.78,2.64-2.46a3.9,3.9,0,0,1,1.54-.81c2.49-.53,3.38.44,3.38.44A5.74,5.74,0,0,1,59.26,85.93Z"/><path class="cls-19" d="M47.56,85.9v3.32c-.71-.24-1.34-.44-1.74-.56l-1.91-.55a16.49,16.49,0,0,1-4.35-1.78l-.16-.13c-2-1.83-1.21-5.08-1.21-5.08s.64-.81,2.94-.28a4.81,4.81,0,0,1,1.75.88,22.75,22.75,0,0,1,2.34,2c.27.24.52.48.76.71Z"/><path class="cls-19" d="M48.55,89.56l.33.11a4.77,4.77,0,0,1-2.91.1c-.79-.14-1.67.41-2.84,0S42.27,87,42.27,87a3.25,3.25,0,0,1,2.47.13,4.62,4.62,0,0,1-.82.94c.65.2,1.3.38,1.91.55S47.44,89.17,48.55,89.56Z"/><path class="cls-18" d="M49.05,87.19c-.69.49-1,.7-1,.7a1,1,0,0,1-.35.17,3.93,3.93,0,0,1-2.42-.61,3.43,3.43,0,0,0-.49-.28,7.16,7.16,0,0,0,.39-.66,13.13,13.13,0,0,0,.86-2c1.16,1.07,2.14,1.94,2.8,2.5Z"/><path class="cls-18" d="M55.12,87.82c0,.53-.2,1.81-.77,2-1,.32-1.8-.2-2.63,0a4.71,4.71,0,0,1-2.84-.1l.15,0c1.12-.39,2.17-.72,2.68-.88s1.31-.33,2-.52Z"/><path class="cls-19" d="M47.56,80.68l-.28,1.8c-2.63,0-7.16-2.18-7.16-2.18-.64-1,.56-4.28.67-4.57,1.05.08,2,1.08,2.57,1.47l-.69,1.45Z"/><path class="cls-19" d="M51.32,80.68l.28,1.8c2.63,0,7.16-2.18,7.16-2.18.64-1-.62-4.39-.73-4.67A4.88,4.88,0,0,0,55.37,77l.84,1.68Z"/><path class="cls-9" d="M54.62,76.5H44.3V83H54.62Z"/><path class="cls-20" d="M49,79.76a.46.46,0,0,1,.08-.25.45.45,0,0,1,.2-.16.46.46,0,0,1,.26,0,.4.4,0,0,1,.23.12.46.46,0,0,1,.12.23.54.54,0,0,1,0,.25.45.45,0,0,1-.16.2.46.46,0,0,1-.25.08.33.33,0,0,1-.17,0,.6.6,0,0,1-.15-.09.46.46,0,0,1-.09-.15.47.47,0,0,1,0-.17Z"/><path class="cls-8" d="M42.88,81.72a1.09,1.09,0,0,1-.39.19c-1.64.43-2.57,3.12-2.93,4.42l-.16-.13c-2-1.83-1.21-5.08-1.21-5.08s.64-.81,2.94-.28A4.81,4.81,0,0,1,42.88,81.72Z"/><path class="cls-8" d="M59.26,85.93c-.62-1.53-2.78-3.49-3.7-4.28a3.75,3.75,0,0,1,1.55-.81c2.48-.53,3.37.44,3.37.44A5.74,5.74,0,0,1,59.26,85.93Z"/><path class="cls-18" d="M53.71,88.22c-.69.19-1.38.36-2,.51s-1.56.5-2.68.89a4.74,4.74,0,0,1-3.06.15c-.79-.14-1.67.41-2.84,0S42.27,87,42.27,87a3.33,3.33,0,0,1,2.95.41,4,4,0,0,0,2.43.61,1,1,0,0,0,.35-.17,33,33,0,0,0,3.78-2.82A7.37,7.37,0,0,0,53.71,88.22Z"/><path class="cls-18" d="M49.05,87.19c-.69.49-1,.7-1,.7a1,1,0,0,1-.35.17,3.93,3.93,0,0,1-2.42-.61,3.43,3.43,0,0,0-.49-.28,7.16,7.16,0,0,0,.39-.66,8.22,8.22,0,0,0,3.66.46Z"/><path class="cls-33" d="M107,81.77h.23l-.31,0Z"/><path class="cls-2" d="M123.36,87.91v1.3a.72.72,0,0,1-.71.71H96.05a.71.71,0,0,1-.51-.21.76.76,0,0,1-.21-.5v-1.3a.8.8,0,0,1,.21-.5.74.74,0,0,1,.51-.2h26.6a.7.7,0,0,1,.71.7Z"/><path class="cls-2" d="M127.75,85.2v1.3a.7.7,0,0,1-.2.5.75.75,0,0,1-.51.21h-26.6a.71.71,0,0,1-.5-.21.67.67,0,0,1-.21-.5V85.2a.67.67,0,0,1,.21-.5.71.71,0,0,1,.5-.21H127a.75.75,0,0,1,.51.21.7.7,0,0,1,.2.5Z"/><path class="cls-2" d="M128.93,79.78v1.3a.75.75,0,0,1-.21.5.71.71,0,0,1-.5.21H101.61a.72.72,0,0,1-.71-.71v-1.3a.72.72,0,0,1,.71-.71h26.61a.72.72,0,0,1,.71.71Z"/><path class="cls-2" d="M124.85,82.48v1.3a.71.71,0,0,1-.21.5.75.75,0,0,1-.5.21H97.53a.71.71,0,0,1-.5-.21.67.67,0,0,1-.21-.5v-1.3A.67.67,0,0,1,97,82a.71.71,0,0,1,.5-.21h26.61a.66.66,0,0,1,.27.06.65.65,0,0,1,.23.15.57.57,0,0,1,.15.23.66.66,0,0,1,.06.27Z"/><path class="cls-3" d="M123.36,87.91v1.3a.72.72,0,0,1-.71.71H119c-1.23-1.76-5.39-2.46-9.46-2.71h13.1a.7.7,0,0,1,.71.7Z"/><path class="cls-3" d="M117.11,84.49c-7.62,0-11.5,1.85-12.89,2.72h-3.78a.71.71,0,0,1-.5-.21.67.67,0,0,1-.21-.5V85.2a.67.67,0,0,1,.21-.5.71.71,0,0,1,.5-.21Z"/><path class="cls-3" d="M101.61,79.07H116a35.08,35.08,0,0,0-11.57,2.7l0,0h-2.79a.75.75,0,0,1-.5-.21.71.71,0,0,1-.21-.5v-1.3a.71.71,0,0,1,.21-.5.75.75,0,0,1,.5-.21Z"/><path class="cls-8" d="M62,21.08H58.73a.49.49,0,0,1-.36-.15.5.5,0,0,1-.14-.35h0a.5.5,0,0,1,.14-.35.49.49,0,0,1,.36-.15H62a.5.5,0,0,1,0,1Z"/><path class="cls-8" d="M85.88,21.08H82.64a.49.49,0,0,1-.36-.15.5.5,0,0,1-.14-.35h0a.5.5,0,0,1,.14-.35.49.49,0,0,1,.36-.15h3.24a.5.5,0,0,1,0,1Z"/><path class="cls-34" d="M72.93,31.33S77.14,25.56,81,29.2c2.06,1.94,3,6,0,9.61a49.73,49.73,0,0,1-8.07,7.11,50.19,50.19,0,0,1-8.07-7.11c-3-3.59-2.08-7.67,0-9.61C68.73,25.56,72.93,31.33,72.93,31.33Zm.95,4.7h2.94v1.86H73.88v2.94H72V37.89H69.08V36H72V33.09h1.86Z"/></g></g></svg>