<svg xmlns="http://www.w3.org/2000/svg" viewBox="0 0 110.35 116.42"><defs><style>.cls-1,.cls-20,.cls-3,.cls-5,.cls-6{fill:none;stroke-width:0.56px;}.cls-1,.cls-5,.cls-6{stroke:#6d9bd2;}.cls-1,.cls-3,.cls-5,.cls-6{stroke-miterlimit:10;}.cls-1,.cls-2,.cls-3,.cls-4,.cls-5,.cls-6{opacity:0.3;}.cls-1,.cls-18,.cls-19,.cls-2,.cls-21,.cls-3,.cls-5,.cls-6{isolation:isolate;}.cls-2{fill:#48a098;}.cls-3{stroke:#0c756e;}.cls-5{stroke-dasharray:1.55 1.55;}.cls-6{stroke-dasharray:1.69 1.69;}.cls-7{fill:#0c756e;}.cls-8{fill:#9b9b9b;}.cls-9{opacity:0.5;}.cls-10{fill:#c3c1c1;}.cls-11{fill:#7eb6b3;}.cls-12{fill:#f4aa97;}.cls-13{fill:#e16993;fill-opacity:0.7;}.cls-14{fill:#0d253e;}.cls-15{fill:#133454;}.cls-16{fill:#ededec;}.cls-17,.cls-18,.cls-19,.cls-21{fill:#fff;}.cls-18,.cls-22{opacity:0.7;}.cls-19{opacity:0.6;}.cls-20{stroke:#fff;stroke-linecap:round;stroke-linejoin:round;}.cls-21{opacity:0.2;}</style></defs><title>slide1</title><g id="图层_2" data-name="图层 2"><g id="Layer_1" data-name="Layer 1"><path class="cls-1" d="M96.52,17.3a1.7,1.7,0,0,1-.19.81,1.22,1.22,0,0,1-.51.54.87.87,0,0,1-.65.08,1,1,0,0,1-.58-.4,1.64,1.64,0,0,1-.31-.74,1.83,1.83,0,0,1,.07-.84,1.43,1.43,0,0,1,.41-.66,1,1,0,0,1,.63-.24,1,1,0,0,1,.8.42A1.73,1.73,0,0,1,96.52,17.3Z"/><path class="cls-1" d="M99.81,17.3a1.82,1.82,0,0,1-.19.81,1.27,1.27,0,0,1-.51.54.87.87,0,0,1-.65.08,1,1,0,0,1-.58-.4,1.54,1.54,0,0,1-.31-.74,2,2,0,0,1,.06-.84,1.45,1.45,0,0,1,.42-.66,1,1,0,0,1,.63-.24,1,1,0,0,1,.8.42A1.73,1.73,0,0,1,99.81,17.3Z"/><path class="cls-2" d="M103.1,17.3a1.87,1.87,0,0,1-.19.82,1.4,1.4,0,0,1-.51.54.9.9,0,0,1-.66.08,1.14,1.14,0,0,1-.58-.4,1.68,1.68,0,0,1-.31-.75,1.83,1.83,0,0,1,.07-.84,1.43,1.43,0,0,1,.41-.66,1,1,0,0,1,.64-.24,1,1,0,0,1,.79.42A1.68,1.68,0,0,1,103.1,17.3Z"/><path class="cls-1" d="M90,21.2a1.74,1.74,0,0,1-.19.82,1.19,1.19,0,0,1-.51.53.87.87,0,0,1-.65.09,1.14,1.14,0,0,1-.58-.4,1.62,1.62,0,0,1-.31-.75,1.83,1.83,0,0,1,.06-.84,1.45,1.45,0,0,1,.42-.66,1,1,0,0,1,.63-.24,1,1,0,0,1,.8.43,1.68,1.68,0,0,1,.33,1Z"/><path class="cls-1" d="M93.23,21.2A1.87,1.87,0,0,1,93,22a1.19,1.19,0,0,1-.51.53.87.87,0,0,1-.65.09,1.14,1.14,0,0,1-.58-.4,1.54,1.54,0,0,1-.31-.75,1.71,1.71,0,0,1,.06-.84,1.45,1.45,0,0,1,.42-.66.94.94,0,0,1,.63-.24,1,1,0,0,1,.8.42,1.73,1.73,0,0,1,.33,1Z"/><path class="cls-1" d="M96.52,21.2a1.7,1.7,0,0,1-.19.81,1.22,1.22,0,0,1-.51.54.87.87,0,0,1-.65.08,1,1,0,0,1-.58-.4,1.64,1.64,0,0,1-.31-.74,1.83,1.83,0,0,1,.07-.84,1.43,1.43,0,0,1,.41-.66,1,1,0,0,1,.63-.24,1,1,0,0,1,.8.43,1.68,1.68,0,0,1,.33,1Z"/><path class="cls-1" d="M99.81,21.2a1.82,1.82,0,0,1-.19.81,1.27,1.27,0,0,1-.51.54.87.87,0,0,1-.65.08,1,1,0,0,1-.58-.4,1.54,1.54,0,0,1-.31-.74,2,2,0,0,1,.06-.84,1.45,1.45,0,0,1,.42-.66,1,1,0,0,1,.63-.24,1,1,0,0,1,.8.43,1.68,1.68,0,0,1,.33,1Z"/><path class="cls-2" d="M103.1,21.2a1.87,1.87,0,0,1-.19.82,1.31,1.31,0,0,1-.51.53.9.9,0,0,1-.66.09,1.14,1.14,0,0,1-.58-.4,1.73,1.73,0,0,1-.31-.75,1.83,1.83,0,0,1,.07-.84,1.43,1.43,0,0,1,.41-.66,1,1,0,0,1,.64-.24,1,1,0,0,1,.79.43,1.63,1.63,0,0,1,.34,1Z"/><path class="cls-1" d="M90,25.11a1.74,1.74,0,0,1-.19.82,1.19,1.19,0,0,1-.51.53.92.92,0,0,1-.65.09,1.14,1.14,0,0,1-.58-.4,1.62,1.62,0,0,1-.31-.75,1.87,1.87,0,0,1,.06-.85,1.56,1.56,0,0,1,.42-.65.92.92,0,0,1,.63-.24.87.87,0,0,1,.44.11,1.17,1.17,0,0,1,.36.31,1.57,1.57,0,0,1,.25.48A2,2,0,0,1,90,25.11Z"/><path class="cls-1" d="M93.23,25.11a1.87,1.87,0,0,1-.19.82,1.25,1.25,0,0,1-.51.53.93.93,0,0,1-.65.09,1.1,1.1,0,0,1-.58-.4A1.62,1.62,0,0,1,91,25.4a1.7,1.7,0,0,1,.06-.84,1.45,1.45,0,0,1,.42-.66.94.94,0,0,1,.63-.24,1,1,0,0,1,.8.42A1.73,1.73,0,0,1,93.23,25.11Z"/><path class="cls-1" d="M96.52,25.11a1.82,1.82,0,0,1-.19.81,1.22,1.22,0,0,1-.51.54.87.87,0,0,1-.65.08,1.14,1.14,0,0,1-.58-.4,1.64,1.64,0,0,1-.31-.75,1.84,1.84,0,0,1,.07-.84,1.45,1.45,0,0,1,.41-.65,1,1,0,0,1,.63-.24.81.81,0,0,1,.43.11,1.1,1.1,0,0,1,.37.31,1.57,1.57,0,0,1,.25.48A2,2,0,0,1,96.52,25.11Z"/><path class="cls-1" d="M99.81,25.11a1.82,1.82,0,0,1-.19.81,1.27,1.27,0,0,1-.51.54.87.87,0,0,1-.65.08,1.14,1.14,0,0,1-.58-.4,1.54,1.54,0,0,1-.31-.75,2,2,0,0,1,.06-.84,1.56,1.56,0,0,1,.42-.65,1,1,0,0,1,.63-.24.84.84,0,0,1,.43.11,1.2,1.2,0,0,1,.37.31,1.54,1.54,0,0,1,.24.48A1.67,1.67,0,0,1,99.81,25.11Z"/><path class="cls-2" d="M103.1,25.11a1.74,1.74,0,0,1-.2.82,1.23,1.23,0,0,1-.5.53,1,1,0,0,1-.66.09,1.14,1.14,0,0,1-.58-.4,1.62,1.62,0,0,1-.31-.75,1.87,1.87,0,0,1,.07-.85,1.39,1.39,0,0,1,.42-.65.89.89,0,0,1,.63-.24.86.86,0,0,1,.43.11,1.2,1.2,0,0,1,.37.31,1.8,1.8,0,0,1,.24.48A1.67,1.67,0,0,1,103.1,25.11Z"/><path class="cls-1" d="M90,29a1.7,1.7,0,0,1-.19.81,1.22,1.22,0,0,1-.51.54.87.87,0,0,1-.65.08,1.08,1.08,0,0,1-.58-.4,1.54,1.54,0,0,1-.31-.75,1.84,1.84,0,0,1,.06-.84,1.5,1.5,0,0,1,.42-.65.93.93,0,0,1,1.07-.14,1.21,1.21,0,0,1,.36.32,1.51,1.51,0,0,1,.25.47A2.1,2.1,0,0,1,90,29Z"/><path class="cls-1" d="M93.23,29a1.82,1.82,0,0,1-.19.81,1.27,1.27,0,0,1-.51.54.87.87,0,0,1-.65.08,1,1,0,0,1-.58-.4,1.54,1.54,0,0,1-.31-.74,1.74,1.74,0,0,1,.06-.85,1.47,1.47,0,0,1,.42-.65.91.91,0,0,1,1.06-.14,1.24,1.24,0,0,1,.37.32,1.49,1.49,0,0,1,.24.47A1.77,1.77,0,0,1,93.23,29Z"/><path class="cls-2" d="M108.77,57.16a1.12,1.12,0,0,0-.53.13,4.29,4.29,0,0,0-.55-1.9,2.88,2.88,0,0,0-1.25-1.2,2.14,2.14,0,0,0-1.57-.13,2.64,2.64,0,0,0-1.36,1C91.82,37.67,72.79,40.48,63,58.6c-.38.7-2,5.46-2.51,5.78-1,.58-.76.09-1.49-.94-2.08-2.9-3-7.61-4.71-11C46.94,38,33.54,39.42,25.92,52.32a41.21,41.21,0,0,0-4.21,8.73.32.32,0,0,1,0,.09l-.3.19a8.91,8.91,0,0,0-1.31,1.09l-.05.06.05-.15h0v-.06a33.66,33.66,0,0,0,1.66-5.72h0v-.07a18.7,18.7,0,0,0,.33-4.36,5.43,5.43,0,0,0-.05-.67v-.07c-.16-1.39-.63-3.12-1.64-3.59h-.06a1.46,1.46,0,0,0-.45-.1,2,2,0,0,0-1.56.94l0,0a10,10,0,0,0-1,1.84q-.44,1-.78,2l0,0,0,0a38.85,38.85,0,0,0-1.31,5.31l0,0,0,0c-.11.6-.21,1.19-.3,1.79v-.65l.08-.16-.08-.07c0-1.08,0-2.16,0-3.24,0-1.28-.07-2.56-.14-3.85l0-.05-.05-.07a52.89,52.89,0,0,0-.87-7.55l0,0L13.78,44c-.19-1-.42-2-.7-2.9A14.35,14.35,0,0,0,12,38.32h0l0-.07A3,3,0,0,0,10,36.53a1.67,1.67,0,0,0-.63,0H9.32c-1.45.35-2.38,2.54-2.85,4.39a.29.29,0,0,0,0,.09c-.08.32-.14.6-.19.88a26.1,26.1,0,0,0-.31,6l0,.09H6A47.71,47.71,0,0,0,7.2,56.19l0,.09,0,0a1.6,1.6,0,0,1,0,.21l0,0a13.56,13.56,0,0,0-1.61-1.9A7.88,7.88,0,0,0,5,54l0,0c-1-.78-2-1.09-2.77-.24l0,0v0a4,4,0,0,0-.66,2.51v.12a8,8,0,0,0,.08,1.29,12.58,12.58,0,0,0,.64,2.52v.06h0a19.29,19.29,0,0,0,2,4c-.2.22-.41.47-.6.72-5.56,7.23-4.6,23.82,1.41,31.64h98c5.1-10.14,6.82-25.13,3.21-35.57h2.47a1.25,1.25,0,0,0,.6-.13,1.35,1.35,0,0,0,.51-.42,2,2,0,0,0,.35-.64,2.42,2.42,0,0,0,.12-.76,2.53,2.53,0,0,0-.12-.77,2,2,0,0,0-.35-.64,1.57,1.57,0,0,0-.51-.42,1.24,1.24,0,0,0-.6-.12Z"/><path class="cls-3" d="M6.08,22.3c4.38-8.33,11.56-3.64,16.85.88C29.69,29,36.6,34.93,44.43,26.79"/><path class="cls-1" d="M25.06,17.58c10.06,8.8,15,10.4,26.48,6.17"/><path class="cls-1" d="M87,15.09l1.73,2.23,4-5.09"/><g class="cls-4"><path class="cls-1" d="M11.07,7l3.83,5.13"/><path class="cls-1" d="M15,7.14l-4,4.93"/></g><path class="cls-3" d="M21.27,4.61a1.8,1.8,0,0,1-.23.9,1.36,1.36,0,0,1-.57.59,1,1,0,0,1-.74.08,1.25,1.25,0,0,1-.64-.47,1.79,1.79,0,0,1-.33-.84,2,2,0,0,1,.08-.94,1.55,1.55,0,0,1,.48-.72A1,1,0,0,1,20,3a1.19,1.19,0,0,1,.89.5,1.9,1.9,0,0,1,.35,1.16Z"/><path class="cls-1" d="M94.93,7.36C85.51-1.82,73.47,21.47,66.05,25.64"/><g class="cls-4"><path class="cls-1" d="M11,24.63a3.83,3.83,0,0,1,.29-.28"/><path class="cls-5" d="M11.94,24c1.91-.94,4.46.34,6.2,1.68"/><path class="cls-1" d="M18.43,25.87l.31.26"/></g><path class="cls-6" d="M86,1.59c3.46-2.41,9-1.4,12,2.28"/><path class="cls-3" d="M28.41,5.45a1.7,1.7,0,0,1,.69.16A5.29,5.29,0,0,1,30,2.78a3.46,3.46,0,0,1,2.08-1.49,3,3,0,0,1,2.35.52A4.47,4.47,0,0,1,36,4.1a2.1,2.1,0,0,1,1-.29,2.08,2.08,0,0,1,1,.25,2.71,2.71,0,0,1,.84.72,3.46,3.46,0,0,1,.56,1.08,4.12,4.12,0,0,1,.21,1.27,4.23,4.23,0,0,1-.2,1.28,3.85,3.85,0,0,1-.55,1.09,2.71,2.71,0,0,1-.84.72,2.09,2.09,0,0,1-1,.26l-8.66,0a1.63,1.63,0,0,1-.78-.16A2,2,0,0,1,27,9.83,2.47,2.47,0,0,1,26.54,9a3.08,3.08,0,0,1-.16-1,3.25,3.25,0,0,1,.15-1A2.69,2.69,0,0,1,27,6.17a2.06,2.06,0,0,1,.67-.55A1.6,1.6,0,0,1,28.41,5.45Z"/><path class="cls-7" d="M30.62,101.09a20.72,20.72,0,0,1-2.74-2.4,35.89,35.89,0,0,1-5.07-6,14.44,14.44,0,0,1-2.42-5.82c-.14-1-.15-2.6.52-3.35,1.62-1.81,4.56,2.5,5.34,3.93a41.89,41.89,0,0,1,4.37,13.64Z"/><path class="cls-8" d="M23.34,83.78l-.06-.07a7.32,7.32,0,0,0-1.07,2.74c-.8-1.77-1.25-2.92-1.27-3l-.07.05s.47,1.18,1.25,2.93a3.34,3.34,0,0,0-1.82-.77v.1a3.44,3.44,0,0,1,1.9.85c.55,1.23,1.26,2.74,2.09,4.37a9.82,9.82,0,0,0-3.36-2l0,.11a9.73,9.73,0,0,1,3.49,2.18h0c.63,1.23,1.33,2.53,2.09,3.82a8.56,8.56,0,0,0-3.24-1.77v.1a9.16,9.16,0,0,1,3.37,1.89c.59,1,1.2,2,1.85,3a10.31,10.31,0,0,0-2.42-1.48l0,.1a10.57,10.57,0,0,1,2.61,1.63c.62.91,1.26,1.8,1.92,2.61l.06-.08c-.66-.81-1.3-1.69-1.93-2.61a8.47,8.47,0,0,1,.44-4l-.07,0a9.37,9.37,0,0,0-.5,3.89c-.65-1-1.29-2-1.89-3a8,8,0,0,1,1.08-4.62l-.06-.06a8.26,8.26,0,0,0-1.12,4.52c-.76-1.32-1.48-2.64-2.12-3.9-.27-1.74,1.33-4.44,1.34-4.47l-.06-.06c-.07.11-1.51,2.57-1.39,4.33-.83-1.64-1.54-3.15-2.1-4.39A7.35,7.35,0,0,1,23.34,83.78Z"/><g class="cls-9"><path class="cls-10" d="M25.23,85.86a10.7,10.7,0,0,0-1.4-1.65s1.43,10.07,6,15.63l.12-.57-1.65-8.34Z"/></g><path class="cls-11" d="M30.69,101.3c0-.81-1.11-2.65-1.46-3.5-1.13-2.75-2.15-5.58-3.05-8.47-1.45-4.7-2.74-10.91-1.81-16,.34-1.87,1.37-4.9,3.22-4.59,1.38.23,2.18,2.41,2.62,3.91a48.85,48.85,0,0,1,1.46,12.41c.12,4.79-.11,9.62-.31,14.41Z"/><path class="cls-8" d="M29.86,94.56a21.49,21.49,0,0,1,1.91-6.64l-.1-.09a21.6,21.6,0,0,0-1.88,6.36q-.49-2.72-.86-5.21c1.19-5.5,2.64-7.21,2.66-7.22l-.08-.12c-.06.07-1.44,1.69-2.63,7-.32-2.19-.59-4.24-.81-6.12.92-5.07,2.77-7.29,2.79-7.31l-.09-.12S29,77.27,28,82.13c-.26-2.33-.45-4.41-.58-6.19.36-4,1.83-5.62,1.85-5.64l-.08-.12a9.92,9.92,0,0,0-1.82,5.11c-.29-4.12-.29-6.46-.28-6.52H27c0,.06,0,2.57.31,6.94-.38-.68-1.57-2.68-2.74-3.24l0,.14c1.32.64,2.76,3.33,2.8,3.41.13,1.77.32,3.83.59,6.15a8.07,8.07,0,0,0-3.79-3.75l0,.14a7.81,7.81,0,0,1,3.87,4q.32,2.79.8,6a7.49,7.49,0,0,0-3.57-3.1l0,.14A7,7,0,0,1,28.82,89c.23,1.55.49,3.16.79,4.84A7,7,0,0,0,27,91.6l0,.15C29.09,93,29.58,94,29.7,94.36c.34,1.91.73,3.89,1.16,6l.12,0Q30.35,97.33,29.86,94.56Z"/><path class="cls-12" d="M30.84,101.15a16.91,16.91,0,0,0,2-1.78,27.16,27.16,0,0,0,3.75-4.45,10.86,10.86,0,0,0,1.79-4.31A3.54,3.54,0,0,0,38,88.13c-1.2-1.34-3.38,1.85-4,2.91a31.07,31.07,0,0,0-3.23,10.1Z"/><path class="cls-8" d="M36.22,88.33l.05,0a5.32,5.32,0,0,1,.79,2c.59-1.31.93-2.16.94-2.19l0,0s-.34.87-.93,2.17a2.58,2.58,0,0,1,1.34-.58v.08a2.64,2.64,0,0,0-1.4.64c-.41.92-.93,2-1.55,3.24A7.47,7.47,0,0,1,38,92.19v.08a7.18,7.18,0,0,0-2.58,1.6c-.47.92-1,1.88-1.55,2.83a6.58,6.58,0,0,1,2.39-1.31v.08a6.62,6.62,0,0,0-2.49,1.4c-.44.74-.9,1.48-1.37,2.19A7.59,7.59,0,0,1,34.18,98l0,.08a7.84,7.84,0,0,0-1.93,1.2c-.46.68-.93,1.33-1.42,1.93l0-.06c.49-.6,1-1.25,1.42-1.92a6.47,6.47,0,0,0-.32-3l.05,0a6.7,6.7,0,0,1,.36,2.88c.5-.72,1-1.48,1.41-2.24a5.89,5.89,0,0,0-.81-3.42l0-.05a6.21,6.21,0,0,1,.83,3.34c.56-1,1.09-2,1.57-2.88.19-1.29-1-3.29-1-3.31l.05,0a7.06,7.06,0,0,1,1,3.21c.62-1.21,1.15-2.33,1.56-3.24A5,5,0,0,0,36.22,88.33Z"/><g class="cls-9"><path class="cls-10" d="M34.83,89.88a8.83,8.83,0,0,1,1-1.23s-1.06,7.45-4.43,11.57l-.09-.42,1.22-6.18Z"/></g><path class="cls-13" d="M30.79,101.3a12.47,12.47,0,0,1,1.07-2.59q1.26-3.06,2.26-6.27c1.07-3.48,2-8.07,1.34-11.82-.25-1.38-1-3.62-2.38-3.4-1,.18-1.61,1.79-1.94,2.89a36,36,0,0,0-1.08,9.19c-.09,3.52.08,7.11.23,10.66Z"/><path class="cls-8" d="M31.4,96.32A15.78,15.78,0,0,0,30,91.39l.07-.07A16,16,0,0,1,31.45,96c.24-1.34.45-2.63.64-3.85-.88-4.07-2-5.33-2-5.34l.06-.09c.05,0,1.07,1.25,2,5.18.25-1.6.43-3.13.6-4.52A12.51,12.51,0,0,0,30.67,82l.06-.09a12.55,12.55,0,0,1,2,5.2c.2-1.72.34-3.26.43-4.58-.26-2.94-1.35-4.16-1.37-4.16l.06-.09a7.18,7.18,0,0,1,1.35,3.78c.22-3,.21-4.78.21-4.81h.09s0,1.89-.23,5.13a6.52,6.52,0,0,1,2-2.4l0,.11a7.24,7.24,0,0,0-2.07,2.52c-.1,1.31-.25,2.83-.43,4.55a5.74,5.74,0,0,1,2.8-2.77l0,.1a5.78,5.78,0,0,0-2.87,3c-.16,1.37-.35,2.86-.59,4.46a5.45,5.45,0,0,1,2.65-2.29l0,.1a5.12,5.12,0,0,0-2.71,2.49c-.17,1.14-.37,2.33-.59,3.58a5,5,0,0,1,1.95-1.66l0,.11c-1.6.9-2,1.64-2.06,1.92-.25,1.41-.54,2.89-.86,4.41l-.08,0C30.88,99.09,31.16,97.68,31.4,96.32Z"/><path class="cls-7" d="M73.19,113.63A32.64,32.64,0,0,0,77.37,110a55.26,55.26,0,0,0,7.72-9.16,22.12,22.12,0,0,0,3.68-8.87c.22-1.55.23-4-.78-5.12-2.48-2.76-7,3.81-8.15,6a63.9,63.9,0,0,0-6.66,20.81Z"/><path class="cls-8" d="M84.29,87.22l.09-.11A11.23,11.23,0,0,1,86,91.28c1.21-2.69,1.91-4.45,1.93-4.51l.11.08c0,.05-.71,1.79-1.91,4.47a5,5,0,0,1,2.76-1.18v.16A5.21,5.21,0,0,0,86,91.58c-.85,1.88-1.93,4.19-3.2,6.67A14.3,14.3,0,0,1,88,95.13l0,.15a14.61,14.61,0,0,0-5.33,3.33c-1,1.88-2,3.86-3.18,5.84,3-2.35,4.9-2.71,4.92-2.71l0,.16s-2,.37-5.14,2.88c-.89,1.53-1.84,3-2.82,4.51a14.57,14.57,0,0,1,3.68-2.24l0,.15a15.65,15.65,0,0,0-4,2.47c-1,1.4-1.94,2.75-3,4l-.08-.11c1-1.24,2-2.58,2.94-4,.62-2.55-.66-6.09-.67-6.14l.11-.06a13.9,13.9,0,0,1,.75,5.93c1-1.5,2-3.05,2.89-4.62a12.17,12.17,0,0,0-1.65-7l.09-.1a12.45,12.45,0,0,1,1.71,6.89c1.16-2,2.25-4,3.23-5.94.4-2.6-2-6.74-2.06-6.77l.1-.1c.09.17,2.3,3.9,2.11,6.61,1.27-2.5,2.35-4.81,3.2-6.7A10.64,10.64,0,0,0,84.29,87.22Z"/><g class="cls-9"><path class="cls-10" d="M81.4,90.4a17.5,17.5,0,0,1,2.13-2.52s-2.17,15.38-9.12,23.84l-.18-.87,2.51-12.72Z"/></g><path class="cls-13" d="M73.07,114c0-1.23,1.7-4,2.23-5.34q2.58-6.3,4.65-12.92c2.21-7.17,4.16-16.65,2.77-24.36-.52-2.85-2.09-7.48-4.92-7-2.11.36-3.33,3.69-4,6-1.77,6-2.06,12.58-2.22,18.92-.19,7.3.16,14.67.47,22Z"/><path class="cls-8" d="M74.34,103.67a32.54,32.54,0,0,0-2.92-10.13l.15-.14a32.62,32.62,0,0,1,2.88,9.71c.49-2.77.93-5.42,1.3-8-1.81-8.39-4-11-4-11l.13-.18c.09.1,2.19,2.57,4,10.69.5-3.34.9-6.46,1.24-9.33-1.4-7.73-4.22-11.12-4.23-11.16L73,74s2.74,3.3,4.2,10.72c.4-3.56.69-6.74.89-9.44-.55-6.07-2.8-8.59-2.82-8.61l.12-.18s2.08,2.32,2.78,7.8c.44-6.28.43-9.87.43-10h.18c0,.09,0,3.91-.48,10.59.59-1,2.41-4.1,4.17-5l.07.22c-2,1-4.21,5.07-4.27,5.2-.21,2.7-.5,5.84-.9,9.37a12.2,12.2,0,0,1,5.78-5.71l.06.22a12,12,0,0,0-5.91,6.13v0c-.32,2.83-.73,5.9-1.22,9.19a11.45,11.45,0,0,1,5.45-4.73l.06.22A10.68,10.68,0,0,0,76,95.23q-.53,3.54-1.21,7.38a10.41,10.41,0,0,1,4-3.4l.07.21c-3.3,1.86-4.06,3.37-4.23,4q-.8,4.35-1.8,9.09l-.17-.07Q73.58,107.89,74.34,103.67Z"/><path class="cls-14" d="M81.39,2.71c-.83-2-1.84-2.42-2.9-2.42s.41,2.54.41,2.54Z"/><path class="cls-14" d="M30.25,113.23a3.77,3.77,0,0,0,.08,1.21,3.44,3.44,0,0,0,.47,1,2.42,2.42,0,0,0,.77.7,1.77,1.77,0,0,0,.92.23H70.3a2.54,2.54,0,0,0,1.83-.94,4.1,4.1,0,0,0,.91-2.25L81.7,4.43a3.5,3.5,0,0,0-.08-1.21,2.87,2.87,0,0,0-.47-1.05,2.22,2.22,0,0,0-.76-.71,1.73,1.73,0,0,0-.93-.24H41.65a2.57,2.57,0,0,0-1.83,1,4.08,4.08,0,0,0-.9,2.26Z"/><path class="cls-15" d="M29.46,112.28a3.77,3.77,0,0,0,.08,1.21,3.34,3.34,0,0,0,.47,1.05,2.23,2.23,0,0,0,.77.7,1.77,1.77,0,0,0,.92.23H69.51a2.54,2.54,0,0,0,1.83-.94,4,4,0,0,0,.9-2.25L80.91,3.48a3.7,3.7,0,0,0-.08-1.2,3.24,3.24,0,0,0-.47-1,2.34,2.34,0,0,0-.77-.71,1.77,1.77,0,0,0-.92-.23H40.86A2.54,2.54,0,0,0,39,1.23a4.13,4.13,0,0,0-.91,2.25Z"/><path class="cls-16" d="M39.47,6.35a1.29,1.29,0,0,1,.27-.68.82.82,0,0,1,.56-.28H78.23a.52.52,0,0,1,.27.07.66.66,0,0,1,.23.21.92.92,0,0,1,.14.32,1.1,1.1,0,0,1,0,.36L70.76,108.6a1.19,1.19,0,0,1-.28.68.71.71,0,0,1-.55.28H32a.51.51,0,0,1-.27-.06.69.69,0,0,1-.23-.22.73.73,0,0,1-.14-.31,1.16,1.16,0,0,1,0-.37Z"/><path class="cls-15" d="M65.76,4.86c.27,0,.36.23.19.5L64.4,7.87a1.12,1.12,0,0,1-.8.5H53.39A.84.84,0,0,1,53,8.21a1.27,1.27,0,0,1-.33-.39l-1.1-2.4c-.14-.32,0-.56.25-.56Z"/><path class="cls-15" d="M76.88,7H74.16s0,0,0,0l0,0,0,.57h-.22l0,0v0l0,1v0h0v0H74l0,.59a0,0,0,0,0,0,0h0l0,0h2.74l0,0a0,0,0,0,0,0,0l.1-2.21V7h0Zm-.45,1.72h-.86l.06-1.12h.85Z"/><path class="cls-15" d="M73,8.19a1.35,1.35,0,0,0,.08-.36,1,1,0,0,0,0-.3A1.09,1.09,0,0,0,73,7.26a.64.64,0,0,0-.19-.18A.49.49,0,0,0,72.56,7a.57.57,0,0,0-.43.26.91.91,0,0,0-.19.57.87.87,0,0,0,0,.36h0l0,.05a.14.14,0,0,0,0,.06l.37,1c0,.13.09.1.13,0l.46-1a.11.11,0,0,0,0-.06s0,0,0-.05Zm-.5-.78a.28.28,0,0,1,.12,0,.26.26,0,0,1,.09.09.31.31,0,0,1,.06.13.43.43,0,0,1,0,.16.45.45,0,0,1-.09.28.32.32,0,0,1-.22.13.21.21,0,0,1-.11,0,.28.28,0,0,1-.1-.09A.5.5,0,0,1,72.24,8a.38.38,0,0,1,0-.15.48.48,0,0,1,.09-.29.34.34,0,0,1,.21-.13Z"/><path class="cls-15" d="M69.88,8.06H69.7a.11.11,0,0,0-.09.06.16.16,0,0,0,0,.12l0,.91s0,0,0,.06,0,0,0,.06,0,0,0,0h.22a.11.11,0,0,0,.09-.05.19.19,0,0,0,0-.12l0-.91s0-.05,0-.07a.08.08,0,0,0,0-.05l0,0-.05,0Z"/><path class="cls-15" d="M70.48,7.45h-.17a.12.12,0,0,0-.1.06.21.21,0,0,0,0,.12L70.1,9.15a.13.13,0,0,0,0,.06.14.14,0,0,0,0,.06l0,0h.23a.12.12,0,0,0,.09-.05.17.17,0,0,0,0-.12l.07-1.52V7.56l0,0a.1.1,0,0,0,0,0Z"/><path class="cls-15" d="M71.09,6.86h-.17a.15.15,0,0,0-.09.06.17.17,0,0,0,0,.12l-.1,2.11v.06l0,.06s0,0,0,0H71a.14.14,0,0,0,.1-.05.25.25,0,0,0,0-.12L71.21,7V7l0-.06,0,0,0,0Z"/><path class="cls-17" d="M73.06,79.69H33.65l1.06-13.35H74.12Z"/><path class="cls-7" d="M74.12,66.34H34.71L39.1,11H78.51Z"/><path class="cls-17" d="M47.37,20.25c-.19,2.49-1.79,4.51-3.56,4.51s-3.05-2-2.85-4.51,1.79-4.51,3.56-4.51S47.57,17.76,47.37,20.25Z"/><path class="cls-17" d="M58,20.53h-8.7l.17-2.08h8.7Z"/><path class="cls-18" d="M43.84,31.59H40.47L40.6,30H44Z"/><path class="cls-19" d="M55.44,22.05H49.17l.07-.83H55.5Z"/><path class="cls-19" d="M62.22,22.05H56l.07-.83h6.26Z"/><path class="cls-17" d="M61.44,89H43.87L44,86.88H61.61Z"/><path class="cls-17" d="M49.92,91.67H43.65l.12-1.46H50Z"/><path class="cls-17" d="M56.7,91.67H50.43l.12-1.46h6.27Z"/><path class="cls-20" d="M73.76,14.57l1.57,2.48"/><path class="cls-20" d="M75.52,14.57l-2,2.48"/><path class="cls-18" d="M48.83,31.59H45.46L45.59,30H49Z"/><path class="cls-18" d="M53.82,31.59H50.45L50.58,30H54Z"/><path class="cls-18" d="M58.81,31.59H55.44L55.57,30h3.37Z"/><path class="cls-21" d="M56.13,37.38h1.81l.2-2.55H56.33Z"/><path class="cls-18" d="M63.8,31.59H60.43L60.56,30h3.37Z"/><path class="cls-21" d="M61.12,37.38h1.81l.2-2.55H61.32Z"/><path class="cls-18" d="M68.79,31.59H65.42L65.55,30h3.37Z"/><path class="cls-21" d="M66.11,37.38h1.81l.2-2.55H66.31Z"/><path class="cls-18" d="M73.78,31.59H70.41L70.54,30h3.37Z"/><path class="cls-21" d="M71.1,37.38h1.81l.2-2.55H71.3Z"/><path class="cls-21" d="M40.69,43.23H42.5l.21-2.55H40.89Z"/><path class="cls-21" d="M45.68,43.23h1.81l.21-2.55H45.88Z"/><path class="cls-21" d="M50.67,43.23h1.81l.21-2.55H50.87Z"/><path class="cls-21" d="M55.66,43.23h1.81l.2-2.55H55.86Z"/><path class="cls-21" d="M60.65,43.23h1.82l.2-2.55H60.85Z"/><path class="cls-21" d="M65.64,43.23h1.82l.2-2.55H65.84Z"/><path class="cls-21" d="M70.63,43.23h1.82l.2-2.55H70.83Z"/><path class="cls-21" d="M40.23,49.08H42l.2-2.55H40.43Z"/><path class="cls-21" d="M45.22,49.08H47l.2-2.55H45.42Z"/><path class="cls-21" d="M50.21,49.08H52l.2-2.55H50.41Z"/><path class="cls-21" d="M60.19,49.08H62l.2-2.55H60.39Z"/><g class="cls-22"><path class="cls-18" d="M44.81,49a.65.65,0,0,0,0,.24.67.67,0,0,0,.09.21.43.43,0,0,0,.16.14.29.29,0,0,0,.18,0H46.9a.48.48,0,0,0,.36-.19.79.79,0,0,0,.18-.45l.2-2.42a.69.69,0,0,0,0-.25.78.78,0,0,0-.09-.21.43.43,0,0,0-.16-.14.37.37,0,0,0-.18,0H45.55a.56.56,0,0,0-.36.19.79.79,0,0,0-.18.46Z"/></g><path class="cls-21" d="M55.2,49.08H57l.2-2.55H55.4Z"/><path class="cls-21" d="M65.18,49.08H67l.2-2.55H65.38Z"/><path class="cls-21" d="M70.17,49.08H72l.2-2.55H70.37Z"/><path class="cls-21" d="M39.76,54.94h1.81l.21-2.55H40Z"/><path class="cls-21" d="M44.75,54.94h1.82l.2-2.55H45Z"/><path class="cls-21" d="M49.74,54.94h1.81l.21-2.55H50Z"/><path class="cls-21" d="M54.73,54.94h1.82l.2-2.55H54.94Z"/><path class="cls-21" d="M59.72,54.94h1.82l.2-2.55H59.93Z"/><path class="cls-21" d="M64.72,54.94h1.81l.2-2.55H64.92Z"/><path class="cls-21" d="M69.71,54.94h1.81l.2-2.55H69.91Z"/><path class="cls-21" d="M39.3,60.79h1.81l.2-2.55H39.5Z"/><path class="cls-21" d="M44.29,60.79H46.1l.2-2.55H44.49Z"/><path class="cls-21" d="M49.28,60.79h1.81l.2-2.55H49.48Z"/><path class="cls-21" d="M54.27,60.79h1.81l.21-2.55H54.47Z"/><path class="cls-21" d="M59.26,60.79h1.81l.21-2.55H59.46Z"/><path class="cls-7" d="M62.4,70.13H45c-1.18,0-2.24,1.38-2.36,3.05s.7,3,1.88,3H61.92c1.2,0,2.28-1.37,2.42-3S63.6,70.13,62.4,70.13Z"/><g class="cls-22"><path class="cls-18" d="M45.58,73.7a1,1,0,0,0,0,.24.67.67,0,0,0,.09.21.52.52,0,0,0,.16.14.41.41,0,0,0,.18,0h9a.54.54,0,0,0,.37-.19.86.86,0,0,0,.18-.45l.08-1a.63.63,0,0,0,0-.24.85.85,0,0,0-.09-.22.4.4,0,0,0-.15-.14.31.31,0,0,0-.19,0h-9a.5.5,0,0,0-.36.18.79.79,0,0,0-.18.46Z"/></g><path class="cls-7" d="M34.61,95.13a.65.65,0,0,0,0,.24.5.5,0,0,0,.09.21.4.4,0,0,0,.15.14.41.41,0,0,0,.19,0h4.3a.52.52,0,0,0,.37-.19.86.86,0,0,0,.18-.45l.93-11.7a.65.65,0,0,0,0-.24.67.67,0,0,0-.09-.21.43.43,0,0,0-.16-.14.29.29,0,0,0-.18,0H36.08a.48.48,0,0,0-.36.19.87.87,0,0,0-.19.45Z"/><path class="cls-17" d="M69.41,90.32a.56.56,0,0,1-.1.29.36.36,0,0,1-.23.14.28.28,0,0,1-.12,0,.22.22,0,0,1-.09-.1.31.31,0,0,1-.06-.13.43.43,0,0,1,0-.16.51.51,0,0,1,.1-.3.36.36,0,0,1,.24-.13.21.21,0,0,1,.11,0,.22.22,0,0,1,.09.1.29.29,0,0,1,.05.13A.86.86,0,0,1,69.41,90.32Z"/><path class="cls-17" d="M69.52,89a.57.57,0,0,1-.11.29.36.36,0,0,1-.23.14l-.12,0a.47.47,0,0,1-.1-.1.58.58,0,0,1,0-.14.38.38,0,0,1,0-.15.49.49,0,0,1,.1-.3.34.34,0,0,1,.23-.13.19.19,0,0,1,.12,0,.28.28,0,0,1,.1.09.58.58,0,0,1,.05.14A.81.81,0,0,1,69.52,89Z"/><path class="cls-17" d="M69.62,87.6a.51.51,0,0,1-.1.3.36.36,0,0,1-.24.13.21.21,0,0,1-.11,0,.24.24,0,0,1-.1-.1.5.5,0,0,1,0-.13.45.45,0,0,1,0-.16.54.54,0,0,1,.11-.29.33.33,0,0,1,.23-.14.28.28,0,0,1,.12,0,.22.22,0,0,1,.09.1.31.31,0,0,1,.06.13.43.43,0,0,1,0,.16Z"/></g></g></svg>