<svg xmlns="http://www.w3.org/2000/svg" xmlns:xlink="http://www.w3.org/1999/xlink" viewBox="0 0 185 141.99"><defs><style>.cls-1{fill:none;}.cls-2{clip-path:url(#clip-path);}.cls-3{fill:#ebebeb;}.cls-4{fill:#f5f5f5;}.cls-5{fill:#fbfbfc;}.cls-6{fill:#f0f0f0;}.cls-11,.cls-14,.cls-15,.cls-16,.cls-18,.cls-7,.cls-9{fill:#fff;}.cls-8{fill:#0c756e;}.cls-27,.cls-28,.cls-9{opacity:0.7;}.cls-11,.cls-12,.cls-14,.cls-15,.cls-16,.cls-18,.cls-20,.cls-22,.cls-24,.cls-25,.cls-27,.cls-28,.cls-9{isolation:isolate;}.cls-10,.cls-11,.cls-24{opacity:0.3;}.cls-12,.cls-20,.cls-26{fill:#57bdab;}.cls-12,.cls-15{opacity:0.4;}.cls-13{fill:#273238;}.cls-14,.cls-20{opacity:0.5;}.cls-16{opacity:0.6;}.cls-17,.cls-18,.cls-22{opacity:0.2;}.cls-19{fill:#456fb6;}.cls-21{fill:#f2ae7a;}.cls-22,.cls-24,.cls-25{fill:#040000;}.cls-23{fill:#545451;}.cls-25{opacity:0.1;}.cls-27{fill:#68799e;}.cls-28{fill:#7d7d7d;}.cls-29{fill:#e48640;}</style><clipPath id="clip-path" transform="translate(0 -0.02)"><rect class="cls-1" width="185" height="142"/></clipPath></defs><title>slide3</title><g id="图层_2" data-name="图层 2"><g id="Layer_1" data-name="Layer 1"><g class="cls-2"><path class="cls-3" d="M166.46,127.42H154.21v.09h12.25Z" transform="translate(0 -0.02)"/><path class="cls-3" d="M122.55,128.43h-3.21v.09h3.21Z" transform="translate(0 -0.02)"/><path class="cls-3" d="M153.84,124h-7.1v.09h7.1Z" transform="translate(0 -0.02)"/><path class="cls-3" d="M35.39,124.6h-16v.09h16Z" transform="translate(0 -0.02)"/><path class="cls-3" d="M41,124.6H38.69v.09H41Z" transform="translate(0 -0.02)"/><path class="cls-3" d="M83.31,126.17H48.64v.09H83.31Z" transform="translate(0 -0.02)"/><path class="cls-3" d="M87.69,104.91H16.25a2.08,2.08,0,0,1-1.49-.62,2.12,2.12,0,0,1-.62-1.5V2.12A2.1,2.1,0,0,1,16.25,0H87.69a2.08,2.08,0,0,1,1.49.62,2.1,2.1,0,0,1,.62,1.5V102.79a2.12,2.12,0,0,1-.62,1.5,2.08,2.08,0,0,1-1.49.62ZM16.25.09a2,2,0,0,0-2,2V102.79a2,2,0,0,0,2,2H87.69a2,2,0,0,0,2-2V2.12a2,2,0,0,0-2-2Z" transform="translate(0 -0.02)"/><path class="cls-3" d="M167.73,104.91H96.28a2.1,2.1,0,0,1-2.11-2.12V2.12A2.1,2.1,0,0,1,96.28,0h71.45a2.12,2.12,0,0,1,1.48.61,2.18,2.18,0,0,1,.62,1.49V102.79a2.12,2.12,0,0,1-2.1,2.12ZM96.28.09a2,2,0,0,0-2,2V102.79a2,2,0,0,0,2,2h71.45a2,2,0,0,0,2-2V2.12a2,2,0,0,0-2-2Z" transform="translate(0 -0.02)"/><path class="cls-3" d="M185,121.45H0v.09H185Z" transform="translate(0 -0.02)"/><path class="cls-4" d="M66.55,52.15H82.37V32.64H66.55Z" transform="translate(0 -0.02)"/><path class="cls-3" d="M68.81,49.36h11.3V35.42H68.81Z" transform="translate(0 -0.02)"/><path class="cls-4" d="M48.89,52.29H64.7V41H48.89Z" transform="translate(0 -0.02)"/><path class="cls-5" d="M50.09,51.11H63.5V42.19H50.09Z" transform="translate(0 -0.02)"/><path class="cls-4" d="M67.55,53.71H53.87v9.75H67.55Z" transform="translate(0 -0.02)"/><path class="cls-5" d="M65.07,55.69H56.36v5.79h8.71Z" transform="translate(0 -0.02)"/><path class="cls-4" d="M28.55,36.21H27.07v85.32h1.48Z" transform="translate(0 -0.02)"/><path class="cls-4" d="M22.57,26.07a1.74,1.74,0,0,0-.36-1.26,1.81,1.81,0,0,0-1.12-.66,1.74,1.74,0,0,0-1.27.3,1.77,1.77,0,0,0-.72,1.09q-1.83,9.59-3.65,19.16c-.17.91.81,1.85,2.22,2.09s2.62-.42,2.72-1.34Q21.46,35.76,22.57,26.07Z" transform="translate(0 -0.02)"/><path class="cls-5" d="M26.06,26.35a1.79,1.79,0,0,0-.47-1.2A1.76,1.76,0,0,0,23.2,25a1.83,1.83,0,0,0-.64,1.12q-1.11,9.69-2.19,19.38c-.11.92.95,1.81,2.35,1.91s2.59-.61,2.59-1.54Z" transform="translate(0 -0.02)"/><path class="cls-4" d="M29.56,26.35a1.74,1.74,0,0,0-1.75-1.67,1.76,1.76,0,0,0-1.21.48,1.74,1.74,0,0,0-.54,1.19l-.74,19.49c0,.93,1.08,1.73,2.49,1.73s2.51-.8,2.48-1.73Z" transform="translate(0 -0.02)"/><path class="cls-5" d="M33.06,26.07A1.74,1.74,0,0,0,32.42,25a1.77,1.77,0,0,0-1.23-.38,1.73,1.73,0,0,0-1.16.56,1.79,1.79,0,0,0-.47,1.2l.74,19.49c0,.93,1.21,1.65,2.61,1.54s2.45-1,2.35-1.91Q34.15,35.76,33.06,26.07Z" transform="translate(0 -0.02)"/><path class="cls-4" d="M36.53,25.54a1.76,1.76,0,0,0-2-1.36,1.79,1.79,0,0,0-1.12.65,1.78,1.78,0,0,0-.37,1.24q1.11,9.69,2.19,19.38c.11.92,1.33,1.55,2.72,1.34s2.38-1.18,2.22-2.09Z" transform="translate(0 -0.02)"/><path class="cls-3" d="M38.68,121.63a2.11,2.11,0,0,0-2.14-2.32H19.08A2.1,2.1,0,0,0,17,121.63Z" transform="translate(0 -0.02)"/><path class="cls-6" d="M150.29,100.33c-.2-.37.11-.83-.09-1.18s-.74-.32-1-.69.14-1-.15-1.46c-.17-.3-.66-.13-.87-.43s.12-.74-.11-1-.59-.17-.85-.48,0-1.36,0-1.36,1-.25,1.36.2.06.66.31,1,.74.09,1,.44-.08.72.14,1c.37.47,1,.25,1.32.79s0,.88.18,1.25.76.37,1,.78,0,.78.14,1.11.63.41.8.8-.13.83,0,1.21.67.46.83.89-.23.87-.11,1.3.56.45.67.83a1.27,1.27,0,0,1,.07.48,1.31,1.31,0,0,1-.12.47,1.57,1.57,0,0,1-.3.38,1.1,1.1,0,0,1-.42.24,1.24,1.24,0,0,1-1.44-.92c-.11-.35.21-.68.09-1s-.7-.46-.86-.88.19-.79,0-1.15-.66-.41-.83-.79.08-.74-.07-1.06S150.48,100.67,150.29,100.33Z" transform="translate(0 -0.02)"/><path class="cls-7" d="M152.6,103.82c.23.09.46.18.69.29-.25-.72-.52-1.42-.82-2.11s-.56-1.23-.87-1.83l-.82-.22c-.06,0,0-.11,0-.1l.74.19c-.29-.58-.6-1.14-.94-1.69s-.77-1.25-1.19-1.86c-.18-.26-.37-.53-.57-.79-.33-.45-.67-.89-1-1.32,0,0,0-.12.08-.07.54.66,1.06,1.34,1.55,2l.15-.74,0,0h0s0,0,0,0,0,0,0,0c-.06.28-.11.57-.18.84.39.57.77,1.15,1.11,1.74.07-.24.14-.48.21-.74l0,0h0l0,0s0,0,0,0c-.07.28-.15.55-.23.83.34.58.67,1.17,1,1.78s.57,1.16.83,1.75c.1-.23.2-.46.29-.69l0,0h.05l0,0v0c-.11.26-.22.53-.34.79.31.72.59,1.45.85,2.19l.07.19c.18.53.34,1.07.5,1.61v0h-.09v0c-.16-.6-.35-1.19-.55-1.77q-.39-.18-.78-.33A0,0,0,1,1,152.6,103.82Z" transform="translate(0 -0.02)"/><path class="cls-4" d="M151.45,94.91c-.23-.69.41-1.34.18-2s-1.14-.73-1.41-1.41c-.37-.92.51-1.55.18-2.45-.2-.55-1.05-.41-1.32-1s.41-1.18.12-1.75-.93-.45-1.26-1c-.44-.79.47-2.22.47-2.22s1.72-.12,2.19.74c.35.62-.08,1.11.22,1.69s1.2.37,1.51,1-.34,1.17-.06,1.7c.48.88,1.55.69,1.95,1.69.3.74-.32,1.42-.07,2.1s1.16.82,1.4,1.57-.28,1.27-.1,1.89.92.86,1.09,1.54-.46,1.33-.31,2,1,1,1.11,1.71-.62,1.36-.55,2.12c.07.6.78.89.86,1.55a2,2,0,0,1-1.71,2.37,2.09,2.09,0,0,1-1.45-.54,2.11,2.11,0,0,1-.67-1.39c-.07-.61.55-1.06.44-1.63s-1-1-1.16-1.7.53-1.24.39-1.89-1-.86-1.14-1.54.37-1.19.19-1.77S151.64,95.53,151.45,94.91Z" transform="translate(0 -0.02)"/><path class="cls-7" d="M154.23,101.33c.37.22.71.45,1.06.68-.21-1.24-.45-2.48-.74-3.71v0c-.26-1.11-.56-2.19-.89-3.27-.43-.21-.87-.4-1.29-.59a.09.09,0,0,1,.07-.17c.37.17.77.34,1.14.52-.32-1-.67-2.05-1.06-3.06v0c-.43-1.15-.91-2.28-1.42-3.39v0c-.23-.49-.47-1-.71-1.48-.42-.84-.86-1.66-1.32-2.48,0,0,0,0,0,0v0a0,0,0,0,1,0,0l0,0h.07l0,0,0,0c.71,1.24,1.36,2.5,2,3.8.16-.39.31-.78.47-1.18,0,0,0,0,0,0a.09.09,0,0,1,.07,0,.1.1,0,0,1,.05,0,.15.15,0,0,1,0,.07c-.18.44-.35.89-.54,1.33.49,1,.94,2.12,1.36,3.2.18-.37.37-.74.54-1.14a.07.07,0,0,1,0,0,.09.09,0,0,1,.07,0,.07.07,0,0,1,0,0,.13.13,0,0,1,0,.06c-.21.44-.41.87-.63,1.3.4,1.06.77,2.13,1.11,3.22v0c.31,1,.58,2.09.83,3.15l.69-1.06a.09.09,0,0,1,.15.1q-.37.61-.78,1.2c.3,1.28.56,2.57.77,3.87v0c0,.11,0,.22,0,.32.14.93.26,1.86.37,2.8a.09.09,0,0,1,0,.07.08.08,0,0,1-.06,0l-.06,0a.09.09,0,0,1,0-.07c-.1-1-.23-2-.4-3.08l-1.19-.77C154,101.42,154.13,101.28,154.23,101.33Z" transform="translate(0 -0.02)"/><path class="cls-6" d="M160,94.26c.1-.74-.64-1.24-.52-1.92s1-.91,1.15-1.62c.2-1-.77-1.45-.6-2.39.1-.57,1-.59,1.13-1.18s-.62-1.12-.43-1.71.84-.6,1.07-1.23c.3-.87-.85-2.11-.85-2.11s-1.72.17-2,1.09c-.23.67.29,1.07.09,1.7s-1.11.57-1.32,1.26.54,1.11.37,1.66c-.32,1-1.4,1-1.63,2-.16.78.56,1.35.43,2.07s-1,1-1.11,1.78.5,1.21.43,1.86-.74,1-.81,1.7.68,1.24.65,1.93-.8,1.12-.8,1.88.85,1.23.9,2c.05.6-.61,1-.57,1.68a2,2,0,0,0,2.1,2,2.06,2.06,0,0,0,1.32-.78,2.09,2.09,0,0,0,.43-1.49c0-.61-.74-.95-.72-1.52s.85-1.11.86-1.88-.74-1.12-.74-1.79.81-1,.86-1.72-.56-1.12-.5-1.71S159.86,94.9,160,94.26Z" transform="translate(0 -0.02)"/><path class="cls-7" d="M158.31,101.07c-.3.28-.62.56-.92.85,0-1.26,0-2.52.09-3.78a0,0,0,0,0,0,0c.07-1.13.18-2.25.32-3.38.37-.27.77-.54,1.16-.8a.09.09,0,0,0-.1-.15c-.35.23-.69.47-1,.71.14-1.07.31-2.14.51-3.2v0c.23-1.2.51-2.4.82-3.58v0c.14-.53.29-1.06.45-1.58.27-.9.56-1.79.88-2.67,0,0,0,0,0,0s0,0,0,0,0,0,0,0l0,0h-.07s0,0,0,0l0,0c-.48,1.34-.91,2.7-1.28,4.08-.22-.37-.44-.72-.66-1.08a.05.05,0,0,0,0,0h-.07a.1.1,0,0,0,0,0,.17.17,0,0,0,0,.07c.24.41.49.82.74,1.22-.3,1.11-.56,2.25-.78,3.38-.25-.34-.5-.68-.74-1l0,0,0,0h-.07s0,0,0,0l0,0v0s0,0,0,0c.27.39.55.78.83,1.16-.21,1.12-.39,2.24-.53,3.37v0c-.14,1.08-.24,2.16-.31,3.24-.29-.31-.58-.61-.86-.93a.07.07,0,0,0-.06,0,.09.09,0,0,0-.07,0,.07.07,0,0,0,0,.06.11.11,0,0,0,0,.07c.32.37.65.7,1,1-.08,1.31-.11,2.62-.09,3.94a0,0,0,0,0,0,0v.33c0,.94.06,1.88.13,2.81a.09.09,0,0,0,0,.07l.06,0,.06,0a.09.09,0,0,0,0-.07c-.08-1-.12-2.06-.14-3.1.35-.33.69-.65,1-1C158.52,101.12,158.4,101,158.31,101.07Z" transform="translate(0 -0.02)"/><path class="cls-4" d="M163.29,98.76c.32-.47,0-1.11.3-1.54s1-.3,1.37-.74c.49-.62,0-1.29.4-1.9.27-.37.88-.08,1.21-.44s-.06-1,.29-1.36.8-.13,1.18-.5.13-1.79.13-1.79-1.27-.47-1.82.07c-.4.39-.17.85-.53,1.23s-1,0-1.37.43,0,1-.32,1.3c-.55.56-1.33.19-1.85.86-.37.49-.07,1.15-.41,1.61s-1.05.37-1.4.88-.07,1-.33,1.45-.89.45-1.17.93.06,1.11-.2,1.59-1,.51-1.22,1,.18,1.17,0,1.72-.79.51-1,1a1.46,1.46,0,0,0-.16.62,1.69,1.69,0,0,0,.09.63,1.72,1.72,0,0,0,.33.55,1.9,1.9,0,0,0,.52.37,1.69,1.69,0,0,0,1.21-.09,1.61,1.61,0,0,0,.81-.91c.19-.45-.18-.92,0-1.33s1-.5,1.26-1-.14-1.06.11-1.52.92-.44,1.2-.92,0-1,.24-1.38S163,99.18,163.29,98.76Z" transform="translate(0 -0.02)"/><path class="cls-7" d="M159.78,103l-.94.29c.42-.9.88-1.78,1.37-2.65v0c.44-.77.9-1.54,1.39-2.28l1.11-.17c.09,0,.06-.15,0-.14-.32,0-.65.09-1,.15.47-.71,1-1.41,1.48-2.09v0c.58-.77,1.19-1.52,1.82-2.25.28-.33.57-.65.86-1,.5-.55,1-1.08,1.54-1.59l0,0V91.2s0,0,0,0,0,0,0,0h0l0,0c-.8.79-1.57,1.6-2.31,2.44q-.06-.5-.09-1s0,0,0,0l0,0-.05,0,0,0c0,.37.07.74.11,1.11-.6.69-1.17,1.4-1.72,2.13-.06-.33-.11-.66-.16-1,0,0,0,0,0,0h-.05l0,0a.13.13,0,0,0,0,.06c.05.37.12.74.19,1.11-.54.71-1,1.45-1.55,2.19v0c-.46.72-.91,1.45-1.33,2.19-.1-.32-.2-.64-.29-1,0-.08-.17,0-.14,0,.11.37.22.74.33,1.08-.51.91-1,1.83-1.43,2.77v0l-.11.23c-.31.68-.6,1.36-.87,2.05a0,0,0,0,0,0,0v0s0,0,0,0l0,0h.06l0,0,0,0c.3-.76.62-1.51,1-2.25l1.07-.32C159.91,103.13,159.87,103,159.78,103Z" transform="translate(0 -0.02)"/><path class="cls-6" d="M151.47,104.61h9.69a7.9,7.9,0,0,1,2.78,6c0,2.76-2.55,11-2.55,11H151.23s-2.54-8.26-2.54-11a7.89,7.89,0,0,1,.72-3.31,8,8,0,0,1,2.06-2.7Z" transform="translate(0 -0.02)"/><path class="cls-4" d="M90.72,136.77c39.62,0,71.74-1.88,71.74-4.19s-32.12-4.2-71.74-4.2S19,130.26,19,132.58,51.1,136.77,90.72,136.77Z" transform="translate(0 -0.02)"/><path class="cls-8" d="M111,81.76l-11.18-8.5,13.34-16.35Z" transform="translate(0 -0.02)"/><path class="cls-9" d="M113.12,56.91,111,81.76l-11.18-8.5Z" transform="translate(0 -0.02)"/><path class="cls-8" d="M139,12.88h5.8c.29,0,.33-.45,0-.45H139C138.71,12.43,138.68,12.88,139,12.88Z" transform="translate(0 -0.02)"/><path class="cls-8" d="M146.89,12.88h1.66c.29,0,.33-.45,0-.45h-1.67C146.64,12.43,146.6,12.88,146.89,12.88Z" transform="translate(0 -0.02)"/><g class="cls-10"><path class="cls-11" d="M139,12.88h5.8c.29,0,.33-.45,0-.45H139C138.71,12.43,138.68,12.88,139,12.88Z" transform="translate(0 -0.02)"/></g><g class="cls-10"><path class="cls-11" d="M146.89,12.88h1.66c.29,0,.33-.45,0-.45h-1.67C146.64,12.43,146.6,12.88,146.89,12.88Z" transform="translate(0 -0.02)"/></g><path class="cls-8" d="M156.88,94.13a2.53,2.53,0,0,1-.81,1.62,2.56,2.56,0,0,1-1.68.67H108.71a1.88,1.88,0,0,1-.85-.17,2.08,2.08,0,0,1-.71-.5,2,2,0,0,1-.44-.75,2.14,2.14,0,0,1-.09-.87l7.06-80.83a2.51,2.51,0,0,1,.81-1.62,2.56,2.56,0,0,1,1.69-.67h45.7a1.93,1.93,0,0,1,.85.17,2.14,2.14,0,0,1,.7.5,2,2,0,0,1,.44.75,2.14,2.14,0,0,1,.09.87Z" transform="translate(0 -0.02)"/><path class="cls-9" d="M156.88,94.13a2.53,2.53,0,0,1-.81,1.62,2.56,2.56,0,0,1-1.68.67H108.71a1.88,1.88,0,0,1-.85-.17,2.08,2.08,0,0,1-.71-.5,2,2,0,0,1-.44-.75,2.14,2.14,0,0,1-.09-.87l7.06-80.83a2.51,2.51,0,0,1,.81-1.62,2.56,2.56,0,0,1,1.69-.67h45.7a1.93,1.93,0,0,1,.85.17,2.14,2.14,0,0,1,.7.5,2,2,0,0,1,.44.75,2.14,2.14,0,0,1,.09.87Z" transform="translate(0 -0.02)"/><path class="cls-8" d="M156.88,94.13a2.53,2.53,0,0,1-.81,1.62,2.56,2.56,0,0,1-1.68.67H108.71a1.88,1.88,0,0,1-.85-.17,2.08,2.08,0,0,1-.71-.5,2,2,0,0,1-.44-.75,2.14,2.14,0,0,1-.09-.87l7.06-80.83a2.51,2.51,0,0,1,.81-1.62,2.56,2.56,0,0,1,1.69-.67h45.7a1.93,1.93,0,0,1,.85.17,2.14,2.14,0,0,1,.7.5,2,2,0,0,1,.44.75,2.14,2.14,0,0,1,.09.87Z" transform="translate(0 -0.02)"/><path class="cls-9" d="M156.88,94.13a2.53,2.53,0,0,1-.81,1.62,2.56,2.56,0,0,1-1.68.67H108.71a1.88,1.88,0,0,1-.85-.17,2.08,2.08,0,0,1-.71-.5,2,2,0,0,1-.44-.75,2.14,2.14,0,0,1-.09-.87l7.06-80.83a2.51,2.51,0,0,1,.81-1.62,2.56,2.56,0,0,1,1.69-.67h45.7a1.93,1.93,0,0,1,.85.17,2.14,2.14,0,0,1,.7.5,2,2,0,0,1,.44.75,2.14,2.14,0,0,1,.09.87Z" transform="translate(0 -0.02)"/><path class="cls-8" d="M162.77,11h-.91a1.93,1.93,0,0,1,.85.17,2.14,2.14,0,0,1,.7.5,2,2,0,0,1,.44.75,2.14,2.14,0,0,1,.09.87l-7.06,80.83a2.53,2.53,0,0,1-.81,1.62,2.56,2.56,0,0,1-1.68.67h.92a2.54,2.54,0,0,0,2.48-2.29l7.06-80.83a2.1,2.1,0,0,0-.52-1.62,2.08,2.08,0,0,0-.71-.5,1.93,1.93,0,0,0-.85-.17Z" transform="translate(0 -0.02)"/><path class="cls-12" d="M162.77,11h-.91a1.93,1.93,0,0,1,.85.17,2.14,2.14,0,0,1,.7.5,2,2,0,0,1,.44.75,2.14,2.14,0,0,1,.09.87l-7.06,80.83a2.53,2.53,0,0,1-.81,1.62,2.56,2.56,0,0,1-1.68.67h.92a2.54,2.54,0,0,0,2.48-2.29l7.06-80.83a2.1,2.1,0,0,0-.52-1.62,2.08,2.08,0,0,0-.71-.5,1.93,1.93,0,0,0-.85-.17Z" transform="translate(0 -0.02)"/><path class="cls-13" d="M129.23,76c-.23-.08-.37-.14-.35-.3a.5.5,0,0,1,0-.13s.05-.07.09-.09a.24.24,0,0,1,.11-.06h.13a.39.39,0,0,1,.23.07.33.33,0,0,1,.14.19v0l.17-.08v0a.67.67,0,0,0-.23-.27.52.52,0,0,0-.35-.07.58.58,0,0,0-.32.14.53.53,0,0,0-.17.31c0,.3.22.37.48.47s.37.15.37.32-.17.28-.4.28a.32.32,0,0,1-.27-.06.37.37,0,0,1-.16-.24v0l-.16.09v0a.58.58,0,0,0,.22.31.56.56,0,0,0,.36.09.6.6,0,0,0,.39-.11.58.58,0,0,0,.21-.36C129.76,76.19,129.5,76.09,129.23,76Z" transform="translate(0 -0.02)"/><path class="cls-13" d="M130.65,75.71a.57.57,0,0,0-.22,0,.43.43,0,0,0-.17.13v-.15h-.18l-.1,1.2h.17l0-.63a.45.45,0,0,1,0-.16.42.42,0,0,1,.09-.14.38.38,0,0,1,.13-.09.45.45,0,0,1,.16,0,.29.29,0,0,1,.13,0,.31.31,0,0,1,.09.07.24.24,0,0,1,.06.11.24.24,0,0,1,0,.12l-.06.75H131l.07-.75a.37.37,0,0,0,0-.18.48.48,0,0,0-.08-.16.42.42,0,0,0-.15-.11.57.57,0,0,0-.18,0Z" transform="translate(0 -0.02)"/><path class="cls-13" d="M132,75.71a.69.69,0,0,0-.47.18.7.7,0,0,0-.19.68.55.55,0,0,0,.12.21.56.56,0,0,0,.2.14.64.64,0,0,0,.24,0,.63.63,0,0,0,.3-.07.68.68,0,0,0,.24-.2l0,0-.15-.09v0a.5.5,0,0,1-.17.15.38.38,0,0,1-.21,0,.38.38,0,0,1-.29-.1.35.35,0,0,1-.13-.27h1v-.08a.65.65,0,0,0,0-.24.56.56,0,0,0-.11-.2.62.62,0,0,0-.19-.14A.48.48,0,0,0,132,75.71Zm0,.17a.37.37,0,0,1,.26.1.39.39,0,0,1,.11.27h-.86a.55.55,0,0,1,.17-.27.42.42,0,0,1,.3-.1Z" transform="translate(0 -0.02)"/><path class="cls-13" d="M133.88,75.92a.49.49,0,0,0-.19-.16.53.53,0,0,0-.25-.05.67.67,0,0,0-.46.18.66.66,0,0,0-.21.44.49.49,0,0,0,0,.24.47.47,0,0,0,.31.34.46.46,0,0,0,.23,0,.58.58,0,0,0,.26-.06.6.6,0,0,0,.22-.16v.19H134l.1-1.2h-.18Zm-.52.88a.39.39,0,0,1-.18,0,.45.45,0,0,1-.14-.1.38.38,0,0,1-.09-.15.5.5,0,0,1,0-.17.52.52,0,0,1,.16-.33.51.51,0,0,1,.33-.13.47.47,0,0,1,.17,0,.3.3,0,0,1,.14.1.6.6,0,0,1,.09.15.55.55,0,0,1,0,.18.49.49,0,0,1-.16.32.52.52,0,0,1-.33.14Z" transform="translate(0 -0.02)"/><path class="cls-13" d="M135.39,75.73h-.24l-.58.49.08-1h-.17l-.14,1.66h.17l0-.52.52.52h.24l-.61-.62Z" transform="translate(0 -0.02)"/><path class="cls-13" d="M136.07,75.71a.65.65,0,0,0-.46.18.63.63,0,0,0-.22.44.65.65,0,0,0,0,.24.72.72,0,0,0,.12.21.56.56,0,0,0,.2.14.64.64,0,0,0,.24,0,.63.63,0,0,0,.3-.07.68.68,0,0,0,.24-.2v0l-.14-.09v0a.52.52,0,0,1-.16.14.54.54,0,0,1-.21.05.29.29,0,0,1-.16,0,.26.26,0,0,1-.13-.08.4.4,0,0,1-.1-.12.83.83,0,0,1,0-.15h1v-.08a.87.87,0,0,0,0-.23.7.7,0,0,0-.11-.21.52.52,0,0,0-.19-.14.54.54,0,0,0-.22-.05Zm0,.17a.37.37,0,0,1,.26.1.39.39,0,0,1,.11.27h-.86a.55.55,0,0,1,.17-.27.42.42,0,0,1,.3-.1Z" transform="translate(0 -0.02)"/><path class="cls-13" d="M137.1,75.88v-.15h-.17l-.1,1.2H137l.06-.66a.4.4,0,0,1,0-.15.23.23,0,0,1,.08-.12.57.57,0,0,1,.13-.08.32.32,0,0,1,.14,0h0v-.17h0a.39.39,0,0,0-.18,0A.42.42,0,0,0,137.1,75.88Z" transform="translate(0 -0.02)"/><path class="cls-13" d="M138.09,76.25c-.17,0-.28-.08-.27-.19s.14-.18.26-.18a.22.22,0,0,1,.16,0,.29.29,0,0,1,.1.12v0l.15-.08v0a.42.42,0,0,0-.16-.19.37.37,0,0,0-.23-.05.44.44,0,0,0-.3.08.43.43,0,0,0-.16.26c0,.24.19.3.37.35s.28.08.27.2-.16.18-.28.18-.27-.06-.29-.18v0l-.16.09v0a.39.39,0,0,0,.17.21A.43.43,0,0,0,138,77a.46.46,0,0,0,.3-.08.42.42,0,0,0,.16-.27C138.49,76.36,138.28,76.3,138.09,76.25Z" transform="translate(0 -0.02)"/><path class="cls-13" d="M129.77,81.35l0,.32h-.24l0-.32a.9.9,0,0,1-.5-.16.87.87,0,0,1-.3-.43l.53-.3a.45.45,0,0,0,.12.21.35.35,0,0,0,.2.1l0-.5,0,0c-.31-.13-.67-.31-.63-.8a.85.85,0,0,1,.27-.53.83.83,0,0,1,.54-.21l0-.32H130l0,.32a.75.75,0,0,1,.41.17.78.78,0,0,1,.26.36l-.52.29a.27.27,0,0,0-.07-.14.24.24,0,0,0-.13-.09l-.05.49c.31.14.74.25.68.79a.85.85,0,0,1-.27.54.88.88,0,0,1-.56.23Zm-.11-1.7,0-.37a.21.21,0,0,0-.18.18C129.5,79.52,129.54,79.58,129.66,79.65Zm.34.92c0-.09,0-.14-.15-.2l0,.39a.17.17,0,0,0,.12-.06.26.26,0,0,0,.06-.13Z" transform="translate(0 -0.02)"/><path class="cls-13" d="M133.13,78.74l-.22,2.56h-.59l.17-2-.46.13-.1-.5.69-.24Z" transform="translate(0 -0.02)"/><path class="cls-13" d="M133.37,80.88l.94-.9a.77.77,0,0,0,.3-.45.2.2,0,0,0,0-.11.12.12,0,0,0,0-.09.16.16,0,0,0-.08-.06l-.11,0a.5.5,0,0,0-.24.09.38.38,0,0,0-.16.19l-.47-.29a1.07,1.07,0,0,1,.38-.41,1,1,0,0,1,.53-.15.7.7,0,0,1,.32,0,1,1,0,0,1,.27.17.81.81,0,0,1,.17.28.69.69,0,0,1,0,.32,1.25,1.25,0,0,1-.47.8l-.46.43h.86l0,.57h-1.74Z" transform="translate(0 -0.02)"/><path class="cls-13" d="M135.53,80c.07-.79.5-1.33,1.16-1.33s1,.54.93,1.33-.5,1.33-1.16,1.33S135.46,80.81,135.53,80Zm1.5,0c0-.49-.08-.76-.39-.76s-.48.27-.52.76.08.76.39.76S137,80.5,137,80Z" transform="translate(0 -0.02)"/><path class="cls-13" d="M132,21.33a.88.88,0,0,1-.27.55.89.89,0,0,1-.58.22h-.34l0,.71h-.52l.2-2.23h.85a.87.87,0,0,1,.28.05.53.53,0,0,1,.24.17.78.78,0,0,1,.16.24.72.72,0,0,1,0,.29Zm-.51,0a.2.2,0,0,0,0-.11.41.41,0,0,0-.05-.09.24.24,0,0,0-.09-.06.12.12,0,0,0-.1,0h-.34l-.05.57h.34a.27.27,0,0,0,.2-.09.25.25,0,0,0,.09-.2Z" transform="translate(0 -0.02)"/><path class="cls-13" d="M133.36,22.45h-.83l-.14.38h-.57l1-2.23h.66l.56,2.23h-.56Zm-.11-.48-.2-.82-.33.82Z" transform="translate(0 -0.02)"/><path class="cls-13" d="M135.21,22l-.07.86h-.52l.08-.86-.63-1.39h.58l.35.87.51-.87h.58Z" transform="translate(0 -0.02)"/><path class="cls-13" d="M138.4,22.81h-.52L138,21.5l-.66.95h-.07l-.5-.95-.11,1.31h-.5l.2-2.23h.51l.52,1,.69-1h.52Z" transform="translate(0 -0.02)"/><path class="cls-13" d="M140.35,22.31l0,.5h-1.4l.19-2.23h1.4l-.05.49h-.88l0,.38h.8l0,.49h-.8l0,.39Z" transform="translate(0 -0.02)"/><path class="cls-13" d="M142.69,20.56l-.2,2.23h-.37l-.74-1.22-.1,1.22h-.52l.2-2.23h.37l.76,1.22.11-1.22Z" transform="translate(0 -0.02)"/><path class="cls-13" d="M144.6,21.06H144l-.15,1.75h-.52l.16-1.75h-.58l0-.5h1.66Z" transform="translate(0 -0.02)"/><path class="cls-13" d="M144.67,22.3l.46-.26a.46.46,0,0,0,.17.24.45.45,0,0,0,.28.07c.24,0,.31-.09.31-.18s-.11-.19-.43-.29-.64-.25-.6-.68a.78.78,0,0,1,.27-.5.75.75,0,0,1,.54-.18.77.77,0,0,1,.47.12.82.82,0,0,1,.31.38l-.46.26a.3.3,0,0,0-.14-.19.39.39,0,0,0-.23-.07c-.16,0-.24.08-.25.17s0,.17.37.28.69.22.65.69a.94.94,0,0,1-.3.48,1,1,0,0,1-.52.21.92.92,0,0,1-.54-.13,1,1,0,0,1-.38-.42Z" transform="translate(0 -0.02)"/><path class="cls-8" d="M137.67,15.75v-.17a.37.37,0,0,0,0-.11.21.21,0,0,0-.06-.1.15.15,0,0,0-.09-.06.14.14,0,0,0-.11,0h-2.69a.32.32,0,0,0-.21.08.3.3,0,0,0-.1.21v.17Z" transform="translate(0 -0.02)"/><path class="cls-8" d="M134.37,16.09l-.11,1.27a.14.14,0,0,0,0,.11.21.21,0,0,0,.14.16l.11,0h2.69a.35.35,0,0,0,.22-.08.41.41,0,0,0,.1-.21l.11-1.27Z" transform="translate(0 -0.02)"/><path class="cls-8" d="M143.09,17.65c-2,.85-2.79-.85-4.77,0l.2-2.36c2-.86,2.79.85,4.77,0Z" transform="translate(0 -0.02)"/><path class="cls-7" d="M141.5,16.47a.76.76,0,0,1-.24.49.8.8,0,0,1-.52.21.75.75,0,0,1-.26-.05.69.69,0,0,1-.22-.16.58.58,0,0,1-.13-.23.57.57,0,0,1,0-.26.8.8,0,0,1,.25-.5.77.77,0,0,1,.52-.2.6.6,0,0,1,.26.05.8.8,0,0,1,.21.15.79.79,0,0,1,.14.23.82.82,0,0,1,0,.27Z" transform="translate(0 -0.02)"/><path class="cls-7" d="M158.69,34.25a2.53,2.53,0,0,1-.81,1.62,2.6,2.6,0,0,1-1.67.68h-38.4a2.26,2.26,0,0,1-.85-.17,2.11,2.11,0,0,1-.71-.51,2,2,0,0,1-.43-.75,2,2,0,0,1-.1-.87l.21-2.36a2.6,2.6,0,0,1,.81-1.62,2.54,2.54,0,0,1,1.68-.67h38.39a2.22,2.22,0,0,1,.85.17,2.11,2.11,0,0,1,.71.51,2.15,2.15,0,0,1,.53,1.61Z" transform="translate(0 -0.02)"/><path class="cls-7" d="M157.45,48.53A2.59,2.59,0,0,1,155,50.82H116.55a2.26,2.26,0,0,1-.85-.17,2.11,2.11,0,0,1-.71-.51,2.15,2.15,0,0,1-.53-1.61l.21-2.37a2.57,2.57,0,0,1,2.49-2.29h38.41a2.26,2.26,0,0,1,.85.17,2.07,2.07,0,0,1,.7.51,2,2,0,0,1,.44.75,2.09,2.09,0,0,1,.09.86Z" transform="translate(0 -0.02)"/><path class="cls-7" d="M156.43,60.2a2.57,2.57,0,0,1-2.49,2.29H115.55a2.19,2.19,0,0,1-.85-.17,2.11,2.11,0,0,1-.71-.51,2,2,0,0,1-.44-.75,2.09,2.09,0,0,1-.09-.86l.21-2.37a2.53,2.53,0,0,1,.81-1.61,2.58,2.58,0,0,1,1.67-.68h38.4a2.26,2.26,0,0,1,.85.17,2.11,2.11,0,0,1,.71.51,2.16,2.16,0,0,1,.43.75,2.09,2.09,0,0,1,.09.86Z" transform="translate(0 -0.02)"/><path class="cls-13" d="M116.78,26.83h.88l0-.19h-.88l.06-.69h1v-.19h-1.14l-.18,2h1.16l0-.2h-1Z" transform="translate(0 -0.02)"/><path class="cls-13" d="M119.58,26.27a.59.59,0,0,0-.26.07.46.46,0,0,0-.21.18.52.52,0,0,0-.17-.19.5.5,0,0,0-.24-.06.48.48,0,0,0-.24.06.52.52,0,0,0-.19.14V26.3h-.2L118,27.74h.19l.07-.8c0-.35.25-.48.44-.48s.31.14.29.37l-.08.91h.2l.06-.8c0-.3.19-.48.43-.48s.32.14.3.37l-.08.91h.2l.08-.91a.46.46,0,0,0,0-.2.37.37,0,0,0-.09-.19.48.48,0,0,0-.16-.12A.54.54,0,0,0,119.58,26.27Z" transform="translate(0 -0.02)"/><path class="cls-13" d="M121.7,26.55a.58.58,0,0,0-.23-.21.63.63,0,0,0-.3-.07.87.87,0,0,0-.55.22.84.84,0,0,0-.26.53.67.67,0,0,0,0,.28.72.72,0,0,0,.14.24.76.76,0,0,0,.23.17.87.87,0,0,0,.28.05.71.71,0,0,0,.32-.07.75.75,0,0,0,.26-.21l0,.25h.2l.12-1.43h-.19Zm-.63,1a.5.5,0,0,1-.49-.35.5.5,0,0,1,0-.21.55.55,0,0,1,.2-.39.6.6,0,0,1,.4-.17.65.65,0,0,1,.21,0,.52.52,0,0,1,.17.13.4.4,0,0,1,.1.18.38.38,0,0,1,0,.21.58.58,0,0,1-.19.39A.6.6,0,0,1,121.07,27.58Z" transform="translate(0 -0.02)"/><path class="cls-13" d="M122.23,27.74h.19l.12-1.44h-.19Z" transform="translate(0 -0.02)"/><path class="cls-13" d="M122.5,25.76a.12.12,0,0,0-.1,0,.12.12,0,0,0-.05.09V26l0,0,0,0h0a.15.15,0,0,0,.1,0,.14.14,0,0,0,.05-.1v-.05l0,0a.05.05,0,0,0,0,0Z" transform="translate(0 -0.02)"/><path class="cls-13" d="M123,25.67l-.18,2.07h.2l.18-2.07Z" transform="translate(0 -0.02)"/><path class="cls-13" d="M116.16,39.5h-.68l-.18,2h.21l.06-.74h.48a.7.7,0,0,0,.46-.18.72.72,0,0,0,.22-.45.58.58,0,0,0,0-.23.72.72,0,0,0-.12-.21.63.63,0,0,0-.2-.13.45.45,0,0,0-.23,0Zm-.09,1h-.48l.07-.86h.48a.45.45,0,0,1,.16,0,.42.42,0,0,1,.14.09.53.53,0,0,1,.08.15.43.43,0,0,1,0,.16.46.46,0,0,1-.15.31.45.45,0,0,1-.31.12Z" transform="translate(0 -0.02)"/><path class="cls-13" d="M118.2,40.29a.66.66,0,0,0-.23-.21.56.56,0,0,0-.31-.06.83.83,0,0,0-.54.21.84.84,0,0,0-.26.53.67.67,0,0,0,0,.28.58.58,0,0,0,.14.24.66.66,0,0,0,.23.17.86.86,0,0,0,.27,0,.72.72,0,0,0,.33-.07.86.86,0,0,0,.26-.2l0,.24h.19l.13-1.43h-.2Zm-.64,1a.52.52,0,0,1-.21,0,.66.66,0,0,1-.17-.12.55.55,0,0,1-.12-.4.58.58,0,0,1,.19-.39.6.6,0,0,1,.41-.16.34.34,0,0,1,.2,0,.35.35,0,0,1,.17.12.42.42,0,0,1,.11.18.5.5,0,0,1,0,.21.63.63,0,0,1-.19.4.62.62,0,0,1-.41.16Z" transform="translate(0 -0.02)"/><path class="cls-13" d="M119.28,40.67c-.18-.05-.34-.09-.32-.23a.31.31,0,0,1,.11-.16.32.32,0,0,1,.19-.07.43.43,0,0,1,.19,0,.37.37,0,0,1,.13.15v0l.18-.1v0a.53.53,0,0,0-.19-.23.45.45,0,0,0-.28-.06.51.51,0,0,0-.35.11.53.53,0,0,0-.17.32c0,.28.22.35.44.41s.34.09.33.24-.19.23-.34.23a.37.37,0,0,1-.23,0,.31.31,0,0,1-.14-.18v0l-.18.1v0a.51.51,0,0,0,.21.25.48.48,0,0,0,.31.07.5.5,0,0,0,.55-.42C119.75,40.8,119.51,40.73,119.28,40.67Z" transform="translate(0 -0.02)"/><path class="cls-13" d="M120.6,40.67c-.18-.05-.34-.09-.33-.23a.33.33,0,0,1,.12-.16.31.31,0,0,1,.18-.07.38.38,0,0,1,.19,0,.4.4,0,0,1,.14.15v0l.17-.1v0a.43.43,0,0,0-.18-.22.4.4,0,0,0-.28-.07.48.48,0,0,0-.35.1.49.49,0,0,0-.18.32c0,.28.22.35.44.41s.34.09.33.24-.2.23-.35.23a.35.35,0,0,1-.22,0,.34.34,0,0,1-.14-.18v0l-.18.1v0a.55.55,0,0,0,.2.25.58.58,0,0,0,.32.07.54.54,0,0,0,.36-.1.51.51,0,0,0,.19-.32C121.07,40.8,120.82,40.73,120.6,40.67Z" transform="translate(0 -0.02)"/><path class="cls-13" d="M122.67,41.17l-.26-1.12h-.19l-.46,1.12-.24-1.1v0h-.21l.32,1.41v0h.19l.46-1.11.25,1.09v0h.19l.58-1.43h-.21Z" transform="translate(0 -0.02)"/><path class="cls-13" d="M124.22,40a.76.76,0,0,0-.54.21.8.8,0,0,0-.27.53.67.67,0,0,0,0,.28.77.77,0,0,0,.14.25.78.78,0,0,0,.24.16.62.62,0,0,0,.27,0,.84.84,0,0,0,.55-.21.79.79,0,0,0,.26-.53.53.53,0,0,0,0-.28.64.64,0,0,0-.15-.25.63.63,0,0,0-.23-.16A.54.54,0,0,0,124.22,40Zm-.11,1.3a.52.52,0,0,1-.21,0,.66.66,0,0,1-.17-.12.5.5,0,0,1-.1-.19.38.38,0,0,1,0-.21.58.58,0,0,1,.19-.39.62.62,0,0,1,.41-.16.34.34,0,0,1,.2,0,.35.35,0,0,1,.17.12.42.42,0,0,1,.11.18.5.5,0,0,1,0,.21.64.64,0,0,1-.2.4A.59.59,0,0,1,124.11,41.32Z" transform="translate(0 -0.02)"/><path class="cls-13" d="M125.49,40.23v-.18h-.19l-.13,1.43h.2l.06-.8a.58.58,0,0,1,0-.18.65.65,0,0,1,.1-.15.44.44,0,0,1,.16-.1.48.48,0,0,1,.18,0h0l0-.19h0a.45.45,0,0,0-.25,0A.55.55,0,0,0,125.49,40.23Z" transform="translate(0 -0.02)"/><path class="cls-13" d="M127.41,39.5l-.07.8a.58.58,0,0,0-.23-.21.57.57,0,0,0-.31-.07.83.83,0,0,0-.54.21.84.84,0,0,0-.26.53.67.67,0,0,0,0,.28.58.58,0,0,0,.14.24.66.66,0,0,0,.23.17.81.81,0,0,0,.27,0,.72.72,0,0,0,.33-.07.75.75,0,0,0,.26-.21l0,.25h.19l.17-2Zm-.71,1.82a.52.52,0,0,1-.21,0,.66.66,0,0,1-.17-.12.72.72,0,0,1-.11-.19.49.49,0,0,1,0-.21.58.58,0,0,1,.19-.39.59.59,0,0,1,.4-.16.36.36,0,0,1,.21,0,.35.35,0,0,1,.17.12.42.42,0,0,1,.11.18.5.5,0,0,1,0,.21.63.63,0,0,1-.19.4.62.62,0,0,1-.41.16Z" transform="translate(0 -0.02)"/><path class="cls-13" d="M121.2,59.34a.56.56,0,0,1-.25.23.63.63,0,0,1-.33.09.58.58,0,0,1-.26,0,.51.51,0,0,1-.21-.15.61.61,0,0,1-.13-.22.59.59,0,0,1,0-.26.72.72,0,0,1,.24-.49.7.7,0,0,1,.5-.2.59.59,0,0,1,.31.09.52.52,0,0,1,.21.23v0l.17-.09v0a.81.81,0,0,0-.28-.3.79.79,0,0,0-.4-.1.93.93,0,0,0-.63.25.87.87,0,0,0-.3.61.74.74,0,0,0,0,.33.78.78,0,0,0,.16.28.67.67,0,0,0,.28.19.7.7,0,0,0,.32,0,.88.88,0,0,0,.42-.11.89.89,0,0,0,.32-.29v0l-.15-.09Z" transform="translate(0 -0.02)"/><path class="cls-13" d="M122.7,58.8a.52.52,0,0,0-.19-.17.7.7,0,0,0-.25-.05.72.72,0,0,0-.46.18.7.7,0,0,0-.21.45.55.55,0,0,0,.14.44.52.52,0,0,0,.19.14.59.59,0,0,0,.23,0,.66.66,0,0,0,.27-.06.62.62,0,0,0,.21-.15l0,.19h.18l.1-1.2h-.17Zm-.53.86a.36.36,0,0,1-.17,0,.45.45,0,0,1-.14-.1.28.28,0,0,1-.08-.15.33.33,0,0,1,0-.17.52.52,0,0,1,.16-.33.51.51,0,0,1,.33-.13.57.57,0,0,1,.18,0,.71.71,0,0,1,.14.1,1.09,1.09,0,0,1,.08.15.55.55,0,0,1,0,.18.55.55,0,0,1-.16.32A.51.51,0,0,1,122.17,59.66Z" transform="translate(0 -0.02)"/><path class="cls-13" d="M123.42,58.75v-.14h-.17l-.11,1.2h.17l.06-.67a.38.38,0,0,1,.37-.37h0V58.6h0a.47.47,0,0,0-.17,0A.58.58,0,0,0,123.42,58.75Z" transform="translate(0 -0.02)"/><path class="cls-13" d="M125,58.15l-.06.65a.45.45,0,0,0-.19-.17.7.7,0,0,0-.25-.05.72.72,0,0,0-.46.18.7.7,0,0,0-.21.45.55.55,0,0,0,.14.44.45.45,0,0,0,.19.14.59.59,0,0,0,.23,0,.86.86,0,0,0,.27,0,.58.58,0,0,0,.21-.17v.2h.17l.14-1.66Zm-.59,1.51a.34.34,0,0,1-.17,0,.45.45,0,0,1-.14-.1.38.38,0,0,1-.09-.15.49.49,0,0,1,0-.17.52.52,0,0,1,.16-.33.51.51,0,0,1,.33-.13.47.47,0,0,1,.17,0,.4.4,0,0,1,.15.1.47.47,0,0,1,.1.33.49.49,0,0,1-.16.32.47.47,0,0,1-.34.13Z" transform="translate(0 -0.02)"/><path class="cls-13" d="M119.78,32.39a.5.5,0,0,0-.27.07.52.52,0,0,0-.21.18.39.39,0,0,0-.17-.19.48.48,0,0,0-.24-.06.69.69,0,0,0-.24,0,.45.45,0,0,0-.19.15v-.17h-.19l-.13,1.43h.2l.07-.79c0-.36.24-.48.43-.48s.31.13.29.37l-.07.9h.19l.07-.79c0-.31.18-.48.42-.48s.33.14.31.37l-.08.9h.19l.08-.9a.74.74,0,0,0,0-.21.46.46,0,0,0-.1-.18.4.4,0,0,0-.16-.13.45.45,0,0,0-.2,0Z" transform="translate(0 -0.02)"/><path class="cls-13" d="M121.1,33.6l-.43-1.18h-.21l.51,1.43,0,.06c-.06.12-.19.32-.4.3h0l0,.19h.06a.72.72,0,0,0,.35-.14.76.76,0,0,0,.23-.3l.74-1.54h-.21Z" transform="translate(0 -0.02)"/><path class="cls-13" d="M122.71,32.39a.8.8,0,0,0-.81.74.7.7,0,0,0,0,.29.89.89,0,0,0,.14.25.78.78,0,0,0,.24.16.66.66,0,0,0,.28,0,.71.71,0,0,0,.37-.08.72.72,0,0,0,.28-.24l0,0-.16-.11,0,0a.53.53,0,0,1-.21.18.6.6,0,0,1-.45,0,.42.42,0,0,1-.16-.09.61.61,0,0,1-.12-.16.53.53,0,0,1,0-.18h1.24v-.1a.82.82,0,0,0,0-.27.7.7,0,0,0-.13-.24.62.62,0,0,0-.22-.17.58.58,0,0,0-.26-.06Zm0,.19.18,0,.15.1.1.15a.57.57,0,0,1,0,.18H122.1a.61.61,0,0,1,.21-.34.58.58,0,0,1,.38-.12Z" transform="translate(0 -0.02)"/><path class="cls-13" d="M125.24,32.39a.5.5,0,0,0-.27.07.52.52,0,0,0-.21.18.39.39,0,0,0-.17-.19.5.5,0,0,0-.24-.06.69.69,0,0,0-.24,0,.7.7,0,0,0-.19.15v-.17h-.19l-.13,1.43h.19l.07-.79c0-.36.25-.48.45-.48s.3.13.28.37l-.07.9h.19l.07-.79c0-.31.18-.48.42-.48s.33.14.3.37l-.07.9h.19l.08-.9a.74.74,0,0,0,0-.21.46.46,0,0,0-.1-.18.51.51,0,0,0-.16-.13.45.45,0,0,0-.2,0Z" transform="translate(0 -0.02)"/><path class="cls-13" d="M127.36,32.66a.61.61,0,0,0-.24-.21.6.6,0,0,0-.3-.06.83.83,0,0,0-.54.21.84.84,0,0,0-.26.53.88.88,0,0,0,0,.28.61.61,0,0,0,.15.24.66.66,0,0,0,.23.17.62.62,0,0,0,.27,0,.71.71,0,0,0,.32-.07.79.79,0,0,0,.27-.2l0,.24h.2l.13-1.43h-.2Zm-.64,1a.5.5,0,0,1-.38-.16.72.72,0,0,1-.11-.19.71.71,0,0,1,0-.21.64.64,0,0,1,.2-.39.62.62,0,0,1,.41-.16.45.45,0,0,1,.2,0,.43.43,0,0,1,.17.12.49.49,0,0,1,.11.18.5.5,0,0,1,0,.21.61.61,0,0,1-.19.4.64.64,0,0,1-.41.16Z" transform="translate(0 -0.02)"/><path class="cls-13" d="M127.88,33.85h.19l.13-1.43H128Z" transform="translate(0 -0.02)"/><path class="cls-13" d="M128.15,31.87a.18.18,0,0,0-.1,0,.16.16,0,0,0-.05.1.11.11,0,0,0,0,.05.05.05,0,0,0,0,0s0,0,0,0h.06a.24.24,0,0,0,.1,0,.11.11,0,0,0,0-.09s0,0,0-.06l0,0,0,0Z" transform="translate(0 -0.02)"/><path class="cls-13" d="M128.5,33.85h.19l.18-2.06h-.19Z" transform="translate(0 -0.02)"/><path class="cls-13" d="M130.24,32.11a1.13,1.13,0,0,0-1.11,1,.92.92,0,0,0,.05.4.88.88,0,0,0,.21.34,1.06,1.06,0,0,0,.33.22.91.91,0,0,0,.4.06,1.36,1.36,0,0,0,.49-.08h0V34h0a1.26,1.26,0,0,1-.47.08.83.83,0,0,1-.35-.05.81.81,0,0,1-.29-.19.8.8,0,0,1-.19-.3.89.89,0,0,1,0-.36,1,1,0,0,1,.32-.63,1,1,0,0,1,.66-.26.7.7,0,0,1,.32,0,.71.71,0,0,1,.27.18.78.78,0,0,1,.16.28.62.62,0,0,1,0,.33c0,.29-.14.46-.3.46s-.14-.11-.13-.21l0-.65h-.18v.1a.38.38,0,0,0-.13-.09.41.41,0,0,0-.16,0,.52.52,0,0,0-.35.14.5.5,0,0,0-.16.33.37.37,0,0,0,0,.18.35.35,0,0,0,.08.16.65.65,0,0,0,.15.1.57.57,0,0,0,.18,0,.39.39,0,0,0,.18,0,.36.36,0,0,0,.15-.1.23.23,0,0,0,.1.17.35.35,0,0,0,.18,0c.19,0,.42-.16.46-.6a.81.81,0,0,0,0-.38.94.94,0,0,0-.19-.32,1,1,0,0,0-.32-.21.78.78,0,0,0-.37-.06Zm.16,1a.26.26,0,0,1-.1.2.32.32,0,0,1-.21.08.2.2,0,0,1-.11,0,.18.18,0,0,1-.09-.06.41.41,0,0,1,0-.09.14.14,0,0,1,0-.11.28.28,0,0,1,.1-.21.3.3,0,0,1,.21-.08l.1,0,.09.06a.19.19,0,0,1,0,.1.14.14,0,0,1,0,.11Z" transform="translate(0 -0.02)"/><path class="cls-13" d="M132.2,32.39a.81.81,0,0,0-.55.21.78.78,0,0,0-.25.53.7.7,0,0,0,0,.29.73.73,0,0,0,.15.25.63.63,0,0,0,.23.16.68.68,0,0,0,.28,0,.67.67,0,0,0,.37-.08.72.72,0,0,0,.28-.24v0l-.16-.11v0a.58.58,0,0,1-.2.18.63.63,0,0,1-.46,0,.51.51,0,0,1-.16-.09.57.57,0,0,1-.11-.16.53.53,0,0,1,0-.18h1.24v-.1a.62.62,0,0,0,0-.27.56.56,0,0,0-.13-.24.68.68,0,0,0-.21-.17.66.66,0,0,0-.27-.06Zm0,.19a.44.44,0,0,1,.31.13.45.45,0,0,1,.14.32h-1a.56.56,0,0,1,.21-.33.59.59,0,0,1,.37-.12Z" transform="translate(0 -0.02)"/><path class="cls-13" d="M134.73,32.39a.5.5,0,0,0-.27.07.6.6,0,0,0-.21.18.38.38,0,0,0-.16-.19.54.54,0,0,0-.25-.06.59.59,0,0,0-.23,0,.59.59,0,0,0-.2.15v-.17h-.19l-.12,1.43h.19l.07-.79c0-.36.24-.48.43-.48s.32.13.3.37l-.08.9h.19l.07-.79c0-.31.18-.48.43-.48s.32.14.3.37l-.08.9h.19l.08-.9a.38.38,0,0,0,0-.21.51.51,0,0,0-.09-.18.52.52,0,0,0-.17-.13A.45.45,0,0,0,134.73,32.39Z" transform="translate(0 -0.02)"/><path class="cls-13" d="M136.85,32.66a.66.66,0,0,0-.23-.21.65.65,0,0,0-.3-.06.8.8,0,0,0-.81.74.67.67,0,0,0,0,.28.72.72,0,0,0,.14.24.63.63,0,0,0,.51.22.71.71,0,0,0,.32-.07.86.86,0,0,0,.26-.2l0,.24h.19l.13-1.43h-.2Zm-.64,1a.45.45,0,0,1-.2,0,.57.57,0,0,1-.18-.12.69.69,0,0,1-.1-.19.49.49,0,0,1,0-.21.58.58,0,0,1,.19-.39.62.62,0,0,1,.41-.16.45.45,0,0,1,.2,0,.57.57,0,0,1,.18.12.52.52,0,0,1,.1.18.5.5,0,0,1,0,.21.61.61,0,0,1-.19.4.62.62,0,0,1-.41.16Z" transform="translate(0 -0.02)"/><path class="cls-13" d="M137.64,31.87a.18.18,0,0,0-.1,0,.14.14,0,0,0,0,.1v.05l0,0s0,0,0,0h.05a.16.16,0,0,0,.11,0,.26.26,0,0,0,.05-.09s0,0,0-.06l0,0,0,0Z" transform="translate(0 -0.02)"/><path class="cls-13" d="M137.37,33.85h.2l.12-1.43h-.19Z" transform="translate(0 -0.02)"/><path class="cls-13" d="M138,33.85h.19l.18-2.06h-.19Z" transform="translate(0 -0.02)"/><path class="cls-13" d="M138.75,33.57a.17.17,0,0,0-.16.16v.05l0,0a.1.1,0,0,0,0,0h.05a.18.18,0,0,0,.12-.05.12.12,0,0,0,0-.1.13.13,0,0,0,0-.06.05.05,0,0,0,0-.05s0,0,0,0Z" transform="translate(0 -0.02)"/><path class="cls-13" d="M140.37,33.42a.57.57,0,0,1-.21.2.55.55,0,0,1-.28.07.39.39,0,0,1-.21,0,.41.41,0,0,1-.17-.12.42.42,0,0,1-.11-.18.5.5,0,0,1,0-.21.58.58,0,0,1,.19-.4.65.65,0,0,1,.42-.16.48.48,0,0,1,.26.06.44.44,0,0,1,.17.21v0l.17-.1v0a.55.55,0,0,0-.24-.28.54.54,0,0,0-.35-.09.81.81,0,0,0-.55.21.79.79,0,0,0-.26.53.54.54,0,0,0,0,.28.64.64,0,0,0,.15.25.63.63,0,0,0,.23.16.54.54,0,0,0,.28,0,.75.75,0,0,0,.38-.1.75.75,0,0,0,.29-.27v0l-.16-.1Z" transform="translate(0 -0.02)"/><path class="cls-13" d="M141.58,32.39a.82.82,0,0,0-.55.22.79.79,0,0,0-.26.52,1,1,0,0,0,0,.29.61.61,0,0,0,.15.24.53.53,0,0,0,.23.16.54.54,0,0,0,.28,0,.81.81,0,0,0,.55-.21.84.84,0,0,0,.26-.53.67.67,0,0,0,0-.28.72.72,0,0,0-.14-.24.76.76,0,0,0-.23-.17A.87.87,0,0,0,141.58,32.39Zm-.11,1.3a.49.49,0,0,1-.21,0,.43.43,0,0,1-.17-.12.49.49,0,0,1-.11-.18.5.5,0,0,1,0-.21.64.64,0,0,1,.2-.4.59.59,0,0,1,.4-.16.52.52,0,0,1,.21,0,.66.66,0,0,1,.17.12.5.5,0,0,1,.1.19.49.49,0,0,1,0,.21.64.64,0,0,1-.2.39A.59.59,0,0,1,141.47,33.69Z" transform="translate(0 -0.02)"/><path class="cls-13" d="M144.16,32.39a.52.52,0,0,0-.27.07.6.6,0,0,0-.21.18.38.38,0,0,0-.16-.19.54.54,0,0,0-.25-.06.59.59,0,0,0-.23,0,.4.4,0,0,0-.19.15v-.17h-.2l-.13,1.43h.2l.07-.79c0-.36.25-.48.44-.48s.31.13.29.37l-.08.9h.19l.07-.79c0-.31.18-.48.43-.48s.32.14.3.37l-.08.9h.19l.08-.9a.38.38,0,0,0,0-.21.61.61,0,0,0-.09-.18.43.43,0,0,0-.17-.13.45.45,0,0,0-.2,0Z" transform="translate(0 -0.02)"/><path class="cls-13" d="M131.26,58.8h-.18l0,.5h-.65l.71-1.15h-.2l-.72,1.16v.16H131l0,.33h.18l0-.33h.2V59.3h-.2Z" transform="translate(0 -0.02)"/><path class="cls-13" d="M132.2,58.8h-.27l.08-.48h.74v-.17h-.9l-.13.84h.46a.33.33,0,0,1,.37.34.83.83,0,0,1,0,.15.31.31,0,0,1-.09.11.46.46,0,0,1-.13.08h-.15a.32.32,0,0,1-.23-.06.28.28,0,0,1-.12-.19v0l-.17.09v0a.46.46,0,0,0,.2.26.48.48,0,0,0,.31.08.55.55,0,0,0,.4-.14.51.51,0,0,0,.2-.38.5.5,0,0,0,0-.21.62.62,0,0,0-.12-.19.42.42,0,0,0-.18-.11.53.53,0,0,0-.22,0Z" transform="translate(0 -0.02)"/><path class="cls-13" d="M133.52,58.8h-.27l.07-.48h.74v-.17h-.9L133,59h.46a.31.31,0,0,1,.35.35.37.37,0,0,1,0,.14.47.47,0,0,1-.09.12l-.13.07a.38.38,0,0,1-.15,0,.31.31,0,0,1-.23,0,.35.35,0,0,1-.14-.2v0l-.16.09v0a.45.45,0,0,0,.19.26.48.48,0,0,0,.31.08.58.58,0,0,0,.4-.13.55.55,0,0,0,.2-.38.44.44,0,0,0,0-.2.4.4,0,0,0-.1-.17.52.52,0,0,0-.17-.12.58.58,0,0,0-.19,0Z" transform="translate(0 -0.02)"/><path class="cls-13" d="M134.83,58.8h-.27l.07-.48h.74v-.17h-.9l-.13.82h.46a.31.31,0,0,1,.35.35.37.37,0,0,1,0,.14.47.47,0,0,1-.09.12l-.13.07a.38.38,0,0,1-.15,0,.33.33,0,0,1-.35-.25v0l-.16.09v0a.42.42,0,0,0,.19.26.48.48,0,0,0,.31.08.53.53,0,0,0,.4-.14.56.56,0,0,0,.21-.37.76.76,0,0,0,0-.21.45.45,0,0,0-.11-.17.39.39,0,0,0-.17-.11.34.34,0,0,0-.2,0Z" transform="translate(0 -0.02)"/><path class="cls-13" d="M137,58.12c-.37,0-.66.33-.7.86s.16.85.55.85.66-.33.7-.85S137.35,58.12,137,58.12Zm-.13,1.54c-.28,0-.43-.26-.39-.68s.23-.69.5-.69.43.26.39.69S137.11,59.66,136.83,59.66Z" transform="translate(0 -0.02)"/><path class="cls-13" d="M138.49,58.12c-.37,0-.65.33-.7.86s.17.85.56.85.65-.33.7-.85S138.88,58.12,138.49,58.12Zm-.11,1.54c-.28,0-.42-.26-.37-.68s.23-.69.5-.69.43.26.39.69S138.64,59.66,138.38,59.66Z" transform="translate(0 -0.02)"/><path class="cls-13" d="M140,58.12c-.38,0-.65.33-.7.86s.17.85.55.85.66-.33.71-.85S140.42,58.12,140,58.12Zm-.13,1.54c-.28,0-.42-.26-.37-.68s.22-.69.5-.69.43.26.37.69S140.18,59.66,139.9,59.66Z" transform="translate(0 -0.02)"/><path class="cls-13" d="M141.57,58.12c-.39,0-.66.33-.7.86s.16.85.55.85.66-.33.7-.85S142,58.12,141.57,58.12Zm-.13,1.54c-.29,0-.43-.26-.39-.68s.22-.69.5-.69.43.26.38.69S141.71,59.66,141.44,59.66Z" transform="translate(0 -0.02)"/><path class="cls-13" d="M143.87,59a.44.44,0,0,0,.17-.16.52.52,0,0,0,.07-.21.58.58,0,0,0,0-.19.86.86,0,0,0-.1-.16.54.54,0,0,0-.16-.1.62.62,0,0,0-.19,0,.51.51,0,0,0-.55.47.39.39,0,0,0,0,.21.43.43,0,0,0,.14.16.42.42,0,0,0-.19.16.38.38,0,0,0-.09.24c0,.29.18.48.51.48a.52.52,0,0,0,.4-.12.57.57,0,0,0,.2-.36.37.37,0,0,0,0-.23.33.33,0,0,0-.18-.17Zm-.37.71c-.23,0-.37-.12-.35-.31s.17-.31.41-.31.37.12.35.31a.36.36,0,0,1-.4.31Zm.07-.79c-.19,0-.32-.12-.3-.29a.3.3,0,0,1,.12-.21.32.32,0,0,1,.23-.08c.16,0,.33.08.31.29a.5.5,0,0,1,0,.13.26.26,0,0,1-.09.09.24.24,0,0,1-.11.06.29.29,0,0,1-.13,0Z" transform="translate(0 -0.02)"/><path class="cls-13" d="M145.24,59a.49.49,0,0,0,.16-.16.52.52,0,0,0,.07-.21.4.4,0,0,0,0-.19.54.54,0,0,0-.1-.16.51.51,0,0,0-.16-.09.38.38,0,0,0-.18,0,.53.53,0,0,0-.37.12.52.52,0,0,0-.18.35.39.39,0,0,0,0,.21.51.51,0,0,0,.13.16.48.48,0,0,0-.19.16.54.54,0,0,0-.09.24c0,.29.18.48.51.48a.52.52,0,0,0,.4-.12.53.53,0,0,0,.2-.36.37.37,0,0,0,0-.23.35.35,0,0,0-.17-.17Zm-.37.71c-.24,0-.37-.12-.37-.31s.17-.31.41-.31.37.12.35.31a.34.34,0,0,1-.39.31Zm.07-.79c-.2,0-.32-.12-.3-.29a.33.33,0,0,1,.11-.21.35.35,0,0,1,.24-.08c.16,0,.32.08.3.29a.3.3,0,0,1-.12.22.32.32,0,0,1-.23.07Z" transform="translate(0 -0.02)"/><path class="cls-13" d="M146.6,59a.35.35,0,0,0,.16-.16.54.54,0,0,0,.08-.21.58.58,0,0,0,0-.19.39.39,0,0,0-.1-.16.44.44,0,0,0-.16-.1.55.55,0,0,0-.18,0,.51.51,0,0,0-.37.13.52.52,0,0,0-.18.34.39.39,0,0,0,0,.21A.43.43,0,0,0,146,59a.45.45,0,0,0-.2.16.54.54,0,0,0-.09.24c0,.29.18.48.52.48a.53.53,0,0,0,.4-.12.57.57,0,0,0,.2-.36.37.37,0,0,0,0-.23.31.31,0,0,0-.17-.17Zm-.36.71c-.24,0-.37-.12-.37-.31s.16-.31.4-.31.37.12.35.31a.34.34,0,0,1-.38.31Zm.06-.79a.27.27,0,0,1-.3-.29.3.3,0,0,1,.12-.21.32.32,0,0,1,.23-.08c.16,0,.33.08.31.29a.37.37,0,0,1-.12.22.34.34,0,0,1-.24.07Z" transform="translate(0 -0.02)"/><path class="cls-13" d="M148,59a.49.49,0,0,0,.16-.16.52.52,0,0,0,.07-.21.4.4,0,0,0,0-.19.42.42,0,0,0-.26-.26.58.58,0,0,0-.19,0,.52.52,0,0,0-.36.12.48.48,0,0,0-.18.35.38.38,0,0,0,0,.21.43.43,0,0,0,.14.16.42.42,0,0,0-.19.16.54.54,0,0,0-.09.24c0,.29.18.48.51.48a.52.52,0,0,0,.4-.11.57.57,0,0,0,.2-.36.34.34,0,0,0,0-.24A.46.46,0,0,0,148,59Zm-.37.71c-.24,0-.37-.12-.35-.31a.35.35,0,0,1,.4-.31c.24,0,.37.12.35.31s-.17.31-.4.31Zm.07-.79a.27.27,0,0,1-.31-.29.56.56,0,0,1,0-.12.28.28,0,0,1,.09-.1.24.24,0,0,1,.11-.06h.13c.16,0,.32.08.3.29a.2.2,0,0,1,0,.13.25.25,0,0,1-.08.1.33.33,0,0,1-.12,0,.25.25,0,0,1-.12,0Z" transform="translate(0 -0.02)"/><path class="cls-13" d="M150.1,58.8h-.18l0,.5h-.65l.7-1.15h-.19L149,59.31l0,.16h.87l0,.33H150l0-.33h.21V59.3h-.2Z" transform="translate(0 -0.02)"/><path class="cls-13" d="M151.53,58.8h-.18l0,.5h-.65l.7-1.15h-.19l-.72,1.16,0,.16h.86l0,.33h.18l0-.33h.21V59.3h-.2Z" transform="translate(0 -0.02)"/><path class="cls-13" d="M153,58.8h-.18l0,.5h-.65l.7-1.15h-.19l-.72,1.16,0,.16h.86l0,.33h.18l0-.33h.21V59.3h-.21Z" transform="translate(0 -0.02)"/><path class="cls-13" d="M154.34,59.3l0-.5h-.18l-.05.5h-.64l.7-1.15H154l-.71,1.16,0,.16h.86l0,.33h.18l0-.33h.2l0-.17Z" transform="translate(0 -0.02)"/><path class="cls-7" d="M137.74,64.85a2.54,2.54,0,0,0-2.49,2.29l-.2,2.36a1.83,1.83,0,0,0,.09.87,2.16,2.16,0,0,0,.43.75,2.11,2.11,0,0,0,.71.51,2.26,2.26,0,0,0,.85.17h16a2.58,2.58,0,0,0,1.67-.68,2.53,2.53,0,0,0,.81-1.62l.21-2.36a2.09,2.09,0,0,0-.53-1.62,2.19,2.19,0,0,0-.7-.5,1.93,1.93,0,0,0-.85-.17Z" transform="translate(0 -0.02)"/><path class="cls-7" d="M133.42,67.15a2.09,2.09,0,0,0-.09-.86,2.07,2.07,0,0,0-.43-.75,2.11,2.11,0,0,0-.71-.51,2.08,2.08,0,0,0-.85-.17h-16a2.56,2.56,0,0,0-1.68.67,2.6,2.6,0,0,0-.81,1.62l-.2,2.36a2,2,0,0,0,.09.87,2.16,2.16,0,0,0,.43.75,2.11,2.11,0,0,0,.71.51,2.26,2.26,0,0,0,.85.17h16a2.58,2.58,0,0,0,1.67-.68,2.53,2.53,0,0,0,.81-1.62Z" transform="translate(0 -0.02)"/><path class="cls-8" d="M114.06,53.28h43a.1.1,0,1,0,0-.2H114.08C114,53.08,113.93,53.28,114.06,53.28Z" transform="translate(0 -0.02)"/><path class="cls-8" d="M112.23,74.26h43c.13,0,.15-.2,0-.2h-43C112.12,74.06,112.1,74.26,112.23,74.26Z" transform="translate(0 -0.02)"/><path class="cls-8" d="M111.49,82.73h43c.13,0,.15-.21,0-.21h-43C111.38,82.52,111.36,82.73,111.49,82.73Z" transform="translate(0 -0.02)"/><path class="cls-8" d="M118.51,58.29v-.17a.45.45,0,0,0,0-.11.18.18,0,0,0-.06-.09.31.31,0,0,0-.09-.07l-.11,0h-2.69a.27.27,0,0,0-.21.09.31.31,0,0,0-.11.2v.17Z" transform="translate(0 -0.02)"/><path class="cls-8" d="M115.2,58.62l-.11,1.27a.37.37,0,0,0,0,.11.21.21,0,0,0,.06.1.22.22,0,0,0,.09.07l.11,0h2.69a.35.35,0,0,0,.32-.3l.11-1.27Z" transform="translate(0 -0.02)"/><path class="cls-13" d="M118.53,47.35a.78.78,0,0,1-.25.49.83.83,0,0,1-.52.21.75.75,0,0,1-.26,0,.65.65,0,0,1-.21-.16.68.68,0,0,1-.14-.23.76.76,0,0,1,0-.26.79.79,0,0,1,.24-.5.81.81,0,0,1,.52-.21.85.85,0,0,1,.26,0,.65.65,0,0,1,.21.16.55.55,0,0,1,.14.23.63.63,0,0,1,0,.27Z" transform="translate(0 -0.02)"/><path class="cls-13" d="M121.46,47.35a.78.78,0,0,1-.25.49.8.8,0,0,1-.51.21.75.75,0,0,1-.26,0,.69.69,0,0,1-.22-.16.53.53,0,0,1-.13-.23.57.57,0,0,1,0-.26.79.79,0,0,1,.76-.71.58.58,0,0,1,.26.06.54.54,0,0,1,.22.15.76.76,0,0,1,.13.23.63.63,0,0,1,0,.27Z" transform="translate(0 -0.02)"/><path class="cls-13" d="M124.39,47.35a.78.78,0,0,1-.25.49.8.8,0,0,1-.51.21.75.75,0,0,1-.26,0,.69.69,0,0,1-.22-.16.53.53,0,0,1-.13-.23.57.57,0,0,1,0-.26.79.79,0,0,1,.76-.71.75.75,0,0,1,.26,0,.69.69,0,0,1,.22.16.53.53,0,0,1,.13.23.63.63,0,0,1,0,.27Z" transform="translate(0 -0.02)"/><path class="cls-13" d="M127.32,47.35a.78.78,0,0,1-.25.49.8.8,0,0,1-.51.21.75.75,0,0,1-.26,0,.69.69,0,0,1-.22-.16.65.65,0,0,1-.13-.23.57.57,0,0,1,0-.26.79.79,0,0,1,.76-.71.58.58,0,0,1,.26.06.48.48,0,0,1,.22.15.59.59,0,0,1,.13.23.63.63,0,0,1,0,.27Z" transform="translate(0 -0.02)"/><path class="cls-13" d="M130.24,47.35a.78.78,0,0,1-.25.49.8.8,0,0,1-.51.21.75.75,0,0,1-.26,0,.6.6,0,0,1-.22-.16.53.53,0,0,1-.13-.23.57.57,0,0,1,0-.26.79.79,0,0,1,.76-.71.75.75,0,0,1,.26,0,.69.69,0,0,1,.22.16.65.65,0,0,1,.13.23.63.63,0,0,1,0,.27Z" transform="translate(0 -0.02)"/><path class="cls-13" d="M133.2,47.35a.78.78,0,0,1-.25.49.8.8,0,0,1-.51.21.58.58,0,0,1-.26-.06.54.54,0,0,1-.22-.15.65.65,0,0,1-.13-.23.6.6,0,0,1,0-.26.79.79,0,0,1,.76-.71.58.58,0,0,1,.26.06.48.48,0,0,1,.22.15.59.59,0,0,1,.13.23.63.63,0,0,1,0,.27Z" transform="translate(0 -0.02)"/><path class="cls-13" d="M136.12,47.35a.78.78,0,0,1-.25.49.8.8,0,0,1-.51.21.75.75,0,0,1-.26,0,.6.6,0,0,1-.22-.16.68.68,0,0,1-.14-.23.74.74,0,0,1,0-.26.75.75,0,0,1,.25-.5.8.8,0,0,1,.51-.21.58.58,0,0,1,.26.06.54.54,0,0,1,.22.15.76.76,0,0,1,.13.23.63.63,0,0,1,0,.27Z" transform="translate(0 -0.02)"/><path class="cls-13" d="M116.18,67.57h-.8l.05-.58h.73l0-.17h-.73l0-.57h.78l0-.17h-1l-.14,1.66h1Z" transform="translate(0 -0.02)"/><path class="cls-13" d="M116.54,67.74l.42-.48.33.48h.21l-.43-.62.5-.58h-.21L117,67l-.3-.43h-.22l.4.58-.53.62Z" transform="translate(0 -0.02)"/><path class="cls-13" d="M119,67.15a.58.58,0,0,0,0-.23.72.72,0,0,0-.12-.21.56.56,0,0,0-.2-.14.63.63,0,0,0-.49,0,.5.5,0,0,0-.22.16l0-.2h-.18l-.14,1.66h.17l.06-.65a.61.61,0,0,0,.19.17.74.74,0,0,0,.25,0,.7.7,0,0,0,.46-.18.72.72,0,0,0,.22-.45Zm-.59-.45a.25.25,0,0,1,.17,0,.33.33,0,0,1,.14.1.38.38,0,0,1,.09.15.47.47,0,0,1,0,.17.52.52,0,0,1-.16.33.51.51,0,0,1-.34.13.47.47,0,0,1-.17,0,.36.36,0,0,1-.14-.1.6.6,0,0,1-.09-.15.55.55,0,0,1,0-.18.54.54,0,0,1,.16-.33.48.48,0,0,1,.34-.14Z" transform="translate(0 -0.02)"/><path class="cls-13" d="M119.52,66.54h-.17l-.11,1.2h.17Z" transform="translate(0 -0.02)"/><path class="cls-13" d="M119.47,66.08a.09.09,0,0,0-.08,0,.14.14,0,0,0,0,.08.06.06,0,0,0,0,0,.05.05,0,0,0,0,0l0,0h0a.13.13,0,0,0,.09,0,.09.09,0,0,0,0-.08v0l0,0s0,0,0,0Z" transform="translate(0 -0.02)"/><path class="cls-13" d="M120,67.07a.32.32,0,0,1,0-.14.25.25,0,0,1,.08-.12.26.26,0,0,1,.13-.08.32.32,0,0,1,.14,0h0v-.16h0a.44.44,0,0,0-.2,0,.7.7,0,0,0-.17.13v-.15h-.14l-.11,1.21H120Z" transform="translate(0 -0.02)"/><path class="cls-13" d="M121.6,66.73a.45.45,0,0,0-.2-.16.54.54,0,0,0-.25-.06.68.68,0,0,0-.45.19.63.63,0,0,0-.22.44.58.58,0,0,0,0,.23.45.45,0,0,0,.12.21.52.52,0,0,0,.19.14.47.47,0,0,0,.23,0,.49.49,0,0,0,.27-.05.89.89,0,0,0,.22-.16l0,.19h.17l.11-1.2h-.18Zm-.53.87a.33.33,0,0,1-.17,0,.31.31,0,0,1-.15-.1.36.36,0,0,1-.08-.15.47.47,0,0,1,0-.17.57.57,0,0,1,.16-.33.53.53,0,0,1,.34-.13.51.51,0,0,1,.17,0,.71.71,0,0,1,.14.1.37.37,0,0,1,.08.15.37.37,0,0,1,0,.18.49.49,0,0,1-.16.32.47.47,0,0,1-.33.14Z" transform="translate(0 -0.02)"/><path class="cls-13" d="M122.47,66.21l-.18.05,0,.28H122v.17h.26l-.07.71a.61.61,0,0,0,0,.14.24.24,0,0,0,.07.12.28.28,0,0,0,.23.07.43.43,0,0,0,.16,0h0V67.6h0a.59.59,0,0,1-.27,0,.14.14,0,0,1,0-.13l.07-.71h.34v-.18h-.34Z" transform="translate(0 -0.02)"/><path class="cls-13" d="M123.17,66.08a.1.1,0,0,0-.09,0,.14.14,0,0,0,0,.08.06.06,0,0,0,0,0,.05.05,0,0,0,0,0l0,0h0a.1.1,0,0,0,.09,0,.12.12,0,0,0,0-.08v0l0,0s0,0,0,0Z" transform="translate(0 -0.02)"/><path class="cls-13" d="M122.93,67.74h.18l.1-1.2H123Z" transform="translate(0 -0.02)"/><path class="cls-13" d="M124.12,66.51a.69.69,0,0,0-.68.63.5.5,0,0,0,0,.24.47.47,0,0,0,.12.2.52.52,0,0,0,.19.14.51.51,0,0,0,.24,0,.7.7,0,0,0,.45-.17.74.74,0,0,0,.22-.44.65.65,0,0,0,0-.24.45.45,0,0,0-.12-.21.52.52,0,0,0-.19-.14.6.6,0,0,0-.24,0ZM124,67.6a.51.51,0,0,1-.17,0,.71.71,0,0,1-.14-.1.53.53,0,0,1-.08-.15.32.32,0,0,1,0-.17.45.45,0,0,1,.16-.32.46.46,0,0,1,.33-.13.32.32,0,0,1,.17,0,.36.36,0,0,1,.14.1.38.38,0,0,1,.09.15.33.33,0,0,1,0,.17.49.49,0,0,1-.16.32.51.51,0,0,1-.33.13Z" transform="translate(0 -0.02)"/><path class="cls-13" d="M125.6,66.51a.54.54,0,0,0-.22,0,.57.57,0,0,0-.18.12v-.14h-.14l-.11,1.2h.18l.05-.63a.41.41,0,0,1,0-.16.25.25,0,0,1,.08-.14.71.71,0,0,1,.14-.1.41.41,0,0,1,.16,0,.25.25,0,0,1,.12,0,.23.23,0,0,1,.1.07.24.24,0,0,1,.06.11.24.24,0,0,1,0,.12l-.07.74H126L126,67a.61.61,0,0,0,0-.19.42.42,0,0,0-.1-.17.31.31,0,0,0-.15-.1.44.44,0,0,0-.19,0Z" transform="translate(0 -0.02)"/><path class="cls-13" d="M127.75,66.08h-.63L127,67.74h.63a.83.83,0,0,0,.59-.25.86.86,0,0,0,.27-.58.81.81,0,0,0,0-.31.87.87,0,0,0-.14-.27.79.79,0,0,0-.25-.19.77.77,0,0,0-.3-.06Zm-.13,1.48h-.45l.11-1.31h.46a.59.59,0,0,1,.23,0,.7.7,0,0,1,.19.15.57.57,0,0,1,.11.22.48.48,0,0,1,0,.24.67.67,0,0,1-.2.46.72.72,0,0,1-.46.2Z" transform="translate(0 -0.02)"/><path class="cls-13" d="M129.79,66.73a.45.45,0,0,0-.2-.16.51.51,0,0,0-.25-.06.75.75,0,0,0-.45.18.72.72,0,0,0-.22.45.58.58,0,0,0,0,.23.45.45,0,0,0,.12.21.52.52,0,0,0,.19.14.45.45,0,0,0,.23,0,.65.65,0,0,0,.27-.05.83.83,0,0,0,.21-.16v.19h.16l.1-1.2h-.17Zm-.53.87a.33.33,0,0,1-.17,0,.28.28,0,0,1-.14-.1.38.38,0,0,1-.09-.15.32.32,0,0,1,0-.17.52.52,0,0,1,.16-.33.51.51,0,0,1,.51-.1.71.71,0,0,1,.14.1.6.6,0,0,1,.09.15.55.55,0,0,1,0,.18.49.49,0,0,1-.16.32.47.47,0,0,1-.33.14Z" transform="translate(0 -0.02)"/><path class="cls-13" d="M131.19,66.54l-.47,1-.37-1h-.18l.43,1.2,0,0c-.06.1-.17.27-.34.26h0v.16h0a.53.53,0,0,0,.3-.12.53.53,0,0,0,.19-.25l.62-1.29Z" transform="translate(0 -0.02)"/><path class="cls-13" d="M114.91,69l0,.16.37-.11-.12,1.46h.18l.14-1.66h-.13Z" transform="translate(0 -0.02)"/><path class="cls-13" d="M116.42,69.85a.91.91,0,0,0,.37-.56.41.41,0,0,0,0-.19.54.54,0,0,0-.1-.16.46.46,0,0,0-.16-.11.59.59,0,0,0-.5.06.63.63,0,0,0-.23.23v0l.15.09v0a.39.39,0,0,1,.15-.16.43.43,0,0,1,.22-.06.25.25,0,0,1,.12,0l.1.07a.24.24,0,0,1,.06.11.17.17,0,0,1,0,.12.8.8,0,0,1-.28.44l-.64.6v.15h1.06v-.17H116Z" transform="translate(0 -0.02)"/><path class="cls-13" d="M116.86,70.72H117l1.12-2.12H118Z" transform="translate(0 -0.02)"/><path class="cls-13" d="M118.85,69.5l.4-.52v-.15h-1V69H119l-.44.54.07.12h0a.33.33,0,0,1,.37.34.57.57,0,0,1,0,.14l-.1.12-.13.07h-.15a.36.36,0,0,1-.22,0,.28.28,0,0,1-.14-.18v0l-.16.09v0a.47.47,0,0,0,.19.25.51.51,0,0,0,.31.07.59.59,0,0,0,.41-.13.64.64,0,0,0,.2-.38.55.55,0,0,0,0-.18.31.31,0,0,0-.08-.15.37.37,0,0,0-.13-.12l-.16,0Z" transform="translate(0 -0.02)"/><path class="cls-13" d="M120.21,68.8c-.37,0-.65.33-.7.86s.17.85.56.85.65-.32.69-.85S120.62,68.8,120.21,68.8Zm-.13,1.54c-.28,0-.43-.25-.39-.68s.23-.68.51-.68.42.25.37.68-.21.68-.49.68Z" transform="translate(0 -0.02)"/><path class="cls-13" d="M138,67.76a.53.53,0,0,0,.32-.08.64.64,0,0,0,.24-.22v0l-.14-.08,0,0a.46.46,0,0,1-.4.23.47.47,0,0,1-.17,0,.56.56,0,0,1-.15-.1.35.35,0,0,1-.08-.16.47.47,0,0,1,0-.17.52.52,0,0,1,.16-.33.51.51,0,0,1,.34-.13.34.34,0,0,1,.22,0,.35.35,0,0,1,.15.17v0l.15-.08v0a.5.5,0,0,0-.2-.23.51.51,0,0,0-.29-.08.72.72,0,0,0-.47.18.77.77,0,0,0-.22.45.65.65,0,0,0,0,.24.72.72,0,0,0,.12.21.63.63,0,0,0,.2.13.41.41,0,0,0,.24,0Z" transform="translate(0 -0.02)"/><path class="cls-13" d="M139.29,67.74l.61-1.2h-.19l-.49,1-.33-1h-.18l.4,1.2Z" transform="translate(0 -0.02)"/><path class="cls-13" d="M141.2,66.54H141l-.5,1-.32-1H140l.4,1.2h.18Z" transform="translate(0 -0.02)"/><path class="cls-13" d="M137.89,68.8c-.37,0-.66.33-.71.86s.17.85.56.85.66-.32.7-.85S138.28,68.8,137.89,68.8Zm-.13,1.54c-.29,0-.43-.25-.39-.68s.22-.68.5-.68.43.25.39.68-.23.68-.5.68Z" transform="translate(0 -0.02)"/><path class="cls-13" d="M139.42,68.8c-.37,0-.65.33-.7.86s.17.85.55.85.66-.32.71-.85S139.81,68.8,139.42,68.8Zm-.13,1.54c-.28,0-.42-.25-.37-.68s.23-.68.51-.68.42.25.39.68-.25.68-.53.68Z" transform="translate(0 -0.02)"/><path class="cls-13" d="M141,68.8c-.37,0-.65.33-.7.86s.17.85.55.85.66-.32.7-.85S141.34,68.8,141,68.8Zm-.13,1.54c-.28,0-.43-.25-.37-.68s.22-.68.5-.68.43.25.39.68-.25.68-.54.68Z" transform="translate(0 -0.02)"/><path class="cls-8" d="M124.79,84.92a2.54,2.54,0,0,0-2.49,2.29l-.2,2.36a2.1,2.1,0,0,0,.52,1.62,2.08,2.08,0,0,0,.71.5,1.93,1.93,0,0,0,.85.17h16a2.54,2.54,0,0,0,2.48-2.29l.21-2.36a2.09,2.09,0,0,0-.53-1.62,2.19,2.19,0,0,0-.7-.5,1.93,1.93,0,0,0-.85-.17Z" transform="translate(0 -0.02)"/><path class="cls-7" d="M127.74,87.41h-.68l-.17,2h.2l.06-.74h.5a.65.65,0,0,0,.46-.18.63.63,0,0,0,.22-.44.65.65,0,0,0,0-.24.57.57,0,0,0-.13-.21.53.53,0,0,0-.2-.13.67.67,0,0,0-.24,0Zm-.09,1h-.48l.08-.85h.48a.4.4,0,0,1,.15,0,.26.26,0,0,1,.13.1.39.39,0,0,1,.08.14.42.42,0,0,1,0,.16.49.49,0,0,1-.14.3.47.47,0,0,1-.31.12Z" transform="translate(0 -0.02)"/><path class="cls-7" d="M129.79,88.2a.68.68,0,0,0-.24-.2.63.63,0,0,0-.3-.07.87.87,0,0,0-.55.22.8.8,0,0,0-.25.53.54.54,0,0,0,0,.28.72.72,0,0,0,.14.24.69.69,0,0,0,.23.16.67.67,0,0,0,.28.06.88.88,0,0,0,.32-.07.75.75,0,0,0,.26-.21l0,.25h.19L130,88h-.2Zm-.66,1a.78.78,0,0,1-.21,0,.52.52,0,0,1-.17-.13.4.4,0,0,1-.1-.18.38.38,0,0,1,0-.21.62.62,0,0,1,.6-.56.52.52,0,0,1,.21,0,.52.52,0,0,1,.17.13.52.52,0,0,1,.1.18.5.5,0,0,1,0,.21.58.58,0,0,1-.19.39.63.63,0,0,1-.41.17Z" transform="translate(0 -0.02)"/><path class="cls-7" d="M130.88,89.14,130.45,88h-.21l.52,1.43,0,.06c-.06.12-.19.33-.4.3h0v.19h.06a.64.64,0,0,0,.35-.14.65.65,0,0,0,.22-.3l.74-1.54h-.2Z" transform="translate(0 -0.02)"/><path class="cls-7" d="M133.37,88.32l.07-.73a.42.42,0,0,1,.18.08.42.42,0,0,1,.1.17v0l.18-.1v0a.49.49,0,0,0-.17-.25.5.5,0,0,0-.28-.12l0-.25h-.18l0,.25a.56.56,0,0,0-.38.15.56.56,0,0,0-.19.37c0,.33.19.44.47.55l-.07.76a.33.33,0,0,1-.25-.08.38.38,0,0,1-.15-.22v0l-.18.1v0a.51.51,0,0,0,.22.3.54.54,0,0,0,.35.11l0,.25h.19l0-.25a.66.66,0,0,0,.39-.17.59.59,0,0,0,.18-.38C133.88,88.54,133.65,88.42,133.37,88.32Zm.28.55a.35.35,0,0,1-.12.25.36.36,0,0,1-.25.1l.06-.7C133.57,88.6,133.67,88.69,133.65,88.87Zm-.74-1a.35.35,0,0,1,.12-.23.32.32,0,0,1,.23-.09l-.06.66c-.21-.08-.31-.16-.3-.33Z" transform="translate(0 -0.02)"/><path class="cls-7" d="M134.15,87.6l0,.18.45-.14-.16,1.75h.21l.17-2h-.15Z" transform="translate(0 -0.02)"/><path class="cls-7" d="M135.92,88.63a1.12,1.12,0,0,0,.43-.67.55.55,0,0,0,0-.22.82.82,0,0,0-.12-.2.52.52,0,0,0-.19-.12.54.54,0,0,0-.22,0,.93.93,0,0,0-.37.1.81.81,0,0,0-.27.28v0l.16.11v0a.55.55,0,0,1,.19-.21.5.5,0,0,1,.27-.07.39.39,0,0,1,.15,0,.37.37,0,0,1,.2.2.39.39,0,0,1,0,.15,1.06,1.06,0,0,1-.35.53l-.77.74v.17h1.26v-.2h-.95Z" transform="translate(0 -0.02)"/><path class="cls-7" d="M137.42,87.38c-.46,0-.78.39-.83,1s.2,1,.65,1,.78-.39.84-1S137.88,87.38,137.42,87.38Zm-.16,1.86c-.34,0-.51-.3-.47-.82s.28-.82.62-.82.51.3.46.82-.27.8-.6.8Z" transform="translate(0 -0.02)"/><path class="cls-8" d="M33.63,78.28h23a1.83,1.83,0,0,1,1.19.48,1.89,1.89,0,0,1,.59,1.13l3.67,35a1.42,1.42,0,0,1-.35,1.14,1.25,1.25,0,0,1-.49.36,1.53,1.53,0,0,1-.6.12h-23Z" transform="translate(0 -0.02)"/><path class="cls-14" d="M33.63,78.28h23a1.83,1.83,0,0,1,1.19.48,1.89,1.89,0,0,1,.59,1.13l3.67,35a1.42,1.42,0,0,1-.35,1.14,1.25,1.25,0,0,1-.49.36,1.53,1.53,0,0,1-.6.12h-23Z" transform="translate(0 -0.02)"/><path class="cls-8" d="M86.56,113.34c-.12-1.11-3.22-30.75-3.33-31.86a3.62,3.62,0,0,0-3.52-3.19H59.89a1.39,1.39,0,0,0-.6.11,1.72,1.72,0,0,0-.49.36,1.42,1.42,0,0,0-.35,1.14l3.67,35a1.92,1.92,0,0,0,.59,1.14,1.87,1.87,0,0,0,1.19.47H83.71a2.79,2.79,0,0,0,1.18-.23,2.75,2.75,0,0,0,1-.7,3,3,0,0,0,.59-1,2.9,2.9,0,0,0,.1-1.21Z" transform="translate(0 -0.02)"/><path class="cls-14" d="M86.56,113.34c-.12-1.11-3.22-30.75-3.33-31.86a3.62,3.62,0,0,0-3.52-3.19H59.89a1.39,1.39,0,0,0-.6.11,1.72,1.72,0,0,0-.49.36,1.42,1.42,0,0,0-.35,1.14l3.67,35a1.92,1.92,0,0,0,.59,1.14,1.87,1.87,0,0,0,1.19.47H83.71a2.79,2.79,0,0,0,1.18-.23,2.75,2.75,0,0,0,1-.7,3,3,0,0,0,.59-1,2.9,2.9,0,0,0,.1-1.21Z" transform="translate(0 -0.02)"/><path class="cls-8" d="M37.14,81.48a3.6,3.6,0,0,0-3.51-3.19,2.79,2.79,0,0,0-1.18.23,2.75,2.75,0,0,0-1,.7,3,3,0,0,0-.59,1,2.75,2.75,0,0,0-.1,1.21c.14,1.37,3.19,30.49,3.33,31.86a3.6,3.6,0,0,0,3.52,3.19,2.85,2.85,0,0,0,1.18-.23,2.8,2.8,0,0,0,1-.7,3,3,0,0,0,.59-1,2.75,2.75,0,0,0,.1-1.21C40.37,112.23,37.26,82.59,37.14,81.48Z" transform="translate(0 -0.02)"/><path class="cls-15" d="M37.14,81.48a3.6,3.6,0,0,0-3.51-3.19,2.79,2.79,0,0,0-1.18.23,2.75,2.75,0,0,0-1,.7,3,3,0,0,0-.59,1,2.75,2.75,0,0,0-.1,1.21c.14,1.37,3.19,30.49,3.33,31.86a3.6,3.6,0,0,0,3.52,3.19,2.85,2.85,0,0,0,1.18-.23,2.8,2.8,0,0,0,1-.7,3,3,0,0,0,.59-1,2.75,2.75,0,0,0,.1-1.21C40.37,112.23,37.26,82.59,37.14,81.48Z" transform="translate(0 -0.02)"/><path class="cls-8" d="M50.48,92.8H29.27a6.39,6.39,0,0,0,0,12.77v23.68A1.78,1.78,0,0,0,31.05,131h24a1.78,1.78,0,0,0,1.79-1.79V99.18a6.37,6.37,0,0,0-6.36-6.38Z" transform="translate(0 -0.02)"/><path class="cls-11" d="M50.48,92.8H29.27a6.39,6.39,0,0,0,0,12.77v23.68A1.78,1.78,0,0,0,31.05,131h24a1.78,1.78,0,0,0,1.79-1.79V99.18a6.37,6.37,0,0,0-6.36-6.38Z" transform="translate(0 -0.02)"/><path class="cls-8" d="M91.31,92.8h21.21a6.39,6.39,0,0,1,0,12.77v23.68a1.79,1.79,0,0,1-1.79,1.79h-24a1.78,1.78,0,0,1-1.79-1.79V99.18a6.37,6.37,0,0,1,6.37-6.38Z" transform="translate(0 -0.02)"/><path class="cls-11" d="M91.31,92.8h21.21a6.39,6.39,0,0,1,0,12.77v23.68a1.79,1.79,0,0,1-1.79,1.79h-24a1.78,1.78,0,0,1-1.79-1.79V99.18a6.37,6.37,0,0,1,6.37-6.38Z" transform="translate(0 -0.02)"/><path class="cls-8" d="M50.48,92.8a6.39,6.39,0,0,0,0,12.77v23.68A1.78,1.78,0,0,0,52.27,131h2.78a1.78,1.78,0,0,0,1.79-1.79V99.18A6.36,6.36,0,0,0,55,94.67a6.42,6.42,0,0,0-4.5-1.87Z" transform="translate(0 -0.02)"/><path class="cls-16" d="M50.48,92.8a6.39,6.39,0,0,0,0,12.77v23.68A1.78,1.78,0,0,0,52.27,131h2.78a1.78,1.78,0,0,0,1.79-1.79V99.18A6.36,6.36,0,0,0,55,94.67a6.42,6.42,0,0,0-4.5-1.87Z" transform="translate(0 -0.02)"/><path class="cls-8" d="M112.52,92.8a6.39,6.39,0,0,1,0,12.77v23.68a1.79,1.79,0,0,1-1.79,1.79h-2.79a1.79,1.79,0,0,1-1.79-1.79V99.18a6.38,6.38,0,0,1,6.37-6.38Z" transform="translate(0 -0.02)"/><path class="cls-16" d="M112.52,92.8a6.39,6.39,0,0,1,0,12.77v23.68a1.79,1.79,0,0,1-1.79,1.79h-2.79a1.79,1.79,0,0,1-1.79-1.79V99.18a6.38,6.38,0,0,1,6.37-6.38Z" transform="translate(0 -0.02)"/><path class="cls-8" d="M99.62,113H59.42a2.59,2.59,0,0,0-2.58,2.59v12.85A2.58,2.58,0,0,0,59.42,131h40.2a2.57,2.57,0,0,0,2.58-2.58V115.61A2.58,2.58,0,0,0,99.62,113Z" transform="translate(0 -0.02)"/><path class="cls-15" d="M99.62,113H59.42a2.59,2.59,0,0,0-2.58,2.59v12.85A2.58,2.58,0,0,0,59.42,131h40.2a2.57,2.57,0,0,0,2.58-2.58V115.61A2.58,2.58,0,0,0,99.62,113Z" transform="translate(0 -0.02)"/><path class="cls-8" d="M81.5,114.26v-2.48a2.27,2.27,0,0,0-2.27-2.27H59.11a2.27,2.27,0,0,0-2.27,2.27v2.48a2.27,2.27,0,0,0,2.27,2.27H79.23A2.27,2.27,0,0,0,81.5,114.26Z" transform="translate(0 -0.02)"/><path class="cls-16" d="M81.5,114.26v-2.48a2.27,2.27,0,0,0-2.27-2.27H59.11a2.27,2.27,0,0,0-2.27,2.27v2.48a2.27,2.27,0,0,0,2.27,2.27H79.23A2.27,2.27,0,0,0,81.5,114.26Z" transform="translate(0 -0.02)"/><path class="cls-8" d="M106.15,114.26v-2.48a2.27,2.27,0,0,0-2.26-2.27H83.76a2.27,2.27,0,0,0-2.26,2.27v2.48a2.27,2.27,0,0,0,2.26,2.27h20.13A2.27,2.27,0,0,0,106.15,114.26Z" transform="translate(0 -0.02)"/><path class="cls-16" d="M106.15,114.26v-2.48a2.27,2.27,0,0,0-2.26-2.27H83.76a2.27,2.27,0,0,0-2.26,2.27v2.48a2.27,2.27,0,0,0,2.26,2.27h20.13A2.27,2.27,0,0,0,106.15,114.26Z" transform="translate(0 -0.02)"/><path class="cls-8" d="M59.5,91.78l.15,1.42c0,.1.18.1.17,0l-.15-1.42C59.67,91.67,59.49,91.67,59.5,91.78Z" transform="translate(0 -0.02)"/><path class="cls-8" d="M58.68,84l.69,6.52c0,.1.17.11.16,0-.23-2.17-.45-4.35-.68-6.52C58.85,83.86,58.67,83.86,58.68,84Z" transform="translate(0 -0.02)"/><g class="cls-10"><path class="cls-11" d="M59.5,91.78l.15,1.42c0,.1.18.1.17,0l-.15-1.42C59.67,91.67,59.49,91.67,59.5,91.78Z" transform="translate(0 -0.02)"/></g><g class="cls-10"><path class="cls-11" d="M58.68,84l.69,6.52c0,.1.17.11.16,0-.23-2.17-.45-4.35-.68-6.52C58.85,83.86,58.67,83.86,58.68,84Z" transform="translate(0 -0.02)"/></g><path class="cls-8" d="M81.43,126.16v1.21a.06.06,0,0,0,0,0l0,0,0,0s0,0,0,0v-1.21a.08.08,0,0,0,0,0l0,0,0,0S81.43,126.14,81.43,126.16Z" transform="translate(0 -0.02)"/><path class="cls-8" d="M81.43,120.24v4.61s0,0,0,.05l0,0,0,0a.08.08,0,0,0,0-.05v-4.61a.08.08,0,0,0,0,0l0,0,0,0s0,0,0,0Z" transform="translate(0 -0.02)"/><g class="cls-17"><path class="cls-18" d="M81.43,126.16v1.21a.06.06,0,0,0,0,0l0,0,0,0s0,0,0,0v-1.21a.08.08,0,0,0,0,0l0,0,0,0S81.43,126.14,81.43,126.16Z" transform="translate(0 -0.02)"/></g><g class="cls-17"><path class="cls-18" d="M81.43,120.24v4.61s0,0,0,.05l0,0,0,0a.08.08,0,0,0,0-.05v-4.61a.08.08,0,0,0,0,0l0,0,0,0s0,0,0,0Z" transform="translate(0 -0.02)"/></g><path class="cls-8" d="M44.12,99.18H22.9a6.4,6.4,0,0,0,6.37,6.39H50.48a6.38,6.38,0,0,1-6.36-6.39Z" transform="translate(0 -0.02)"/><g class="cls-17"><path class="cls-18" d="M44.12,99.18H22.9a6.4,6.4,0,0,0,6.37,6.39H50.48a6.38,6.38,0,0,1-6.36-6.39Z" transform="translate(0 -0.02)"/></g><path class="cls-19" d="M95.83,76.76l-2.45.08a.38.38,0,0,1-.15,0,.33.33,0,0,1-.21-.21.38.38,0,0,1,0-.15L93.4,71a.41.41,0,0,1,.13-.28.45.45,0,0,1,.28-.12l2.45-.08a.38.38,0,0,1,.15,0,.33.33,0,0,1,.21.21.38.38,0,0,1,0,.15l-.39,5.5a.46.46,0,0,1-.13.27.44.44,0,0,1-.28.12Z" transform="translate(0 -0.02)"/><path class="cls-8" d="M96.28,76.75l-2.45.08a.39.39,0,0,1-.15,0,.25.25,0,0,1-.12-.08.23.23,0,0,1-.08-.12.26.26,0,0,1,0-.15l.39-5.5a.45.45,0,0,1,.41-.4l2.45-.08a.39.39,0,0,1,.15,0,.35.35,0,0,1,.13.08.57.57,0,0,1,.08.13.32.32,0,0,1,0,.14l-.39,5.5a.43.43,0,0,1-.13.28.45.45,0,0,1-.28.12Z" transform="translate(0 -0.02)"/><path class="cls-19" d="M93.47,76.46l.4-5.5a.45.45,0,0,1,.41-.4h-.47a.41.41,0,0,0-.27.13.42.42,0,0,0-.14.27L93,76.46a.77.77,0,0,0,0,.15.5.5,0,0,0,.08.12.35.35,0,0,0,.13.08.32.32,0,0,0,.14,0h.46a.32.32,0,0,1-.14,0,.35.35,0,0,1-.13-.08.32.32,0,0,1-.08-.12A.39.39,0,0,1,93.47,76.46Z" transform="translate(0 -0.02)"/><path class="cls-20" d="M93.47,76.46l.4-5.5a.45.45,0,0,1,.41-.4h-.47a.41.41,0,0,0-.27.13.42.42,0,0,0-.14.27L93,76.46a.77.77,0,0,0,0,.15.5.5,0,0,0,.08.12.35.35,0,0,0,.13.08.32.32,0,0,0,.14,0h.46a.32.32,0,0,1-.14,0,.35.35,0,0,1-.13-.08.32.32,0,0,1-.08-.12A.39.39,0,0,1,93.47,76.46Z" transform="translate(0 -0.02)"/><path class="cls-13" d="M94.9,71.2a.36.36,0,0,1-.11.25.4.4,0,0,1-.26.1.25.25,0,0,1-.12,0,.41.41,0,0,1-.11-.07.24.24,0,0,1-.06-.11.27.27,0,0,1,0-.13.37.37,0,0,1,.12-.24.35.35,0,0,1,.25-.1.2.2,0,0,1,.13,0,.3.3,0,0,1,.1.07.41.41,0,0,1,.07.11.25.25,0,0,1,0,.12Z" transform="translate(0 -0.02)"/><path class="cls-21" d="M94.54,134.07l1.1,3.58,3.28-.61-.91-4Z" transform="translate(0 -0.02)"/><path class="cls-22" d="M95.19,136.19l3.35-.81-.26-1.13-3.35,1.1Z" transform="translate(0 -0.02)"/><path class="cls-19" d="M99.73,137.06a0,0,0,0,1,0,0l0,0a.06.06,0,0,1,0-.06l0,0s1.18-1.12,1.85-1.09a.51.51,0,0,1,.33.15.33.33,0,0,1,.1.37c-.11.24-.57.44-1,.55A6.71,6.71,0,0,1,99.73,137.06Zm.26-.18c.72-.08,1.66-.31,1.78-.59,0,0,0-.1-.07-.2a.15.15,0,0,0-.09-.06.2.2,0,0,0-.11,0,.55.55,0,0,0-.18,0,4.25,4.25,0,0,0-1.33.85Z" transform="translate(0 -0.02)"/><path class="cls-19" d="M99.68,137.07l0,0s0,0,0,0a2.7,2.7,0,0,1,.24-1.59.72.72,0,0,1,.21-.18.54.54,0,0,1,.25-.09c.25,0,.37.07.39.17.18.41-.53,1.43-.93,1.74h0l-.06,0Zm.62-1.75a.49.49,0,0,0-.28.19,2.14,2.14,0,0,0-.22,1.27c.4-.37.84-1.17.74-1.41,0,0,0-.09-.2-.07l0,0Z" transform="translate(0 -0.02)"/><path class="cls-13" d="M99.22,136.63l-4.09,1a.32.32,0,0,0-.18.12.27.27,0,0,0-.07.21l0,3.51a.54.54,0,0,0,.17.4.54.54,0,0,0,.4.16h.11c1.48-.37,2.76-.76,4.6-1.19,2.17-.52,1.68-.13,4.23-.69,1.54-.35,1.41-2.16.74-2.09-3.06.33-3.58-.5-5-1.3A1.32,1.32,0,0,0,99.22,136.63Z" transform="translate(0 -0.02)"/><path class="cls-21" d="M110.42,128.84l1.7,3.34,3.13-1.16-1.58-3.77Z" transform="translate(0 -0.02)"/><path class="cls-22" d="M111.43,130.82l3.16-1.37-.45-1.07L111,130.05Z" transform="translate(0 -0.02)"/><path class="cls-19" d="M116.05,130.91h0s0,0,0,0,0,0,0-.05a.14.14,0,0,1,0-.06s1-1.28,1.63-1.37a.48.48,0,0,1,.35.08.32.32,0,0,1,.14.16.3.3,0,0,1,0,.21c-.06.25-.48.53-.92.71a7.43,7.43,0,0,1-1.13.36Zm.23-.23c.69-.2,1.58-.59,1.65-.89a.18.18,0,0,0-.1-.17.14.14,0,0,0-.1-.05h-.11a.34.34,0,0,0-.17.05A4.07,4.07,0,0,0,116.28,130.68Z" transform="translate(0 -0.02)"/><path class="cls-19" d="M116,130.93l-.05,0,0,0a2.76,2.76,0,0,1,0-1.61.62.62,0,0,1,.17-.22.7.7,0,0,1,.24-.13c.24-.07.37,0,.41.1.24.38-.28,1.49-.62,1.86h0l0,0,0,0Zm.31-1.83a.42.42,0,0,0-.24.23,2,2,0,0,0,0,1.28c.32-.45.63-1.28.5-1.52,0,0,0-.07-.21,0l0,0Z" transform="translate(0 -0.02)"/><path class="cls-13" d="M115.48,130.58l-3.86,1.65a.35.35,0,0,0-.17.15.34.34,0,0,0,0,.22l.64,3.45a.53.53,0,0,0,.24.36.57.57,0,0,0,.42.1l.11,0c1.38-.62,2.59-1.22,4.32-2,2-.87,1.64-.4,4.06-1.4,1.45-.6,1-2.37.36-2.19-3,.85-3.61.13-5.13-.42a1.33,1.33,0,0,0-1,.09Z" transform="translate(0 -0.02)"/><path class="cls-23" d="M80.08,98.4s18.81-1.7,23.25,2.6,11.51,26.84,11.51,26.84l-5,2.23s-7.87-12.55-11.71-22c0,0-23.37,3.28-25-1.61L73.9,98Z" transform="translate(0 -0.02)"/><path class="cls-19" d="M108.91,129.59l.75,1.2,5.78-2.77-.76-1.6Z" transform="translate(0 -0.02)"/><path class="cls-24" d="M108.91,129.59l.75,1.2,5.78-2.77-.76-1.6Z" transform="translate(0 -0.02)"/><path class="cls-23" d="M65.79,98s-1.22,10.08,3.1,11.5,17.24-.11,17.24-.11,0,10.45,7.84,25.89l4.61-1.62S95.86,107.53,93.7,104C92.16,101.46,87.72,97.72,65.79,98Z" transform="translate(0 -0.02)"/><path class="cls-19" d="M93.23,134.64l.52,1.45L99.28,134l-.42-1.4Z" transform="translate(0 -0.02)"/><path class="cls-24" d="M93.23,134.64l.52,1.45L99.28,134l-.42-1.4Z" transform="translate(0 -0.02)"/><path class="cls-25" d="M94.46,103.22c-3.22-3.56-17.34-2.52-21.51-2.55v0c9.27,1.07,19,.12,20.75,3.28A19.17,19.17,0,0,1,95,108.44c.57-.06.71-.12,1.15-.17C95.55,105.63,95.68,104.56,94.46,103.22Z" transform="translate(0 -0.02)"/><path class="cls-21" d="M78.11,74.08s2.34-.08,5.06,6.57l3,6a26.13,26.13,0,0,0,6.42-6.4s.34-6.32,2.57-5.83a2.79,2.79,0,0,1,1.94,1.42A2.79,2.79,0,0,1,97.47,77a2.83,2.83,0,0,1-.21,1.22,32.92,32.92,0,0,1-2.1,3.39s-5.4,9.33-8.89,9.45-7-6.7-7-6.7L78.23,78Z" transform="translate(0 -0.02)"/><path class="cls-13" d="M78.56,74s2.44.52,4.34,5.71c0,0,.72.15.66,1.18a7.58,7.58,0,0,1-2.14,7.26s-.7,0-1-1.11l-1.53-2.67L77.56,78.1l-.07-2.28.11-2Z" transform="translate(0 -0.02)"/><path class="cls-13" d="M78.56,74s2.44.52,4.34,5.71c0,0,.72.15.66,1.18a7.58,7.58,0,0,1-2.14,7.26s-.7,0-1-1.11l-1.53-2.67L77.56,78.1l-.07-2.28.11-2Z" transform="translate(0 -0.02)"/><path class="cls-19" d="M91.94,81.05a6.57,6.57,0,0,1,2,1.56l.67-.7a3,3,0,0,0-2.32-1.42Z" transform="translate(0 -0.02)"/><path class="cls-9" d="M91.94,81.05a6.57,6.57,0,0,1,2,1.56l.67-.7a3,3,0,0,0-2.32-1.42Z" transform="translate(0 -0.02)"/><path class="cls-26" d="M95.09,82.75a.9.9,0,0,1-1.16.44A.91.91,0,0,1,93.85,82,.9.9,0,0,1,95,81.51.91.91,0,0,1,95.09,82.75Z" transform="translate(0 -0.02)"/><path class="cls-13" d="M95,82.66a.58.58,0,0,1-.3.13.6.6,0,0,1-.58-.24.68.68,0,0,1-.11-.31.6.6,0,0,1,.07-.32.64.64,0,0,1,.22-.24.72.72,0,0,1,.32-.08.56.56,0,0,1,.31.09.81.81,0,0,1,.23.47.75.75,0,0,1-.16.5Z" transform="translate(0 -0.02)"/><path class="cls-24" d="M78.54,82.63l.37,1.69L80.44,87c.29,1.17,1,1.12,1,1.12a7.36,7.36,0,0,0,1.5-2A9.76,9.76,0,0,0,78.54,82.63Z" transform="translate(0 -0.02)"/><path class="cls-13" d="M79.92,75a6.5,6.5,0,0,0-3.1-2l-.94,2.35-1.51.58-1.2-.33-1.07-.52-1.22-1.82-.16-1.07a28.18,28.18,0,0,0-4.49.5c-7.89,1.48-1.17,26.17-1.17,26.17,12.73,2.49,17.74-1,17.74-1C81.13,93.27,81.18,76.68,79.92,75Z" transform="translate(0 -0.02)"/><path class="cls-24" d="M67,76.22l-4.3,1.58a26.72,26.72,0,0,0-.22,5.29C68.27,82.13,67,76.22,67,76.22Z" transform="translate(0 -0.02)"/><path class="cls-13" d="M80.22,59.17s1.32,1,.93,2c0,0,.86,2.22-.86,2.15C80.29,63.35,78.39,61.76,80.22,59.17Z" transform="translate(0 -0.02)"/><path class="cls-21" d="M74.9,75.54,76,74.45,76.79,73c-.26-.09-.53-.18-.82-.26l.25-3.5-4.09-2.4s.13,4.46-.86,5.35c-.22.19-.2,0-.5,0L71.25,74l1.53,1.91Z" transform="translate(0 -0.02)"/><path class="cls-19" d="M71,72.07s1.14,2.86,2.91,3.46c0,0-.89,2.57-2.22,1.15s-1.48-4.58-1.48-4.58Z" transform="translate(0 -0.02)"/><path class="cls-27" d="M71,72.07s1.14,2.86,2.91,3.46c0,0-.89,2.57-2.22,1.15s-1.48-4.58-1.48-4.58Z" transform="translate(0 -0.02)"/><path class="cls-19" d="M73.57,75.68a4.06,4.06,0,0,0,2.78-2.91l.88.37s-.34,3.94-1.74,3.87a2.24,2.24,0,0,1-1.14-.4,2.28,2.28,0,0,1-.78-.93Z" transform="translate(0 -0.02)"/><path class="cls-28" d="M73.57,75.68a4.06,4.06,0,0,0,2.78-2.91l.88.37s-.34,3.94-1.74,3.87a2.24,2.24,0,0,1-1.14-.4,2.28,2.28,0,0,1-.78-.93Z" transform="translate(0 -0.02)"/><path class="cls-22" d="M72.1,67.15s.09,3.2,4,4.3l.13-1.83-4.07-2.47Z" transform="translate(0 -0.02)"/><path class="cls-21" d="M80.74,63.59c.43,3.63-.55,6.73-3.55,7.09s-5.37-2-5.79-5.61.51-7.09,3.5-7.45S80.31,60,80.74,63.59Z" transform="translate(0 -0.02)"/><path class="cls-13" d="M72.15,64.61a6.66,6.66,0,0,0,1-3.44s1.19-.14,1.48-.78c0,0,3.7,1.56,5.35.29,0,0,3.33-1,.93-2.89,0,0,.47-1.46-1.53-2.15a4.46,4.46,0,0,0-3.18-.13,2.91,2.91,0,0,0-3.57.52s-3.33.35-2.79,2.65A1.63,1.63,0,0,0,68.76,61a2,2,0,0,0-.34,1.24A2,2,0,0,0,69,63.35s0,2.83,1.83,2.95C70.77,66.3,72.44,69.07,72.15,64.61Z" transform="translate(0 -0.02)"/><path class="cls-21" d="M72.61,64.52c.42.67.37,1.49-.1,1.77a1.31,1.31,0,0,1-1.64-.66,1.3,1.3,0,0,1,.1-1.77C71.44,63.55,72.18,63.85,72.61,64.52Z" transform="translate(0 -0.02)"/><path class="cls-13" d="M70.3,56.84c.1-.08,0-.25-.1-.17a1.56,1.56,0,0,0-.67,1.67,1.38,1.38,0,0,0-.66-.17,1.4,1.4,0,0,0-.65.19c-.1.07,0,.24.11.17a1,1,0,0,1,1.06,0,1.69,1.69,0,0,0-1.16,1c-.06.11.12.21.17.09.29-.57.88-1.2,1.46-.77A.86.86,0,0,0,70,59a.11.11,0,0,0,.07,0,.1.1,0,0,0,.07,0,.1.1,0,0,0,0-.14L70,58.69C69.41,58.1,69.67,57.35,70.3,56.84Z" transform="translate(0 -0.02)"/><path class="cls-13" d="M76.78,64.63c0,.23.2.4.35.37s.24-.23.21-.46-.2-.41-.37-.37S76.74,64.4,76.78,64.63Z" transform="translate(0 -0.02)"/><path class="cls-13" d="M79.44,64.64c0,.24.19.41.34.38s.25-.23.21-.47-.2-.4-.35-.37S79.39,64.41,79.44,64.64Z" transform="translate(0 -0.02)"/><path class="cls-29" d="M78.61,64.87a8.75,8.75,0,0,0,1.46,1.86,1.36,1.36,0,0,1-.5.3,1.32,1.32,0,0,1-.59.07Z" transform="translate(0 -0.02)"/><path class="cls-13" d="M78.13,68.22a2,2,0,0,1-.8-.15,2.15,2.15,0,0,1-.68-.44.09.09,0,0,1,0,0,.07.07,0,0,1,0,0l0,0,0,0h0a2,2,0,0,0,.76.45,1.77,1.77,0,0,0,.88.07h.06l0,0s0,0,0,0,0,0,0,0,0,0,0,0l0,0h0a1.27,1.27,0,0,1-.28,0Z" transform="translate(0 -0.02)"/><path class="cls-13" d="M76.24,63.53l-.06,0a.11.11,0,0,1,0-.1.1.1,0,0,1,0-.08h0a1.37,1.37,0,0,1,.61-.25,1.32,1.32,0,0,1,.65.08l0,0,0,.05a.09.09,0,0,1,0,0,.43.43,0,0,1,0,.05h0l0,0-.05,0h-.1a1.12,1.12,0,0,0-.51-.06,1.14,1.14,0,0,0-.47.19l-.07,0Z" transform="translate(0 -0.02)"/><path class="cls-13" d="M80.35,63.47a.1.1,0,0,0,.05,0,.08.08,0,0,0,0,0v-.05l0,0a.08.08,0,0,0,0,0h0a1.39,1.39,0,0,0-.63-.18,1.41,1.41,0,0,0-.64.13s0,0,0,0a.08.08,0,0,0,0,.05.07.07,0,0,0,0,0s0,0,0,.05h0a.16.16,0,0,0,.08.06.17.17,0,0,0,.1,0h0a1.1,1.1,0,0,1,.5-.11,1.2,1.2,0,0,1,.49.14.1.1,0,0,0,.07,0l.08,0Z" transform="translate(0 -0.02)"/><path class="cls-21" d="M65.82,73.38s-10.52-.94-17.24,2.48a4.15,4.15,0,0,0,.13,3.91C49.92,81.51,54,88.48,54,88.48l.57,3.34s-.27,2,.74,2.65,3.5-.58,3.64-1.66-2.14-5.49-2.14-5.49-2.43-7.12-3.38-8.78c0,0,9.28.93,12.53-.06C66,78.48,67.8,76.77,65.82,73.38Z" transform="translate(0 -0.02)"/><path class="cls-13" d="M65.93,73a26.14,26.14,0,0,0-5.18,0s-.37-.42-1.25.24A11.78,11.78,0,0,1,59.42,79a1.88,1.88,0,0,0,1.36.09s3.81,1.11,5.6-.11C67.61,78.12,69,76,65.93,73Z" transform="translate(0 -0.02)"/></g></g></g></svg>