<svg xmlns="http://www.w3.org/2000/svg" viewBox="0 0 122.99 113"><defs><style>.cls-1{fill:#7eb6b3;opacity:0.5;}.cls-1,.cls-10{isolation:isolate;}.cls-2{fill:#48a098;}.cls-3{fill:#0c756e;}.cls-4{fill:#e7f4f5;}.cls-5{fill:#273238;}.cls-6{fill:#455963;}.cls-7{fill:#f7ba9b;}.cls-8{fill:#e16993;}.cls-10,.cls-9{opacity:0.1;}.cls-10{fill:#040000;}.cls-11{fill:#fff;}.cls-12{fill:#e3956b;}.cls-13{fill:#f19bc0;}</style></defs><title>slide2</title><g id="图层_2" data-name="图层 2"><g id="Layer_1" data-name="Layer 1"><path class="cls-1" d="M117.43,13.92a27.88,27.88,0,0,1,1.89,3.69c6.67,15.61,3.93,34.62-5.55,48.75C103.82,81.2,87.25,90.8,69.83,94.3c-12.44,2.5-25.81,2-37.18-3.68s-20.3-17.09-21-29.87c-.26-4.82.75-9.94,3.94-13.54,5.1-5.75,13.8-6,21.44-5.72s16.34.06,21.46-5.67C62.45,31.42,63,25,65.1,19.49A30.53,30.53,0,0,1,86.9.62a29.1,29.1,0,0,1,10-.34,28.72,28.72,0,0,1,20.55,13.65Z"/><path class="cls-2" d="M15.24,38.87c1,1.33,2.82,2.11,2.62,3.16a31.22,31.22,0,0,0-.92,4.72c.1,1.24,1.22,2.1,2.26,2.76s2.19,1.45,2.4,2.67c.18,1-.42,2.13-.21,3.18C21.64,56.7,23,57.43,24.27,58c2.12.89,4.28,1.69,6.46,2.41a6.62,6.62,0,0,0-2-6.26,11.08,11.08,0,0,1-2.36-2.16c-.68-1.09-.6-2.47-.69-3.76s-.51-2.73-1.68-3.25c-.65-.29-1.46-.26-2-.75s-.45-1.66-.63-2.52a3.66,3.66,0,0,0-2.51-2.48,10.86,10.86,0,0,0-3.64-.32"/><path class="cls-3" d="M34,63.31c-1.45-2.37-.85-5.23.36-7.74a22.43,22.43,0,0,1,5.29-6.4c2-1.88,4.57-3.88,7.38-3.62-1.61.82-2.27,2.77-2.61,4.56s-.56,3.72-1.75,5.09c-.6.69-1.45,1.25-1.64,2.15s.28,1.67.07,2.47c-.35,1.3-2.14,1.66-2.69,2.89-.27.59-.21,1.31-.59,1.84a1.75,1.75,0,0,1-2.21.35,5.54,5.54,0,0,1-1.71-1.73"/><path class="cls-4" d="M34.56,70a10,10,0,0,1-.73-1.32c-.43-.88-.95-2.2-1.55-3.83-.31-.81-.63-1.71-1-2.66a29.26,29.26,0,0,0-1.31-3,7.42,7.42,0,0,0-1-1.44,8.1,8.1,0,0,0-1.42-1.13c-.52-.34-1.07-.66-1.58-1.05a5.6,5.6,0,0,1-1.39-1.4,3.77,3.77,0,0,1-.6-1.89C24,51.67,24,51,24,50.41a3.82,3.82,0,0,0-.51-1.71,2.09,2.09,0,0,0-.63-.59,3.54,3.54,0,0,0-.77-.34A4.09,4.09,0,0,1,20.53,47a2.25,2.25,0,0,1-.42-.7,2,2,0,0,1-.11-.8c0-.52.06-1,0-1.48a3.94,3.94,0,0,0-.28-1.31,5.67,5.67,0,0,0-1.31-1.9,10.24,10.24,0,0,0-1.37-1.09l-.93-.61L15.9,39a.21.21,0,0,1-.08-.06l.09.05.25.14c.22.13.55.32.95.58a9.91,9.91,0,0,1,1.4,1.09,5.65,5.65,0,0,1,1.36,1.91A4.13,4.13,0,0,1,20.16,44c0,.48,0,1,0,1.48a2.13,2.13,0,0,0,.11.75,2,2,0,0,0,.39.65,3.74,3.74,0,0,0,1.46.7,5.38,5.38,0,0,1,.81.36,2.12,2.12,0,0,1,.66.64,3.74,3.74,0,0,1,.54,1.78c.06.64,0,1.28.07,1.91a3.55,3.55,0,0,0,.57,1.82,5.45,5.45,0,0,0,1.35,1.36c.51.38,1.06.7,1.58,1.05a7.58,7.58,0,0,1,1.44,1.15,7.4,7.4,0,0,1,1,1.48,29.52,29.52,0,0,1,1.3,3c.37,1,.68,1.85,1,2.67.59,1.64,1.08,3,1.49,3.84.2.44.36.78.49,1l.14.26A.31.31,0,0,1,34.56,70Z"/><path class="cls-4" d="M47,45.5a1.23,1.23,0,0,1-.25.14c-.16.08-.41.21-.71.39a10.89,10.89,0,0,0-2.3,1.87,11,11,0,0,0-1.24,1.64c-.19.33-.37.66-.54,1s-.31.73-.52,1.11a5.49,5.49,0,0,1-.69,1.1,3.6,3.6,0,0,1-1.08.82,10.75,10.75,0,0,0-1.19.68,2,2,0,0,0-.78,1.1c-.26.91-.12,1.89-.43,2.79A15.23,15.23,0,0,1,36,60.46a6,6,0,0,0-.68,2.23,8.79,8.79,0,0,0,0,2,18.17,18.17,0,0,0,.71,2.91l.24.78a1.2,1.2,0,0,1,.08.27l0-.06-.08-.2c-.06-.18-.16-.44-.27-.77a16.4,16.4,0,0,1-.76-2.91,8.59,8.59,0,0,1-.06-2.09,6,6,0,0,1,.68-2.29,20.81,20.81,0,0,0,1.26-2.29c.32-.85.15-1.82.42-2.78a2.2,2.2,0,0,1,.84-1.19,11.17,11.17,0,0,1,1.22-.68,3.29,3.29,0,0,0,1-.79,5.75,5.75,0,0,0,.69-1.07c.18-.37.35-.74.52-1.1a10.57,10.57,0,0,1,1.82-2.66A10.26,10.26,0,0,1,46,46c.24-.13.48-.25.73-.36L47,45.5Z"/><path class="cls-3" d="M6.44,55.86A3.25,3.25,0,0,0,4.69,59.2a10.57,10.57,0,0,1,4-.87"/><path class="cls-2" d="M5.57,56.5c-.63.61.74-1,1.31-1.16a3.32,3.32,0,0,1,1.74.07,21.74,21.74,0,0,1,7.64,2.71c2.34,1.59,4,4,5.56,6.37a3.37,3.37,0,0,1,.66,1.42,1.15,1.15,0,0,1-.7,1.27,1.58,1.58,0,0,1-.75,0l-3.72-.67a10.78,10.78,0,0,1-4.81-1.71c-1.56-1.21-2.33-3.18-3-5-.53-1.42-1.89-2.17-2.68-3.48C6.79,56.26,6.25,55.86,5.57,56.5Z"/><path class="cls-4" d="M29,70.91l-.25-.12L28,70.43c-.61-.32-1.49-.79-2.57-1.4a41.24,41.24,0,0,1-3.66-2.34c-.66-.48-1.34-1-2-1.59s-1.32-1.24-2-1.83a8.83,8.83,0,0,0-1.14-.78,7.85,7.85,0,0,0-1.22-.55c-.42-.15-.84-.28-1.23-.46a4.88,4.88,0,0,1-1.07-.69A8.9,8.9,0,0,1,11.59,59c-.41-.6-.77-1.18-1.14-1.67a5.59,5.59,0,0,0-2.19-1.85,4.21,4.21,0,0,0-1-.26H7.5a3,3,0,0,1,.78.19,5.62,5.62,0,0,1,2.26,1.84c.38.49.75,1.07,1.16,1.66a9,9,0,0,0,1.5,1.75,4.48,4.48,0,0,0,1,.66c.38.17.79.31,1.21.45a7.54,7.54,0,0,1,1.27.56,9,9,0,0,1,1.15.79c.75.6,1.4,1.25,2.06,1.84a25.36,25.36,0,0,0,2,1.6c1.31,1,2.56,1.72,3.63,2.35s1.93,1.11,2.52,1.44l.7.4A1.14,1.14,0,0,1,29,70.91Z"/><path class="cls-5" d="M82.32,56.71a42.93,42.93,0,0,1,8.92-.16c2.94.36,5.86,1.43,7.46,3.29,1.34,1.56,1.6,3.5,1.83,5.33l2,15.81a7.2,7.2,0,0,1-.27,4c-1.3,2.79-6.09,4.1-9.91,3.23A11.65,11.65,0,0,1,87.64,86a11.86,11.86,0,0,1-3.28-4c-1.36-2.78-1.54-5.78-1.69-8.72l-.87-16,.38-.26"/><path class="cls-5" d="M0,84,.92,87.3,88.67,113l30.19-20.09V90.17Z"/><path class="cls-6" d="M31.48,69.29l87.38,20.88L88.67,110,0,84Z"/><path class="cls-5" d="M77.58,87.21,60.87,95.36,30.23,86.93l15-8.28Z"/><path class="cls-6" d="M59.15,86.87l4.44,1.48L67.7,86.1l-6.84-2.22-4,2.09Z"/><path class="cls-5" d="M26.33,64.18c.14.56,3.9,22.75,3.9,22.75l30.63,8.43-4-23.74Z"/><path class="cls-6" d="M58.64,82.25s.58,2.93,1.19,6.54,1.08,6.56,1,6.57-.58-2.92-1.2-6.54S58.59,82.26,58.64,82.25Z"/><path class="cls-6" d="M44.42,79.18a1.78,1.78,0,0,1-.83,2.35,1.75,1.75,0,0,1-2.17-1.17A1.79,1.79,0,0,1,42.24,78,1.76,1.76,0,0,1,44.42,79.18Z"/><path class="cls-7" d="M56.83,71.62C58.19,70,59,59.2,59,59.2l10.11,1.15S67.63,76.21,63,78.11L58.4,80"/><path class="cls-8" d="M90,75s4.47,5,4.2,9.26l-7.94-1.91L89.36,75"/><path class="cls-8" d="M96.4,60.87a26.36,26.36,0,0,0-3.8-13.74A13.79,13.79,0,0,0,88,43.82a13.64,13.64,0,0,0-5.52-1.17l-9.42.16a21.5,21.5,0,0,0-7,2.06l-.24.06v0c-2.66,1.41-5.52,3.59-6,7.28l-1.14,7.17,6.55.32c-.66,2.4-1.4,2.71-.63,5.08L67.17,69c0,3.32-.22,1.31-1.24,8.53l25.3,6c1.47-1.46.35-5.42-3.56-12.6-.59-1.08,2.45-11.91,2.45-11.91l5.65,2"/><g class="cls-9"><path class="cls-10" d="M87.92,58.92s-4.12,9.17-.53,15.16l1.69-.63L87.67,71a2.79,2.79,0,0,1,0-1.15c.21-1.31.61-3.44,1.15-5.59Z"/></g><path class="cls-5" d="M81,25.82a10,10,0,0,1,3,7.33c.07,2.72-.17,5.8-.1,8.64l4.12-.08a83,83,0,0,0,8.42-.41A1.93,1.93,0,0,0,98.55,39a8.79,8.79,0,0,0-.07-3.43,2.94,2.94,0,0,0-2.37-2.2,3.62,3.62,0,0,1-1.19-.09,1.51,1.51,0,0,1-.54-.46,1.55,1.55,0,0,1-.27-.65c-.1-.47-.09-1-.16-1.42a3.92,3.92,0,0,0-.86-1.91,4,4,0,0,0-1.72-1.2c-.84-.29-1.86-.32-2.42-1s-.23-2.1-.19-3.19a4.06,4.06,0,0,0-.55-2.15,4,4,0,0,0-1.62-1.52,3.8,3.8,0,0,0-2.17-.41,4,4,0,0,0-2,.84"/><path class="cls-7" d="M77.85,47.86a4.83,4.83,0,0,1-3.34-1.35A5,5,0,0,1,73,43.2c-.08-2.1-.16-4.08-.16-4.08s-4-.38-4.26-4.33-.16-13.08-.16-13.08a13.54,13.54,0,0,1,13.8.89l.61.41-.18,20a4.85,4.85,0,0,1-1.43,3.42A4.78,4.78,0,0,1,77.85,47.86Z"/><path class="cls-5" d="M70.19,29.21a.56.56,0,0,0,.16-.29.66.66,0,0,0,0-.34.64.64,0,0,0-.21-.25.55.55,0,0,0-.32-.1.51.51,0,0,0-.32.1.57.57,0,0,0-.21.25.66.66,0,0,0,0,.34.54.54,0,0,0,.15.29.59.59,0,0,0,.19.13.54.54,0,0,0,.22,0,.57.57,0,0,0,.22,0A.46.46,0,0,0,70.19,29.21Z"/><path class="cls-5" d="M68.78,28c.07.07.44-.26,1-.29s.94.22,1,.15,0-.16-.22-.28a1.36,1.36,0,0,0-.81-.2,1.32,1.32,0,0,0-.77.32C68.8,27.85,68.75,28,68.78,28Z"/><path class="cls-5" d="M75,28.34a.57.57,0,0,0-.2.26.56.56,0,0,0,.14.63.54.54,0,0,0,.29.15.62.62,0,0,0,.33,0,.59.59,0,0,0,.34-.54.57.57,0,0,0-.47-.56.6.6,0,0,0-.43.1Z"/><path class="cls-5" d="M74.68,28.12c.06.07.43-.26,1-.29s.95.22,1,.15,0-.16-.21-.28a1.38,1.38,0,0,0-.81-.2,1.27,1.27,0,0,0-.77.32C74.7,28,74.64,28.09,74.68,28.12Z"/><path class="cls-5" d="M72.76,32.36a2.41,2.41,0,0,0-.88-.13c-.15,0-.26,0-.27-.11a.75.75,0,0,1,.07-.42c.12-.37.24-.74.36-1.13a15,15,0,0,0,.75-3,15.25,15.25,0,0,0-1,2.87c-.12.39-.23.77-.34,1.14a1,1,0,0,0,0,.6.32.32,0,0,0,.1.13.35.35,0,0,0,.16.08l.24,0A2.39,2.39,0,0,0,72.76,32.36Z"/><path class="cls-11" d="M74.55,32.85a10.17,10.17,0,0,1-2.6.95,1.5,1.5,0,0,0,.81.57,1.53,1.53,0,0,0,1-.08C74.9,33.77,74.55,32.85,74.55,32.85Z"/><path class="cls-12" d="M72.85,39.06a9.12,9.12,0,0,0,5-1.78s-1,2.92-5,2.81Z"/><path class="cls-5" d="M82.59,31.17c-1.42,1.15-3.14-1.83-3.9-3.7a18.52,18.52,0,0,1-1.1-6,2.94,2.94,0,0,1,.34-1.93c.38-.52.54.09,1-.39.84-.84,0-.84.88-.74,1.43.18,4.54,2.68,4.81,4.19a15.07,15.07,0,0,1-.16,4.59l-.3,2.08a3.29,3.29,0,0,1-.41,1.41,1,1,0,0,1-1.19.47"/><path class="cls-7" d="M82.64,27.9a.62.62,0,0,1,.16-.41.58.58,0,0,1,.4-.19c.74,0,1.93.27,2,2.31a1.89,1.89,0,0,1-2.63,2.1C82.61,31.63,82.63,29,82.64,27.9Z"/><path class="cls-12" d="M83.26,30.57l.14.07a.57.57,0,0,0,.18,0,.58.58,0,0,0,.19,0,1.28,1.28,0,0,0,.52-1.16,1.78,1.78,0,0,0-.18-.72.63.63,0,0,0-.16-.23.58.58,0,0,0-.24-.14.29.29,0,0,0-.18,0,.24.24,0,0,0-.11.13c0,.08,0,.14,0,.15s-.07-.05,0-.17a.32.32,0,0,1,.1-.19.37.37,0,0,1,.28-.09.69.69,0,0,1,.33.14.76.76,0,0,1,.22.28,1.75,1.75,0,0,1,.22.8,1.34,1.34,0,0,1-.67,1.3.45.45,0,0,1-.23,0,.63.63,0,0,1-.23-.08C83.27,30.64,83.25,30.58,83.26,30.57Z"/><path class="cls-5" d="M77.91,19.58a9.29,9.29,0,0,1-5.49,5.92.81.81,0,0,1-.34.08.77.77,0,0,1-.34-.08c-.24-.19-.15-.59.05-.83s.48-.39.63-.66L71,24.85a2.34,2.34,0,0,1-.75.31.71.71,0,0,1-.41,0,.72.72,0,0,1-.35-.22.51.51,0,0,1-.09-.18.44.44,0,0,1,0-.2.62.62,0,0,1,.07-.19.67.67,0,0,1,.14-.15,1.15,1.15,0,0,1-1.67.19,1.74,1.74,0,0,1-.47-.82,1.67,1.67,0,0,1,0-.94,3.63,3.63,0,0,1,1-1.6c2-2,5-2.71,7.81-2.91a8.79,8.79,0,0,1,2.61.12,5.3,5.3,0,0,1,3.71,1.82"/><path class="cls-5" d="M71,26.51c0,.1-.55,0-1.18,0s-1.15.15-1.19.06.47-.37,1.18-.39S71,26.43,71,26.51Z"/><path class="cls-5" d="M76.74,26.58c0,.09-.53,0-1.14,0s-1.12,0-1.15-.07.49-.3,1.16-.26S76.77,26.5,76.74,26.58Z"/><path class="cls-13" d="M84.29,24.87c-.05,0,.11-.31.22-.81a3.56,3.56,0,0,0-.11-1.94,3.49,3.49,0,0,0-1.14-1.56c-.4-.32-.7-.44-.69-.49s.36,0,.82.29a3.23,3.23,0,0,1,1.34,3.76C84.55,24.64,84.32,24.9,84.29,24.87Z"/><path class="cls-7" d="M87.92,58.92,90.17,73,72.06,79.86,75,86l19-6a6.47,6.47,0,0,0,3.59-2.85,6.59,6.59,0,0,0,.83-4.53L96,58.92Z"/><path class="cls-7" d="M72.18,79.81s-3.37-1.08-5-1.5c-.63-.16-3.33,1.28-5.19,2.47,0,0-2.56,1.54-2.36,2s1.18.41,2.69-.3c0,0-.53,1.54.5,1.5,0,0-.51,1.67.46,1.84s1.2-2,2.05-2.07S68,83.54,68,83.54s1.47,2.45,2.61,2.62A29.76,29.76,0,0,0,75.1,86Z"/><path class="cls-12" d="M65.35,80.49a14.57,14.57,0,0,1-2.64,1.68,13.46,13.46,0,0,1,2.64-1.68Z"/><path class="cls-12" d="M65.64,81.44a9.14,9.14,0,0,1-1.55.81,9.49,9.49,0,0,1-1.62.66A9.14,9.14,0,0,1,64,82.1a9.49,9.49,0,0,1,1.62-.66Z"/><path class="cls-12" d="M65.12,83.72A4,4,0,0,1,64,84a3.76,3.76,0,0,1-1.11.08A3.66,3.66,0,0,1,64,83.81,3.76,3.76,0,0,1,65.12,83.72Z"/></g></g></svg>