<svg xmlns="http://www.w3.org/2000/svg" viewBox="0 0 117 119.84"><defs><style>.cls-1{fill:#ebebeb;}.cls-2{fill:#49a69d;}.cls-3{fill:#81bcb8;}.cls-4{fill:#fff;}.cls-5{fill:#455a64;}.cls-6{fill:#037971;}.cls-7{fill:#e8fffd;}.cls-8{fill:#263238;}.cls-9{fill:#ffbe9d;}.cls-10{fill:#eb996e;}.cls-11{fill:#f06c9b;}.cls-12{fill:#fafafa;}.cls-13,.cls-14{opacity:0.2;}.cls-14{isolation:isolate;}</style></defs><title>slide9</title><g id="图层_2" data-name="图层 2"><g id="Layer_1" data-name="Layer 1"><path class="cls-1" d="M101.92,100.74l.72-1.59a5.85,5.85,0,0,0,.48-2.18,5.72,5.72,0,0,0-.4-2.2,5.94,5.94,0,0,0-1.21-1.88,5.72,5.72,0,0,0-1.84-1.27,5.7,5.7,0,0,0-4.39-.08,5.7,5.7,0,0,0-3.16,3l-.74,1.62a3.16,3.16,0,0,0-2.22.21A3.22,3.22,0,0,0,87.61,98l-4.12,9.43a3.42,3.42,0,0,0-.26,1.22,3.23,3.23,0,0,0,.22,1.23,3,3,0,0,0,.68,1,3.09,3.09,0,0,0,1,.72L95,115.92a3.19,3.19,0,0,0,1.22.27,3.17,3.17,0,0,0,2.29-.9,3.06,3.06,0,0,0,.71-1l4.12-9.43a3.21,3.21,0,0,0-1.4-4.09Zm-8.2,8.34L91.15,108l1.21-1.68a1.64,1.64,0,0,1-.3-1,1.69,1.69,0,0,1,.37-1,1.73,1.73,0,0,1,2.81.2,1.71,1.71,0,0,1,.23,1.06,1.74,1.74,0,0,1-.45,1,1.68,1.68,0,0,1-1,.51C93.93,107.8,93.72,109.08,93.72,109.08Zm7.07-8.84-8.26-3.58.72-1.58a4.45,4.45,0,0,1,2.48-2.34,4.49,4.49,0,0,1,5.78,5.91Z"/><path class="cls-2" d="M43.32,36.8l-1.64-2.86-2.57.38L37,31.65,38.07,29l-2.88-1.9-2.14,2.16-2.83-.49-1.14-3.32-3.42.36-.2,2.9L22.9,30l-2.71-1.92-2.75,2,1.42,3.06L17.23,35.6l-3-.15-.78,3.65,2.83,1.09.24,3.07-2.93,1.68L15,48.1l3-.46,2,2.31L19,52.83l2.77,2,2.17-2.34,3,.81.94,3.1,3.34-.23.43-2.78,2.86-1.64,2.34,1.86,3-2.2-1.5-2.61,1.46-2.61,3,.23L43.72,43l-2.58-1.39-.35-3.1Zm-11.64,10a6.74,6.74,0,0,1-3.83.88,6.72,6.72,0,0,1-6.06-8.48,6.76,6.76,0,0,1,5.66-4.93,6.74,6.74,0,0,1,7.39,8.45,6.74,6.74,0,0,1-1.17,2.35,6.87,6.87,0,0,1-2,1.73Z"/><path class="cls-1" d="M22,8.62c0-2.44-2.56-4-5.19-2.76a3,3,0,0,0-1.38,1.32,4.35,4.35,0,0,0,.23,3.94l2,5.16a.92.92,0,0,0,.33.4.84.84,0,0,0,.49.16.9.9,0,0,0,.82-.56l2-5.19A6.1,6.1,0,0,0,22,8.62Zm-2.46,2.13A1.92,1.92,0,0,1,17,8a1.5,1.5,0,0,1,.57-.6,1.94,1.94,0,0,1,2.59,2.74,1.52,1.52,0,0,1-.59.59Z"/><path class="cls-3" d="M20.16,110.77a6.76,6.76,0,0,0,.47-.93,4,4,0,0,0,.27-1.19,4.28,4.28,0,0,0-.22-1.74,4.18,4.18,0,0,0-5.24-2.59,4.18,4.18,0,0,0-2.89,4,4.27,4.27,0,0,0,.72,2.31A4.22,4.22,0,0,0,15,112.05a4.08,4.08,0,0,0,1.88.4,4.24,4.24,0,0,0,1.57-.33,4.07,4.07,0,0,0,1-.63,7.28,7.28,0,0,0,.73-.74l0,.06L20,111a2.62,2.62,0,0,1-.22.25,2.34,2.34,0,0,1-.32.31,3.8,3.8,0,0,1-1.05.66,4.14,4.14,0,0,1-1.59.36,4.3,4.3,0,0,1-2.09-.44,4.26,4.26,0,0,1-2.36-3.78,4.25,4.25,0,0,1,.8-2.56,4.32,4.32,0,0,1,2.18-1.58A4.29,4.29,0,0,1,20.82,107a4.23,4.23,0,0,1,.16,1.62,3.83,3.83,0,0,1-.29,1.2,2.93,2.93,0,0,1-.19.4,2.75,2.75,0,0,1-.17.29l-.12.17Z"/><path class="cls-3" d="M20.65,119.84s-.69-1.65-1.46-3.7-1.36-3.75-1.33-3.76.7,1.64,1.46,3.71S20.69,119.82,20.65,119.84Z"/><path class="cls-1" d="M103.61,12.75a2.15,2.15,0,0,1-.35,1.18,2.17,2.17,0,0,1-1,.79,2.15,2.15,0,0,1-1.23.12,2.15,2.15,0,0,1-1.68-1.66A2.15,2.15,0,0,1,99.51,12a2.14,2.14,0,0,1,2-1.32,2.3,2.3,0,0,1,.82.16,2.25,2.25,0,0,1,.69.46,2.14,2.14,0,0,1,.46.69,2.05,2.05,0,0,1,.16.81Z"/><path class="cls-1" d="M109.58,8.5a2.16,2.16,0,0,1-.36,1.18,2.1,2.1,0,0,1-1,.78,2.06,2.06,0,0,1-1.23.13,2.19,2.19,0,0,1-1.09-.58,2.11,2.11,0,0,1-.58-1.09,2.07,2.07,0,0,1,.9-2.18,2.08,2.08,0,0,1,1.18-.36A2.13,2.13,0,0,1,109,7,2.15,2.15,0,0,1,109.58,8.5Z"/><path class="cls-1" d="M109.59,17.5a2.14,2.14,0,1,1-4.26,0,2.14,2.14,0,1,1,4.26,0Z"/><path class="cls-1" d="M106.83,17.23a11.59,11.59,0,0,1-3.16-1.79,11.22,11.22,0,0,1-2.84-2.28A11.47,11.47,0,0,1,104,15,11.31,11.31,0,0,1,106.83,17.23Z"/><path class="cls-1" d="M107,8.35a9.7,9.7,0,0,1-2.44,2.26,9.33,9.33,0,0,1-2.81,1.79,9.92,9.92,0,0,1,2.45-2.25A9.78,9.78,0,0,1,107,8.35Z"/><path class="cls-3" d="M110.58,22.66c8.27,16.41,5.65,37.13-4.68,52.33s-27.5,25.06-45.56,28.64c-12.9,2.56-26.77,2-38.55-3.78S.74,82.34,0,69.24C-.23,64.3.82,59.05,4.13,55.36c5.3-5.89,14.31-6.11,22.23-5.86s16.94.06,22.25-5.81c4.08-4.52,4.68-11.06,6.83-16.75A31.53,31.53,0,0,1,78.05,7.6,30.77,30.77,0,0,1,82.33,7,30.36,30.36,0,0,1,109.9,21.54Z"/><path class="cls-4" d="M103,29.73,79.5,32,81,47.72l23.47-2.22Z"/><path class="cls-5" d="M104.47,45.51s0-.11,0-.29-.05-.48-.09-.84c-.07-.73-.18-1.81-.32-3.17-.27-2.75-.66-6.68-1.14-11.46l.09.08L79.51,32.07s.18-.23.1-.12v.26l0,.26.05.53c0,.34.07.69.1,1,.07.69.13,1.38.2,2.07.13,1.36.26,2.71.38,4,.25,2.64.49,5.18.71,7.58L81,47.63l16.9-1.55,4.85-.43,1.29-.11.34,0h.11l-.1,0-.32,0-1.28.13-4.81.48L81,47.82h-.1v-.1c-.23-2.4-.47-4.94-.73-7.58-.12-1.32-.25-2.67-.38-4-.07-.68-.13-1.37-.2-2.06,0-.35-.06-.7-.1-1l-.05-.52,0-.27V32l.1-.12L103,29.64h.09v.09c.43,4.81.79,8.76,1,11.52.12,1.36.22,2.42.29,3.16,0,.35,0,.63.07.82A.62.62,0,0,1,104.47,45.51Z"/><path class="cls-5" d="M103,29.73a1,1,0,0,1-.18.23l-.55.65L100.17,33l-7,7.74-.06.07-.08,0-.62-.4-9.19-5.87-2.77-1.8-.75-.5L79.5,32a1.59,1.59,0,0,1,.29.15l.77.46,2.8,1.75,9.23,5.82.62.4-.14,0,7-7.7,2.11-2.3c.25-.25.44-.46.57-.61a1.45,1.45,0,0,1,.22-.21Z"/><path class="cls-6" d="M11.61,62.08s2-1.37,4.56,3.43a62,62,0,0,1,3.55,7.58s.68,1,1.37.33,1.61-2.57,2.8-2.25,1.68,1.7,1.48,3.71-.48,6.47-.5,6.87.21,1,.76.59,3.63-4,5.24-2.39.13,7.11,0,7.72,0,.85.26,1,1.22-1.15,2.15-2.13,2.16-2,3-1,1.2,5.12-2.63,11.9l-2,3L28,100.38c-7.77-.77-11-3.41-11.28-4.67S17.93,94,19.26,93.8s2.93-.21,3-.53-.09-.57-.68-.79-6-2.2-6.35-4.41,4.34-2.7,5-2.92.29-.75-.05-1S16,81.65,14.21,80.65,11.56,78.52,12,77.32s2.51-.82,3.46-1S16,75,16,75a62.67,62.67,0,0,1-4.2-7.25c-2.48-4.85-.13-5.71-.13-5.71"/><path class="cls-7" d="M13.91,66.38l.06.09.13.25.52,1,1.91,3.65,6.32,12c2.47,4.7,4.71,9,6.28,12.06L31,99.15l.5,1,.12.27a.19.19,0,0,1,0,.09l0-.09-.14-.25c-.12-.24-.28-.57-.52-1L29,95.52c-1.61-3.09-3.85-7.35-6.33-12s-4.7-9-6.27-12.06c-.79-1.55-1.43-2.8-1.87-3.68l-.5-1L14,66.47Z"/><path class="cls-7" d="M22.72,73.88c0,.32-.11.64-.19,1L22,77.1c-.19.86-.38,1.71-.53,2.28-.08.28-.14.53-.19.69a1.22,1.22,0,0,1-.1.24c.05-.32.11-.64.19-1,.14-.63.31-1.42.49-2.3s.39-1.7.55-2.27c.08-.29.14-.53.2-.69a.85.85,0,0,1,.09-.22Z"/><path class="cls-7" d="M20.87,80.41s-1.68-.38-3.72-.93-3.71-1-3.69-1.06,1.67.38,3.72.92S20.88,80.37,20.87,80.41Z"/><path class="cls-7" d="M25.63,88.49a1.09,1.09,0,0,1-.26,0l-.73.06c-.61,0-1.46.06-2.4,0s-1.79-.08-2.4-.14l-.73-.08a1.1,1.1,0,0,1-.26-.06c.33,0,.66,0,1,0,.62,0,1.46.08,2.4.1s1.79,0,2.4,0A8.17,8.17,0,0,1,25.63,88.49Z"/><path class="cls-7" d="M28.61,83a6.21,6.21,0,0,1-.4.82c-.27.51-.64,1.2-1.06,2s-.8,1.44-1.09,1.93a6.28,6.28,0,0,1-.48.78,5.28,5.28,0,0,1,.4-.83c.26-.5.63-1.19,1.05-1.95s.81-1.43,1.09-1.92a5.14,5.14,0,0,1,.49-.78Z"/><path class="cls-8" d="M33.73,89.55a1.55,1.55,0,0,1-.14.29l-.4.76c-.35.64-.84,1.51-1.38,2.48s-1,1.83-1.43,2.46l-.44.73a1.27,1.27,0,0,1-.18.27,1.51,1.51,0,0,1,.13-.29l.41-.76c.34-.63.83-1.51,1.38-2.48s1-1.83,1.42-2.46l.45-.73a1.27,1.27,0,0,1,.18-.27Z"/><path class="cls-7" d="M29.82,96.35a2,2,0,0,1-.34,0l-.93,0c-.78,0-1.85,0-3-.05s-2.27-.15-3-.23L21.55,96a1.86,1.86,0,0,1-.34-.06h.34l.92.07c.78.06,1.85.13,3,.19s2.27.08,3,.1h.93a1.32,1.32,0,0,1,.34,0Z"/><path class="cls-5" d="M90.37,85.57a12.6,12.6,0,0,1-6-1.46l0,0c-4-3.66-5.44-9.72-4.09-17.53l.09-.61a5,5,0,0,1,.76-2.38,2.27,2.27,0,0,1,2.9-.76,3.35,3.35,0,0,1,1.14,1.76l.18.48a6.15,6.15,0,0,0,2.07,2.56,2.31,2.31,0,0,0,2,.46c.88-.33,1.14-1.49,1.27-2.46l.74-5.67a9.61,9.61,0,0,1,.73-3A3.3,3.3,0,0,1,94.49,55a2.34,2.34,0,0,1,.91.07,2.46,2.46,0,0,1,.8.42,1.91,1.91,0,0,1,.47.55,1.73,1.73,0,0,1,.21.69,3.06,3.06,0,0,1-.07.8,4.44,4.44,0,0,0-.07.49.94.94,0,0,0,.41.95c.27.12.62,0,1-.29a13,13,0,0,0,2.92-3.28l.2-.28A17.86,17.86,0,0,1,104,51.94a5.74,5.74,0,0,1,4.16-1.6,3.51,3.51,0,0,1,3.25,2.84c.14,1.25-.51,2.54-2,4A23.25,23.25,0,0,1,103.94,61a1.78,1.78,0,0,0-.86.67,1,1,0,0,0-.07.44,1,1,0,0,0,.15.41,1.82,1.82,0,0,0,.75.68,5.22,5.22,0,0,0,1.5.41,6.74,6.74,0,0,1,.83.18,2.52,2.52,0,0,1,1.92,1.56c.34,1.33-1.14,2.4-1.78,2.8a20,20,0,0,1-6.32,2.53l-.28.06a5.73,5.73,0,0,0-2,.66A1.76,1.76,0,0,0,97,73.29a1.86,1.86,0,0,0,1.86,1,7.4,7.4,0,0,0,1.54-.32c.26-.08.53-.16.81-.22,1.46-.33,3.4,0,4.19,1.42a3.19,3.19,0,0,1,.35,1.51,3.4,3.4,0,0,1-.38,1.5,7.69,7.69,0,0,1-1.94,2.34,20.07,20.07,0,0,1-9.32,4.71A18.23,18.23,0,0,1,90.37,85.57Zm-5.88-1.7c2.8,1.45,5.73,1.77,9.51,1a19.92,19.92,0,0,0,9.18-4.65A7.52,7.52,0,0,0,105.05,78a3.09,3.09,0,0,0,.35-1.37,3,3,0,0,0-.31-1.38c-.73-1.3-2.52-1.57-3.88-1.27-.27.06-.54.14-.8.21a6.24,6.24,0,0,1-1.6.33,2.1,2.1,0,0,1-2.14-1.18,2,2,0,0,1,1-2.23,6,6,0,0,1,2.07-.7l.28-.06a19.38,19.38,0,0,0,6.23-2.49c.6-.36,2-1.34,1.65-2.49-.22-.89-1.27-1.24-1.71-1.36-.26-.06-.54-.12-.81-.16a5.91,5.91,0,0,1-1.58-.44,2.09,2.09,0,0,1-.85-.79,1.1,1.1,0,0,1-.19-.55,1,1,0,0,1,.1-.57,2.06,2.06,0,0,1,1-.8,22.76,22.76,0,0,0,5.37-3.81c1.42-1.35,2-2.56,1.9-3.72a3.23,3.23,0,0,0-3-2.58,5.55,5.55,0,0,0-3.94,1.53,17.59,17.59,0,0,0-2.59,3.13l-.2.29a14,14,0,0,1-3,3.34,1.35,1.35,0,0,1-1.33.33A1.2,1.2,0,0,1,96.45,58a4.34,4.34,0,0,1,.08-.52,3.54,3.54,0,0,0,.07-.73,1.51,1.51,0,0,0-.18-.58,1.53,1.53,0,0,0-.39-.45,2,2,0,0,0-.7-.37,1.92,1.92,0,0,0-.79-.07A3.06,3.06,0,0,0,92.36,57,9.46,9.46,0,0,0,91.65,60l-.74,5.67c-.14,1.05-.43,2.3-1.46,2.69a2.58,2.58,0,0,1-2.23-.5,6.26,6.26,0,0,1-2.16-2.67c-.07-.16-.13-.33-.19-.49a3.06,3.06,0,0,0-1-1.62,2,2,0,0,0-2.52.69A4.89,4.89,0,0,0,80.62,66a6,6,0,0,1-.09.61C79.6,72,79.52,79.33,84.49,83.87Z"/><path class="cls-8" d="M84.79,86.45c.56-2.39.42-3.13,1.76-6.07a92.93,92.93,0,0,1,5-9.27L93,68.75c.47-.77.94-1.54,1.45-2.27a44.88,44.88,0,0,1,3.15-4c1.06-1.22,2.12-2.34,3.11-3.38s2-2,2.86-2.82a36.81,36.81,0,0,1,4.54-3.6c.57-.38,1-.66,1.33-.85l.35-.21.12-.07-.11.08-.34.23c-.31.19-.75.48-1.31.87a38.4,38.4,0,0,0-4.51,3.64c-.9.83-1.84,1.78-2.83,2.82s-2,2.17-3.1,3.39a46.12,46.12,0,0,0-3.14,4c-.5.72-1,1.48-1.42,2.26L91.7,71.19a92.62,92.62,0,0,0-5,9.25c-1.35,2.93-1.21,3.66-1.78,6"/><path class="cls-8" d="M94.48,66.48a2.12,2.12,0,0,1,0-.44c0-.28,0-.7,0-1.22,0-1,0-2.45.09-4s.06-3,0-4c0-.51,0-.93,0-1.21a1.7,1.7,0,0,1,0-.45,3.32,3.32,0,0,1,.06.44c0,.29.06.71.09,1.22,0,1,0,2.45,0,4s-.1,3-.13,4c0,.5,0,.91,0,1.22a3.17,3.17,0,0,1,0,.44Z"/><path class="cls-8" d="M108,65.86a.33.33,0,0,1-.14,0l-.4,0-1.45-.06c-1.23,0-2.93,0-4.81.06s-3.56.24-4.79.39c-.61.07-1.1.14-1.44.19l-.4.06h-.13l.13,0,.39-.08c.34-.07.83-.16,1.44-.24,1.22-.18,2.92-.35,4.8-.45a47.75,47.75,0,0,1,4.81,0c.62,0,1.12.08,1.46.11l.39.06.14,0Z"/><path class="cls-8" d="M86.73,80.16a.87.87,0,0,1-.07-.17c0-.13-.09-.29-.15-.5-.14-.44-.32-1.08-.54-1.87-.43-1.58-1-3.77-1.51-6.21S83.4,66.78,83,65.19c-.2-.78-.37-1.42-.49-1.88l-.13-.51a.52.52,0,0,1,0-.18,1.34,1.34,0,0,1,.07.18c0,.13.09.29.15.5.14.43.32,1.07.54,1.86.43,1.58,1,3.78,1.5,6.22S85.68,76,86.08,77.6c.2.77.36,1.42.48,1.87l.13.51a1.16,1.16,0,0,1,0,.18Z"/><path class="cls-8" d="M105.07,77a.61.61,0,0,1-.18.05l-.54.09-2,.34c-1.66.29-4,.71-6.47,1.18s-4.82.89-6.49,1.14l-2,.29-.54.06-.19,0,.19,0,.53-.09,2-.34c1.66-.28,3.94-.71,6.47-1.18s4.82-.88,6.48-1.14l2-.29.54-.06.19,0Z"/><path class="cls-8" d="M77.52,117.65l-40-.18a8.77,8.77,0,0,1-6.14-2.58,8.67,8.67,0,0,1-2.52-6.16L29.25,8.65A8.71,8.71,0,0,1,38,0L78,.18a8.77,8.77,0,0,1,6.15,2.58,8.68,8.68,0,0,1,2.53,6.16L86.29,109a8.72,8.72,0,0,1-8.77,8.65Z"/><path class="cls-7" d="M78,3.63l-7.76,0a1.91,1.91,0,0,0-1.35.59,1.86,1.86,0,0,0-.54,1.36V7a1.93,1.93,0,0,1-1.89,2L51.29,8.85A1.94,1.94,0,0,1,50,8.25a1.87,1.87,0,0,1-.53-1.38V5.47a1.93,1.93,0,0,0-1.88-2H44.81L38,3.46a6.12,6.12,0,0,0-6.14,6.07l-.41,97.68a6.08,6.08,0,0,0,1.77,4.32,6.15,6.15,0,0,0,4.31,1.8l40,.18a6.05,6.05,0,0,0,2.34-.45,6.15,6.15,0,0,0,2-1.31,6.06,6.06,0,0,0,1.8-4.3l.42-97.69a6.19,6.19,0,0,0-.45-2.33,6.13,6.13,0,0,0-3.29-3.32A6.27,6.27,0,0,0,78,3.63Z"/><path class="cls-3" d="M81.26,54.83a.36.36,0,0,1-.21-.11A.33.33,0,0,1,81,54.5a.32.32,0,0,1,.08-.21.36.36,0,0,1,.21-.11.33.33,0,0,1,.21.11.29.29,0,0,1,.09.21.29.29,0,0,1-.09.22.33.33,0,0,1-.21.11Z"/><path class="cls-3" d="M81.11,57a.32.32,0,0,1-.2-.12.37.37,0,0,1,0-.23.26.26,0,0,1,.1-.2.34.34,0,0,1,.21-.08.32.32,0,0,1,.2.12.28.28,0,0,1,0,.23.3.3,0,0,1-.1.21.27.27,0,0,1-.21.07Z"/><path class="cls-3" d="M80.76,59.12a.36.36,0,0,1-.19-.15.31.31,0,0,1,0-.23.25.25,0,0,1,.12-.19.29.29,0,0,1,.22-.07.32.32,0,0,1,.18.14.31.31,0,0,1,0,.23.32.32,0,0,1-.12.2.36.36,0,0,1-.22.07Z"/><path class="cls-3" d="M80.21,61.2A.37.37,0,0,1,80,61a.3.3,0,0,1,0-.23.31.31,0,0,1,.14-.18.28.28,0,0,1,.22-.05.3.3,0,0,1,.17.16.37.37,0,0,1,0,.23.38.38,0,0,1-.14.19.31.31,0,0,1-.23,0Z"/><path class="cls-3" d="M79.47,63.24a.34.34,0,0,1-.16-.1.33.33,0,0,1-.08-.18.25.25,0,0,1,0-.19.32.32,0,0,1,.14-.14.31.31,0,0,1,.19,0,.27.27,0,0,1,.18.08.26.26,0,0,1,.09.17.31.31,0,0,1,0,.19.3.3,0,0,1-.06.11.31.31,0,0,1-.09.07.27.27,0,0,1-.12,0Z"/><path class="cls-3" d="M78.56,65.19a.31.31,0,0,1-.11-.19.3.3,0,0,1,0-.21.33.33,0,0,1,.16-.15.3.3,0,0,1,.21,0,.27.27,0,0,1,.11.18.26.26,0,0,1,0,.21.28.28,0,0,1-.15.15.39.39,0,0,1-.21,0Z"/><path class="cls-3" d="M77.46,67.06a.37.37,0,0,1-.12-.2.32.32,0,0,1,.06-.23.28.28,0,0,1,.18-.14.26.26,0,0,1,.23,0,.31.31,0,0,1,.11.2.33.33,0,0,1,0,.22.33.33,0,0,1-.19.14A.31.31,0,0,1,77.46,67.06Z"/><path class="cls-3" d="M76.21,68.82a.3.3,0,0,1-.1-.21.32.32,0,0,1,.06-.23.37.37,0,0,1,.2-.12.37.37,0,0,1,.23,0,.35.35,0,0,1,.1.21.29.29,0,0,1-.07.22.35.35,0,0,1-.19.13.37.37,0,0,1-.23,0Z"/><path class="cls-3" d="M74.79,70.45a.31.31,0,0,1-.07-.21A.35.35,0,0,1,74.8,70a.35.35,0,0,1,.21-.1.29.29,0,0,1,.22.06.32.32,0,0,1,.08.21.31.31,0,0,1-.09.22.35.35,0,0,1-.2.1.32.32,0,0,1-.23-.06Z"/><path class="cls-3" d="M73.24,72a.29.29,0,0,1-.06-.22.31.31,0,0,1,.11-.2.29.29,0,0,1,.21-.09.35.35,0,0,1,.22.08.47.47,0,0,1,0,.1.25.25,0,0,1,0,.12.27.27,0,0,1,0,.12l-.08.09-.1.07-.11,0-.12,0Z"/><path class="cls-3" d="M71.55,73.31a.4.4,0,0,1-.09-.17.31.31,0,0,1,0-.19.24.24,0,0,1,.13-.15.38.38,0,0,1,.19,0,.4.4,0,0,1,.18.07.39.39,0,0,1,.11.17.31.31,0,0,1-.12.35.21.21,0,0,1-.1.06l-.12,0-.11,0a.23.23,0,0,1-.1-.07Z"/><path class="cls-3" d="M69.75,74.51a.37.37,0,0,1,0-.23.34.34,0,0,1,.15-.18.27.27,0,0,1,.23,0,.25.25,0,0,1,.19.12.34.34,0,0,1,0,.22.37.37,0,0,1-.14.18.37.37,0,0,1-.23.05.33.33,0,0,1-.2-.11Z"/><path class="cls-3" d="M67.85,75.54a.3.3,0,0,1,0-.21.33.33,0,0,1,.36-.19.4.4,0,0,1,.19.11.33.33,0,0,1,0,.22.36.36,0,0,1-.15.15.41.41,0,0,1-.22,0,.42.42,0,0,1-.18-.11Z"/><path class="cls-3" d="M65.86,76.39a.36.36,0,0,1,0-.23.34.34,0,0,1,.18-.15.31.31,0,0,1,.23,0,.27.27,0,0,1,.17.16.34.34,0,0,1,0,.22.37.37,0,0,1-.17.16.36.36,0,0,1-.23,0,.34.34,0,0,1-.18-.15Z"/><path class="cls-3" d="M63.8,77.06a.37.37,0,0,1,.05-.23.42.42,0,0,1,.18-.14.36.36,0,0,1,.23,0,.4.4,0,0,1,.17.17.33.33,0,0,1-.05.22.3.3,0,0,1-.19.14.31.31,0,0,1-.23,0,.37.37,0,0,1-.16-.17Z"/><path class="cls-3" d="M61.69,77.54a.34.34,0,0,1,.07-.22.37.37,0,0,1,.2-.12.35.35,0,0,1,.22,0,.35.35,0,0,1,.15.17.35.35,0,0,1-.08.22.27.27,0,0,1-.19.11.28.28,0,0,1-.22,0A.35.35,0,0,1,61.69,77.54Z"/><path class="cls-3" d="M59.54,77.82a.43.43,0,0,1,.09-.22.41.41,0,0,1,.21-.1.33.33,0,0,1,.22.06.35.35,0,0,1,.13.19.31.31,0,0,1-.09.22.32.32,0,0,1-.21.1.3.3,0,0,1-.22-.06A.41.41,0,0,1,59.54,77.82Z"/><path class="cls-3" d="M57.38,77.9a.33.33,0,0,1,.11-.2.32.32,0,0,1,.21-.08.35.35,0,0,1,.22.08.25.25,0,0,1,0,.41.35.35,0,0,1-.22.08.32.32,0,0,1-.21-.08.33.33,0,0,1-.11-.21Z"/><path class="cls-3" d="M55.21,77.8a.37.37,0,0,1,.12-.2.34.34,0,0,1,.44,0,.27.27,0,0,1,.09.21.29.29,0,0,1-.13.19.34.34,0,0,1-.22.07.38.38,0,0,1-.2-.1A.35.35,0,0,1,55.21,77.8Z"/><path class="cls-3" d="M53.07,77.5a.3.3,0,0,1,.14-.19.31.31,0,0,1,.23,0,.28.28,0,0,1,.21.1.33.33,0,0,1,.07.23.28.28,0,0,1-.14.18.32.32,0,0,1-.23,0,.37.37,0,0,1-.2-.12.34.34,0,0,1-.07-.22Z"/><path class="cls-3" d="M51,77a.31.31,0,0,1,.16-.16.31.31,0,0,1,.23,0,.38.38,0,0,1,.19.14.36.36,0,0,1,.05.22.3.3,0,0,1-.16.17.3.3,0,0,1-.23,0,.36.36,0,0,1-.19-.13A.37.37,0,0,1,51,77Z"/><path class="cls-3" d="M48.9,76.32a.34.34,0,0,1,.18-.15.3.3,0,0,1,.23,0,.33.33,0,0,1,.2.38.28.28,0,0,1-.17.15.31.31,0,0,1-.23,0,.34.34,0,0,1-.18-.15.45.45,0,0,1,0-.23Z"/><path class="cls-3" d="M46.92,75.45a.3.3,0,0,1,.19-.14.37.37,0,0,1,.23,0,.3.3,0,0,1,.16.17.25.25,0,0,1-.18.37.29.29,0,0,1-.24,0,.3.3,0,0,1-.16-.17.33.33,0,0,1,0-.24Z"/><path class="cls-3" d="M45,74.4a.34.34,0,0,1,.08-.09.34.34,0,0,1,.12-.06h.13l.12,0a.26.26,0,0,1,.09.09.24.24,0,0,1,.06.11.62.62,0,0,1,0,.13.42.42,0,0,1,0,.12.39.39,0,0,1-.2.16.31.31,0,0,1-.25,0A.31.31,0,0,1,45,74.4Z"/><path class="cls-3" d="M43.24,73.19a.3.3,0,0,1,.2-.1.33.33,0,0,1,.22.06.35.35,0,0,1,.13.19.31.31,0,0,1,0,.23.32.32,0,0,1-.21.1.43.43,0,0,1-.22-.06.33.33,0,0,1-.12-.19.31.31,0,0,1,0-.23Z"/><path class="cls-3" d="M41.56,71.82a.35.35,0,0,1,.22-.08.27.27,0,0,1,.22.08.36.36,0,0,1,.11.2.32.32,0,0,1-.06.23.33.33,0,0,1-.1.06.2.2,0,0,1-.11,0,.27.27,0,0,1-.12,0,.33.33,0,0,1-.1-.06A.4.4,0,0,1,41.5,72,.29.29,0,0,1,41.56,71.82Z"/><path class="cls-3" d="M40,70.31a.3.3,0,0,1,.22-.06.28.28,0,0,1,.21.1.32.32,0,0,1,0,.42.33.33,0,0,1-.43,0,.32.32,0,0,1,0-.42Z"/><path class="cls-3" d="M38.62,68.65a.37.37,0,0,1,.23,0,.37.37,0,0,1,.2.12.34.34,0,0,1,.07.22.37.37,0,0,1-.09.21.31.31,0,0,1-.23,0,.32.32,0,0,1-.2-.12.34.34,0,0,1-.07-.22A.4.4,0,0,1,38.62,68.65Z"/><path class="cls-3" d="M37.38,66.89a.36.36,0,0,1,.23,0,.32.32,0,0,1,.18.14.29.29,0,0,1,.06.22.36.36,0,0,1-.11.2.3.3,0,0,1-.23,0,.34.34,0,0,1-.18-.13.32.32,0,0,1,0-.23A.32.32,0,0,1,37.38,66.89Z"/><path class="cls-3" d="M36.3,65a.36.36,0,0,1,.23,0,.29.29,0,0,1,.16.15.31.31,0,0,1-.08.41.36.36,0,0,1-.23,0,.29.29,0,0,1-.16-.15.28.28,0,0,1,0-.22A.31.31,0,0,1,36.3,65Z"/><path class="cls-3" d="M35.4,63.05a.36.36,0,0,1,.23,0,.37.37,0,0,1,.16.17.36.36,0,0,1,0,.23.38.38,0,0,1-.15.18.29.29,0,0,1-.22,0,.28.28,0,0,1-.16-.16.31.31,0,0,1,0-.23.32.32,0,0,1,.14-.18Z"/><path class="cls-3" d="M34.68,61a.37.37,0,0,1,.23.05.28.28,0,0,1,.14.18.31.31,0,0,1,0,.23.31.31,0,0,1-.16.16.33.33,0,0,1-.22,0,.38.38,0,0,1-.15-.18.3.3,0,0,1,0-.23.35.35,0,0,1,.15-.17Z"/><path class="cls-3" d="M34.16,58.93a.35.35,0,0,1,.22.06.37.37,0,0,1,.12.2.42.42,0,0,1,0,.22.35.35,0,0,1-.17.15.34.34,0,0,1-.22-.07A.28.28,0,0,1,34,59.3a.29.29,0,0,1,0-.22.35.35,0,0,1,.17-.15Z"/><path class="cls-3" d="M33.83,56.78a.32.32,0,0,1,.21.08.33.33,0,0,1,.11.21.33.33,0,0,1,0,.22.3.3,0,0,1-.19.13.35.35,0,0,1-.22-.08.32.32,0,0,1-.1-.2.37.37,0,0,1,0-.23.33.33,0,0,1,.19-.13Z"/><path class="cls-3" d="M33.69,54.63a.35.35,0,0,1,.21.1.32.32,0,0,1,.08.21.29.29,0,0,1-.07.22.37.37,0,0,1-.2.12.36.36,0,0,1-.21-.11.37.37,0,0,1-.09-.21.35.35,0,0,1,.08-.22A.31.31,0,0,1,33.69,54.63Z"/><path class="cls-3" d="M33.75,52.47a.35.35,0,0,1,.2.12.34.34,0,0,1,.07.22.32.32,0,0,1-.1.21.35.35,0,0,1-.21.1.37.37,0,0,1-.2-.12.31.31,0,0,1-.07-.22.31.31,0,0,1,.31-.31Z"/><path class="cls-3" d="M34,50.32a.42.42,0,0,1,.18.14.37.37,0,0,1,0,.23.56.56,0,0,1-.11.2.25.25,0,0,1-.4-.06.37.37,0,0,1,0-.23.33.33,0,0,1,.11-.2A.35.35,0,0,1,34,50.32Z"/><path class="cls-3" d="M34.44,48.21a.34.34,0,0,1,.18.15.31.31,0,0,1,0,.23.39.39,0,0,1-.13.2.37.37,0,0,1-.23.05.32.32,0,0,1-.21-.39.37.37,0,0,1,.14-.19.33.33,0,0,1,.22,0Z"/><path class="cls-3" d="M35.08,46.15a.3.3,0,0,1,.16.17.3.3,0,0,1,0,.23.33.33,0,0,1-.14.17.37.37,0,0,1-.23,0,.31.31,0,0,1-.15-.17.31.31,0,0,1,0-.23.38.38,0,0,1,.15-.18A.29.29,0,0,1,35.08,46.15Z"/><path class="cls-3" d="M35.91,44.14a.34.34,0,0,1,.15.18.3.3,0,0,1,0,.23.33.33,0,0,1-.16.17.39.39,0,0,1-.24,0,.38.38,0,0,1-.15-.18.33.33,0,0,1,0-.24.31.31,0,0,1,.16-.16A.33.33,0,0,1,35.91,44.14Z"/><path class="cls-3" d="M36.92,42.24a.33.33,0,0,1,.13.19.33.33,0,0,1,0,.24.36.36,0,0,1-.19.15.31.31,0,0,1-.23,0,.3.3,0,0,1-.14-.19.33.33,0,0,1,0-.24.36.36,0,0,1,.19-.15.33.33,0,0,1,.24,0Z"/><path class="cls-3" d="M38.09,40.42a.32.32,0,0,1,.1.21.36.36,0,0,1,0,.22A.41.41,0,0,1,38,41a.31.31,0,0,1-.23,0,.26.26,0,0,1-.1-.2.33.33,0,0,1,.05-.22.35.35,0,0,1,.19-.13.36.36,0,0,1,.23,0Z"/><path class="cls-3" d="M39.43,38.73a.35.35,0,0,1,.08.22.3.3,0,0,1-.08.21.28.28,0,0,1-.2.12.28.28,0,0,1-.23-.05.32.32,0,0,1-.08-.21A.34.34,0,0,1,39,38.8a.33.33,0,0,1,.2-.11.37.37,0,0,1,.23,0Z"/><path class="cls-3" d="M40.91,37.15a.31.31,0,0,1,.11.16.25.25,0,0,1,0,.19.31.31,0,0,1-.11.16.33.33,0,0,1-.18.08.46.46,0,0,1-.2-.05.47.47,0,0,1-.13-.15.41.41,0,0,1,0-.19.31.31,0,0,1,.09-.17.39.39,0,0,1,.1-.08l.11,0,.12,0a.21.21,0,0,1,.1.06Z"/><path class="cls-3" d="M42.53,35.72a.36.36,0,0,1,.11.16.32.32,0,0,1-.13.35.33.33,0,0,1-.38,0,.35.35,0,0,1-.12-.15.32.32,0,0,1,.09-.36.31.31,0,0,1,.22-.09.27.27,0,0,1,.21.09Z"/><path class="cls-3" d="M44.28,34.44a.36.36,0,0,1,0,.23.29.29,0,0,1-.13.18.31.31,0,0,1-.22.06.33.33,0,0,1-.21-.11.3.3,0,0,1,0-.23.26.26,0,0,1,.13-.18.29.29,0,0,1,.22-.06.36.36,0,0,1,.21.11Z"/><path class="cls-3" d="M46.13,33.33a.32.32,0,0,1-.14.41.32.32,0,0,1-.23,0,.39.39,0,0,1-.2-.13.27.27,0,0,1,0-.12.25.25,0,0,1,0-.12.27.27,0,0,1,.06-.1l.1-.07a.21.21,0,0,1,.11,0,.24.24,0,0,1,.12,0l.11,0,.08.09Z"/><path class="cls-3" d="M48.08,32.38a.37.37,0,0,1,0,.23.31.31,0,0,1-.16.16.31.31,0,0,1-.23,0,.3.3,0,0,1-.19-.14.37.37,0,0,1,0-.23.31.31,0,0,1,.16-.16.31.31,0,0,1,.23,0,.33.33,0,0,1,.19.14Z"/><path class="cls-3" d="M50.1,31.62a.31.31,0,0,1,0,.23.38.38,0,0,1-.18.15.33.33,0,0,1-.24,0,.3.3,0,0,1-.16-.17.28.28,0,0,1,0-.22.35.35,0,0,1,.42-.15A.35.35,0,0,1,50.1,31.62Z"/><path class="cls-3" d="M52.19,31.06a.37.37,0,0,1-.06.22.35.35,0,0,1-.19.12.36.36,0,0,1-.23,0,.35.35,0,0,1-.15-.17.32.32,0,0,1,.47-.32.3.3,0,0,1,.16.17Z"/><path class="cls-3" d="M54.32,30.66a.34.34,0,0,1-.07.22A.36.36,0,0,1,54,31a.32.32,0,0,1-.23,0,.33.33,0,0,1-.13-.19.37.37,0,0,1,0-.11l.06-.11.1-.07a.2.2,0,0,1,.11,0h.12a.21.21,0,0,1,.11,0l.09.08A.36.36,0,0,1,54.32,30.66Z"/><path class="cls-3" d="M56.49,30.49a.25.25,0,0,1,0,.19.37.37,0,0,1-.13.15.37.37,0,0,1-.37,0,.42.42,0,0,1-.11-.16.34.34,0,0,1,0-.2.36.36,0,0,1,.11-.16.31.31,0,0,1,.18-.07.32.32,0,0,1,.23.06.33.33,0,0,1,.11.21Z"/><path class="cls-3" d="M58.65,30.49a.41.41,0,0,1-.12.2.34.34,0,0,1-.22.07.29.29,0,0,1-.21-.09.28.28,0,0,1-.1-.21.33.33,0,0,1,.11-.2.34.34,0,0,1,.22-.07.31.31,0,0,1,.22.09.38.38,0,0,1,.1.21Z"/><path class="cls-3" d="M60.8,30.69a.34.34,0,0,1-.13.18.32.32,0,0,1-.23.05.32.32,0,0,1-.2-.1.35.35,0,0,1-.08-.22.34.34,0,0,1,.13-.18.32.32,0,0,1,.23-.06.31.31,0,0,1,.2.11.35.35,0,0,1,.08.22Z"/><path class="cls-3" d="M62.93,31.08a.3.3,0,0,1-.15.18.31.31,0,0,1-.23,0,.39.39,0,0,1-.19-.12.32.32,0,0,1-.06-.23.33.33,0,0,1,.15-.18.36.36,0,0,1,.23,0,.33.33,0,0,1,.25.35Z"/><path class="cls-3" d="M65,31.67a.35.35,0,0,1-.17.17.36.36,0,0,1-.23,0,.3.3,0,0,1-.18-.15.27.27,0,0,1,0-.23.31.31,0,0,1,.16-.16.33.33,0,0,1,.24,0,.38.38,0,0,1,.18.15A.37.37,0,0,1,65,31.67Z"/><path class="cls-3" d="M67.05,32.45a.42.42,0,0,1-.18.14.36.36,0,0,1-.23,0,.37.37,0,0,1-.17-.16.24.24,0,0,1,.16-.37.37.37,0,0,1,.23,0,.31.31,0,0,1,.16.16.31.31,0,0,1,0,.23Z"/><path class="cls-3" d="M69,33.4a.33.33,0,0,1-.19.14.31.31,0,0,1-.23,0,.33.33,0,0,1-.1-.06.24.24,0,0,1-.06-.11.2.2,0,0,1,0-.11.27.27,0,0,1,0-.12l.08-.09.11,0h.12a.25.25,0,0,1,.11,0,.31.31,0,0,1,.09.07.61.61,0,0,1,.07.1.5.5,0,0,1,0,.12l0,.11Z"/><path class="cls-3" d="M70.82,34.54a.31.31,0,0,1-.2.11.29.29,0,0,1-.22-.06.28.28,0,0,1-.14-.18.26.26,0,0,1,0-.23.33.33,0,0,1,.2-.11.37.37,0,0,1,.23,0,.34.34,0,0,1,.14.19.31.31,0,0,1,0,.23Z"/><path class="cls-3" d="M72.56,35.83a.4.4,0,0,1-.21.09.41.41,0,0,1-.22-.07.37.37,0,0,1-.12-.2.37.37,0,0,1,0-.23.34.34,0,0,1,.21-.08.29.29,0,0,1,.22.07.33.33,0,0,1,.12.19A.37.37,0,0,1,72.56,35.83Z"/><path class="cls-3" d="M74.18,37.27a.29.29,0,0,1-.22.07.29.29,0,0,1-.21-.09.32.32,0,0,1-.1-.21.31.31,0,0,1,.06-.22.34.34,0,0,1,.22-.07.35.35,0,0,1,.21.1.3.3,0,0,1,.1.2.33.33,0,0,1-.06.22Z"/><path class="cls-3" d="M75.64,38.85a.31.31,0,0,1-.43-.05.35.35,0,0,1-.08-.22.26.26,0,0,1,.31-.27.33.33,0,0,1,.21.11.35.35,0,0,1,.08.22.27.27,0,0,1-.09.21Z"/><path class="cls-3" d="M77,40.56a.28.28,0,0,1-.22,0,.31.31,0,0,1-.19-.13.32.32,0,0,1-.06-.21.35.35,0,0,1,.1-.21.4.4,0,0,1,.22,0,.36.36,0,0,1,.19.13.33.33,0,0,1,.06.22.3.3,0,0,1-.1.2Z"/><path class="cls-3" d="M78.13,42.38a.28.28,0,0,1-.12,0h-.13a.34.34,0,0,1-.12-.06.39.39,0,0,1-.08-.1.21.21,0,0,1,0-.12.28.28,0,0,1,0-.13.39.39,0,0,1,.06-.11.43.43,0,0,1,.1-.09.35.35,0,0,1,.25,0,.37.37,0,0,1,.2.15.37.37,0,0,1,0,.25.31.31,0,0,1-.15.2Z"/><path class="cls-3" d="M79.12,44.3a.3.3,0,0,1-.23,0,.33.33,0,0,1-.17-.16.31.31,0,0,1,0-.23.33.33,0,0,1,.13-.19.3.3,0,0,1,.23,0,.3.3,0,0,1,.17.16.26.26,0,0,1,0,.23.34.34,0,0,1-.13.18Z"/><path class="cls-3" d="M79.93,46.31a.31.31,0,0,1-.23,0,.33.33,0,0,1-.15-.18.3.3,0,0,1,0-.23.27.27,0,0,1,.16-.17.29.29,0,0,1,.22,0,.3.3,0,0,1,.15.18.28.28,0,0,1,0,.22.34.34,0,0,1-.15.18Z"/><path class="cls-3" d="M80.55,48.37a.34.34,0,0,1-.22,0,.36.36,0,0,1-.13-.19.34.34,0,0,1,0-.22.33.33,0,0,1,.17-.16.34.34,0,0,1,.22,0,.34.34,0,0,1,.11.42A.31.31,0,0,1,80.55,48.37Z"/><path class="cls-3" d="M81,50.49a.39.39,0,0,1-.23-.07.33.33,0,0,1,.11-.57.37.37,0,0,1,.23.07.32.32,0,0,1,.07.43.31.31,0,0,1-.18.14Z"/><path class="cls-3" d="M81.22,52.64a.35.35,0,0,1-.21-.1.31.31,0,0,1-.09-.21.27.27,0,0,1,.06-.21.23.23,0,0,1,.4,0,.3.3,0,0,1,.1.2.34.34,0,0,1-.07.22A.29.29,0,0,1,81.22,52.64Z"/><path class="cls-4" d="M72.62,70.24a21.88,21.88,0,1,0-31,0A21.8,21.8,0,0,0,72.62,70.24Z"/><path class="cls-8" d="M70.67,48.4c-.06-1.61.94-3.26.35-4.76-.44-1.11-1.63-1.78-2.11-2.88a5.83,5.83,0,0,1,0-3.41,3.8,3.8,0,0,0-.57-3.29c-.67-.68-1.73-.83-2.43-1.47A3.36,3.36,0,0,1,65,30.24c-.06-.86,0-1.73-.07-2.59a5.54,5.54,0,0,0-3-4.15,4.21,4.21,0,0,0-5,.79l5.32,20.2A20,20,0,0,1,70.67,48.4Z"/><path class="cls-8" d="M70.79,40.15a.35.35,0,0,1,.16.08.73.73,0,0,1,.27.46.89.89,0,0,1,0,.43.85.85,0,0,1-.21.37,1,1,0,0,1-.51.25,1.1,1.1,0,0,1-.57,0,1.43,1.43,0,0,1-.92-1,2.64,2.64,0,0,1,0-1.55c.14-.53.39-1,.57-1.61a3.47,3.47,0,0,0,.13-1.78A3.61,3.61,0,0,0,69,34.22a3.55,3.55,0,0,0-1.33-1.1c-.48-.24-1-.39-1.42-.61a2.62,2.62,0,0,1-1-.74,2.78,2.78,0,0,1-.57-1.09,3,3,0,0,1-.09-.84,2.45,2.45,0,0,1,.09-.53.64.64,0,0,1,.06-.18,3.38,3.38,0,0,0-.1.7,2.81,2.81,0,0,0,.43,1.55,2.75,2.75,0,0,0,1.22,1c.43.21.93.36,1.43.59a3.75,3.75,0,0,1,1.37,1.13,3.81,3.81,0,0,1,.58,3.47c-.19.57-.43,1.09-.57,1.61a2.52,2.52,0,0,0,0,1.49,1.24,1.24,0,0,0,.31.56,1.3,1.3,0,0,0,.54.35,1,1,0,0,0,.53,0,1.06,1.06,0,0,0,.48-.22.94.94,0,0,0,.2-.35.77.77,0,0,0,0-.4.69.69,0,0,0-.24-.44C70.85,40.18,70.78,40.16,70.79,40.15Z"/><path class="cls-8" d="M51.9,26.15c-.77,2.07-1.11,3.76-1.86,5.41a6.56,6.56,0,0,0-.93,2.89c0,.7.36,1.37.34,2.07,0,1.24-1.08,2.17-2,3s-1.91,1.88-1.71,3.1c.08.54.39,1,.43,1.56A2.64,2.64,0,0,1,45.47,46a13.85,13.85,0,0,0-1.22,1.55l-.15,1,11.7-3.7"/><path class="cls-9" d="M80.48,44.17a41.92,41.92,0,0,1-.1-5c-.14-1.89-.31-1.89-.53-1.84-.59.13.13,3.34-.43,2.73s-.42-4-1-3.85c-.79.21,0,3.56.06,3.85s-.36.35-.39.09-.57-4.32-1.37-4.12c-.43.11-.14.85-.14.85s.78,3.66.41,3.75-.91-2.06-1-2.79-.52-1-.8-.65a11.9,11.9,0,0,0,.29,3.18c.13.72.57,2.69-.44,1.87a3.46,3.46,0,0,0-2.42-1,.4.4,0,0,0,.12.75,5.23,5.23,0,0,1,1.14.62,4.78,4.78,0,0,1,.76.73A6.22,6.22,0,0,1,76,46l4.48-1.81"/><path class="cls-10" d="M79.23,43.17s-.12,0-.29.16a1.26,1.26,0,0,0-.49.68l0,.16L78.33,44a2,2,0,0,0-.46-.52A2.3,2.3,0,0,0,76.64,43c-.35,0-.57,0-.57,0a1,1,0,0,1,.57-.11A2.09,2.09,0,0,1,78.44,44l-.12,0a1.07,1.07,0,0,1,.21-.41,1.16,1.16,0,0,1,.36-.3.52.52,0,0,1,.34-.09Z"/><path class="cls-11" d="M80.63,43.79l-5,2L77.1,56.83l-1-1.59-2-2.56c-5.27-9-12-7.61-12-7.61l-8.88-.69s-5.63.1-8.87,3.77c-.83.94-5.65,10.55-7.64,14.56a21.92,21.92,0,0,0,5.62,8.18l5.07-10.44.86,3.66a11.12,11.12,0,0,1,0,6.08L46.9,74.11A22,22,0,0,0,68,73.72l-1.29-3.06a11.29,11.29,0,0,1-.66-6.57l1-4.73,5.31,5a14.44,14.44,0,0,0,1.8,1.7h0a8.18,8.18,0,0,0,4.38,2C86.9,67.76,80.63,43.79,80.63,43.79Z"/><path class="cls-12" d="M68.26,52.89a.28.28,0,0,1-.06.18.24.24,0,0,1-.14.12.33.33,0,0,1-.36-.07.42.42,0,0,1-.09-.16.4.4,0,0,1,0-.19.44.44,0,0,1,.12-.15.37.37,0,0,1,.18,0,.32.32,0,0,1,.23.09.34.34,0,0,1,.1.23Z"/><g class="cls-13"><path class="cls-14" d="M47.38,60.47s.86-1.95.82-1.92S49,66,48.64,68.1A47,47,0,0,0,47.38,60.47Z"/></g><g class="cls-13"><path class="cls-14" d="M61.06,49.16l-2.12,2.29A6.44,6.44,0,0,0,60.16,55a1.72,1.72,0,0,0,1.14.83,1.93,1.93,0,0,0,.75-.15l5.66-2c-.15-.26-.31-.51-.46-.76a2.91,2.91,0,0,0,1.18.44,2.84,2.84,0,0,0,1.26-.1,2.82,2.82,0,0,0,1.82-1.66,5.37,5.37,0,0,1-3.29-4.83l-1-.6Z"/></g><path class="cls-8" d="M54.23,44.17c.18-2.26,2.79-.89,2.5-3.13A95,95,0,0,1,56,25.77"/><path class="cls-9" d="M62.15,44.22l1-15.43c-2.56-3.53-6.06-4.26-10.29-3,0,0-1.8,7.46-1.59,11,.22,3.74,3,4.48,3,4.48s-.1,1.26-.24,2.8c-.72.12-1.47.27-2.26.47-.3.07,5.6,8.58,5.6,8.58l7.37-8A11,11,0,0,0,62.15,44.22Z"/><path class="cls-8" d="M52.87,31.62A.47.47,0,0,0,53,32a.5.5,0,0,0,.31.18.55.55,0,0,0,.18,0,.39.39,0,0,0,.16-.07.53.53,0,0,0,.13-.13.58.58,0,0,0,.06-.17.48.48,0,0,0-.1-.35.46.46,0,0,0-.31-.17h-.18a.46.46,0,0,0-.16.07.58.58,0,0,0-.13.14.49.49,0,0,0-.06.17Z"/><path class="cls-8" d="M52.3,31.21c.05.06.44-.16,1-.11s.86.34.92.28,0-.14-.17-.28a1.33,1.33,0,0,0-.73-.31,1.2,1.2,0,0,0-.76.17C52.34,31.07,52.28,31.18,52.3,31.21Z"/><path class="cls-8" d="M58.07,32.22a.52.52,0,0,0,.1.34.5.5,0,0,0,.31.18.41.41,0,0,0,.19,0,.56.56,0,0,0,.16-.07.49.49,0,0,0,.12-.13.36.36,0,0,0,.07-.17.53.53,0,0,0-.1-.35.48.48,0,0,0-.32-.17.54.54,0,0,0-.18,0,.4.4,0,0,0-.16.08.3.3,0,0,0-.12.13.36.36,0,0,0-.07.17Z"/><path class="cls-8" d="M57.51,31.8c.06.07.44-.16,1-.11s.86.34.92.28,0-.14-.17-.28a1.37,1.37,0,0,0-.72-.28,1.27,1.27,0,0,0-.76.16C57.55,31.66,57.49,31.77,57.51,31.8Z"/><path class="cls-8" d="M55.23,35.3a3.26,3.26,0,0,0-.81-.23c-.13,0-.25-.06-.26-.16a.63.63,0,0,1,.12-.37l.48-.95a15.34,15.34,0,0,0,1.12-2.5,16.86,16.86,0,0,0-1.32,2.41l-.46,1A.75.75,0,0,0,54,35a.54.54,0,0,0,.07.13.28.28,0,0,0,.12.08.9.9,0,0,0,.22.06,3.42,3.42,0,0,0,.84.08Z"/><path class="cls-10" d="M54.29,41.27a9.39,9.39,0,0,0,5.06-.83s-1.45,2.42-5.11,1.71Z"/><path class="cls-10" d="M55.33,36.54a1,1,0,0,1,.39-.24.9.9,0,0,1,.46,0,.84.84,0,0,1,.31.12.91.91,0,0,1,.24.24.56.56,0,0,1,.09.31.55.55,0,0,1-.11.3.64.64,0,0,1-.33.16.54.54,0,0,1-.35-.06,1.74,1.74,0,0,1-.62-.45.7.7,0,0,1-.13-.16.3.3,0,0,1,0-.1.36.36,0,0,1,0-.09"/><path class="cls-8" d="M56.7,35.8c-.09,0-.14.54-.65.88s-1.1.23-1.11.31.12.11.37.15a1.43,1.43,0,0,0,.92-.23,1.21,1.21,0,0,0,.51-.74C56.78,35.94,56.73,35.8,56.7,35.8Z"/><path class="cls-8" d="M54.05,30.46c0,.08-.39,0-.81,0s-.78.07-.81,0,.32-.28.81-.28S54.08,30.39,54.05,30.46Z"/><path class="cls-8" d="M59.17,30.68s0,0,0-.09v.08a3.52,3.52,0,0,0-.79-.2c-.49,0-.86.11-.91,0s.06-.13.22-.21a1.46,1.46,0,0,1,.71-.12,1.21,1.21,0,0,1,.46.12,1.29,1.29,0,0,1,.38.28l0,.06,0,0S59.19,30.69,59.17,30.68Z"/><path class="cls-10" d="M59.3,34s-.08-.05-.08-.12,0-.14.05-.14.08.05.09.12S59.35,34,59.3,34Z"/><path class="cls-10" d="M58.13,33.94s-.06-.07,0-.14.09-.09.12-.07a.08.08,0,0,1,0,.07.07.07,0,0,1,0,.06A.1.1,0,0,1,58.13,33.94Z"/><path class="cls-10" d="M58.78,34.44a.07.07,0,0,1-.06,0s0,0,0,0a.13.13,0,0,1,0-.06s0,0,0-.05l.05,0h.06l0,0a.13.13,0,0,1,0,.06v0l0,0h0Z"/><path class="cls-10" d="M52.1,33.71s-.06-.06-.05-.14.05-.13.09-.12.06.07,0,.14S52.14,33.72,52.1,33.71Z"/><path class="cls-10" d="M53.28,33.74s-.07-.06-.07-.11,0-.11.08-.11.07,0,.07.11S53.32,33.74,53.28,33.74Z"/><path class="cls-10" d="M52.71,34.11s-.08-.06-.08-.13,0-.13.07-.13.08,0,.08.13S52.75,34.11,52.71,34.11Z"/><path class="cls-8" d="M56.43,24a8.19,8.19,0,0,1-2.09,4.78A8,8,0,0,1,50,31.56c.47-1.51.57-2.72,1-4a7.34,7.34,0,0,1,1.91-3.38,4.39,4.39,0,0,1,2.19-1,4.5,4.5,0,0,1,2.41.27"/><path class="cls-5" d="M50.42,30.14A4.63,4.63,0,0,0,51.53,30a3.7,3.7,0,0,0,1.09-.54,8.77,8.77,0,0,0,1.14-1,13,13,0,0,0,1.67-2.16l.44-.7a1.38,1.38,0,0,1,.17-.25,1.43,1.43,0,0,1-.13.28c-.09.17-.23.42-.41.73a11.38,11.38,0,0,1-1.66,2.19,7.19,7.19,0,0,1-1.16,1,3.76,3.76,0,0,1-1.13.53,2.9,2.9,0,0,1-.83.09A1,1,0,0,1,50.42,30.14Z"/><path class="cls-5" d="M51.55,30.32a.76.76,0,0,1-.11.14,4.13,4.13,0,0,0-.28.4,4.85,4.85,0,0,0-.71,1.67,4.35,4.35,0,0,0-.12,1.24,7.73,7.73,0,0,0,.22,1.43,8.82,8.82,0,0,1,.24,1.61,3.61,3.61,0,0,1-.36,1.71,3.76,3.76,0,0,1-1.09,1.35c-.46.34-1,.57-1.34.89a1.61,1.61,0,0,0-.65,1.2,2.54,2.54,0,0,0,.39,1.16,5.55,5.55,0,0,1,.48.94,1.73,1.73,0,0,1,.12.78.93.93,0,0,1-.15.48.45.45,0,0,1-.11.13l.09-.14a1.14,1.14,0,0,0,.13-.47,2,2,0,0,0-.14-.76,6.12,6.12,0,0,0-.49-.91A2.51,2.51,0,0,1,47.25,42a1.4,1.4,0,0,1,.18-.7,2.28,2.28,0,0,1,.5-.57c.4-.34.9-.57,1.34-.9a3.72,3.72,0,0,0,1-1.31,3.51,3.51,0,0,0,.35-1.65,9.29,9.29,0,0,0-.23-1.57,7.91,7.91,0,0,1-.2-1.45,4.43,4.43,0,0,1,.13-1.26,4.71,4.71,0,0,1,.75-1.68,4.08,4.08,0,0,1,.31-.39A.61.61,0,0,1,51.55,30.32Z"/><path class="cls-8" d="M47.37,38.13a.65.65,0,0,0,.1.18,1.08,1.08,0,0,0,.42.37,1.38,1.38,0,0,0,.87.12,1.3,1.3,0,0,0,.54-.23,1.41,1.41,0,0,0,.4-.44A2.07,2.07,0,0,0,50,36.75a3.74,3.74,0,0,0-.63-1.53c-.33-.49-.77-.93-1.13-1.49a2.88,2.88,0,0,1-.37-.93,2.29,2.29,0,0,1,.06-1,2.48,2.48,0,0,1,.48-.89,2.6,2.6,0,0,1,.8-.64A3.44,3.44,0,0,1,50.1,30c.3-.06.6-.13.89-.21a6.76,6.76,0,0,0,2.67-1.59,7.86,7.86,0,0,0,1.42-1.57,4.52,4.52,0,0,0,.36-.69.76.76,0,0,1-.06.2,2.81,2.81,0,0,1-.26.52,7.22,7.22,0,0,1-1.42,1.6,14.63,14.63,0,0,1-1.16.92,4.93,4.93,0,0,1-1.54.72q-.44.12-.9.21a3.1,3.1,0,0,0-.89.29A2.38,2.38,0,0,0,48,31.81a2.12,2.12,0,0,0-.06,1,2.39,2.39,0,0,0,.36.89c.34.54.78,1,1.11,1.5a3.68,3.68,0,0,1,.65,1.57,2.24,2.24,0,0,1-.29,1.45,1.4,1.4,0,0,1-.84.65,1.44,1.44,0,0,1-1.06-.11,1.1,1.1,0,0,1-.43-.4.66.66,0,0,1-.06-.2Z"/><path class="cls-5" d="M69.25,47.28a6.76,6.76,0,0,0,.46-.72,3.91,3.91,0,0,0,.28-.94,3.35,3.35,0,0,0,0-1.3,3.15,3.15,0,0,0-.66-1.42A8.28,8.28,0,0,0,68,41.66a6.05,6.05,0,0,1-1.42-1.48,2.61,2.61,0,0,1-.4-1,2.14,2.14,0,0,1,.15-1.12c.28-.71.79-1.26,1.06-1.9a1.79,1.79,0,0,0,.15-1,1.75,1.75,0,0,0-.37-.9,4.84,4.84,0,0,0-1.39-1.16,8.34,8.34,0,0,1-1.27-.94,3.31,3.31,0,0,1-.75-1.1,2,2,0,0,1-.13-1,1.9,1.9,0,0,1,.09-.36c.05-.1.08-.19.11-.25l.09-.14,0-.05a.15.15,0,0,1,0,.06l-.08.14a2.3,2.3,0,0,0-.09.25,2,2,0,0,0-.08.35,2,2,0,0,0,.14,1,3.3,3.3,0,0,0,.75,1.06,7.28,7.28,0,0,0,1.29.93,4.81,4.81,0,0,1,1.43,1.18,1.9,1.9,0,0,1,.4,1,1.79,1.79,0,0,1-.16,1c-.29.66-.78,1.22-1.06,1.9a2.14,2.14,0,0,0-.14,1.06,2.69,2.69,0,0,0,.38,1,6.37,6.37,0,0,0,1.39,1.45,8.41,8.41,0,0,1,1.34,1.26,3.25,3.25,0,0,1,.67,1.46,3.31,3.31,0,0,1,0,1.33,3.55,3.55,0,0,1-.32.95,2.7,2.7,0,0,1-.35.53l-.1.13Z"/><path class="cls-8" d="M67.36,46.67a29.9,29.9,0,0,1-.52-4.09c0-1.56-1.42-3.63-.54-5.46a21.22,21.22,0,0,0-1.23-3.37c-.3-.67-1.39-2.72-1.67-3.41.18-1.26,1.09-1.17.92-2.43a5.38,5.38,0,0,0-2.22-3.86,6.13,6.13,0,0,0-2.73-.83,5.6,5.6,0,0,0-2,.09,2.66,2.66,0,0,0-1.6,1.14l.34-.32a4.69,4.69,0,0,0,.1,2.14,4.77,4.77,0,0,0,1,1.89,7.06,7.06,0,0,0,3.68,2.15,2.81,2.81,0,0,0,.32,1.36l0,0,.08.05a4.37,4.37,0,0,0,.31.44,2.73,2.73,0,0,0,.54.48,2,2,0,0,1,0,1.84c-.35.65-1.06,1.13-1.21,1.85s.47,1.61.46,2.45A2.74,2.74,0,0,1,61,40.07c-1.52,2-1.26,4-.39,6.28A4.57,4.57,0,0,1,61.13,49c-.24.84-1.08,1.39-1.34,2.21-.37,1.14.47,2.29,1.27,3.2a26.23,26.23,0,0,1,5.27-1.73,9.09,9.09,0,0,1-.27-2.32,2,2,0,0,0,.58,1.08,2,2,0,0,0,1.11.55,2,2,0,0,0,2.09-1.06A5.42,5.42,0,0,1,67.36,46.67Z"/><path class="cls-5" d="M64.93,28.6l-.08.08a2.75,2.75,0,0,1-.26.22,4.74,4.74,0,0,1-1.07.62,5.18,5.18,0,0,1-1.77.44,5.28,5.28,0,0,1-2.23-.28,5.19,5.19,0,0,1-1.89-1.21,5.86,5.86,0,0,1-1.5-2.64,2.42,2.42,0,0,1-.07-.32.5.5,0,0,1,0-.12,3.06,3.06,0,0,1,.13.43A7,7,0,0,0,56.64,27a5.8,5.8,0,0,0,1.07,1.44,5.32,5.32,0,0,0,1.85,1.18,5.38,5.38,0,0,0,2.18.28,5.58,5.58,0,0,0,1.75-.41,6.5,6.5,0,0,0,1.44-.85Z"/><path class="cls-5" d="M64.67,26.72a1.07,1.07,0,0,1-.27.09,4.69,4.69,0,0,1-.75.12,5.74,5.74,0,0,1-2.49-.35,5.57,5.57,0,0,1-2.07-1.41,3.87,3.87,0,0,1-.48-.59,1.49,1.49,0,0,1-.14-.24s.23.32.68.77a5.7,5.7,0,0,0,2.06,1.36,5.91,5.91,0,0,0,2.43.39C64.28,26.81,64.67,26.7,64.67,26.72Z"/><path class="cls-5" d="M64.93,27.56a2.35,2.35,0,0,1-2,1,5.25,5.25,0,0,0,1.1-.36,6,6,0,0,0,.93-.66Z"/><path class="cls-5" d="M64.51,53.12s0-.1-.07-.27a1.24,1.24,0,0,0-.42-.63l-.45-.35a1.56,1.56,0,0,1-.4-.55,2.53,2.53,0,0,1-.12-.36,1.85,1.85,0,0,1-.07-.41,1.35,1.35,0,0,1,.23-.85,1.85,1.85,0,0,1,.73-.63,1.38,1.38,0,0,0,.7-.69,1.29,1.29,0,0,0,.1-.51,1.65,1.65,0,0,0-.13-.53,6.7,6.7,0,0,0-.57-1,4.06,4.06,0,0,1-.6-2.45,4.11,4.11,0,0,1,1-2.49A2,2,0,0,0,65,40.2,2.07,2.07,0,0,0,64.57,39c-.25-.35-.57-.66-.79-1a1.88,1.88,0,0,1-.38-1.19,2,2,0,0,1,.52-1.07,3.68,3.68,0,0,0,.6-.91,2.08,2.08,0,0,0,0-1.88,2.1,2.1,0,0,0-.57-.62c-.21-.16-.43-.3-.63-.44a2.23,2.23,0,0,1-.5-.47,1.62,1.62,0,0,1-.27-.5,1.39,1.39,0,0,1-.07-.78,1,1,0,0,1,.12-.25,1.25,1.25,0,0,0-.09.25,1.24,1.24,0,0,0,.09.76,1.77,1.77,0,0,0,.26.49,2.11,2.11,0,0,0,.5.44l.64.44a1.91,1.91,0,0,1,.87,1.61,2.24,2.24,0,0,1-.19,1,3.93,3.93,0,0,1-.62.94,1.78,1.78,0,0,0-.49,1,1.81,1.81,0,0,0,.36,1.12c.23.35.53.66.79,1a2.18,2.18,0,0,1,.5,1.26,1.37,1.37,0,0,1-.19.68,3.66,3.66,0,0,1-.4.57,4.07,4.07,0,0,0-.45,4.8,8.12,8.12,0,0,1,.58,1,1.83,1.83,0,0,1,.13.56,1.36,1.36,0,0,1-.11.56,1.52,1.52,0,0,1-.75.73,1.94,1.94,0,0,0-.71.59,1.35,1.35,0,0,0-.22.8,2.29,2.29,0,0,0,.18.74,1.45,1.45,0,0,0,.37.54c.16.14.32.24.45.35a1.27,1.27,0,0,1,.41.67,1.18,1.18,0,0,1,0,.2.11.11,0,0,1,0,.08Z"/><path class="cls-5" d="M65,28.16a.28.28,0,0,1-.07.09,2.75,2.75,0,0,1-.22.26,4,4,0,0,1-1,.74,4.24,4.24,0,0,1-1.82.44,5,5,0,0,1-2.24-.52A3.38,3.38,0,0,1,58,27.51c-.29-.65-.47-1.26-.67-1.75a4.26,4.26,0,0,0-.57-1.1c-.17-.23-.3-.34-.28-.35l.09.07a2.83,2.83,0,0,1,.24.25,4.44,4.44,0,0,1,.62,1.1c.21.49.39,1.1.69,1.73a3.3,3.3,0,0,0,.58.9,3.16,3.16,0,0,0,.93.7,4.86,4.86,0,0,0,2.18.52,4.12,4.12,0,0,0,2.81-1.1C64.86,28.28,65,28.15,65,28.16Z"/><path class="cls-5" d="M35.15,78.69a16.18,16.18,0,0,1-2.2.08,16.13,16.13,0,0,1-2.2-.08,17.91,17.91,0,0,1,2.2-.07,18,18,0,0,1,2.2.07Z"/><path class="cls-5" d="M37.48,71.72a22.58,22.58,0,0,1,.07,2.6,22.52,22.52,0,0,1-.07,2.6,22.52,22.52,0,0,1-.07-2.6,22.58,22.58,0,0,1,.07-2.6Z"/><path class="cls-5" d="M40,78.53a16.13,16.13,0,0,1,2.2-.08,16.24,16.24,0,0,1,2.2.08,18,18,0,0,1-2.2.07,17.91,17.91,0,0,1-2.2-.07Z"/><path class="cls-5" d="M37.63,85.5a22.58,22.58,0,0,1-.07-2.6,22.52,22.52,0,0,1,.07-2.6,22.51,22.51,0,0,1,.08,2.6,22.58,22.58,0,0,1-.08,2.6Z"/><path class="cls-5" d="M41.19,82.51a6.16,6.16,0,0,1-.86-1.05,6.1,6.1,0,0,1-.72-1.14,6,6,0,0,1,.84,1.05,5.71,5.71,0,0,1,.74,1.14Z"/><path class="cls-5" d="M41,74.6a5.23,5.23,0,0,1-.75,1,5.3,5.3,0,0,1-.86.91,5.23,5.23,0,0,1,.75-1A5.3,5.3,0,0,1,41,74.6Z"/><path class="cls-5" d="M35.94,76.62a4.28,4.28,0,0,1-.83-.7,3.88,3.88,0,0,1-.71-.8,3.85,3.85,0,0,1,.82.69,4,4,0,0,1,.72.81Z"/><path class="cls-5" d="M35.74,80.12a4.65,4.65,0,0,1-.68,1,4.81,4.81,0,0,1-.79.9A4.47,4.47,0,0,1,35,81,4.46,4.46,0,0,1,35.74,80.12Z"/><path class="cls-5" d="M113.54,40.75a4.57,4.57,0,0,1-1.65,0,5.08,5.08,0,0,1,1.65,0Z"/><path class="cls-5" d="M114.42,38.14a6.37,6.37,0,0,1,0,2,3.16,3.16,0,0,1-.08-1,3.23,3.23,0,0,1,.08-1Z"/><path class="cls-5" d="M115.35,40.69a4.57,4.57,0,0,1,1.65,0,4.57,4.57,0,0,1-1.65,0Z"/><path class="cls-5" d="M114.48,43.31a6.37,6.37,0,0,1,0-2,6.37,6.37,0,0,1,0,2Z"/><path class="cls-5" d="M115.82,42.19s-.19-.14-.35-.37-.27-.43-.23-.45.19.14.35.36A1.07,1.07,0,0,1,115.82,42.19Z"/><path class="cls-5" d="M115.73,39.22s-.08.21-.24.41-.34.33-.37.31.08-.21.25-.41S115.7,39.2,115.73,39.22Z"/><path class="cls-5" d="M113.84,40s-.18-.08-.34-.23-.26-.3-.24-.34.19.08.35.23S113.87,40,113.84,40Z"/><path class="cls-5" d="M113.77,41.28s-.07.21-.22.4a1,1,0,0,1-.33.32s.06-.2.21-.4S113.74,41.26,113.77,41.28Z"/><path class="cls-5" d="M6,91.57a2.27,2.27,0,0,1-.82.08,2.25,2.25,0,0,1-.82-.08,2.58,2.58,0,0,1,.83-.08,2.46,2.46,0,0,1,.81.08Z"/><path class="cls-5" d="M6.84,89a6.37,6.37,0,0,1,0,2,6.37,6.37,0,0,1,0-2Z"/><path class="cls-5" d="M7.77,91.51a2.28,2.28,0,0,1,.82-.07,2.57,2.57,0,0,1,.83.07,2.33,2.33,0,0,1-.83.08,2.29,2.29,0,0,1-.82-.08Z"/><path class="cls-5" d="M6.89,94.13a7.08,7.08,0,0,1,0-1.95A6.37,6.37,0,0,1,6.89,94.13Z"/><path class="cls-5" d="M8.23,93s-.2-.15-.36-.37-.26-.43-.23-.45.19.14.36.36S8.26,93,8.23,93Z"/><path class="cls-5" d="M8.15,90s-.08.21-.25.41-.33.33-.36.31.08-.21.25-.41S8.12,90,8.15,90Z"/><path class="cls-5" d="M6.26,90.8s-.18-.08-.34-.23-.27-.31-.24-.33.18.07.34.22S6.29,90.77,6.26,90.8Z"/><path class="cls-5" d="M6.19,92.1s-.07.21-.22.4-.3.33-.34.31.07-.21.22-.4S6.16,92.08,6.19,92.1Z"/><path class="cls-5" d="M90.23,24.6l.08.21a1.53,1.53,0,0,0,.81.79l.23.09-.22.09a1.63,1.63,0,0,0-.49.33,1.34,1.34,0,0,0-.32.49l-.06.15-.09-.19a1.49,1.49,0,0,0-.83-.75l-.2-.07.26-.13a1.43,1.43,0,0,0,.72-.75Z"/><path class="cls-5" d="M5.12,51.39l.09.19a1.31,1.31,0,0,0,.3.46,1.26,1.26,0,0,0,.46.3l.22.09L6,52.52a1.41,1.41,0,0,0-.46.3,1.33,1.33,0,0,0-.31.47l-.06.14-.09-.18a1.43,1.43,0,0,0-.78-.71l-.19-.06.25-.12A1.43,1.43,0,0,0,5,51.63Z"/><path class="cls-5" d="M107.42,88.75l.12.28a2,2,0,0,0,.44.66,2,2,0,0,0,.66.43l.31.13-.28.12a1.84,1.84,0,0,0-.68.45,2,2,0,0,0-.44.67l-.08.21-.13-.26a2,2,0,0,0-1.13-1l-.26-.1.35-.17a2,2,0,0,0,1-1Z"/><path class="cls-5" d="M91.74,5.7a17.86,17.86,0,0,1-3.27,0,17.86,17.86,0,0,1,3.27,0Z"/><path class="cls-5" d="M93.48,1.26a9.19,9.19,0,0,1,.07,1.66,9.12,9.12,0,0,1-.07,1.65,9.12,9.12,0,0,1-.07-1.65,9.19,9.19,0,0,1,.07-1.66Z"/><path class="cls-5" d="M95.33,5.6a18,18,0,0,1,3.28,0A18,18,0,0,1,95.33,5.6Z"/><path class="cls-5" d="M93.59,10a9.12,9.12,0,0,1-.07-1.65,9.19,9.19,0,0,1,.07-1.66,9.19,9.19,0,0,1,.08,1.66A9.13,9.13,0,0,1,93.59,10Z"/><path class="cls-5" d="M96.24,8.13a2.63,2.63,0,0,1-.64-.65,3.08,3.08,0,0,1-.53-.75,2.63,2.63,0,0,1,.64.65,2.83,2.83,0,0,1,.53.75Z"/><path class="cls-5" d="M96.09,3.09a2.73,2.73,0,0,1-.56.66,2.36,2.36,0,0,1-.65.57,2.48,2.48,0,0,1,.55-.66,2.4,2.4,0,0,1,.66-.57Z"/><path class="cls-5" d="M92.33,4.37A1.84,1.84,0,0,1,91.71,4a2,2,0,0,1-.53-.53,2,2,0,0,1,.63.42C92.12,4.1,92.36,4.34,92.33,4.37Z"/><path class="cls-5" d="M92.19,6.59a2.13,2.13,0,0,1-.5.65,2.47,2.47,0,0,1-.6.55,2.37,2.37,0,0,1,.49-.65A2.48,2.48,0,0,1,92.19,6.59Z"/><path class="cls-5" d="M6.44,27.92A9,9,0,0,1,4.8,28a9,9,0,0,1-1.64-.07,9,9,0,0,1,1.64-.08,9,9,0,0,1,1.64.08Z"/><path class="cls-5" d="M8.17,23.48a9.08,9.08,0,0,1,.08,1.65,9.24,9.24,0,0,1-.08,1.66,10.25,10.25,0,0,1-.07-1.66,10.08,10.08,0,0,1,.07-1.65Z"/><path class="cls-5" d="M10,27.81a8.9,8.9,0,0,1,1.63-.07,9,9,0,0,1,1.64.07,9,9,0,0,1-1.64.07A8.9,8.9,0,0,1,10,27.81Z"/><path class="cls-5" d="M8.29,32.25a10.2,10.2,0,0,1-.08-1.66,10.14,10.14,0,0,1,.08-1.65,9.12,9.12,0,0,1,.07,1.65,9.19,9.19,0,0,1-.07,1.66Z"/><path class="cls-5" d="M10.94,30.34a2.33,2.33,0,0,1-.65-.64A2.72,2.72,0,0,1,9.76,29a2.78,2.78,0,0,1,.64.64A3,3,0,0,1,10.94,30.34Z"/><path class="cls-5" d="M10.78,25.31a2.48,2.48,0,0,1-.55.66,2.4,2.4,0,0,1-.66.57,2.73,2.73,0,0,1,.56-.66,2.36,2.36,0,0,1,.65-.57Z"/><path class="cls-5" d="M7,26.59a1.75,1.75,0,0,1-.62-.42c-.32-.26-.56-.5-.53-.53a2,2,0,0,1,.62.42C6.82,26.32,7.06,26.56,7,26.59Z"/><path class="cls-5" d="M6.88,28.81a2.1,2.1,0,0,1-.49.65,2.24,2.24,0,0,1-.61.55,2.66,2.66,0,0,1,.51-.65,2.57,2.57,0,0,1,.59-.55Z"/></g></g></svg>