<svg xmlns="http://www.w3.org/2000/svg" xmlns:xlink="http://www.w3.org/1999/xlink" viewBox="0 0 153 93.26"><defs><style>.cls-1,.cls-5{fill:#4aa99f;}.cls-1{fill-opacity:0.25;}.cls-2{fill:#037971;}.cls-3{fill:#efefef;}.cls-4{fill:#44465f;}.cls-6{fill:#004c46;}.cls-7{fill:#fff;}.cls-8{fill:#cae2e0;}.cls-9{fill:#b7b7b7;}.cls-10{fill:#ff9ecc;}.cls-11{fill:#fae3d9;}.cls-12{fill:#7c87ed;}.cls-13{fill:#333649;}.cls-14{fill:#eff1fe;}.cls-15{fill:url(#未命名的渐变_2);}.cls-16{fill:url(#未命名的渐变_2-2);}.cls-17{fill:url(#未命名的渐变_2-3);}.cls-18{fill:url(#未命名的渐变_2-4);}.cls-19{fill:url(#未命名的渐变_2-5);}.cls-20{fill:url(#未命名的渐变_2-6);}.cls-21{fill:url(#未命名的渐变_2-7);}.cls-22{fill:url(#未命名的渐变_2-8);}.cls-23{fill:url(#未命名的渐变_2-9);}.cls-24{fill:#fbffff;}.cls-25{fill:url(#未命名的渐变_2-10);}.cls-26{fill:url(#未命名的渐变_2-11);}.cls-27{fill:url(#未命名的渐变_2-12);}.cls-28{fill:url(#未命名的渐变_2-13);}.cls-29{fill:url(#未命名的渐变_2-14);}.cls-30{fill:url(#未命名的渐变_2-15);}</style><linearGradient id="未命名的渐变_2" x1="-28844.49" y1="5558.26" x2="-32486.49" y2="6115.26" gradientTransform="matrix(1, 0, 0, -1, 0, 1225.84)" gradientUnits="userSpaceOnUse"><stop offset="0" stop-color="#ffc06c"/><stop offset="1" stop-color="#f2a040"/></linearGradient><linearGradient id="未命名的渐变_2-2" x1="-28845.39" y1="5560.74" x2="-32487.39" y2="6117.74" xlink:href="#未命名的渐变_2"/><linearGradient id="未命名的渐变_2-3" x1="-28847.39" y1="5563.23" x2="-32489.39" y2="6120.23" xlink:href="#未命名的渐变_2"/><linearGradient id="未命名的渐变_2-4" x1="-28843.91" y1="5565.66" x2="-32485.91" y2="6122.65" xlink:href="#未命名的渐变_2"/><linearGradient id="未命名的渐变_2-5" x1="28984.2" y1="-3276.22" x2="32626.2" y2="-3833.21" xlink:href="#未命名的渐变_2"/><linearGradient id="未命名的渐变_2-6" x1="-28849.57" y1="5570.87" x2="-32491.47" y2="6127.87" xlink:href="#未命名的渐变_2"/><linearGradient id="未命名的渐变_2-7" x1="-28844.88" y1="5573.28" x2="-32486.78" y2="6130.27" xlink:href="#未命名的渐变_2"/><linearGradient id="未命名的渐变_2-8" x1="21485.87" y1="21657.17" x2="24183.27" y2="24238.74" xlink:href="#未命名的渐变_2"/><linearGradient id="未命名的渐变_2-9" x1="22038.29" y1="5833.07" x2="24805.29" y2="6421.57" xlink:href="#未命名的渐变_2"/><linearGradient id="未命名的渐变_2-10" x1="-28824.61" y1="5558.18" x2="-32466.61" y2="6115.17" xlink:href="#未命名的渐变_2"/><linearGradient id="未命名的渐变_2-11" x1="-28825.48" y1="5560.77" x2="-32467.38" y2="6117.76" xlink:href="#未命名的渐变_2"/><linearGradient id="未命名的渐变_2-12" x1="-28826.3" y1="5563.16" x2="-32468.3" y2="6120.15" xlink:href="#未命名的渐变_2"/><linearGradient id="未命名的渐变_2-13" x1="-28824" y1="5565.65" x2="-32466" y2="6122.64" xlink:href="#未命名的渐变_2"/><linearGradient id="未命名的渐变_2-14" x1="29004.17" y1="-3276.44" x2="32646.07" y2="-3833.44" xlink:href="#未命名的渐变_2"/><linearGradient id="未命名的渐变_2-15" x1="-311.12" y1="-29430.63" x2="-364.93" y2="-33281.43" xlink:href="#未命名的渐变_2"/></defs><title>slide8</title><g id="图层_2" data-name="图层 2"><g id="Layer_1" data-name="Layer 1"><path class="cls-1" d="M19.34,91.2S9.06,90.9,4.9,82.84C1.64,76.5,3.46,67.19,17.17,64.72c8.53-1.53-6.48-18.44,11.93-22.53S47.34,19.89,65.48,16.3,83.66,38.24,99.91,40.93,127.63,50.74,123.65,64s5.16,13.78,6.53,19.71-2.5,7.49-2.5,7.49Z"/><path class="cls-2" d="M61.43,46a13.09,13.09,0,0,0-1.74-2.8c-1.25,4.17-3.85,11.68-5.61,8.83-1.19-1.93.28-5.22,2.06-8a3.21,3.21,0,0,0,.45-1.23,3,3,0,0,0-.08-1.3,3.15,3.15,0,0,0-.61-1.16,3.26,3.26,0,0,0-1-.8l0,0a1,1,0,0,0-.41-.09.85.85,0,0,0-.41.09.93.93,0,0,0-.33.26.89.89,0,0,0-.18.38c-1,4.32-3.07,11.91-4.84,9.49-1.37-1.87.14-6,1.73-9.24a1.89,1.89,0,0,0,.2-.84,2.05,2.05,0,0,0-.21-.85,1.88,1.88,0,0,0-.56-.66,1.85,1.85,0,0,0-.8-.35h0a.74.74,0,0,0-.56.11.76.76,0,0,0-.31.47c-.75,3.54-2.25,8.86-4.29,7.42-1.36-1-.75-3.49.32-6a1.85,1.85,0,0,0-1.7-2.57h0a.79.79,0,0,0-.53.2.81.81,0,0,0-.26.52c-.21,2.38-.75,5.67-2.06,5.22-.64-.22-.75-1.16-.61-2.33a2.89,2.89,0,0,0-3.21-3.22c-2.5.3-4.12.66-4.12.66s-.08,1.89.1,4.68a2,2,0,0,0,2.47,1.77,2.89,2.89,0,0,1,3.17.69C38.74,47,35.29,47.37,33,47.43a.82.82,0,0,0-.3.07.88.88,0,0,0-.24.19.87.87,0,0,0-.14.27.65.65,0,0,0,0,.31v0A2.77,2.77,0,0,0,35.8,50.5c1.18-.32,2.36-.26,3.05.8,1.18,1.86-2.39,2.29-4.77,2.37a.43.43,0,0,0-.16,0,.35.35,0,0,0-.13.11.44.44,0,0,0-.06.16.43.43,0,0,0,0,.16.14.14,0,0,1,0,.06,3.31,3.31,0,0,0,5,1.72c1.86-1.2,3.95-2,5.48-1,2.41,1.51-2.79,3.79-6.31,5.07a1,1,0,0,0-.36.23,1,1,0,0,0-.21.38,1,1,0,0,0,0,.42.88.88,0,0,0,.18.39l.14.17a3,3,0,0,0,1.91,1.06,2.94,2.94,0,0,0,2.11-.52C43.15,61,45,60.26,46.58,60.94c2.11.88-.15,2.4-2.48,3.55a.7.7,0,0,0,.16,1.31C53.86,67.78,66.56,57.37,61.43,46Z"/><path class="cls-3" d="M60,50.81a.09.09,0,0,0,0-.07.07.07,0,0,0,0-.06h-.08a.15.15,0,0,0-.06,0c0,.06-3.37,6.26-7.1,8.46-.76-.92-1.56-1.85-2.37-2.78v0l0,0c-.51-.58-1-1.15-1.54-1.72,2.55-1.4,4-4.24,4.78-6.39a21.92,21.92,0,0,0,1.09-4.45.1.1,0,0,0,0-.07l-.07,0-.07,0a.16.16,0,0,0,0,.07c0,.08-.95,8.09-5.8,10.71-1-1.09-2-2.17-3-3.21h0s0,0,0,0L44,49.49c3-1.52,4.51-7,4.58-7.22a.1.1,0,0,0,0-.07.07.07,0,0,0-.06,0,.06.06,0,0,0-.07,0,.07.07,0,0,0,0,0c0,.06-1.55,5.68-4.53,7.12L41.71,47.2s0,0,0,0c-.4-.41-.79-.79-1.15-1.15,1.79-1.52,2.29-6.49,2.29-6.54a.07.07,0,0,0,0-.06.09.09,0,0,0-.07,0l-.07,0a.09.09,0,0,0,0,.07c0,.05-.52,5-2.23,6.4-1.88-1.86-3.14-3.05-3.18-3.1l-.07,0a.1.1,0,0,0-.1.1.11.11,0,0,0,0,.07s1.86,1.76,4.39,4.3c-3,1.55-7.27,1.3-7.31,1.3h0l0,0,0,0a.06.06,0,0,0,0,0v0l0,0,0,0h0s.28,0,.72,0a15.62,15.62,0,0,0,6.75-1.37c1.17,1.17,2.48,2.52,3.85,4-3.44,2.5-8.69,3.3-8.75,3.31l-.06,0a.08.08,0,0,0,0,.07.09.09,0,0,0,0,.06.09.09,0,0,0,.07,0h0c.05,0,5.38-.83,8.86-3.37,1.5,1.59,3.06,3.28,4.55,5A23.86,23.86,0,0,1,39.9,60.81l-.07,0a.08.08,0,0,0,0,.07.07.07,0,0,0,0,.06.09.09,0,0,0,.06,0h0a24,24,0,0,0,10.37-4.43c1.28,1.46,2.51,2.92,3.6,4.32C50,64,48.15,63.73,48.12,63.73a.1.1,0,0,0-.07,0l0,.06a.11.11,0,0,0,0,.08l.06,0h.16c.54,0,2.4-.23,5.75-2.89a36.92,36.92,0,0,1,3.16,4.62s0,0,.06,0a.11.11,0,0,0,.08,0l.05-.06a.19.19,0,0,0,0-.08,39.29,39.29,0,0,0-3.23-4.7v0h0c-.39-.5-.79-1-1.21-1.51C56.65,57.1,60,50.88,60,50.81Z"/><path class="cls-2" d="M138.19,66a12.51,12.51,0,0,0,2.54-2.1c-4.3-.67-12.1-2.22-9.51-4.35,1.76-1.45,5.21-.43,8.24.94a3,3,0,0,0,2.55,0,2.87,2.87,0,0,0,1.06-.76,3.06,3.06,0,0,0,.66-1.13v0a.86.86,0,0,0,0-.42,1,1,0,0,0-.15-.4.93.93,0,0,0-.3-.29.94.94,0,0,0-.4-.13c-4.42-.4-12.22-1.42-10.06-3.5,1.66-1.61,5.95-.67,9.39.46a1.92,1.92,0,0,0,.86.08,2,2,0,0,0,.81-.32,1.91,1.91,0,0,0,.58-.65,2,2,0,0,0,.24-.83v0a.76.76,0,0,0-.2-.53.69.69,0,0,0-.5-.25c-3.61-.26-9.09-1-7.94-3.24.76-1.47,3.36-1.22,6-.49a1.85,1.85,0,0,0,2.32-2v0a.75.75,0,0,0-.28-.5.76.76,0,0,0-.54-.19c-2.39.11-5.73,0-5.46-1.32.13-.67,1.05-.91,2.22-.93a2.89,2.89,0,0,0,2.76-3.61c-.63-2.44-1.21-4-1.21-4s-1.88.17-4.63.73a2,2,0,0,0-1.42,2.69A2.87,2.87,0,0,1,135.6,42c-1.51,1.6-2.33-1.75-2.7-4a.86.86,0,0,0-.11-.28.92.92,0,0,0-.22-.22,1,1,0,0,0-.29-.1.8.8,0,0,0-.31,0h0a2.77,2.77,0,0,0-1.7,3.73c.48,1.13.58,2.31-.38,3.13-1.68,1.42-2.59-2.06-3-4.4a.33.33,0,0,0-.07-.16.36.36,0,0,0-.13-.11.44.44,0,0,0-.32,0l0,0a3.3,3.3,0,0,0-1,5.13c1.44,1.68,2.5,3.63,1.76,5.28-1.17,2.59-4.13-2.25-5.88-5.56a1.22,1.22,0,0,0-.28-.32,1,1,0,0,0-.4-.15.79.79,0,0,0-.43,0,.82.82,0,0,0-.36.23l-.15.16a3,3,0,0,0,0,4c1.27,1.35,2.28,3,1.83,4.74-.59,2.21-2.41.18-3.86-2a.7.7,0,0,0-1.28.33C115.55,61.42,127.59,72.57,138.19,66Z"/><path class="cls-3" d="M133.21,65.23a.11.11,0,0,0,.08,0,.12.12,0,0,0,.05,0,.22.22,0,0,0,0-.08.12.12,0,0,0-.05,0c-.07,0-6.67-2.49-9.35-5.88q1.21-1.32,2.43-2.73h0l0,0c.5-.58,1-1.16,1.49-1.75,1.74,2.33,4.76,3.39,7,3.86a22.38,22.38,0,0,0,4.55.47h0s0,0,0,0l0,0v-.08l0,0,0,0h0c-.09,0-8.16.16-11.41-4.29.95-1.13,1.88-2.28,2.77-3.39h0l0,0,1.51-1.9c1.92,2.78,7.53,3.51,7.78,3.54a.07.07,0,0,0,.07,0s0,0,0-.06a.09.09,0,0,0,0-.07.05.05,0,0,0-.06,0c-.06,0-5.84-.76-7.67-3.52.65-.83,1.26-1.63,1.83-2.37l0,0c.35-.45.67-.88,1-1.29,1.75,1.57,6.75,1.38,6.8,1.38l.06,0a.19.19,0,0,0,0-.07.1.1,0,0,0,0-.07l-.07,0c-.05,0-5,.16-6.65-1.34,1.6-2.11,2.6-3.52,2.64-3.57a.08.08,0,0,0,0-.07.09.09,0,0,0,0-.06.11.11,0,0,0-.08,0,.08.08,0,0,0-.06,0c0,.06-1.49,2.07-3.67,4.92-1.94-2.75-2.28-7-2.28-7.06a.08.08,0,0,0,0-.06.09.09,0,0,0-.07,0,.13.13,0,0,0-.07,0,.14.14,0,0,0,0,.07s0,.27.08.71a15.71,15.71,0,0,0,2.28,6.5c-1,1.31-2.16,2.79-3.39,4.34-3-3.06-4.46-8.16-4.48-8.21s0,0,0,0l0,0h-.08a.07.07,0,0,0,0,0,.07.07,0,0,0,0,.06v0s1.55,5.21,4.54,8.31c-1.37,1.7-2.83,3.47-4.3,5.18a23.75,23.75,0,0,1-5.74-9.55.13.13,0,0,0,0-.06.08.08,0,0,0-.07,0s0,0-.06,0a.14.14,0,0,0,0,.07h0a24.13,24.13,0,0,0,5.81,9.65c-1.28,1.47-2.56,2.89-3.8,4.16-3.56-3.42-3.59-5.29-3.59-5.32a0,0,0,0,0,0,0,.05.05,0,0,0,0,0l0,0h-.08l0,0,0,0v0a.88.88,0,0,0,0,.16c.07.53.54,2.34,3.63,5.3a37.49,37.49,0,0,1-4.14,3.75s0,0,0,0a.07.07,0,0,0,0,0,.08.08,0,0,0,0,0l0,0h.07l0,0a37.22,37.22,0,0,0,4.23-3.83h0v0l1.33-1.4C126.52,62.73,133.15,65.2,133.21,65.23Z"/><path class="cls-4" d="M152.87,91.3H1.2a.12.12,0,0,1-.13-.12.06.06,0,0,1,0,0s0,0,0,0l0,0H152.92l0,0,0,0a.06.06,0,0,1,0,0,.12.12,0,0,1,0,.09A.14.14,0,0,1,152.87,91.3Z"/><path class="cls-2" d="M10.52,82s-4,1.5-4-1.13S7.81,77.6,6,76.61s-2.89-1.35-2.58-3.27S-.39,69.81,0,67.67,3.67,66,5,67.39s4.37.32,5,3.6.75,2.85,2.81,4.45S14.05,81.1,10.52,82Z"/><path class="cls-4" d="M11.05,85h0a.27.27,0,0,1-.12,0l-.1-.07a.41.41,0,0,1-.07-.11.25.25,0,0,1,0-.12A18,18,0,0,0,10,79.54a20.43,20.43,0,0,0-6.41-9.91.23.23,0,0,1-.07-.1.56.56,0,0,1,0-.12.25.25,0,0,1,0-.12.24.24,0,0,1,.06-.11.39.39,0,0,1,.1-.08.35.35,0,0,1,.11,0,.27.27,0,0,1,.13,0,.3.3,0,0,1,.11.06,21,21,0,0,1,6.6,10.24,18.2,18.2,0,0,1,.78,5.3.32.32,0,0,1-.1.21.31.31,0,0,1-.22.09Z"/><path class="cls-5" d="M12.38,82.34s3.48,1.31,3.46-1-1.09-2.87.47-3.74,2.53-1.17,2.25-2.85,3.36-3.1,3-5-3.19-1.5-4.31-.24-3.83.28-4.33,3.15-.66,2.49-2.46,3.89S9.29,81.55,12.38,82.34Z"/><path class="cls-4" d="M11.91,85a.27.27,0,0,1-.21-.09.28.28,0,0,1-.1-.21A15.59,15.59,0,0,1,12.28,80a18.47,18.47,0,0,1,5.79-9A.33.33,0,0,1,18.3,71a.29.29,0,0,1,.21.11.27.27,0,0,1,.08.22.31.31,0,0,1-.11.22,17.84,17.84,0,0,0-5.59,8.65,15.81,15.81,0,0,0-.66,4.47.25.25,0,0,1,0,.12.24.24,0,0,1-.06.11l-.1.07a.27.27,0,0,1-.12,0Z"/><path class="cls-4" d="M14.79,91.23H8.61a.59.59,0,0,1-.38-.14.55.55,0,0,1-.2-.34l-1-5.38a.46.46,0,0,1,0-.26.57.57,0,0,1,.11-.22.65.65,0,0,1,.21-.16.54.54,0,0,1,.25-.06h8.12a.51.51,0,0,1,.25.06.65.65,0,0,1,.21.16.57.57,0,0,1,.11.22.46.46,0,0,1,0,.26l-1,5.38a.59.59,0,0,1-.58.48Z"/><path class="cls-2" d="M140.28,82s4,1.5,4-1.13-1.25-3.29.53-4.27,2.89-1.35,2.57-3.27,3.84-3.54,3.43-5.67-3.64-1.72-4.93-.28-4.38.32-5,3.6-.75,2.85-2.81,4.45S136.75,81.1,140.28,82Z"/><path class="cls-4" d="M139.75,85h0a.32.32,0,0,0,.22-.1.29.29,0,0,0,.08-.23,18,18,0,0,1,.76-5.12,20.36,20.36,0,0,1,6.41-9.91.39.39,0,0,0,.11-.22.38.38,0,0,0-.08-.23.36.36,0,0,0-.22-.11.3.3,0,0,0-.23.08,21.13,21.13,0,0,0-6.61,10.24,18,18,0,0,0-.77,5.3.28.28,0,0,0,.1.21.29.29,0,0,0,.22.09Z"/><path class="cls-5" d="M138.42,82.34s-3.48,1.31-3.47-1,1.09-2.87-.46-3.74-2.53-1.17-2.25-2.85-3.36-3.1-3-5,3.19-1.5,4.31-.24,3.83.28,4.33,3.15.66,2.49,2.46,3.89S141.5,81.55,138.42,82.34Z"/><path class="cls-4" d="M138.89,85a.29.29,0,0,0,.21-.09.28.28,0,0,0,.1-.21,15.59,15.59,0,0,0-.68-4.65,18.47,18.47,0,0,0-5.79-9,.33.33,0,0,0-.23-.07.27.27,0,0,0-.21.11.27.27,0,0,0-.08.22.31.31,0,0,0,.11.22,17.82,17.82,0,0,1,5.58,8.65,15.64,15.64,0,0,1,.67,4.47.25.25,0,0,0,0,.12.24.24,0,0,0,.06.11l.1.07a.27.27,0,0,0,.12,0Z"/><path class="cls-4" d="M136,91.23h6.18a.59.59,0,0,0,.38-.14.55.55,0,0,0,.2-.34l1-5.38a.76.76,0,0,0,0-.26.78.78,0,0,0-.12-.22.65.65,0,0,0-.21-.16.51.51,0,0,0-.25-.06H135a.54.54,0,0,0-.25.06.53.53,0,0,0-.2.16.48.48,0,0,0-.12.22.57.57,0,0,0,0,.26l1,5.38a.66.66,0,0,0,.2.34.59.59,0,0,0,.38.14Z"/><path class="cls-1" d="M13.15,17.49H36.93a3.77,3.77,0,0,0-.75-2.27,3.85,3.85,0,0,0-2-1.38,4.28,4.28,0,0,0-1.48-2.38,4.32,4.32,0,0,0-2.65-1,6.52,6.52,0,0,0-12.23,1.89h-.09A4.63,4.63,0,0,0,13.13,17c0,.16,0,.32,0,.47Z"/><path class="cls-1" d="M112.8,12.23h27.63A4.44,4.44,0,0,0,137.27,8a5,5,0,0,0-4.79-3.88,7.6,7.6,0,0,0-7.9-4,7.57,7.57,0,0,0-6.32,6.21h-.1a5.38,5.38,0,0,0-5.39,5.38c0,.19,0,.37,0,.55Z"/><path class="cls-6" d="M49,41.31l38,27.8,38-27.8Z"/><path class="cls-2" d="M87,9l38,32.35H49Z"/><path class="cls-7" d="M119.39,18.61H54.51a.52.52,0,0,0-.57.44V90.57a.52.52,0,0,0,.57.44h64.88a.52.52,0,0,0,.57-.44V19.05A.52.52,0,0,0,119.39,18.61Z"/><path class="cls-8" d="M62.51,52.34a2.89,2.89,0,0,1-2.88-2.89V37a2.89,2.89,0,0,1,2.88-2.89H74.9A2.89,2.89,0,0,1,77.78,37V49.45a2.87,2.87,0,0,1-.84,2,2.84,2.84,0,0,1-2,.85Z"/><path class="cls-4" d="M65.34,41.44s-.72,3.44,0,4.37,3.45.46,3.45.46l-.13-5.59Z"/><path class="cls-4" d="M71.91,41.65s.75,3.23,0,4.16-3.42.46-3.42.46l.13-5.59Z"/><path class="cls-2" d="M69.13,46h-.85A6.42,6.42,0,0,0,62,52.3a4.23,4.23,0,0,0,.5.05H74.9a4.23,4.23,0,0,0,.5-.05A6.42,6.42,0,0,0,69.13,46Z"/><path class="cls-9" d="M69.35,47.32l-.64.18L68,47.36l-.14-.26S69.31,47,69.35,47.32Z"/><path class="cls-10" d="M69.88,46.74c0,.66-2.34.66-2.34,0l.35-1.43h1.64Z"/><path class="cls-11" d="M68.64,45.81a2.86,2.86,0,0,1-2.26-2.62V42a2.29,2.29,0,1,1,4.53,0v1.2A2.61,2.61,0,0,1,68.64,45.81Z"/><path class="cls-4" d="M69.52,40.2s-1.62,2-3.15,1.79l-1,.6s-.41-1.18.71-3.41,3.43-.58,3.43-.58.49-1.1,1.38.07S72,42.59,72,42.59L70.9,42S70.23,41.92,69.52,40.2Z"/><path class="cls-11" d="M67.54,46.82a4.5,4.5,0,0,0,.65,1.2c.45.57.52.68.52.68a6.78,6.78,0,0,0,1.17-1.88Z"/><path class="cls-11" d="M66.09,43.36a.77.77,0,1,0-.71-.77A.75.75,0,0,0,66.09,43.36Z"/><path class="cls-11" d="M71.32,43.36a.77.77,0,0,0,0-1.54.77.77,0,0,0,0,1.54Z"/><path class="cls-5" d="M114.32,37.75H83V41.2h31.35Z"/><path class="cls-5" d="M114.32,45H83v3.45h31.35Z"/><path class="cls-5" d="M114.32,58.17H59.88v3.46h54.44Z"/><path class="cls-5" d="M114.32,66.44H59.88v3.45h54.44Z"/><path class="cls-12" d="M114.32,74.7H59.88v3.45h54.44Z"/><path class="cls-12" d="M114.32,83H59.88v3.45h54.44Z"/><path class="cls-13" d="M67,28.87a1.76,1.76,0,0,1-.66-.64,1.86,1.86,0,0,1,0-1.83,1.72,1.72,0,0,1,.67-.64,1.93,1.93,0,0,1,.85-.23,2.21,2.21,0,0,1,.88.15,1.48,1.48,0,0,1,.59.43L69,26.5a1.25,1.25,0,0,0-.42-.3,1.14,1.14,0,0,0-.51-.11,1.27,1.27,0,0,0-.64.16,1.16,1.16,0,0,0-.45.43,1.39,1.39,0,0,0-.15.63,1.36,1.36,0,0,0,.15.63,1.12,1.12,0,0,0,.45.44,1.26,1.26,0,0,0,.64.15,1.29,1.29,0,0,0,.51-.1,1.27,1.27,0,0,0,.42-.31l.41.4a1.74,1.74,0,0,1-.6.43,2,2,0,0,1-.78.15,2.11,2.11,0,0,1-1-.23Z"/><path class="cls-13" d="M72.26,29.05l-.71-1h-.91v1H70V25.58h1.43a1.79,1.79,0,0,1,.79.15,1.05,1.05,0,0,1,.51.42,1.12,1.12,0,0,1,.18.66,1.17,1.17,0,0,1-.19.68,1.15,1.15,0,0,1-.55.42l.8,1.14ZM72,26.3a1,1,0,0,0-.64-.18h-.76v1.39h.76a1,1,0,0,0,.64-.18.63.63,0,0,0,.22-.52A.64.64,0,0,0,72,26.3Z"/><path class="cls-13" d="M76.22,28.51v.54h-2.6V25.58h2.53v.54H74.26V27h1.68v.53H74.26v1Z"/><path class="cls-13" d="M76.94,25.58h1.53a2.06,2.06,0,0,1,1,.21,1.67,1.67,0,0,1,.68.61,2,2,0,0,1,.23.91,1.89,1.89,0,0,1-.23.91,1.54,1.54,0,0,1-.68.61,2.07,2.07,0,0,1-1,.22H77Zm1.49,2.93a1.5,1.5,0,0,0,.67-.15,1,1,0,0,0,.45-.42,1.3,1.3,0,0,0,0-1.25,1,1,0,0,0-.45-.42,1.5,1.5,0,0,0-.67-.15h-.84v2.39Z"/><path class="cls-13" d="M81.05,25.58h.64v3.47h-.64Z"/><path class="cls-13" d="M83.34,26.12H82.18v-.54h2.95v.54H84v2.93h-.64Z"/><path class="cls-13" d="M89.27,29.05l-.71-1h-.92v1H87V25.58h1.43a1.79,1.79,0,0,1,.79.15,1.12,1.12,0,0,1,.52.42,1.28,1.28,0,0,1,.18.66,1.25,1.25,0,0,1-.19.68,1.2,1.2,0,0,1-.55.42l.8,1.14ZM89,26.3a1,1,0,0,0-.64-.18h-.75v1.39h.75a1,1,0,0,0,.64-.18.63.63,0,0,0,.22-.52A.61.61,0,0,0,89,26.3Z"/><path class="cls-13" d="M93.23,28.51v.54h-2.6V25.58h2.53v.54H91.27V27H93v.53H91.27v1Z"/><path class="cls-13" d="M96.17,25.73a1.12,1.12,0,0,1,.52.42,1.3,1.3,0,0,1,0,1.32,1.21,1.21,0,0,1-.52.43,2.13,2.13,0,0,1-.79.15H94.6v1H94V25.58h1.43a1.79,1.79,0,0,1,.79.15ZM96,27.32a.6.6,0,0,0,.22-.51A.61.61,0,0,0,96,26.3a1,1,0,0,0-.64-.18H94.6V27.5h.75A1,1,0,0,0,96,27.32Z"/><path class="cls-13" d="M98.23,28.87a1.82,1.82,0,0,1-.68-.64,1.86,1.86,0,0,1,0-1.83,1.75,1.75,0,0,1,.68-.64,2.1,2.1,0,0,1,1.91,0,1.72,1.72,0,0,1,.67.64,1.8,1.8,0,0,1,0,1.83,1.72,1.72,0,0,1-.67.64,2.1,2.1,0,0,1-1.91,0Zm1.58-.49a1.16,1.16,0,0,0,.44-.44,1.37,1.37,0,0,0,.16-.63,1.33,1.33,0,0,0-.16-.62,1.16,1.16,0,0,0-.44-.44,1.3,1.3,0,0,0-1.25,0,1,1,0,0,0-.44.44,1.33,1.33,0,0,0-.16.62,1.37,1.37,0,0,0,.16.63,1,1,0,0,0,.44.44,1.38,1.38,0,0,0,1.25,0Z"/><path class="cls-13" d="M104,29.05l-.7-1h-.92v1h-.65V25.58h1.43a1.79,1.79,0,0,1,.79.15,1.05,1.05,0,0,1,.51.42,1.12,1.12,0,0,1,.18.66,1.17,1.17,0,0,1-.19.68,1.11,1.11,0,0,1-.55.42l.8,1.14Zm-.23-2.75a1,1,0,0,0-.64-.18h-.75v1.39h.75a1,1,0,0,0,.64-.18.63.63,0,0,0,.22-.52A.61.61,0,0,0,103.78,26.3Z"/><path class="cls-13" d="M106,26.12h-1.15v-.54h3v.54h-1.16v2.93H106Z"/><path class="cls-5" d="M125,91.09V41.31L93.67,64.21Z"/><path class="cls-5" d="M49,91.09V41.31l31.33,22.9Z"/><path class="cls-2" d="M93.67,64.21,87,69.11l-6.69-4.9L49,91.09H125Z"/><path class="cls-4" d="M35.21,57.09a1.29,1.29,0,0,1-.33-.49,1.27,1.27,0,0,1-.1-.58,1.34,1.34,0,0,1,.16-.56,1.41,1.41,0,0,1,.39-.45,1.46,1.46,0,0,1-.16-.61,1.51,1.51,0,0,1,.14-.62,1.32,1.32,0,0,1,.4-.48,1.39,1.39,0,0,1,.58-.26,1.33,1.33,0,0,1,.09-1,1.37,1.37,0,0,1,.73-.65s0-.06,0-.09a1.37,1.37,0,0,1,.25-.78,1.35,1.35,0,0,1,.64-.49,1.32,1.32,0,0,1,.81,0,1.36,1.36,0,0,1,.69.43,1.7,1.7,0,0,1,.55-.55,1.59,1.59,0,0,1,.74-.25,1.57,1.57,0,0,1,.77.11,1.64,1.64,0,0,1,.64.44,1.68,1.68,0,0,1,2.28.59,1.71,1.71,0,0,1,.25.82,1.71,1.71,0,0,1,1,.16,1.63,1.63,0,0,1,.72.68,1.72,1.72,0,0,1,.22,1,1.75,1.75,0,0,1-.36.92,1.64,1.64,0,0,1,.35.86,1.69,1.69,0,0,1-3.2.92,1.61,1.61,0,0,1-.16-.92,1.66,1.66,0,0,1,.36-.86,1.69,1.69,0,0,1-.37-1,1.6,1.6,0,0,1-.81-.09,1.69,1.69,0,0,1-.67-.45,1.7,1.7,0,0,1-1.13.19v0a1.67,1.67,0,0,1-1,1.53,1.62,1.62,0,0,1-.92.15,1.66,1.66,0,0,1-.87-.37v.05a1.39,1.39,0,0,1-.55,1.09,1.34,1.34,0,0,1,.12,1,1.48,1.48,0,0,1,.31.43,1.64,1.64,0,0,1,1.18,1.51,1.63,1.63,0,0,1,.87,1.41,1.73,1.73,0,0,1-.19.84,1.7,1.7,0,0,1-1.41.89,1.65,1.65,0,0,1-.84-.19,1.62,1.62,0,0,1-.64-.58,1.56,1.56,0,0,1-.26-.82,1.63,1.63,0,0,1-.64-.61,1.69,1.69,0,0,1-.23-.85v-.05a1.6,1.6,0,0,1-.32-.45,1.41,1.41,0,0,1-.11-.54,1.86,1.86,0,0,1,0-.33Z"/><path class="cls-2" d="M43.4,64.21h1.46a3,3,0,0,1,2.67,1.6l4,7.47L47.1,75.71,43,73.84Z"/><path class="cls-2" d="M34,63.77l9.46.44,3.69,10v8.22l-6.57,3.18-7.83-.75-1.31-1.54a11.76,11.76,0,0,0,1.68-5,74.49,74.49,0,0,0-.14-8.18Z"/><path class="cls-4" d="M46,69.29c.07.34.12.68.17,1s.07.69.11,1,0,.69.06,1,0,.69,0,1a8.85,8.85,0,0,1-.17-1c-.05-.34-.08-.68-.11-1s-.05-.69-.06-1S45.94,69.63,46,69.29Z"/><path class="cls-2" d="M35.58,63.85l-1.16-.11a3.57,3.57,0,0,0-2,.58,3.61,3.61,0,0,0-1.33,1.54l-3.86,8.52a3.13,3.13,0,0,0,1.28,4l6.53,3.77,1.45-4.35L32,74.44l2.34-3.67"/><path class="cls-4" d="M34,71.36l-.45.8c-.15.26-.31.52-.47.78-.31.53-.63,1-1,1.56l0-.14,1,.71,1,.73c.32.24.63.49.94.74s.63.51.93.77l-1-.67-1-.69-1-.71-1-.71-.08-.06,0-.09c.33-.51.67-1,1-1.52l.51-.76Z"/><path class="cls-4" d="M28.91,70.76c-.51,1.19-1,2.37-1.56,3.55a3.24,3.24,0,0,0-.28.9,2.9,2.9,0,0,0,0,.93,3,3,0,0,0,1.56,2.22l.84.49,1.68,1q1.68,1,3.33,2-1.73-.9-3.42-1.83L29.37,79l-.85-.48a3.58,3.58,0,0,1-.79-.6,3.18,3.18,0,0,1-.86-1.78,3.28,3.28,0,0,1,0-1,3.37,3.37,0,0,1,.32-.94Q28,72.48,28.91,70.76Z"/><path class="cls-2" d="M50.1,88.54l-1.37-.19-.24,1.75-.39,1.72,1.35.3a6.64,6.64,0,0,0,3.34.8c1.89-.06,3.12-.6,3.57-1.34l0-.06a.09.09,0,0,0,0,0c-.16-.86-1.12-1.79-2.87-2.51A6.61,6.61,0,0,0,50.1,88.54Z"/><path class="cls-2" d="M29.27,88.54l1.38-.19.23,1.75.4,1.72-1.36.3a6.58,6.58,0,0,1-3.33.8c-1.9-.06-3.13-.6-3.57-1.34l0-.06a.09.09,0,0,1,0,0c.15-.86,1.12-1.79,2.87-2.51A6.58,6.58,0,0,1,29.27,88.54Z"/><path class="cls-13" d="M50.1,82.15H31.76v1.42H50.1Z"/><path class="cls-13" d="M48.89,93.26l1.27-5.8L27.91,81.64a3.76,3.76,0,0,0-4.57,2.63h0a3.8,3.8,0,0,0-.09,1.54,3.59,3.59,0,0,0,.53,1.44,3.74,3.74,0,0,0,1.06,1.11,3.86,3.86,0,0,0,1.42.59Z"/><path class="cls-14" d="M53.11,71.86H37a.55.55,0,0,0-.35.12.57.57,0,0,0-.2.32l-2.22,9.85h17.6l1.85-9.63a.58.58,0,0,0-.12-.46.7.7,0,0,0-.19-.15.69.69,0,0,0-.24,0Z"/><path class="cls-4" d="M30.49,93.26l-1.27-5.8,22.25-5.82a3.75,3.75,0,0,1,2.82.38A3.71,3.71,0,0,1,56,84.27h0a3.8,3.8,0,0,1,.1,1.54,3.59,3.59,0,0,1-.53,1.44,3.74,3.74,0,0,1-1.06,1.11,3.86,3.86,0,0,1-1.42.59Z"/><path class="cls-11" d="M38.32,59.55l-.72,4.31a1,1,0,0,0,0,.34.85.85,0,0,0,.15.3.88.88,0,0,0,.24.23.76.76,0,0,0,.32.11l2.55.38a.92.92,0,0,0,.33,0,.85.85,0,0,0,.3-.15.88.88,0,0,0,.23-.24,1.21,1.21,0,0,0,.11-.32l.39-2.66Z"/><path class="cls-11" d="M37.9,62.12l3.82.72A2.23,2.23,0,0,0,44.2,61l1.08-6.45-7-.5L37.1,58.63s.22,1.12,1.22.92Z"/><path class="cls-10" d="M41.94,63.87l-3.27-1.6,3.41.59Z"/><path class="cls-4" d="M36.84,55.39a1.66,1.66,0,0,1,.5-1.19,1.7,1.7,0,0,1,1.2-.5h.13a1.67,1.67,0,0,1,.39-.56,1.62,1.62,0,0,1,.57-.36,1.65,1.65,0,0,1,1.33.06,1.62,1.62,0,0,1,1.34-.71,1.68,1.68,0,0,1,.76.16,1.62,1.62,0,0,1,.61.49,1.69,1.69,0,0,1,.92-.08,1.72,1.72,0,0,1,.82.41,1.66,1.66,0,0,1,.48.79,1.6,1.6,0,0,1,0,.92,1.63,1.63,0,0,1-.48.78,1.67,1.67,0,0,1-1.74.34,1.74,1.74,0,0,1-.74-.54,1.65,1.65,0,0,1-1.33-.06,1.7,1.7,0,0,1-1.37.71h-.14a1.61,1.61,0,0,1-.46.63h0a14.61,14.61,0,0,1-.52,1.47c-.12.22-.59-.63-.83-1.09a1.69,1.69,0,0,1-1.44-1.67Z"/><path class="cls-4" d="M37.1,58.63s.24-1.4,1.18-1.57-.4-1.51-1.18-1S36.82,58,37.1,58.63Z"/><path class="cls-15" d="M62.69,91.08H79.13a.31.31,0,0,0,.31-.31V88.89a.31.31,0,0,0-.31-.31H62.69a.31.31,0,0,0-.32.31v1.88A.31.31,0,0,0,62.69,91.08Z"/><path class="cls-16" d="M61.85,88.61H78.3a.31.31,0,0,0,.31-.31V86.42a.31.31,0,0,0-.31-.31H61.85a.31.31,0,0,0-.31.31V88.3A.31.31,0,0,0,61.85,88.61Z"/><path class="cls-17" d="M59.82,86.11H76.26a.31.31,0,0,0,.31-.31V83.92a.31.31,0,0,0-.31-.31H59.82a.31.31,0,0,0-.31.31V85.8A.31.31,0,0,0,59.82,86.11Z"/><path class="cls-18" d="M63.32,83.61H79.77a.31.31,0,0,0,.31-.31V81.42a.31.31,0,0,0-.31-.31H63.32a.31.31,0,0,0-.31.31V83.3A.31.31,0,0,0,63.32,83.61Z"/><path class="cls-19" d="M77,78.62H60.58a.31.31,0,0,0-.31.31v1.88a.31.31,0,0,0,.31.31H77a.31.31,0,0,0,.31-.31V78.93A.31.31,0,0,0,77,78.62Z"/><path class="cls-20" d="M57.69,78.62H74.13a.31.31,0,0,0,.31-.31V76.43a.31.31,0,0,0-.31-.31H57.69a.31.31,0,0,0-.32.31v1.88A.31.31,0,0,0,57.69,78.62Z"/><path class="cls-21" d="M62.35,76.12H78.79a.31.31,0,0,0,.32-.31V73.93a.31.31,0,0,0-.32-.31H62.35a.31.31,0,0,0-.31.31v1.88A.31.31,0,0,0,62.35,76.12Z"/><path class="cls-22" d="M75.83,71.17a8.55,8.55,0,1,0-12.1,0A8.53,8.53,0,0,0,75.83,71.17Z"/><path class="cls-23" d="M71.27,71.44a6.47,6.47,0,1,0-7.8-4.81A6.47,6.47,0,0,0,71.27,71.44Z"/><path class="cls-7" d="M69.87,72.47a7.22,7.22,0,1,1,7.22-7.22A7.23,7.23,0,0,1,69.87,72.47Zm0-13.69a6.47,6.47,0,0,0-6.36,7.73,6.47,6.47,0,0,0,8.83,4.72,6.47,6.47,0,0,0-2.47-12.45Z"/><path class="cls-24" d="M72.42,65.48a2.28,2.28,0,0,0-.91-.62,12.29,12.29,0,0,0-1.35-.39A5.75,5.75,0,0,1,69,64.11a.58.58,0,0,1-.39-.55.7.7,0,0,1,.34-.6,1.88,1.88,0,0,1,1-.23,4,4,0,0,1,2,.57L72.48,62a4.07,4.07,0,0,0-1.16-.48,5.94,5.94,0,0,0-.94-.15V60H69.19v1.48a4,4,0,0,0-.9.25,2.31,2.31,0,0,0-1,.81,2,2,0,0,0-.34,1.14,1.67,1.67,0,0,0,.38,1.16,2.2,2.2,0,0,0,.9.63,10.57,10.57,0,0,0,1.36.39c.35.09.64.16.85.23a1.72,1.72,0,0,1,.52.27.75.75,0,0,1,.15.2.59.59,0,0,1,0,.23.66.66,0,0,1-.34.57,2.08,2.08,0,0,1-1.06.21,4,4,0,0,1-1.28-.21,3.6,3.6,0,0,1-1.11-.55L66.77,68a4.3,4.3,0,0,0,1.29.6,7.25,7.25,0,0,0,1.13.21v1.31h1.19V68.83a3.71,3.71,0,0,0,1-.26,2.34,2.34,0,0,0,1-.81,1.91,1.91,0,0,0,.34-1.14A1.66,1.66,0,0,0,72.42,65.48Z"/><path class="cls-25" d="M82.58,91.09H99a.31.31,0,0,0,.31-.31V88.9a.31.31,0,0,0-.31-.31H82.58a.31.31,0,0,0-.31.31v1.88A.31.31,0,0,0,82.58,91.09Z"/><path class="cls-26" d="M81.75,88.63H98.19a.31.31,0,0,0,.32-.31V86.44a.31.31,0,0,0-.32-.31H81.75a.31.31,0,0,0-.31.31v1.88A.31.31,0,0,0,81.75,88.63Z"/><path class="cls-27" d="M80.94,86.12H97.38a.31.31,0,0,0,.31-.31V83.94a.31.31,0,0,0-.31-.32H80.94a.31.31,0,0,0-.31.32v1.87A.3.3,0,0,0,80.94,86.12Z"/><path class="cls-28" d="M83.22,83.63H99.66a.31.31,0,0,0,.31-.32V81.44a.31.31,0,0,0-.31-.31H83.22a.31.31,0,0,0-.31.31v1.87A.31.31,0,0,0,83.22,83.63Z"/><path class="cls-29" d="M96.92,78.63H80.47a.31.31,0,0,0-.31.31v1.88a.31.31,0,0,0,.31.31H96.92a.31.31,0,0,0,.31-.31V78.94A.31.31,0,0,0,96.92,78.63Z"/><path class="cls-30" d="M130.18,90.37V74.17a.71.71,0,0,0-.71-.72H102.61a.72.72,0,0,0-.72.72v16.2a.72.72,0,0,0,.72.72h26.86A.71.71,0,0,0,130.18,90.37Z"/><path class="cls-4" d="M130.19,81.09v-5h-28.3v5Z"/><path class="cls-14" d="M109,86.83a2,2,0,0,0-.18-.85,2,2,0,0,0-.5-.71,2.13,2.13,0,0,1,1.1-.55,2,2,0,0,1,1.22.14,2.16,2.16,0,0,1,1,.79,2.15,2.15,0,0,1,0,2.35,2.1,2.1,0,0,1-1,.79,2.12,2.12,0,0,1-1.22.15,2.3,2.3,0,0,1-1.1-.55,2,2,0,0,0,.5-.71,2.09,2.09,0,0,0,.18-.85Z"/><path class="cls-2" d="M106.88,84.68a2.1,2.1,0,0,1,1.46.59,2.23,2.23,0,0,0-.5.71,2.19,2.19,0,0,0-.17.85,2.26,2.26,0,0,0,.17.85,2.34,2.34,0,0,0,.5.71,2.05,2.05,0,0,1-.9.5,2.24,2.24,0,0,1-1,0,2.32,2.32,0,0,1-.93-.46,2.16,2.16,0,0,1-.74-1.87,2.12,2.12,0,0,1,.36-1,2.15,2.15,0,0,1,1.78-.94Z"/><path class="cls-14" d="M108.34,88.08c.28,0,.5-.56.5-1.25s-.22-1.25-.5-1.25-.5.56-.5,1.25S108.07,88.08,108.34,88.08Z"/><path class="cls-14" d="M116.28,85.91H127.2a.24.24,0,0,0,.24-.24V85a.23.23,0,0,0-.24-.23H116.28A.23.23,0,0,0,116,85v.64A.24.24,0,0,0,116.28,85.91Z"/><path class="cls-14" d="M118.77,87.73h8.43a.24.24,0,0,0,.24-.24v-.64a.24.24,0,0,0-.24-.24h-8.43a.24.24,0,0,0-.24.24v.64A.24.24,0,0,0,118.77,87.73Z"/><path class="cls-5" d="M10.67,42.79h17V55a.51.51,0,0,1-.15.36.5.5,0,0,1-.35.14h-16a.54.54,0,0,1-.36-.14.55.55,0,0,1-.15-.36V42.79Z"/><path class="cls-6" d="M11.18,39.42h16a.51.51,0,0,1,.51.51v4.71h-17V39.93a.51.51,0,0,1,.15-.36.49.49,0,0,1,.36-.15Z"/><path class="cls-5" d="M13.39,38.28h-.65a.45.45,0,0,0-.45.44v3.62a.45.45,0,0,0,.45.45h.65a.45.45,0,0,0,.45-.45V38.72A.45.45,0,0,0,13.39,38.28Z"/><path class="cls-5" d="M16.49,38.28h-.65a.45.45,0,0,0-.45.44v3.62a.45.45,0,0,0,.45.45h.65a.45.45,0,0,0,.45-.45V38.72A.45.45,0,0,0,16.49,38.28Z"/><path class="cls-5" d="M24.92,42.79h.66a.45.45,0,0,0,.44-.45V38.72a.44.44,0,0,0-.44-.44h-.66a.44.44,0,0,0-.44.44v3.62A.45.45,0,0,0,24.92,42.79Z"/><path class="cls-5" d="M21.83,42.79h.65a.45.45,0,0,0,.45-.45V38.72a.45.45,0,0,0-.45-.44h-.65a.45.45,0,0,0-.45.44v3.62A.45.45,0,0,0,21.83,42.79Z"/><path class="cls-14" d="M18,46.42H16.38a.51.51,0,0,0-.51.5v1.57a.51.51,0,0,0,.51.51H18a.5.5,0,0,0,.5-.51V46.92A.5.5,0,0,0,18,46.42Z"/><path class="cls-14" d="M21.9,46.42H20.29a.5.5,0,0,0-.5.5v1.57a.5.5,0,0,0,.5.51H21.9a.51.51,0,0,0,.51-.51V46.92A.51.51,0,0,0,21.9,46.42Z"/><path class="cls-14" d="M25.83,46.42H24.22a.51.51,0,0,0-.51.5v1.57a.51.51,0,0,0,.51.51h1.61a.51.51,0,0,0,.51-.51V46.92A.51.51,0,0,0,25.83,46.42Z"/><path class="cls-2" d="M14.07,46.42H12.49a.5.5,0,0,0-.5.5v1.57a.5.5,0,0,0,.5.51h1.58a.5.5,0,0,0,.5-.51V46.92A.5.5,0,0,0,14.07,46.42Z"/><path class="cls-14" d="M25.83,50.29H24.22a.5.5,0,0,0-.51.5v1.57a.5.5,0,0,0,.51.5h1.61a.5.5,0,0,0,.51-.5V50.79A.5.5,0,0,0,25.83,50.29Z"/><path class="cls-14" d="M21.9,50.29H20.29a.5.5,0,0,0-.5.5v1.57a.5.5,0,0,0,.5.5H21.9a.5.5,0,0,0,.51-.5V50.79A.5.5,0,0,0,21.9,50.29Z"/><path class="cls-14" d="M18,50.29H16.39a.5.5,0,0,0-.51.5v1.57a.5.5,0,0,0,.51.5H18a.5.5,0,0,0,.5-.5V50.79A.5.5,0,0,0,18,50.29Z"/><path class="cls-2" d="M14.07,50.29H12.49a.5.5,0,0,0-.5.5v1.57a.5.5,0,0,0,.5.5h1.58a.5.5,0,0,0,.5-.5V50.79A.5.5,0,0,0,14.07,50.29Z"/></g></g></svg>