<svg width="200" height="200" viewBox="0 0 200 200" fill="none" xmlns="http://www.w3.org/2000/svg">
<rect width="200" height="200" fill="white"/>
<path d="M60.25 68.1172C60.25 68.8702 60.5491 69.5924 61.0816 70.1249C61.6141 70.6573 62.3363 70.9565 63.0893 70.9565C63.8423 70.9565 64.5645 70.6573 65.097 70.1249C65.6294 69.5924 65.9286 68.8702 65.9286 68.1172C65.9286 67.3642 65.6294 66.642 65.097 66.1095C64.5645 65.577 63.8423 65.2779 63.0893 65.2779C62.3363 65.2779 61.6141 65.577 61.0816 66.1095C60.5491 66.642 60.25 67.3642 60.25 68.1172ZM81.0714 68.1172C81.0714 68.8702 81.3706 69.5924 81.903 70.1249C82.4355 70.6573 83.1577 70.9565 83.9107 70.9565C84.6637 70.9565 85.3859 70.6573 85.9184 70.1249C86.4509 69.5924 86.75 68.8702 86.75 68.1172C86.75 67.3642 86.4509 66.642 85.9184 66.1095C85.3859 65.577 84.6637 65.2779 83.9107 65.2779C83.1577 65.2779 82.4355 65.577 81.903 66.1095C81.3706 66.642 81.0714 67.3642 81.0714 68.1172ZM73.5 47C58.8658 47 47 58.8658 47 73.5C47 88.1342 58.8658 100 73.5 100C88.1342 100 100 88.1342 100 73.5C100 58.8658 88.1342 47 73.5 47ZM89.0569 89.0569C87.0339 91.0799 84.6797 92.6652 82.0593 93.7772C79.356 94.9248 76.4753 95.5045 73.5 95.5045C70.5247 95.5045 67.644 94.9248 64.9348 93.7772C62.3184 92.6722 59.9417 91.069 57.9372 89.0569C55.9142 87.0339 54.3289 84.6797 53.2169 82.0593C52.0752 79.356 51.4955 76.4753 51.4955 73.5C51.4955 70.5247 52.0752 67.644 53.2228 64.9348C54.3278 62.3184 55.931 59.9417 57.9431 57.9372C59.9661 55.9142 62.3203 54.3289 64.9407 53.2169C67.644 52.0752 70.5247 51.4955 73.5 51.4955C76.4753 51.4955 79.356 52.0752 82.0652 53.2228C84.6816 54.3278 87.0583 55.931 89.0628 57.9431C91.0858 59.9661 92.6711 62.3203 93.7831 64.9407C94.9248 67.644 95.5045 70.5247 95.5045 73.5C95.5045 76.4753 94.9248 79.356 93.7772 82.0652C92.6736 84.6806 91.0702 87.0556 89.0569 89.0569Z" fill="#037971"/>
<path d="M64.5545 82.9644H66.1845H68.2346H73.5456H77.2262H79.6915H82.5367C82.6009 82.9644 82.6644 82.9515 82.7234 82.9262C82.7824 82.901 82.8357 82.864 82.88 82.8175C82.9242 82.771 82.9586 82.716 82.9809 82.6558C83.0032 82.5957 83.0131 82.5316 83.0099 82.4675C82.7496 77.481 78.6031 73.5001 73.5456 73.5001C68.4881 73.5001 64.3416 77.481 64.0813 82.4675C64.0781 82.5316 64.088 82.5957 64.1103 82.6558C64.1327 82.716 64.167 82.771 64.2113 82.8175C64.2555 82.864 64.3088 82.901 64.3678 82.9262C64.4268 82.9515 64.4904 82.9644 64.5545 82.9644Z" fill="#037971"/>
<circle cx="126.5" cy="126.5" r="24" fill="#81BCB8" stroke="#037971" stroke-width="5"/>
<path d="M113.25 121.117C113.25 121.87 113.549 122.592 114.082 123.125C114.614 123.657 115.336 123.956 116.089 123.956C116.842 123.956 117.564 123.657 118.097 123.125C118.629 122.592 118.929 121.87 118.929 121.117C118.929 120.364 118.629 119.642 118.097 119.11C117.564 118.577 116.842 118.278 116.089 118.278C115.336 118.278 114.614 118.577 114.082 119.11C113.549 119.642 113.25 120.364 113.25 121.117ZM134.071 121.117C134.071 121.87 134.371 122.592 134.903 123.125C135.436 123.657 136.158 123.956 136.911 123.956C137.664 123.956 138.386 123.657 138.918 123.125C139.451 122.592 139.75 121.87 139.75 121.117C139.75 120.364 139.451 119.642 138.918 119.11C138.386 118.577 137.664 118.278 136.911 118.278C136.158 118.278 135.436 118.577 134.903 119.11C134.371 119.642 134.071 120.364 134.071 121.117ZM126.5 100C111.866 100 100 111.866 100 126.5C100 141.134 111.866 153 126.5 153C141.134 153 153 141.134 153 126.5C153 111.866 141.134 100 126.5 100ZM142.057 142.057C140.034 144.08 137.68 145.665 135.059 146.777C132.356 147.925 129.475 148.504 126.5 148.504C123.525 148.504 120.644 147.925 117.935 146.777C115.318 145.672 112.942 144.069 110.937 142.057C108.914 140.034 107.329 137.68 106.217 135.059C105.075 132.356 104.496 129.475 104.496 126.5C104.496 123.525 105.075 120.644 106.223 117.935C107.328 115.318 108.931 112.942 110.943 110.937C112.966 108.914 115.32 107.329 117.941 106.217C120.644 105.075 123.525 104.496 126.5 104.496C129.475 104.496 132.356 105.075 135.065 106.223C137.682 107.328 140.058 108.931 142.063 110.943C144.086 112.966 145.671 115.32 146.783 117.941C147.925 120.644 148.504 123.525 148.504 126.5C148.504 129.475 147.925 132.356 146.777 135.065C145.674 137.681 144.07 140.056 142.057 142.057ZM135.491 127.742H133.861H131.811H126.5H122.819H120.354H117.509C117.445 127.742 117.381 127.755 117.322 127.78C117.263 127.806 117.21 127.843 117.166 127.889C117.121 127.936 117.087 127.991 117.065 128.051C117.042 128.111 117.033 128.175 117.036 128.239C117.296 133.226 121.443 137.206 126.5 137.206C131.557 137.206 135.704 133.226 135.964 128.239C135.967 128.175 135.958 128.111 135.935 128.051C135.913 127.991 135.879 127.936 135.834 127.889C135.79 127.843 135.737 127.806 135.678 127.78C135.619 127.755 135.555 127.742 135.491 127.742Z" fill="#037971"/>
</svg>
