<svg width="9543" height="5610" viewBox="0 0 9543 5610" fill="none" xmlns="http://www.w3.org/2000/svg">
<rect y="5022" width="728" height="588" fill="#BE94C5"/>
<text fill="black" xml:space="preserve" style="white-space: pre" font-family="Montserrat" font-size="64" letter-spacing="0.04em"><tspan x="117.144" y="5260.93">I want to taste </tspan><tspan x="163.171" y="5338.94">beer like an </tspan><tspan x="244.696" y="5416.96">expert.</tspan></text>
<g style="mix-blend-mode:multiply" opacity="0.2">
<rect y="5586" width="728" height="24" fill="#E5E5E5"/>
</g>
<g style="mix-blend-mode:screen" opacity="0.1">
<rect y="5022" width="728" height="12" fill="white"/>
</g>
<g style="mix-blend-mode:multiply" opacity="0.04">
<path d="M728 5022V5174L598 5022H728Z" fill="black"/>
</g>
<rect x="2930" y="4304" width="728" height="588" fill="#A8CDF4"/>
<text fill="black" xml:space="preserve" style="white-space: pre" font-family="Montserrat" font-size="64" letter-spacing="0.04em"><tspan x="3099.17" y="4581.94">I love beers </tspan><tspan x="3020.46" y="4659.95">with fruit flavor.</tspan></text>
<g style="mix-blend-mode:multiply" opacity="0.2">
<rect x="2930" y="4868" width="728" height="24" fill="#E5E5E5"/>
</g>
<g style="mix-blend-mode:screen" opacity="0.1">
<rect x="2930" y="4304" width="728" height="12" fill="white"/>
</g>
<g style="mix-blend-mode:multiply" opacity="0.04">
<path d="M3658 4304V4456L3528 4304H3658Z" fill="black"/>
</g>
<rect x="4965" y="3586" width="728" height="588" fill="#D1E17C"/>
<text fill="black" xml:space="preserve" style="white-space: pre" font-family="Montserrat" font-size="64" letter-spacing="0.04em"><tspan x="5134.17" y="3863.94">I love beers </tspan><tspan x="5055.46" y="3941.95">with fruit flavor.</tspan></text>
<g style="mix-blend-mode:multiply" opacity="0.2">
<rect x="4965" y="4150" width="728" height="24" fill="#E5E5E5"/>
</g>
<g style="mix-blend-mode:screen" opacity="0.1">
<rect x="4965" y="3586" width="728" height="12" fill="white"/>
</g>
<g style="mix-blend-mode:multiply" opacity="0.04">
<path d="M5693 3586V3738L5563 3586H5693Z" fill="black"/>
</g>
<rect x="6945" y="3586" width="728" height="588" fill="#FFF064"/>
<text fill="black" xml:space="preserve" style="white-space: pre" font-family="Montserrat" font-size="64" letter-spacing="0.04em"><tspan x="7157.82" y="3707.9">The beer </tspan><tspan x="7037.11" y="3785.92">advertisement I </tspan><tspan x="7041.05" y="3863.94">saw from social </tspan><tspan x="7116.79" y="3941.95">media may </tspan><tspan x="7039.2" y="4019.97">influence me to </tspan><tspan x="7039.27" y="4097.98">consume them.</tspan></text>
<g style="mix-blend-mode:multiply" opacity="0.2">
<rect x="6945" y="4150" width="728" height="24" fill="#E5E5E5"/>
</g>
<g style="mix-blend-mode:screen" opacity="0.1">
<rect x="6945" y="3586" width="728" height="12" fill="white"/>
</g>
<g style="mix-blend-mode:multiply" opacity="0.04">
<path d="M7673 3586V3738L7543 3586H7673Z" fill="black"/>
</g>
<rect x="8815" y="4304" width="728" height="588" fill="#F5D22B"/>
<text fill="black" xml:space="preserve" style="white-space: pre" font-family="Montserrat" font-size="64" letter-spacing="0.04em"><tspan x="8996.36" y="4425.9">I do a beer </tspan><tspan x="9076.1" y="4503.92">bottle </tspan><tspan x="8932.58" y="4581.94">collection, but </tspan><tspan x="8913.02" y="4659.95">it takes up a lot </tspan><tspan x="8930.58" y="4737.97">of space in my </tspan><tspan x="9079.32" y="4815.98">room.</tspan></text>
<g style="mix-blend-mode:multiply" opacity="0.2">
<rect x="8815" y="4868" width="728" height="24" fill="#E5E5E5"/>
</g>
<g style="mix-blend-mode:screen" opacity="0.1">
<rect x="8815" y="4304" width="728" height="12" fill="white"/>
</g>
<g style="mix-blend-mode:multiply" opacity="0.04">
<path d="M9543 4304V4456L9413 4304H9543Z" fill="black"/>
</g>
<rect x="839" y="1432" width="728" height="588" fill="#BE94C5"/>
<text fill="black" xml:space="preserve" style="white-space: pre" font-family="Montserrat" font-size="64" letter-spacing="0.04em"><tspan x="1005.82" y="1553.9">Whenever I </tspan><tspan x="949.581" y="1631.92">travel to a new </tspan><tspan x="925.272" y="1709.94">country or city, I </tspan><tspan x="972.235" y="1787.95">want to drink </tspan><tspan x="935.892" y="1865.97">the most worth </tspan><tspan x="986.61" y="1943.98">trying beers.</tspan></text>
<g style="mix-blend-mode:multiply" opacity="0.2">
<rect x="839" y="1996" width="728" height="24" fill="#E5E5E5"/>
</g>
<g style="mix-blend-mode:screen" opacity="0.1">
<rect x="839" y="1432" width="728" height="12" fill="white"/>
</g>
<g style="mix-blend-mode:multiply" opacity="0.04">
<path d="M1567 1432V1584L1437 1432H1567Z" fill="black"/>
</g>
<rect x="2930" y="1432" width="728" height="588" fill="#A8CDF4"/>
<text fill="black" xml:space="preserve" style="white-space: pre" font-family="Montserrat" font-size="64" letter-spacing="0.04em"><tspan x="3038.11" y="1592.91">When I choose </tspan><tspan x="3044.96" y="1670.93">new beers, I&#39;m </tspan><tspan x="3053.89" y="1748.94">into the beers </tspan><tspan x="3043.11" y="1826.96">with attractive </tspan><tspan x="3122.64" y="1904.98">packages. </tspan></text>
<g style="mix-blend-mode:multiply" opacity="0.2">
<rect x="2930" y="1996" width="728" height="24" fill="#E5E5E5"/>
</g>
<g style="mix-blend-mode:screen" opacity="0.1">
<rect x="2930" y="1432" width="728" height="12" fill="white"/>
</g>
<g style="mix-blend-mode:multiply" opacity="0.04">
<path d="M3658 1432V1584L3528 1432H3658Z" fill="black"/>
</g>
<rect x="4965" y="1432" width="728" height="588" fill="#D1E17C"/>
<text fill="black" xml:space="preserve" style="white-space: pre" font-family="Montserrat" font-size="64" letter-spacing="0.04em"><tspan x="5087.52" y="1553.9">I usually drink </tspan><tspan x="5123.92" y="1631.92">beers in the </tspan><tspan x="5061.24" y="1709.94">evening and on </tspan><tspan x="5049.98" y="1787.95">weekends when </tspan><tspan x="5125.76" y="1865.97">I&#39;m with my </tspan><tspan x="5199.01" y="1943.98">friends.</tspan></text>
<g style="mix-blend-mode:multiply" opacity="0.2">
<rect x="4965" y="1996" width="728" height="24" fill="#E5E5E5"/>
</g>
<g style="mix-blend-mode:screen" opacity="0.1">
<rect x="4965" y="1432" width="728" height="12" fill="white"/>
</g>
<g style="mix-blend-mode:multiply" opacity="0.04">
<path d="M5693 1432V1584L5563 1432H5693Z" fill="black"/>
</g>
<rect x="6945" y="1432" width="728" height="588" fill="#FFF064"/>
<text fill="black" xml:space="preserve" style="white-space: pre" font-family="Montserrat" font-size="64" letter-spacing="0.04em"><tspan x="7101.23" y="1631.92">Hard to find </tspan><tspan x="7132.51" y="1709.94">some new </tspan><tspan x="7085.36" y="1787.95">beers that fit </tspan><tspan x="7033.33" y="1865.97">my expectation.</tspan></text>
<g style="mix-blend-mode:multiply" opacity="0.2">
<rect x="6945" y="1996" width="728" height="24" fill="#E5E5E5"/>
</g>
<g style="mix-blend-mode:screen" opacity="0.1">
<rect x="6945" y="1432" width="728" height="12" fill="white"/>
</g>
<g style="mix-blend-mode:multiply" opacity="0.04">
<path d="M7673 1432V1584L7543 1432H7673Z" fill="black"/>
</g>
<rect x="8815" y="1432" width="728" height="588" fill="#F5D22B"/>
<text fill="black" xml:space="preserve" style="white-space: pre" font-family="Montserrat" font-size="64" letter-spacing="0.04em"><tspan x="8909.68" y="1670.93">I enjoy drinking </tspan><tspan x="8963.2" y="1748.94">beers before </tspan><tspan x="9080.45" y="1826.96">sleep.</tspan></text>
<g style="mix-blend-mode:multiply" opacity="0.2">
<rect x="8815" y="1996" width="728" height="24" fill="#E5E5E5"/>
</g>
<g style="mix-blend-mode:screen" opacity="0.1">
<rect x="8815" y="1432" width="728" height="12" fill="white"/>
</g>
<g style="mix-blend-mode:multiply" opacity="0.04">
<path d="M9543 1432V1584L9413 1432H9543Z" fill="black"/>
</g>
<rect x="839" y="2868" width="728" height="588" fill="#BE94C5"/>
<text fill="black" xml:space="preserve" style="white-space: pre" font-family="Montserrat" font-size="64" letter-spacing="0.04em"><tspan x="961.519" y="2989.9">I usually drink </tspan><tspan x="997.921" y="3067.92">beers in the </tspan><tspan x="935.236" y="3145.94">evening and on </tspan><tspan x="923.985" y="3223.95">weekends when </tspan><tspan x="1042.17" y="3301.97">watching </tspan><tspan x="958.048" y="3379.98">soccer games.</tspan></text>
<g style="mix-blend-mode:multiply" opacity="0.2">
<rect x="839" y="3432" width="728" height="24" fill="#E5E5E5"/>
</g>
<g style="mix-blend-mode:screen" opacity="0.1">
<rect x="839" y="2868" width="728" height="12" fill="white"/>
</g>
<g style="mix-blend-mode:multiply" opacity="0.04">
<path d="M1567 2868V3020L1437 2868H1567Z" fill="black"/>
</g>
<rect x="2930" y="2868" width="728" height="588" fill="#A8CDF4"/>
<text fill="black" xml:space="preserve" style="white-space: pre" font-family="Montserrat" font-size="64" letter-spacing="0.04em"><tspan x="3052.52" y="2989.9">I usually drink </tspan><tspan x="3059.36" y="3067.92">at home after </tspan><tspan x="3125.2" y="3145.94">work, and </tspan><tspan x="3103.14" y="3223.95">meanwhile </tspan><tspan x="3035.7" y="3301.97">watching TV to </tspan><tspan x="3203.23" y="3379.98">relax.</tspan></text>
<g style="mix-blend-mode:multiply" opacity="0.2">
<rect x="2930" y="3432" width="728" height="24" fill="#E5E5E5"/>
</g>
<g style="mix-blend-mode:screen" opacity="0.1">
<rect x="2930" y="2868" width="728" height="12" fill="white"/>
</g>
<g style="mix-blend-mode:multiply" opacity="0.04">
<path d="M3658 2868V3020L3528 2868H3658Z" fill="black"/>
</g>
<rect x="4965" y="2868" width="728" height="588" fill="#D1E17C"/>
<text fill="black" xml:space="preserve" style="white-space: pre" font-family="Montserrat" font-size="64" letter-spacing="0.04em"><tspan x="5064.21" y="3145.94">I&#39;m not good at </tspan><tspan x="5058.42" y="3223.95">choosing beers. </tspan></text>
<g style="mix-blend-mode:multiply" opacity="0.2">
<rect x="4965" y="3432" width="728" height="24" fill="#E5E5E5"/>
</g>
<g style="mix-blend-mode:screen" opacity="0.1">
<rect x="4965" y="2868" width="728" height="12" fill="white"/>
</g>
<g style="mix-blend-mode:multiply" opacity="0.04">
<path d="M5693 2868V3020L5563 2868H5693Z" fill="black"/>
</g>
<rect x="4126" y="3586" width="728" height="588" fill="#D1E17C"/>
<text fill="black" xml:space="preserve" style="white-space: pre" font-family="Montserrat" font-size="64" letter-spacing="0.04em"><tspan x="4262.64" y="3785.92">The IBU does </tspan><tspan x="4228.33" y="3863.94">not indicate on </tspan><tspan x="4216.05" y="3941.95">the packages of </tspan><tspan x="4283.04" y="4019.97">some beers.</tspan></text>
<g style="mix-blend-mode:multiply" opacity="0.2">
<rect x="4126" y="4150" width="728" height="24" fill="#E5E5E5"/>
</g>
<g style="mix-blend-mode:screen" opacity="0.1">
<rect x="4126" y="3586" width="728" height="12" fill="white"/>
</g>
<g style="mix-blend-mode:multiply" opacity="0.04">
<path d="M4854 3586V3738L4724 3586H4854Z" fill="black"/>
</g>
<rect x="6945" y="2868" width="728" height="588" fill="#FFF064"/>
<text fill="black" xml:space="preserve" style="white-space: pre" font-family="Montserrat" font-size="64" letter-spacing="0.04em"><tspan x="7090.92" y="3067.92">I order beers </tspan><tspan x="7101.29" y="3145.94">when I have </tspan><tspan x="7085.52" y="3223.95">dinner in the </tspan><tspan x="7120.92" y="3301.97">restaurant.</tspan></text>
<g style="mix-blend-mode:multiply" opacity="0.2">
<rect x="6945" y="3432" width="728" height="24" fill="#E5E5E5"/>
</g>
<g style="mix-blend-mode:screen" opacity="0.1">
<rect x="6945" y="2868" width="728" height="12" fill="white"/>
</g>
<g style="mix-blend-mode:multiply" opacity="0.04">
<path d="M7673 2868V3020L7543 2868H7673Z" fill="black"/>
</g>
<rect x="8815" y="2868" width="728" height="588" fill="#F5D22B"/>
<text fill="black" xml:space="preserve" style="white-space: pre" font-family="Montserrat" font-size="64" letter-spacing="0.04em"><tspan x="8954.61" y="2950.9">I usually look </tspan><tspan x="8970.23" y="3028.91">through the </tspan><tspan x="8920.02" y="3106.93">introduction of </tspan><tspan x="8928.52" y="3184.94">the beer on its </tspan><tspan x="8997.14" y="3262.96">packaging </tspan><tspan x="9022.76" y="3340.98">while I&#39;m </tspan><tspan x="9024.95" y="3418.99">drinking.</tspan></text>
<g style="mix-blend-mode:multiply" opacity="0.2">
<rect x="8815" y="3432" width="728" height="24" fill="#E5E5E5"/>
</g>
<g style="mix-blend-mode:screen" opacity="0.1">
<rect x="8815" y="2868" width="728" height="12" fill="white"/>
</g>
<g style="mix-blend-mode:multiply" opacity="0.04">
<path d="M9543 2868V3020L9413 2868H9543Z" fill="black"/>
</g>
<rect x="839" y="4304" width="728" height="588" fill="#BE94C5"/>
<text fill="black" xml:space="preserve" style="white-space: pre" font-family="Montserrat" font-size="64" letter-spacing="0.04em"><tspan x="1008.17" y="4386.9">I love beers </tspan><tspan x="946.832" y="4464.91">with a bitter or </tspan><tspan x="954.205" y="4542.93">sour flavor but </tspan><tspan x="1107.91" y="4620.94">is not </tspan><tspan x="984.954" y="4698.96">interested in </tspan><tspan x="991.952" y="4776.98">beers with a </tspan><tspan x="998.609" y="4854.99">sweet taste.</tspan></text>
<g style="mix-blend-mode:multiply" opacity="0.2">
<rect x="839" y="4868" width="728" height="24" fill="#E5E5E5"/>
</g>
<g style="mix-blend-mode:screen" opacity="0.1">
<rect x="839" y="4304" width="728" height="12" fill="white"/>
</g>
<g style="mix-blend-mode:multiply" opacity="0.04">
<path d="M1567 4304V4456L1437 4304H1567Z" fill="black"/>
</g>
<rect x="2091" y="4304" width="728" height="588" fill="#A8CDF4"/>
<text fill="black" xml:space="preserve" style="white-space: pre" font-family="Montserrat" font-size="64" letter-spacing="0.04em"><tspan x="2225.83" y="4425.9">I prefer beers </tspan><tspan x="2193.64" y="4503.92">that have good </tspan><tspan x="2224.8" y="4581.94">entrance and </tspan><tspan x="2320.73" y="4659.95">have an </tspan><tspan x="2252.7" y="4737.97">appropriate </tspan><tspan x="2375.01" y="4815.98">ABV.</tspan></text>
<g style="mix-blend-mode:multiply" opacity="0.2">
<rect x="2091" y="4868" width="728" height="24" fill="#E5E5E5"/>
</g>
<g style="mix-blend-mode:screen" opacity="0.1">
<rect x="2091" y="4304" width="728" height="12" fill="white"/>
</g>
<g style="mix-blend-mode:multiply" opacity="0.04">
<path d="M2819 4304V4456L2689 4304H2819Z" fill="black"/>
</g>
<rect x="7976" y="4304" width="728" height="588" fill="#F5D22B"/>
<text fill="black" xml:space="preserve" style="white-space: pre" font-family="Montserrat" font-size="64" letter-spacing="0.04em"><tspan x="8132.48" y="4503.92">Beers in the </tspan><tspan x="8123.49" y="4581.94">refrigerators </tspan><tspan x="8131.92" y="4659.95">are always a </tspan><tspan x="8103.58" y="4737.97">better choice.</tspan></text>
<g style="mix-blend-mode:multiply" opacity="0.2">
<rect x="7976" y="4868" width="728" height="24" fill="#E5E5E5"/>
</g>
<g style="mix-blend-mode:screen" opacity="0.1">
<rect x="7976" y="4304" width="728" height="12" fill="white"/>
</g>
<g style="mix-blend-mode:multiply" opacity="0.04">
<path d="M8704 4304V4456L8574 4304H8704Z" fill="black"/>
</g>
<rect y="714" width="728" height="588" fill="#BE94C5"/>
<text fill="black" xml:space="preserve" style="white-space: pre" font-family="Montserrat" font-size="64" letter-spacing="0.04em"><tspan x="123.361" y="874.912">I want to walk </tspan><tspan x="101.019" y="952.928">out of the shop </tspan><tspan x="219.979" y="1030.94">with the </tspan><tspan x="131.204" y="1108.96">absolute best </tspan><tspan x="109.706" y="1186.98">beers possible.</tspan></text>
<g style="mix-blend-mode:multiply" opacity="0.2">
<rect y="1278" width="728" height="24" fill="#E5E5E5"/>
</g>
<g style="mix-blend-mode:screen" opacity="0.1">
<rect y="714" width="728" height="12" fill="white"/>
</g>
<g style="mix-blend-mode:multiply" opacity="0.04">
<path d="M728 714V866L598 714H728Z" fill="black"/>
</g>
<rect x="2091" y="714" width="728" height="588" fill="#A8CDF4"/>
<text fill="black" xml:space="preserve" style="white-space: pre" font-family="Montserrat" font-size="64" letter-spacing="0.04em"><tspan x="2205.89" y="952.928">I want to get a </tspan><tspan x="2222.86" y="1030.94">little liquored </tspan><tspan x="2401.63" y="1108.96">up.</tspan></text>
<g style="mix-blend-mode:multiply" opacity="0.2">
<rect x="2091" y="1278" width="728" height="24" fill="#E5E5E5"/>
</g>
<g style="mix-blend-mode:screen" opacity="0.1">
<rect x="2091" y="714" width="728" height="12" fill="white"/>
</g>
<g style="mix-blend-mode:multiply" opacity="0.04">
<path d="M2819 714V866L2689 714H2819Z" fill="black"/>
</g>
<rect x="4126" y="714" width="728" height="588" fill="#D1E17C"/>
<text fill="black" xml:space="preserve" style="white-space: pre" font-family="Montserrat" font-size="64" letter-spacing="0.04em"><tspan x="4260.83" y="952.928">I prefer beers </tspan><tspan x="4237.43" y="1030.94">that are bright </tspan><tspan x="4323.67" y="1108.96">and crisp.</tspan></text>
<g style="mix-blend-mode:multiply" opacity="0.2">
<rect x="4126" y="1278" width="728" height="24" fill="#E5E5E5"/>
</g>
<g style="mix-blend-mode:screen" opacity="0.1">
<rect x="4126" y="714" width="728" height="12" fill="white"/>
</g>
<g style="mix-blend-mode:multiply" opacity="0.04">
<path d="M4854 714V866L4724 714H4854Z" fill="black"/>
</g>
<rect x="6106" y="714" width="728" height="588" fill="#FFF064"/>
<text fill="black" xml:space="preserve" style="white-space: pre" font-family="Montserrat" font-size="48" letter-spacing="0.04em"><tspan x="6193.58" y="908.184">I prefer to choose the </tspan><tspan x="6252.68" y="966.696">familiar beers on </tspan><tspan x="6205.13" y="1025.21">important occasions </tspan><tspan x="6223.52" y="1083.72">to ensure everyone </tspan><tspan x="6210.89" y="1142.23">can enjoy the beers.</tspan></text>
<g style="mix-blend-mode:multiply" opacity="0.2">
<rect x="6106" y="1278" width="728" height="24" fill="#E5E5E5"/>
</g>
<g style="mix-blend-mode:screen" opacity="0.1">
<rect x="6106" y="714" width="728" height="12" fill="white"/>
</g>
<g style="mix-blend-mode:multiply" opacity="0.04">
<path d="M6834 714V866L6704 714H6834Z" fill="black"/>
</g>
<rect x="7976" y="714" width="728" height="588" fill="#F5D22B"/>
<text fill="black" xml:space="preserve" style="white-space: pre" font-family="Montserrat" font-size="48" letter-spacing="0.04em"><tspan x="8063.58" y="908.184">I prefer to choose the </tspan><tspan x="8122.68" y="966.696">familiar beers on </tspan><tspan x="8075.13" y="1025.21">important occasions </tspan><tspan x="8093.52" y="1083.72">to ensure everyone </tspan><tspan x="8080.89" y="1142.23">can enjoy the beers.</tspan></text>
<g style="mix-blend-mode:multiply" opacity="0.2">
<rect x="7976" y="1278" width="728" height="24" fill="#E5E5E5"/>
</g>
<g style="mix-blend-mode:screen" opacity="0.1">
<rect x="7976" y="714" width="728" height="12" fill="white"/>
</g>
<g style="mix-blend-mode:multiply" opacity="0.04">
<path d="M8704 714V866L8574 714H8704Z" fill="black"/>
</g>
<rect y="2150" width="728" height="588" fill="#BE94C5"/>
<text fill="black" xml:space="preserve" style="white-space: pre" font-family="Montserrat" font-size="64" letter-spacing="0.04em"><tspan x="128.829" y="2427.94">Drink about 5 </tspan><tspan x="155.732" y="2505.95">days a week</tspan></text>
<g style="mix-blend-mode:multiply" opacity="0.2">
<rect y="2714" width="728" height="24" fill="#E5E5E5"/>
</g>
<g style="mix-blend-mode:screen" opacity="0.1">
<rect y="2150" width="728" height="12" fill="white"/>
</g>
<g style="mix-blend-mode:multiply" opacity="0.04">
<path d="M728 2150V2302L598 2150H728Z" fill="black"/>
</g>
<rect x="2091" y="2150" width="728" height="588" fill="#A8CDF4"/>
<text fill="black" xml:space="preserve" style="white-space: pre" font-family="Montserrat" font-size="64" letter-spacing="0.04em"><tspan x="2219.89" y="2427.94">Drink about 3 </tspan><tspan x="2227.95" y="2505.95">times a week</tspan></text>
<g style="mix-blend-mode:multiply" opacity="0.2">
<rect x="2091" y="2714" width="728" height="24" fill="#E5E5E5"/>
</g>
<g style="mix-blend-mode:screen" opacity="0.1">
<rect x="2091" y="2150" width="728" height="12" fill="white"/>
</g>
<g style="mix-blend-mode:multiply" opacity="0.04">
<path d="M2819 2150V2302L2689 2150H2819Z" fill="black"/>
</g>
<rect x="4126" y="2150" width="728" height="588" fill="#D1E17C"/>
<text fill="black" xml:space="preserve" style="white-space: pre" font-family="Montserrat" font-size="64" letter-spacing="0.04em"><tspan x="4254.77" y="2427.94">Drink about 2 </tspan><tspan x="4262.95" y="2505.95">times a week</tspan></text>
<g style="mix-blend-mode:multiply" opacity="0.2">
<rect x="4126" y="2714" width="728" height="24" fill="#E5E5E5"/>
</g>
<g style="mix-blend-mode:screen" opacity="0.1">
<rect x="4126" y="2150" width="728" height="12" fill="white"/>
</g>
<g style="mix-blend-mode:multiply" opacity="0.04">
<path d="M4854 2150V2302L4724 2150H4854Z" fill="black"/>
</g>
<rect x="6106" y="2150" width="728" height="588" fill="#FFF064"/>
<text fill="black" xml:space="preserve" style="white-space: pre" font-family="Montserrat" font-size="64" letter-spacing="0.04em"><tspan x="6233.45" y="2427.94">Drink about 6 </tspan><tspan x="6242.95" y="2505.95">times a week</tspan></text>
<g style="mix-blend-mode:multiply" opacity="0.2">
<rect x="6106" y="2714" width="728" height="24" fill="#E5E5E5"/>
</g>
<g style="mix-blend-mode:screen" opacity="0.1">
<rect x="6106" y="2150" width="728" height="12" fill="white"/>
</g>
<g style="mix-blend-mode:multiply" opacity="0.04">
<path d="M6834 2150V2302L6704 2150H6834Z" fill="black"/>
</g>
<rect x="7976" y="2150" width="728" height="588" fill="#F5D22B"/>
<text fill="black" xml:space="preserve" style="white-space: pre" font-family="Montserrat" font-size="64" letter-spacing="0.04em"><tspan x="8117.58" y="2427.94">Drink almost </tspan><tspan x="8179.82" y="2505.95">everyday.</tspan></text>
<g style="mix-blend-mode:multiply" opacity="0.2">
<rect x="7976" y="2714" width="728" height="24" fill="#E5E5E5"/>
</g>
<g style="mix-blend-mode:screen" opacity="0.1">
<rect x="7976" y="2150" width="728" height="12" fill="white"/>
</g>
<g style="mix-blend-mode:multiply" opacity="0.04">
<path d="M8704 2150V2302L8574 2150H8704Z" fill="black"/>
</g>
<rect y="3586" width="728" height="588" fill="#BE94C5"/>
<text fill="black" xml:space="preserve" style="white-space: pre" font-family="Montserrat" font-size="64" letter-spacing="0.04em"><tspan x="126.673" y="3746.91">The beer with </tspan><tspan x="153.326" y="3824.93">the minimal </tspan><tspan x="217.634" y="3902.94">package </tspan><tspan x="165.42" y="3980.96">attracts me </tspan><tspan x="265.006" y="4058.98">more.</tspan></text>
<g style="mix-blend-mode:multiply" opacity="0.2">
<rect y="4150" width="728" height="24" fill="#E5E5E5"/>
</g>
<g style="mix-blend-mode:screen" opacity="0.1">
<rect y="3586" width="728" height="12" fill="white"/>
</g>
<g style="mix-blend-mode:multiply" opacity="0.04">
<path d="M728 3586V3738L598 3586H728Z" fill="black"/>
</g>
<rect x="2091" y="3586" width="728" height="588" fill="#A8CDF4"/>
<text fill="black" xml:space="preserve" style="white-space: pre" font-family="Montserrat" font-size="64" letter-spacing="0.04em"><tspan x="2177.77" y="3668.9">My favorite beer </tspan><tspan x="2187.52" y="3746.91">is TAIWAN Beer </tspan><tspan x="2229.39" y="3824.93">and Delirium </tspan><tspan x="2183.8" y="3902.94">Tremens, which </tspan><tspan x="2238.61" y="3980.96">are bright or </tspan><tspan x="2220.52" y="4058.98">have the fruit </tspan><tspan x="2353.04" y="4136.99">flavor. </tspan></text>
<g style="mix-blend-mode:multiply" opacity="0.2">
<rect x="2091" y="4150" width="728" height="24" fill="#E5E5E5"/>
</g>
<g style="mix-blend-mode:screen" opacity="0.1">
<rect x="2091" y="3586" width="728" height="12" fill="white"/>
</g>
<g style="mix-blend-mode:multiply" opacity="0.04">
<path d="M2819 3586V3738L2689 3586H2819Z" fill="black"/>
</g>
<rect x="6106" y="3586" width="728" height="588" fill="#FFF064"/>
<text fill="black" xml:space="preserve" style="white-space: pre" font-family="Montserrat" font-size="64" letter-spacing="0.04em"><tspan x="6252.55" y="3863.94">I prefer draft </tspan><tspan x="6263.14" y="3941.95">beer on tap.</tspan></text>
<g style="mix-blend-mode:multiply" opacity="0.2">
<rect x="6106" y="4150" width="728" height="24" fill="#E5E5E5"/>
</g>
<g style="mix-blend-mode:screen" opacity="0.1">
<rect x="6106" y="3586" width="728" height="12" fill="white"/>
</g>
<g style="mix-blend-mode:multiply" opacity="0.04">
<path d="M6834 3586V3738L6704 3586H6834Z" fill="black"/>
</g>
<rect x="7976" y="3586" width="728" height="588" fill="#F5D22B"/>
<text fill="black" xml:space="preserve" style="white-space: pre" font-family="Montserrat" font-size="64" letter-spacing="0.04em"><tspan x="8216.92" y="3785.92">Lack of </tspan><tspan x="8079.36" y="3863.94">information for </tspan><tspan x="8132.29" y="3941.95">finding new </tspan><tspan x="8136.11" y="4019.97">beers to try.</tspan></text>
<g style="mix-blend-mode:multiply" opacity="0.2">
<rect x="7976" y="4150" width="728" height="24" fill="#E5E5E5"/>
</g>
<g style="mix-blend-mode:screen" opacity="0.1">
<rect x="7976" y="3586" width="728" height="12" fill="white"/>
</g>
<g style="mix-blend-mode:multiply" opacity="0.04">
<path d="M8704 3586V3738L8574 3586H8704Z" fill="black"/>
</g>
<rect x="839" y="714" width="728" height="588" fill="#BE94C5"/>
<text fill="black" xml:space="preserve" style="white-space: pre" font-family="Montserrat" font-size="64" letter-spacing="0.04em"><tspan x="995.232" y="913.92">Hard to find </tspan><tspan x="1026.51" y="991.936">some new </tspan><tspan x="979.36" y="1069.95">beers that fit </tspan><tspan x="927.331" y="1147.97">my expectation.</tspan></text>
<g style="mix-blend-mode:multiply" opacity="0.2">
<rect x="839" y="1278" width="728" height="24" fill="#E5E5E5"/>
</g>
<g style="mix-blend-mode:screen" opacity="0.1">
<rect x="839" y="714" width="728" height="12" fill="white"/>
</g>
<g style="mix-blend-mode:multiply" opacity="0.04">
<path d="M1567 714V866L1437 714H1567Z" fill="black"/>
</g>
<rect x="2930" y="714" width="728" height="588" fill="#A8CDF4"/>
<text fill="black" xml:space="preserve" style="white-space: pre" font-family="Montserrat" font-size="64" letter-spacing="0.04em"><tspan x="3103.48" y="874.912">I&#39;m curious </tspan><tspan x="3052.3" y="952.928">about the IBU </tspan><tspan x="3058.02" y="1030.94">and the place </tspan><tspan x="3014.42" y="1108.96">where the beers </tspan><tspan x="3122.82" y="1186.98">are made.</tspan></text>
<g style="mix-blend-mode:multiply" opacity="0.2">
<rect x="2930" y="1278" width="728" height="24" fill="#E5E5E5"/>
</g>
<g style="mix-blend-mode:screen" opacity="0.1">
<rect x="2930" y="714" width="728" height="12" fill="white"/>
</g>
<g style="mix-blend-mode:multiply" opacity="0.04">
<path d="M3658 714V866L3528 714H3658Z" fill="black"/>
</g>
<rect x="4965" y="714" width="728" height="588" fill="#D1E17C"/>
<text fill="black" xml:space="preserve" style="white-space: pre" font-family="Montserrat" font-size="64" letter-spacing="0.04em"><tspan x="5079.96" y="874.912">As a newbie in </tspan><tspan x="5154.36" y="952.928">drinking, I </tspan><tspan x="5207.98" y="1030.94">cannot </tspan><tspan x="5060.77" y="1108.96">understand the </tspan><tspan x="5126.92" y="1186.98">beer basics.</tspan></text>
<g style="mix-blend-mode:multiply" opacity="0.2">
<rect x="4965" y="1278" width="728" height="24" fill="#E5E5E5"/>
</g>
<g style="mix-blend-mode:screen" opacity="0.1">
<rect x="4965" y="714" width="728" height="12" fill="white"/>
</g>
<g style="mix-blend-mode:multiply" opacity="0.04">
<path d="M5693 714V866L5563 714H5693Z" fill="black"/>
</g>
<rect x="6945" y="714" width="728" height="588" fill="#FFF064"/>
<text fill="black" xml:space="preserve" style="white-space: pre" font-family="Montserrat" font-size="64" letter-spacing="0.04em"><tspan x="7105.67" y="991.936">I love trying </tspan><tspan x="7123.51" y="1069.95">new beers.</tspan></text>
<g style="mix-blend-mode:multiply" opacity="0.2">
<rect x="6945" y="1278" width="728" height="24" fill="#E5E5E5"/>
</g>
<g style="mix-blend-mode:screen" opacity="0.1">
<rect x="6945" y="714" width="728" height="12" fill="white"/>
</g>
<g style="mix-blend-mode:multiply" opacity="0.04">
<path d="M7673 714V866L7543 714H7673Z" fill="black"/>
</g>
<rect x="8815" y="714" width="728" height="588" fill="#F5D22B"/>
<text fill="black" xml:space="preserve" style="white-space: pre" font-family="Montserrat" font-size="64" letter-spacing="0.04em"><tspan x="8955.64" y="952.928">I&#39;m willing to </tspan><tspan x="8936.15" y="1030.94">try all kinds of </tspan><tspan x="9075.85" y="1108.96">beers.</tspan></text>
<g style="mix-blend-mode:multiply" opacity="0.2">
<rect x="8815" y="1278" width="728" height="24" fill="#E5E5E5"/>
</g>
<g style="mix-blend-mode:screen" opacity="0.1">
<rect x="8815" y="714" width="728" height="12" fill="white"/>
</g>
<g style="mix-blend-mode:multiply" opacity="0.04">
<path d="M9543 714V866L9413 714H9543Z" fill="black"/>
</g>
<rect x="839" y="2150" width="728" height="588" fill="#BE94C5"/>
<text fill="black" xml:space="preserve" style="white-space: pre" font-family="Montserrat" font-size="64" letter-spacing="0.04em"><tspan x="972.549" y="2388.93">6 years of the </tspan><tspan x="1057.01" y="2466.94">drinking </tspan><tspan x="1013.98" y="2544.96">experience</tspan></text>
<g style="mix-blend-mode:multiply" opacity="0.2">
<rect x="839" y="2714" width="728" height="24" fill="#E5E5E5"/>
</g>
<g style="mix-blend-mode:screen" opacity="0.1">
<rect x="839" y="2150" width="728" height="12" fill="white"/>
</g>
<g style="mix-blend-mode:multiply" opacity="0.04">
<path d="M1567 2150V2302L1437 2150H1567Z" fill="black"/>
</g>
<rect x="2930" y="2150" width="728" height="588" fill="#A8CDF4"/>
<text fill="black" xml:space="preserve" style="white-space: pre" font-family="Montserrat" font-size="64" letter-spacing="0.04em"><tspan x="3064.92" y="2388.93">5 years of the </tspan><tspan x="3148.01" y="2466.94">drinking </tspan><tspan x="3104.98" y="2544.96">experience</tspan></text>
<g style="mix-blend-mode:multiply" opacity="0.2">
<rect x="2930" y="2714" width="728" height="24" fill="#E5E5E5"/>
</g>
<g style="mix-blend-mode:screen" opacity="0.1">
<rect x="2930" y="2150" width="728" height="12" fill="white"/>
</g>
<g style="mix-blend-mode:multiply" opacity="0.04">
<path d="M3658 2150V2302L3528 2150H3658Z" fill="black"/>
</g>
<rect x="4965" y="2150" width="728" height="588" fill="#D1E17C"/>
<text fill="black" xml:space="preserve" style="white-space: pre" font-family="Montserrat" font-size="64" letter-spacing="0.04em"><tspan x="5099.86" y="2388.93">2 years of the </tspan><tspan x="5183.01" y="2466.94">drinking </tspan><tspan x="5139.98" y="2544.96">experience</tspan></text>
<g style="mix-blend-mode:multiply" opacity="0.2">
<rect x="4965" y="2714" width="728" height="24" fill="#E5E5E5"/>
</g>
<g style="mix-blend-mode:screen" opacity="0.1">
<rect x="4965" y="2150" width="728" height="12" fill="white"/>
</g>
<g style="mix-blend-mode:multiply" opacity="0.04">
<path d="M5693 2150V2302L5563 2150H5693Z" fill="black"/>
</g>
<rect x="6945" y="2150" width="728" height="588" fill="#FFF064"/>
<text fill="black" xml:space="preserve" style="white-space: pre" font-family="Montserrat" font-size="64" letter-spacing="0.04em"><tspan x="7064.02" y="2388.93">10 years of the </tspan><tspan x="7163.01" y="2466.94">drinking </tspan><tspan x="7119.98" y="2544.96">experience</tspan></text>
<g style="mix-blend-mode:multiply" opacity="0.2">
<rect x="6945" y="2714" width="728" height="24" fill="#E5E5E5"/>
</g>
<g style="mix-blend-mode:screen" opacity="0.1">
<rect x="6945" y="2150" width="728" height="12" fill="white"/>
</g>
<g style="mix-blend-mode:multiply" opacity="0.04">
<path d="M7673 2150V2302L7543 2150H7673Z" fill="black"/>
</g>
<rect x="8815" y="2150" width="728" height="588" fill="#F5D22B"/>
<text fill="black" xml:space="preserve" style="white-space: pre" font-family="Montserrat" font-size="64" letter-spacing="0.04em"><tspan x="8949.99" y="2388.93">3 years of the </tspan><tspan x="9033.01" y="2466.94">drinking </tspan><tspan x="8989.98" y="2544.96">experience</tspan></text>
<g style="mix-blend-mode:multiply" opacity="0.2">
<rect x="8815" y="2714" width="728" height="24" fill="#E5E5E5"/>
</g>
<g style="mix-blend-mode:screen" opacity="0.1">
<rect x="8815" y="2150" width="728" height="12" fill="white"/>
</g>
<g style="mix-blend-mode:multiply" opacity="0.04">
<path d="M9543 2150V2302L9413 2150H9543Z" fill="black"/>
</g>
<rect x="839" y="3586" width="728" height="588" fill="#BE94C5"/>
<text fill="black" xml:space="preserve" style="white-space: pre" font-family="Montserrat" font-size="64" letter-spacing="0.04em"><tspan x="993.579" y="3668.9">I usually get </tspan><tspan x="999.326" y="3746.91">information </tspan><tspan x="942.767" y="3824.93">about beers on </tspan><tspan x="986.984" y="3902.94">social media </tspan><tspan x="937.489" y="3980.96">such as Tik Tok, </tspan><tspan x="941.424" y="4058.98">Instagram, and </tspan><tspan x="1050.45" y="4136.99">Youtube. </tspan></text>
<g style="mix-blend-mode:multiply" opacity="0.2">
<rect x="839" y="4150" width="728" height="24" fill="#E5E5E5"/>
</g>
<g style="mix-blend-mode:screen" opacity="0.1">
<rect x="839" y="3586" width="728" height="12" fill="white"/>
</g>
<g style="mix-blend-mode:multiply" opacity="0.04">
<path d="M1567 3586V3738L1437 3586H1567Z" fill="black"/>
</g>
<rect x="2930" y="3586" width="728" height="588" fill="#A8CDF4"/>
<text fill="black" xml:space="preserve" style="white-space: pre" font-family="Montserrat" font-size="64" letter-spacing="0.04em"><tspan x="3071.02" y="3785.92">I like to get a </tspan><tspan x="3061.86" y="3863.94">little liquored </tspan><tspan x="3070.61" y="3941.95">up and avoid </tspan><tspan x="3072.98" y="4019.97">being drunk.</tspan></text>
<g style="mix-blend-mode:multiply" opacity="0.2">
<rect x="2930" y="4150" width="728" height="24" fill="#E5E5E5"/>
</g>
<g style="mix-blend-mode:screen" opacity="0.1">
<rect x="2930" y="3586" width="728" height="12" fill="white"/>
</g>
<g style="mix-blend-mode:multiply" opacity="0.04">
<path d="M3658 3586V3738L3528 3586H3658Z" fill="black"/>
</g>
<rect x="8815" y="3586" width="728" height="588" fill="#F5D22B"/>
<text fill="black" xml:space="preserve" style="white-space: pre" font-family="Montserrat" font-size="64" letter-spacing="0.04em"><tspan x="8967.29" y="3746.91">I sometimes </tspan><tspan x="8931.92" y="3824.93">randomly pick </tspan><tspan x="9029.41" y="3902.94">up some </tspan><tspan x="8924.02" y="3980.96">expensive best </tspan><tspan x="8985.3" y="4058.98">looking tin.</tspan></text>
<g style="mix-blend-mode:multiply" opacity="0.2">
<rect x="8815" y="4150" width="728" height="24" fill="#E5E5E5"/>
</g>
<g style="mix-blend-mode:screen" opacity="0.1">
<rect x="8815" y="3586" width="728" height="12" fill="white"/>
</g>
<g style="mix-blend-mode:multiply" opacity="0.04">
<path d="M9543 3586V3738L9413 3586H9543Z" fill="black"/>
</g>
<rect x="417" width="728" height="588" fill="#BE94C5"/>
<text fill="black" xml:space="preserve" style="white-space: pre" font-family="Montserrat" font-size="96" letter-spacing="0.04em"><tspan x="594.074" y="328.416">Samrat</tspan></text>
<g style="mix-blend-mode:multiply" opacity="0.2">
<rect x="417" y="564" width="728" height="24" fill="#E5E5E5"/>
</g>
<g style="mix-blend-mode:screen" opacity="0.1">
<rect x="417" width="728" height="12" fill="white"/>
</g>
<g style="mix-blend-mode:multiply" opacity="0.04">
<path d="M1145 0V152L1015 0H1145Z" fill="black"/>
</g>
<rect x="2508" width="728" height="588" fill="#A8CDF4"/>
<text fill="black" xml:space="preserve" style="white-space: pre" font-family="Montserrat" font-size="96" letter-spacing="0.04em"><tspan x="2697.12" y="328.416">Mandy</tspan></text>
<g style="mix-blend-mode:multiply" opacity="0.2">
<rect x="2508" y="564" width="728" height="24" fill="#E5E5E5"/>
</g>
<g style="mix-blend-mode:screen" opacity="0.1">
<rect x="2508" width="728" height="12" fill="white"/>
</g>
<g style="mix-blend-mode:multiply" opacity="0.04">
<path d="M3236 0V152L3106 0H3236Z" fill="black"/>
</g>
<rect x="4543" width="728" height="588" fill="#D1E17C"/>
<text fill="black" xml:space="preserve" style="white-space: pre" font-family="Montserrat" font-size="96" letter-spacing="0.04em"><tspan x="4811.99" y="328.416">Cici</tspan></text>
<g style="mix-blend-mode:multiply" opacity="0.2">
<rect x="4543" y="564" width="728" height="24" fill="#E5E5E5"/>
</g>
<g style="mix-blend-mode:screen" opacity="0.1">
<rect x="4543" width="728" height="12" fill="white"/>
</g>
<g style="mix-blend-mode:multiply" opacity="0.04">
<path d="M5271 0V152L5141 0H5271Z" fill="black"/>
</g>
<rect x="6523" width="728" height="588" fill="#FFF064"/>
<text fill="black" xml:space="preserve" style="white-space: pre" font-family="Montserrat" font-size="96" letter-spacing="0.04em"><tspan x="6712.07" y="328.416">Steven</tspan></text>
<g style="mix-blend-mode:multiply" opacity="0.2">
<rect x="6523" y="564" width="728" height="24" fill="#E5E5E5"/>
</g>
<g style="mix-blend-mode:screen" opacity="0.1">
<rect x="6523" width="728" height="12" fill="white"/>
</g>
<g style="mix-blend-mode:multiply" opacity="0.04">
<path d="M7251 0V152L7121 0H7251Z" fill="black"/>
</g>
<rect x="8393" width="728" height="588" fill="#F5D22B"/>
<text fill="black" xml:space="preserve" style="white-space: pre" font-family="Montserrat" font-size="96" letter-spacing="0.04em"><tspan x="8630.73" y="328.416">Sean</tspan></text>
<g style="mix-blend-mode:multiply" opacity="0.2">
<rect x="8393" y="564" width="728" height="24" fill="#E5E5E5"/>
</g>
<g style="mix-blend-mode:screen" opacity="0.1">
<rect x="8393" width="728" height="12" fill="white"/>
</g>
<g style="mix-blend-mode:multiply" opacity="0.04">
<path d="M9121 0V152L8991 0H9121Z" fill="black"/>
</g>
<rect y="1432" width="728" height="588" fill="#BE94C5"/>
<text fill="black" xml:space="preserve" style="white-space: pre" font-family="Montserrat" font-size="64" letter-spacing="0.04em"><tspan x="150.952" y="1631.92">I don&#39;t know </tspan><tspan x="103.114" y="1709.94">what to try in a </tspan><tspan x="102.924" y="1787.95">new country or </tspan><tspan x="295.256" y="1865.97">city.</tspan></text>
<g style="mix-blend-mode:multiply" opacity="0.2">
<rect y="1996" width="728" height="24" fill="#E5E5E5"/>
</g>
<g style="mix-blend-mode:screen" opacity="0.1">
<rect y="1432" width="728" height="12" fill="white"/>
</g>
<g style="mix-blend-mode:multiply" opacity="0.04">
<path d="M728 1432V1584L598 1432H728Z" fill="black"/>
</g>
<rect x="2091" y="1432" width="728" height="588" fill="#A8CDF4"/>
<text fill="black" xml:space="preserve" style="white-space: pre" font-family="Montserrat" font-size="64" letter-spacing="0.04em"><tspan x="2310.76" y="1631.92">I am not </tspan><tspan x="2236.95" y="1709.94">interested in </tspan><tspan x="2185.52" y="1787.95">IPA because it&#39;s </tspan><tspan x="2286.14" y="1865.97">too bitter. </tspan></text>
<g style="mix-blend-mode:multiply" opacity="0.2">
<rect x="2091" y="1996" width="728" height="24" fill="#E5E5E5"/>
</g>
<g style="mix-blend-mode:screen" opacity="0.1">
<rect x="2091" y="1432" width="728" height="12" fill="white"/>
</g>
<g style="mix-blend-mode:multiply" opacity="0.04">
<path d="M2819 1432V1584L2689 1432H2819Z" fill="black"/>
</g>
<rect x="4126" y="1432" width="728" height="588" fill="#D1E17C"/>
<text fill="black" xml:space="preserve" style="white-space: pre" font-family="Montserrat" font-size="64" letter-spacing="0.04em"><tspan x="4298.05" y="1670.93">I prefer the </tspan><tspan x="4278.95" y="1748.94">beers with a </tspan><tspan x="4285.61" y="1826.96">sweet taste.</tspan></text>
<g style="mix-blend-mode:multiply" opacity="0.2">
<rect x="4126" y="1996" width="728" height="24" fill="#E5E5E5"/>
</g>
<g style="mix-blend-mode:screen" opacity="0.1">
<rect x="4126" y="1432" width="728" height="12" fill="white"/>
</g>
<g style="mix-blend-mode:multiply" opacity="0.04">
<path d="M4854 1432V1584L4724 1432H4854Z" fill="black"/>
</g>
<rect x="6106" y="1432" width="728" height="588" fill="#FFF064"/>
<text fill="black" xml:space="preserve" style="white-space: pre" font-family="Montserrat" font-size="64" letter-spacing="0.04em"><tspan x="6193.86" y="1631.92">I love beers that </tspan><tspan x="6195.08" y="1709.94">smell good, and </tspan><tspan x="6207.24" y="1787.95">higher ABV is a </tspan><tspan x="6389.35" y="1865.97">plus. </tspan></text>
<g style="mix-blend-mode:multiply" opacity="0.2">
<rect x="6106" y="1996" width="728" height="24" fill="#E5E5E5"/>
</g>
<g style="mix-blend-mode:screen" opacity="0.1">
<rect x="6106" y="1432" width="728" height="12" fill="white"/>
</g>
<g style="mix-blend-mode:multiply" opacity="0.04">
<path d="M6834 1432V1584L6704 1432H6834Z" fill="black"/>
</g>
<rect x="7976" y="1432" width="728" height="588" fill="#F5D22B"/>
<text fill="black" xml:space="preserve" style="white-space: pre" font-family="Montserrat" font-size="64" letter-spacing="0.04em"><tspan x="8067.89" y="1670.93">I don&#39;t have any </tspan><tspan x="8237.07" y="1748.94">brand </tspan><tspan x="8145.29" y="1826.96">preference.</tspan></text>
<g style="mix-blend-mode:multiply" opacity="0.2">
<rect x="7976" y="1996" width="728" height="24" fill="#E5E5E5"/>
</g>
<g style="mix-blend-mode:screen" opacity="0.1">
<rect x="7976" y="1432" width="728" height="12" fill="white"/>
</g>
<g style="mix-blend-mode:multiply" opacity="0.04">
<path d="M8704 1432V1584L8574 1432H8704Z" fill="black"/>
</g>
<rect y="2868" width="728" height="588" fill="#BE94C5"/>
<text fill="black" xml:space="preserve" style="white-space: pre" font-family="Montserrat" font-size="64" letter-spacing="0.04em"><tspan x="134.83" y="3106.93">I prefer beers </tspan><tspan x="105.612" y="3184.94">that the ABV is </tspan><tspan x="121.671" y="3262.96">between 5-8%</tspan></text>
<g style="mix-blend-mode:multiply" opacity="0.2">
<rect y="3432" width="728" height="24" fill="#E5E5E5"/>
</g>
<g style="mix-blend-mode:screen" opacity="0.1">
<rect y="2868" width="728" height="12" fill="white"/>
</g>
<g style="mix-blend-mode:multiply" opacity="0.04">
<path d="M728 2868V3020L598 2868H728Z" fill="black"/>
</g>
<rect x="2091" y="2868" width="728" height="588" fill="#A8CDF4"/>
<text fill="black" xml:space="preserve" style="white-space: pre" font-family="Montserrat" font-size="64" letter-spacing="0.04em"><tspan x="2213.52" y="3067.92">I usually drink </tspan><tspan x="2190.2" y="3145.94">white wine and </tspan><tspan x="2263.89" y="3223.95">sometimes </tspan><tspan x="2351.85" y="3301.97">beers. </tspan></text>
<g style="mix-blend-mode:multiply" opacity="0.2">
<rect x="2091" y="3432" width="728" height="24" fill="#E5E5E5"/>
</g>
<g style="mix-blend-mode:screen" opacity="0.1">
<rect x="2091" y="2868" width="728" height="12" fill="white"/>
</g>
<g style="mix-blend-mode:multiply" opacity="0.04">
<path d="M2819 2868V3020L2689 2868H2819Z" fill="black"/>
</g>
<rect x="4126" y="2868" width="728" height="588" fill="#D1E17C"/>
<text fill="black" xml:space="preserve" style="white-space: pre" font-family="Montserrat" font-size="64" letter-spacing="0.04em"><tspan x="4248.52" y="3106.93">I usually drink </tspan><tspan x="4250.42" y="3184.94">beers that my </tspan><tspan x="4291.95" y="3262.96">friends get.</tspan></text>
<g style="mix-blend-mode:multiply" opacity="0.2">
<rect x="4126" y="3432" width="728" height="24" fill="#E5E5E5"/>
</g>
<g style="mix-blend-mode:screen" opacity="0.1">
<rect x="4126" y="2868" width="728" height="12" fill="white"/>
</g>
<g style="mix-blend-mode:multiply" opacity="0.04">
<path d="M4854 2868V3020L4724 2868H4854Z" fill="black"/>
</g>
<rect x="6106" y="2868" width="728" height="588" fill="#FFF064"/>
<text fill="black" xml:space="preserve" style="white-space: pre" font-family="Montserrat" font-size="64" letter-spacing="0.04em"><tspan x="6228.52" y="3145.94">I usually drink </tspan><tspan x="6412.04" y="3223.95">IPA</tspan></text>
<g style="mix-blend-mode:multiply" opacity="0.2">
<rect x="6106" y="3432" width="728" height="24" fill="#E5E5E5"/>
</g>
<g style="mix-blend-mode:screen" opacity="0.1">
<rect x="6106" y="2868" width="728" height="12" fill="white"/>
</g>
<g style="mix-blend-mode:multiply" opacity="0.04">
<path d="M6834 2868V3020L6704 2868H6834Z" fill="black"/>
</g>
<rect x="7976" y="2868" width="728" height="588" fill="#F5D22B"/>
<text fill="black" xml:space="preserve" style="white-space: pre" font-family="Montserrat" font-size="64" letter-spacing="0.04em"><tspan x="8089.64" y="3067.92">I would love to </tspan><tspan x="8145.89" y="3145.94">know more </tspan><tspan x="8170.92" y="3223.95">about the </tspan><tspan x="8164.17" y="3301.97">breweries.</tspan></text>
<g style="mix-blend-mode:multiply" opacity="0.2">
<rect x="7976" y="3432" width="728" height="24" fill="#E5E5E5"/>
</g>
<g style="mix-blend-mode:screen" opacity="0.1">
<rect x="7976" y="2868" width="728" height="12" fill="white"/>
</g>
<g style="mix-blend-mode:multiply" opacity="0.04">
<path d="M8704 2868V3020L8574 2868H8704Z" fill="black"/>
</g>
<rect y="4304" width="728" height="588" fill="#BE94C5"/>
<text fill="black" xml:space="preserve" style="white-space: pre" font-family="Montserrat" font-size="64" letter-spacing="0.04em"><tspan x="95.5525" y="4542.93">I also search for </tspan><tspan x="147.452" y="4620.94">the beers on </tspan><tspan x="233.54" y="4698.96">Google.</tspan></text>
<g style="mix-blend-mode:multiply" opacity="0.2">
<rect y="4868" width="728" height="24" fill="#E5E5E5"/>
</g>
<g style="mix-blend-mode:screen" opacity="0.1">
<rect y="4304" width="728" height="12" fill="white"/>
</g>
<g style="mix-blend-mode:multiply" opacity="0.04">
<path d="M728 4304V4456L598 4304H728Z" fill="black"/>
</g>
</svg>
