<svg width="200" height="200" viewBox="0 0 200 200" fill="none" xmlns="http://www.w3.org/2000/svg">
<rect width="200" height="200" fill="white"/>
<path d="M128.557 120.093L106.302 142.348C104.647 144.003 102.402 144.932 100.062 144.932C97.7215 144.932 95.4769 144.003 93.822 142.348L71.5667 120.093L100.062 91.5973L128.557 120.093Z" fill="#81BCB8" stroke="#037971" stroke-width="5"/>
<path d="M151.716 88.4577C151.412 94.1533 148.849 99.8009 144.534 104.116L128.48 120.17L99.9845 91.6751L116.039 75.6209C120.354 71.3057 126.001 68.7424 131.697 68.4383C137.381 68.1348 142.626 70.1003 146.341 73.8143C150.055 77.5283 152.02 82.774 151.716 88.4577Z" fill="white" stroke="#037971" stroke-width="5"/>
<path d="M68.4223 68.4325C74.114 68.7333 79.7561 71.2918 84.0657 75.6014L100.101 91.6364L71.6055 120.132L55.5705 104.097C51.2609 99.787 48.7024 94.1449 48.4016 88.4532C48.1014 82.7731 50.0684 77.5287 53.7831 73.814C57.4978 70.0993 62.7422 68.1323 68.4223 68.4325Z" fill="white" stroke="#037971" stroke-width="5"/>
</svg>
