<svg xmlns="http://www.w3.org/2000/svg" viewBox="0 0 111.66 106.05"><defs><style>.cls-1{fill:#fe3b3c;}</style></defs><title>View my project</title><g id="图层_2" data-name="图层 2"><g id="图层_1-2" data-name="图层 1"><path class="cls-1" d="M10.43,48.66l-9-4.41.47-2.9,11.92,6.46-.45,2.72L0,52.85.47,50Z"/><path class="cls-1" d="M16.74,38.53l-1,2.44L3.91,36.08l1-2.43Z"/><path class="cls-1" d="M18.09,25.58l-2.86,4.17,2.83,1.94,3.35-4.9L23.16,28l-4.84,7.08L7.76,27.83l4.83-7.06L14.36,22,11,26.86l2.51,1.72,2.86-4.17Z"/><path class="cls-1" d="M30.5,16.9,26.4,8.58,28.51,7l5.41,11.93-2.12,1.6L25,14.94,28.47,23l-2.13,1.59-9.95-8.52,2.1-1.58,6.84,6.22-3.77-8.53,1.79-1.34Z"/><path class="cls-1" d="M46.07,1.18,50.43,10,52.59.41,56,0l1.51,12.71L54.91,13l-.42-3.47-.45-6-2.3,9.88-1.8.21L45.39,4.55l1,6L46.78,14l-2.62.31L42.65,1.59Z"/><path class="cls-1" d="M66.47,7.3l3.82-5.07,2.82.61L67.27,9.92l-1,4.54-2.62-.57,1-4.54L62.28.49l2.83.61Z"/><path class="cls-1" d="M82.77,17l-2.71,3.61L78,19,85.64,8.8l4,3a5.77,5.77,0,0,1,1.71,1.95A3.85,3.85,0,0,1,91.78,16a4.18,4.18,0,0,1-.85,2.12,3.66,3.66,0,0,1-2.81,1.59,5.36,5.36,0,0,1-3.51-1.27Zm1.28-1.7,1.88,1.41a2.33,2.33,0,0,0,1.57.57,1.83,1.83,0,0,0,1.29-.8,2.16,2.16,0,0,0,.47-1.55,2,2,0,0,0-.87-1.39l-1.93-1.46Z"/><path class="cls-1" d="M94.39,28.16l-1.23-1.69-3.79,2.75-1.55-2.13,10.34-7.53L101,23.4a5.37,5.37,0,0,1,1.24,3.42,3.51,3.51,0,0,1-1.58,2.68,4,4,0,0,1-2.1.83,3.9,3.9,0,0,1-2.14-.57l-2.59,5.32-.11.07L92,32.86Zm.49-2.95,1.25,1.72a2.17,2.17,0,0,0,1.32.94,1.77,1.77,0,0,0,1.44-.38,1.92,1.92,0,0,0,.85-1.25,2.11,2.11,0,0,0-.51-1.58L98,23Z"/><path class="cls-1" d="M104,45.55a7.76,7.76,0,0,1-3.36.42A5,5,0,0,1,98,44.86a5.61,5.61,0,0,1-1.83-5.38,5.11,5.11,0,0,1,1.45-2.54,7.6,7.6,0,0,1,2.87-1.7l.6-.2a7.8,7.8,0,0,1,3.37-.42,5.12,5.12,0,0,1,2.71,1.12A5.64,5.64,0,0,1,109,41.13a5,5,0,0,1-1.48,2.53,7.67,7.67,0,0,1-2.92,1.7Zm-.31-2.72a5.41,5.41,0,0,0,2.67-1.66,2.54,2.54,0,0,0-1.3-3.89,5.26,5.26,0,0,0-3.1.27l-.59.2a5.47,5.47,0,0,0-2.66,1.66,2.35,2.35,0,0,0-.35,2.31,2.31,2.31,0,0,0,1.63,1.6,5.5,5.5,0,0,0,3.11-.29Z"/><path class="cls-1" d="M111.55,55.23l.11,2.63-8.86.35a4.2,4.2,0,0,1-2.17-.46,3.62,3.62,0,0,1-1.51-1.47,4.76,4.76,0,0,1-.59-2.2,4.53,4.53,0,0,1,.91-3.2,3.75,3.75,0,0,1,2.87-1.25l.11,2.66a2,2,0,0,0-1.38.45,1.6,1.6,0,0,0-.4,1.26,1.5,1.5,0,0,0,.57,1.18,2.13,2.13,0,0,0,1.49.39Z"/><path class="cls-1" d="M102.24,70.54l1.13-4.93L100,64.84l-1.32,5.8-2.07-.48,1.91-8.36L111,64.65,109.12,73,107,72.52l1.32-5.77-3-.68L104.26,71Z"/><path class="cls-1" d="M94.5,83.59a4.58,4.58,0,0,1-2.1-2.91,5.44,5.44,0,0,1,.72-3.75,4.87,4.87,0,0,1,3.34-2.58,6.87,6.87,0,0,1,4.66,1l.68.38a7.73,7.73,0,0,1,2.53,2.15,5,5,0,0,1,1,2.68,5.14,5.14,0,0,1-.71,2.81,5.23,5.23,0,0,1-2.77,2.55,4.85,4.85,0,0,1-3.67-.26l1.28-2.3a2.66,2.66,0,0,0,1.9.27,2.52,2.52,0,0,0,1.37-1.31,2.22,2.22,0,0,0,.13-2.18,5.19,5.19,0,0,0-2.23-2l-.85-.47a5.75,5.75,0,0,0-3-.93A2.21,2.21,0,0,0,95,78a2.57,2.57,0,0,0-.4,1.86,2.51,2.51,0,0,0,1.17,1.45Z"/><path class="cls-1" d="M89.69,97.91l2.79-2.75L85,87.56l1.88-1.85,7.48,7.6,2.75-2.71,1.5,1.52-7.43,7.31Z"/><path class="cls-1" d="M75.84,97.83a1.34,1.34,0,0,0,1,.76,6.7,6.7,0,0,0,2.08-.16,14.82,14.82,0,0,1,2.32-.26,3.55,3.55,0,0,1,3.42,1.77,3.11,3.11,0,0,1,.37,1.9,3.88,3.88,0,0,1-.88,1.92,6.57,6.57,0,0,1-2,1.57,5.65,5.65,0,0,1-2.38.71,3.88,3.88,0,0,1-2.13-.44,3.63,3.63,0,0,1-1.5-1.53l2.32-1.25a1.75,1.75,0,0,0,1.14.94,2.27,2.27,0,0,0,1.6-.31,2.46,2.46,0,0,0,1.13-1.07,1.3,1.3,0,0,0,0-1.2,1.21,1.21,0,0,0-1-.62,7,7,0,0,0-2,.18,8.11,8.11,0,0,1-3.69.07,3.3,3.3,0,0,1-2.08-1.71,3.06,3.06,0,0,1-.13-2.89,5.55,5.55,0,0,1,2.53-2.44A6.54,6.54,0,0,1,78.54,93a4.24,4.24,0,0,1,2.34.42A3.77,3.77,0,0,1,82.47,95l-2.33,1.25q-1-1.86-3.23-.66a2.44,2.44,0,0,0-1.11,1A1.23,1.23,0,0,0,75.84,97.83Z"/><path class="cls-1" d="M69.25,98.14a1.3,1.3,0,0,1-.13,1.06,1.49,1.49,0,0,1-.89.64,1.45,1.45,0,0,1-1.09-.09,1.29,1.29,0,0,1-.66-.84,1.22,1.22,0,0,1,.13-1,1.46,1.46,0,0,1,.89-.64,1.5,1.5,0,0,1,1.09.08A1.27,1.27,0,0,1,69.25,98.14Z"/></g></g></svg>